<svg width="156" height="123" viewBox="0 0 156 123" fill="none" xmlns="http://www.w3.org/2000/svg">
<g opacity="0.05">
<path d="M6.50953 66.8234C5.84734 64.4606 5.35055 62.0226 4.47767 59.72C3.29258 56.4045 2.45546 52.975 1.97956 49.4864C1.19698 44.3996 0.549869 39.3278 0.128478 34.1958C-0.449254 27.0055 0.928657 19.7928 4.11649 13.3219C4.87319 11.7591 5.42471 10.1049 5.75704 8.40066C6.82557 2.59149 10.0913 -1.86327 13.944 -6.13738C17.1947 -9.7493 20.0842 -13.6622 22.9738 -17.6052C26.2256 -22.0508 30.486 -25.6613 35.4048 -28.14C39.5611 -30.3591 43.9947 -32.0141 48.5884 -33.0613C53.7955 -34.1448 59.0478 -34.9574 64.27 -35.9055C68.3184 -36.6429 72.3518 -37.7567 76.4453 -38.1029C82.3598 -38.6146 88.3046 -38.5543 94.2341 -38.7499C95.1238 -38.7496 96.0129 -38.795 96.898 -38.8855C100.374 -39.3671 103.55 -38.2384 106.756 -37.1999C115.009 -34.7588 122.71 -30.7416 129.435 -25.3707C134.166 -21.4032 138.231 -16.7033 141.475 -11.4498C144.334 -6.93487 147.39 -2.41997 150.279 2.09493C154.681 8.80939 158.002 16.1729 160.122 23.917C162.17 31.3024 162.17 39.1061 160.122 46.4915C158.316 52.7973 156.675 59.1482 154.884 65.454C152.502 73.7869 148.486 81.5628 143.07 88.3295C138.033 95.0708 132.292 101.256 125.944 106.78C118.825 112.6 110.776 117.179 102.135 120.325C96.84 122.27 91.2181 123.169 85.5806 122.974C82.7362 122.884 79.8768 122.853 77.0174 122.778C68.6129 122.364 60.2992 120.846 52.2905 118.263C49.7949 117.315 47.4001 116.12 45.1419 114.697C39.8896 111.882 35.7509 107.653 31.5972 103.56C29.11 100.993 26.8208 98.2407 24.7495 95.3276C21.258 90.8127 17.7819 86.1322 14.5612 81.3765C12.1533 77.8098 10.1364 74.0022 7.93917 70.3L6.63004 66.8234H6.50953ZM45.383 -26.4846C43.0355 -25.7315 40.7339 -24.842 38.4901 -23.8207C33.4033 -21.1871 29.4604 -17.1687 25.4271 -13.1655C19.4072 -7.14559 15.3137 -0.0722486 11.5212 7.33219C11.2371 8.06079 11.0104 8.81054 10.8437 9.57458C10.1664 11.5762 9.45928 13.5928 8.78204 15.5945C8.22674 16.8715 7.78832 18.1963 7.47254 19.5525C7.0662 22.6528 6.7956 25.783 6.6451 28.8983C6.44946 33.0972 6.78052 37.3412 6.23873 41.4798C5.765 44.4004 5.765 47.3783 6.23873 50.2989C7.08152 54.6934 8.18014 59.0429 9.24867 63.3621C10.2854 67.8501 12.187 72.0928 14.8471 75.8532C18.0176 80.1273 21.218 84.3815 24.4486 88.6155C26.6308 91.5051 28.7528 94.4547 31.1607 97.1486C32.6657 98.9395 34.833 100.249 36.5787 101.904C41.6651 107.098 48.1823 110.661 55.3005 112.138C56.3991 112.334 57.513 112.559 58.5966 112.815C65.5522 114.596 72.6634 115.7 79.8315 116.111C85.0387 116.277 90.2461 116.472 95.4683 116.472C97.4148 116.54 99.3558 116.233 101.187 115.569C105.852 113.643 110.443 111.536 114.912 109.218C119.841 106.903 124.304 103.705 128.081 99.7823C132.671 94.6503 137.517 89.7141 141.716 84.2812C144.338 80.713 146.502 76.8299 148.157 72.723C149.775 68.5425 151.182 64.2831 152.371 59.9609C155.14 51.2772 157.729 42.5635 156.675 33.2778C156.552 31.1158 156.121 28.9823 155.396 26.9418C153.138 21.6443 150.61 16.4072 148.082 11.2903C146.691 8.15668 145.056 5.13742 143.191 2.26046C139.564 -2.85643 135.455 -7.61222 131.783 -12.699C127.184 -19.1653 120.952 -24.2961 113.723 -27.5681C111.429 -28.4675 109.201 -29.5287 107.057 -30.7436C104.16 -32.6904 100.764 -33.7613 97.2742 -33.8286C95.9397 -33.6837 94.5947 -33.6586 93.2557 -33.7535C87.9821 -34.5362 82.6221 -34.5362 77.3485 -33.7535C73.1947 -33.3472 69.1012 -32.3387 64.9475 -31.7819C58.2153 -30.9149 51.6329 -29.1328 45.383 -26.4846" fill="#F8F3E8"/>
<path d="M18.5192 55.0395C16.8035 50.5246 14.9075 46.1 13.4476 41.4948C12.0008 36.3689 12.1847 30.9199 13.9742 25.9034C15.75 20.3049 17.872 14.8117 19.994 9.34872C20.5411 7.86966 21.3692 6.51027 22.4322 5.34545C28.4521 -0.839967 34.0505 -7.47673 41.5151 -12.0067C49.2055 -16.8963 57.8696 -20.0497 66.9037 -21.2472C76.0389 -22.3007 85.1592 -22.7523 94.1739 -20.826C103.535 -18.8695 112.233 -15.4983 119.578 -8.89148C124.758 -4.01569 129.404 1.39753 133.439 7.25679C136.566 11.2646 139.465 15.445 142.122 19.7782C147.646 29.5605 148.955 40.1705 147.239 51.202C147.028 52.5865 147.239 54.0311 146.953 55.3706C146.485 58.4567 145.688 61.4838 144.575 64.4004C141.565 70.9018 137.938 77.0722 132.129 81.5118C129.224 83.5794 126.21 85.4885 123.099 87.2308C117.531 90.5718 111.842 93.7323 106.379 97.2389C102.34 100.066 97.9736 102.395 93.3763 104.177C90.2614 105.145 86.9643 105.377 83.7446 104.854C82.7465 104.723 81.7413 104.652 80.7347 104.643C76.6412 104.643 72.5324 104.779 68.469 104.448C65.8063 104.125 63.1903 103.493 60.6733 102.566C57.6634 101.573 54.7288 100.249 51.7339 99.1201C48.0339 97.6438 44.6969 95.3848 41.9516 92.4982C36.6536 86.9447 31.7219 81.0529 27.1878 74.86C25.1612 71.9029 23.4939 68.715 22.2213 65.3636C20.7164 62.0376 19.6029 58.5612 18.3086 55.145L18.5493 55.0546L18.5192 55.0395ZM21.4237 53.7453L21.1679 53.8356C22.402 57.1014 23.5006 60.4123 24.9002 63.5878C26.111 66.842 27.7075 69.9393 29.6558 72.8133C34.1418 78.976 39.0391 84.8286 44.3142 90.3311C46.6677 92.8108 49.5265 94.7558 52.6969 96.0348C55.9025 97.2538 59.0781 98.4879 62.2536 99.7822C66.0105 101.325 70.1515 101.672 74.1126 100.775C77.0588 100.117 80.038 99.6143 83.0373 99.2705C89.1379 98.6706 94.9927 96.5603 100.073 93.1303C103.52 90.8428 107.117 88.7658 110.729 86.7642C112.941 85.5602 115.545 85.0034 117.576 83.5887C121.188 81.0754 124.544 78.1708 127.93 75.3415C132.02 71.8149 135.358 67.5001 137.743 62.6547C138.833 60.8987 139.617 58.9698 140.06 56.9509C141.189 48.7187 141.881 40.3963 140.376 32.1791C139.881 28.5218 138.925 24.9416 137.532 21.5239C135.147 16.6464 132.452 11.9263 129.465 7.39218C125.454 0.673502 120.106 -5.15046 113.754 -9.71929C105.557 -15.2289 96.0399 -18.4548 86.1825 -19.0651C85.2871 -19.1002 84.391 -19.014 83.5186 -18.8092C79.2295 -18.0416 74.9854 -17.0033 70.6662 -16.5067C65.2987 -16.101 60.0069 -14.9981 54.9243 -13.2258C48.8069 -11.1353 43.1975 -7.78192 38.46 -3.38325C35.2394 -0.20777 32.1844 3.14823 29.1443 6.50431C27.6705 8.03664 26.3777 9.73332 25.2915 11.561C22.703 16.2715 20.3253 21.1025 17.9324 25.9034C15.565 30.4509 15.0679 35.7435 16.5476 40.6521C17.887 45.167 19.7682 49.3658 21.4237 53.7151" fill="#F8F3E8"/>
<path d="M70.4557 59.2229C69.4361 59.1437 68.4406 58.8731 67.5211 58.4253C66.7955 57.9838 66.2149 57.3395 65.8512 56.572C65.4874 55.8044 65.3563 54.9472 65.4742 54.106C66.0762 50.6596 68.2132 48.0861 70.3051 45.4073C71.023 44.7697 71.9212 44.3708 72.8756 44.2657C73.8299 44.1605 74.7933 44.3543 75.6327 44.8203C76.5447 45.2189 77.2824 45.9327 77.7109 46.831C78.1393 47.7293 78.2297 48.7519 77.9655 49.7114C77.2883 54.136 74.3536 56.7096 70.4407 59.2229H70.4557ZM68.3338 55.7164C69.1014 55.897 69.8388 56.3333 70.2151 56.1076C72.3973 54.6026 74.534 52.8268 75.1661 49.9975C75.1653 49.3978 75.0636 48.8025 74.8652 48.2366C74.203 48.3871 73.2849 48.2367 72.9086 48.7183C71.4629 50.3429 70.1017 52.0408 68.8302 53.8051C68.572 54.4144 68.4049 55.0584 68.3338 55.7164" fill="#F8F3E8"/>
<path d="M63.3673 31.5615C63.0964 29.4695 62.6299 26.0833 62.2386 22.6972C62.058 21.1922 63.036 20.3495 64.2851 19.7626C66.0159 18.9348 67.9272 18.5285 69.2365 20.1388C70.7133 21.8032 71.8393 23.7481 72.5474 25.8576C73.0536 28.2606 73.2058 30.7247 72.999 33.1717C72.999 35.0378 71.8401 35.9258 69.989 36.1816C66.633 36.5428 64.782 35.5495 63.3974 31.6667L63.3673 31.5615ZM66.0161 31.3507H66.1814C66.3319 31.7119 66.3922 32.2687 66.6631 32.4041C67.4426 32.822 68.2964 33.0828 69.1763 33.1717C69.4472 33.1717 69.9439 32.1333 70.0041 31.5464C70.1683 30.3794 70.1278 29.1928 69.8839 28.0399C69.2887 25.9005 68.5492 23.8038 67.6713 21.7641C67.4816 21.5319 67.2349 21.3529 66.9552 21.2447C66.6756 21.1366 66.3729 21.1029 66.0763 21.147C65.4442 21.5233 64.5711 22.3661 64.6765 22.923C64.9774 25.7673 65.5495 28.5666 66.0161 31.3809" fill="#F8F3E8"/>
<path d="M88.6659 30.9292C90.2461 30.6734 92.0068 30.2973 93.7827 30.1317C94.1664 30.0245 94.5681 29.9972 94.9628 30.0518C95.3576 30.1065 95.737 30.2419 96.0772 30.4494C96.4174 30.6569 96.7111 30.9321 96.9403 31.2581C97.1696 31.584 97.3292 31.9537 97.4095 32.344C97.795 33.1445 97.8536 34.0637 97.5726 34.9066C97.2917 35.7495 96.6933 36.4498 95.9045 36.8589C94.5457 37.5309 93.1108 38.0363 91.6307 38.3639C90.1257 38.7401 88.5454 38.9507 86.9953 39.2066C86.3963 39.3722 85.757 39.3101 85.2011 39.0322C84.6452 38.7543 84.2122 38.2802 83.9853 37.7016C83.564 37.033 83.3934 36.2368 83.5036 35.4542C83.6138 34.6717 83.9976 33.9537 84.5872 33.4275C85.8212 32.5697 87.1907 31.9226 88.7108 31.0497L88.6659 30.9292ZM94.7306 32.8858C91.525 32.4945 86.7545 34.7068 86.6491 36.5128C89.6363 36.1081 92.4427 34.8485 94.7306 32.8858" fill="#F8F3E8"/>
</g>
</svg>
