<svg width="162" height="161" viewBox="0 0 162 161" fill="none" xmlns="http://www.w3.org/2000/svg">
<path d="M161.482 52.1872C161.312 42.5547 157.697 28.6102 153.259 20.0318C138.788 -7.94136 114.123 0.507283 106.429 3.8107C99.0553 6.97752 93.2727 13.7209 92.9411 21.9214C92.7879 25.7371 93.7917 29.6142 95.8542 32.8402C97.8366 35.941 100.832 38.2336 104.314 39.4289C111.389 41.8558 119.026 40.0481 126.274 39.6565C129.834 39.463 140.336 34.4658 146.477 46.2383C150.886 54.6892 149.443 64.6018 148.378 73.7949C148.227 75.0903 148.076 76.388 147.932 77.6857C148.108 59.9574 137.272 53.412 121.266 57.7035C97.7039 64.0189 86.4177 73.9451 80.8638 77.6857C80.8524 77.6424 80.8409 77.5969 80.8295 77.5536C80.5688 76.5883 80.2236 75.639 79.8554 74.7033C79.5216 73.7653 79.1398 72.8455 78.7213 71.9371C78.6756 71.837 78.6276 71.7345 78.5796 71.6343C77.6101 69.4396 76.5286 67.3019 75.3282 65.2142C75.2115 64.9683 75.0995 64.7201 74.9898 64.472C74.832 64.1123 74.3747 63.962 74.0843 64.283C73.0028 65.4737 71.999 66.7441 71.0775 68.0645C70.65 68.677 70.2658 69.3076 69.9343 69.9769C69.7605 70.3275 69.5844 70.71 69.4312 71.0993C65.2081 71.0219 60.9849 70.9582 56.7617 70.9012C56.1375 70.8921 55.5018 70.9013 54.873 70.8557C54.2145 69.4715 53.0713 68.1829 51.992 67.1471C51.6353 66.8033 51.2604 66.48 50.8739 66.1704C49.8267 65.3075 48.6675 64.604 47.435 63.962C47.1835 63.8323 46.884 63.9233 46.7902 64.2011C46.6782 64.5335 46.5639 64.8636 46.4724 65.2005C46.4541 65.2688 46.4518 65.3303 46.4587 65.3872C45.7796 67.7549 45.1371 70.1272 44.6203 72.5382C44.0441 75.2292 43.5114 77.9293 42.9809 80.6294C41.9383 85.9408 41.6113 91.3888 40.4566 96.6752C30.5309 142.154 3.36484 144.867 1.24753 145.309C1.04175 145.352 0.858825 145.614 0.938853 145.821C1.02574 146.049 1.14235 146.249 1.27954 146.427C1.15607 146.491 1.03946 146.563 0.925134 146.648C0.701056 146.816 0.598163 147.069 0.739927 147.333C0.83596 147.513 0.945712 147.684 1.06232 147.845C0.966291 147.895 0.874831 147.961 0.792516 148.05C0.474691 148.382 0.378658 148.933 0.680477 149.311C0.989156 149.696 1.61337 149.751 2.05696 149.867C2.18729 149.901 2.31762 149.933 2.44566 149.967C2.54398 150.008 2.65831 150.053 2.78864 150.106C3.87702 150.534 7.14901 150.211 11.8844 149.263C34.9621 144.651 43.1707 127.77 48.0524 127.499C35.5337 152.128 20.7332 154.208 17.9025 154.969C17.244 155.146 17.1982 155.907 17.779 156.214C17.9345 156.296 18.0877 156.378 18.2432 156.462C17.731 156.665 17.2805 156.997 17.0976 157.387C16.6517 158.334 17.5892 158.684 18.561 158.841C18.4009 159.399 18.3918 160.005 18.5724 160.594C18.6616 160.886 18.968 161.027 19.2378 160.995C51.2535 157.104 65.6654 130.192 65.9832 127.501C71.2193 128.173 101.55 124.107 115.518 115.107C115.212 117.122 115.036 119.168 114.814 121.181C114.526 123.795 114.249 126.408 113.97 129.024C113.419 134.183 107.881 150.165 107.646 153.031C107.591 153.708 108.535 154.336 109.002 153.646C109.358 153.118 109.722 152.594 110.074 152.066C110.255 152.241 110.476 152.385 110.735 152.489C111.011 152.599 111.32 152.524 111.517 152.319C111.542 152.426 111.565 152.535 111.59 152.642C111.713 153.191 112.619 153.309 112.841 152.767C116.764 143.185 129.715 118.23 130.312 115.594C130.879 115.658 129.743 115.753 130.312 115.724L131.558 115.66C131.336 124.867 126.676 148.804 126.626 151.602C126.617 152.093 127.182 152.282 127.566 152.182C128.119 152.036 128.599 151.77 128.995 151.417C128.999 151.604 129.006 151.791 129.011 151.977C129.025 152.453 129.683 152.685 130.026 152.394C130.637 151.875 131.348 151.378 131.899 150.798C132.39 150.281 132.541 149.282 132.768 148.615C133.346 146.919 143.917 120.516 146.564 114.317C152.34 100.794 158.264 89.6107 159.65 76.989C160.942 68.7817 161.628 60.4947 161.482 52.1872Z" fill="#32574A"/>
<path d="M69.1273 79.5733C68.343 79.1954 67.3736 79.4982 67.01 80.27C66.9094 80.3998 66.8385 80.5614 66.8111 80.7731C66.715 81.5404 67.5176 82.3258 68.2173 82.517" fill="#D6634C"/>
<path d="M53.5037 82.2636C53.9998 81.9722 54.2925 81.394 54.2422 80.8248C54.1873 80.1942 53.7666 79.7275 53.2316 79.4383C53.0349 79.3313 52.7925 79.3495 52.5822 79.4429C52.3764 79.4611 52.1729 79.5203 51.9854 79.625" fill="#D6634C"/>
<path d="M69.6212 76.814C69.1319 76.2311 67.9475 76.3495 67.2798 76.4702C66.3172 76.6455 65.3957 77.135 64.7624 77.8863C64.7281 77.925 64.7784 77.9978 64.8241 77.9614C65.5238 77.4013 66.2966 77.028 67.1906 76.8982C67.6434 76.8322 68.1075 76.839 68.5603 76.9164C68.885 76.9733 69.2165 77.0963 69.5458 77.0371C69.6486 77.0189 69.6875 76.8914 69.6212 76.814Z" fill="#8BB5DC"/>
<path d="M69.2553 77.5463C68.8918 77.7694 68.4505 77.9311 68.0023 78.029C68.0641 77.947 68.1098 77.8514 68.1304 77.7398C68.1647 77.5668 68.0824 77.4006 67.9452 77.3096C67.8949 77.1411 67.7691 77.0022 67.5999 76.943C67.4879 76.9043 67.3598 76.8884 67.2409 76.9134C66.9597 76.9726 66.9025 77.2936 66.7996 77.5213C66.7127 77.7148 66.7196 77.9106 66.8682 78.0722C66.8911 78.0973 66.914 78.1178 66.9391 78.1382C66.6784 78.1314 66.4155 78.1018 66.1617 78.0517C65.853 77.9903 65.5695 77.84 65.2585 77.8059C64.9887 77.7763 64.8332 78.0995 65.0413 78.2839C65.6449 78.8235 66.7951 78.7734 67.529 78.6095C68.2378 78.4501 68.7729 78.0904 69.2851 77.5873C69.2988 77.5714 69.2805 77.5327 69.2553 77.5463Z" fill="#8BB5DC"/>
<path d="M63.6191 85.8248C63.315 86.0001 62.9904 86.2915 62.6428 86.3621C62.1421 86.4646 61.9523 86.0821 61.8357 85.6746C61.7465 85.3581 61.6893 85.0303 61.639 84.707C61.6116 84.5317 61.6139 84.37 61.5773 84.2221C61.591 84.2152 61.607 84.2084 61.6207 84.2016C62.0026 84.0126 62.1375 83.6529 62.2221 83.2636C62.3044 83.2089 62.3296 83.0883 62.3067 82.9972C62.0346 81.8976 61.8791 80.6955 61.9157 79.5618C61.918 79.5231 61.8631 79.5208 61.8563 79.5572C61.7511 80.1947 61.6505 80.7957 61.6802 81.4445C61.7008 81.9067 61.7534 82.3643 61.8311 82.8196C61.4767 82.7354 61.1337 82.5487 60.7885 82.8083C60.4661 83.0496 60.4912 83.5846 60.6375 83.9215C60.7473 84.1742 60.9416 84.2926 61.1634 84.3063C61.1451 84.4156 61.1451 84.534 61.1497 84.6546C61.0423 85.069 60.8936 85.4833 60.7244 85.8658C60.649 86.0365 60.5735 86.3257 60.4386 86.4577C60.194 86.6968 59.9516 86.2642 59.7961 86.0684C59.6338 85.8635 59.3342 85.9432 59.3159 86.2118C59.2702 86.9313 60.0774 87.6803 60.7382 87.1384C61.0743 86.863 61.2572 86.4213 61.3464 85.9409C61.4035 86.1982 61.4927 86.4486 61.655 86.6558C61.9271 86.9996 62.3707 87.1453 62.796 87.0428C63.3425 86.9108 63.6534 86.5169 63.873 86.0297C63.9507 85.8635 63.7563 85.7451 63.6191 85.8248ZM61.2343 83.6916C61.1749 83.6461 61.0834 83.3319 61.1086 83.2727C61.184 83.0951 61.5293 83.1725 61.8105 83.2385C61.7488 83.53 61.607 83.9716 61.2343 83.6916Z" fill="#8BB5DC"/>
<path d="M57.4867 77.5441C56.8807 76.9135 56.0942 76.5561 55.223 76.465C54.4685 76.3853 53.499 76.4787 52.8702 76.9363C52.5844 77.1434 52.8405 77.5828 53.156 77.5282C53.6979 77.4349 54.1735 77.2937 54.6903 77.2368C54.6788 77.2504 54.6651 77.2664 54.656 77.28C54.5439 77.4417 54.5485 77.6443 54.6331 77.8037C54.656 77.8674 54.6971 77.9266 54.7428 77.9858C54.8046 78.0609 54.8915 78.0678 54.9784 78.0655C55.0035 78.07 55.0287 78.0723 55.0538 78.0723C55.4059 78.0791 55.7032 77.658 55.5203 77.3324C55.4951 77.2891 55.47 77.2504 55.4402 77.2186C55.9638 77.255 56.4875 77.3552 56.9928 77.5077C56.5835 78.0291 56.005 78.2704 55.3465 78.3364C54.6514 78.4047 54.0089 78.1156 53.3275 78.1292C53.1286 78.1338 52.9708 78.4184 53.1491 78.5595C53.8145 79.0877 54.8778 79.1469 55.6803 78.9625C56.2474 78.8304 56.755 78.4912 57.1231 78.045C57.13 78.0382 57.1368 78.0313 57.1414 78.0222C57.2168 77.9266 57.2877 77.8287 57.3518 77.724C57.37 77.6944 57.3769 77.6648 57.3769 77.6352C57.3906 77.6398 57.4066 77.6443 57.4203 77.6511C57.4912 77.6762 57.537 77.5965 57.4867 77.5441Z" fill="#8BB5DC"/>
<path d="M66.0086 82.7667C65.3318 82.7895 64.4698 82.983 63.921 83.395C63.8936 83.4155 63.9073 83.4656 63.9461 83.4611C64.328 83.411 64.6961 83.2607 65.0688 83.1697C65.3889 83.09 65.7136 83.0262 66.0337 82.9397C66.1275 82.9124 66.1115 82.7621 66.0086 82.7667Z" fill="#FCF6DE"/>
<path d="M66.8432 83.5886C66.0772 83.7206 65.3249 83.9255 64.5681 84.1031C64.5338 84.1122 64.543 84.1668 64.5795 84.1645C65.3592 84.1008 66.1367 84.0052 66.8889 83.7798C66.9964 83.7456 66.9552 83.5681 66.8432 83.5886Z" fill="#FCF6DE"/>
<path d="M66.9301 84.9623C66.2922 84.9008 65.6497 84.9304 65.0094 84.9349C64.9706 84.9349 64.966 84.9987 65.0049 85.0032C65.6451 85.0533 66.2853 85.1216 66.9301 85.1034C67.0101 85.1011 67.0101 84.9714 66.9301 84.9623Z" fill="#FCF6DE"/>
<path d="M58.3397 83.1768C57.9715 83.0175 57.5622 82.956 57.1713 82.8763C56.7734 82.7943 56.3595 82.6759 55.9503 82.6919C55.7788 82.6987 55.7559 82.9287 55.9137 82.981C56.2955 83.1108 56.7345 83.1153 57.1347 83.1495C57.5279 83.1836 57.9441 83.2406 58.3374 83.1928C58.3442 83.1928 58.3465 83.1791 58.3397 83.1768Z" fill="#FCF6DE"/>
<path d="M57.6125 84.0051C57.0043 83.7683 56.1674 83.6204 55.5478 83.8844C55.422 83.9391 55.4563 84.1189 55.5844 84.1394C55.9159 84.1918 56.2543 84.128 56.5904 84.1189C56.9288 84.1098 57.2627 84.0985 57.6011 84.0802C57.6422 84.078 57.6491 84.0188 57.6125 84.0051Z" fill="#FCF6DE"/>
<path d="M57.8755 85.0395C57.2055 84.8096 56.2589 84.8324 55.6576 85.2444C55.5455 85.3218 55.6256 85.4903 55.7513 85.4789C56.1126 85.4448 56.4556 85.3105 56.8145 85.249C57.1644 85.1898 57.5188 85.1579 57.8686 85.101C57.9052 85.0942 57.9098 85.0509 57.8755 85.0395Z" fill="#FCF6DE"/>
<path d="M49.923 68.595C49.7263 68.0555 49.4771 67.5478 49.1501 67.0742C48.9192 66.7419 48.5396 66.0907 48.1738 65.9154C47.8148 65.7447 47.641 66.0611 47.4833 66.3343C47.154 66.9058 46.715 67.6389 46.7767 68.315C46.7813 68.3606 46.843 68.397 46.8773 68.3537C47.1609 68.0168 47.7576 65.9701 48.2104 66.0953C48.3156 66.1249 48.471 66.3708 48.5465 66.4664C48.7546 66.7236 48.9261 67.0128 49.0792 67.3042C49.3079 67.739 49.4794 68.2012 49.6074 68.6747C49.6669 68.8751 49.9938 68.7863 49.923 68.595Z" fill="#D6634C"/>
<path d="M75.1821 68.6863C75.0883 68.1012 74.8757 67.5366 74.5899 67.0175C74.4572 66.7762 74.1394 66.075 73.8079 66.0636C73.4992 66.0522 73.1516 66.8217 73.0556 67.0243C72.7972 67.5571 72.5754 68.1763 72.6006 68.7751C72.6029 68.832 72.676 68.8411 72.6966 68.791C73.0007 68.058 73.1676 67.2611 73.6272 66.5941C73.9885 66.0704 74.2995 67.0175 74.4229 67.3089C74.6219 67.7688 74.7339 68.2446 74.8368 68.7318C74.8825 68.9458 75.2164 68.9094 75.1821 68.6863Z" fill="#D6634C"/>
</svg>
