<svg width="133" height="127" viewBox="0 0 133 127" fill="none" xmlns="http://www.w3.org/2000/svg">
<path opacity="0.05" d="M68.2358 125.582C64.7981 124.638 61.3752 123.665 57.908 122.765C55.031 122.013 52.0948 121.467 49.2621 120.582C45.0867 119.299 40.882 117.971 36.8394 116.29C34.9914 115.24 33.2689 113.983 31.7051 112.544C27.8986 109.727 25.3312 105.833 22.6165 102.072C20.5067 99.1221 18.3674 96.1723 16.3608 93.2225C15.5026 91.7943 14.7294 90.3168 14.0447 88.7978C11.9644 84.7271 9.61828 80.7595 7.86256 76.5856C5.64948 71.4676 3.95298 66.1285 1.79891 60.9958C0.308346 57.4643 -0.270235 53.6148 0.116766 49.8013C0.441352 46.0698 1.017 42.4268 1.47437 38.6363C1.85797 35.48 2.1088 32.3089 2.59568 29.1821C3.20059 25.4506 3.8792 21.7191 4.73492 18.0466C5.66442 14.0496 6.68229 10.0526 7.90687 6.14408C9.45057 1.7639 11.7859 -2.29553 14.7968 -5.83215C17.5853 -9.34242 21.0675 -12.2922 23.8855 -15.8025C27.8395 -20.7435 33.5197 -23.177 38.6394 -26.4956C41.7211 -28.5589 44.9181 -30.4449 48.2146 -32.1444C52.7238 -34.4504 57.3532 -36.5133 62.0831 -38.3243C69.4601 -41.0676 77.2206 -41.2741 84.9517 -40.8021C95.3194 -40.0795 105.5 -37.6735 115.094 -33.6784C119.166 -32.0265 122.987 -29.7404 127.015 -27.9557C132.473 -25.3868 137.321 -21.6864 141.238 -17.1004C143.36 -14.7591 145.152 -12.1391 146.564 -9.3129C149.648 -3.0888 152.466 3.26805 155.21 9.68388C157.049 13.7795 158.492 18.0417 159.518 22.4123C160.742 28.3119 162.38 34.2115 162.026 40.3619C162.015 44.059 162.232 47.7533 162.675 51.4237C162.675 51.5564 162.882 51.6597 163 51.7776C163 55.5387 163 59.3145 163 63.0755C162.69 64.7421 162.365 66.394 162.1 68.0607C161.377 72.4854 159.4 76.6151 157.674 80.73C156.639 83.2732 155.421 85.7378 154.03 88.1046C149.161 96.1723 142.049 102.396 136.074 109.564C133.832 112.249 130.733 113.694 127.65 115.228C121.151 118.604 114.317 121.293 107.26 123.252C104.914 123.842 102.671 124.727 100.384 125.597C86.8844 127.263 84.2732 127.662 68.2358 125.597V125.582ZM87.9615 -34.9025C86.3534 -34.7255 84.7156 -34.6223 83.1074 -34.4011C79.4865 -34.0425 75.8868 -33.4961 72.3226 -32.7639C65.6362 -31.1199 59.235 -28.4797 53.3342 -24.9321C50.2359 -23.059 49.4835 -20.5075 51.254 -17.3659C61.0899 0.19529 70.96 17.7664 80.8648 35.3473C81.4402 36.3797 82.2224 37.0582 83.2994 36.8222C84.3765 36.5862 85.66 36.4977 86.2502 34.8901C93.2731 15.5245 100.428 -3.79679 107.422 -23.177C107.705 -24.4137 107.505 -25.7117 106.861 -26.8053C105.199 -29.438 102.746 -31.4773 99.8532 -32.6311C96.0931 -34.2043 92.0523 -34.9971 87.9763 -34.9615L87.9615 -34.9025ZM13.6168 14.1086C13.425 20.5687 15.9624 22.8105 20.7427 24.3002C37.9605 29.6688 55.2374 34.7573 72.4995 39.949C73.7978 40.3324 75.0812 40.7454 76.3943 41.0846C76.8985 41.2737 77.4561 41.263 77.9526 41.0546C78.4491 40.8462 78.8469 40.456 79.0649 39.9637C79.3891 39.1543 79.3891 38.2511 79.0649 37.4416C77.5895 34.713 75.9961 32.0435 74.3437 29.4181C68.896 21.155 64.0162 12.5315 59.7375 3.60728C56.1671 -4.20971 51.5341 -11.5547 47.3292 -19.0768C47.0219 -19.5543 46.5657 -19.9172 46.0311 -20.1092C43.1374 -21.0409 39.9928 -20.7917 37.2821 -19.416C30.5248 -16.5694 25.7887 -11.3925 21.6281 -5.52238C19.0541 -1.52458 17.0667 2.82143 15.7265 7.38304C14.8118 10.0231 14.0594 12.7369 13.6316 14.1086H13.6168ZM91.4879 38.9165C92.3879 38.4593 93.155 38.0315 93.9517 37.6776C98.5254 35.6225 103.104 33.5872 107.688 31.5715C114.386 28.6217 121.055 25.5539 127.812 22.7221C132.504 20.7752 137.358 19.1822 142.123 17.3976C143.47 16.9494 144.711 16.2283 145.767 15.2791C146.823 14.33 147.672 13.1734 148.261 11.8815C148.726 10.9722 148.915 9.94709 148.807 8.93167C147.907 5.18541 146.933 1.45392 145.738 -2.20385C144.355 -6.3223 142.155 -10.1195 139.271 -13.3684C136.386 -16.6173 132.875 -19.2511 128.948 -21.1121C125.746 -22.7493 121.955 -23.2655 118.399 -24.1946C113.574 -25.4778 110.299 -23.3982 108.676 -18.9883C102.115 -1.00426 95.5157 16.9552 88.8764 34.8901C88.5951 35.4998 88.5625 36.1951 88.7857 36.8285C89.0088 37.4618 89.4698 37.9834 90.0712 38.2823C90.5139 38.5466 90.978 38.7735 91.4584 38.9607L91.4879 38.9165ZM76.7045 53.4886C76.8078 51.114 76.2913 50.6272 74.7864 51.2172C70.5373 52.9281 66.229 54.5063 62.1422 56.5416C56.4557 59.6125 50.4231 61.9941 44.1721 63.6359C42.0032 64.1374 39.7457 64.4029 37.6654 65.1108C31.9113 66.9397 26.1722 68.7981 20.5068 70.8924C18.7195 71.5498 17.1231 72.6393 15.8594 74.0635C15.3098 74.6847 14.8884 75.4086 14.62 76.1933C14.3515 76.9781 14.2413 77.8081 14.2954 78.6357C15.7708 85.9365 18.7215 92.662 24.1657 97.9865C26.9099 100.641 29.5363 103.414 32.4576 105.862C35.4303 108.627 38.8926 110.813 42.6671 112.308C44.0074 112.737 45.4509 112.721 46.781 112.261C48.1111 111.801 49.256 110.922 50.0441 109.756C56.1833 98.1976 61.6848 86.3118 66.5241 74.152C68.6052 69.1033 71.1438 64.2552 74.1078 59.6684C75.1879 57.7151 76.0725 55.6599 76.7488 53.5328L76.7045 53.4886ZM79.1387 123.591C81.1658 123.536 83.1846 123.309 85.1732 122.912C89.4223 121.718 93.583 120.199 97.7731 118.827C99.3517 118.296 99.514 117.072 99.2485 115.715C99.1157 114.977 98.7173 114.24 98.5108 113.547C96.8731 107.736 95.1616 101.939 93.6419 96.0986C92.1665 90.671 91.0746 85.1695 89.7615 79.7123C88.4484 74.2552 87.1207 69.2553 85.8961 64.0194C85.1437 60.7599 84.7009 57.4413 83.9337 54.1965C83.4911 52.3086 82.0011 51.881 80.7175 53.3264C79.6072 54.7364 78.6479 56.2589 77.8553 57.869C77.3094 58.8277 77.0586 59.9781 76.3799 60.8188C71.4374 67.9279 68.6043 76.0694 65.0044 83.8274C62.4962 89.2551 60.1356 94.7564 57.6274 100.199C56.0395 103.173 54.6595 106.253 53.4966 109.417C52.4934 112.839 52.1244 114.358 56.3736 116.364C58.4096 117.337 60.3864 118.429 62.452 119.314C67.6967 121.638 73.3002 123.05 79.0206 123.488L79.1387 123.591ZM4.29223 50.5682C4.67584 53.518 4.92654 55.9516 5.28063 58.3115C5.57019 61.2458 6.42697 64.0959 7.80349 66.7037C8.50207 67.7051 9.48816 68.471 10.6314 68.9003C11.7747 69.3295 13.0215 69.4019 14.2068 69.1078C19.9756 67.1904 25.7592 65.2141 31.6017 63.5327C35.3049 62.4708 39.2146 62.0578 42.9178 61.0401C53.9833 57.8985 63.9571 51.9547 74.8307 48.2969C75.1238 48.1227 75.3721 47.8829 75.5565 47.5962C75.7409 47.3095 75.8561 46.9838 75.8929 46.645C76.0405 44.3589 75.3321 43.5182 73.1486 42.8692C54.8242 37.3531 36.4949 31.8468 18.1608 26.3503C16.9611 26.0023 15.6832 26.0332 14.5018 26.4388C10.3265 28.0759 8.60019 31.7484 7.41987 35.7307C7.00676 37.1023 6.78563 38.5478 6.49055 39.9637C5.72335 43.6805 5.01518 47.3382 4.29223 50.5682ZM107.437 116.703C108.374 116.777 109.317 116.777 110.255 116.703C116.4 115.905 122.326 113.9 127.694 110.803C131.943 108.237 135.956 105.449 136.856 99.9775C136.995 99.452 136.985 98.8986 136.829 98.378C136.673 97.8575 136.376 97.3902 135.971 97.0277C134.392 95.4643 132.872 93.8125 131.382 92.1606C127.517 87.8981 123.917 83.3112 119.786 79.3879C113.958 73.7538 107.702 68.5621 101.697 63.164C99.3664 61.0401 97.1827 58.7392 94.9696 56.4678C93.2139 54.6832 91.5909 52.7364 89.7172 51.0697C89.3205 50.8477 88.8765 50.7238 88.4222 50.7084C87.9679 50.693 87.5164 50.7865 87.1057 50.9812C86.5893 51.2467 86.3385 52.4562 86.3975 53.2379C86.5008 54.5653 87.0173 55.8484 87.2238 57.1758C88.1913 63.5005 89.5813 69.7534 91.3845 75.8924C93.6271 83.2669 95.4269 90.7742 97.4925 98.2077C98.7908 102.883 99.1893 107.795 101.314 112.293C103.04 115.936 103.881 116.851 107.437 116.836V116.703ZM151.079 59.4767C155.21 59.4767 156.435 58.6508 157.497 55.4355C157.849 54.6479 158.154 53.8402 158.411 53.0166C158.932 50.829 159.287 48.6055 159.474 46.3648C159.532 43.9712 159.429 41.5764 159.164 39.1968C159.029 36.8736 158.768 34.5595 158.382 32.2647C157.58 28.093 155.599 24.2387 152.672 21.1587C150.415 18.7398 148.084 17.6189 144.646 19.1528C134.126 23.8282 123.445 28.1644 112.837 32.6334C106.935 35.0965 101.151 37.6038 95.2794 40.0079C94.656 40.2528 94.1263 40.6886 93.7658 41.2529C93.4054 41.8173 93.2329 42.4811 93.2731 43.1495C93.2731 43.71 94.6599 44.2999 95.4418 44.8309C95.7081 44.9559 95.9917 45.0404 96.2829 45.0816C111.322 49.0835 126.356 53.0707 141.385 57.0431C144.838 57.9575 148.32 58.813 151.079 59.5062V59.4767ZM156.405 71.8954C156.346 70.1714 156.183 68.4525 155.918 66.748C155.69 65.9273 155.223 65.1931 154.576 64.6389C152.289 62.4855 149.264 61.8366 146.372 61.0696C130.409 56.7629 114.42 52.5201 98.4074 48.3412C96.8213 47.9651 95.2082 47.7136 93.5828 47.589C93.1255 47.589 92.6386 47.8987 92.1075 48.0757C92.2495 48.562 92.4632 49.0243 92.7418 49.4474C95.486 52.3972 98.1714 55.4355 101.093 58.2083C107.186 63.9899 113.589 69.4618 119.564 75.3467C124.374 80.0811 128.756 85.2285 133.3 90.2432C135.181 92.3889 137.631 93.9587 140.367 94.7712C140.982 94.9985 141.643 95.0703 142.291 94.9802C142.94 94.8901 143.556 94.641 144.085 94.255C147.238 91.8508 150.018 88.9929 152.333 85.7743C155.461 81.6003 155.697 76.5413 156.346 71.8954" fill="#FDFBF8"/>
</svg>
