<svg width="248" height="212" viewBox="0 0 248 212" fill="none" xmlns="http://www.w3.org/2000/svg">
<g opacity="0.05">
<path d="M3.75127 185.978C2.77641 185.964 1.84006 185.594 1.12037 184.936C0.400669 184.279 -0.0523545 183.379 -0.153619 182.41C-0.290958 181.749 -1.2984 181.364 -1.85054 180.571C0.100831 180.419 -0.0784112 179.308 -0.495473 177.691C-0.912536 176.075 -0.347948 175.231 1.55543 175.447C2.36107 175.499 3.17031 175.434 3.95707 175.253C6.13597 174.896 8.33523 174.518 9.7769 176.906L3.97465 185.689" fill="#FDFBF8"/>
<path d="M123.671 141.325L123.028 145.679L114.559 142.058L112.734 145.497L112.426 145.834L111.109 143.354C112.854 139.974 115.612 137.224 118.997 135.489C120.612 137.417 122.184 139.348 123.776 141.256" fill="#FDFBF8"/>
<path d="M104.177 155.717C104.526 155.335 104.956 154.864 105.023 154.43C105.392 151.638 106.874 151.098 109.29 152.194C108.812 153.156 108.389 154.145 108.025 155.156C107.797 155.608 107.686 156.11 107.702 156.616C107.717 157.122 107.859 157.616 108.114 158.053C108.368 158.491 108.728 158.858 109.161 159.121C109.593 159.384 110.085 159.534 110.59 159.559C114.641 160.625 115.046 161.984 112.422 165.352L104.177 155.717Z" fill="#FDFBF8"/>
<path d="M140.492 34.0483C139.774 33.3921 139.181 32.6445 138.704 32.0849C137.383 31.9076 135.977 31.7337 134.568 31.5174C134.82 30.3954 135.267 29.3268 135.889 28.3596C137.776 26.2949 138.341 29.2819 139.989 29.5521C142.559 27.3706 145.176 29.5986 147.82 29.9961L140.402 33.9662" fill="#FDFBF8"/>
<path d="M32.5954 215.747C30.6874 214.951 28.4749 214.082 29.543 211.516C30.4824 209.851 31.6359 208.316 32.9741 206.951C34.5405 207.805 35.9313 208.582 37.2995 209.338L32.5954 215.747Z" fill="#FDFBF8"/>
<path d="M98.9186 114.377C98.6268 114.11 98.3123 113.824 97.6948 113.012C101.723 113.111 102.426 109.593 104.466 107.586L103.108 108.486C102.779 107.234 102.57 105.954 102.484 104.662C102.575 102.399 104.637 103.253 105.865 102.81L105.801 110.001L105.808 111.119C103.081 111.715 102.63 114.597 100.804 116.1L99.0084 114.459" fill="#FDFBF8"/>
<path d="M98.3378 90.498C98.5634 90.2512 99.1199 90.1829 99.2167 89.9418C99.5568 88.8936 99.7662 87.8082 100.123 86.6516L101.296 86.9001L101.119 89.6626C102.37 90.1873 103.655 91.9802 105.087 89.3765L102.753 88.6854L102.523 87.8562L105.519 87.0116L107.216 86.4619L107.031 91.441L102.146 93.3609L98.8387 92.0679C98.6232 91.5826 98.4096 91.1406 98.2166 90.6758L98.3603 90.5186" fill="#FDFBF8"/>
<path d="M126.366 169.652L127.217 172.778L126.971 173.047C126.349 174.043 125.882 175.635 124.372 174.584C123.878 174.132 123.926 172.818 123.627 171.433L117.89 171.131C117.824 171.112 117.764 171.077 117.713 171.031C117.663 170.985 117.623 170.928 117.598 170.865L118.213 170.191L120.401 166.219L121.505 165.868C121.757 167.17 121.958 168.301 123.77 168.392C124.696 168.415 125.596 169.278 126.568 169.837" fill="#FDFBF8"/>
<path d="M89.9264 138.366C90.0905 138.186 90.4789 138.212 90.6429 138.032C91.4838 137.112 92.5095 135.99 93.5945 137.146C94.2004 137.7 93.9593 139.046 94.1636 140.715C95.3496 140.769 97.0547 140.886 99.1542 141.157L94.9288 145.285C93.2333 142.994 91.5173 140.726 89.8237 138.478" fill="#FDFBF8"/>
<path d="M83.7008 131.03C84.522 130.627 85.3659 130.244 86.1626 129.778C86.5127 129.499 86.9347 129.324 87.3798 129.275C87.825 129.225 88.275 129.303 88.6778 129.499C89.0806 129.695 89.4196 130.001 89.6559 130.381C89.8921 130.762 90.0156 131.202 90.0124 131.649L90.3665 134.732L87.8094 135.773L83.8132 131.132" fill="#FDFBF8"/>
<path d="M113.567 70.2725C110.749 68.85 110.749 68.85 112.946 64.5979C113.854 65.1811 114.765 65.8075 115.673 66.3906L113.567 70.2725Z" fill="#FDFBF8"/>
<path d="M105.695 111.018L105.688 109.899L105.695 111.018Z" fill="#FDFBF8"/>
<path d="M32.3105 119.032L30.7431 118.629C30.9892 118.36 30.9551 118.082 31.2148 118.113C35.3145 115.97 38.3411 109.098 44.0626 114.78L47.6237 113.587C47.6488 114.146 47.9679 115.013 47.7404 115.217C46.7333 115.87 45.6804 116.45 44.5903 116.952C44.2955 119.637 42.9818 122.107 40.9199 123.852C40.1564 124.648 39.1597 125.181 38.0736 125.373C36.9875 125.565 35.8686 125.406 34.8785 124.92C33.8336 124.422 33.0068 123.558 32.5545 122.493C32.1023 121.427 32.0554 120.233 32.4228 119.135" fill="#FDFBF8"/>
<path d="M68.3322 87.456L61.0349 93.1426C60.2498 91.478 59.6315 90.1721 58.9177 88.6549C58.4573 87.5828 58.425 86.3749 58.8281 85.28C59.2311 84.1851 60.0391 83.286 61.0847 82.7683C63.0551 81.6037 64.8964 80.4448 67.0803 82.111C67.4169 82.4187 67.9909 82.7373 68.0679 83.0136C68.2164 84.879 68.9271 85.8587 71.3943 84.7363L71.3424 85.9648L68.7838 87.4575L68.5369 87.2319" fill="#FDFBF8"/>
<path d="M76.9513 101.14C77.7265 99.9551 78.5897 98.8298 79.5331 97.774C79.9228 97.3476 81.2017 97.0748 81.4935 97.3414C82.5488 98.3465 83.4494 99.5026 84.1657 100.772C84.5382 102.243 84.5378 103.784 84.1644 105.255C83.7909 106.726 83.0562 108.081 82.027 109.196C81.5252 109.518 80.9464 109.7 80.3506 109.723C79.5087 109.742 78.6874 109.462 78.0331 108.931C77.3787 108.401 76.9339 107.656 76.7774 106.829C76.132 104.921 74.8362 102.913 76.9513 101.14Z" fill="#FDFBF8"/>
<path d="M93.8864 120.694C93.8237 121.213 93.5412 122.108 93.7393 122.207C95.934 123.636 98.3711 124.71 98.643 127.882C98.7091 128.396 99.9536 128.791 100.464 129.134C99.3188 129.807 98.1399 130.42 96.9317 130.972C95.8923 131.541 94.6765 131.697 93.527 131.41C92.3775 131.123 91.3785 130.412 90.7288 129.422L90.7467 123.138C92.3769 123.021 91.4733 120.63 92.609 119.568L93.7422 120.356L93.8043 120.784" fill="#FDFBF8"/>
<path d="M108.256 32.5947C109.7 31.5345 111.273 30.6615 112.937 29.9956C116.019 29.1468 117.624 30.86 117.101 34.0469C116.577 37.2338 113.069 40.0818 110.347 38.4183C109.212 37.4218 108.293 36.2033 107.646 34.8383C109.089 34.386 109.815 33.7725 108.274 32.5292L108.256 32.5947Z" fill="#FDFBF8"/>
<path d="M87.248 115.204C87.021 115.543 86.7441 115.846 86.4273 116.102C85.8325 116.753 85.0946 117.561 84.2337 117.556C83.3727 117.552 83.1116 116.531 81.9895 115.505C82.1442 116.553 81.9925 117.485 82.3798 117.963C83.7232 119.602 82.3745 120.717 81.5297 121.552C81.0867 121.883 80.5813 122.122 80.0436 122.254C79.5058 122.385 78.9473 122.406 78.4012 122.316C77.9395 122.15 77.5153 121.895 77.1532 121.564C76.7911 121.233 76.4982 120.833 76.2915 120.388C76.1337 119.547 76.3111 118.677 76.7855 117.964C77.2599 117.251 77.9939 116.752 78.8312 116.573C79.4081 116.482 80.0317 116.476 80.4817 116.434C80.609 115.438 80.7054 113.756 80.7913 113.752C82.4562 113.754 84.1183 113.895 85.7597 114.174C86.2585 114.259 86.6124 114.953 87.0613 115.363L87.248 115.204Z" fill="#FDFBF8"/>
<path d="M107.647 34.8364C106.78 35.3992 105.945 36.0116 105.148 36.6705C103.844 37.8266 100.45 38.4318 99.6057 37.3723C98.2136 35.6058 99.3542 34.1769 100.383 32.6458C100.963 31.577 101.418 30.4444 101.738 29.2708C102.692 29.443 103.949 29.6449 105.294 29.8856L106.954 34.2437C107.201 34.4693 107.447 34.6948 107.694 34.9204L107.647 34.8364Z" fill="#FDFBF8"/>
<path d="M21.5858 201.568C22.0332 199.535 22.7168 197.561 23.6233 195.688C24.6434 194.607 25.9839 193.883 27.4469 193.622C28.0014 193.511 29.191 194.598 29.5919 195.376C29.9219 196.081 30.0326 196.869 29.9099 197.638C29.7872 198.407 29.437 199.121 28.9039 199.689C26.9621 202.445 24.3838 200.624 21.5858 201.568Z" fill="#FDFBF8"/>
<path d="M88.4438 71.5318C87.702 70.6087 87.2162 69.5065 87.0351 68.3361C86.854 67.1658 86.984 65.968 87.4121 64.8638C88.9298 63.2031 92.5182 62.6116 93.9661 64.1819C94.1947 64.5708 94.3217 65.0108 94.3345 65.4617C94.3472 65.9126 94.2456 66.3594 94.0393 66.7605C92.7735 67.923 91.4178 68.9845 89.9856 69.9344L88.4884 71.5726" fill="#FDFBF8"/>
<path d="M51.8912 168.72C51.1978 169.405 50.2775 169.811 49.3042 169.863C48.331 169.915 47.3724 169.608 46.6102 169.001C45.4881 167.976 46.048 165.109 47.9298 163.411C49.8115 161.712 51.016 163.143 52.3079 164.118C53.5999 165.093 53.2281 167.347 51.8912 168.72Z" fill="#FDFBF8"/>
<path d="M98.7774 92.1349L102.085 93.4274C105.328 93.7548 106.34 95.2159 105.439 98.14C105.177 99.0126 105.066 99.9001 104.853 100.9C104.539 100.612 103.99 100.357 103.481 100.057C101.683 98.8255 99.8635 97.6163 98.0445 96.4071L98.7774 92.1349Z" fill="#FDFBF8"/>
<path d="M98.0438 96.4065C99.8628 97.6158 101.661 98.8474 103.48 100.057L101.564 102.424C100.782 103.554 99.8507 104.574 98.7951 105.454C98.3829 105.566 97.9495 105.576 97.5326 105.482C97.1158 105.389 96.7284 105.194 96.4041 104.916C95.5289 104.116 94.2625 102.752 96.5939 101.959C97.3575 101.551 98.0712 101.057 98.7221 100.486L98.9684 100.217L98.6081 100.341C96.5148 99.2515 97.8442 97.7066 98.1279 96.3596" fill="#FDFBF8"/>
<path d="M103.997 40.2754C105.707 42.4149 108.786 41.975 108.034 44.8709C107.65 46.3642 106.845 47.7151 105.713 48.7625C105.35 49.0074 104.926 49.1455 104.488 49.1612C104.05 49.1769 103.617 49.0698 103.237 48.8516C102.858 48.6333 102.547 48.3127 102.341 47.9265C102.134 47.5404 102.039 47.1041 102.068 46.6672C102.555 44.4815 103.23 42.3418 104.083 40.2716" fill="#FDFBF8"/>
<path d="M129.999 182.441C129.856 181.652 129.425 180.681 129.668 179.874C129.843 179.508 130.106 179.191 130.433 178.951C130.76 178.711 131.142 178.556 131.543 178.498C133.337 178.492 135.123 178.738 136.848 179.228C137.159 179.284 137.449 179.426 137.682 179.639C137.915 179.852 138.083 180.127 138.167 180.432C138.25 180.737 138.246 181.059 138.154 181.361C138.062 181.664 137.886 181.934 137.646 182.14C136.97 182.881 135.244 183.733 134.842 183.407C134.36 182.91 133.736 182.575 133.055 182.447C132.375 182.32 131.673 182.406 131.044 182.695C131.044 182.695 130.606 182.543 130.081 182.352" fill="#FDFBF8"/>
<path d="M84.363 53.016C84.5333 52.0185 84.4216 50.9691 84.867 50.3465C85.5812 49.2527 86.5739 48.3687 87.7429 47.7855C88.2226 47.7685 88.6989 47.8738 89.1265 48.0917C89.5542 48.3097 89.9193 48.6331 90.1875 49.0311C90.3162 50.5443 90.1661 52.0681 89.7444 53.5269C89.6009 53.684 88.4694 53.8855 87.8418 53.8062C86.6854 53.6137 85.5393 53.3638 84.4079 53.0571" fill="#FDFBF8"/>
<path d="M126.367 169.649C125.485 169.172 124.585 168.309 123.569 168.204C121.758 168.113 121.556 166.982 121.304 165.681C122.371 164.514 123.355 163.437 124.64 162.346C124.893 162.24 125.169 162.195 125.443 162.216C125.717 162.238 125.982 162.324 126.216 162.469C126.833 163.548 127.162 164.767 127.173 166.01C127.184 167.252 126.875 168.477 126.278 169.567" fill="#FDFBF8"/>
<path d="M122.344 12.8497C122.658 13.1284 123.027 13.3388 123.426 13.4679C127.127 13.9255 128.285 15.7667 126.698 19.2166C126.188 20.3155 125.487 20.5412 124.229 19.8447C121.356 18.1664 121.399 15.7758 122.366 12.8702" fill="#FDFBF8"/>
<path d="M61.7551 70.4088L65.4171 65.2299C66.261 66.2894 67.6614 67.2808 67.8201 68.4142C67.9847 69.1782 67.8635 69.9761 67.4791 70.6566C67.0948 71.3371 66.4738 71.8534 65.7345 72.1068C64.9952 72.3603 64.1886 72.3336 63.4676 72.0321C62.7466 71.7305 62.1612 71.1747 61.8225 70.4704" fill="#FDFBF8"/>
<path d="M79.5026 65.0471C79.907 63.7908 80.5237 62.6132 81.3258 61.5652C82.4414 60.6239 83.7338 59.9143 85.1269 59.4786C85.7791 59.9763 86.2187 60.7026 86.3584 61.511C86.3662 62.4021 86.037 63.2628 85.4359 63.9206C84.8347 64.5784 84.0065 64.9842 83.1184 65.0564C81.8746 65.1032 80.6292 65.066 79.3906 64.9447" fill="#FDFBF8"/>
<path d="M105.674 24.47L102.768 24.4497C102.018 24.5161 101.263 24.5286 100.511 24.487C99.7803 24.341 99.0646 24.1284 98.3731 23.8516C98.8498 22.9694 99.1169 21.7308 99.9528 21.1768C101.038 20.5722 102.266 20.2714 103.507 20.3065C103.961 20.2789 104.415 20.3534 104.836 20.5244C105.257 20.6953 105.634 20.9584 105.94 21.2945C106.334 21.9009 105.889 23.0184 105.777 24.3576" fill="#FDFBF8"/>
<path d="M87.249 115.245C88.6642 113.696 90.223 111.991 91.6565 115.154C91.743 115.295 91.8675 115.409 92.0156 115.482C94.9091 117.138 94.9089 117.139 92.4548 119.508C91.7288 119.046 90.9365 118.697 90.1055 118.474C89.2757 118.431 88.4931 118.075 87.9151 117.478C87.3372 116.881 87.0071 116.087 86.9914 115.257L87.249 115.245Z" fill="#FDFBF8"/>
<path d="M104.999 134.762C104.811 133.931 104.275 133.03 104.524 132.352C104.774 131.673 105.746 131.285 106.41 130.739C106.684 131.566 107.328 132.484 107.142 133.137C106.507 135.275 108.017 136.326 108.983 137.703C109.298 138.176 109.572 138.675 109.803 139.194C109.21 139.393 108.458 139.9 108.019 139.705C106.656 139.077 104.26 138.905 105.733 136.257C106.041 135.92 105.881 135.239 105.966 134.74L104.999 134.762Z" fill="#FDFBF8"/>
<path d="M55.4368 108.372C55.477 107.832 55.2933 107.087 55.5227 106.926C57.3585 105.638 56.954 103.827 57.0671 102.036C57.1201 101.302 58.3385 100.645 58.9743 99.9491C59.6476 100.564 60.9398 101.539 60.8821 101.693C59.6973 103.973 58.3888 106.187 56.9627 108.324C56.8191 108.482 56.1221 108.298 55.4964 108.261" fill="#FDFBF8"/>
<path d="M106.957 75.9259C105.937 75.2862 104.845 74.7715 103.703 74.3935C101.105 74.037 100.718 71.6661 99.44 70.0451C99.2155 69.84 99.5782 68.8124 99.9307 68.5168C100.173 68.3552 100.448 68.2493 100.737 68.2066C101.025 68.1638 101.319 68.1849 101.598 68.2692C101.925 68.3621 102.338 68.9462 102.255 69.4879C102.359 72.7541 104.132 73.8793 107.591 71.8515L106.934 75.9054" fill="#FDFBF8"/>
<path d="M98.9198 114.378L100.715 116.019L96.5534 121.564L94.9601 120.108C95.1946 119.581 95.6867 119.042 95.6206 118.529C95.5017 118.03 95.497 117.51 95.6071 117.009C95.7171 116.508 95.939 116.039 96.2561 115.636C96.5731 115.232 96.9771 114.906 97.438 114.681C97.8989 114.455 98.4049 114.337 98.9179 114.335" fill="#FDFBF8"/>
<path d="M126.972 173.045L127.218 172.776L132.593 172.211L133.195 170.743C134.428 172.323 134.947 173.332 132.916 174.112C132.668 174.177 132.433 174.282 132.219 174.423C128.673 176.907 128.673 176.907 126.972 173.045Z" fill="#FDFBF8"/>
<path d="M49.4481 122.091L54.3424 121.828C54.0939 123.001 54.2063 124.545 53.5481 125.22C52.8899 125.896 51.3173 125.859 50.0833 126.172L49.4275 122.113" fill="#FDFBF8"/>
<path d="M53.5586 137.378C53.0828 133.978 53.8375 132.566 55.6805 132.397C57.5235 132.228 57.4791 133.629 57.5673 135.11C57.7951 138.736 55.3138 137.17 53.5586 137.378Z" fill="#FDFBF8"/>
<path d="M88.4464 71.5311L89.9435 69.8929C91.9715 70.9637 91.8394 72.3249 90.2146 73.517L85.0107 77.9042L83.9557 74.5521L84.7621 74.3007L85.6159 75.5746C85.8313 75.5154 86.0371 75.4265 86.2279 75.3104C85.9505 73.4507 90.4023 74.3481 88.4239 71.5106" fill="#FDFBF8"/>
<path d="M112.388 145.92L112.696 145.583L117.463 145.821C117.356 148.236 117.356 148.236 111.703 149.824L112.343 145.879" fill="#FDFBF8"/>
<path d="M71.2056 101.573C71.3363 103.999 71.0909 106.205 68.1703 106.336C67.7408 106.356 67.0483 105.311 66.9148 104.736C66.6452 103.048 68.5035 101.781 71.2056 101.573Z" fill="#FDFBF8"/>
<path d="M141.773 25.7056L141.313 23.1447C140.459 22.8173 139.272 22.7197 139.079 22.2549C138.886 21.7902 139.328 20.6298 139.594 19.8432C139.758 19.6636 140.209 19.1697 140.344 19.2927C141.496 20.5045 142.555 21.8021 143.51 23.1743C143.734 23.3794 142.644 24.4829 141.773 25.7056Z" fill="#FDFBF8"/>
<path d="M71.6169 120.772C70.761 120.216 70.0028 119.523 69.3727 118.721C69.0292 117.791 68.8398 116.81 68.8118 115.819C69.5272 115.938 70.3616 115.836 70.9149 116.177C73.5283 117.824 73.4286 118.474 71.5456 120.624" fill="#FDFBF8"/>
<path d="M87.1732 108.3L88.9832 105.012C89.9545 105.076 91.3762 105.098 93.2083 105.166C91.6287 107.841 89.8357 109.127 87.1732 108.3Z" fill="#FDFBF8"/>
<path d="M134.611 22.456C133.58 23.8918 132.463 25.2642 131.267 26.5659C130.959 26.9026 129.886 26.4993 129.195 26.4443C129.306 25.557 129.113 24.145 129.574 23.866C131.07 23.0994 132.634 22.4745 134.246 21.999L134.672 22.3886" fill="#FDFBF8"/>
<path d="M80.5566 85.5702C79.8833 84.9549 79.3333 84.2048 79.0377 83.8523C79.8403 83.1343 80.5682 82.3377 81.2113 81.4739C82.1911 79.8158 83.1361 79.7732 84.2679 81.0135L82.0962 84.8768L80.5791 85.5907" fill="#FDFBF8"/>
<path d="M53.9357 81.2181L57.8146 76.0725C57.8848 77.6015 57.86 79.1337 57.741 80.6597C57.6598 81.2444 56.8659 82.2482 56.3876 82.1407C55.4718 81.9434 54.5968 81.5898 53.8012 81.0952" fill="#FDFBF8"/>
<path d="M130.42 159.763C129.546 158.511 128.524 157.331 129.939 155.782C131.354 154.234 132.529 154.03 133.224 155.613L131.594 159.559L130.51 159.845" fill="#FDFBF8"/>
<path d="M111.065 143.311C110.949 143.781 110.734 144.221 110.434 144.601C110.134 144.982 109.757 145.294 109.327 145.517C108.897 145.74 108.425 145.869 107.941 145.895C107.458 145.92 106.974 145.843 106.523 145.667L107.314 141.736L111.067 143.354" fill="#FDFBF8"/>
<path d="M80.5561 85.5724L82.0733 84.8584C83.1273 85.3274 84.7116 85.6218 83.928 87.3356C83.4903 88.1299 82.2254 89.1986 81.4592 88.9103C79.6955 88.4517 80.4219 86.8912 80.6685 85.675" fill="#FDFBF8"/>
<path d="M49.477 89.2949C50.1978 87.8424 51.004 86.4336 51.8911 85.0761C52.0757 84.8741 53.731 85.3159 53.7875 85.6146C53.8439 85.9133 53.7433 87.5106 53.2434 87.8774C52.05 88.501 50.7853 88.9769 49.477 89.2949Z" fill="#FDFBF8"/>
<path d="M106.886 34.1822L105.226 29.8241L107.277 27.5799L108.256 32.5928L106.841 34.1412" fill="#FDFBF8"/>
<path d="M120.291 166.115L118.103 170.087L117.388 166.633L120.291 166.115Z" fill="#FDFBF8"/>
<path d="M137.485 158.026C138.212 160.791 137.586 161.702 133.834 162.021L136.623 157.527C136.847 157.732 137.072 157.937 137.44 157.985" fill="#FDFBF8"/>
<path d="M94.2542 87.7529C92.6266 88.4072 91.2158 89.0951 89.9837 89.4519C89.8253 89.3978 89.6801 89.3111 89.5565 89.1982C89.4329 89.0852 89.3335 88.9484 89.2654 88.7954C89.2484 88.6373 89.2697 88.477 89.3267 88.3285C89.3836 88.18 89.4746 88.0476 89.5929 87.9414C90.5455 87.2399 91.5725 86.645 92.6551 86.1679C92.8807 85.921 93.7441 86.4634 94.1051 86.8344C94.4661 87.2055 94.2317 87.7324 94.2336 87.7754" fill="#FDFBF8"/>
<path d="M68.0726 97.4757C68.5204 95.9493 68.562 94.9576 69.1362 94.3293C69.7105 93.7009 70.5048 94.1384 71.1901 94.0645C71.1653 94.9479 71.4261 95.9695 71.0276 96.6761C70.629 97.3826 69.6464 97.0605 68.1342 97.4083" fill="#FDFBF8"/>
<path d="M114.011 156.63C114.304 155.4 114.712 154.2 115.227 153.045C115.371 152.888 116.997 153.181 117.005 153.353C117.113 154.236 116.99 155.131 116.649 155.951C116.341 156.288 115.417 156.308 114.011 156.63Z" fill="#FDFBF8"/>
<path d="M130.42 159.764L131.505 159.478C134.833 159.802 132.55 161.669 132.572 163.132C130.592 162.64 129.426 162.068 130.42 159.764Z" fill="#FDFBF8"/>
<path d="M101.963 124.653C102.267 123.283 102.219 122.21 102.676 121.845C103.133 121.48 104.256 121.559 105.07 121.479C105.105 122.252 105.455 123.355 105.084 123.716C104.713 124.077 103.451 124.242 101.963 124.653Z" fill="#FDFBF8"/>
<path d="M122.062 37.6732C122.289 36.0276 122.129 34.8517 122.59 34.5727C123.05 34.2937 124.281 34.3886 125.183 34.348C125.188 34.9288 125.441 35.7785 125.193 36.0048C124.209 36.6664 123.16 37.2252 122.062 37.6732Z" fill="#FDFBF8"/>
<path d="M66.6478 112.195C66.037 109.618 66.3469 108.378 68.0874 108.321C68.6028 108.298 69.0972 109.244 69.6358 109.736L66.6478 112.195Z" fill="#FDFBF8"/>
<path d="M98.339 90.4961L98.1132 90.7432C97.1029 90.7672 96.0703 90.7706 95.0395 90.8169L96.3329 86.5624C97.1853 88.2886 97.8182 89.4436 98.3166 90.4756" fill="#FDFBF8"/>
<path d="M64.4146 75.9706L62.1789 78.417C61.7722 77.8701 61.4283 77.2788 61.1532 76.6551C61.9787 76.0126 62.8519 75.4338 63.7652 74.9236C64.1018 75.2313 64.4384 75.5392 64.609 75.9834" fill="#FDFBF8"/>
<path d="M118.192 26.272L114.403 25.2807L116.791 21.9023L118.192 26.272Z" fill="#FDFBF8"/>
<path d="M106.384 66.052C106.644 64.6416 106.528 63.5061 107.008 63.1617C107.487 62.8174 108.572 63.0273 109.411 63.011C109.419 63.6777 109.68 64.699 109.35 65.0151C108.422 65.5136 107.421 65.8632 106.384 66.052Z" fill="#FDFBF8"/>
<path d="M74.9824 79.3251C78.5802 79.8948 78.5392 79.9398 76.4797 83.9059C75.8792 82.0392 75.4591 80.8315 74.9824 79.3251Z" fill="#FDFBF8"/>
<path d="M86.1587 121.128C88.7373 122.002 87.1283 124.033 87.5787 125.433C87.196 125.536 86.5878 125.886 86.4307 125.742C86.0071 125.398 85.7369 124.899 85.6796 124.356C85.7501 123.269 85.9105 122.189 86.1587 121.128Z" fill="#FDFBF8"/>
<path d="M96.4021 65.6669C97.4264 64.9967 98.4465 64.2407 99.4971 63.677C99.7021 63.4525 100.474 63.87 100.725 64.1815C100.975 64.493 100.706 65.1932 100.473 65.2683C99.3117 65.7724 98.059 66.1519 96.8718 66.5496C96.6474 66.3445 96.5669 65.9822 96.4021 65.6669Z" fill="#FDFBF8"/>
<path d="M13.9142 131.997L14.878 130.942C15.5807 131.255 16.2628 131.59 16.9654 131.902L15.7376 133.787L13.9142 131.997Z" fill="#FDFBF8"/>
<path d="M94.8393 108.385C96.264 109.44 97.2888 110.211 98.3807 111.044C95.8822 112.426 94.9677 111.714 94.8393 108.385Z" fill="#FDFBF8"/>
<path d="M94.8671 120.025L93.7957 120.612L93.7336 120.184L94.869 120.068L94.8671 120.025Z" fill="#FDFBF8"/>
<path d="M106.886 34.1812L108.301 32.6329C109.76 33.9659 109.116 34.4897 107.673 34.942L106.933 34.2653" fill="#FDFBF8"/>
<path d="M98.5894 100.449L98.9512 100.324L98.7038 100.595L98.5894 100.449Z" fill="#FDFBF8"/>
<path d="M189.817 177.556L191.871 176.797C192.611 177.473 192.67 178.31 192.001 178.727C191.331 179.145 190.53 178.579 189.817 177.556Z" fill="#FDFBF8"/>
</g>
</svg>
