<svg width="24" height="20" viewBox="0 0 24 20" fill="none" xmlns="http://www.w3.org/2000/svg">
<path fill-rule="evenodd" clip-rule="evenodd" d="M12.0035 0.366001C12.2457 0.131651 12.5742 0 12.9167 0C13.2592 0 13.5877 0.131651 13.8299 0.366001L22.8715 9.11644C23.1137 9.35086 23.2497 9.66876 23.2497 10.0002C23.2497 10.3317 23.1137 10.6496 22.8715 10.884L13.8299 19.6345C13.5863 19.8622 13.26 19.9882 12.9213 19.9853C12.5826 19.9825 12.2587 19.851 12.0192 19.6192C11.7797 19.3875 11.6439 19.0739 11.6409 18.7462C11.638 18.4184 11.7682 18.1026 12.0035 17.8669L18.8403 11.2503H1.29167C0.949095 11.2503 0.620555 11.1186 0.37832 10.8842C0.136086 10.6497 0 10.3318 0 10.0002C0 9.66869 0.136086 9.35073 0.37832 9.1163C0.620555 8.88187 0.949095 8.75017 1.29167 8.75017H18.8403L12.0035 2.13359C11.7613 1.89917 11.6253 1.58127 11.6253 1.2498C11.6253 0.918323 11.7613 0.600423 12.0035 0.366001Z" fill="#004236"/>
</svg>
