<svg width="229" height="185" viewBox="0 0 229 185" fill="none" xmlns="http://www.w3.org/2000/svg">
<path d="M2.58653 183.175C1.66542 183.226 0.757112 182.938 0.0343524 182.365C-0.688408 181.792 -1.17539 180.973 -1.33498 180.064C-1.50824 179.449 -2.48459 179.153 -3.05811 178.441C-1.22619 178.168 -1.46872 177.131 -1.96911 175.633C-2.4695 174.134 -1.99221 173.301 -0.181315 173.379C0.582625 173.375 1.34217 173.26 2.07286 173.037C4.10609 172.557 6.15708 172.054 7.67555 174.214L2.77828 182.887" fill="#FDFBF8"/>
<path d="M112.836 133.11L112.517 137.263L104.283 134.403L102.788 137.77L102.519 138.108L101.113 135.854C102.537 132.549 104.958 129.771 108.039 127.91C109.691 129.624 111.302 131.342 112.931 133.038" fill="#FDFBF8"/>
<path d="M95.3848 147.982C95.6888 147.598 96.064 147.125 96.0983 146.712C96.2625 144.051 97.6258 143.444 99.9792 144.319C99.5907 145.259 99.257 146.22 98.9801 147.198C98.7951 147.64 98.7233 148.121 98.7713 148.598C98.8193 149.075 98.9856 149.531 99.255 149.927C99.5244 150.324 99.8882 150.646 100.314 150.866C100.739 151.086 101.213 151.195 101.692 151.186C105.586 151.924 106.058 153.18 103.803 156.532L95.3848 147.982Z" fill="#FDFBF8"/>
<path d="M121.633 30.7369C120.912 30.1649 120.303 29.4983 119.815 29.0016C118.557 28.9215 117.218 28.8501 115.875 28.7389C116.038 27.6632 116.39 26.625 116.913 25.6709C118.558 23.5975 119.288 26.3797 120.861 26.526C123.143 24.2972 125.761 26.2275 128.283 26.4282L121.543 30.6654" fill="#FDFBF8"/>
<path d="M87.6928 109.306C87.3998 109.074 87.084 108.824 86.4475 108.099C90.2567 107.926 90.6875 104.559 92.4807 102.529L91.2581 103.469C90.8648 102.309 90.5832 101.114 90.4167 99.9007C90.354 97.7579 92.356 98.4282 93.4861 97.9294L93.9007 104.721L93.9814 105.776C91.446 106.519 91.2104 109.269 89.5859 110.808L87.783 109.378" fill="#FDFBF8"/>
<path d="M85.5683 86.8041C85.765 86.5562 86.2858 86.455 86.3612 86.221C86.6131 85.2091 86.7391 84.1708 86.9995 83.0555L88.1232 83.2126L88.1387 85.8319C89.3535 86.2447 90.6854 87.8522 91.8655 85.3L89.6167 84.8016L89.3442 84.0342L92.1165 83.0392L93.682 82.4083L93.8361 87.1204L89.352 89.2551L86.1448 88.2529C85.9093 87.8091 85.6785 87.4058 85.4656 86.9799L85.5909 86.822" fill="#FDFBF8"/>
<path d="M117.25 159.67L118.259 162.564L118.045 162.834C117.523 163.816 117.188 165.349 115.693 164.457C115.197 164.063 115.156 162.819 114.782 161.531L109.346 161.626C109.283 161.611 109.224 161.583 109.173 161.543C109.122 161.503 109.081 161.451 109.053 161.393L109.59 160.717L111.393 156.823L112.411 156.419C112.735 157.631 113 158.686 114.716 158.652C115.592 158.612 116.498 159.368 117.452 159.831" fill="#FDFBF8"/>
<path d="M80.788 132.544C80.931 132.364 81.2993 132.362 81.4424 132.182C82.1754 131.258 83.0695 130.131 84.1699 131.151C84.7785 131.633 84.6397 132.919 84.9427 134.482C86.0657 134.455 87.683 134.452 89.6827 134.57L85.9666 138.745C84.215 136.695 82.4455 134.667 80.6985 132.657" fill="#FDFBF8"/>
<path d="M74.4272 126.029C75.1757 125.595 75.947 125.178 76.6683 124.686C76.9804 124.399 77.3672 124.206 77.7841 124.13C78.201 124.054 78.6309 124.098 79.0241 124.256C79.4173 124.414 79.7575 124.681 80.0056 125.024C80.2537 125.368 80.3993 125.775 80.4258 126.198L80.9635 129.084L78.6184 130.235L74.54 126.119" fill="#FDFBF8"/>
<path d="M98.6088 66.7074C95.8545 65.5506 95.8544 65.5506 97.6478 61.3919C98.5439 61.8824 99.4446 62.4136 100.341 62.9041L98.6088 66.7074Z" fill="#FDFBF8"/>
<path d="M93.8679 105.689L93.7872 104.633L93.8679 105.689Z" fill="#FDFBF8"/>
<path d="M25.1258 118.096L23.6197 117.819C23.8342 117.548 23.7837 117.288 24.0308 117.301C27.7593 115.007 30.1626 108.321 35.9384 113.306L39.2211 111.945C39.2817 112.471 39.6401 113.269 39.4388 113.476C38.5313 114.159 37.5757 114.776 36.5799 115.321C36.4788 117.876 35.4018 120.294 33.5707 122.077C32.9025 122.879 31.9968 123.447 30.9843 123.7C29.9718 123.953 28.9051 123.877 27.9384 123.484C26.9192 123.083 26.0818 122.322 25.5846 121.346C25.0873 120.37 24.9642 119.246 25.2386 118.185" fill="#FDFBF8"/>
<path d="M57.0443 85.9129L50.5314 91.7624C49.6805 90.2429 49.0107 89.051 48.2367 87.666C47.7314 86.6844 47.6212 85.5464 47.9294 84.4862C48.2376 83.4261 48.9409 82.5241 49.8937 81.9664C51.6767 80.737 53.3384 79.5215 55.5098 80.9502C55.8478 81.2184 56.4107 81.4813 56.5016 81.737C56.7649 83.4881 57.5004 84.3659 59.7552 83.1436L59.7873 84.3066L57.4707 85.8845L57.2228 85.6879" fill="#FDFBF8"/>
<path d="M66.0836 98.2615C66.7371 97.0919 67.4777 95.9728 68.2984 94.9139C68.6381 94.4857 69.8274 94.1437 70.1204 94.3762C71.1829 95.2553 72.1093 96.2871 72.8692 97.4379C73.318 98.802 73.4193 100.257 73.1639 101.67C72.9085 103.083 72.3043 104.41 71.4064 105.531C70.954 105.868 70.4197 106.078 69.8588 106.139C69.0654 106.212 68.2716 106.002 67.6189 105.545C66.9663 105.088 66.4973 104.414 66.2949 103.643C65.5598 101.885 64.2041 100.075 66.0836 98.2615Z" fill="#FDFBF8"/>
<path d="M83.3595 115.601C83.3346 116.095 83.127 116.959 83.3205 117.039C85.4865 118.243 87.8578 119.096 88.3238 122.072C88.4202 122.553 89.621 122.844 90.1254 123.134C89.0888 123.845 88.0164 124.501 86.9124 125.102C85.9688 125.707 84.8315 125.935 83.7275 125.74C82.6235 125.545 81.6336 124.94 80.9549 124.048L80.5571 118.115C82.0882 117.898 81.0774 115.7 82.0793 114.622L83.2011 115.292L83.2879 115.691" fill="#FDFBF8"/>
<path d="M91.108 31.4925C92.4019 30.3964 93.8291 29.4685 95.3557 28.7302C98.2089 27.7255 99.8372 29.2367 99.5532 32.2795C99.2693 35.3223 96.1455 38.2422 93.4665 36.8516C92.3294 35.9859 91.3814 34.8964 90.6812 33.6506C92.0134 33.1284 92.6577 32.5014 91.1212 31.4295L91.108 31.4925Z" fill="#FDFBF8"/>
<path d="M76.731 110.857C76.5391 111.192 76.2977 111.496 76.0156 111.759C75.4971 112.412 74.8539 113.223 74.0409 113.276C73.228 113.329 72.9141 112.382 71.7872 111.488C72.0024 112.467 71.9207 113.357 72.3178 113.782C73.6941 115.241 72.4946 116.383 71.7523 117.226C71.356 117.568 70.8947 117.827 70.3958 117.987C69.8969 118.146 69.3711 118.203 68.8496 118.154C68.4029 118.028 67.9856 117.815 67.6219 117.526C67.2583 117.238 66.9554 116.88 66.7309 116.474C66.5265 115.69 66.6365 114.857 67.0373 114.153C67.438 113.449 68.0979 112.929 68.8764 112.704C69.415 112.581 70.0032 112.534 70.4252 112.465C70.4797 111.516 70.4596 109.922 70.5404 109.912C72.1122 109.804 73.6903 109.828 75.2582 109.983C75.7346 110.03 76.1145 110.662 76.5653 111.02L76.731 110.857Z" fill="#FDFBF8"/>
<path d="M90.6821 33.6491C89.9001 34.2376 89.1528 34.8708 88.4437 35.5454C87.2894 36.7228 84.1252 37.518 83.2587 36.5736C81.828 34.9981 82.8104 33.574 83.6802 32.0608C84.1577 31.0136 84.5124 29.9145 84.7364 28.7856C85.6488 28.8852 86.8486 28.9928 88.1341 29.1312L89.9883 33.1355C90.2362 33.3321 90.484 33.5287 90.7319 33.7254L90.6821 33.6491Z" fill="#FDFBF8"/>
<path d="M74.977 69.5536C74.2158 68.7312 73.6846 67.7228 73.4364 66.63C73.1882 65.5372 73.2318 64.398 73.563 63.3275C74.886 61.6597 78.2342 60.8645 79.7046 62.2512C79.9461 62.6032 80.095 63.0102 80.1368 63.4349C80.1786 63.8597 80.1121 64.2882 79.9439 64.6804C78.8258 65.8613 77.6161 66.9527 76.3269 67.944L75.0218 69.5892" fill="#FDFBF8"/>
<path d="M46.8889 163.708C46.2796 164.4 45.4377 164.844 44.5224 164.957C43.6072 165.07 42.6821 164.844 41.9226 164.321C40.7957 163.427 41.135 160.685 42.7991 158.957C44.4633 157.23 45.6946 158.501 46.9785 159.336C48.2624 160.171 48.0603 162.323 46.8889 163.708Z" fill="#FDFBF8"/>
<path d="M86.0912 88.3199L89.2988 89.3216C92.3813 89.4167 93.4332 90.729 92.7754 93.5487C92.5857 94.3896 92.5399 95.2347 92.4046 96.1922C92.089 95.9419 91.5538 95.7371 91.054 95.4876C89.2751 94.4436 87.4781 93.4223 85.6813 92.4009L86.0912 88.3199Z" fill="#FDFBF8"/>
<path d="M85.6805 92.4016C87.4774 93.423 89.2564 94.4668 91.0533 95.4883L89.4006 97.8492C88.7373 98.9678 87.9252 99.9915 86.9869 100.892C86.6052 101.025 86.1967 101.063 85.797 101.002C85.3974 100.941 85.0189 100.783 84.6944 100.542C83.8154 99.8446 82.5301 98.6414 84.6784 97.7385C85.3722 97.303 86.0134 96.7896 86.59 96.2078L86.8048 95.9371L86.4728 96.0781C84.425 95.188 85.5779 93.642 85.7568 92.3518" fill="#FDFBF8"/>
<path d="M87.5948 39.024C89.3504 40.9307 92.2277 40.3122 91.7091 43.0953C91.4453 44.5302 90.7738 45.8586 89.7749 46.9219C89.4484 47.1771 89.0569 47.3355 88.6448 47.3792C88.2327 47.4229 87.8164 47.3505 87.4436 47.1695C87.0708 46.9885 86.7567 46.7063 86.5362 46.3555C86.3156 46.0047 86.1975 45.5991 86.196 45.1847C86.5116 43.0894 87.0067 41.0252 87.6757 39.0147" fill="#FDFBF8"/>
<path d="M121.523 171.504C121.336 170.768 120.865 169.88 121.042 169.102C121.183 168.745 121.41 168.429 121.703 168.181C121.996 167.933 122.345 167.761 122.721 167.68C124.413 167.556 126.115 167.67 127.776 168.019C128.074 168.051 128.356 168.166 128.591 168.352C128.825 168.537 129.002 168.786 129.101 169.068C129.2 169.35 129.217 169.655 129.15 169.946C129.083 170.238 128.934 170.504 128.722 170.715C128.132 171.459 126.559 172.377 126.158 172.096C125.671 171.659 125.059 171.383 124.409 171.308C123.758 171.233 123.101 171.36 122.526 171.675C122.526 171.675 122.103 171.56 121.595 171.414" fill="#FDFBF8"/>
<path d="M69.9027 52.3456C69.9976 51.3927 69.8229 50.4096 70.2022 49.7925C70.8042 48.7128 71.6829 47.8128 72.7479 47.1852C73.1996 47.1375 73.6561 47.2054 74.0742 47.3829C74.4923 47.5604 74.8582 47.8416 75.1377 48.1996C75.359 49.6195 75.3179 51.0677 75.0162 52.4726C74.891 52.6304 73.8363 52.8953 73.2386 52.8618C72.1344 52.7564 71.036 52.5962 69.9478 52.3814" fill="#FDFBF8"/>
<path d="M117.251 159.669C116.386 159.277 115.48 158.522 114.514 158.49C112.798 158.524 112.533 157.469 112.209 156.257C113.139 155.085 113.997 154.004 115.138 152.89C115.37 152.773 115.628 152.712 115.888 152.714C116.148 152.716 116.404 152.781 116.634 152.901C117.287 153.879 117.679 155.008 117.771 156.181C117.863 157.353 117.653 158.53 117.16 159.598" fill="#FDFBF8"/>
<path d="M103.103 11.925C103.418 12.1673 103.78 12.3416 104.166 12.4372C107.689 12.6248 108.905 14.2863 107.633 17.6476C107.225 18.7186 106.578 18.9779 105.345 18.4034C102.522 17.0088 102.405 14.7494 103.126 11.9429" fill="#FDFBF8"/>
<path d="M49.7106 70.2562L52.8255 65.1259C53.692 66.0703 55.0793 66.9138 55.3038 67.9731C55.5097 68.6834 55.4479 69.4445 55.13 70.1123C54.8122 70.78 54.2601 71.3083 53.579 71.5964C52.8978 71.8844 52.1347 71.9125 51.4342 71.6754C50.7337 71.4384 50.1445 70.9524 49.7783 70.3099" fill="#FDFBF8"/>
<path d="M66.1091 64.0235C66.4079 62.8109 66.9123 61.6586 67.6002 60.6164C68.5912 59.6542 69.7643 58.8991 71.0506 58.3959C71.699 58.8227 72.1619 59.4792 72.3472 60.233C72.4134 61.0737 72.1594 61.9079 71.6354 62.5685C71.1113 63.2291 70.3564 63.6668 69.5228 63.7936C68.3519 63.9198 67.1738 63.967 65.9966 63.9342" fill="#FDFBF8"/>
<path d="M88.1352 23.9931L85.3909 24.1658C84.6866 24.2779 83.9753 24.3396 83.2623 24.3499C82.5631 24.2604 81.8735 24.1069 81.2025 23.8913C81.5943 23.0271 81.7647 21.8403 82.5171 21.2622C83.5013 20.6198 84.6404 20.2549 85.8147 20.2061C86.2411 20.1501 86.6746 20.1904 87.0833 20.324C87.4921 20.4576 87.8659 20.681 88.1768 20.9781C88.5879 21.5245 88.2419 22.6088 88.2247 23.8803" fill="#FDFBF8"/>
<path d="M76.7346 110.896C77.9682 109.341 79.327 107.628 80.8889 110.52C80.9799 110.647 81.105 110.746 81.2496 110.806C84.0902 112.178 84.09 112.178 81.9299 114.577C81.2141 114.189 80.4432 113.912 79.644 113.755C78.8579 113.77 78.0957 113.486 77.5107 112.961C76.9258 112.435 76.5618 111.707 76.4921 110.924L76.7346 110.896Z" fill="#FDFBF8"/>
<path d="M94.7772 128.147C94.5449 127.375 93.9799 126.56 94.1704 125.903C94.3608 125.247 95.2534 124.816 95.8442 124.257C96.1573 125.019 96.8257 125.843 96.6935 126.472C96.2348 128.532 97.7296 129.425 98.7321 130.66C99.0607 131.086 99.3528 131.539 99.605 132.013C99.0578 132.24 98.3817 132.769 97.9542 132.613C96.6268 132.111 94.3534 132.107 95.5692 129.51C95.8374 129.171 95.6414 128.539 95.6888 128.063L94.7772 128.147Z" fill="#FDFBF8"/>
<path d="M46.2522 106.508C46.2546 105.996 46.032 105.305 46.2379 105.138C47.8857 103.801 47.3845 102.118 47.373 100.42C47.3746 99.7239 48.4813 99.0231 49.0355 98.3244C49.7116 98.8608 50.9957 99.6958 50.9514 99.8442C49.9835 102.075 48.8945 104.251 47.6894 106.363C47.5643 106.521 46.8942 106.393 46.3012 106.4" fill="#FDFBF8"/>
<path d="M92.742 72.4801C91.7378 71.9436 90.6729 71.5298 89.5697 71.2484C87.0936 71.0834 86.572 68.8709 85.2586 67.4252C85.0333 67.2464 85.3077 66.2525 85.621 65.9502C85.8392 65.7816 86.0919 65.6635 86.3612 65.6041C86.6305 65.5448 86.9099 65.5452 87.1788 65.6064C87.4936 65.6725 87.9221 66.1965 87.8793 66.7134C88.1931 69.7896 89.9405 70.7348 93.0721 68.5923L92.7194 72.4622" fill="#FDFBF8"/>
<path d="M87.6939 109.306L89.497 110.736L85.9345 116.246L84.3344 114.976C84.521 114.463 84.9499 113.922 84.8536 113.442C84.7085 112.979 84.6698 112.489 84.7406 112.008C84.8114 111.528 84.9899 111.071 85.2625 110.669C85.5352 110.267 85.8949 109.933 86.3152 109.69C86.7354 109.447 87.2052 109.301 87.6892 109.265" fill="#FDFBF8"/>
<path d="M118.046 162.834L118.26 162.564L123.297 161.676L123.768 160.25C125.036 161.66 125.592 162.578 123.727 163.448C123.498 163.526 123.282 163.641 123.09 163.788C119.906 166.367 119.907 166.367 118.046 162.834Z" fill="#FDFBF8"/>
<path d="M41.5049 119.853L46.1075 119.281C45.9504 120.405 46.1584 121.855 45.5816 122.536C45.0049 123.217 43.5181 123.286 42.374 123.664L41.487 119.875" fill="#FDFBF8"/>
<path d="M46.3936 134.011C45.7201 130.833 46.3392 129.45 48.0678 129.169C49.7963 128.888 49.8469 130.213 50.0278 131.605C50.4822 135.013 48.0367 133.698 46.3936 134.011Z" fill="#FDFBF8"/>
<path d="M74.9795 69.5531L76.2845 67.9079C78.2695 68.7848 78.2347 70.0784 76.7796 71.311L72.1571 75.7957L70.94 72.7011L71.6846 72.4105L72.5746 73.5567C72.774 73.4866 72.9624 73.3891 73.1348 73.2669C72.7503 71.5298 77.0117 72.0831 74.9569 69.5352" fill="#FDFBF8"/>
<path d="M102.489 138.192L102.758 137.854L107.273 137.763C107.331 140.049 107.331 140.049 102.101 141.922L102.444 138.156" fill="#FDFBF8"/>
<path d="M60.6881 99.0488C60.9715 101.33 60.8856 103.428 58.1373 103.745C57.7332 103.792 57.0106 102.851 56.8466 102.317C56.4807 100.742 58.1512 99.4231 60.6881 99.0488Z" fill="#FDFBF8"/>
<path d="M122.292 22.778L121.689 20.391C120.861 20.1383 119.734 20.1246 119.521 19.6986C119.308 19.2727 119.649 18.1481 119.848 17.388C119.991 17.2077 120.385 16.7117 120.52 16.819C121.687 17.8867 122.772 19.0417 123.764 20.274C123.99 20.4527 123.033 21.5664 122.292 22.778Z" fill="#FDFBF8"/>
<path d="M62.3436 117.143C61.4991 116.675 60.7376 116.071 60.0898 115.355C59.7042 114.5 59.4608 113.587 59.3689 112.654C60.0521 112.718 60.8329 112.567 61.3777 112.852C63.9532 114.234 63.902 114.854 62.2666 117.009" fill="#FDFBF8"/>
<path d="M76.2045 104.345L77.6961 101.122C78.6171 101.118 79.9605 101.045 81.6945 100.988C80.38 103.618 78.7723 104.95 76.2045 104.345Z" fill="#FDFBF8"/>
<path d="M115.317 20.1823C114.438 21.6057 113.474 22.9749 112.431 24.2826C112.163 24.6206 111.124 24.3108 110.468 24.3045C110.514 23.4597 110.239 22.1395 110.656 21.8457C112.017 21.0234 113.452 20.3303 114.942 19.775L115.37 20.1146" fill="#FDFBF8"/>
<path d="M68.4589 83.3272C67.7827 82.7909 67.214 82.1191 66.9117 81.8059C67.6219 81.0752 68.2565 80.2752 68.8064 79.4173C69.6219 77.7876 70.5111 77.685 71.6613 78.781L69.8664 82.571L68.4814 83.3451" fill="#FDFBF8"/>
<path d="M43.0429 80.9755L46.3647 75.8624C46.5318 77.301 46.6096 78.7489 46.598 80.1972C46.5599 80.7544 45.8768 81.7545 45.4182 81.6845C44.5408 81.5587 43.6914 81.2827 42.9078 80.8683" fill="#FDFBF8"/>
<path d="M120.424 150.069C119.516 148.945 118.474 147.898 119.707 146.343C120.941 144.788 122.036 144.518 122.797 145.966L121.519 149.799L120.514 150.14" fill="#FDFBF8"/>
<path d="M101.068 135.816C100.989 136.268 100.815 136.697 100.558 137.076C100.3 137.455 99.9641 137.775 99.5731 138.014C99.182 138.252 98.7447 138.405 98.2899 138.461C97.8352 138.518 97.3735 138.477 96.936 138.34L97.4237 134.578L101.073 135.857" fill="#FDFBF8"/>
<path d="M68.4584 83.3288L69.8434 82.5547C70.8693 82.9279 72.3842 83.1012 71.7576 84.7706C71.3969 85.5493 70.2734 86.6416 69.5312 86.42C67.8361 86.1035 68.4188 84.5825 68.5712 83.4183" fill="#FDFBF8"/>
<path d="M39.3672 88.8928C39.9517 87.4741 40.6198 86.0911 41.3675 84.7511C41.5284 84.5483 43.1201 84.8561 43.1931 85.1343C43.2661 85.4126 43.2766 86.9269 42.8289 87.3062C41.7435 87.9735 40.5812 88.5063 39.3672 88.8928Z" fill="#FDFBF8"/>
<path d="M89.9198 33.0817L88.0657 29.0774L89.8535 26.8237L91.1082 31.4909L89.8747 33.0459" fill="#FDFBF8"/>
<path d="M111.282 156.734L109.479 160.627L108.576 157.414L111.282 156.734Z" fill="#FDFBF8"/>
<path d="M126.978 147.963C127.847 150.524 127.316 151.425 123.796 151.974L126.132 147.548C126.357 147.727 126.583 147.906 126.933 147.927" fill="#FDFBF8"/>
<path d="M81.5325 84.4823C80.0394 85.2073 78.7531 85.9498 77.6136 86.3678C77.4605 86.3273 77.3177 86.255 77.1936 86.1566C77.0695 86.0581 76.9667 85.9355 76.8923 85.7956C76.8658 85.6475 76.8753 85.4948 76.9192 85.3508C76.9632 85.2069 77.0403 85.0759 77.145 84.9679C77.9979 84.2428 78.9281 83.6135 79.9184 83.0916C80.1151 82.8437 80.966 83.2987 81.3312 83.6251C81.6965 83.9516 81.51 84.4644 81.5146 84.5048" fill="#FDFBF8"/>
<path d="M57.4604 95.3877C57.7823 93.9173 57.7561 92.9785 58.2567 92.3475C58.7572 91.7164 59.5359 92.077 60.1779 91.962C60.2128 92.7975 60.5265 93.7446 60.1969 94.4379C59.8673 95.1311 58.9185 94.892 57.5141 95.3201" fill="#FDFBF8"/>
<path d="M104.727 148.193C104.923 147.013 105.228 145.854 105.639 144.73C105.764 144.572 107.319 144.741 107.337 144.903C107.498 145.729 107.441 146.582 107.172 147.379C106.904 147.717 106.033 147.797 104.727 148.193Z" fill="#FDFBF8"/>
<path d="M120.423 150.068L121.429 149.727C124.592 149.813 122.56 151.727 122.678 153.105C120.776 152.772 119.637 152.309 120.423 150.068Z" fill="#FDFBF8"/>
<path d="M91.2451 118.806C91.4418 117.493 91.3256 116.482 91.7329 116.108C92.1402 115.733 93.2047 115.734 93.968 115.605C94.0518 116.332 94.4558 117.35 94.1294 117.716C93.8029 118.081 92.6223 118.319 91.2451 118.806Z" fill="#FDFBF8"/>
<path d="M104.476 35.3752C104.582 33.8068 104.353 32.7074 104.769 32.4137C105.186 32.1199 106.354 32.1282 107.203 32.0304C107.245 32.5783 107.54 33.3637 107.321 33.5937C106.436 34.2831 105.483 34.8798 104.476 35.3752Z" fill="#FDFBF8"/>
<path d="M57.087 109.376C56.3403 106.985 56.5511 105.793 58.1902 105.625C58.6752 105.569 59.2043 106.429 59.7452 106.858L57.087 109.376Z" fill="#FDFBF8"/>
<path d="M85.5693 86.8023L85.3724 87.0504C84.4203 87.1397 83.4458 87.2111 82.4759 87.3229L83.416 83.2215C84.3345 84.7946 85.0082 85.8431 85.5467 86.7844" fill="#FDFBF8"/>
<path d="M52.5882 75.331L50.6394 77.7878C50.2193 77.2984 49.8557 76.7629 49.5549 76.1924C50.2917 75.5315 51.0777 74.9274 51.9061 74.3856C52.2442 74.6538 52.5822 74.9222 52.7726 75.3303" fill="#FDFBF8"/>
<path d="M100.071 24.8685L96.4284 24.1829L98.4591 20.8363L100.071 24.8685Z" fill="#FDFBF8"/>
<path d="M91.5501 63.1984C91.7018 61.8499 91.5179 60.7857 91.9477 60.429C92.3775 60.0723 93.4157 60.1988 94.2061 60.1282C94.2581 60.7569 94.5721 61.7037 94.2814 62.0239C93.4379 62.5557 92.5163 62.9517 91.5501 63.1984Z" fill="#FDFBF8"/>
<path d="M62.7848 77.7986C66.2185 78.0989 66.1827 78.1441 64.5004 82.0238C63.8104 80.3014 63.3341 79.1891 62.7848 77.7986Z" fill="#FDFBF8"/>
<path d="M76.0935 116.521C78.5852 117.175 77.2005 119.199 77.718 120.491C77.3636 120.613 76.8126 120.984 76.6548 120.858C76.2322 120.561 75.9443 120.108 75.8543 119.599C75.849 118.568 75.9292 117.539 76.0935 116.521Z" fill="#FDFBF8"/>
<path d="M82.1019 63.492C83.0245 62.7918 83.9375 62.0109 84.892 61.4094C85.0707 61.184 85.8268 61.5271 86.0841 61.8046C86.3413 62.0821 86.1331 62.7609 85.9178 62.8471C84.8553 63.3996 83.6979 63.8405 82.6035 64.2943C82.3782 64.1155 82.2783 63.7788 82.1019 63.492Z" fill="#FDFBF8"/>
<path d="M8.61697 131.548L9.45718 130.489C10.1411 130.738 10.807 131.009 11.491 131.258L10.4564 133.117L8.61697 131.548Z" fill="#FDFBF8"/>
<path d="M83.4468 103.919C84.8613 104.821 85.8795 105.481 86.9652 106.196C84.6979 107.665 83.7878 107.054 83.4468 103.919Z" fill="#FDFBF8"/>
<path d="M84.2412 114.905L83.2686 115.53L83.1818 115.13L84.2459 114.946L84.2412 114.905Z" fill="#FDFBF8"/>
<path d="M89.9203 33.0803L91.1538 31.5253C92.6187 32.6874 92.0459 33.2243 90.7137 33.7464L89.9701 33.1565" fill="#FDFBF8"/>
<path d="M86.4625 96.1802L86.7958 96.0386L86.5802 96.3104L86.4625 96.1802Z" fill="#FDFBF8"/>
<path d="M177.665 162.944L179.553 162.091C180.297 162.681 180.408 163.467 179.804 163.905C179.199 164.343 178.406 163.862 177.665 162.944Z" fill="#FDFBF8"/>
</svg>
