<svg width="204" height="391" viewBox="0 0 204 391" fill="none" xmlns="http://www.w3.org/2000/svg">
<path d="M200.626 342.822C200.104 344.179 199.104 345.298 197.812 345.965C196.521 346.633 195.03 346.803 193.621 346.445C192.626 346.296 191.568 347.507 190.174 347.871C190.967 345.062 189.321 344.74 186.844 344.49C184.367 344.24 183.479 343.016 184.762 340.464C185.251 339.364 185.576 338.198 185.729 337.004C186.354 333.772 186.958 330.501 191.042 329.715L200.336 342.36" fill="#FDFBF8"/>
<path d="M199.991 152.042L205.75 155.187L196.318 165.167L200.188 169.494L200.5 170.098L196.352 170.661C192.523 166.477 190.099 161.202 189.417 155.572C192.947 154.307 196.458 153.104 199.948 151.86" fill="#FDFBF8"/>
<path d="M210.072 186.733C209.718 186.049 209.281 185.203 208.709 184.887C204.993 182.931 205.001 180.579 207.781 177.764C208.88 178.93 210.045 180.031 211.272 181.061C211.787 181.613 212.432 182.027 213.148 182.266C213.863 182.506 214.627 182.562 215.371 182.431C216.114 182.3 216.813 181.986 217.404 181.517C217.995 181.047 218.459 180.437 218.755 179.743C222.334 174.626 224.444 174.76 227.802 180.167L210.072 186.733Z" fill="#FDFBF8"/>
<path d="M58.5928 73.2001C57.3044 73.8664 55.9526 74.3111 54.9239 74.69C53.995 76.4461 53.0267 78.3235 51.9978 80.1822C50.5583 79.2511 49.2938 78.0752 48.2614 76.7065C46.3459 73.0024 50.8158 73.752 52.0432 71.5865C50.3167 66.8662 54.7831 64.353 56.702 60.8604L58.4316 73.2835" fill="#FDFBF8"/>
<path d="M149.53 172.774C149.007 173.045 148.444 173.337 146.99 173.783C149.205 168.198 144.646 165.401 142.89 161.513L143.449 163.877C141.528 163.692 139.629 163.324 137.778 162.778C134.659 161.483 136.917 159.04 136.931 157.093L146.957 160.89L148.526 161.456C147.953 165.579 151.752 167.696 152.912 171.025L149.692 172.691" fill="#FDFBF8"/>
<path d="M115.826 161.275C115.597 160.832 115.788 160.018 115.501 159.759C114.21 158.742 112.799 157.89 111.365 156.794L112.318 155.281L116.091 156.953C117.47 155.475 120.641 154.6 117.737 151.255L115.567 154.163L114.288 154.058L114.651 149.432L114.757 146.775L121.627 149.601L121.794 157.424L118.28 161.383C117.49 161.435 116.762 161.506 116.012 161.536L115.866 161.254" fill="#FDFBF8"/>
<path d="M178.452 197.722C178.286 197.4 178.522 196.87 178.355 196.548C177.502 194.897 176.46 192.884 178.637 191.962C179.724 191.4 181.483 192.431 183.923 193.006C184.61 191.375 185.653 189.05 187.115 186.252L190.711 194.292C186.632 195.483 182.574 196.714 178.557 197.924" fill="#FDFBF8"/>
<path d="M164.979 202.648C164.839 201.292 164.739 199.914 164.498 198.559C164.288 197.925 164.261 197.245 164.421 196.597C164.582 195.949 164.922 195.359 165.404 194.897C165.885 194.434 166.489 194.118 167.143 193.983C167.797 193.849 168.476 193.903 169.1 194.138L173.595 195.232L173.732 199.346L165.181 202.544" fill="#FDFBF8"/>
<path d="M95.385 129.543C91.9418 132.752 91.9417 132.752 87.1263 127.486C88.4106 126.516 89.7563 125.565 91.0405 124.595L95.385 129.543Z" fill="#FDFBF8"/>
<path d="M176.543 373.225C179.323 370.511 182.744 371.601 185.033 375.928L176.543 373.225Z" fill="#FDFBF8"/>
<path d="M148.326 161.563L146.757 160.996L148.326 161.563Z" fill="#FDFBF8"/>
<path d="M121.698 268.353L120.326 270.338C120.076 269.855 119.67 269.759 119.848 269.412C118.964 262.572 110.911 254.795 121.809 249.721L121.977 244.124C122.771 244.377 124.149 244.378 124.317 244.801C124.711 246.546 124.979 248.318 125.119 250.102C128.724 251.899 131.501 255.01 132.88 258.794C133.6 260.273 133.831 261.942 133.539 263.56C133.248 265.178 132.449 266.662 131.259 267.796C130.023 269.001 128.389 269.713 126.665 269.796C124.941 269.879 123.246 269.329 121.899 268.249" fill="#FDFBF8"/>
<path d="M96.0999 201.681L100.293 214.822C97.559 215.061 95.4135 215.253 92.9229 215.469C91.1859 215.561 89.4795 214.983 88.1556 213.855C86.8317 212.726 85.9906 211.133 85.8055 209.403C85.1922 206.046 84.5204 202.873 87.9773 200.677C88.5812 200.364 89.3229 199.726 89.749 199.761C92.4352 200.515 94.1721 200.026 93.874 195.995L95.5659 196.701L96.3348 201.05L95.892 201.279" fill="#FDFBF8"/>
<path d="M119.688 196.679C118.43 194.984 117.301 193.196 116.31 191.332C115.915 190.567 116.192 188.638 116.716 188.367C118.666 187.409 120.748 186.745 122.892 186.398C125.143 186.635 127.298 187.43 129.163 188.711C131.029 189.992 132.545 191.718 133.574 193.733C133.766 194.601 133.722 195.504 133.447 196.35C133.039 197.537 132.224 198.542 131.145 199.184C130.066 199.826 128.794 200.064 127.556 199.856C124.555 199.775 121.078 200.553 119.688 196.679Z" fill="#FDFBF8"/>
<path d="M155.772 183.071C156.466 183.426 157.572 184.283 157.812 184.057C160.943 181.723 163.702 178.868 168.281 180.123C169.033 180.295 170.228 178.758 170.971 178.221C171.321 180.17 171.572 182.136 171.72 184.11C171.98 185.857 171.572 187.639 170.577 189.099C169.583 190.559 168.075 191.59 166.353 191.988L157.572 188.723C158.25 186.383 154.439 186.414 153.538 184.277L155.225 183.099L155.856 183.232" fill="#FDFBF8"/>
<path d="M39.9384 117.547C39.2004 114.979 38.7901 112.329 38.7165 109.658C39.1181 104.909 42.3424 103.546 46.5306 105.922C50.7187 108.298 52.8939 114.674 49.1634 117.624C47.1843 118.698 45.0059 119.355 42.7631 119.556C42.8744 117.304 42.3901 115.973 39.8564 117.487L39.9384 117.547Z" fill="#FDFBF8"/>
<path d="M144.669 189.526C145.026 190.019 145.307 190.562 145.503 191.137C146.106 192.305 146.856 193.754 146.406 194.956C145.956 196.158 144.393 195.997 142.38 197.038C143.925 197.362 145.151 198.054 146.018 197.759C149.004 196.725 149.869 199.187 150.601 200.798C150.836 201.589 150.91 202.419 150.816 203.239C150.723 204.059 150.465 204.852 150.057 205.569C149.587 206.129 149.011 206.591 148.361 206.927C147.712 207.263 147.001 207.467 146.272 207.526C145.014 207.313 143.888 206.617 143.136 205.585C142.383 204.554 142.063 203.27 142.244 202.006C142.415 201.153 142.728 200.277 142.901 199.626C141.574 198.934 139.27 197.932 139.309 197.81C140.17 195.482 141.225 193.23 142.461 191.077C142.837 190.423 143.991 190.286 144.796 189.87L144.669 189.526Z" fill="#FDFBF8"/>
<path d="M42.7611 119.553C43.1009 121.058 43.5274 122.541 44.0381 123.996C44.9832 126.416 44.0796 131.476 42.1623 132.11C38.9734 133.147 37.5626 130.815 35.9511 128.586C34.7553 127.223 33.4054 126.003 31.9283 124.951C32.6614 123.704 33.5919 122.05 34.6222 120.293L41.5744 120.218C42.0173 119.989 42.46 119.76 42.9028 119.531L42.7611 119.553Z" fill="#FDFBF8"/>
<path d="M84.192 165.337C82.5181 165.899 80.7258 166.01 78.9952 165.66C77.2646 165.31 75.6561 164.511 74.3322 163.342C72.7915 160.363 73.8142 155.038 76.7574 153.822C77.4193 153.703 78.1003 153.752 78.7376 153.967C79.375 154.181 79.9476 154.554 80.4024 155.049C81.376 157.42 82.1619 159.863 82.7523 162.357L84.2721 165.296" fill="#FDFBF8"/>
<path d="M201.306 266.58C201.906 267.904 202 269.4 201.571 270.789C201.141 272.177 200.218 273.36 198.976 274.113C196.962 275.154 193.242 272.893 191.836 269.385C190.43 265.876 193.052 264.929 195.082 263.625C197.112 262.32 200.074 264.002 201.306 266.58Z" fill="#FDFBF8"/>
<path d="M118.342 161.504L121.855 157.543C123.985 153.176 126.551 152.513 130.177 155.282C131.263 156.098 132.447 156.711 133.735 157.524C133.172 157.816 132.531 158.452 131.85 159.009C129.199 160.89 126.57 162.811 123.94 164.732L118.342 161.504Z" fill="#FDFBF8"/>
<path d="M123.941 164.733C126.57 162.812 129.221 160.931 131.85 159.01L134.173 162.911C135.352 164.588 136.297 166.417 136.984 168.347C136.929 168.982 136.72 169.593 136.374 170.128C136.027 170.663 135.555 171.104 134.999 171.414C133.429 172.226 130.869 173.295 130.961 169.625C130.784 168.346 130.461 167.093 129.998 165.888L129.747 165.404L129.735 165.973C127.132 168.339 125.657 165.683 123.919 164.592" fill="#FDFBF8"/>
<path d="M48.4871 127.464C52.3618 126.175 53.3339 121.641 56.9973 124.186C58.8883 125.493 60.3626 127.317 61.2444 129.44C61.3999 130.074 61.3743 130.739 61.1706 131.359C60.9669 131.979 60.5936 132.531 60.0925 132.949C59.5914 133.368 58.9829 133.637 58.3362 133.727C57.6895 133.817 57.0304 133.724 56.434 133.458C53.6276 131.65 50.9821 129.604 48.526 127.342" fill="#FDFBF8"/>
<path d="M56.1859 161.499C54.8783 160.747 53.3527 160.362 52.7114 159.418C51.5494 157.855 50.8246 156.01 50.6115 154.074C50.8351 153.394 51.228 152.782 51.7533 152.296C52.2787 151.81 52.9193 151.467 53.6145 151.297C55.7976 151.897 57.8519 152.892 59.6753 154.234C59.821 154.516 59.5195 156.203 59.0849 157.04C58.2194 158.558 57.2789 160.033 56.2665 161.457" fill="#FDFBF8"/>
<path d="M19.5816 87.6584C20.1334 87.3625 20.6179 86.9552 21.0046 86.4628C23.5525 81.5223 26.7257 80.8504 30.7332 84.8504C32.0075 86.1304 31.9622 87.2265 30.3392 88.6271C26.5101 91.7808 23.1881 90.4879 19.6219 87.6375" fill="#FDFBF8"/>
<path d="M68.8617 202.093L63.505 194.3C65.4222 193.666 67.5312 192.218 69.1985 192.58C70.3521 192.744 71.4058 193.325 72.1596 194.213C72.9134 195.102 73.3154 196.237 73.2888 197.402C73.2622 198.567 72.8091 199.681 72.0154 200.534C71.2218 201.388 70.1425 201.92 68.9826 202.031" fill="#FDFBF8"/>
<path d="M70.5118 174.502C68.9628 173.288 67.6334 171.818 66.5808 170.156C65.8393 168.11 65.513 165.936 65.6218 163.763C66.6543 163.107 67.8969 162.867 69.0998 163.088C70.3504 163.536 71.3847 164.441 71.995 165.621C72.6053 166.801 72.7459 168.169 72.3891 169.448C71.8132 171.212 71.1191 172.935 70.3108 174.606" fill="#FDFBF8"/>
<path d="M27.2411 116.968L25.7145 121.023C25.4202 122.107 25.0489 123.169 24.6025 124.2C24.0218 125.147 23.3554 126.039 22.6115 126.863C21.6232 125.741 20.0284 124.729 19.6842 123.274C19.3978 121.445 19.6101 119.572 20.2994 117.853C20.4946 117.205 20.833 116.608 21.2892 116.107C21.7455 115.606 22.3082 115.214 22.9361 114.959C23.987 114.722 25.3211 115.92 27.1369 116.767" fill="#FDFBF8"/>
<path d="M144.728 189.547C143.291 186.769 141.709 183.709 146.874 183.334C147.115 183.286 147.339 183.17 147.518 183.001C151.326 179.807 151.326 179.808 153.376 184.463C152.356 185.24 151.459 186.168 150.717 187.216C150.23 188.354 149.329 189.266 148.196 189.767C147.063 190.267 145.782 190.32 144.612 189.913L144.728 189.547Z" fill="#FDFBF8"/>
<path d="M181.182 174.78C179.923 174.614 178.386 174.899 177.566 174.2C176.745 173.502 176.704 171.941 176.282 170.731C177.58 170.774 179.196 170.346 180.015 170.943C182.677 172.934 184.926 171.364 187.35 170.723C188.174 170.526 189.014 170.399 189.859 170.344C189.831 171.276 190.153 172.59 189.654 173.103C188.074 174.686 186.597 177.949 183.652 174.523C183.339 173.919 182.304 173.791 181.65 173.415L181.182 174.78Z" fill="#FDFBF8"/>
<path d="M118.712 230.506C117.977 230.171 116.84 230.044 116.733 229.64C115.879 226.408 113.136 226.04 110.689 224.958C109.689 224.506 109.398 222.462 108.753 221.214C109.961 220.59 111.991 219.285 112.175 219.444C114.755 222.277 117.177 225.249 119.432 228.347C119.578 228.628 118.961 229.509 118.588 230.365" fill="#FDFBF8"/>
<path d="M99.8847 141.705C98.4645 142.801 97.1813 144.063 96.0636 145.467C94.2252 148.918 90.7091 148.236 87.7826 149.188C87.38 149.396 86.1295 148.359 85.8977 147.714C85.7967 147.291 85.7903 146.852 85.8792 146.426C85.968 146.001 86.1494 145.6 86.4111 145.253C86.7096 144.844 87.7397 144.567 88.4547 144.963C93.0774 146.501 95.5654 144.602 94.5122 138.717L99.8444 141.726" fill="#FDFBF8"/>
<path d="M149.53 172.772L152.752 171.107L158.363 179.788L155.505 181.266C154.889 180.666 154.389 179.7 153.636 179.528C152.877 179.437 152.148 179.176 151.504 178.763C150.859 178.351 150.317 177.799 149.917 177.147C149.516 176.496 149.267 175.762 149.19 175.001C149.113 174.241 149.208 173.472 149.469 172.753" fill="#FDFBF8"/>
<path d="M134.815 245.956L136.97 238.974C138.483 239.926 140.701 240.565 141.307 241.834C141.912 243.103 141.049 245.284 140.852 247.172L134.836 245.996" fill="#FDFBF8"/>
<path d="M158.318 248.088C153.316 247 151.731 245.217 152.444 242.551C153.158 239.886 155.095 240.67 157.212 241.311C162.403 242.862 158.932 245.525 158.318 248.088Z" fill="#FDFBF8"/>
<path d="M84.193 165.333L82.6731 162.394C85.2166 160.109 87.0528 160.996 87.8827 163.884L91.337 173.425L86.1036 173.173L86.1677 171.915L88.39 171.378C88.4182 171.046 88.4 170.712 88.3359 170.385C85.5914 169.814 89.1421 164.05 84.1527 165.354" fill="#FDFBF8"/>
<path d="M200.601 170.195L200.289 169.59L203.078 163.045C206.402 164.439 206.402 164.439 205.709 173.166L200.521 170.237" fill="#FDFBF8"/>
<path d="M117.33 204.941C120.79 206.009 123.75 207.489 122.428 211.643C122.233 212.254 120.414 212.683 119.541 212.574C117.041 212.081 116.227 208.828 117.33 204.941Z" fill="#FDFBF8"/>
<path d="M47.5834 67.1066L43.7638 66.4295C42.8655 67.4554 42.1167 69.0662 41.367 69.0967C40.6173 69.1271 39.2222 67.9098 38.2589 67.1323C38.0923 66.8102 37.6339 65.9244 37.8755 65.7994C40.1646 64.8125 42.5255 64.001 44.9377 63.372C45.3403 63.1638 46.3217 65.2587 47.5834 67.1066Z" fill="#FDFBF8"/>
<path d="M144.398 214.264C143.179 215.174 141.819 215.878 140.372 216.346C138.893 216.346 137.424 216.106 136.023 215.634C136.558 214.694 136.845 213.475 137.608 212.876C141.259 210.07 142.117 210.544 144.154 214.287" fill="#FDFBF8"/>
<path d="M134.973 186.072L131.307 181.844C131.897 180.519 132.66 178.541 133.7 176.013C136.628 179.602 137.502 182.773 134.973 186.072Z" fill="#FDFBF8"/>
<path d="M39.3435 75.4503C40.8204 77.6332 42.1644 79.9031 43.3687 82.2475C43.681 82.8514 42.5636 84.1446 42.1304 85.083C40.9462 84.4706 38.8719 84.0115 38.7192 83.2229C38.4179 80.7354 38.3503 78.225 38.5163 75.7248L39.281 75.3294" fill="#FDFBF8"/>
<path d="M99.7661 183.609C98.5583 184.233 97.2254 184.616 96.5798 184.848C95.9892 183.355 95.2502 181.926 94.3733 180.581C92.559 178.355 92.9867 177.011 95.3052 176.068L99.5899 181.097L99.8064 183.588" fill="#FDFBF8"/>
<path d="M79.9515 218.605L74.7532 210.526C76.9283 211.216 79.0589 212.041 81.1323 212.994C81.9083 213.409 82.9033 215.037 82.5062 215.651C81.7581 216.83 80.8123 217.872 79.7102 218.73" fill="#FDFBF8"/>
<path d="M196.269 170.701C196.866 171.106 197.371 171.634 197.749 172.249C198.126 172.864 198.369 173.553 198.459 174.27C198.549 174.986 198.486 175.713 198.273 176.403C198.06 177.093 197.702 177.73 197.223 178.27L192.132 175.136L196.33 170.72" fill="#FDFBF8"/>
<path d="M99.7684 183.611L99.5519 181.12C100.751 179.888 101.98 177.823 103.973 179.803C104.859 180.825 105.702 183.145 104.904 184.068C103.353 186.299 101.544 184.478 99.9699 183.507" fill="#FDFBF8"/>
<path d="M88.9495 229.006C87.2892 227.249 85.7341 225.395 84.2925 223.454C84.1051 223.092 85.5766 221.004 86.0236 221.079C86.4706 221.154 88.6531 222.118 88.9085 223.007C89.1655 224.997 89.1792 227.012 88.9495 229.006Z" fill="#FDFBF8"/>
<path d="M41.4533 120.282L34.5011 120.356L32.4191 116.33L39.9362 117.546L41.3727 120.324" fill="#FDFBF8"/>
<path d="M109.88 165.572C109.956 168.186 110.191 170.515 110.055 172.422C109.898 172.616 109.702 172.774 109.48 172.889C109.258 173.004 109.016 173.072 108.767 173.089C108.537 173.031 108.323 172.918 108.145 172.762C107.967 172.606 107.828 172.41 107.741 172.19C107.251 170.496 106.948 168.752 106.839 166.992C106.609 166.549 107.813 165.621 108.519 165.307C109.224 164.994 109.84 165.593 109.901 165.613" fill="#FDFBF8"/>
<path d="M109.982 207.21C108.078 205.797 106.712 205.228 106.129 204.1C105.546 202.973 106.568 202.087 106.818 201.091C108.041 201.581 109.604 201.743 110.387 202.665C111.17 203.586 110.213 204.795 109.92 207.09" fill="#FDFBF8"/>
<path d="M165.476 173.814C163.717 172.682 162.19 172.196 161.916 171.368C161.641 170.541 162.33 169.011 162.638 167.832C163.738 168.181 165.462 168.26 165.776 168.965C166.089 169.67 165.668 171.52 165.476 173.814Z" fill="#FDFBF8"/>
<path d="M54.1618 100.851C51.9768 99.685 50.249 99.3034 50.0964 98.5149C49.9437 97.7263 50.7112 96.0532 51.1194 94.7704C51.9343 95.0634 53.2534 95.1475 53.4422 95.6112C53.8602 97.3289 54.1011 99.0844 54.1618 100.851Z" fill="#FDFBF8"/>
<path d="M129.839 216.793C125.92 216.319 124.344 215.246 125.162 212.782C125.395 212.049 126.974 211.845 127.94 211.346L129.839 216.793Z" fill="#FDFBF8"/>
<path d="M115.824 161.273L116.053 161.716C115.566 163.142 115.038 164.588 114.571 166.054L109.287 162.051C112.141 161.748 114.083 161.458 115.784 161.293" fill="#FDFBF8"/>
<path d="M78.0139 201.24L80.2835 205.629C79.3086 205.916 78.3042 206.092 77.2899 206.156C76.8168 204.67 76.4572 203.15 76.2145 201.609C76.8184 201.297 77.4227 200.985 78.1321 200.975" fill="#FDFBF8"/>
<path d="M36.2168 100.386L32.8764 105.176L29.3814 100.094L36.2168 100.386Z" fill="#FDFBF8"/>
<path d="M85.7783 137.415C83.939 136.325 82.291 135.901 82.0565 135.053C81.822 134.205 82.675 132.795 83.0847 131.614C84.0217 131.946 85.5851 132.107 85.8571 132.731C86.0757 134.287 86.0487 135.868 85.7783 137.415Z" fill="#FDFBF8"/>
<path d="M88.1537 188.186C90.8057 183.447 90.8474 183.528 95.3338 188.454C92.4129 188.331 90.5068 188.296 88.1537 188.186Z" fill="#FDFBF8"/>
<path d="M152.395 194.105C154.947 190.949 156.959 194.247 159.15 194.339C159.097 194.927 159.272 195.958 158.99 196.104C158.29 196.519 157.453 196.64 156.664 196.44C155.179 195.781 153.751 195 152.395 194.105Z" fill="#FDFBF8"/>
<path d="M80.0899 151.18C79.6805 149.402 79.1489 147.585 78.902 145.825C78.6938 145.422 79.6757 144.557 80.2407 144.367C80.8058 144.177 81.6463 144.915 81.631 145.28C81.7377 147.164 81.6227 149.112 81.567 150.978C81.1644 151.186 80.6161 151.112 80.0899 151.18Z" fill="#FDFBF8"/>
<path d="M196.858 356.05C197.441 354.931 198.147 353.881 198.964 352.919C199.205 352.794 200.733 353.281 201.106 353.904C201.48 354.528 201.522 356.189 201.24 356.335C200.044 356.722 198.812 356.983 197.562 357.115L196.979 355.988" fill="#FDFBF8"/>
<path d="M130.35 300.772L129.372 298.88C130.171 298.058 130.992 297.277 131.791 296.455L133.794 299.144L130.35 300.772Z" fill="#FDFBF8"/>
<path d="M139.045 175.391C141.255 173.942 142.862 172.906 144.591 171.808C145.236 176.016 143.769 176.928 139.045 175.391Z" fill="#FDFBF8"/>
<path d="M155.343 181.354L155.611 183.155L154.98 183.022L155.404 181.374L155.343 181.354Z" fill="#FDFBF8"/>
<path d="M41.4515 120.28L40.015 117.502C42.632 116.149 43.0329 117.319 42.9216 119.571L41.5932 120.258" fill="#FDFBF8"/>
<path d="M129.876 166.054L129.888 165.483L130.139 165.969L129.876 166.054Z" fill="#FDFBF8"/>
<path d="M241.421 94.521C241.421 97.6689 241.584 100.83 241.421 104.019C240.999 108.894 239.698 113.652 237.581 118.063C236.274 120.923 234.811 123.708 233.198 126.408C228.86 133.987 222.579 140.273 215.003 144.617C207.146 149.081 199.059 153.437 189.724 154.4C183.692 155.16 177.588 155.16 171.556 154.4C159.09 152.442 147.194 147.813 136.684 140.831C130.651 136.964 125.154 132.32 120.333 127.018C113.68 119.718 107.796 111.752 102.775 103.246C97.6941 94.4063 93.0879 85.3023 88.9759 75.9725C87.0084 71.6305 84.6611 67.4649 82.5715 63.1771C81.4182 60.8433 80.3461 58.4688 79.3963 56.0535C76.4926 48.6992 73.5753 41.3315 70.8073 33.9229C65.8547 20.6798 63.1952 7.04314 64.3078 -7.17693C64.3553 -7.82468 64.3281 -8.47583 64.2265 -9.11733C63.3852 -15.3725 64.9727 -21.1664 67.5779 -26.7567C69.4053 -30.3775 72.2302 -33.4 75.7192 -35.4678C80.2889 -38.4413 85.6272 -40.0165 91.0791 -39.9999C101.093 -39.9743 110.952 -37.5305 119.818 -32.8763C123.685 -30.9359 127.81 -29.5247 131.731 -27.6793C135.653 -25.834 139.031 -23.9073 142.668 -22.0077C147.091 -19.7145 151.487 -17.3942 155.911 -15.1146C158.645 -13.5675 161.463 -12.1724 164.351 -10.9355C172.14 -7.88384 179.473 -3.77466 186.142 1.27639C195.83 8.42713 205.138 16.2021 212.004 26.243C213.733 28.6273 215.619 30.8937 217.649 33.0273C221.674 37.568 225.391 42.373 228.775 47.4102C231.719 51.6844 233.225 56.447 234.786 61.2503C236.74 67.2341 238.639 73.2181 240.634 79.1748C241.862 83.2283 242.268 87.4862 241.828 91.6987C241.76 92.6621 241.828 93.6391 241.828 94.616H241.489L241.421 94.521ZM91.8391 -36.7026C88.5789 -36.8539 85.3224 -36.332 82.2729 -35.1693C72.5712 -31.3022 67.483 -24.1243 67.4423 -12.5637C67.6048 -4.8705 68.2756 2.80345 69.4504 10.4081C70.271 16.5256 72.0427 22.4773 74.7015 28.0475C77.4153 33.9228 79.9663 39.9474 82.2051 46.0533C84.941 53.589 88.1404 60.9483 91.7847 68.089C93.8311 72.5134 95.6428 77.0426 97.2123 81.6578C98.7455 85.5927 100.102 89.609 101.758 93.4897C106.29 103.605 112.304 112.989 119.601 121.333C120.647 122.576 121.805 123.721 123.061 124.752C129.8 130.564 137.256 135.488 145.246 139.407C151.576 142.465 158.17 144.944 164.947 146.815C167.983 147.609 171.085 148.122 174.215 148.348C178.286 148.606 182.437 148.498 186.535 148.416C195.793 148.149 204.78 145.239 212.438 140.031C217.581 136.419 222.333 132.281 226.617 127.683C230.406 123.926 232.957 119.102 233.931 113.856C235.166 107.696 236.645 101.645 237.663 95.3758C238.437 91.6602 238.62 87.8458 238.205 84.0731C236.447 74.5762 233.435 65.3549 229.25 56.6506C226.536 50.7075 222.14 46.0263 217.73 41.3993C214.134 37.6408 210.281 34.1265 206.549 30.5443C205.035 28.8493 203.422 27.2453 201.719 25.7409C190.05 16.8941 178.557 7.80303 166.521 -0.528198C154.574 -8.98039 142.147 -16.7321 129.302 -23.7443C127.023 -24.9655 124.689 -26.119 122.342 -27.2316C119.834 -28.2406 117.383 -29.3867 115.001 -30.6645C108.216 -34.8844 100.876 -36.5398 91.7304 -36.7569" fill="#FDFBF8"/>
<path d="M208.842 126.272C206.213 125.871 203.651 125.108 201.23 124.005C196.983 121.848 192.899 119.406 188.747 117.072C188.082 116.706 187.485 116.231 186.807 115.891C177.512 111.373 170.524 104.127 164.038 96.3795C161.04 92.8109 158.285 89.0252 155.164 85.5245C153.237 83.367 150.768 81.6982 148.638 79.7036C146.738 77.9397 144.96 76.04 143.129 74.2761C142.118 73.1434 141.03 72.0823 139.872 71.1009C134.944 67.5303 130.721 63.0769 127.416 57.9664C123.834 52.3082 120.632 46.3786 117.253 40.5983C115.557 37.7081 113.589 34.9537 112.002 32.0093C109.6 27.5181 107.226 22.9996 105.217 18.3455C103.273 13.7401 100.479 9.54198 96.9811 5.97077C92.7703 1.74772 88.951 -2.84827 85.5699 -7.76082C83.426 -10.8952 80.9565 -13.7853 78.7855 -16.9062C77.8891 -18.4188 77.1089 -19.9972 76.4517 -21.6281L77.0622 -21.9673L81.1329 -16.8926C85.9091 -11.0037 90.3191 -4.68069 95.5431 0.746824C103.603 9.14589 109.465 18.9426 115.462 28.7664C120.605 37.179 126.154 45.3475 131.744 53.4209C134.274 56.6695 137.027 59.7387 139.981 62.6068C145.408 68.3871 151.066 73.9368 156.263 79.9342C160.85 85.2667 164.689 91.237 169.194 96.6374C174.812 103.422 180.809 109.799 188.665 114.128C194.093 117.113 199.344 120.315 204.717 123.368C206.074 124.141 207.567 124.725 209.005 125.362L208.761 126.339" fill="#FDFBF8"/>
<path d="M97.7954 -13.1196C101.482 -12.3283 104.994 -10.8755 108.162 -8.83185C115.977 -3.54003 123.685 1.88751 131.514 7.13862C138.298 11.657 145.164 15.9718 151.867 20.4902C154.282 22.1049 156.507 23.9909 158.787 25.8227C162.247 28.5364 165.734 31.3588 169.126 34.2354C174.832 38.9311 179.779 44.478 183.794 50.6808C189.276 59.3919 194.808 68.0713 200.389 76.7192C203.32 81.2783 206.373 85.756 209.371 90.2879C209.435 90.3752 209.494 90.4659 209.548 90.5594C212.723 98.4564 217.187 105.865 218.34 114.495C218.544 115.96 218.815 117.412 219.032 118.877C219.032 118.877 218.869 118.972 218.408 119.23C217.743 117.588 217.051 115.987 216.427 114.386C214.08 108.674 212.031 102.812 209.303 97.2895C206.846 92.4563 204.049 87.8041 200.932 83.3679C196.115 76.2986 191.244 69.2292 186.006 62.5263C179.222 53.9644 172.844 44.9954 164.676 37.6004C162.342 35.4837 159.913 33.5298 157.634 31.3181C156.141 29.9612 154.92 28.2788 153.441 26.7998C152.373 25.5797 151.201 24.4537 149.94 23.4346C142.749 18.2106 135.259 13.3667 128.339 7.81706C121.12 2.03676 113.182 -2.65804 105.652 -7.96343C104.079 -8.91536 102.447 -9.76736 100.767 -10.5144C99.6542 -11.1114 98.5688 -11.7493 97.4697 -12.3599L97.8089 -13.0925" fill="#FDFBF8"/>
<path d="M110.835 1.62988C111.501 2.04812 112.144 2.50104 112.762 2.98676C117.742 7.50516 122.748 11.9964 127.687 16.5555C130.211 18.9301 132.491 21.5624 134.933 24.0048C137.09 26.1486 139.316 28.1975 141.514 30.2871C145.449 34.0185 149.384 37.7364 153.278 41.4949C153.844 42.023 154.304 42.6538 154.635 43.3539C156.657 47.7908 160.063 51.1424 163.333 54.5888C168.55 59.8102 173.207 65.563 177.227 71.7534C179.532 75.2866 182.227 78.5498 185.26 81.4821C190.782 87.086 196.332 92.7714 199.873 100.044C201.351 102.69 202.977 105.249 204.745 107.711C205.274 108.579 205.694 109.515 206.305 110.723C204.582 110.845 204.202 109.868 203.686 109.149C201.705 106.435 199.873 103.599 197.743 101.008C194.981 97.5387 192.037 94.2188 188.923 91.0617C184.106 86.2991 180.348 80.7088 176.358 75.322C171.68 68.8098 166.372 62.7742 160.51 57.3026C157.959 54.9823 155.856 52.1735 153.414 49.7175C151.433 47.7229 149.167 46.0269 147.199 44.0187C139.875 36.9448 133.043 29.3785 126.751 21.3725C122.803 16.1078 118.067 11.4266 113.698 6.44686C112.504 5.08999 111.378 3.65158 110.224 2.25399L110.835 1.62988Z" fill="#FDFBF8"/>
<path d="M83.5348 10.9514C84.2449 11.8121 84.8975 12.7187 85.4886 13.6651C91.4588 24.6015 97.2121 35.6601 102.165 47.0986C104.878 53.3538 106.805 59.9346 109.302 66.2713C110.712 69.9005 112.381 73.4238 114.295 76.8142C117.416 82.2417 120.618 87.6692 124.2 92.8389C126.84 96.2627 129.662 99.5421 132.654 102.663C133.917 103.782 134.91 105.174 135.558 106.733C134.038 107.873 133.183 106.95 132.233 106.204C127.24 102.228 123.657 97.0317 120.021 91.8755C115.828 85.8103 111.961 79.5144 107.66 73.5441C103.21 67.3567 100.74 60.3417 98.4061 53.1909C96.9271 48.6725 95.8551 44.032 94.5932 39.4322C94.5785 39.3266 94.5561 39.2223 94.5256 39.1201C91.5947 32.4986 89.6135 25.4699 85.8414 19.2011C84.2973 16.7862 83.2503 14.0878 82.7614 11.2634L83.4669 10.8564" fill="#FDFBF8"/>
<path d="M107.09 39.0523C107.528 39.3005 107.938 39.5963 108.311 39.9343C109.105 40.8244 109.844 41.7625 110.523 42.7431C115.733 50.3326 120.921 57.9355 126.086 65.5521C127.24 67.2482 128.298 69.0257 129.343 70.7897C137.926 85.7879 149.083 99.1581 162.301 110.288C169.611 116.429 177.661 121.63 186.264 125.77C192.437 128.661 198.761 131.198 205.002 133.912C206.359 134.482 207.96 134.685 208.517 136.49C207.404 137.684 206.088 137.358 204.866 137.114C191.746 134.422 179.615 128.185 169.791 119.081C164.486 114.291 158.855 109.854 153.509 105.132C146.955 99.3792 141.772 92.4047 136.29 85.6882C130.808 78.9716 126.941 71.3595 122.545 63.9781C121.093 61.5765 119.41 59.3106 117.836 56.9903C114.218 51.5628 110.6 46.1669 106.981 40.8027C106.778 40.3726 106.636 39.9157 106.561 39.4458L107.158 39.0117" fill="#FDFBF8"/>
<path d="M182.587 29.1875C185.585 31.7927 188.693 34.2757 191.542 37.0165C195.138 40.4766 198.639 44.0316 201.949 47.7495C204.305 50.4326 206.486 53.2653 208.476 56.23C212.207 61.6575 216.129 67.085 218.68 73.1909C220.696 77.8545 222.432 82.6348 223.876 87.5061C224.884 91.7122 225.631 95.9762 226.115 100.274C226.174 101.534 226.119 102.796 225.952 104.046C223.944 102.771 224.026 101.115 223.632 99.7585C222.506 95.81 221.692 91.7531 220.403 87.8589C219.418 85.3553 218.248 82.9287 216.902 80.5994C215.654 78.1842 214.324 75.8233 213.076 73.4217C209.195 65.9181 205.735 58.1703 200.728 51.3317C196.171 44.8467 190.905 38.8895 185.029 33.5702C183.781 32.4847 182.315 31.5076 181.963 29.7437L182.587 29.1875Z" fill="#FDFBF8"/>
<path d="M191.23 106.11C190.24 105.233 189.302 104.3 188.421 103.314C183.462 96.7369 177.817 90.7057 171.582 85.3224C164.058 78.7796 157.049 71.6665 150.619 64.0465C146.29 58.931 141.717 54.0055 137.403 48.8765C134.065 44.9144 130.903 40.7353 127.728 36.6646C127.255 35.8861 126.868 35.058 126.575 34.1952L127.212 33.7339C130.591 37.1261 133.997 40.5183 137.321 43.9105C141.88 48.7002 146.345 53.5578 150.768 58.4697C154.174 62.2554 157.552 66.0954 160.754 70.0303C165.166 75.0955 169.903 79.8681 174.934 84.3181C180.226 89.2436 184.961 94.7933 189.86 100.153C190.616 100.923 191.143 101.887 191.382 102.939C191.622 103.991 191.565 105.089 191.217 106.11" fill="#FDFBF8"/>
<path d="M96.2891 -26.3491C97.1304 -25.9828 97.9854 -25.6708 98.7995 -25.2501C102.137 -23.5269 105.218 -21.3558 108.976 -20.3788C111.527 -19.4914 114.019 -18.4446 116.439 -17.2445C119.546 -15.9962 122.721 -14.9107 125.815 -13.6352C129.553 -12.2219 133.209 -10.6002 136.765 -8.77763C144.306 -4.71984 151.443 0.0461617 158.081 5.456C160.566 7.3718 163.152 9.15198 165.829 10.7886C167.527 11.6942 168.937 13.0574 169.9 14.7236C169.072 15.7684 168.285 15.4155 167.539 14.9541C163.658 12.5932 159.787 10.2143 155.924 7.81712C152.993 5.98533 150.13 4.03131 147.158 2.26737C141.188 -1.26051 135.177 -4.69333 129.18 -8.16693C128.644 -8.53522 128.087 -8.87052 127.511 -9.17101C121.676 -11.7491 115.76 -14.1373 110.021 -16.9325C105.557 -19.1035 101.323 -21.7358 97.0219 -24.2189C96.5496 -24.6079 96.1381 -25.0652 95.8008 -25.5758C95.9637 -25.82 96.1127 -26.0641 96.262 -26.3084" fill="#FDFBF8"/>
<path d="M140.89 112.433C143.916 114.97 146.792 117.412 149.709 119.787C152.75 122.406 156.353 124.291 160.239 125.296C163.357 126.211 166.351 127.505 169.154 129.149C172.491 130.9 175.666 132.949 178.909 134.902C179.385 135.156 179.797 135.513 180.117 135.947C180.272 136.155 180.382 136.392 180.44 136.644C180.499 136.897 180.504 137.158 180.456 137.413C180.33 137.637 180.15 137.827 179.932 137.965C179.714 138.102 179.465 138.183 179.208 138.2C177.049 138.243 174.896 137.969 172.817 137.386C164.676 134.102 156.535 130.832 149.479 125.431C146.014 122.814 143.01 119.636 140.591 116.028C139.845 114.902 139.153 113.776 140.89 112.433Z" fill="#FDFBF8"/>
</svg>
