<svg width="193" height="246" viewBox="0 0 193 246" fill="none" xmlns="http://www.w3.org/2000/svg">
<path d="M23.1618 120.805C23.6235 121.23 23.8428 121.846 24.3162 122.257C24.3879 122.33 24.4457 122.415 24.487 122.509C24.8713 123.178 25.244 123.863 25.6418 124.53C25.7416 124.676 25.8068 124.843 25.8325 125.018C25.8582 125.193 25.8437 125.371 25.7901 125.54C25.6831 125.87 25.5685 126.194 25.4502 126.491C25.1005 127.265 24.8159 128.065 24.3991 128.8C23.8924 129.684 23.4163 130.592 22.925 131.488C22.6558 132.08 22.347 132.653 22.0006 133.203C21.4746 133.891 21.0785 134.678 20.629 135.424L18.8703 138.294C18.7241 138.485 18.5722 138.684 18.4202 138.883C18.0871 139.318 17.8228 139.806 17.5719 140.293C17.2715 140.807 16.8441 141.235 16.3307 141.536L16.0695 141.687C15.3184 140.289 14.4916 138.933 13.5926 137.625C13.4389 137.398 13.3238 137.153 13.1817 136.911C13.6584 136.022 14.1982 135.168 14.7971 134.356C15.0931 133.865 15.4419 133.409 15.8374 132.995C16.1333 132.664 16.3887 132.298 16.598 131.906C16.4293 131.939 16.2717 132.014 16.1399 132.124C15.7906 132.439 15.4409 132.801 15.1379 133.102C14.6305 133.61 14.1544 134.148 13.7123 134.713C13.4769 134.999 13.2127 135.259 12.9238 135.491C12.766 135.697 12.5574 135.574 12.4225 135.386L12.1218 134.623C12.013 134.322 11.9429 134.002 11.8072 133.704C11.3783 132.749 11.0071 131.77 10.6955 130.771C10.4097 129.862 10.1121 128.968 9.83386 128.065C9.75343 127.804 9.69923 127.535 9.67205 127.263C9.55108 126.019 9.62453 124.763 9.88977 123.542C10.3755 123.286 10.8223 122.963 11.2169 122.582C11.6309 122.136 12.1043 121.723 12.5642 121.311C13.1186 120.897 13.599 120.392 13.9848 119.818C14.1162 119.522 14.2956 119.25 14.5158 119.013C14.9776 118.54 15.49 118.12 16.0438 117.759C16.1737 117.684 16.2929 117.592 16.3985 117.485C17.0976 116.809 17.6681 116.095 18.4126 115.501C18.4126 115.501 18.4099 115.378 18.4054 115.241C18.2095 115.317 18.0267 115.422 17.8637 115.554C17.1987 116.224 16.4471 116.802 15.6289 117.272C14.8795 117.777 14.233 118.385 13.5236 118.932C13.0017 119.494 12.4099 119.985 11.7627 120.396C11.3549 120.802 10.8748 121.129 10.347 121.36C10.0683 121.534 9.79544 121.701 9.50907 121.87C9.12787 121.481 8.72913 121.116 8.37311 120.71C7.69982 119.871 6.91954 119.124 6.05218 118.487C5.17492 117.779 4.41064 116.941 3.78566 116.003C2.9751 114.898 2.24458 113.736 1.59966 112.526C0.859762 111.198 0.0987289 109.865 -0.654661 108.538C-0.357926 108.385 -0.0963574 108.173 0.113186 107.914C0.539675 107.399 1.06767 106.978 1.66416 106.677C2.01796 106.5 2.34703 106.291 2.71072 106.085C2.44325 105.88 2.3057 105.981 2.12587 106.074L-0.205518 107.222C-0.270819 107.263 -0.344779 107.29 -0.421762 107.299C-0.718623 107.342 -0.996836 107.47 -1.22376 107.666C-1.44673 107.435 -1.68138 107.219 -1.90614 106.975C-2.67049 106.15 -3.37475 105.271 -4.01351 104.346C-4.57841 103.613 -5.10188 102.848 -5.58145 102.057C-5.96354 101.353 -6.35911 100.651 -6.76232 99.9425C-7.57685 98.5686 -8.28347 97.1804 -9.23871 95.8322C-9.99748 94.7409 -10.657 93.584 -11.2094 92.3751C-11.9414 90.9223 -12.7637 89.5168 -13.6714 88.1668C-13.7267 88.1128 -13.7883 88.0657 -13.8548 88.0265C-13.6782 87.8471 -13.4482 87.7298 -13.1994 87.6921C-12.5927 87.5565 -11.9719 87.4945 -11.3504 87.5074C-10.64 87.5273 -9.92918 87.4831 -9.22671 87.3753C-8.24984 87.2382 -7.27252 87.053 -6.2934 86.8814C-5.97917 86.8189 -5.67033 86.7159 -5.35609 86.6535C-5.04186 86.591 -4.33068 86.4688 -3.80876 86.4198C-2.98705 86.3904 -2.16869 86.2997 -1.36051 86.1483C-1.11595 86.1048 -0.867425 86.0878 -0.619218 86.0976L4.91335 85.8474L5.5562 85.8303C5.88323 86.073 6.15402 86.3833 6.35006 86.7402C6.9197 87.732 7.36292 88.7911 7.66937 89.8929C7.92195 90.5394 8.11659 91.2071 8.251 91.888C8.30808 92.3677 8.33998 92.8645 8.36064 93.3284C8.1907 93.3534 8.02388 93.3964 7.86299 93.4565C7.24238 93.776 6.57226 93.9883 5.88092 94.0844C5.04835 94.2229 4.29265 94.5775 3.42818 94.631C2.9339 94.6852 2.443 94.7667 1.9577 94.875C1.61649 94.9411 1.29732 95.1209 0.966004 95.1582C0.203878 95.2573 -0.547908 95.4241 -1.28041 95.6567C-1.74723 95.7327 -2.19202 95.9091 -2.58411 96.1736C-2.63086 96.2348 -2.68345 96.3035 -2.70773 96.4303L0.039452 95.8788C0.252596 95.8221 0.469763 95.7816 0.689054 95.7579C1.54184 95.7197 2.38878 95.6892 3.19932 95.6429C3.86912 95.6189 4.5356 95.5369 5.19127 95.398C6.26036 95.1593 7.36017 95.0891 8.45092 95.19C8.7462 95.2502 9.05332 95.1945 9.30867 95.0345C9.82672 95.4033 10.2686 95.8687 10.6101 96.4052C10.7712 96.7712 11.0066 97.0997 11.3014 97.3699C11.4028 97.4483 11.4716 97.5613 11.4947 97.6873C11.6584 98.2625 11.9188 98.8057 12.2647 99.2936C12.4523 99.7053 12.6793 100.098 12.9426 100.466C13.5665 101.234 14.021 102.223 14.6099 103.037C14.9746 103.542 15.318 104.059 15.6402 104.588C15.6824 104.652 15.7294 104.712 15.7809 104.768C16.3928 105.445 16.9644 106.157 17.4927 106.901C18.0416 107.725 18.6748 108.489 19.382 109.182C20.0192 109.85 20.5454 110.616 20.9405 111.451C20.9829 111.541 21.0118 111.637 21.0263 111.735C21.3292 112.908 21.5591 114.099 21.7145 115.301C21.8196 116.193 22.052 117.061 22.217 117.938C22.2552 118.174 22.4031 118.408 22.2853 118.657C21.7888 119.108 21.3635 119.632 21.0238 120.211C20.5706 121.005 20.0673 121.769 19.5168 122.498C18.8681 123.347 18.1411 124.123 17.5306 125.001C17.0806 125.589 16.5789 126.15 16.1136 126.727C16.0084 126.864 15.8974 127.01 16.1693 127.145C16.3388 126.923 16.5025 126.709 16.712 126.53C17.7612 125.443 18.82 124.376 19.8463 123.271C20.1744 122.896 20.5639 122.58 20.9981 122.335C21.4725 122.115 21.906 121.816 22.2802 121.451C22.55 121.201 22.8384 120.972 23.1429 120.766" fill="#FDFBF8"/>
<path d="M9.33525 95.0786C9.07777 95.2405 8.76679 95.2943 8.46987 95.2282C7.38131 95.1324 6.28449 95.2046 5.21785 95.4421C4.55998 95.5824 3.89068 95.6625 3.21827 95.6812L0.708005 95.7962C0.488714 95.8199 0.271547 95.8603 0.0584022 95.9171L-2.6888 96.4686C-2.61866 96.3769 -2.6272 96.2613 -2.56516 96.2119C-2.17307 95.9474 -1.72828 95.771 -1.26145 95.695C-0.53972 95.4549 0.200886 95.2758 0.952574 95.1596C1.29153 95.1282 1.61071 94.9484 1.95192 94.8823C2.43899 94.7712 2.93186 94.6872 3.42824 94.6306C4.2662 94.5326 5.05426 94.2148 5.88098 94.0841C6.57176 94.0012 7.24364 93.8026 7.86844 93.4966C8.02934 93.4364 8.19616 93.3935 8.3661 93.3685L9.3411 95.0709" fill="#F3EDDD"/>
<path d="M23.162 120.804C22.8574 121.01 22.569 121.239 22.2993 121.489C21.9251 121.854 21.4915 122.153 21.0172 122.374C20.583 122.618 20.1935 122.935 19.8654 123.31C18.839 124.414 17.7803 125.482 16.731 126.569C16.5674 126.783 16.4037 126.997 16.1884 127.183C15.947 127.071 16.0198 126.897 16.1327 126.765C16.5827 126.177 17.1226 125.645 17.5497 125.039C18.1984 124.191 18.9025 123.397 19.5359 122.537C20.0864 121.807 20.5897 121.043 21.0429 120.25C21.3826 119.671 21.8079 119.147 22.3043 118.695C22.4867 119.071 22.6375 119.462 22.7552 119.863C22.8491 120.194 22.9858 120.51 23.162 120.804Z" fill="#F3EDDD"/>
<path d="M9.90121 123.574C9.90027 123.402 9.91412 123.23 9.9426 123.06C10.0241 122.848 10.0277 122.613 9.95251 122.398C9.87736 122.183 9.72843 122.002 9.5322 121.887L10.3778 121.383C10.9013 121.146 11.3782 120.818 11.7858 120.413C12.433 120.002 13.0249 119.511 13.5467 118.949C14.2561 118.402 14.9026 117.794 15.652 117.289C16.4703 116.819 17.2218 116.241 17.8868 115.571C18.0499 115.439 18.2327 115.334 18.4285 115.258C18.433 115.395 18.4667 115.494 18.4357 115.518C17.6678 116.142 17.1032 116.849 16.4217 117.503C16.3161 117.609 16.1968 117.701 16.0669 117.776C15.5131 118.137 15.0007 118.557 14.5389 119.03C14.3187 119.267 14.1393 119.539 14.0079 119.835C13.6221 120.41 13.1418 120.914 12.5873 121.328C12.1181 121.73 11.6709 122.156 11.2476 122.605C10.847 122.981 10.3982 123.301 9.91289 123.559" fill="#E4DBC6"/>
<path d="M13.1624 136.92C12.9313 136.525 12.6944 136.138 12.4769 135.742C12.3928 135.678 12.4328 135.514 12.4108 135.401C12.5457 135.589 12.7394 135.652 12.912 135.505C13.2009 135.274 13.4652 135.013 13.7006 134.728C14.1427 134.163 14.6188 133.625 15.1261 133.117C15.4525 132.785 15.8023 132.423 16.1282 132.139C16.26 132.029 16.4176 131.954 16.5863 131.92C16.3644 132.306 16.0933 132.66 15.7798 132.975C15.388 133.392 15.0395 133.848 14.7395 134.335C14.1406 135.148 13.6008 136.002 13.1242 136.891" fill="#E4DBC6"/>
<path d="M-0.616284 108.567L-1.18178 107.722C-0.954853 107.526 -0.676642 107.399 -0.379781 107.355C-0.302799 107.346 -0.228837 107.32 -0.163536 107.278L2.16784 106.13C2.34766 106.037 2.51625 105.912 2.7527 106.141C2.38901 106.347 2.05994 106.556 1.70615 106.733C1.10965 107.035 0.581657 107.455 0.155167 107.97C-0.0543747 108.229 -0.315945 108.442 -0.612679 108.594" fill="#E4DBC6"/>
<path d="M0.831824 125.662C0.983778 125.463 1.16944 125.363 1.33443 125.21C1.39955 125.207 1.46478 125.213 1.52864 125.226C1.7694 125.332 2.03226 125.38 2.29511 125.364C2.62463 125.313 2.69249 125.667 2.81701 125.932C2.68234 126.092 2.51387 126.22 2.32373 126.307C2.13359 126.395 1.92652 126.438 1.71741 126.436C1.71921 126.243 1.779 126.023 1.45218 125.991C1.12536 125.959 1.0467 125.935 0.831824 125.662Z" fill="#844A2A"/>
<path d="M8.30308 135.166L7.96233 135.184C7.93447 135.078 7.82028 134.942 8.01134 134.882C8.2024 134.823 8.1489 134.988 8.21768 135.04L8.29724 135.174" fill="#844A2A"/>
<path d="M0.987952 125.03C0.983484 124.974 0.985306 124.919 0.993362 124.864L1.16059 124.883C1.16059 124.883 1.18261 124.997 1.16328 125.006C1.10593 125.021 1.0471 125.029 0.987952 125.03Z" fill="#844A2A"/>
<path d="M7.91757 141.181L7.89422 140.8L8.02773 140.721L8.23496 140.782L8.37881 141.038C8.30867 141.129 8.18326 141.167 8.09604 141.233L7.91757 141.181Z" fill="#844A2A"/>
<path d="M6.30255 135.295L6.77636 135.657C6.73879 135.713 6.68991 135.761 6.63287 135.796C6.57584 135.832 6.51193 135.856 6.44528 135.865C6.37862 135.875 6.31071 135.87 6.24593 135.852C6.18115 135.833 6.12094 135.802 6.06922 135.759C5.81703 135.566 5.54327 135.417 5.72625 134.988C5.54193 135.149 5.34412 135.313 5.12698 135.486L5.27219 135.803C5.27219 135.803 5.20789 135.887 5.15439 135.846C4.93277 135.677 4.93277 135.677 4.71925 135.259C4.62855 135.38 4.51676 135.483 4.38927 135.564C4.23944 135.596 4.08555 135.605 3.93299 135.59C4.00358 135.245 4.29534 135.117 4.53001 134.921C4.34526 134.513 4.89237 134.447 4.84608 134.048L5.23087 134.463L5.61748 134.275C5.6094 134.111 5.61076 133.967 5.59323 133.784C5.7311 133.735 5.87409 133.702 6.01941 133.686C6.2173 133.713 6.41875 133.678 6.59581 133.585C6.77288 133.493 6.91677 133.348 7.00752 133.17C7.22465 133.203 7.23678 133.345 7.18013 133.435C7.06816 133.611 6.94105 133.777 6.80025 133.932L7.25381 134.811C7.0497 135.237 6.64061 135.154 6.32547 135.313L6.27198 135.272L6.3484 135.33" fill="#844A2A"/>
<path d="M4.45853 137.215C4.32097 137.316 4.12811 137.362 4.16631 137.598C4.17456 137.698 4.15248 137.798 4.10292 137.885C4.05337 137.973 3.97863 138.043 3.88848 138.088C3.8595 138.1 3.83334 138.119 3.8115 138.142C3.78966 138.165 3.77255 138.192 3.76119 138.221C3.74982 138.251 3.74442 138.282 3.74528 138.314C3.74613 138.346 3.75325 138.377 3.7662 138.406C3.80474 138.517 3.8107 138.637 3.78337 138.751C3.75604 138.865 3.69657 138.969 3.61197 139.051C3.4897 138.957 3.33686 138.841 3.27572 138.794C3.16324 138.428 2.95346 138.1 2.66887 137.845L1.92262 138.013C1.7881 137.874 1.66285 137.725 1.54771 137.569C1.53265 137.536 1.5269 137.499 1.53105 137.463C1.5352 137.427 1.54912 137.392 1.5713 137.363C1.59348 137.334 1.6231 137.312 1.65702 137.298C1.69095 137.285 1.72791 137.281 1.76396 137.286C1.92769 137.33 2.08849 137.385 2.24541 137.449C2.47919 137.143 2.08044 136.983 2.19509 136.659C2.236 136.606 2.37311 136.553 2.52416 136.451C2.74129 136.689 2.96651 136.886 3.30098 136.718C3.33572 136.703 3.3735 136.697 3.41103 136.701C3.44857 136.704 3.48472 136.717 3.51631 136.737C3.77614 136.936 4.02969 136.778 4.28998 136.723L4.44864 137.244L4.45853 137.215ZM2.63248 137.418L2.59156 137.471C2.59156 137.471 2.64506 137.512 2.71294 137.455C2.78083 137.398 2.71294 137.455 2.74801 137.409L2.62484 137.412" fill="#844A2A"/>
<path d="M7.56835 126.308C7.54631 126.606 7.3094 126.836 7.50494 127.119C7.52479 127.159 7.53661 127.202 7.53969 127.246C7.54277 127.291 7.53705 127.335 7.52289 127.377C7.50872 127.419 7.48637 127.458 7.45714 127.492C7.4279 127.525 7.39235 127.552 7.35252 127.572C7.19563 127.682 7.02165 127.767 6.84947 127.865C6.22282 127.386 6.4067 126.861 6.69308 126.28C6.52496 126.152 6.3901 125.964 6.25704 125.789C6.18248 125.705 6.13265 125.601 6.11299 125.49C6.09333 125.379 6.10461 125.264 6.14559 125.159C6.15944 125.072 6.20335 124.993 6.26966 124.935C6.33597 124.878 6.42046 124.845 6.50838 124.843C6.55189 124.837 6.5963 124.839 6.63894 124.85C6.68158 124.861 6.72157 124.88 6.75654 124.907C6.7915 124.933 6.82071 124.967 6.84242 125.005C6.86412 125.044 6.87786 125.086 6.88284 125.13C6.95792 125.593 7.20477 126.011 7.5742 126.3" fill="#844A2A"/>
<path d="M8.81904 136.977C8.81904 136.977 8.76643 137.046 8.74306 137.077L8.49268 136.692C8.44499 136.803 8.41219 136.921 8.39511 137.041C8.40329 137.091 8.39974 137.142 8.38473 137.19C8.36971 137.239 8.34364 137.283 8.30859 137.32C8.27354 137.356 8.23046 137.384 8.18275 137.401C8.13504 137.419 8.08399 137.424 8.03365 137.418C7.81607 137.434 7.78912 137.231 7.70821 137.036C7.95277 136.812 8.26027 136.647 8.29265 136.272C8.33356 136.219 8.37446 136.165 8.41537 136.112L8.33895 136.053L8.27376 136.233C8.17935 136.246 8.06921 136.295 8.00223 136.256C7.97695 136.22 7.96125 136.178 7.95661 136.134C7.95198 136.09 7.95855 136.046 7.97572 136.005C8.09455 135.83 8.22334 135.662 8.36145 135.501C8.24418 135.48 8.13053 135.442 8.02385 135.388C7.97036 135.347 7.9888 135.228 7.97801 135.147L8.31875 135.129L8.62579 135.425C8.84023 135.334 8.67659 135.137 8.71841 134.987C8.73676 134.842 8.74713 134.696 8.74944 134.55C8.85904 134.49 8.98431 134.465 9.10861 134.478C9.23291 134.491 9.35035 134.541 9.44534 134.622C9.63639 134.768 9.63639 134.768 9.83195 134.434L9.95963 134.362C10.0461 134.602 10.0938 134.856 10.1008 135.111L9.48802 135.2C9.43136 135.496 9.06544 135.325 8.97328 135.509C8.88112 135.693 9.10183 136.164 8.81681 136.394C8.53179 136.625 8.74038 136.748 8.81185 136.923" fill="#844A2A"/>
<path d="M11.1985 139.124C11.5023 139.463 11.6708 139.903 11.6719 140.358C11.538 140.448 11.3969 140.526 11.2502 140.593C11.007 140.673 10.6455 140.433 10.7382 140.201C10.8308 139.969 10.7957 139.397 11.2102 139.109" fill="#844A2A"/>
<path d="M3.33842 130.049C3.4391 130.393 3.55147 130.721 3.62923 131.047C3.62141 131.093 3.60243 131.137 3.57391 131.174C3.5454 131.211 3.50821 131.241 3.46559 131.261C3.46559 131.261 3.25835 131.199 3.27454 131.115C3.26077 130.955 3.196 130.803 3.08975 130.683C2.9835 130.562 2.84138 130.479 2.6843 130.445L2.63081 130.404C2.50089 130.305 2.37862 130.211 2.42043 130.062C2.46224 129.912 2.65106 129.887 2.79896 129.915L3.34292 129.98" fill="#844A2A"/>
<path d="M5.24641 140.398C5.23383 140.304 5.1772 140.188 5.21632 140.121C5.29325 140.021 5.33358 139.898 5.33056 139.772C5.32754 139.646 5.28133 139.525 5.1997 139.43C5.07608 139.275 4.92729 139.137 4.76725 138.966C4.94753 138.825 5.21591 138.727 5.22311 138.37C5.26987 138.308 5.4924 138.176 5.64075 138.156C5.82438 138.148 6.0081 138.17 6.1847 138.221L6.16355 138.629L6.97094 138.713C7.0372 138.51 7.13441 138.319 7.25911 138.146C7.4301 138.003 7.62364 137.889 7.83185 137.809C7.92751 137.919 8.04451 138.009 8.17575 138.072C8.50392 138.166 8.8051 138.263 8.85723 138.654C9.24339 138.719 9.19572 139.082 9.30316 139.322C9.49734 139.749 9.47801 139.758 9.09813 140.049C9.05722 140.103 9.01048 140.164 8.88506 140.201L8.85985 140.836C8.68228 140.894 8.52403 140.942 8.35815 140.985L8.2143 140.73C8.2215 140.578 8.22151 140.578 8.00707 140.668L7.87356 140.748L7.4991 140.461L8.00844 140.318C8.09521 140.094 8.21659 139.872 8.05926 139.618C8.25796 139.358 8.26291 139.241 8.06152 139.172C7.86012 139.102 7.73695 139.105 7.52566 139.065L7.5234 139.511L8.0534 139.626C7.9073 139.817 7.69241 139.955 7.51573 140.123C7.33905 140.291 7.44246 140.345 7.4991 140.461L7.1808 140.545C7.15211 140.391 7.13812 140.234 7.13902 140.077C7.17902 139.919 7.22932 139.763 7.28963 139.611C7.10932 139.587 6.93466 139.531 6.77355 139.446C6.62836 139.335 6.57083 139.11 6.25885 139.137C6.27907 139.238 6.27412 139.355 6.333 139.436L6.96054 140.437C7.07606 140.634 6.96906 140.759 6.8198 140.875L5.20237 140.376" fill="#844A2A"/>
<path d="M-1.08081 138.187L-1.16938 137.986C-1.2031 137.793 -1.26282 137.604 -1.34692 137.427C-1.48385 137.285 -1.64095 137.165 -1.81309 137.07C-1.56987 136.578 -1.51187 136.55 -0.617714 136.41L-0.78223 135.485L-0.130827 135.583L-0.180763 136.599C-0.134911 136.634 -0.0890585 136.669 -0.0310662 136.64C0.0269263 136.612 0.362293 136.348 0.592006 136.475C0.739149 136.599 0.870897 136.741 0.984443 136.896C1.12749 136.989 1.28037 137.065 1.44028 137.124C1.16785 137.242 0.999713 137.32 0.829782 137.384C0.400909 137.564 0.400912 137.564 0.0889413 137.18C0.0889413 137.18 0.0475804 137.076 0.0111678 137.06C-0.133396 136.935 -0.305169 136.845 -0.49052 136.798C-0.736872 136.803 -0.7126 137.088 -0.811954 137.218C-0.674507 137.421 -0.56645 137.642 -0.491 137.875C-0.474821 137.997 -0.683871 138.127 -0.789069 138.265L-1.1478 138.148" fill="#844A2A"/>
<path d="M5.35073 128.669C5.30398 128.73 5.26981 128.885 5.31161 128.942C5.54087 129.323 5.37409 129.668 5.25539 130.013C5.23766 130.086 5.20327 130.154 5.15493 130.212C5.10658 130.27 5.04557 130.316 4.97662 130.346C4.90766 130.377 4.83262 130.391 4.75732 130.388C4.68202 130.384 4.60847 130.364 4.5424 130.328C4.30609 130.201 4.09187 130.038 3.90812 129.843C3.76292 129.731 3.84923 129.349 4.02411 129.168C4.17248 129.025 4.32856 128.889 4.49165 128.763L5.35073 128.669Z" fill="#844A2A"/>
<path d="M4.45849 137.216C4.60459 137.025 4.68193 136.781 4.80331 136.559C5.18138 136.46 5.58463 136.345 5.99147 136.256C6.39832 136.168 6.50215 136.381 6.41223 136.736C6.40111 136.809 6.37492 136.879 6.33531 136.942C6.29569 137.005 6.24351 137.059 6.18204 137.101C6.12057 137.143 6.05114 137.171 5.97811 137.185C5.90508 137.198 5.83003 137.197 5.75767 137.18C5.06178 137.108 5.06179 137.108 5.18629 137.784C4.82485 137.956 4.70751 137.951 4.57895 137.708C4.5214 137.548 4.48101 137.383 4.45849 137.216Z" fill="#844A2A"/>
<path d="M2.89514 131.152C2.95806 131.83 2.95806 131.83 2.5094 132.068C1.98974 131.67 1.98973 131.67 1.36171 131.747C1.31183 131.322 1.66024 131.104 1.80725 130.816C1.84846 130.795 1.89362 130.781 1.94004 130.777C1.98647 130.774 2.0332 130.779 2.07744 130.794C2.12167 130.808 2.1625 130.832 2.19749 130.862C2.23248 130.893 2.2609 130.931 2.28106 130.973C2.40332 131.272 2.64115 131.151 2.89514 131.152Z" fill="#844A2A"/>
<path d="M1.80983 122.958C1.92177 122.716 2.02967 122.496 2.12992 122.27L1.93798 122.22C2.18254 121.995 2.40596 122.178 2.64601 122.229C2.75119 122.709 2.90087 123.162 2.54257 123.615L1.82511 122.969" fill="#844A2A"/>
<path d="M3.89933 121.334C3.6512 120.914 3.2637 120.581 3.66696 120.054C4.19518 119.949 4.38803 120.315 4.57637 120.749C4.54477 120.903 4.46619 121.044 4.35146 121.151C4.23672 121.259 4.09148 121.328 3.93575 121.349" fill="#844A2A"/>
<path d="M6.38382 137.296C6.3915 137.336 6.3924 137.378 6.3865 137.419C6.3865 137.419 6.3865 137.419 6.34065 137.384L6.33032 137.255L6.38382 137.296Z" fill="#844A2A"/>
<path d="M9.27546 136.539C9.25853 136.291 9.2551 136.041 9.26516 135.793C9.27254 135.75 9.29019 135.709 9.31666 135.675C9.34313 135.64 9.3776 135.612 9.4171 135.594C9.4171 135.594 9.54702 135.693 9.60816 135.74C9.62848 135.808 9.63564 135.879 9.62927 135.95C9.66564 135.999 9.69044 136.056 9.70181 136.116C9.71317 136.175 9.71081 136.237 9.69489 136.296C9.67897 136.355 9.64991 136.41 9.60989 136.456C9.56987 136.502 9.51993 136.538 9.46382 136.562L9.25657 136.501L9.27546 136.539Z" fill="#844A2A"/>
<path d="M15.3791 142.067C15.2088 141.768 15.0366 141.454 14.8604 141.162C14.7633 141.022 14.6495 140.894 14.5215 140.782C14.4373 140.687 14.3207 140.626 14.1945 140.613C14.0683 140.599 13.9416 140.633 13.8391 140.708C13.7145 140.766 13.5854 140.813 13.4529 140.849C13.4506 140.403 13.5544 139.964 13.7555 139.566L12.1709 136.792C11.9062 136.711 11.7313 136.892 11.5532 136.998C11.4454 137.085 11.3162 137.142 11.1791 137.163C11.0419 137.184 10.9016 137.167 10.7728 137.116C10.5773 137.039 10.4622 137.205 10.3206 137.327C10.0545 136.978 9.77755 136.754 9.31091 137.063C9.35672 137.196 9.39529 137.33 9.42644 137.467C9.48128 137.775 9.341 137.958 9.05239 137.956C8.95263 137.959 8.85313 137.944 8.7584 137.913C8.64511 137.886 8.49721 137.858 8.44597 137.783C8.39472 137.707 8.49273 137.516 8.62625 137.436C8.75976 137.356 8.79573 137.214 8.70493 137.048C8.72707 137.013 8.75251 136.979 8.78091 136.949L9.23721 136.51L9.44446 136.572C9.50057 136.548 9.55049 136.512 9.5905 136.466C9.63052 136.419 9.65958 136.365 9.67551 136.306C9.69143 136.247 9.6938 136.185 9.68244 136.125C9.67108 136.065 9.64628 136.009 9.60991 135.96C9.72589 135.903 9.84188 135.846 9.94842 135.976C10.055 136.106 10.1323 136.274 10.3305 136.269C10.5288 136.263 10.6866 136.468 10.8273 136.648C10.9414 136.578 11.0421 136.51 11.168 136.425C11.0345 136.092 10.928 135.757 11.204 135.459C10.9858 134.999 10.7162 134.565 10.4003 134.166L9.91701 134.402L9.78933 134.474C9.66841 134.236 9.30338 134.175 9.29935 133.784L9.81097 132.783C9.57049 132.163 9.05039 131.608 9.11785 130.775L8.41879 131.04C8.19538 130.651 8.20123 130.643 8.18731 130.076C8.2997 130.159 8.42183 130.228 8.55098 130.281C8.68281 130.3 8.81703 130.297 8.94749 130.269C9.07832 129.861 8.8702 129.484 8.87381 129.099C8.87742 128.714 8.80237 128.305 8.77136 127.918L8.07051 127.758L8.30201 128.31C8.07633 128.368 8.07633 128.368 7.9199 128.018L7.6322 128.125C7.40248 128.204 7.30133 128.114 7.31123 127.88C8.1645 127.176 8.20135 127.349 8.73 127.608L8.6914 126.186C8.6914 126.186 8.65589 126.074 8.67927 126.043C9.03578 125.577 8.72695 125.062 8.69101 124.587C8.61599 124.118 8.6362 123.639 8.75041 123.179C8.80274 123.024 8.80511 122.857 8.7572 122.7C8.70929 122.544 8.61351 122.407 8.4834 122.308L6.08652 119.979C5.83181 119.742 5.60153 119.481 5.39918 119.199C5.07873 118.758 4.72288 118.344 4.33516 117.961C3.68184 117.308 3.13094 116.56 2.70113 115.743C2.52247 115.383 2.32471 115.034 2.10868 114.696C1.95631 114.352 1.73527 114.043 1.45912 113.787C1.32272 113.642 1.21409 113.473 1.13861 113.288C0.55918 112.288 -0.0395789 111.297 -0.572703 110.284C-1.042 109.461 -1.60924 108.697 -2.26201 108.011C-2.99406 107.3 -3.62194 106.49 -4.12707 105.603C-4.26739 105.297 -4.47225 105.025 -4.72763 104.805C-4.8787 104.636 -5.00164 104.444 -5.09175 104.236L-7.87605 99.3085C-8.01186 98.9996 -8.21743 98.7263 -8.47662 98.5101C-8.59973 98.3817 -8.6987 98.2322 -8.76881 98.0687L-10.0032 95.9135C-10.1803 95.5288 -10.4269 95.1801 -10.7305 94.8849C-10.8629 94.7346 -10.9692 94.5632 -11.0452 94.3778L-13.4249 90.2203C-13.5351 90.0627 -13.6538 89.9113 -13.7805 89.7667L-14.1059 88.7669C-14.1468 88.649 -14.1446 88.5205 -14.0998 88.404C-14.0551 88.2875 -13.9706 88.1906 -13.8613 88.1304C-13.7948 88.1696 -13.7332 88.2167 -13.6779 88.2706C-12.7702 89.6206 -11.9479 91.0261 -11.2159 92.4789C-10.6641 93.686 -10.0093 94.8432 -9.25872 95.9378C-8.32821 97.255 -7.58338 98.6724 -6.76885 100.046C-6.3481 100.731 -5.95253 101.434 -5.58797 102.161C-5.10971 102.949 -4.58885 103.712 -4.02768 104.444C-3.38532 105.371 -2.67857 106.251 -1.91267 107.079C-1.69554 107.317 -1.4609 107.533 -1.23029 107.77L-0.664791 108.614C0.088598 109.941 0.84963 111.274 1.58953 112.603C2.23445 113.813 2.96499 114.974 3.77555 116.08C4.40053 117.018 5.16481 117.856 6.04207 118.564C6.90943 119.201 7.68969 119.948 8.36298 120.787C8.719 121.193 9.11774 121.558 9.49894 121.947C9.69517 122.062 9.84411 122.243 9.91925 122.458C9.99439 122.673 9.99088 122.908 9.90934 123.12C9.88086 123.29 9.86701 123.462 9.86795 123.634C9.60271 124.855 9.52927 126.111 9.65024 127.355C9.67741 127.627 9.73162 127.896 9.81205 128.157C10.0903 129.06 10.3878 129.954 10.6737 130.863C10.9962 131.845 11.3765 132.807 11.8128 133.744C11.9409 134.036 12.0186 134.362 12.1274 134.663L12.4281 135.426C12.4502 135.54 12.4335 135.673 12.4942 135.767C12.7118 136.164 12.9487 136.551 13.1797 136.946C13.3141 137.182 13.4368 137.433 13.5906 137.66C14.4896 138.968 15.3164 140.324 16.0674 141.722C15.8431 141.841 15.6206 141.974 15.3962 142.093" fill="#844A2A"/>
<path d="M5.24645 140.398C4.75808 140.304 4.27492 140.186 3.79893 140.042C2.45076 139.556 1.10484 139.035 -0.246923 138.522C-0.406059 138.461 -0.561146 138.379 -0.72208 138.304C-0.622726 138.174 -0.476629 137.983 -0.42403 137.914C-0.499478 137.681 -0.607518 137.46 -0.744965 137.257C-0.699106 137.086 -0.700451 136.819 -0.423533 136.837C-0.238554 136.885 -0.0669903 136.975 0.0781555 137.099C0.0781555 137.099 0.146923 137.152 0.155912 137.219C0.467881 137.603 0.467892 137.603 0.896765 137.423C1.06669 137.359 1.23483 137.282 1.50726 137.163C1.34736 137.104 1.19448 137.028 1.05143 136.935C0.898587 136.819 0.821729 136.602 0.658994 136.514C0.496263 136.426 0.242259 136.631 0.0359168 136.68C-0.170427 136.728 -0.0328729 136.627 -0.113791 136.638L-0.0638427 135.622L-0.715239 135.524L-0.556577 136.457C-1.44488 136.589 -1.50288 136.617 -1.7461 137.109C-1.57396 137.204 -1.41687 137.325 -1.27993 137.466C-1.19583 137.643 -1.13611 137.832 -1.10239 138.025L-1.01383 138.226C-1.39369 138.105 -1.7776 138.006 -2.14578 137.869C-2.30501 137.796 -2.44597 137.688 -2.55845 137.554C-2.99809 137.036 -3.43008 136.524 -3.81218 136.026C-4.06041 135.71 -4.28803 135.378 -4.49364 135.032C-5.04436 134.12 -5.53304 133.172 -5.95637 132.194C-6.44828 131.017 -6.8141 129.791 -7.04772 128.537C-7.23795 127.325 -7.60761 126.149 -8.1445 125.046C-8.55584 124.162 -8.90227 123.249 -9.18104 122.315C-9.77578 120.459 -10.2263 118.56 -10.5286 116.634C-10.5879 116.189 -10.6549 115.738 -10.7083 115.285C-10.7537 113.761 -10.8408 112.18 -10.9437 110.636C-11.0466 109.092 -11.1077 107.192 -11.3418 105.487C-11.576 103.782 -11.6627 101.947 -11.8289 100.185C-12.0264 98.1204 -12.2443 96.0562 -12.4828 93.9925C-12.5555 93.4935 -12.6693 93.0014 -12.823 92.5211C-13.1535 91.6335 -13.4259 90.7253 -13.6384 89.8022C-13.5117 89.9468 -13.393 90.0983 -13.2828 90.2558L-10.886 94.4385C-10.8101 94.6239 -10.7038 94.7953 -10.5714 94.9456C-10.2678 95.2408 -10.0212 95.5895 -9.84403 95.9742L-8.60201 98.1352C-8.53595 98.2973 -8.43937 98.4452 -8.31749 98.5708C-8.05829 98.787 -7.85273 99.0603 -7.71692 99.3692L-4.87327 104.33C-4.78316 104.538 -4.66022 104.73 -4.50916 104.899C-4.25378 105.119 -4.04891 105.391 -3.90859 105.697C-3.4024 106.583 -2.7746 107.393 -2.04351 108.105C-1.39073 108.791 -0.823525 109.554 -0.354226 110.378C0.178897 111.391 0.777662 112.382 1.35709 113.382C1.43257 113.567 1.5412 113.736 1.6776 113.881C1.95375 114.137 2.17479 114.446 2.32716 114.79C2.53753 115.132 2.74791 115.475 2.93311 115.835C3.353 116.656 3.89991 117.405 4.55363 118.055C4.94136 118.438 5.29722 118.852 5.61766 119.293C5.82001 119.575 6.05029 119.836 6.30499 120.073L8.70952 122.408C8.83739 122.509 8.93148 122.646 8.9792 122.802C9.02692 122.957 9.02599 123.123 8.97653 123.278C8.85593 123.736 8.83308 124.214 8.90948 124.681C8.94543 125.156 9.22369 125.648 8.89775 126.137C8.89775 126.137 8.91032 126.232 8.90987 126.28L8.94848 127.702C8.38881 127.468 8.37533 127.264 7.52971 127.973C7.52565 128.201 7.6268 128.29 7.85067 128.219L8.1748 128.128C8.30785 128.508 8.30785 128.508 8.5569 128.42L8.32541 127.867L9.02624 128.028C9.05724 128.415 9.1305 128.81 9.12869 129.208C9.12688 129.607 9.34086 129.976 9.21003 130.385C9.07642 130.408 8.94009 130.41 8.80588 130.391C8.67672 130.337 8.55459 130.268 8.4422 130.185C8.45612 130.753 8.45027 130.761 8.67369 131.15L9.37274 130.885C9.30528 131.717 9.83302 132.278 10.0659 132.893L9.55425 133.894C9.55829 134.285 9.9233 134.346 10.0442 134.584C9.82798 134.866 9.79877 134.905 9.65761 134.772C9.56262 134.691 9.44518 134.641 9.32088 134.628C9.19658 134.615 9.07131 134.641 8.96172 134.701C8.9594 134.847 8.94903 134.992 8.93068 135.137C8.88886 135.287 9.05248 135.485 8.83804 135.575L8.53103 135.28L8.45146 135.146C8.38269 135.093 8.26805 135.006 8.24512 134.988C8.2222 134.971 8.16825 135.184 8.19611 135.29C8.22398 135.396 8.1943 135.482 8.24195 135.531C8.34863 135.584 8.4623 135.622 8.57957 135.644C8.44146 135.804 8.31267 135.973 8.19384 136.148C8.17667 136.189 8.17008 136.233 8.17472 136.277C8.17935 136.32 8.19507 136.362 8.22035 136.398C8.28149 136.445 8.39748 136.389 8.49188 136.376C8.46355 136.73 8.11784 136.865 7.90744 137.14C8.00004 137.32 8.01531 137.538 8.23289 137.522C8.28323 137.528 8.33427 137.523 8.38198 137.505C8.42969 137.488 8.47277 137.46 8.50782 137.424C8.54287 137.387 8.56893 137.343 8.58395 137.294C8.59896 137.246 8.60252 137.195 8.59434 137.145C8.61088 137.028 8.64168 136.913 8.68606 136.803L8.94229 137.181C9.01017 137.329 9.02815 137.464 8.86361 137.569C8.69908 137.673 8.57723 137.737 8.68332 137.915C8.7894 138.093 8.8591 138.05 8.99576 138.045C9.09049 138.077 9.18999 138.091 9.28976 138.088C9.59365 138.103 9.73391 137.919 9.66379 137.599C9.63265 137.463 9.59408 137.328 9.54827 137.196C9.99199 136.869 10.2689 137.093 10.558 137.459C10.669 137.314 10.7917 137.154 11.0102 137.248C11.139 137.3 11.2792 137.316 11.4164 137.295C11.5536 137.275 11.6828 137.218 11.7906 137.13C11.9686 137.024 12.1435 136.843 12.4159 136.93L13.9546 139.67C13.7535 140.067 13.6498 140.507 13.652 140.952C13.7845 140.916 13.9137 140.869 14.0382 140.811C14.1399 140.734 14.2672 140.699 14.394 140.713C14.5209 140.727 14.6377 140.788 14.7206 140.885C14.8486 140.998 14.9624 141.125 15.0596 141.265C15.2434 141.564 15.4156 141.877 15.5783 142.171C15.365 142.227 15.1469 142.263 14.9269 142.278C12.6812 142.305 10.4447 141.988 8.29524 141.337C8.35953 141.253 8.47731 141.209 8.57801 141.141L9.07386 141C9.0914 140.771 9.09725 140.557 9.1049 140.357C9.16919 140.273 9.2618 140.247 9.31799 140.205C9.69787 139.914 9.71721 139.905 9.52302 139.478C9.41559 139.238 9.46325 138.875 9.07709 138.81C9.02496 138.419 8.72378 138.322 8.39561 138.228C8.26437 138.165 8.14737 138.075 8.05172 137.965C7.8435 138.045 7.64997 138.159 7.47898 138.302C7.35427 138.475 7.25706 138.666 7.1908 138.869L6.38342 138.785L6.40456 138.377C6.22796 138.326 6.04424 138.304 5.86061 138.312C5.71226 138.332 5.45152 138.435 5.44298 138.526C5.39756 138.854 5.12154 138.946 4.98712 139.122C5.17053 139.262 5.29595 139.431 5.41957 139.586C5.5012 139.681 5.5474 139.802 5.55042 139.928C5.55345 140.054 5.5131 140.177 5.43616 140.277C5.3894 140.338 5.45369 140.46 5.46627 140.554L5.24645 140.398ZM4.67834 137.372L4.51967 136.851C4.25938 136.906 4.00582 137.063 3.74599 136.864C3.7144 136.844 3.67827 136.831 3.64074 136.828C3.60321 136.825 3.56541 136.831 3.53067 136.845C3.1962 137.013 2.97099 136.817 2.75387 136.578C2.60282 136.681 2.48863 136.751 2.42479 136.787C2.31014 137.111 2.71653 137.276 2.47511 137.576C2.31819 137.512 2.15738 137.458 1.99365 137.414C1.9576 137.408 1.92066 137.412 1.88673 137.426C1.85281 137.439 1.82317 137.461 1.80099 137.49C1.7788 137.519 1.76491 137.554 1.76076 137.59C1.75661 137.627 1.76235 137.663 1.77741 137.697C1.89255 137.853 2.01779 138.001 2.15231 138.141L2.89857 137.973C3.18317 138.228 3.39295 138.556 3.50543 138.921C3.52565 139.021 3.7194 139.085 3.84168 139.178C3.92627 139.097 3.98575 138.993 4.01307 138.878C4.0404 138.764 4.03442 138.644 3.99588 138.533C3.98293 138.504 3.97584 138.473 3.97498 138.441C3.97412 138.41 3.97952 138.378 3.99089 138.349C4.00225 138.319 4.01934 138.292 4.04118 138.269C4.06303 138.246 4.08921 138.228 4.11818 138.215C4.20834 138.171 4.28305 138.1 4.3326 138.013C4.38216 137.925 4.40426 137.825 4.39601 137.725C4.3731 137.501 4.59472 137.465 4.68823 137.343C4.71076 137.511 4.75115 137.675 4.8087 137.835C4.93726 138.078 5.05458 138.083 5.41602 137.912C5.29152 137.235 5.29153 137.235 5.98743 137.307C6.05978 137.324 6.13483 137.325 6.20786 137.312C6.28089 137.298 6.35032 137.27 6.41179 137.228C6.47326 137.186 6.52544 137.132 6.56506 137.069C6.60467 137.007 6.63085 136.936 6.64197 136.863C6.7319 136.508 6.58356 136.322 6.21538 136.391C5.8472 136.461 5.41113 136.588 5.02722 136.694C4.87526 136.892 4.79792 137.136 4.68238 137.35L4.67834 137.372ZM6.52649 135.43C6.82409 135.294 7.23318 135.377 7.45482 134.929L7.00126 134.049C7.14207 133.895 7.26917 133.729 7.38114 133.552C7.46296 133.445 7.43151 133.312 7.20854 133.287C7.11779 133.465 6.97389 133.61 6.79683 133.703C6.61976 133.795 6.41832 133.83 6.22042 133.803C6.0751 133.82 5.93212 133.852 5.79424 133.901C5.81177 134.084 5.81041 134.228 5.8185 134.392L5.43189 134.581L5.04709 134.165C5.06281 134.541 4.54627 134.63 4.73102 135.038C4.54984 135.275 4.2046 135.362 4.134 135.708C4.28656 135.722 4.44046 135.714 4.59029 135.681C4.71778 135.6 4.82956 135.497 4.92026 135.377C5.12209 135.809 5.1221 135.809 5.35541 135.964C5.35541 135.964 5.39633 135.91 5.4732 135.92L5.33385 135.596C5.54964 135.43 5.74744 135.266 5.92727 135.105C5.75013 135.527 6.00051 135.706 6.27023 135.876C6.32196 135.919 6.38217 135.951 6.44695 135.969C6.51173 135.988 6.57964 135.992 6.6463 135.983C6.71295 135.973 6.77686 135.95 6.83389 135.914C6.89092 135.878 6.9398 135.831 6.97737 135.775L6.50356 135.413L6.52649 135.43ZM-3.06757 131.726C-3.14939 131.833 -3.15479 131.999 -3.21953 132.131C-3.28427 132.263 -3.42994 132.406 -3.48164 132.585C-3.66192 132.931 -3.47401 133.208 -3.28791 133.471C-3.10181 133.735 -2.85816 133.606 -2.6136 133.588C-2.36905 133.569 -2.31599 133.452 -2.18787 133.332C-2.05974 133.212 -1.88219 133.566 -1.76035 133.295L-2.4553 132.098L-1.83221 131.521C-2.20667 131.234 -2.23724 131.211 -3.09679 131.765L-3.06757 131.726ZM7.72262 126.486C7.35437 126.199 7.10975 125.782 7.0389 125.321C7.03344 125.277 7.01916 125.234 6.9969 125.195C6.97463 125.156 6.94483 125.122 6.90924 125.095C6.87366 125.068 6.83302 125.048 6.78967 125.036C6.74632 125.025 6.70115 125.023 6.6568 125.029C6.56942 125.033 6.48588 125.066 6.41993 125.123C6.35398 125.181 6.30958 125.259 6.29401 125.345C6.25396 125.452 6.24389 125.567 6.26488 125.68C6.28588 125.792 6.33713 125.896 6.41311 125.981C6.53853 126.15 6.69676 126.307 6.84151 126.466C6.5322 127.029 6.38294 127.557 6.9979 128.051C7.17008 127.953 7.34405 127.868 7.50095 127.758C7.5417 127.739 7.5782 127.712 7.60819 127.679C7.63819 127.646 7.66103 127.607 7.67532 127.564C7.68961 127.522 7.69504 127.477 7.69126 127.432C7.68749 127.388 7.67458 127.344 7.65336 127.305C7.46366 127.015 7.69473 126.792 7.71677 126.494L7.72262 126.486ZM-6.39918 108.431C-6.58131 108.396 -6.76557 108.372 -6.95078 108.361C-7.22058 108.397 -7.4649 108.539 -7.63029 108.755C-7.79569 108.972 -7.86867 109.245 -7.83327 109.515C-7.7661 109.691 -7.64244 109.841 -7.48153 109.939C-7.32062 110.038 -7.13152 110.081 -6.94365 110.062C-6.78339 110.046 -6.62972 109.99 -6.49674 109.899C-6.36376 109.808 -6.25573 109.685 -6.18255 109.542C-6.09473 109.351 -6.07136 109.138 -6.11598 108.933C-6.16059 108.729 -6.27076 108.544 -6.42975 108.408L-6.39918 108.431ZM5.49189 128.801L4.63281 128.895C4.46971 129.022 4.31363 129.157 4.16526 129.3C4.0133 129.499 3.91574 129.848 4.04925 129.975C4.233 130.17 4.44722 130.334 4.68354 130.46C4.74961 130.496 4.82315 130.517 4.89845 130.52C4.97376 130.523 5.04879 130.509 5.11775 130.479C5.1867 130.448 5.24773 130.402 5.29608 130.344C5.34443 130.287 5.37881 130.218 5.39654 130.145C5.51524 129.8 5.68202 129.455 5.45277 129.074C5.39927 129.033 5.4757 128.886 5.49189 128.801ZM0.973169 125.793C1.18804 126.067 1.18984 126.08 1.59353 126.122C1.99722 126.165 1.88394 126.345 1.85875 126.568C2.06786 126.57 2.27493 126.526 2.46508 126.439C2.65522 126.352 2.82369 126.224 2.95835 126.064C2.85137 125.776 2.76598 125.445 2.43646 125.495C2.17387 125.507 1.91196 125.46 1.66998 125.357C1.60611 125.344 1.5409 125.339 1.47578 125.342C1.34136 125.518 1.16333 125.624 0.973169 125.793ZM3.01345 131.266C2.75945 131.265 2.52165 131.386 2.39938 131.087C2.37922 131.045 2.3508 131.007 2.31582 130.977C2.28082 130.946 2.23997 130.922 2.19574 130.908C2.1515 130.893 2.10479 130.888 2.05836 130.892C2.01194 130.895 1.96676 130.909 1.92556 130.93C1.78619 131.224 1.43015 131.436 1.48003 131.861C2.10805 131.785 2.10804 131.785 2.6277 132.182C3.07636 131.944 3.07636 131.944 3.01345 131.266ZM1.9816 123.113L2.69904 123.758C3.04971 123.3 2.90768 122.852 2.8025 122.372C2.56245 122.322 2.33903 122.139 2.09447 122.363L2.28642 122.413C2.18616 122.639 2.07827 122.86 1.96632 123.101L1.9816 123.113ZM4.05587 121.477C4.2116 121.456 4.35684 121.387 4.47157 121.279C4.58631 121.172 4.66489 121.031 4.69649 120.877C4.51984 120.427 4.32115 120.069 3.78709 120.182C3.38382 120.709 3.80953 121.071 4.01945 121.462L4.05587 121.477ZM11.3185 139.252C10.904 139.541 10.9845 139.99 10.8464 140.345C10.7084 140.699 11.1269 140.801 11.3585 140.736C11.5052 140.67 11.6463 140.591 11.7801 140.502C11.7791 140.046 11.6106 139.607 11.3068 139.268L11.3185 139.252ZM3.44685 130.192L2.9029 130.128C2.74916 130.107 2.59137 130.107 2.52438 130.274C2.45739 130.441 2.58147 130.548 2.73476 130.617L2.78825 130.658C2.94533 130.691 3.08744 130.774 3.19369 130.895C3.29993 131.015 3.36472 131.167 3.37849 131.327C3.37849 131.327 3.55426 131.461 3.56954 131.473C3.61216 131.453 3.64933 131.424 3.67785 131.386C3.70636 131.349 3.72537 131.305 3.73318 131.259C3.65542 130.933 3.54304 130.605 3.44235 130.262L3.44685 130.192ZM-8.14617 109.639C-8.17449 109.787 -8.21181 109.867 -8.19293 109.906C-8.13567 109.967 -8.0685 110.018 -7.99424 110.058C-7.95333 110.004 -7.90072 109.935 -7.93669 109.872C-8.0121 109.802 -8.09399 109.739 -8.18123 109.685L-8.14617 109.639ZM1.0568 125.288C1.11595 125.287 1.17479 125.279 1.23213 125.265C1.23213 125.265 1.25057 125.146 1.23708 125.147C1.17831 125.131 1.11714 125.125 1.05636 125.13L1.0568 125.288ZM6.45269 137.554L6.3992 137.513L6.40953 137.642C6.40953 137.642 6.40953 137.642 6.45538 137.677C6.46128 137.636 6.46037 137.594 6.45269 137.554Z" fill="#966036"/>
<path d="M8.81913 136.978C8.74766 136.802 8.58179 136.639 8.8241 136.448C9.06641 136.258 8.91402 135.887 8.98057 135.563C9.04711 135.238 9.43867 135.55 9.49532 135.254L10.108 135.165C10.101 134.91 10.0534 134.656 9.96692 134.416L10.4502 134.18C10.7661 134.579 11.0357 135.013 11.2539 135.473C11.0085 135.793 11.0844 136.106 11.2179 136.438C11.1303 136.553 10.9914 136.592 10.8772 136.662C10.7423 136.474 10.6695 136.237 10.3804 136.282C10.0914 136.328 10.0932 136.135 9.99833 135.99C9.90348 135.845 9.7758 135.917 9.65981 135.973C9.69488 135.927 9.67286 135.814 9.6387 135.763C9.60453 135.713 9.51328 135.595 9.44765 135.617C9.40814 135.636 9.37367 135.663 9.3472 135.698C9.32074 135.732 9.30308 135.773 9.2957 135.816C9.28564 136.065 9.28907 136.314 9.306 136.563L8.81913 136.978Z" fill="#966036"/>
<path d="M9.27544 136.539L9.48269 136.601L9.27544 136.539Z" fill="#966036"/>
<path d="M8.23495 140.782L8.02772 140.721C8.24215 140.63 8.24215 140.63 8.23495 140.782Z" fill="#966036"/>
<path d="M2.63251 137.418L2.75568 137.415C2.75568 137.415 2.72646 137.454 2.72061 137.461C2.71477 137.469 2.6397 137.472 2.59924 137.477L2.64016 137.424" fill="#966036"/>
<path d="M8.2505 136.264L8.31567 136.084L8.3921 136.142C8.35119 136.196 8.31028 136.249 8.26937 136.303L8.2505 136.264Z" fill="#966036"/>
<path d="M6.88137 140.873C6.99241 140.728 7.13762 140.633 7.02209 140.436L6.39457 139.435C6.31815 139.377 6.34062 139.236 6.32039 139.136C6.62474 139.102 6.68991 139.334 6.83511 139.445C6.99621 139.53 7.17087 139.585 7.35118 139.61C7.29088 139.762 7.24056 139.917 7.20057 140.076C7.19967 140.233 7.21366 140.389 7.24236 140.544L7.56064 140.46L7.9351 140.747L7.95847 141.128L6.94296 140.872" fill="#966036"/>
<path d="M8.09755 139.648L7.56754 139.533L7.56981 139.086C7.75307 139.113 7.93456 139.151 8.1133 139.199C8.31469 139.269 8.32728 139.363 8.1034 139.64L8.09755 139.648Z" fill="#966036"/>
<path d="M7.5431 140.483C7.48647 140.367 7.43747 140.257 7.55975 140.145C7.68203 140.033 7.91311 139.81 8.09743 139.648C8.25476 139.901 8.13338 140.123 8.04661 140.348L7.5431 140.483Z" fill="#966036"/>
<path d="M44.0214 46.5758C43.3763 46.317 42.8207 45.8755 42.423 45.3055C42.3387 45.1612 42.235 45.0292 42.1147 44.9132C41.6859 44.5195 41.3118 44.0701 41.0024 43.577C40.6422 43.0553 40.2326 42.5695 39.7794 42.1263C39.5685 41.9074 39.3701 41.6768 39.185 41.4357C39.0558 41.2971 38.9234 41.1494 38.776 41.0171C38.26 40.5539 37.7349 40.0939 37.2249 39.6185C36.781 39.283 36.3962 38.8757 36.0866 38.4134C35.9108 38.1962 35.7073 38.003 35.4813 37.8386C35.0869 37.5293 34.7432 37.1602 34.4628 36.7448C34.2833 36.4959 34.0581 36.2834 33.7991 36.1189C33.3727 35.7603 32.9968 35.3456 32.6818 34.8861C32.3634 34.4057 31.9726 33.9808 31.6451 33.5035C31.3176 33.0262 30.9584 32.4275 30.6454 31.874C30.5021 31.603 30.436 31.2979 30.4543 30.9919C30.4725 30.6859 30.5745 30.3907 30.749 30.1387C31.2563 29.1902 31.7514 28.2358 32.2619 27.2964C32.6877 26.4257 33.0356 25.519 33.3015 24.5869C33.4758 24.0892 33.5799 23.5648 33.7298 23.0551C33.8565 22.716 33.9017 22.3517 33.8617 21.9919C33.8416 21.8676 33.8549 21.7401 33.9002 21.6226C33.9455 21.5051 34.0211 21.4017 34.1194 21.3229C34.3418 21.4262 34.5584 21.5418 34.768 21.6691C35.0322 21.8166 35.2842 21.9849 35.5217 22.1723C36.0479 22.6261 36.6447 22.9909 37.2885 23.2523C37.3628 23.2896 37.427 23.3442 37.4757 23.4116C37.7907 23.7092 38.1729 23.9265 38.5898 24.045C39.4305 24.4047 40.2266 24.861 40.9619 25.4045C41.6118 25.8724 42.1686 26.4538 42.8696 26.8633C43.5706 27.2728 44.1618 27.6591 44.7653 28.0514C44.903 28.126 45.1112 28.2577 45.3157 28.0244C45.1445 27.716 44.8814 27.4688 44.5629 27.3172C43.8711 26.9597 43.2284 26.5144 42.6506 25.9924C42.5213 25.8538 42.3498 25.74 42.2205 25.6014C41.4608 24.9091 40.6552 24.269 39.8092 23.6854C39.6726 23.5938 39.5217 23.5255 39.3628 23.4832C39.2273 23.4497 39.0954 23.4032 38.9689 23.3443C38.3595 22.9642 37.6986 22.6121 37.1617 22.1765C36.7715 21.9066 36.4227 21.5812 36.1263 21.2107C35.6238 20.479 35.0289 19.8154 34.3562 19.2363L34.7717 18.5231C35.1468 17.8753 35.605 17.2794 36.1345 16.7503C36.3777 16.4832 36.5787 16.1805 36.7306 15.8527C37.0349 15.0281 37.4753 14.2604 38.0335 13.5815L38.0971 13.5596C38.6929 12.3363 39.5245 11.2658 40.059 10.0128C40.4422 9.11739 40.9295 8.2878 41.3402 7.41336C41.5942 6.88786 41.8042 6.34227 41.9682 5.78213C42.4443 4.18893 43.1086 2.6581 43.9469 1.22207C44.2545 0.668167 44.5709 0.0807178 44.8575 -0.44558C45.1274 -0.970094 45.5702 -1.38529 46.1109 -1.62089C46.5293 -1.76521 46.8915 -2.04282 47.2973 -2.22351C47.7331 -2.40442 48.1796 -2.55844 48.6342 -2.6847C48.9879 -2.75583 49.3305 -2.87401 49.6529 -3.03609C50.0524 -3.23001 50.4738 -3.37536 50.9079 -3.46904C51.4639 -3.63655 51.9761 -3.92442 52.4082 -4.31223C53.0084 -4.81441 53.5227 -5.38872 54.0863 -5.90878C54.4034 -6.20558 54.7892 -6.4191 55.2091 -6.5302C55.629 -6.64131 56.0699 -6.64653 56.4923 -6.54542C56.8185 -6.48493 57.1418 -6.40312 57.474 -6.35486C59.4209 -6.03178 61.3331 -5.52608 63.1853 -4.84449C64.2133 -4.41286 65.2874 -4.10046 66.3866 -3.9134C66.6362 -3.88842 66.8797 -3.82102 67.1067 -3.71404C67.9006 -3.37556 68.7408 -3.15767 69.5991 -3.06764C69.9644 -3.06882 70.3167 -2.93237 70.5858 -2.68546C70.0928 -2.08248 69.6709 -1.42471 69.3285 -0.725146C69.1014 -0.32117 68.8716 0.104151 68.6079 0.490255C68.0749 1.25975 67.641 2.09328 67.3164 2.97119C66.98 3.97264 66.5946 4.95024 66.2247 5.94291C65.7919 6.04087 65.3396 6.00529 64.9275 5.84084C64.113 5.67981 63.3281 5.39452 62.6003 4.99496C62.2172 4.77514 61.8478 4.53207 61.4944 4.26715C61.0506 3.85168 60.5361 3.51908 59.975 3.28507C58.9219 2.94617 57.8715 2.58593 56.8568 2.15231C55.907 1.87585 54.9846 1.51271 54.1012 1.06749C53.9546 0.982896 53.7884 0.938444 53.6191 0.938642C53.5282 0.970015 53.4009 1.01394 53.1826 1.08924C53.4 1.30331 53.6396 1.49359 53.8974 1.65683C55.2304 2.27577 56.4223 3.07568 57.7825 3.68521C58.284 3.92946 58.7972 4.11883 59.3015 4.34176C60.4965 4.85565 61.5206 5.61168 62.7055 6.03744C62.7055 6.03744 62.7974 6.09732 62.8495 6.13024L65.4465 7.75829C65.2467 8.15285 65.0868 8.57438 64.8507 8.9815C64.2323 9.97399 63.7531 11.0467 63.4266 12.1697C63.2764 12.6489 63.1385 13.1341 62.9761 13.6074C62.9263 13.795 62.847 13.9734 62.7413 14.1362C62.1718 14.9636 61.587 15.776 61.0144 16.5943C60.9093 16.6071 60.8027 16.5989 60.7008 16.5702C60.0584 16.2422 59.4556 15.9108 58.8101 15.5737C58.6032 15.4108 58.3434 15.33 58.0806 15.347C58.0665 15.5061 58.0947 15.6662 58.1625 15.8108C58.2303 15.9555 58.3352 16.0796 58.4665 16.1706L60.2107 17.7162C59.9207 18.203 59.6121 18.6656 59.3557 19.1612C58.9233 20.0024 58.5398 20.8674 58.1196 21.7146L55.8693 26.1953C55.1179 27.655 54.4767 29.1689 53.9511 30.7243C53.6703 31.6099 53.2784 32.4564 52.7847 33.2435C51.8911 34.6203 51.1223 36.0742 50.4873 37.5878C50.3527 37.861 50.2031 38.1267 50.0392 38.3835C49.9215 38.3148 49.7989 38.2551 49.6722 38.2048C48.83 37.9787 48.0577 37.5454 47.4259 36.9443C47.2655 36.791 47.0838 36.6617 46.8864 36.5604C46.2693 36.2432 45.6972 35.845 45.1855 35.3764C45.0542 35.2322 44.9046 35.1059 44.7404 35.0007C44.5507 34.8932 44.433 34.9948 44.3747 35.2388C44.6693 35.7229 45.036 36.1592 45.4622 36.5327C45.8584 36.7983 46.1888 37.1507 46.4283 37.5632C46.525 37.7332 46.6781 37.864 46.8612 37.9329C47.1726 38.0615 47.452 38.257 47.6795 38.5055C48.1431 38.9053 48.6067 39.3051 49.0643 39.7172C48.4807 40.3561 47.894 40.9859 47.3226 41.6308C47.2565 41.7045 47.2609 41.8353 47.2346 41.936C47.0452 42.2094 46.8753 42.4958 46.7263 42.7931C46.531 43.2269 46.2613 43.6231 45.9292 43.9637C45.1323 44.7432 44.4796 45.6575 44.001 46.6642" fill="#FDFBF8"/>
<path d="M59.2689 39.7385L56.3113 41.461C54.6694 42.4085 53.0862 43.4543 51.5703 44.5925C50.5821 45.3291 49.4728 45.8874 48.2925 46.2422C47.6022 46.4566 46.927 46.7168 46.2712 47.0209C45.8532 47.1805 45.41 47.2645 44.9625 47.2688C44.8625 47.3033 44.7301 47.1556 44.6169 47.0929L45.785 45.9063C45.8544 45.8236 45.9043 45.7264 45.9311 45.6218C46.0191 45.2976 46.2027 45.0073 46.4579 44.7888C47.065 44.1431 47.606 43.4382 48.0728 42.6848C48.3246 42.1601 48.7103 41.7111 49.191 41.3831C49.2547 41.3612 49.281 41.2605 49.329 41.193L49.869 40.4572C50.0204 40.2903 50.1599 40.113 50.2864 39.9265C50.6893 39.1769 51.0768 38.4122 51.492 37.6686C51.7504 37.119 52.0651 36.5978 52.4311 36.1132C52.9627 35.508 53.3848 34.8148 53.6785 34.0647C53.7403 33.875 53.8564 33.7075 54.0125 33.5831C54.1686 33.4587 54.3578 33.3829 54.5565 33.3649C54.4759 33.2373 54.4296 33.091 54.4221 32.9402C54.4147 32.7894 54.4464 32.6393 54.5141 32.5043C54.6897 32.1283 54.8163 31.7284 54.9643 31.3313C55.1738 30.912 55.3355 30.4704 55.4465 30.015C55.5515 29.5884 55.698 29.1732 55.8839 28.7752C55.9902 28.4637 56.2709 28.5399 56.4007 28.4442C56.4143 28.0679 56.4624 27.6937 56.5442 27.3261C56.6351 26.9997 56.7317 26.6305 57.0804 26.5204C57.052 26.3191 57.0571 26.1144 57.0954 25.9148C57.3177 25.3496 57.5767 24.8023 57.8206 24.2703L58.4491 24.1451C57.9582 23.7547 58.104 23.4398 58.3925 23.0961C58.5399 22.863 58.6549 22.6111 58.7346 22.3471C58.9186 21.907 59.0936 21.4701 59.2927 21.0147C59.3236 20.8577 59.4005 20.7133 59.5137 20.6C59.6268 20.4867 59.771 20.4095 59.928 20.3783C60.2009 20.2513 60.4469 20.0731 60.6527 19.8535C60.7308 19.7935 60.7912 19.7137 60.8277 19.6223C60.8642 19.5309 60.8755 19.4314 60.8603 19.3341C60.8164 19.2068 60.7693 19.0704 60.7891 18.9211C60.7543 18.7603 60.7529 18.5941 60.785 18.4328C60.817 18.2715 60.8818 18.1184 60.9754 17.9831C61.0689 17.8478 61.1892 17.7332 61.3289 17.6462C61.4685 17.5593 61.6245 17.5019 61.7872 17.4777C61.9782 17.4118 62.05 17.2954 61.9596 17.0925C61.8693 16.8896 61.8906 16.8924 61.8592 16.8015C61.8278 16.7105 62.0122 16.5961 62.0875 16.5192C62.7492 15.7708 63.2877 14.9221 63.6829 14.0047C63.9535 13.4025 64.0284 12.705 64.5436 12.2219C64.5982 12.2031 64.5693 12.0604 64.5715 11.9782C64.6523 11.0917 64.9622 10.2413 65.4707 9.5105C66.051 8.63709 66.5652 7.72152 67.009 6.77144C67.0805 6.62465 67.2404 6.49823 67.2602 6.34894C67.4057 5.52744 67.6486 4.72622 67.9837 3.96218C68.0331 3.74692 68.1302 3.54551 68.268 3.3729C68.4058 3.2003 68.5806 3.0609 68.7796 2.96505C68.7796 2.96505 68.809 2.87347 68.8147 2.83082L68.5509 2.62667C68.7114 2.26599 68.7528 1.85482 69.1523 1.65593C69.2251 1.63083 69.263 1.47528 69.2712 1.38088C69.4832 0.57689 69.8725 -0.169445 70.4106 -0.803353C70.4106 -0.803353 70.5107 -0.837865 70.5561 -0.853552C71.0291 -0.721573 71.0342 -0.234823 71.2754 0.13993C71.3646 0.0522798 71.4479 -0.0410746 71.525 -0.139539C71.6416 -0.332432 71.7247 -0.53409 71.8568 -0.711932C72.2983 -1.26114 72.3105 -1.25519 72.2979 -1.88181L74.0344 -1.95165C74.2869 -1.95733 74.5306 -1.92944 74.7802 -1.91379C74.8191 -1.84299 74.8456 -1.7661 74.8587 -1.68642C74.9905 -0.714192 75.1568 0.358069 75.2739 1.37608C75.3911 2.3941 75.43 3.21515 75.5612 4.12653C75.6322 4.64943 75.6612 5.17719 75.6477 5.7047C75.6387 8.16716 75.3145 10.6183 74.6832 12.9985C74.4164 13.9657 74.0672 14.9004 73.7668 15.8589C73.5602 16.4067 73.3862 16.9663 73.2458 17.5346C73.032 18.6261 72.6865 19.6306 72.3749 20.6744C71.5661 23.3696 70.6074 26.0175 69.5034 28.6057C69.272 29.1741 69.0284 29.7364 68.7603 30.2869C68.2837 31.3598 67.6341 32.3472 66.8375 33.2095C65.9074 34.1715 65.0387 35.1937 64.1272 36.1798C63.8816 36.4187 63.6162 36.6363 63.3338 36.8301C63.0979 36.6774 63.44 36.2235 62.9282 36.1558C62.6155 36.5367 62.1767 36.7928 61.6913 36.8776C61.5014 37.625 61.5013 37.625 61.152 37.9694C61.2383 38.072 61.3305 38.1623 61.4258 38.2617L60.6136 38.8574C60.5659 38.8083 60.5379 38.7433 60.5349 38.6749C60.5319 38.6065 60.5543 38.5394 60.5976 38.4863C60.6373 38.4398 60.6667 38.3855 60.6838 38.3268C60.701 38.2681 60.7055 38.2064 60.6971 38.1459C60.6887 38.0853 60.6676 38.0272 60.6351 37.9754C60.6027 37.9236 60.5596 37.8793 60.5087 37.8453C60.6586 37.6308 60.9462 37.4909 60.9518 37.1531C60.7642 36.9634 60.5826 36.7614 60.4042 36.5686C60.4637 36.4462 60.481 36.3487 60.5384 36.3085C60.9733 36.0058 60.8854 35.4561 61.1341 35.0853C61.1758 34.9997 61.0463 34.8307 61.0086 34.7215C60.9166 34.617 60.7948 34.5431 60.6596 34.5097C60.5244 34.4763 60.3822 34.485 60.2521 34.5347C60.1199 34.5828 60.0085 34.6753 59.937 34.7965C59.8656 34.9177 59.8385 35.0601 59.8605 35.199C59.884 35.4148 59.9562 35.624 60.0011 35.8426C60.0627 36.0256 60.0945 36.2174 60.0952 36.4105C60.0503 36.6142 59.9819 36.8119 59.8914 36.9999C60.0138 37.0558 60.1208 37.1404 60.2034 37.2466C60.2861 37.3527 60.342 37.4772 60.3663 37.6095C60.413 37.7084 60.4723 37.8008 60.5426 37.8845C60.2733 38.3133 59.9132 38.2136 59.5673 38.0072C59.4309 38.3494 59.2848 38.6339 59.1876 38.9422C59.1295 39.069 59.1128 39.2109 59.1399 39.3476C59.167 39.4844 59.2365 39.6092 59.3385 39.7043L59.2689 39.7385ZM63.8848 33.648C63.7428 33.6724 63.6124 33.7417 63.5127 33.8457C63.413 33.9497 63.3493 34.0828 63.3309 34.2257L62.4569 34.4356C62.5965 34.9879 62.1735 35.2662 61.9703 35.6212C62.0252 35.9279 62.2269 36.011 62.4119 35.9574C62.927 35.8647 63.4575 35.9139 63.9468 36.0996C64.3231 35.7153 64.903 35.5967 65.0459 35.008C64.9974 34.9379 64.9438 34.8713 64.8857 34.8089C64.8457 34.7744 64.8014 34.7452 64.7539 34.722C64.1782 35.2361 64.16 35.2424 63.458 34.7416C63.6177 34.6425 63.7701 34.5321 63.914 34.4113C63.9718 34.3692 64.0185 34.3138 64.0501 34.2498C64.0818 34.1857 64.0975 34.1149 64.0958 34.0435C64.0942 33.972 64.0753 33.902 64.0407 33.8395C64.0061 33.777 63.9569 33.7237 63.8973 33.6843C63.9417 33.5694 63.9721 33.4496 63.9879 33.3274C63.9885 33.0932 63.9646 32.8469 63.9561 32.6158C64.0198 32.5938 64.1568 32.6076 64.1785 32.6409C64.2313 32.765 64.2753 32.8926 64.3103 33.0229C64.3263 33.0911 64.3597 33.1539 64.4074 33.2053C64.455 33.2566 64.5152 33.2947 64.582 33.3158C64.6488 33.3369 64.7199 33.3403 64.7884 33.3256C64.8569 33.3109 64.9204 33.2786 64.9727 33.232C65.1 33.188 65.1774 33.029 65.28 32.9428C65.3279 32.9157 65.3802 32.8977 65.4346 32.8894C65.6328 32.933 65.848 33.1437 66.0298 32.7858C65.9771 32.397 65.6932 32.0166 65.8221 31.5345C65.9509 31.0525 65.8135 31.0083 65.3713 30.9064C65.1811 30.8668 64.987 30.8484 64.7927 30.8516C64.681 30.8459 64.5694 30.8647 64.4657 30.9065C64.362 30.9484 64.2687 31.0123 64.1922 31.0939C64.1158 31.1755 64.058 31.2728 64.0229 31.379C63.9879 31.4852 63.9764 31.5977 63.9893 31.7088C63.983 31.9857 64.0834 32.2768 63.8576 32.5073C63.6092 32.3182 63.4138 31.9582 62.9848 32.2487C62.9601 32.7966 62.9711 33.2711 63.658 33.4921C63.7586 33.5185 63.8358 33.6241 63.9186 33.6872L63.8848 33.648ZM57.4087 38.7417C57.2789 38.7366 57.1493 38.7578 57.028 38.8041C56.9066 38.8503 56.7958 38.9207 56.7024 39.011C56.6089 39.1012 56.5347 39.2095 56.4842 39.3292C56.4337 39.4489 56.408 39.5776 56.4086 39.7075C55.7174 39.9459 55.6719 39.9616 55.7937 40.5506C56.1434 40.5317 56.4316 40.4527 56.5216 40.0349C56.5059 39.9894 56.6332 39.9455 56.6934 39.884L56.9804 40.2735C57.229 40.3151 57.4841 40.2939 57.7224 40.2117C57.9607 40.1295 58.1746 39.9889 58.3447 39.8029L57.9005 39.2234C58.1761 38.8128 58.4795 39.3086 58.7303 39.1508C58.7767 38.9313 58.4581 38.7156 58.824 38.5079C58.9877 38.4514 58.8748 38.124 58.6578 38.0259C58.4241 37.8805 58.1748 37.7616 57.9147 37.6716C57.7794 37.6709 57.648 37.7163 57.5419 37.8002C57.2063 38.0075 57.2066 38.3331 57.3754 38.7633L57.4087 38.7417ZM72.0191 14.2737C71.475 14.6141 70.9779 14.2055 70.5445 14.3652C70.3268 14.2062 69.9944 14.4226 69.8084 14.0899C69.7788 14.0518 69.7405 14.0215 69.6966 14.0014C69.6528 13.9814 69.6048 13.9723 69.5567 13.9749C69.5085 13.9775 69.4618 13.9917 69.4203 14.0163C69.3789 14.0409 69.3441 14.0752 69.3188 14.1163C69.3025 14.1599 69.2954 14.2064 69.298 14.2528C69.3006 14.2993 69.3127 14.3447 69.3338 14.3862C69.3548 14.4277 69.3842 14.4645 69.4201 14.4941C69.456 14.5236 69.4977 14.5455 69.5425 14.5582C69.7504 14.6594 69.9489 14.7334 69.9791 14.9978L69.5839 15.3275C70.0736 15.8913 70.5174 16.4404 71.3802 16.0207L72.0191 14.2737ZM53.0606 41.9208C53.3115 41.763 53.5473 41.6206 53.7678 41.4632C53.8489 41.4069 53.9099 41.3262 53.9418 41.2328C53.9737 41.1394 53.9748 41.0382 53.9449 40.9441C53.8647 40.7705 53.7394 40.6216 53.582 40.513C53.4246 40.4044 53.2409 40.34 53.0501 40.3267C52.8026 40.3085 52.5564 40.3755 52.3523 40.5165C52.1497 40.6442 51.9307 40.7438 51.7012 40.8123C52.162 41.2335 52.333 41.8767 53.097 41.9083L53.0606 41.9208ZM67.9189 28.3789C67.1186 28.655 67.0822 28.6675 67.273 29.4566L68.3792 29.9197C68.8106 29.2823 68.6974 28.9245 67.9553 28.3663L67.9189 28.3789ZM62.4574 33.316C62.1312 33.2555 61.9311 33.3245 61.8791 33.5867C61.8374 33.6982 61.8305 33.8197 61.8594 33.9351C61.8883 34.0506 61.9517 34.1545 62.041 34.2331L62.6152 34.1571C62.7698 33.8087 62.5606 33.5857 62.4574 33.316ZM67.3495 29.7965C67.0469 29.9518 66.8845 30.13 66.9635 30.4182C66.9881 30.5269 67.0477 30.6245 67.1331 30.6961C67.2184 30.7678 67.3249 30.8095 67.4362 30.8149C67.4849 30.8273 67.5358 30.8279 67.5848 30.8168C67.6338 30.8057 67.6795 30.7832 67.718 30.751C67.7566 30.7188 67.787 30.6779 67.8067 30.6317C67.8264 30.5855 67.8348 30.5353 67.8313 30.4852L67.3495 29.7965ZM63.553 15.8406L63.5652 15.5515C63.4722 15.5644 63.3826 15.5953 63.3014 15.6425C63.3014 15.6425 63.2754 15.7736 63.2701 15.8466L63.5655 15.877L63.553 15.8406ZM59.5192 34.5636C59.3787 34.5103 59.2717 34.4658 59.1588 34.4335C59.0459 34.4012 59.0898 34.5286 59.0992 34.5559C59.1714 34.765 59.3141 34.7362 59.5192 34.5636ZM53.782 34.3649L53.7381 34.5327C53.8007 34.5496 53.8652 34.5581 53.9301 34.558C53.9301 34.558 53.9805 34.4389 53.9683 34.4329C53.9099 34.4012 53.8471 34.3782 53.782 34.3649Z" fill="#966036"/>
<path d="M74.7173 -1.83092C74.4677 -1.84657 74.2149 -1.87132 73.9715 -1.86878L72.235 -1.79894C72.2413 -1.1905 72.2291 -1.19646 71.7939 -0.629062C71.6619 -0.45122 71.5788 -0.249566 71.4621 -0.0566691C71.3851 0.0417953 71.3017 0.13515 71.2125 0.2228C70.9713 -0.151953 70.9662 -0.638698 70.4932 -0.770677C70.4932 -0.770677 70.375 -0.729895 70.3477 -0.720483C69.8069 -0.0884413 69.4172 0.658558 69.2083 1.46375C69.2365 1.54561 69.1591 1.70464 69.0894 1.73883C68.6899 1.93772 68.6486 2.34888 68.488 2.70957L68.7518 2.91369C68.7518 2.91369 68.744 3.03851 68.7167 3.04792C68.5177 3.14377 68.3429 3.28317 68.2051 3.45577C68.0674 3.62838 67.9702 3.82979 67.9208 4.04505C67.5857 4.80909 67.3428 5.61031 67.1973 6.43181C67.1775 6.5811 67.0176 6.70752 66.9461 6.85431C66.5023 7.80439 65.9881 8.71996 65.4078 9.59337C64.8993 10.3241 64.5895 11.1745 64.5086 12.0611C64.5337 12.1339 64.5259 12.2587 64.4807 12.3048C63.9655 12.7878 63.885 13.528 63.62 14.0876C63.2236 15.0023 62.684 15.848 62.0215 16.593L61.7963 16.8844C61.8277 16.9753 61.8622 17.0753 61.8967 17.1754C61.9312 17.2754 61.9153 17.4947 61.7243 17.5606C61.5616 17.5848 61.4056 17.6422 61.266 17.7291C61.1264 17.8161 61.006 17.9307 60.9125 18.066C60.8189 18.2013 60.7541 18.3543 60.7221 18.5157C60.69 18.677 60.6914 18.8432 60.7262 19.004C60.7701 19.1313 60.8172 19.2677 60.7974 19.417C60.8126 19.5143 60.8013 19.6138 60.7648 19.7051C60.7283 19.7965 60.6679 19.8764 60.5899 19.9364C60.3818 20.1583 60.1325 20.3376 59.856 20.4643C59.7006 20.4957 59.558 20.5727 59.4464 20.6855C59.3349 20.7983 59.2595 20.9418 59.2298 21.0976C59.0671 21.5405 58.8921 21.9774 58.6717 22.43C58.5921 22.6939 58.477 22.9459 58.3296 23.1789C58.0411 23.5227 57.8922 23.8285 58.3862 24.228L57.7577 24.3532C57.5138 24.8851 57.2548 25.4325 57.0294 25.9885C56.9939 26.1916 56.9899 26.399 57.0175 26.6033C56.6719 26.7225 56.5722 27.0825 56.4813 27.409C56.3995 27.7766 56.3515 28.1508 56.3378 28.5271C56.208 28.6228 55.9273 28.5466 55.821 28.8581C55.6351 29.2561 55.4886 29.6713 55.3836 30.0979C55.2727 30.5533 55.1109 30.9949 54.9014 31.4142C54.7503 31.8022 54.6237 32.2021 54.4512 32.5872C54.3835 32.7221 54.3518 32.8723 54.3592 33.0231C54.3667 33.1739 54.413 33.3202 54.4937 33.4478C54.2949 33.4657 54.1057 33.5416 53.9496 33.666C53.7936 33.7904 53.6774 33.9578 53.6156 34.1476C53.3219 34.8977 52.8998 35.5908 52.3682 36.196C52.0023 36.6806 51.6875 37.2019 51.4291 37.7514C51.014 38.4951 50.6264 39.2598 50.2235 40.0094C50.097 40.1958 49.9575 40.3732 49.8061 40.5401L49.2661 41.2759C49.2025 41.2979 49.1887 41.4349 49.1282 41.466C48.6813 41.7791 48.3188 42.1978 48.073 42.6849C47.6086 43.4293 47.0716 44.1258 46.47 44.7644C46.2147 44.9829 46.0312 45.2732 45.9432 45.5975C45.9164 45.702 45.8664 45.7992 45.797 45.8819L44.6198 47.0717C44.3903 46.9371 44.0584 46.9193 44.0424 46.5483C44.5209 45.5415 45.1737 44.6272 45.9705 43.8477C46.3026 43.5071 46.5724 43.1109 46.7676 42.6772C46.9167 42.3798 47.0866 42.0934 47.2759 41.82L48.9361 39.965C49.0078 39.8514 49.0648 39.7291 49.1057 39.6012C49.5297 39.2324 49.8614 38.7694 50.0743 38.2493C50.2382 37.9925 50.3877 37.7269 50.5224 37.4536C51.1594 35.9387 51.927 34.482 52.8167 33.1002C53.3179 32.3201 53.7113 31.4757 53.9862 30.5901C54.5182 29.0348 55.1623 27.5201 55.9135 26.058L58.1033 21.6083C58.5235 20.7612 58.9069 19.8961 59.3393 19.055C59.5958 18.5594 59.9044 18.0968 60.1944 17.61C60.5562 17.3131 60.8334 16.9261 60.9981 16.488C61.5707 15.6697 62.1555 14.8574 62.7249 14.0299C62.8277 13.8656 62.9068 13.6876 62.9598 13.5011C63.1222 13.0279 63.2601 12.5427 63.4103 12.0634C63.7336 10.9393 64.2129 9.86615 64.8344 8.87525C65.0708 8.49855 65.2307 8.07702 65.4301 7.65203C65.8294 7.11035 66.1045 6.48732 66.2356 5.82727C66.6056 4.8346 66.9878 3.8479 67.3273 2.85555C67.652 1.97764 68.0859 1.14411 68.6188 0.374614C68.8826 -0.0114935 69.1124 -0.436806 69.3394 -0.840782C69.684 -1.54128 70.1046 -2.20173 70.5937 -2.8102C71.7241 -2.93592 72.868 -2.85086 73.9674 -2.55938C74.3516 -2.47819 74.7301 -2.35436 74.7358 -1.80677" fill="#844A2A"/>
<path d="M34.3718 19.2816C35.0445 19.8606 35.6394 20.5243 36.1418 21.2559C36.4383 21.6264 36.7871 21.9518 37.1772 22.2218C37.7597 22.6417 38.3751 23.0095 38.9845 23.3895C39.111 23.4484 39.2429 23.495 39.3784 23.5284C39.5373 23.5708 39.6881 23.6391 39.8247 23.7306C40.6708 24.3142 41.4764 24.9544 42.2361 25.6466C42.3653 25.7852 42.5369 25.899 42.6661 26.0376C43.244 26.5597 43.8867 27.005 44.5785 27.3625C44.8969 27.5141 45.1601 27.7613 45.3313 28.0696C45.1268 28.303 44.9311 28.2076 44.7809 28.0966C44.141 27.7169 43.4886 27.3008 42.8852 26.9085C42.2817 26.5163 41.6274 25.9177 40.9775 25.4498C40.2421 24.9063 39.4461 24.45 38.6054 24.0902C38.1885 23.9718 37.8063 23.7545 37.4913 23.4568C37.4425 23.3895 37.3783 23.3348 37.3041 23.2975C36.6603 23.0362 36.0635 22.6714 35.5373 22.2176C35.2998 22.0301 35.0478 21.8618 34.7836 21.7143C34.574 21.587 34.3574 21.4714 34.135 21.3681C34.1004 21.2681 33.981 21.1872 33.9678 21.09C33.9028 20.7845 33.9058 20.4684 33.9768 20.1643C34.0478 19.8601 34.1849 19.5753 34.3784 19.3302" fill="#F3EDDD"/>
<path d="M66.2452 5.88469C66.1141 6.54475 65.8391 7.16777 65.4397 7.70946L62.8427 6.08144C62.827 6.03597 62.7536 6.00021 62.6988 5.98861C61.5257 5.53839 60.4502 4.81027 59.2948 4.29293C58.7904 4.07 58.2773 3.88065 57.7758 3.6364C56.4519 3.01432 55.251 2.21752 53.8907 1.608C53.6329 1.44476 53.3933 1.2545 53.1759 1.04043C53.3941 0.965133 53.4995 0.857549 53.6124 0.889838C53.7816 0.889643 53.9479 0.934095 54.0945 1.01869C54.9779 1.46391 55.9003 1.82704 56.8501 2.1035C57.8648 2.53712 58.9151 2.89734 59.9683 3.23624C60.5293 3.47025 61.0439 3.80287 61.4876 4.21835C61.8411 4.48326 62.2104 4.72631 62.5936 4.94614C63.3214 5.34569 64.1063 5.63098 64.9208 5.79201C65.3329 5.95646 65.7852 5.99206 66.218 5.89411" fill="#F3EDDD"/>
<path d="M50.0501 38.2676C49.8372 38.7877 49.5055 39.2507 49.0815 39.6195C48.6238 39.2074 48.1603 38.8076 47.6967 38.4078C47.4692 38.1593 47.1898 37.9638 46.8783 37.8352C46.6953 37.7663 46.5422 37.6355 46.4455 37.4655C46.206 37.053 45.8756 36.7006 45.4794 36.435C45.0544 36.0604 44.6878 35.6243 44.3919 35.1411C44.4502 34.8971 44.5678 34.7955 44.7576 34.9031C44.9218 35.0082 45.0714 35.1345 45.2027 35.2787C45.7268 35.7491 46.3123 36.1462 46.9431 36.4593C47.1405 36.5606 47.3222 36.6898 47.4826 36.8431C48.1144 37.4442 48.8867 37.8776 49.7289 38.1036C49.8555 38.154 49.9782 38.2137 50.0959 38.2824" fill="#F3EDDD"/>
<path d="M60.998 16.4875C60.8313 16.9262 60.5558 17.3154 60.1974 17.6185L58.4532 16.0729C58.3228 15.9789 58.2181 15.8537 58.1485 15.7088C58.079 15.5639 58.0469 15.4039 58.0551 15.2434C58.3183 15.2214 58.5804 15.2978 58.7906 15.4578C59.4119 15.8134 60.0452 16.1445 60.6844 16.4634C60.7863 16.4921 60.8929 16.5003 60.998 16.4875Z" fill="#F3EDDD"/>
<path d="M49.0541 39.629C49.0132 39.757 48.9562 39.8793 48.8845 39.9929L47.2244 41.8479C47.2507 41.7472 47.2463 41.6164 47.3125 41.5427C47.8838 40.8978 48.4706 40.268 49.0541 39.629Z" fill="#E4DBC6"/>
<path d="M57.2961 38.7397C57.1455 38.3032 57.127 37.9839 57.4625 37.7765C57.5686 37.6926 57.7001 37.6473 57.8354 37.6479C58.0955 37.738 58.3447 37.8568 58.5784 38.0022C58.7591 38.1129 58.8595 38.4039 58.7447 38.4842C58.3787 38.6919 58.6974 38.9076 58.651 39.1272C58.4001 39.285 58.0968 38.7892 57.8212 39.1998L58.2653 39.7793C58.0953 39.9653 57.8813 40.1058 57.6431 40.188C57.4048 40.2702 57.1497 40.2915 56.9011 40.2499L56.6141 39.8604C56.5414 39.8855 56.4413 39.92 56.4423 40.0113C56.3523 40.429 56.0641 40.5081 55.7144 40.5269C55.5989 39.9562 55.635 39.9132 56.3293 39.6839C56.3287 39.5539 56.3544 39.4253 56.4049 39.3056C56.4554 39.1858 56.5296 39.0776 56.6231 38.9874C56.7165 38.8971 56.8272 38.8267 56.9486 38.7804C57.07 38.7342 57.1995 38.7129 57.3293 38.7181" fill="#844A2A"/>
<path d="M63.745 32.5053C63.9708 32.2747 63.8704 31.9837 63.8766 31.7068C63.8637 31.5957 63.8752 31.4831 63.9103 31.3769C63.9453 31.2707 64.0031 31.1735 64.0796 31.0919C64.156 31.0103 64.2494 30.9463 64.3531 30.9045C64.4568 30.8626 64.5683 30.8439 64.68 30.8495C64.8743 30.8463 65.0684 30.8647 65.2587 30.9043C65.7009 31.0062 65.8144 31.0993 65.7094 31.5325C65.6044 31.9656 65.8644 32.3949 65.9172 32.7838C65.7353 33.1417 65.517 32.9219 65.3219 32.8874C65.2676 32.8956 65.2152 32.9137 65.1673 32.9407C65.0491 32.9815 64.9748 33.1496 64.86 33.2299C64.8077 33.2766 64.7442 33.3088 64.6757 33.3235C64.6073 33.3382 64.5361 33.3348 64.4693 33.3138C64.4025 33.2927 64.3424 33.2546 64.2947 33.2032C64.2471 33.1519 64.2136 33.089 64.1976 33.0208C64.1626 32.8906 64.1186 32.7629 64.0658 32.6388C64.0658 32.6388 63.9165 32.6191 63.8435 32.6138L63.7236 32.5024" fill="#844A2A"/>
<path d="M63.8061 33.6852C63.8657 33.7246 63.9149 33.7778 63.9495 33.8404C63.9841 33.9029 64.003 33.9729 64.0047 34.0443C64.0063 34.1158 63.9906 34.1865 63.9589 34.2506C63.9273 34.3147 63.8806 34.3701 63.8228 34.4122C63.6789 34.533 63.5265 34.6434 63.3668 34.7425C64.0688 35.2433 64.087 35.237 64.6627 34.7229C64.7102 34.7461 64.7545 34.7752 64.7945 34.8097C64.8526 34.8722 64.9062 34.9387 64.9548 35.0089C64.8118 35.5976 64.2319 35.7162 63.8556 36.1004C63.3664 35.9147 62.8358 35.8656 62.3207 35.9582C62.1388 36.021 61.934 35.9288 61.8791 35.6221C62.0948 35.3034 62.5179 35.0251 62.3657 34.4365L63.2398 34.2266C63.2581 34.0837 63.3218 33.9505 63.4215 33.8465C63.5212 33.7425 63.6516 33.6732 63.7936 33.6488L63.8061 33.6852Z" fill="#844A2A"/>
<path d="M71.9398 14.2503L71.31 15.9941C70.4382 16.417 69.9943 15.8679 69.5047 15.3041L69.8998 14.9744C69.8728 14.7191 69.6711 14.636 69.4632 14.5348C69.4184 14.5221 69.3768 14.5003 69.3408 14.4707C69.3049 14.4411 69.2755 14.4044 69.2545 14.3628C69.2335 14.3213 69.2213 14.2759 69.2187 14.2294C69.2161 14.183 69.2232 14.1365 69.2395 14.0929C69.2648 14.0518 69.2996 14.0176 69.3411 13.9929C69.3825 13.9683 69.4293 13.9541 69.4774 13.9515C69.5255 13.9489 69.5735 13.958 69.6174 13.978C69.6612 13.998 69.6995 14.0284 69.7291 14.0665C69.9151 14.3992 70.2475 14.1828 70.4652 14.3417C70.9472 14.1755 71.3957 14.5907 71.9398 14.2503Z" fill="#844A2A"/>
<path d="M62.3353 33.2867C62.4294 33.5596 62.6478 33.7794 62.4932 34.1279L61.9189 34.2038C61.8296 34.1252 61.7663 34.0213 61.7373 33.9058C61.7084 33.7904 61.7153 33.6689 61.757 33.5575C61.8091 33.2953 62.0091 33.2262 62.3353 33.2867Z" fill="#844A2A"/>
<path d="M53.7911 34.3617C53.8563 34.375 53.9191 34.398 53.9775 34.4297C53.9775 34.4297 53.9605 34.5577 53.9392 34.5548C53.8744 34.5549 53.8098 34.5464 53.7473 34.5295L53.7911 34.3617Z" fill="#844A2A"/>
<path d="M61.4357 38.3192L61.1528 38.03C61.5112 37.6825 61.5112 37.6825 61.7012 36.9351C62.1884 36.8553 62.6289 36.5983 62.938 36.2133C63.4499 36.281 63.1169 36.7317 63.3436 36.8876C62.7715 37.4444 62.1302 37.9255 61.4357 38.3192Z" fill="#844A2A"/>
<path d="M59.2691 39.7385C59.1671 39.6434 59.0976 39.5187 59.0705 39.3819C59.0434 39.2451 59.0601 39.1032 59.1181 38.9764C59.2153 38.6681 59.3614 38.3836 59.4978 38.0415C59.862 38.2415 60.222 38.3412 60.4732 37.9187C60.524 37.9527 60.5671 37.997 60.5996 38.0488C60.632 38.1006 60.6532 38.1587 60.6615 38.2193C60.6699 38.2798 60.6654 38.3415 60.6483 38.4002C60.6311 38.4589 60.6017 38.5133 60.562 38.5598C60.5187 38.6128 60.4964 38.6799 60.4994 38.7483C60.5023 38.8168 60.5303 38.8817 60.5781 38.9308C60.206 39.3029 59.7513 39.5818 59.2509 39.7448" fill="#844A2A"/>
<path d="M60.482 37.9151C60.4117 37.8314 60.3524 37.739 60.3057 37.6401C60.2814 37.5078 60.2255 37.3833 60.1428 37.2772C60.0602 37.1711 59.9531 37.0865 59.8308 37.0305C59.9213 36.8426 59.9896 36.6448 60.0346 36.4412C60.0339 36.248 60.0021 36.0562 59.9405 35.8732C59.8683 35.664 59.7961 35.4548 59.7999 35.2296C59.7779 35.0907 59.805 34.9484 59.8764 34.8272C59.9479 34.706 60.0593 34.6134 60.1915 34.5653C60.3216 34.5157 60.4638 34.5069 60.599 34.5403C60.7342 34.5737 60.856 34.6476 60.948 34.7522C60.9856 34.8613 61.1061 35.0335 61.0735 35.116C60.8678 35.5228 60.9557 36.0725 60.4778 36.3392C60.4141 36.3611 60.4031 36.4769 60.3435 36.5992C60.522 36.792 60.7037 36.994 60.8912 37.1837C60.8856 37.5215 60.598 37.6614 60.4481 37.876L60.482 37.9151Z" fill="#844A2A"/>
<path d="M67.8398 28.3555C68.5819 28.9137 68.6951 29.2715 68.2637 29.9089L67.1574 29.4458C67.0062 28.6533 67.0331 28.6134 67.8034 28.3681" fill="#844A2A"/>
<path d="M63.7453 32.5058L63.8651 32.6171C63.8736 32.8483 63.8974 33.0945 63.8968 33.3288C63.8821 33.4538 63.8528 33.5766 63.8094 33.6948C63.7234 33.6226 63.6463 33.5169 63.5456 33.4906C62.8713 33.306 62.8477 32.7951 62.8724 32.2472C63.3014 31.9567 63.4968 32.3167 63.7453 32.5058Z" fill="#844A2A"/>
<path d="M67.191 29.7796L67.6728 30.4683C67.6763 30.5184 67.6678 30.5686 67.6481 30.6148C67.6284 30.661 67.5981 30.7019 67.5595 30.734C67.5209 30.7662 67.4753 30.7888 67.4263 30.7999C67.3773 30.811 67.3263 30.8103 67.2777 30.7979C67.1664 30.7925 67.0599 30.7508 66.9745 30.6792C66.8892 30.6076 66.8296 30.5099 66.805 30.4012C66.7078 30.1193 66.8884 29.9349 67.191 29.7796Z" fill="#844A2A"/>
<path d="M63.3708 15.8729L63.0753 15.8425C63.0534 15.7788 63.0703 15.6509 63.1067 15.6383C63.1878 15.5911 63.2774 15.5602 63.3704 15.5473L63.3582 15.8365" fill="#844A2A"/>
<path d="M59.5192 34.5636C59.3172 34.7452 59.1805 34.7619 59.0992 34.5558C59.0992 34.5558 59.1557 34.4244 59.1588 34.4335C59.162 34.4426 59.3787 34.5103 59.5192 34.5636Z" fill="#844A2A"/>
<path d="M53.0176 41.8844C52.29 41.8403 52.1127 41.1789 51.6218 40.7885C51.8513 40.7199 52.0703 40.6204 52.2729 40.4926C52.477 40.3516 52.7232 40.2846 52.9707 40.3028C53.1614 40.3162 53.3451 40.3805 53.5025 40.4891C53.6599 40.5977 53.7853 40.7466 53.8655 40.9202C53.8969 41.0142 53.8966 41.1159 53.8646 41.2097C53.8326 41.3035 53.7707 41.3841 53.6884 41.4393C53.4679 41.5968 53.2321 41.7392 52.9812 41.897" fill="#844A2A"/>
<path d="M59.794 197.954C59.3871 197.279 58.9802 196.603 58.5683 195.919C57.9878 194.954 57.3577 194.02 56.731 193.072C56.3928 192.585 56.1113 192.061 55.8921 191.511C54.9936 189.315 54.3105 187.037 53.8523 184.71C53.2908 182.06 52.8988 179.378 52.6786 176.679C52.6007 175.356 52.5789 174.033 52.4663 172.708C52.3538 171.384 52.2249 170.181 52.0234 168.932C51.6953 166.951 51.5818 164.953 51.4335 162.954C51.3204 161.236 51.4052 159.512 51.3828 157.796C51.375 156.981 51.3622 156.158 51.3758 155.341C51.3894 154.524 51.4456 153.48 51.4936 152.553L51.6534 149.087L52.2955 144.894C52.8104 143.248 53.2309 141.574 53.555 139.88C53.9437 137.242 54.4776 134.641 55.0809 132.043C55.5294 129.913 56.1872 127.831 57.0448 125.83C57.2043 125.498 57.3457 125.155 57.5613 124.823C58.4409 123.279 59.2237 121.683 59.9052 120.043C60.5201 118.615 61.2336 117.233 62.0406 115.905C62.164 115.718 62.2776 115.515 62.4192 115.34C63.6688 113.731 65.0359 112.218 66.5091 110.811C67.2391 110.158 68.1259 109.579 68.9549 108.979C69.502 108.582 70.0591 108.202 70.6195 107.809C71.465 107.198 72.3237 106.592 73.1742 105.99C73.5615 105.757 73.9572 105.518 74.2817 105.199C75.852 103.936 77.5735 102.873 79.4066 102.035C81.4218 101.071 83.5037 100.253 85.6363 99.5872C87.5378 99.0151 89.4294 98.4265 91.3409 97.8709C91.9857 97.6736 92.652 97.5307 93.292 97.3812C94.1678 97.1571 95.0468 96.9199 95.9193 96.709C97.3262 96.3785 98.7281 96.0398 100.133 95.744C101.131 95.5362 102.174 95.4027 103.216 95.1569C104.073 94.971 104.948 94.885 105.824 94.9005C106.25 94.916 106.675 94.8928 107.096 94.8309C108.242 94.667 109.395 94.565 110.551 94.5254C111.127 94.4937 111.704 94.5473 112.264 94.6845C112.42 95.0013 112.478 95.3573 112.43 95.7072C111.409 95.8762 110.379 95.9901 109.346 96.0485C108.42 96.0625 107.499 96.1695 106.596 96.3678C105.862 96.5289 105.118 96.7297 104.37 96.8315C103.212 96.9784 102.036 97.0578 100.863 97.18C99.155 97.2868 97.4582 97.531 95.7891 97.9104C95.1426 98.0862 94.4746 98.2077 93.8033 98.3423C92.7712 98.4952 91.7535 98.7323 90.7602 99.0515C90.4156 99.1691 90.0361 99.173 89.6848 99.261C89.2402 99.3298 88.8062 99.4552 88.3935 99.6342C87.9792 99.8094 87.5489 99.9444 87.1088 100.037C86.9128 100.067 86.7201 100.116 86.5331 100.181C84.7607 100.968 83.031 101.695 81.2998 102.513C79.6368 103.336 78.0244 104.258 76.4713 105.274C76.1828 105.447 75.8695 105.58 75.6059 105.795C74.5363 106.573 73.379 107.225 72.2746 107.946C70.8666 108.891 69.5191 109.924 68.2403 111.038C68.1803 111.097 68.1247 111.161 68.0739 111.228C67.6472 111.725 67.1544 112.162 66.6091 112.525C66.0792 112.906 65.5856 113.335 65.1343 113.806C64.464 114.558 63.8333 115.376 63.2125 116.21C62.5917 117.044 62.1062 117.842 61.5531 118.657C60.8126 119.75 60.215 120.932 59.7748 122.176C59.6413 122.602 59.4685 123.014 59.2586 123.408C58.8313 124.26 58.5191 125.166 58.3305 126.1C58.3037 126.241 58.267 126.379 58.2206 126.515C57.9163 127.237 57.7046 127.994 57.5904 128.769C57.49 130.02 56.9456 131.168 56.8403 132.41C56.8412 132.468 56.8246 132.525 56.7926 132.574C56.5864 132.944 56.4737 133.358 56.4645 133.782L56.0201 136.644C56.015 136.813 55.9829 136.98 55.9251 137.139C55.6858 137.711 55.5397 138.319 55.4922 138.938C55.4644 139.078 55.4729 139.241 55.4038 139.35C55.1833 139.811 55.0568 140.311 55.0315 140.821C54.873 141.826 54.7277 142.834 54.5939 143.825C54.5546 144.039 54.4988 144.264 54.4381 144.48C54.3774 144.696 54.2508 145.008 54.2034 145.284C53.845 147.573 53.4899 149.868 53.1381 152.169C53.1038 152.392 53.0909 152.613 53.078 152.834C53.0652 153.055 53.0708 153.512 53.0449 153.842C52.949 154.314 52.8841 154.792 52.8507 155.273C52.8854 156.375 53.0043 157.505 53.0918 158.62C53.1869 159.2 53.2286 159.788 53.2165 160.376C53.0712 161.384 53.3747 162.392 53.1386 163.398C53.2601 164.122 53.0665 164.845 53.1237 165.575C53.1608 166.103 53.1914 166.657 53.1839 167.167C53.2126 167.809 53.293 168.448 53.4244 169.077C53.5145 169.964 53.6686 170.843 53.8854 171.708C53.9388 171.954 53.9729 172.204 53.9872 172.455L54.1157 173.377L54.6884 176.772C54.74 177.1 54.7537 177.44 54.8302 177.81C54.96 178.529 55.1755 179.241 55.241 179.965C55.3919 181.559 55.7985 183.111 56.0814 184.681C56.2796 185.47 56.4275 186.269 56.5239 187.076C56.5391 187.326 56.589 187.576 56.596 187.83C56.7696 188.972 57.0861 190.086 57.5382 191.149C57.9163 192.265 58.3637 193.357 58.8779 194.418C59.166 195.065 59.5415 195.67 59.7866 196.319C60.0064 196.9 60.3559 197.424 60.8086 197.849C60.7097 197.909 60.576 197.91 60.4623 197.945C60.378 197.985 60.2979 198.033 60.2232 198.089L59.8866 198.034" fill="#966036"/>
<path d="M74.5639 154.182C74.6815 154.207 74.7978 154.238 74.9121 154.275C74.9842 154.544 75.0191 154.822 75.0157 155.1C74.9473 155.715 74.9108 156.333 74.9063 156.952C74.8621 157.736 74.9238 158.522 75.0897 159.289C75.4087 160.771 75.8118 162.223 76.0385 163.738C76.1803 164.775 76.2892 165.833 76.4475 166.86C76.5626 167.665 76.6047 168.477 76.5733 169.289C76.5634 169.878 76.6096 170.467 76.7113 171.048C76.8643 171.899 77.0818 172.745 77.2695 173.598C77.3194 173.848 77.3346 174.097 77.3613 174.328C76.7743 174.674 76.135 174.923 75.4683 175.064C74.8309 175.211 74.2186 175.451 73.6512 175.776C75.1783 175.741 76.7041 175.889 78.1958 176.218C78.6975 177.271 79.2548 178.296 79.8652 179.289C80.1282 179.726 80.4768 180.044 80.7827 180.477C82.0956 182.36 83.4283 184.219 84.7363 186.093C85.1188 186.609 85.4512 187.161 85.7287 187.741C85.9114 188.201 86.2091 188.606 86.5932 188.917C86.9774 189.229 87.4351 189.436 87.9225 189.52C87.536 189.889 87.0427 190.127 86.5129 190.2C85.6136 190.418 84.7397 190.729 83.9057 191.13C82.6114 191.684 81.3203 192.226 80.0342 192.776C79.4867 193.004 78.9277 193.195 78.41 193.473C77.1337 194.111 75.769 194.554 74.3614 194.787C73.5681 194.962 72.7681 195.106 71.9831 195.332C70.8747 195.628 69.7462 195.842 68.6066 195.972C67.7703 196.094 66.9621 196.3 66.1391 196.481C64.8575 196.758 63.576 197.092 62.2944 197.37C62.0432 197.397 61.7896 197.395 61.5387 197.364C61.2452 196.6 60.8666 195.871 60.4102 195.191C60.2194 194.908 60.057 194.607 59.9254 194.293C58.801 191.728 57.9818 189.04 57.4845 186.284C57.1389 184.684 56.9038 183.063 56.6176 181.45C56.4704 180.472 56.2331 179.509 55.9087 178.575C55.7451 178.095 55.6548 177.592 55.6408 177.085C55.5073 174.997 55.2118 172.922 54.7569 170.88C54.4783 169.784 54.3435 168.658 54.3558 167.528C54.4195 165.973 54.4699 164.416 54.4775 162.861C54.4596 161.478 54.3384 160.099 54.1148 158.734C53.8437 156.908 53.8626 155.051 54.1708 153.231C54.3858 152.033 54.5272 150.823 54.5943 149.607C54.7122 148.253 54.9018 146.905 55.1624 145.571C55.5959 143.12 56.064 140.671 56.5108 138.223C56.5804 137.661 56.6837 137.104 56.8201 136.554C57.1084 135.693 57.3278 134.81 57.4761 133.914C57.579 133.245 57.7034 132.575 57.8013 131.899C58.0816 129.853 58.5672 127.842 59.2508 125.894C59.5247 124.971 59.9295 124.092 60.4529 123.283C61.205 122.227 61.8198 121.08 62.2825 119.869C62.4727 119.376 62.7165 118.905 63.0096 118.465C63.9859 117.046 64.9985 115.651 66.0061 114.247C66.2144 113.947 66.4546 113.67 66.7226 113.422C67.4624 112.786 68.1562 112.222 68.873 111.622C69.3756 111.207 69.8782 110.792 70.3676 110.374C70.6428 110.141 70.9064 109.87 71.2047 109.657C72.0947 109.009 72.9847 108.361 73.9077 107.749C75.1093 106.947 76.3803 106.26 77.529 105.389C78.8761 104.446 80.3346 103.673 81.8715 103.089C82.7751 102.724 83.7413 102.277 84.6778 101.893C86.0662 101.327 87.4546 100.76 88.8546 100.232C89.7682 99.8842 90.7363 99.627 91.6548 99.2873C92.5414 98.9847 93.4656 98.8062 94.4011 98.7568C95.2488 98.7092 96.0928 98.6098 96.9284 98.4593C99.1574 98.106 101.405 97.8778 103.659 97.7759C105.397 97.7125 107.121 97.4468 108.797 96.9844C109.307 96.8179 109.827 96.6848 110.354 96.5861C111.026 96.4407 111.717 96.404 112.4 96.4774C112.455 96.568 112.588 96.6223 112.613 96.7196C113.072 97.838 113.45 98.9883 113.742 100.161C113.783 100.383 113.849 100.599 113.94 100.806C114.437 102.268 114.824 103.766 115.098 105.286C115.372 106.524 115.641 107.755 115.932 108.983C116.024 109.33 116.136 109.672 116.267 110.006C116.156 110.014 116.046 110.032 115.938 110.058C115.175 110.338 114.42 110.669 113.646 110.932C112.789 111.205 111.946 111.525 111.123 111.89C110.818 112.073 110.413 112.576 110.027 112.55C109.725 112.215 110.317 113.498 109.987 113.248C109.657 112.997 110.319 113.8 109.813 113.611C109.565 113.76 109.58 112.796 109.625 112.983C109.735 113.501 109.054 112.63 109.228 113.143C109.402 113.656 108.683 112.798 108.203 113.008C107.197 113.445 106.175 113.836 105.152 114.227C104.826 114.356 104.613 114.282 104.533 113.982C104.302 113.346 103.95 112.761 103.496 112.259C103.216 111.906 102.983 111.518 102.802 111.105C102.443 110.207 101.958 109.365 101.362 108.603C101.293 108.488 101.172 108.381 100.989 108.524C101.094 108.983 101.272 109.422 101.514 109.825C101.8 110.369 102.021 110.944 102.175 111.539C102.244 112.125 102.371 112.704 102.552 113.266C102.759 113.85 102.867 114.464 102.872 115.083C102.751 115.205 102.614 115.31 102.465 115.396C100.993 116.103 99.545 116.851 98.1422 117.673C97.6806 117.951 97.2273 118.223 96.736 118.452C96.0931 118.839 95.3841 119.154 94.766 119.582C93.2958 120.59 91.9165 121.713 90.3884 122.644C89.9598 122.902 89.6634 123.305 89.2217 123.616C88.2646 124.398 87.3649 125.247 86.5296 126.158C85.4201 127.322 84.4689 128.627 83.7009 130.039C83.4112 130.528 83.0885 130.981 82.7576 131.438C82.4266 131.896 82.2388 132.088 81.9869 132.396C80.8907 132.289 79.8075 132.076 78.752 131.761C78.5913 131.715 78.4413 131.637 78.3111 131.533C77.7084 131.165 77.1253 130.775 76.5242 130.43C75.3816 129.838 74.2274 129.263 73.0584 128.721C72.1933 128.31 71.6969 127.429 70.7217 127.376C70.6046 127.368 70.1006 127.93 69.8416 127.985C70.1975 128.286 70.5782 128.556 70.9796 128.793C71.5539 129.09 72.1078 129.424 72.6377 129.794C72.9091 129.995 73.2113 130.15 73.5326 130.254C74.2879 130.494 75.0178 130.807 75.712 131.188C76.024 131.315 76.2538 131.603 76.5543 131.748C77.3964 132.139 78.2565 132.486 79.0854 132.874C79.9142 133.263 80.5301 133.577 81.1874 133.978C80.8041 134.759 80.4291 135.479 80.0853 136.214C79.7416 136.949 79.3553 137.855 78.9605 138.654C78.5657 139.453 78.0623 140.408 77.6 141.281C77.0261 142.314 76.6564 143.448 76.5111 144.621C76.3746 145.227 76.3332 145.85 76.3885 146.469C76.1189 148.204 75.8625 149.941 75.5797 151.672C75.4865 152.245 75.0862 154.844 74.4907 154.9L74.5639 154.182ZM57.3433 159.508C57.4738 159.631 57.5681 159.788 57.677 159.801C58.1969 159.933 58.7335 159.989 59.2695 159.965C59.9292 159.801 60.6258 159.874 61.2365 160.173C61.5405 160.329 61.8872 160.381 62.2234 160.32C62.6443 160.28 63.0688 160.301 63.484 160.381C63.7046 160.432 63.9314 160.451 64.1573 160.436C64.4892 160.374 64.8309 160.387 65.1572 160.474C65.7967 160.566 66.4487 160.515 67.066 160.324C67.8023 160.048 68.5953 159.956 69.3754 160.057C69.5685 160.076 69.7633 160.057 69.9496 160.003C70.4208 159.926 70.8824 159.798 71.3267 159.623C71.7993 159.459 72.288 159.345 72.7847 159.285C73.2531 159.149 73.6883 158.92 74.1237 158.804C74.1979 158.759 74.2538 158.647 74.3164 158.565C74.379 158.482 74.2221 158.408 74.1677 158.429C73.3213 158.454 72.4751 158.371 71.6495 158.182C71.2655 158.101 70.8762 158.046 70.4844 158.019C69.6464 158.063 68.8063 158.051 67.9699 157.983C67.7175 157.986 67.4664 158.02 67.2226 158.085C66.18 158.219 65.202 158.46 64.1197 158.527C63.0375 158.595 62.1482 158.591 61.1995 158.657C60.114 158.717 59.0328 158.839 57.9613 159.023C57.8196 159.044 57.6853 159.1 57.5701 159.185C57.4549 159.27 57.3623 159.382 57.3004 159.511L57.3433 159.508ZM75.7077 181.691L75.6234 181.551L75.3165 181.601C74.256 181.835 73.1939 182.104 72.1167 182.292C70.8219 182.51 69.5103 182.626 68.2155 182.844C66.9206 183.062 65.8618 183.374 64.6725 183.563C63.6208 183.735 62.5972 184.049 61.6298 184.496C61.1807 184.725 60.7064 184.902 60.2166 185.021C59.9456 185.083 59.6794 185.165 59.42 185.265C59.2387 185.374 59.046 185.614 59.1534 185.717C59.2608 185.821 59.444 185.846 59.5909 185.903C59.6171 185.899 59.6406 185.885 59.6569 185.864C60.0547 185.727 60.4761 185.672 60.8957 185.702C61.2046 185.721 61.5147 185.704 61.8196 185.651C62.9363 185.416 64.0711 185.194 65.1728 184.878C65.9199 184.664 66.6653 184.429 67.4322 184.248C67.8742 184.172 68.3085 184.057 68.7302 183.904C69.4314 183.624 70.1679 183.442 70.9188 183.362C72.4914 183.063 74.0211 182.572 75.4738 181.9C75.5562 181.85 75.6468 181.795 75.6928 181.667L75.7077 181.691ZM71.9317 112.487L72.1996 112.932C72.8515 113.78 73.5879 114.56 74.3976 115.259C74.599 115.447 74.7692 115.667 74.9018 115.909C75.2169 116.635 75.6669 117.294 76.228 117.851C77.1383 118.673 78.0026 119.568 78.829 120.474C79.336 121.04 79.9147 121.537 80.5504 121.953C81.1399 122.303 81.6743 122.738 82.1363 123.244C82.2137 123.353 82.3155 123.443 82.4335 123.507C82.5516 123.57 82.6827 123.605 82.8167 123.609C82.8214 123.449 82.869 123.286 82.8061 123.2C82.4256 122.642 82.0133 122.107 81.5712 121.597C81.1564 121.15 80.6081 120.818 80.1883 120.363C79.5834 119.694 79.0478 118.972 78.4874 118.265C78.3421 118.054 78.1807 117.855 78.0047 117.669C77.2621 116.983 76.5747 116.241 75.9488 115.448C75.5283 114.881 75.0156 114.388 74.4319 113.991C74.318 113.911 74.2113 113.821 74.1131 113.723L72.7271 112.615C72.6285 112.516 72.4984 112.455 72.3594 112.442C72.2204 112.429 72.0813 112.466 71.9664 112.545L71.9317 112.487ZM106.922 110.264L106.636 109.044C106.522 108.723 106.449 108.39 106.42 108.051C106.412 107.686 106.343 107.325 106.216 106.984C105.818 105.874 105.508 104.736 105.288 103.578C105.168 102.928 104.959 102.299 104.667 101.706C104.287 100.89 103.826 100.124 103.389 99.3421C103.34 99.2597 103.216 99.222 103.125 99.1643C103.034 99.1067 102.975 99.3444 102.982 99.4302C103.004 99.8773 103.056 100.318 103.099 100.763C103.113 100.872 103.146 100.978 103.197 101.075C103.588 102.066 103.872 103.095 104.047 104.146C104.239 105.111 104.592 106.037 105.09 106.886C105.46 107.515 105.757 108.184 105.976 108.88C106.092 109.259 106.208 109.638 106.349 110.003C106.432 110.234 106.577 110.382 106.968 110.248" fill="#FDFBF8"/>
<path d="M74.8494 154.246C74.826 152.958 74.624 153.573 74.7516 152.834C75.2421 152.101 75.3891 152.214 75.4906 151.637C75.7734 149.905 76.0298 148.168 76.2994 146.433C76.2413 145.817 76.2799 145.195 76.4137 144.59C76.5588 143.415 76.9315 142.279 77.5108 141.246C77.9649 140.377 78.4322 139.512 78.8631 138.623C79.294 137.735 79.6362 137.035 79.988 136.183C80.3398 135.331 80.7068 134.728 81.0983 133.942C80.4155 133.538 79.711 133.171 78.988 132.844C78.1591 132.455 77.299 132.109 76.4652 131.712C76.1647 131.567 75.9266 131.284 75.6228 131.152C74.9253 130.778 74.196 130.465 73.4435 130.219C73.118 130.121 72.8122 129.967 72.5403 129.763C72.0128 129.389 71.4586 129.055 70.8822 128.762C70.1228 128.433 69.7185 128.396 69.8003 127.954C70.0593 127.899 70.5551 127.342 70.6805 127.345C71.6557 127.398 72.0611 128.165 72.9263 128.576C74.0952 129.119 75.3254 129.726 76.468 130.318C77.0938 130.649 77.6653 131.057 78.2549 131.421C78.412 131.53 78.5845 131.616 78.7668 131.674C79.8527 131.818 80.7709 132.41 81.906 132.356C82.158 132.047 82.4314 131.736 82.6767 131.398C82.922 131.059 83.3386 130.482 83.62 129.999C84.3881 128.586 85.3392 127.281 86.4487 126.117C87.3483 125.261 87.106 124.374 88.1196 123.651C88.5565 123.388 89.5696 122.329 89.9817 122.081C91.5147 121.158 93.2232 120.545 94.6851 119.541C95.3114 119.108 95.9874 118.757 96.6633 118.406C97.1166 118.133 97.5782 117.855 98.0613 117.632C99.4542 116.793 100.912 116.062 102.384 115.355C102.533 115.269 102.67 115.164 102.791 115.043C102.786 114.423 102.678 113.809 102.472 113.225C102.294 112.662 102.168 112.084 102.094 111.498C101.941 110.903 101.719 110.328 101.433 109.785C101.189 109.381 101.014 108.94 100.917 108.479C101.114 108.36 101.195 108.457 101.281 108.562C101.877 109.324 102.362 110.167 102.721 111.065C102.906 111.475 103.14 111.862 103.415 112.219C103.869 112.72 104.221 113.305 104.452 113.941C104.524 114.246 104.737 114.32 105.063 114.191C106.086 113.8 107.116 113.404 108.122 112.967C108.594 112.762 108.249 112.823 108.643 112.564C109.037 112.304 108.542 112.546 109.228 112.211C109.393 112.112 108.989 112.355 109.228 112.211C109.735 112.4 108.956 112.375 109.484 112.226L109.965 112.093C110.335 112.105 110.701 112.016 111.024 111.837C111.859 111.47 112.693 111.158 113.556 110.875C114.418 110.592 115.076 110.285 115.839 110.005C115.947 109.978 116.057 109.96 116.168 109.954C116.614 110.738 116.933 111.589 117.112 112.473C117.498 113.88 117.809 115.31 118.188 116.722C118.335 117.284 118.189 117.844 118.297 118.396C118.334 118.588 118.306 118.784 118.343 118.976L119.18 123.705C119.18 123.705 119.18 123.705 119.162 123.861C118.453 124.288 117.711 124.735 116.969 125.181C116.706 125.34 116.442 125.499 116.145 125.678C115.568 126.081 114.993 126.506 114.431 126.934C113.038 127.99 111.582 128.96 110.072 129.84C109.008 130.48 107.99 131.194 106.925 131.813C105.806 132.57 104.648 133.268 103.455 133.902C103.329 133.966 103.208 134.039 103.092 134.12C102.029 134.76 100.966 135.401 99.962 136.14C99.3339 136.624 98.7394 137.151 98.1825 137.716C97.3373 138.495 96.5069 139.298 95.6947 140.113C95.2188 140.591 94.7758 141.102 94.3689 141.641C93.5689 142.765 92.6554 143.804 91.6429 144.742C90.848 145.496 90.2569 146.439 89.9245 147.483C89.4923 148.631 89.0651 149.786 88.628 150.925C88.1908 152.065 87.6236 153.417 87.1305 154.668C87.0512 154.908 87.0011 155.157 86.9815 155.409C86.622 157.703 86.2757 160 85.9112 162.286C85.8966 162.655 85.7996 163.017 85.6274 163.344C85.545 163.394 85.5584 163.565 85.5404 163.666C85.359 164.82 85.1463 165.958 85.021 167.112C84.9396 167.835 84.9968 168.564 84.9764 169.295C84.9767 169.463 84.9341 169.635 84.9294 169.795L84.909 171.626C84.8974 172.633 85.0029 173.647 84.9087 174.647C84.8842 175.206 84.9093 175.766 84.9838 176.32C85.121 177.574 85.2203 178.839 85.4465 180.073C85.7354 181.851 86.1142 183.613 86.5814 185.353C86.9231 186.517 87.3521 187.64 87.7564 188.778C87.8277 189.017 87.8842 189.261 87.9258 189.507C87.4384 189.423 86.9807 189.216 86.5965 188.904C86.2124 188.593 85.9147 188.188 85.732 187.728C85.4508 187.151 85.1186 186.599 84.7396 186.08C83.4267 184.198 82.094 182.339 80.7811 180.456C80.523 180.028 80.1447 179.716 79.8718 179.263C79.2572 178.272 78.6998 177.247 78.2024 176.192C76.7072 175.868 75.179 175.721 73.6495 175.755C74.217 175.43 74.8293 175.19 75.4667 175.043C76.1305 174.903 76.7671 174.657 77.3514 174.312C77.3354 174.067 77.3047 173.823 77.2596 173.581C77.0851 172.732 76.8544 171.883 76.7014 171.031C76.604 170.45 76.5578 169.862 76.5634 169.273C76.5933 168.46 76.554 167.646 76.4458 166.839C76.2875 165.812 76.1787 164.754 76.0286 163.722C75.8069 162.216 75.3642 160.753 75.088 159.268C74.9189 158.503 74.8544 157.718 74.8964 156.936C74.9301 156.32 74.9159 155.7 75.0058 155.084C75.0122 154.804 74.9801 154.525 74.9105 154.254" fill="#E4DBC6"/>
<path d="M112.341 96.4906C111.658 96.4173 110.967 96.454 110.295 96.5993C109.768 96.6981 109.248 96.8311 108.738 96.9977C107.062 97.4601 105.338 97.7257 103.6 97.7892C101.345 97.8911 99.0982 98.1193 96.8691 98.4726C96.0336 98.6231 95.1896 98.7224 94.3419 98.7701C93.4063 98.8195 92.4822 98.998 91.5956 99.3006C90.6771 99.6402 89.7089 99.8974 88.7954 100.245C87.3954 100.774 86.007 101.34 84.6186 101.907C83.715 102.271 82.7488 102.718 81.8122 103.102C80.2754 103.687 78.8168 104.459 77.4698 105.402C76.3112 106.257 75.0418 106.965 73.8485 107.762C72.9254 108.374 72.0354 109.022 71.1372 109.675C70.8323 109.859 70.5835 110.154 70.3084 110.387C69.8107 110.811 69.3081 111.226 68.8138 111.635C68.064 112.255 67.3702 112.819 66.6633 113.435C66.394 113.682 66.1536 113.959 65.9468 114.26C64.9392 115.664 63.9266 117.06 62.9504 118.478C62.6522 118.926 62.4019 119.405 62.2035 119.905C61.7408 121.116 61.126 122.264 60.3739 123.32C59.8505 124.128 59.4456 125.007 59.1717 125.93C58.4848 127.877 57.9992 129.889 57.7223 131.935C57.6244 132.612 57.5 133.282 57.3971 133.95C57.2454 134.846 57.0261 135.728 56.7411 136.591C56.6047 137.14 56.5014 137.698 56.4318 138.259C55.985 140.707 55.5169 143.156 55.0834 145.607C54.8228 146.942 54.6332 148.289 54.5153 149.644C54.4451 150.859 54.3037 152.069 54.0918 153.268C53.7792 155.084 53.7586 156.939 54.0308 158.762C54.2544 160.127 54.3756 161.507 54.3935 162.89C54.386 164.444 54.3355 166.001 54.2719 167.556C54.2595 168.686 54.3943 169.813 54.6729 170.908C55.1233 172.951 55.4188 175.026 55.5568 177.113C55.5708 177.621 55.6611 178.123 55.8247 178.603C56.1491 179.537 56.3864 180.5 56.5336 181.478C56.8199 183.091 57.0549 184.713 57.4006 186.312C57.8978 189.068 58.717 191.756 59.8414 194.321C59.973 194.636 60.1354 194.937 60.3262 195.219C60.7827 195.899 61.1612 196.628 61.4547 197.392C61.2902 197.716 60.9818 197.744 60.675 197.794C60.2223 197.369 59.8727 196.846 59.653 196.265C59.4078 195.615 59.0323 195.01 58.7443 194.364C58.2301 193.303 57.7826 192.211 57.4045 191.094C56.9525 190.032 56.6359 188.917 56.4623 187.776C56.4553 187.522 56.3972 187.276 56.3902 187.022C56.2938 186.215 56.146 185.415 55.9477 184.627C55.6648 183.056 55.2582 181.504 55.1073 179.911C55.0419 179.187 54.8263 178.474 54.6965 177.755C54.6449 177.427 54.6312 177.087 54.5547 176.717L53.982 173.323L53.8535 172.401C53.8392 172.149 53.8052 171.899 53.7517 171.653C53.5349 170.789 53.3808 169.909 53.2907 169.022C53.1593 168.393 53.0789 167.754 53.0502 167.112C53.0478 166.586 53.0073 166.015 52.9901 165.52C52.9246 164.796 53.1265 164.068 53.0049 163.344C53.241 162.337 52.921 161.339 53.0829 160.321C53.095 159.733 53.0532 159.146 52.9581 158.566C52.8904 157.483 52.7452 156.347 52.7171 155.218C52.7468 154.737 52.8116 154.259 52.9113 153.787C52.9372 153.457 52.9234 153.118 52.9444 152.779C52.9653 152.441 52.9701 152.337 53.0044 152.114C53.3507 149.817 53.7058 147.522 54.0697 145.229C54.1172 144.953 54.2306 144.694 54.3044 144.425C54.3783 144.156 54.4209 143.984 54.4602 143.77C54.627 142.76 54.7723 141.752 54.8978 140.766C54.9231 140.256 55.0497 139.756 55.2701 139.296C55.3393 139.187 55.3308 139.023 55.3586 138.883C55.406 138.264 55.5522 137.657 55.7915 137.084C55.8493 136.925 55.8813 136.758 55.8864 136.589L56.4727 133.72C56.482 133.297 56.5946 132.882 56.8009 132.512C56.8328 132.464 56.8494 132.407 56.8485 132.349C56.9539 131.106 57.4982 129.959 57.5986 128.708C57.7128 127.933 57.9245 127.175 58.2288 126.453C58.2781 126.311 58.3109 126.179 58.3437 126.047C58.527 125.109 58.8376 124.2 59.2668 123.346C59.4767 122.953 59.6495 122.54 59.7831 122.115C60.2232 120.871 60.8208 119.688 61.5613 118.596C62.1144 117.78 62.6444 116.944 63.2207 116.148C63.797 115.352 64.4722 114.496 65.1425 113.745C65.5938 113.273 66.0874 112.845 66.6173 112.464C67.1626 112.1 67.6555 111.664 68.0821 111.166C68.133 111.099 68.1886 111.036 68.2485 110.976C69.5273 109.863 70.8748 108.83 72.2828 107.885C73.3872 107.164 74.5494 106.52 75.6141 105.733C75.9026 105.56 76.1911 105.386 76.4795 105.212C78.0326 104.196 79.645 103.275 81.308 102.451C83.0557 101.623 84.7936 100.892 86.5414 100.12C86.7284 100.054 86.9211 100.006 87.117 99.9756C87.5572 99.8829 87.9874 99.748 88.4017 99.5727C88.8144 99.3937 89.2484 99.2683 89.693 99.1995C90.0443 99.1116 90.4238 99.1077 90.7685 98.99C91.763 98.6754 92.7804 98.4383 93.8115 98.2809C94.4663 98.1561 95.1344 98.0347 95.7974 97.8489C97.4664 97.4695 99.1632 97.2253 100.871 97.1185C102.044 96.9963 103.212 96.9219 104.379 96.77C105.126 96.6682 105.87 96.4674 106.609 96.3145C107.51 96.1135 108.43 96.0038 109.354 95.987C110.388 95.9331 111.418 95.8192 112.439 95.6457C112.527 95.9066 112.514 96.1911 112.402 96.4427" fill="#844A2A"/>
<path d="M57.3023 159.476C57.3642 159.347 57.4568 159.235 57.572 159.15C57.6872 159.065 57.8216 159.01 57.9632 158.989C59.0347 158.805 60.1159 158.682 61.2015 158.622C62.1749 158.598 63.1648 158.563 64.1217 158.493C65.0785 158.422 66.182 158.184 67.2245 158.051C67.4684 157.986 67.7194 157.951 67.9718 157.949C68.8083 158.017 69.6483 158.029 70.4864 157.985C70.8781 158.011 71.2675 158.066 71.6515 158.148C72.4771 158.336 73.3232 158.419 74.1696 158.395C74.1696 158.395 74.2193 158.477 74.3183 158.53C74.4174 158.583 74.2098 158.741 74.1257 158.769C73.6738 158.896 73.222 159.134 72.7866 159.25C72.29 159.311 71.8012 159.424 71.3286 159.589C70.8843 159.764 70.4227 159.891 69.9515 159.969C69.7652 160.023 69.5704 160.041 69.3774 160.022C68.5973 159.921 67.8043 160.013 67.0679 160.29C66.4506 160.481 65.7986 160.532 65.1591 160.44C64.8329 160.352 64.4912 160.339 64.1592 160.402C63.9333 160.416 63.7065 160.398 63.486 160.346C63.0708 160.266 62.6463 160.246 62.2253 160.286C61.8891 160.346 61.5424 160.295 61.2384 160.139C60.6277 159.84 59.9311 159.766 59.2714 159.93C58.7354 159.954 58.1988 159.899 57.6789 159.766C57.57 159.753 57.4757 159.597 57.3452 159.473" fill="#F3EDDD"/>
<path d="M75.7143 181.665C75.6236 181.72 75.5826 181.857 75.4903 181.89C74.0376 182.562 72.5079 183.053 70.9353 183.352C70.1844 183.432 69.448 183.614 68.7467 183.895C68.325 184.047 67.8907 184.162 67.4487 184.238C66.6818 184.419 65.9364 184.655 65.1893 184.869C64.0876 185.184 62.9528 185.407 61.8361 185.641C61.5333 185.697 61.2248 185.717 60.9172 185.7C60.4974 185.663 60.0745 185.718 59.6783 185.862C59.6592 185.879 59.6368 185.893 59.6124 185.902C59.4655 185.844 59.2823 185.82 59.1749 185.716C59.0675 185.612 59.2403 185.34 59.4415 185.263C59.7024 185.168 59.9683 185.086 60.238 185.02C60.7293 184.905 61.2041 184.728 61.6513 184.494C62.6187 184.047 63.6423 183.733 64.694 183.561C65.8833 183.373 67.0493 183.052 68.2369 182.843C69.4246 182.633 70.8433 182.509 72.1382 182.291C73.2153 182.103 74.2775 181.834 75.338 181.6L75.6448 181.55L75.7342 181.698" fill="#F3EDDD"/>
<path d="M71.94 112.482C72.0557 112.402 72.1958 112.365 72.3361 112.377C72.4764 112.388 72.6083 112.449 72.709 112.547L74.0949 113.655C74.1932 113.754 74.2998 113.844 74.4138 113.924C74.9974 114.321 75.5101 114.813 75.9306 115.38C76.5566 116.173 77.244 116.916 77.9865 117.601C78.1625 117.787 78.3239 117.987 78.4692 118.198C79.0296 118.905 79.5653 119.627 80.1702 120.296C80.5899 120.75 81.1382 121.083 81.553 121.529C81.9951 122.04 82.4074 122.575 82.788 123.133C82.8426 123.223 82.795 123.387 82.7985 123.542C82.6641 123.54 82.5321 123.506 82.4137 123.442C82.2953 123.379 82.1939 123.288 82.1182 123.177C81.6561 122.67 81.1217 122.235 80.5323 121.886C79.8965 121.47 79.3178 120.972 78.8108 120.406C77.9845 119.5 77.1119 118.611 76.2098 117.784C75.6507 117.229 75.2023 116.573 74.8886 115.85C74.7549 115.605 74.583 115.382 74.3794 115.191C73.5698 114.492 72.8333 113.713 72.1815 112.865L71.9284 112.444" fill="#F3EDDD"/>
<path d="M106.904 110.197C106.529 110.321 106.367 110.183 106.284 109.952C106.144 109.587 106.028 109.208 105.911 108.829C105.693 108.133 105.396 107.464 105.026 106.835C104.527 105.987 104.175 105.06 103.982 104.095C103.808 103.044 103.523 102.015 103.133 101.024C103.081 100.927 103.048 100.821 103.035 100.712C102.991 100.267 102.94 99.8264 102.917 99.3793C102.878 99.3133 103.011 99.1993 103.061 99.1134C103.11 99.0276 103.275 99.2088 103.325 99.2912C103.786 100.058 104.248 100.824 104.602 101.655C104.895 102.248 105.104 102.877 105.224 103.527C105.443 104.685 105.753 105.824 106.151 106.933C106.279 107.275 106.348 107.635 106.356 108C106.385 108.339 106.458 108.672 106.572 108.993L106.864 110.187" fill="#F3EDDD"/>
</svg>
