<svg width="30" height="30" viewBox="0 0 30 30" fill="none" xmlns="http://www.w3.org/2000/svg">
<path d="M2.58211 0.707322C2.19158 0.316798 1.55842 0.316798 1.16789 0.707322C0.777369 1.09785 0.777369 1.73101 1.16789 2.12153L14.0465 15.0002L1.16796 27.8787C0.777439 28.2692 0.777438 28.9024 1.16796 29.2929C1.55849 29.6835 2.19165 29.6835 2.58218 29.2929L15.4607 16.4144L27.8787 28.8323C28.2692 29.2229 28.9024 29.2229 29.2929 28.8323C29.6834 28.4418 29.6834 27.8087 29.2929 27.4181L16.8749 15.0002L29.293 2.58212C29.6835 2.1916 29.6835 1.55843 29.293 1.16791C28.9025 0.777385 28.2693 0.777384 27.8788 1.16791L15.4607 13.5859L2.58211 0.707322Z" fill="#004236"/>
</svg>
