<svg width="60" height="60" viewBox="0 0 60 60" fill="none" xmlns="http://www.w3.org/2000/svg">
<path d="M59.993 19.4494C59.93 15.8596 58.5828 10.6629 56.9288 7.466C51.5358 -2.95878 42.344 0.189782 39.4766 1.42087C36.7286 2.60105 34.5736 5.11413 34.45 8.17021C34.3929 9.5922 34.767 11.0371 35.5356 12.2393C36.2744 13.3949 37.3907 14.2493 38.6884 14.6947C41.3249 15.5992 44.1709 14.9255 46.8721 14.7796C48.1989 14.7074 52.1126 12.8451 54.4014 17.2324C56.0443 20.3818 55.5066 24.0759 55.1095 27.5019C55.0533 27.9847 54.9971 28.4683 54.9434 28.9519C55.009 22.3451 50.9708 19.9058 45.006 21.5051C36.225 23.8587 32.0189 27.5579 29.9491 28.9519C29.9449 28.9358 29.9406 28.9188 29.9363 28.9027C29.8392 28.543 29.7105 28.1892 29.5733 27.8404C29.4489 27.4909 29.3066 27.1481 29.1507 26.8096C29.1337 26.7723 29.1158 26.7341 29.0979 26.6967C28.7366 25.8789 28.3335 25.0822 27.8862 24.3041C27.8427 24.2125 27.8009 24.12 27.76 24.0276C27.7012 23.8935 27.5308 23.8375 27.4226 23.9571C27.0196 24.4009 26.6455 24.8743 26.3021 25.3664C26.1427 25.5946 25.9996 25.8296 25.876 26.0791C25.8113 26.2097 25.7456 26.3523 25.6886 26.4974C24.1147 26.4685 22.5408 26.4448 20.967 26.4236C20.7344 26.4202 20.4975 26.4236 20.2631 26.4066C20.0177 25.8907 19.5917 25.4105 19.1895 25.0245C19.0565 24.8964 18.9168 24.7759 18.7728 24.6605C18.3825 24.3389 17.9505 24.0768 17.4912 23.8375C17.3975 23.7891 17.2858 23.8231 17.2509 23.9266C17.2092 24.0505 17.1665 24.1735 17.1325 24.2991C17.1256 24.3245 17.1248 24.3474 17.1273 24.3686C16.8743 25.251 16.6348 26.1351 16.4422 27.0336C16.2275 28.0364 16.029 29.0427 15.8313 30.0489C15.4427 32.0283 15.3209 34.0587 14.8905 36.0287C11.1915 52.9772 1.06753 53.9885 0.278471 54.1531C0.201781 54.1692 0.133611 54.2668 0.163435 54.344C0.195816 54.4289 0.239274 54.5035 0.290401 54.5697C0.244386 54.5935 0.200929 54.6206 0.158323 54.652C0.0748155 54.7148 0.0364703 54.809 0.0893014 54.9074C0.12509 54.9744 0.165992 55.038 0.20945 55.0983C0.173661 55.117 0.139576 55.1416 0.1089 55.1746C-0.00954396 55.2985 -0.0453328 55.5038 0.0671464 55.6447C0.182182 55.7881 0.41481 55.8084 0.58012 55.8517C0.62869 55.8644 0.677261 55.8763 0.72498 55.889C0.761621 55.9043 0.804226 55.9213 0.852797 55.9408C1.2584 56.1003 2.47778 55.9798 4.24251 55.6269C12.8429 53.9079 15.902 47.6167 17.7213 47.5158C13.0559 56.6942 7.5402 57.4697 6.48528 57.7531C6.23987 57.8192 6.22283 58.1026 6.43927 58.2171C6.49721 58.2477 6.5543 58.2782 6.61224 58.3096C6.42137 58.3851 6.2535 58.509 6.18533 58.6541C6.01917 59.007 6.36854 59.1377 6.73069 59.1963C6.67104 59.4041 6.66763 59.6298 6.73495 59.8496C6.76818 59.9582 6.88237 60.0108 6.98291 59.9989C18.9142 58.5489 24.2851 48.5195 24.4036 47.5166C26.3549 47.7669 37.6582 46.2516 42.8638 42.8977C42.7496 43.6486 42.684 44.4113 42.6013 45.1614C42.494 46.1354 42.3909 47.1094 42.2869 48.0842C42.0815 50.0068 40.0177 55.9628 39.93 57.031C39.9095 57.283 40.2614 57.5172 40.4353 57.2601C40.5682 57.0633 40.7037 56.8681 40.8349 56.6713C40.9022 56.7366 40.9849 56.7901 41.0812 56.8291C41.1843 56.8698 41.2993 56.8418 41.3726 56.7655C41.382 56.8053 41.3905 56.8461 41.3999 56.8859C41.4459 57.0904 41.7833 57.1345 41.866 56.9326C43.3282 53.3615 48.1546 44.0618 48.377 43.0793C48.5883 43.103 48.1648 43.1387 48.377 43.1276L48.8414 43.1039C48.7587 46.535 47.0221 55.4555 47.0034 56.4982C47 56.6815 47.2104 56.7519 47.3536 56.7146C47.5598 56.6603 47.7387 56.561 47.8862 56.4295C47.8879 56.4991 47.8904 56.5686 47.8921 56.6382C47.8972 56.8155 48.1426 56.9021 48.2705 56.7935C48.498 56.6 48.763 56.4151 48.9683 56.1987C49.1515 56.0061 49.2078 55.6337 49.2921 55.3851C49.5077 54.753 53.4471 44.9136 54.4338 42.6033C56.5863 37.5636 58.7941 33.396 59.3105 28.6923C59.7919 25.6337 60.0475 22.5453 59.993 19.4494Z" fill="#32574A"/>
<path d="M25.5756 29.6552C25.2833 29.5143 24.922 29.6272 24.7865 29.9148C24.749 29.9632 24.7226 30.0234 24.7124 30.1023C24.6766 30.3882 24.9757 30.6809 25.2365 30.7522" fill="#D6634C"/>
<path d="M19.7528 30.658C19.9377 30.5494 20.0468 30.3339 20.0281 30.1218C20.0076 29.8868 19.8508 29.7129 19.6514 29.6051C19.5781 29.5652 19.4878 29.572 19.4094 29.6068C19.3327 29.6136 19.2569 29.6357 19.187 29.6747" fill="#D6634C"/>
<path d="M25.7593 28.627C25.5769 28.4098 25.1356 28.4539 24.8867 28.4988C24.528 28.5642 24.1846 28.7466 23.9486 29.0266C23.9358 29.041 23.9545 29.0681 23.9716 29.0546C24.2323 28.8459 24.5203 28.7067 24.8535 28.6584C25.0222 28.6337 25.1952 28.6363 25.3639 28.6651C25.4849 28.6864 25.6085 28.7322 25.7312 28.7101C25.7695 28.7033 25.784 28.6558 25.7593 28.627Z" fill="#8BB5DC"/>
<path d="M25.6234 28.9C25.4879 28.9832 25.3235 29.0434 25.1564 29.0799C25.1795 29.0494 25.1965 29.0137 25.2042 28.9721C25.2169 28.9077 25.1863 28.8457 25.1351 28.8118C25.1164 28.749 25.0695 28.6973 25.0065 28.6752C24.9647 28.6608 24.917 28.6548 24.8727 28.6642C24.7679 28.6862 24.7466 28.8059 24.7082 28.8907C24.6759 28.9628 24.6784 29.0358 24.7338 29.096C24.7423 29.1053 24.7508 29.113 24.7602 29.1206C24.6631 29.1181 24.5651 29.107 24.4705 29.0884C24.3555 29.0655 24.2498 29.0095 24.1339 28.9967C24.0334 28.9857 23.9754 29.1062 24.053 29.1749C24.2779 29.376 24.7065 29.3573 24.9801 29.2962C25.2442 29.2369 25.4436 29.1028 25.6345 28.9153C25.6396 28.9094 25.6328 28.8949 25.6234 28.9Z" fill="#8BB5DC"/>
<path d="M23.5228 31.9851C23.4095 32.0504 23.2885 32.159 23.159 32.1853C22.9724 32.2235 22.9016 32.081 22.8582 31.9291C22.8249 31.8111 22.8036 31.689 22.7849 31.5685C22.7747 31.5032 22.7755 31.4429 22.7619 31.3878C22.767 31.3852 22.773 31.3827 22.7781 31.3801C22.9204 31.3097 22.9707 31.1757 23.0022 31.0306C23.0329 31.0102 23.0422 30.9653 23.0337 30.9313C22.9323 30.5215 22.8744 30.0735 22.888 29.651C22.8889 29.6366 22.8684 29.6357 22.8658 29.6493C22.8267 29.8869 22.7892 30.1109 22.8002 30.3527C22.8079 30.5249 22.8275 30.6954 22.8565 30.8651C22.7244 30.8337 22.5966 30.7642 22.4679 30.8609C22.3478 30.9508 22.3571 31.1502 22.4117 31.2758C22.4526 31.37 22.525 31.4141 22.6077 31.4192C22.6008 31.4599 22.6008 31.504 22.6025 31.549C22.5625 31.7034 22.5071 31.8578 22.4441 32.0003C22.4159 32.064 22.3878 32.1717 22.3375 32.2209C22.2464 32.31 22.156 32.1488 22.0981 32.0759C22.0376 31.9995 21.926 32.0292 21.9191 32.1293C21.9021 32.3974 22.2029 32.6766 22.4492 32.4746C22.5744 32.372 22.6426 32.2074 22.6758 32.0283C22.6971 32.1242 22.7304 32.2176 22.7909 32.2948C22.8923 32.4229 23.0576 32.4772 23.2161 32.439C23.4197 32.3898 23.5356 32.243 23.6174 32.0614C23.6464 31.9995 23.574 31.9554 23.5228 31.9851ZM22.6341 31.1901C22.6119 31.1731 22.5778 31.056 22.5872 31.034C22.6153 30.9678 22.744 30.9966 22.8488 31.0212C22.8258 31.1298 22.773 31.2944 22.6341 31.1901Z" fill="#8BB5DC"/>
<path d="M21.2373 28.8992C21.0115 28.6642 20.7184 28.531 20.3937 28.4971C20.1125 28.4674 19.7512 28.5022 19.5169 28.6727C19.4104 28.7499 19.5058 28.9137 19.6234 28.8933C19.8254 28.8585 20.0026 28.8059 20.1952 28.7847C20.1909 28.7898 20.1858 28.7957 20.1824 28.8008C20.1407 28.8611 20.1424 28.9366 20.1739 28.996C20.1824 29.0197 20.1977 29.0418 20.2148 29.0638C20.2378 29.0918 20.2702 29.0944 20.3026 29.0935C20.3119 29.0952 20.3213 29.0961 20.3307 29.0961C20.4619 29.0986 20.5727 28.9417 20.5045 28.8203C20.4951 28.8042 20.4858 28.7898 20.4747 28.7779C20.6698 28.7915 20.865 28.8288 21.0533 28.8857C20.9007 29.0799 20.6852 29.1699 20.4397 29.1945C20.1807 29.2199 19.9413 29.1122 19.6873 29.1173C19.6132 29.119 19.5544 29.225 19.6209 29.2776C19.8688 29.4745 20.2651 29.4965 20.5642 29.4278C20.7755 29.3786 20.9647 29.2522 21.1018 29.0859C21.1044 29.0833 21.107 29.0808 21.1087 29.0774C21.1368 29.0418 21.1632 29.0053 21.1871 28.9663C21.1939 28.9552 21.1964 28.9442 21.1964 28.9332C21.2015 28.9349 21.2075 28.9366 21.2126 28.9391C21.239 28.9484 21.2561 28.9187 21.2373 28.8992Z" fill="#8BB5DC"/>
<path d="M24.4132 30.8455C24.161 30.854 23.8397 30.9261 23.6352 31.0797C23.625 31.0873 23.6301 31.106 23.6446 31.1043C23.7869 31.0856 23.9241 31.0296 24.063 30.9957C24.1823 30.966 24.3033 30.9422 24.4226 30.91C24.4575 30.8998 24.4516 30.8438 24.4132 30.8455Z" fill="#FCF6DE"/>
<path d="M24.724 31.152C24.4385 31.2012 24.1582 31.2775 23.8761 31.3437C23.8634 31.3471 23.8668 31.3675 23.8804 31.3666C24.171 31.3429 24.4607 31.3072 24.741 31.2232C24.7811 31.2105 24.7658 31.1443 24.724 31.152Z" fill="#FCF6DE"/>
<path d="M24.7563 31.6635C24.5186 31.6406 24.2792 31.6516 24.0406 31.6533C24.0261 31.6533 24.0244 31.6771 24.0389 31.6788C24.2775 31.6974 24.516 31.7229 24.7563 31.7161C24.7862 31.7152 24.7862 31.6669 24.7563 31.6635Z" fill="#FCF6DE"/>
<path d="M21.555 30.9984C21.4178 30.939 21.2653 30.9161 21.1196 30.8864C20.9713 30.8559 20.8171 30.8117 20.6645 30.8177C20.6006 30.8202 20.5921 30.9059 20.6509 30.9254C20.7932 30.9738 20.9568 30.9755 21.1059 30.9882C21.2525 31.0009 21.4076 31.0222 21.5541 31.0043C21.5567 31.0043 21.5576 30.9992 21.555 30.9984Z" fill="#FCF6DE"/>
<path d="M21.2842 31.3072C21.0575 31.219 20.7456 31.1638 20.5147 31.2622C20.4678 31.2826 20.4806 31.3496 20.5283 31.3573C20.6519 31.3768 20.778 31.353 20.9033 31.3496C21.0294 31.3462 21.1538 31.342 21.2799 31.3352C21.2952 31.3344 21.2978 31.3123 21.2842 31.3072Z" fill="#FCF6DE"/>
<path d="M21.3821 31.6923C21.1324 31.6066 20.7797 31.6151 20.5556 31.7687C20.5138 31.7975 20.5436 31.8603 20.5905 31.8561C20.7251 31.8434 20.8529 31.7933 20.9867 31.7704C21.1171 31.7483 21.2492 31.7365 21.3796 31.7152C21.3932 31.7127 21.3949 31.6966 21.3821 31.6923Z" fill="#FCF6DE"/>
<path d="M18.4183 25.564C18.3451 25.3629 18.2522 25.1737 18.1303 24.9972C18.0443 24.8733 17.9028 24.6307 17.7665 24.5653C17.6327 24.5017 17.5679 24.6196 17.5091 24.7215C17.3864 24.9344 17.2228 25.2076 17.2458 25.4596C17.2475 25.4766 17.2705 25.4901 17.2833 25.474C17.389 25.3485 17.6114 24.5857 17.7801 24.6324C17.8193 24.6434 17.8773 24.735 17.9054 24.7707C17.9829 24.8665 18.0468 24.9743 18.1039 25.0829C18.1891 25.2449 18.253 25.4172 18.3008 25.5937C18.3229 25.6683 18.4448 25.6352 18.4183 25.564Z" fill="#D6634C"/>
<path d="M27.8319 25.5981C27.797 25.38 27.7177 25.1696 27.6112 24.9761C27.5618 24.8862 27.4433 24.6249 27.3198 24.6207C27.2048 24.6164 27.0752 24.9032 27.0394 24.9787C26.9432 25.1772 26.8605 25.408 26.8699 25.6311C26.8707 25.6524 26.898 25.6558 26.9057 25.6371C27.019 25.3639 27.0812 25.0669 27.2525 24.8183C27.3871 24.6232 27.503 24.9761 27.549 25.0848C27.6231 25.2561 27.6649 25.4335 27.7032 25.615C27.7203 25.6948 27.8447 25.6812 27.8319 25.5981Z" fill="#D6634C"/>
</svg>
