<svg width="365" height="445" viewBox="0 0 365 445" fill="none" xmlns="http://www.w3.org/2000/svg">
<path d="M364.852 288.799C364.467 281.01 363.327 273.237 361.361 265.685C359.16 257.211 355.307 248.337 347.893 243.176C341.461 238.699 332.938 237.071 325.838 240.957C319.847 244.238 316.859 250.556 315.53 256.999C314.335 262.797 314.021 267.03 313.973 272.946C313.769 273.686 312.755 278.957 312.527 279.681C310.294 286.84 308.43 290.97 304.979 297.634C298.067 310.969 288.868 323.085 278.112 333.557C267.474 343.91 255.232 352.682 241.968 359.393C243.265 358.237 244.547 357.056 245.813 355.853C260.217 342.164 265.776 331.063 276.54 312.503C278.01 309.962 281.839 302.26 282.916 299.538C285.92 293.032 287.933 288.311 290.26 282.67C291.329 280.074 292.343 277.454 293.342 274.834C294.246 272.466 295.693 269.815 295.669 267.227C295.654 265.158 296.047 263.718 293.955 263.206C293.649 263.136 293.35 263.096 293.051 263.081C292.768 262.538 292.359 262.05 291.864 261.68C290.952 261.019 289.953 260.886 288.97 261.074C288.679 260.248 287.815 259.8 287.225 258.966C286.557 258.022 281.705 262.184 278.379 265.236C275.494 267.88 269.762 271.263 265.634 273.654C262.269 276.298 252.378 280.688 246.874 282.796C246.89 282.78 245.899 283.292 245.915 283.276C251.804 278.579 261.153 266.904 265.744 260.878C266.877 259.391 267.938 257.833 268.866 256.212C269.605 254.922 270.58 253.396 270.501 251.846C270.423 250.335 269.353 249.195 267.867 248.974C267.71 248.951 267.561 248.943 267.411 248.943C267.348 247.826 266.877 246.748 265.941 246.008C264.903 245.182 263.582 244.978 262.371 245.277C262.167 243.31 261.011 241.626 258.495 241.736C257.182 241.799 256.089 242.688 255.782 243.829C247.747 250.823 239.279 258.061 228.774 260.862C219.67 263.285 209.833 261.877 203.166 254.788C196.892 248.117 194.218 238.644 193.802 229.668C193.385 220.723 195.453 212.1 199.038 203.957C200.532 200.558 202.388 197.301 204.55 194.264C214.85 186.838 225.15 179.419 235.442 171.992C241.96 167.287 248.462 162.575 254.965 157.862C258.196 155.518 261.42 153.173 264.659 150.837C267.631 148.689 270.706 146.627 273.583 144.354C274.425 143.685 275.305 142.859 276.005 141.923C276.147 141.797 276.296 141.663 276.437 141.537C276.5 141.49 276.563 141.443 276.626 141.388L276.846 141.183C277.821 140.475 278.741 139.681 279.237 138.563C279.81 137.273 279.59 135.731 278.513 134.787C278.222 134.535 277.908 134.346 277.57 134.213C277.719 133.237 277.397 132.199 276.445 131.396C275.95 130.979 275.4 130.743 274.833 130.657C274.826 130.153 274.684 129.65 274.354 129.146C273.3 127.541 271.445 127.824 269.817 128.281C264.95 129.374 260.17 130.79 255.484 132.513C253.455 133.261 251.442 134.047 249.469 134.921C248.258 135.306 247.047 135.7 245.836 136.101C240.002 138.052 234.231 140.192 228.531 142.513C237.069 137.171 245.49 131.632 253.77 125.897C255.83 124.473 257.882 123.033 259.934 121.586C264.227 119.06 268.543 116.535 272.648 113.773C273.025 113.521 273.387 113.207 273.725 112.861C274.849 112.042 275.816 110.988 276.335 110.028C276.807 109.163 276.846 107.983 275.824 107.471C275.478 107.298 275.069 107.259 274.653 107.306C275.069 106.638 275.211 105.811 274.818 105.158C274.291 104.277 273.104 104.159 271.971 104.419C272.278 104.002 272.459 103.506 272.427 103.034C272.412 102.79 272.199 102.468 271.948 102.405C270.187 101.901 268.308 102.57 266.562 102.94C266.318 102.995 266.075 103.042 265.831 103.089C247.896 105.056 230.308 109.879 213.953 117.534C210.738 119.037 207.601 120.689 204.526 122.443C202.631 117.306 204.086 111.633 206.319 106.551C214.386 96.8426 218.726 84.1682 218.6 71.4939C218.522 63.4534 216.587 55.5388 212.837 48.4267C208.3 39.8198 201.381 32.6998 194.171 26.28C188.809 21.4966 183.195 17.0043 177.636 12.4491C175.773 9.42805 173.618 6.58005 171.189 3.96021C169.294 1.91469 166.377 -1.49189 163.366 0.718849C162.084 1.65507 161.384 3.22855 160.7 4.61321C159.969 6.09228 159.309 7.59495 158.75 9.14482C158.2 10.6632 157.728 12.1974 157.382 13.7708C156.454 14.1721 155.55 14.6284 154.685 15.006C153.066 15.7062 151.446 16.4143 149.842 17.146C146.296 18.743 142.797 20.4345 139.33 22.2047C134.03 24.9032 128.841 27.8063 123.856 31.0476C122.409 30.3238 120.916 29.6787 119.374 29.128C115.813 27.8535 111.936 26.8071 108.131 26.6734C106.33 26.6104 104.491 27.0667 103.5 28.7032C102.541 30.3002 102.454 32.7077 102.313 34.5172C102.155 36.484 102.148 38.4351 102.336 40.4098C102.407 41.1179 102.494 41.8417 102.611 42.5576C101.18 45.5787 99.1676 48.3952 97.0054 50.9364C96.5808 51.432 96.1484 51.9198 95.716 52.4076C92.9247 55.051 90.0549 57.6001 87.1851 60.1176C80.5805 65.8844 73.8344 71.486 67.2377 77.2607C54.8541 88.1098 43.6106 99.8873 34.5136 113.718C17.2474 139.956 7.48992 170.623 2.96894 201.542C-2.16533 236.646 -0.875863 272.946 8.68504 307.209C17.6091 339.19 33.9711 369.951 57.4488 393.538C60.3501 396.449 62.8582 398.793 65.9561 401.499C67.6151 403.388 69.5729 405.166 71.68 406.558C82.3496 413.639 109.271 432.725 138.37 439.53C152.908 442.929 174.664 444.849 188.227 444.99C204.11 445.163 220.849 442.984 228.932 441.529C238.603 439.806 250.373 436.91 261.294 432.993C277.9 427.037 293.712 418.69 307.644 407.825C319.721 398.408 330.32 387.157 339.024 374.554C347.72 361.958 354.56 348.143 359.057 333.509C363.492 319.049 365.599 303.912 364.852 288.799Z" fill="#D6634C"/>
<path d="M190.79 36.5076C187.582 37.1921 184.422 38.3722 181.654 40.1581C178.871 41.9518 176.056 44.2334 174.719 47.3331C174.688 47.4118 174.766 47.5141 174.845 47.459C177.337 45.618 179.531 43.4545 182.197 41.8496C181.528 42.5734 181.316 43.8243 181.756 44.7054C181.937 45.0594 182.189 45.3348 182.487 45.5472C180.522 46.2553 178.462 46.4992 176.307 46.8296C175.254 46.9948 174.861 48.7178 176.032 49.0403C179.736 50.0788 184.084 48.2693 186.867 45.8226C189.336 43.6512 191.128 40.7717 191.985 37.6012C192.19 36.8459 191.435 36.3738 190.79 36.5076ZM186.269 43.3444C186.254 43.2027 186.23 43.069 186.191 42.9353C186.104 42.6206 185.955 42.3295 185.75 42.0777C185.294 41.5191 184.815 41.3775 184.123 41.3775C184.036 41.346 183.958 41.3224 183.863 41.3067C183.612 41.2516 183.376 41.2595 183.164 41.2988C185.224 40.1659 187.386 39.2769 189.65 38.679C188.888 40.4806 187.747 42.0698 186.269 43.3444Z" fill="#31574A"/>
<path d="M184.673 68.0086C183.95 69.3697 183.738 70.9668 183.085 72.3829C182.763 73.091 182.283 73.8698 181.489 73.2562C181.017 72.8864 180.585 71.9659 180.262 71.4624C179.421 70.1564 178.627 68.7954 177.888 67.4343C177.66 67.0173 177.448 66.5925 177.235 66.1677C178.375 65.1449 178.595 63.4928 178.588 62.0373C178.588 61.8563 178.556 61.6911 178.509 61.5416C178.525 61.1089 178.367 60.6369 177.99 60.1648C177.369 59.3938 176.543 58.7645 175.891 58.017C175.222 57.2539 174.601 56.4436 174.043 55.6018C172.73 53.627 171.629 51.4635 170.977 49.1741C170.914 48.9617 170.591 49.0168 170.639 49.237C171.165 51.9513 171.959 54.5161 173.375 56.9077C174.059 58.0721 174.845 59.1736 175.718 60.2042C175.867 60.3851 176.15 60.629 176.323 60.8572C176.048 60.9988 175.812 61.2112 175.671 61.4944C175.411 61.4708 175.136 61.4394 174.987 61.4472C174.711 61.4708 174.452 61.5259 174.192 61.6203C171.975 62.3913 171.283 65.5304 173.524 66.7498C174.216 67.1275 175.065 67.1511 175.844 66.9229C175.938 68.1345 175.946 69.3382 176.111 70.5498C176.3 71.8794 176.418 73.2168 176.504 74.5543C176.559 75.341 176.96 77.0797 176.48 77.7721C175.914 78.5824 174.892 76.7257 174.334 76.3953C173.846 76.1042 173.233 76.3953 173.178 76.9696C173.029 78.5037 174.475 79.9907 175.993 80.0615C177.55 80.1401 178.399 78.787 178.509 77.3944C178.65 75.5613 178.234 73.5787 177.904 71.7771C177.841 71.4467 177.786 71.1005 177.723 70.7622C178.132 71.4939 178.564 72.2098 179.012 72.9179C179.5 73.681 179.995 74.6644 180.797 75.1522C182.189 76.0176 183.667 75.0421 184.335 73.7754C185.145 72.2334 185.955 69.9676 185.75 68.2132C185.703 67.7333 184.909 67.5602 184.673 68.0086ZM175.537 63.5557C175.356 63.5164 175.175 63.6737 175.183 63.8861C175.191 64.0435 175.199 64.193 175.215 64.3503C175.152 64.4054 175.081 64.4447 175.002 64.4683C174.68 64.5548 174.444 64.3896 174.562 63.9963C174.68 63.6108 175.112 63.5242 175.545 63.5085C175.537 63.5242 175.537 63.54 175.537 63.5557Z" fill="#31574A"/>
<path d="M76.6649 165.423C75.9258 163.778 73.9445 162.189 72.2147 162.323C71.7744 162.315 71.3184 162.402 70.8623 162.606C68.5979 163.605 68.0947 166.28 68.4249 168.491C68.7473 170.662 69.3527 173.455 71.4049 174.643C73.6693 175.949 76.1381 174.698 76.8615 172.307C77.4984 170.198 77.5691 167.429 76.6649 165.423Z" fill="#31574A"/>
<path d="M59.9491 195.232C58.1957 194.327 56.0807 194.894 54.7441 196.263C53.5489 197.49 53.0772 199.205 52.6762 200.826C52.401 201.967 52.2123 203.115 52.2909 204.24C52.2123 206.876 53.0772 209.417 55.664 210.762C58.5024 212.234 61.3958 210.707 62.5595 207.899C63.6917 205.161 63.7939 201.487 62.7718 198.694C62.245 197.254 61.3329 195.94 59.9491 195.232Z" fill="#31574A"/>
<path d="M43.6971 176.209C42.2583 176.437 41.0553 177.578 40.9767 179.065C40.9059 180.386 41.8101 181.708 43.0209 182.227C43.3748 182.849 44.1532 183.14 44.963 182.802C45.9851 182.369 46.6456 181.425 46.85 180.379C47.0544 179.906 47.1488 179.395 47.1173 178.892C47.0073 177.153 45.4033 175.933 43.6971 176.209Z" fill="#31574A"/>
<path d="M57.4252 149.57C56.2143 147.147 53.085 147.021 51.3631 148.98C51.3081 149.043 51.253 149.106 51.198 149.176C49.885 150.451 49.366 152.827 49.3424 154.479C49.3188 156.847 50.797 159.365 53.3759 159.546C58.2507 159.908 59.0606 152.858 57.4252 149.57Z" fill="#31574A"/>
<path d="M156.879 55.6962C156.148 58.4261 154.363 60.0862 152.13 61.0617C152.932 60.5818 153.286 59.7085 153.191 58.8667C153.333 58.2767 153.168 57.6001 152.728 57.1438C152.68 57.0887 152.625 57.0415 152.57 57.0021C152.476 56.8763 152.374 56.7661 152.256 56.6638C153.71 56.1446 155.212 55.767 156.793 55.3972C156.91 55.3736 156.871 55.2005 156.769 55.1848C150.974 54.0912 144.354 57.7574 141.39 62.6745C141.052 63.2331 141.531 63.9726 142.168 63.9569C145.864 63.8546 149.661 64.0985 153.058 62.3677C154.308 61.7304 155.448 60.8729 156.36 59.8029C157.374 58.5992 157.775 57.4663 157.964 55.9243C158.043 55.3028 157.044 55.0825 156.879 55.6962ZM143.969 62.3126C145.258 60.8808 146.65 59.5826 148.301 58.5441C148.065 59.2837 148.089 60.1255 148.537 60.7391C148.859 61.1955 149.37 61.4551 149.921 61.2269L149.928 61.2191C150.377 61.4157 150.896 61.4629 151.391 61.3528C149.087 62.1867 146.414 62.3834 143.969 62.3126Z" fill="#31574A"/>
<path d="M117.802 91.8704C116.245 93.6406 115.27 95.5287 114.995 97.8811C114.948 98.2902 115.6 98.5184 115.726 98.0857C116.332 96.0637 117.126 93.9867 118.242 92.1851C118.423 91.894 118.03 91.6029 117.802 91.8704Z" fill="#FCF6DE"/>
<path d="M122.598 100.753C121.6 102.326 120.601 103.9 119.587 105.465C119.272 105.953 120.098 106.449 120.342 105.937C121.167 104.262 122.024 102.594 122.865 100.926C122.96 100.753 122.708 100.572 122.598 100.753Z" fill="#FCF6DE"/>
<path d="M106.016 96.465C105.67 97.0078 105.324 97.5507 104.978 98.0935C104.679 98.5656 104.381 98.9825 104.239 99.5333C104.153 99.8794 104.64 100.108 104.86 99.8401C105.206 99.4389 105.348 98.9983 105.544 98.5105C105.796 97.8732 106.047 97.2439 106.307 96.6066C106.37 96.4335 106.11 96.3155 106.016 96.465Z" fill="#FCF6DE"/>
<path d="M100.135 92.3424C99.6315 92.7201 99.1283 93.1056 98.6251 93.4832C98.0276 93.9317 97.5794 94.4037 97.1155 94.9938C96.7853 95.4107 97.3986 95.8198 97.7681 95.5602C98.3421 95.1511 98.7745 94.7656 99.2148 94.2149C99.6237 93.7035 100.033 93.2 100.441 92.6965C100.614 92.4919 100.355 92.1772 100.135 92.3424Z" fill="#FCF6DE"/>
<path d="M92.4451 81.4776C91.0063 83.1376 89.2844 84.7426 88.1443 86.6307C87.8062 87.1815 88.5846 87.8502 89.0485 87.3545C90.5503 85.7339 91.6196 83.5782 92.8147 81.7294C92.9484 81.5091 92.6024 81.2888 92.4451 81.4776Z" fill="#FCF6DE"/>
<path d="M95.2678 70.1171C93.7031 70.6993 92.5316 71.667 91.6982 73.1146C91.3837 73.6653 92.3036 74.1294 92.5866 73.5551C93.2157 72.2806 94.1906 71.1084 95.37 70.3138C95.4801 70.243 95.3857 70.0699 95.2678 70.1171Z" fill="#FCF6DE"/>
<path d="M77.5927 84.4672L75.973 85.9148C75.8787 86.0013 75.9887 86.1665 76.0831 86.08L77.7185 84.656C77.8364 84.5616 77.7028 84.3728 77.5927 84.4672Z" fill="#FCF6DE"/>
<path d="M84.9914 73.9406C83.3874 75.3174 81.8306 76.8752 80.9422 78.8184C80.6748 79.4085 81.6577 79.8648 81.9643 79.3062C82.955 77.5046 83.8277 75.7659 85.298 74.2947C85.4867 74.098 85.1958 73.7675 84.9914 73.9406Z" fill="#FCF6DE"/>
<path d="M77.4669 76.3245C75.8001 78.0553 74.1253 79.7704 72.5056 81.5484C72.1754 81.9103 72.7808 82.4059 73.1032 82.0362C74.6678 80.2345 76.1696 78.3778 77.6871 76.529C77.7893 76.3953 77.5849 76.2064 77.4669 76.3245Z" fill="#FCF6DE"/>
<path d="M101.833 76.7572C101.063 77.2528 100.426 78.0631 99.8124 78.7319C99.144 79.4557 98.5229 80.2109 98.004 81.0449C97.6973 81.5327 98.4128 81.9654 98.7902 81.5956C99.3878 81.0134 99.9146 80.3762 100.41 79.7074C101.007 78.8971 101.77 77.9687 102.14 77.0325C102.203 76.8594 102.03 76.6313 101.833 76.7572Z" fill="#FCF6DE"/>
<path d="M106.299 82.9567C105.615 83.9086 104.907 84.837 104.2 85.7653C103.854 86.2216 104.687 86.7488 104.954 86.2374C105.497 85.2146 106.071 84.2076 106.661 83.2084C106.794 82.9881 106.448 82.7521 106.299 82.9567Z" fill="#FCF6DE"/>
<path d="M113.092 85.8597C112.172 87.1657 111.197 88.4245 110.443 89.8249C110.301 90.0845 110.718 90.3127 110.891 90.0845C111.858 88.8257 112.605 87.4175 113.415 86.0485C113.54 85.8361 113.234 85.663 113.092 85.8597Z" fill="#FCF6DE"/>
<path d="M125.602 110.241C125.366 110.854 125.122 111.46 124.878 112.074C124.752 112.404 125.287 112.601 125.389 112.271C125.578 111.625 125.767 110.988 125.955 110.343C126.034 110.107 125.688 110.02 125.602 110.241Z" fill="#FCF6DE"/>
<path d="M134.73 106.362C133.779 107.652 132.835 109.344 132.977 110.988C133.008 111.374 133.614 111.452 133.739 111.083C133.991 110.327 134.062 109.541 134.282 108.77C134.494 108.038 134.801 107.346 135.17 106.677C135.343 106.386 134.942 106.071 134.73 106.362Z" fill="#FCF6DE"/>
<path d="M135.029 119.139C134.282 120.649 133.755 122.294 133.739 123.993C133.739 124.316 134.227 124.402 134.258 124.056C134.416 122.404 134.683 120.822 135.32 119.28C135.391 119.107 135.115 118.974 135.029 119.139Z" fill="#FCF6DE"/>
<path d="M115.27 113.616C114.382 114.867 113.454 116.078 112.723 117.424C112.526 117.786 113.108 118.171 113.344 117.825C114.209 116.543 114.838 115.134 115.53 113.758C115.608 113.6 115.365 113.482 115.27 113.616Z" fill="#FCF6DE"/>
<path d="M105.489 106.032C104.475 107.409 103.555 108.817 102.698 110.304C102.226 111.13 103.586 111.869 103.98 111.02C104.695 109.462 105.34 107.912 105.882 106.291C105.961 106.055 105.662 105.796 105.489 106.032Z" fill="#FCF6DE"/>
<path d="M95.6531 101.634C94.8432 102.798 94.0805 103.931 93.4201 105.19C93.2157 105.575 93.766 105.867 94.0019 105.52C94.796 104.372 95.4644 103.199 96.117 101.964C96.2899 101.642 95.8654 101.319 95.6531 101.634Z" fill="#FCF6DE"/>
<path d="M90.8962 94.9308C90.6132 95.395 90.3222 95.867 90.0392 96.3312C89.7561 96.7954 90.4638 97.2832 90.7311 96.8111C91.0142 96.3155 91.2972 95.812 91.5803 95.3163C91.8004 94.9387 91.1321 94.5453 90.8962 94.9308Z" fill="#FCF6DE"/>
<path d="M68.0004 243.884C65.7674 241.791 62.3236 242.397 60.6095 244.844C58.8247 247.393 59.4773 250.54 60.7117 253.168C61.27 255.111 62.0956 257.141 64.1791 257.597C70.6186 259.005 71.4363 247.102 68.0004 243.884Z" fill="#31574A"/>
<path d="M139.047 258.415C137.946 257.259 136.122 257.211 135.076 258.486C134.455 259.241 134.188 260.406 134.078 261.499C133.897 261.995 133.802 262.506 133.794 262.947C133.779 264.803 135.477 265.96 137.215 265.48C138.536 265.11 139.267 263.946 139.581 262.679C139.935 261.287 140.108 259.54 139.047 258.415Z" fill="#31574A"/>
<path d="M117.739 274.771C117.668 272.584 116.001 270.492 113.713 270.397C110.616 270.263 109.114 273.426 108.524 275.975C107.966 278.383 107.4 282.151 109.782 283.788C112.172 285.424 114.916 283.591 116.229 281.49C117.212 279.925 117.763 277.895 117.645 275.959C117.715 275.582 117.755 275.181 117.739 274.771Z" fill="#31574A"/>
<path d="M24.3552 234.191C23.5217 232.225 21.5011 231.068 19.4411 231.981C17.2081 232.972 16.5162 235.655 16.5791 237.897C16.6105 238.959 16.8464 240.312 17.3732 241.477C17.8764 242.995 18.7806 244.293 19.9285 244.82C25.2908 247.299 25.5188 236.945 24.3552 234.191Z" fill="#31574A"/>
<path d="M38.1304 253.349C37.3599 253.443 36.6208 253.891 36.1962 254.552C35.9839 254.883 35.8581 255.237 35.7952 255.591C35.3471 257.314 35.7638 259.965 38.0439 259.918C39.8209 259.886 40.7015 258.171 40.8745 256.606C41.0553 254.938 40.0332 253.113 38.1304 253.349Z" fill="#31574A"/>
<path d="M59.0528 272.75C58.4709 272.451 57.8891 272.325 57.3387 272.34C55.8999 271.9 54.1465 272.726 53.2266 273.993C51.4496 276.439 51.1587 280.523 51.7012 283.394C52.2123 286.124 54.7205 288.075 57.4252 286.691C59.611 285.573 60.6253 282.631 61.0813 280.397C61.6081 277.816 61.7968 274.174 59.0528 272.75Z" fill="#31574A"/>
<path d="M315.963 339.591C315.035 340.275 314.398 341.432 313.761 342.384C313.101 343.375 312.519 344.28 312.079 345.397C312 345.594 312.291 345.806 312.456 345.672C313.415 344.925 314.115 344.099 314.885 343.163C315.577 342.313 316.521 341.385 316.875 340.338C317.063 339.795 316.489 339.213 315.963 339.591Z" fill="#FCF6DE"/>
<path d="M330.579 340.362C329.589 340.787 328.999 341.731 328.456 342.62C327.859 343.588 327.269 344.555 326.679 345.523C326.467 345.869 326.986 346.105 327.238 345.869C328.032 345.098 328.826 344.319 329.62 343.548C330.343 342.84 331.145 342.046 331.35 341.023C331.42 340.614 330.988 340.189 330.579 340.362Z" fill="#FCF6DE"/>
<path d="M314.893 360.487C313.855 361.698 313.053 363.099 312.236 364.468C312.134 364.641 312.362 364.79 312.487 364.641C313.502 363.413 314.547 362.186 315.349 360.801C315.507 360.526 315.098 360.243 314.893 360.487Z" fill="#FCF6DE"/>
<path d="M334.77 358.74C334.086 359.173 333.732 359.912 333.347 360.597C332.907 361.368 332.474 362.139 332.034 362.91C331.892 363.154 332.246 363.429 332.443 363.209C333.017 362.54 333.583 361.871 334.157 361.203C334.644 360.636 335.257 360.038 335.415 359.283C335.485 358.937 335.132 358.504 334.77 358.74Z" fill="#FCF6DE"/>
<path d="M319.304 320.237C318.502 321.087 318.117 322.385 317.7 323.471C317.236 324.682 316.922 325.957 316.497 327.184C316.419 327.404 316.741 327.546 316.867 327.349C317.535 326.256 318.306 325.201 318.943 324.084C319.532 323.038 320.271 321.905 320.436 320.709C320.531 320.04 319.713 319.797 319.304 320.237Z" fill="#FCF6DE"/>
<path d="M335.061 317.515C333.897 319.474 333.331 321.944 332.521 324.076C332.474 324.21 332.663 324.32 332.741 324.194C333.937 322.298 335.603 320.363 336.437 318.278C336.806 317.366 335.596 316.618 335.061 317.515Z" fill="#FCF6DE"/>
<path d="M345.329 336.845C344.441 337.144 343.93 338.135 343.419 338.883C342.711 339.929 341.917 341.149 341.603 342.368C341.516 342.714 341.98 342.887 342.216 342.714C343.112 342.069 343.749 341.141 344.425 340.283C345.054 339.481 346.045 338.403 346.006 337.349C345.998 337.01 345.66 336.735 345.329 336.845Z" fill="#FCF6DE"/>
<path d="M349.811 313.385C349.143 314.502 348.726 315.776 348.231 316.98C348.042 317.436 348.726 317.704 348.938 317.263C349.489 316.115 350.149 314.982 350.519 313.762C350.652 313.345 350.063 312.968 349.811 313.385Z" fill="#FCF6DE"/>
<path d="M324.376 302.103C323.668 304.219 322.96 306.328 322.261 308.444C322.119 308.869 322.732 309.152 322.913 308.727C323.754 306.689 324.588 304.644 325.437 302.606C325.72 301.898 324.611 301.403 324.376 302.103Z" fill="#FCF6DE"/>
<path d="M307.086 317.68C306.166 319.222 305.545 320.859 304.861 322.511C304.782 322.7 305.073 322.833 305.175 322.668C306.079 321.15 307.007 319.679 307.683 318.042C307.841 317.68 307.298 317.326 307.086 317.68Z" fill="#FCF6DE"/>
<path d="M305.482 335.964C305.144 336.184 304.774 336.381 304.53 336.704C304.208 337.121 304.027 337.648 303.736 338.096C303.249 338.844 302.636 339.559 302.298 340.386C302.148 340.763 302.651 341.164 302.989 340.944C303.713 340.464 304.263 339.748 304.876 339.135C305.277 338.733 305.82 338.411 306.166 337.97C306.425 337.64 306.551 337.223 306.685 336.829C306.936 336.153 306.024 335.61 305.482 335.964Z" fill="#FCF6DE"/>
<path d="M290.291 341.534C289.246 342.195 288.554 343.092 287.752 344.028C286.926 344.988 286.124 345.924 285.424 346.978C285.314 347.144 285.527 347.38 285.692 347.262C286.753 346.561 287.681 345.743 288.656 344.925C289.623 344.107 290.551 343.375 291.211 342.274C291.541 341.707 290.739 341.243 290.291 341.534Z" fill="#FCF6DE"/>
<path d="M298.814 355.168C297.761 355.719 296.825 356.907 296.086 357.843C295.253 358.905 294.49 360.03 293.688 361.116C293.428 361.462 293.885 361.903 294.23 361.643C295.371 360.762 296.581 359.936 297.666 358.992C298.531 358.237 299.561 357.403 300.065 356.364C300.426 355.64 299.498 354.806 298.814 355.168Z" fill="#FCF6DE"/>
<path d="M300.717 376.206C300.277 375.82 299.844 375.954 299.357 376.111C298.256 376.465 297.478 377.771 296.786 378.637C296.07 379.526 295.457 380.509 294.812 381.461C294.49 381.933 295.182 382.476 295.614 382.185C296.668 381.453 297.761 380.761 298.736 379.935C299.585 379.219 300.536 378.59 300.977 377.543C301.173 377.079 301.102 376.552 300.717 376.206Z" fill="#FCF6DE"/>
<path d="M320.444 376.654C318.95 379.062 317.016 381.154 314.964 383.09C314.752 383.294 315.035 383.625 315.279 383.483C317.834 381.973 319.831 379.864 321.514 377.425C321.993 376.733 320.885 375.938 320.444 376.654Z" fill="#FCF6DE"/>
<path d="M299.742 393.553C298.185 394.859 296.833 396.362 295.426 397.825C294.694 398.581 295.866 399.651 296.613 398.935C298.06 397.542 299.593 396.212 300.867 394.655C301.511 393.868 300.521 392.9 299.742 393.553Z" fill="#FCF6DE"/>
<path d="M282.169 374.467C281.21 374.86 280.51 375.828 279.803 376.552C279.079 377.307 278.356 378.062 277.625 378.818C277.428 379.022 277.695 379.368 277.939 379.211C278.891 378.582 279.85 377.96 280.793 377.323C281.603 376.78 282.523 376.324 283.066 375.49C283.474 374.884 282.806 374.207 282.169 374.467Z" fill="#FCF6DE"/>
<path d="M269.927 357.56C268.795 358.268 267.969 359.432 267.081 360.416C266.255 361.321 265.43 362.233 264.604 363.146C264.29 363.492 264.848 363.98 265.194 363.689C266.248 362.808 267.301 361.926 268.355 361.045C269.275 360.274 270.257 359.606 270.942 358.614C271.374 358.001 270.548 357.175 269.927 357.56Z" fill="#FCF6DE"/>
<path d="M243.077 370.762C241.535 371.336 239.853 371.8 238.43 372.634C238.225 372.752 238.312 373.137 238.563 373.106C240.191 372.917 241.803 372.264 243.367 371.784C244.036 371.588 243.713 370.525 243.077 370.762Z" fill="#FCF6DE"/>
<path d="M258.141 379.589C256.938 380.132 255.955 381.288 254.949 382.106C254.092 382.807 253.227 383.507 252.37 384.199C252.071 384.443 252.378 384.923 252.716 384.703C253.777 384.002 254.831 383.31 255.892 382.618C256.883 381.973 258.094 381.445 258.888 380.564C259.305 380.092 258.699 379.337 258.141 379.589Z" fill="#FCF6DE"/>
<path d="M275.84 393.608C274.771 393.719 274.157 394.434 273.355 395.087C272.357 395.906 271.28 396.645 270.25 397.416C269.935 397.652 270.25 398.109 270.596 397.92C271.531 397.401 272.475 396.873 273.418 396.37C274.472 395.811 275.753 395.504 276.367 394.419C276.563 394.065 276.249 393.569 275.84 393.608Z" fill="#FCF6DE"/>
<path d="M283.427 410.492C281.69 411.145 280.156 412.435 278.623 413.45C276.964 414.551 275.329 415.676 273.693 416.801C273.371 417.022 273.678 417.604 274.039 417.415C275.706 416.542 277.373 415.669 279.032 414.772C280.73 413.851 282.688 413.049 284.151 411.774C284.685 411.302 284.143 410.224 283.427 410.492Z" fill="#FCF6DE"/>
<path d="M257.78 412.702C256.71 413.057 255.743 413.591 254.768 414.142C253.636 414.772 252.543 415.314 251.6 416.211C251.332 416.463 251.497 416.927 251.89 416.888C253.101 416.77 254.147 416.369 255.279 415.952C256.372 415.551 257.489 415.181 258.487 414.591C259.431 414.032 258.92 412.325 257.78 412.702Z" fill="#FCF6DE"/>
<path d="M249.327 396.787C247.094 397.267 245.6 399.383 244.162 400.988C243.981 401.185 244.185 401.547 244.452 401.444C246.347 400.713 248.942 400.052 250.114 398.234C250.483 397.66 250.161 396.606 249.327 396.787Z" fill="#FCF6DE"/>
<path d="M227.768 390.926C227.013 390.839 226.361 391.154 225.653 391.39C224.843 391.657 224.065 391.996 223.286 392.342C223.027 392.46 223.043 392.932 223.381 392.885C224.206 392.782 225.032 392.696 225.85 392.515C226.549 392.358 227.343 392.326 227.925 391.893C228.248 391.657 228.279 390.981 227.768 390.926Z" fill="#FCF6DE"/>
<path d="M232.454 411.176C229.734 412.262 227.053 413.316 224.403 414.567C223.97 414.772 224.191 415.48 224.67 415.377C227.501 414.779 230.26 414.008 233.044 413.222C234.38 412.852 233.704 410.681 232.454 411.176Z" fill="#FCF6DE"/>
<path d="M235.678 426.423C234.436 426.376 233.343 427.454 232.352 428.091C231.212 428.831 230.198 429.767 229.152 430.632C228.767 430.955 229.183 431.632 229.639 431.482C230.929 431.057 232.258 430.68 233.492 430.121C234.695 429.578 236.079 429.216 236.763 428.028C237.227 427.226 236.448 426.455 235.678 426.423Z" fill="#FCF6DE"/>
<path d="M344.087 295.502C344.001 295.187 343.592 295.038 343.301 295.14C342.137 295.565 341.98 297.217 341.831 298.311C341.665 299.491 341.736 300.506 342.106 301.639C342.184 301.89 342.601 301.898 342.64 301.615C342.798 300.537 342.955 299.404 343.293 298.366C343.607 297.39 344.378 296.533 344.087 295.502Z" fill="#FCF6DE"/>
<path d="M359.073 285.943C358.987 284.857 357.406 284.968 357.398 286.045C357.391 288.76 357.957 291.537 358.318 294.228C358.358 294.495 358.751 294.416 358.767 294.172C358.924 291.458 359.285 288.657 359.073 285.943Z" fill="#FCF6DE"/>
<path d="M318.4 289.869C318.353 289.468 317.779 289.106 317.48 289.515C316.875 290.333 316.796 291.458 316.607 292.457C316.411 293.535 316.269 294.629 316.112 295.707C316.073 295.95 316.434 295.974 316.505 295.777C316.945 294.645 317.409 293.527 317.795 292.379C318.07 291.561 318.494 290.75 318.4 289.869Z" fill="#FCF6DE"/>
<path d="M332.694 282.71C332.498 282.261 331.924 282.183 331.664 282.623C331.192 283.426 331.318 284.385 331.342 285.298C331.381 286.565 331.507 287.831 331.593 289.09C331.609 289.295 331.947 289.405 331.987 289.161C332.215 287.973 332.466 286.777 332.655 285.581C332.812 284.645 333.087 283.599 332.694 282.71Z" fill="#FCF6DE"/>
<path d="M344.693 270.61C344.409 269.776 343.159 269.909 343.151 270.822C343.12 273.135 344.063 275.7 344.81 277.871C344.873 278.044 345.156 278.06 345.164 277.848C345.227 275.566 345.424 272.797 344.693 270.61Z" fill="#FCF6DE"/>
<path d="M326.223 271.184C326.192 270.649 325.398 270.437 325.17 270.956C324.753 271.908 324.792 272.836 324.753 273.859C324.69 275.314 324.494 276.738 324.305 278.178C324.289 278.312 324.478 278.328 324.509 278.202C324.808 276.896 325.067 275.566 325.5 274.299C325.862 273.261 326.286 272.301 326.223 271.184Z" fill="#FCF6DE"/>
<path d="M333.024 256.425C333.111 258.124 333.441 259.816 333.661 261.499C333.685 261.672 333.944 261.649 333.96 261.483C334.18 259.8 334.51 258.1 334.597 256.401C334.644 255.402 332.969 255.41 333.024 256.425Z" fill="#FCF6DE"/>
<path d="M356.266 268.769C355.244 266.574 354.757 264.316 354.788 261.893C354.804 260.925 353.239 260.909 353.318 261.838C353.538 264.442 354.324 266.841 355.684 269.075C355.881 269.39 356.424 269.107 356.266 268.769Z" fill="#FCF6DE"/>
<path d="M96.2821 334.611C94.6702 333.195 92.2957 333.73 91.2893 335.563C90.7783 336.483 90.6289 337.569 90.6839 338.67C90.2357 341.4 91.6353 344.697 94.3715 345.177C99.5608 346.089 98.8689 336.892 96.2821 334.611Z" fill="#31574A"/>
<path d="M147.169 315.879C145.777 313.416 142.522 312.086 140.069 313.975C139.377 314.51 138.889 315.194 138.559 315.973C136.106 318.978 136.554 325.367 139.699 327.42C142.412 329.198 145.73 327.522 147.184 324.942C148.71 322.251 148.686 318.561 147.169 315.879Z" fill="#31574A"/>
<path d="M180.962 299.16C180.813 297.76 180.026 295.95 178.422 295.864C178.084 295.848 177.762 295.911 177.471 296.053C175.246 295.77 173.493 298.594 174.145 300.71C174.845 302.968 177.738 303.802 179.602 302.402C180.616 301.654 181.096 300.396 180.962 299.16Z" fill="#31574A"/>
<path d="M175.191 328.734C174.601 328.577 173.925 328.868 173.493 329.292C173.052 329.497 172.667 329.827 172.376 330.229C170.969 332.172 170.371 336.153 172.809 337.577C175.222 338.977 177.125 336.837 177.872 334.713C178.761 332.18 177.951 329.481 175.191 328.734Z" fill="#31574A"/>
<path d="M138.701 354.035C138.536 352.903 138.127 352.194 137.458 351.589C137.168 351.006 136.735 350.503 136.13 350.173C132.332 348.088 130.044 352.934 130.013 355.979C129.997 357.82 130.453 360.007 131.782 361.376C133.134 362.768 135.288 362.87 136.688 361.509C137.946 360.29 138.457 358.166 138.654 356.498C138.756 355.688 138.811 354.838 138.701 354.035Z" fill="#31574A"/>
<path d="M72.5764 357.662C72.5764 357.426 72.5449 357.182 72.4742 356.923C72.4034 356.671 72.3012 356.427 72.1675 356.207C72.1518 356.167 72.1439 356.128 72.1282 356.097C71.9395 355.609 71.5621 355.31 71.1297 355.184C70.7759 354.995 70.3827 354.893 69.9503 354.917C67.4264 355.082 66.8131 358.276 67.2377 360.266C67.4343 361.195 67.8353 362.28 68.6058 362.886C69.565 363.649 70.9174 363.523 71.6958 362.556C72.7572 361.218 72.8988 359.346 72.5764 357.662Z" fill="#31574A"/>
<path d="M148.112 119.155C147.609 120.201 146.964 121.444 146.996 122.624C147.004 123.01 147.578 123.096 147.727 122.75C148.183 121.688 148.238 120.429 148.584 119.32C148.663 119.044 148.238 118.903 148.112 119.155Z" fill="#FCF6DE"/>
<path d="M148.104 106.866C147.821 107.723 147.467 108.589 147.318 109.478C147.263 109.792 147.751 109.926 147.861 109.627C148.159 108.777 148.262 107.841 148.435 106.952C148.466 106.763 148.167 106.685 148.104 106.866Z" fill="#FCF6DE"/>
<path d="M125.138 118.69C124.69 119.548 124.21 120.382 123.911 121.31C123.785 121.688 124.367 121.908 124.556 121.562C125.012 120.704 125.271 119.776 125.57 118.856C125.665 118.604 125.264 118.462 125.138 118.69Z" fill="#FCF6DE"/>
<path d="M131.105 97.4326C130.602 98.0699 130.429 98.9196 130.178 99.6827C129.903 100.525 129.651 101.366 129.423 102.224C129.321 102.617 129.879 102.806 130.02 102.421C130.319 101.618 130.594 100.823 130.846 100.005C131.09 99.2028 131.459 98.3689 131.412 97.5113C131.396 97.354 131.192 97.3225 131.105 97.4326Z" fill="#FCF6DE"/>
<path d="M194.022 52.7695C190.712 54.2958 187.598 57.3562 185.672 60.4245C185.397 60.865 185.978 61.3214 186.317 60.9201C187.551 59.4489 188.809 58.0171 190.264 56.7661C191.608 55.6096 193.118 54.7128 194.549 53.6743C195.036 53.3281 194.564 52.5177 194.022 52.7695Z" fill="#FCF6DE"/>
<path d="M196.349 57.3011C193.55 58.8116 191.215 61.1955 188.833 63.2567C188.746 63.3354 188.856 63.477 188.958 63.4141C191.663 61.817 194.667 60.3773 196.986 58.2216C197.45 57.7889 196.931 56.9864 196.349 57.3011Z" fill="#FCF6DE"/>
<path d="M198.354 62.0609C195.571 63.7052 192.795 65.3967 190.059 67.1196C189.902 67.214 190.051 67.45 190.216 67.395C193.283 66.2542 196.216 64.6335 198.787 62.6116C199.093 62.3598 198.684 61.8642 198.354 62.0609Z" fill="#FCF6DE"/>
<path d="M166.817 68.6616C162.627 69.8889 157.878 72.3199 154.733 75.3804C154.198 75.8996 154.976 76.6234 155.55 76.3008C157.61 75.1286 159.466 73.5866 161.471 72.3199C163.287 71.1713 165.158 70.1013 166.951 68.9134C167.1 68.819 166.975 68.6144 166.817 68.6616Z" fill="#FCF6DE"/>
<path d="M167.894 74.1373C166.039 74.6408 164.388 75.5298 162.855 76.6942C161.369 77.8192 159.474 79.4635 158.994 81.3202C158.86 81.8474 159.576 82.2643 159.985 81.9339C161.274 80.9033 162.108 79.2668 163.271 78.071C164.679 76.6313 166.291 75.4354 167.95 74.3025C168.044 74.2474 168.005 74.1058 167.894 74.1373Z" fill="#FCF6DE"/>
<path d="M169.113 79.2905C166.165 81.2888 163.507 84.121 162.186 87.4647C161.958 88.0469 162.815 88.4717 163.161 87.9603C165.135 85.073 167.006 82.2329 169.365 79.6288C169.514 79.4714 169.325 79.1488 169.113 79.2905Z" fill="#FCF6DE"/>
<path d="M142.577 100.855C142.137 102.649 141.751 104.34 141.633 106.189C141.61 106.598 142.262 106.653 142.349 106.252C142.718 104.45 142.797 102.704 142.852 100.871C142.852 100.721 142.616 100.713 142.577 100.855Z" fill="#FCF6DE"/>
<path d="M157.846 112.892C157.807 112.703 157.492 112.688 157.492 112.9C157.477 114.686 157.068 116.393 156.816 118.147C156.753 118.564 157.366 118.785 157.539 118.376C158.294 116.629 158.216 114.733 157.846 112.892Z" fill="#FCF6DE"/>
<path d="M163.861 125.865C163.845 125.212 163.947 124.489 163.609 123.906C163.539 123.781 163.366 123.765 163.279 123.883C162.87 124.434 162.886 125.157 162.792 125.826C162.689 126.566 162.611 127.305 162.642 128.045C162.674 128.753 163.649 128.831 163.743 128.115C163.853 127.368 163.877 126.621 163.861 125.865Z" fill="#FCF6DE"/>
<path d="M148.435 127.832C148.411 127.675 148.167 127.643 148.144 127.817C147.979 128.973 147.68 130.35 147.884 131.506C147.963 131.963 148.608 131.963 148.686 131.506C148.883 130.342 148.6 128.981 148.435 127.832Z" fill="#FCF6DE"/>
<path d="M155.715 104.663C155.66 104.529 155.456 104.521 155.385 104.639C155.078 105.151 155.047 105.843 154.976 106.417C154.905 106.976 154.882 107.511 154.898 108.069C154.905 108.596 155.645 108.699 155.731 108.148C155.81 107.613 155.873 107.102 155.88 106.559C155.88 105.961 155.951 105.221 155.715 104.663Z" fill="#FCF6DE"/>
<path d="M182.778 124.237C182.77 124.111 182.582 124.103 182.574 124.237C182.456 125.928 182.212 127.659 182.369 129.351C182.401 129.72 182.967 129.657 182.991 129.311C183.132 127.628 182.896 125.905 182.778 124.237Z" fill="#FCF6DE"/>
<path d="M187.873 121.782C187.543 120.264 187.299 118.604 186.694 117.172C186.623 116.999 186.324 117.054 186.332 117.243C186.348 118.785 186.788 120.366 187.095 121.869C187.197 122.364 187.983 122.278 187.873 121.782Z" fill="#FCF6DE"/>
<path d="M190.437 119.17C190.421 119.084 190.287 119.107 190.303 119.194C190.46 119.996 190.617 120.799 190.775 121.601C190.79 121.704 190.948 121.672 190.932 121.57L190.437 119.17Z" fill="#FCF6DE"/>
<path d="M192.795 116.189C192.536 115.488 192.276 114.78 192.017 114.08C191.923 113.828 191.522 113.907 191.6 114.182C191.82 114.922 192.048 115.661 192.268 116.401C192.379 116.739 192.921 116.527 192.795 116.189Z" fill="#FCF6DE"/>
<path d="M196.278 113.38C196.239 113.152 195.893 113.207 195.925 113.435C196.05 114.56 196.16 115.693 196.302 116.818C196.349 117.196 196.947 117.109 196.884 116.731C196.695 115.614 196.483 114.497 196.278 113.38Z" fill="#FCF6DE"/>
<path d="M196.624 122.962C196.278 121.971 196.098 120.94 196.176 119.894C196.184 119.792 196.019 119.76 196.003 119.863C195.767 120.964 195.791 122.018 196.192 123.072C196.286 123.348 196.719 123.238 196.624 122.962Z" fill="#FCF6DE"/>
<path d="M201.342 121.043C200.988 120.177 200.666 119.288 200.257 118.446C200.241 118.423 200.21 118.431 200.218 118.462C200.446 119.375 200.76 120.264 201.051 121.161C201.106 121.357 201.413 121.239 201.342 121.043Z" fill="#FCF6DE"/>
<path d="M168.681 109.784C168.649 109.611 168.421 109.627 168.413 109.8C168.335 111.185 168.248 112.538 168.374 113.923C168.421 114.434 169.168 114.34 169.16 113.836C169.129 112.467 168.901 111.138 168.681 109.784Z" fill="#FCF6DE"/>
<path d="M169.829 120.571C169.781 120.429 169.569 120.453 169.546 120.594C169.365 121.711 169.522 122.899 169.664 124.017C169.711 124.363 170.206 124.308 170.206 123.961C170.175 122.844 170.167 121.648 169.829 120.571Z" fill="#FCF6DE"/>
<path d="M174.358 117.904C173.532 119.398 173.092 121.145 173.493 122.836C173.579 123.222 174.13 123.128 174.09 122.734C173.933 121.09 173.972 119.571 174.57 118.014C174.633 117.872 174.436 117.762 174.358 117.904Z" fill="#FCF6DE"/>
<path d="M179.696 112.672C179.688 112.483 179.413 112.514 179.405 112.695C179.358 114.056 179.279 115.425 179.303 116.786C179.311 117.109 179.791 117.078 179.798 116.763C179.814 115.394 179.736 114.033 179.696 112.672Z" fill="#FCF6DE"/>
<path d="M177.015 124.473C177.007 124.323 176.803 124.331 176.787 124.473C176.685 125.913 176.496 127.368 176.535 128.816C176.551 129.288 177.243 129.248 177.259 128.792C177.306 127.352 177.125 125.905 177.015 124.473Z" fill="#FCF6DE"/>
<path d="M117.912 38.3643C116.481 36.9954 114.94 35.7995 113.202 34.8318C111.984 34.1474 109.814 32.7155 108.422 32.7313C107.054 32.747 107.007 33.9979 106.936 35.0757C106.794 37.3494 106.558 40.284 107.785 42.2901C107.872 42.4239 108.115 42.4396 108.162 42.2587C108.524 40.7796 107.227 33.5259 108.815 33.2269C109.185 33.1561 110.042 33.6832 110.419 33.8563C111.457 34.3362 112.424 34.9656 113.344 35.6422C114.712 36.6414 115.946 37.8136 117.071 39.0802C117.55 39.6231 118.415 38.8442 117.912 38.3643Z" fill="#FCF6DE"/>
<path d="M171.865 13.6371C171.22 11.6939 170.175 9.89224 168.909 8.28729C168.319 7.53989 166.849 5.32915 165.709 5.47863C164.663 5.62024 163.916 8.43677 163.704 9.1763C163.13 11.1353 162.729 13.3775 163.161 15.3994C163.201 15.5882 163.452 15.5882 163.499 15.3994C164.113 12.7324 164.223 9.91584 165.402 7.38254C166.33 5.39209 167.926 8.4525 168.508 9.36512C169.443 10.8206 170.096 12.3783 170.725 13.9754C171 14.6913 172.109 14.3766 171.865 13.6371Z" fill="#FCF6DE"/>
<path d="M74.4162 141.246C72.9302 141.097 71.6093 142.057 70.9331 143.339C70.8859 143.41 70.8309 143.481 70.7916 143.551C69.9031 145.015 69.3763 146.934 70.3277 148.492C71.224 149.963 73.0324 150.451 74.5185 149.546C75.9652 148.657 76.9716 146.73 77.1446 145.078C77.3175 143.347 76.2639 141.435 74.4162 141.246Z" fill="#31574A"/>
<path d="M62.2764 127.297C62.0091 127.006 61.5766 126.967 61.2307 127.132C60.1614 127.643 59.2178 128.312 58.9348 129.524C58.6753 130.633 59.0999 131.813 60.1378 132.34C61.7339 133.151 63.2042 131.813 63.1649 130.452C63.4007 129.296 63.0705 128.171 62.2764 127.297Z" fill="#31574A"/>
<path d="M46.9286 118.942C46.6063 117.62 45.8515 116.889 44.9394 116.613C44.507 116.236 43.9566 115.992 43.3197 115.937C41.2833 115.772 39.53 117.683 38.5865 119.273C37.5722 120.972 37.3442 123.198 38.7594 124.748C41.9988 128.281 47.8328 122.632 46.9286 118.942Z" fill="#31574A"/>
<path d="M35.9132 157.665C35.1348 155.486 32.7445 155.132 30.9361 156.021C30.3464 156.123 29.7646 156.367 29.2693 156.745C27.1542 158.35 26.5016 162.252 27.5867 164.612C28.7346 167.114 31.8561 167.5 33.46 165.242C34.262 164.117 34.8281 162.763 35.3942 161.513C35.9367 160.293 36.3771 158.971 35.9132 157.665Z" fill="#31574A"/>
<path d="M32.0605 196.027C31.9268 195.712 31.7539 195.429 31.5494 195.177C31.2035 194.005 30.2993 193.352 28.5695 193.816C26.3759 194.406 25.4009 197.286 24.9527 199.237C24.536 201.046 24.3552 203.524 26.3051 204.531C30.4801 206.671 33.3106 199.024 32.0605 196.027Z" fill="#31574A"/>
<path d="M45.8829 219.346C45.5606 218.858 45.1203 218.512 44.6328 218.315C43.9487 217.261 42.557 216.899 41.299 217.371C37.926 218.638 38.3663 223.445 41.4956 224.633C44.5935 225.805 47.7621 222.194 45.8829 219.346Z" fill="#31574A"/>
<path d="M97.2649 189.741C96.5258 189.536 95.7081 189.819 95.142 190.425C94.2535 191.385 94.0019 192.817 94.112 194.084C94.2142 195.264 94.7174 196.538 95.7474 197.199C96.8718 197.923 98.3578 197.624 99.0025 196.397C99.5293 195.397 99.8438 193.84 99.8753 192.722C99.9225 191.015 98.8531 189.756 97.2649 189.741Z" fill="#31574A"/>
<path d="M112.133 166.516C111.221 164.51 108.595 163.102 106.857 164.589C106.181 164.825 105.56 165.257 105.088 165.847C103.335 168.05 103.225 171.748 104.671 174.124C106.197 176.626 109.192 176.524 110.851 174.242C112.44 172.063 113.289 169.073 112.133 166.516Z" fill="#31574A"/>
<path d="M87.3974 218.26C86.7919 217.819 86.1079 217.631 85.416 217.646C84.5826 217.182 83.5447 217.119 82.5776 217.583C80.5726 218.559 80.1323 220.801 80.2503 222.839C80.3839 225.144 81.0837 227.866 83.6626 228.464C86.1629 229.046 87.6175 226.898 88.2858 224.821C88.962 222.737 89.4416 219.755 87.3974 218.26Z" fill="#31574A"/>
<path d="M111.669 211.463C110.671 211.242 109.829 211.628 109.271 212.304C108.957 212.517 108.666 212.776 108.414 213.06C107.14 214.515 107.015 216.97 108.045 218.575C108.878 219.881 110.505 220.589 111.96 219.857C113.548 219.055 113.957 217.182 113.941 215.546C113.934 213.941 113.493 211.872 111.669 211.463Z" fill="#31574A"/>
<path d="M141.814 192.542C140.603 191.086 138.968 191.078 137.6 191.818C132.599 192.376 130.17 202.132 135.186 204.154C140.352 206.247 144.778 196.113 141.814 192.542Z" fill="#31574A"/>
<path d="M143.277 168.208C142.899 166.658 141.649 165.682 140.257 165.548C140.242 165.541 140.226 165.533 140.21 165.517C138.04 164.416 136.153 166.681 135.508 168.459C134.651 170.828 134.156 174.03 135.666 176.201C137.057 178.207 139.707 177.633 141.012 175.808C142.325 173.951 143.843 170.529 143.277 168.208Z" fill="#31574A"/>
<path d="M164.655 182.928C164.553 182.794 164.435 182.668 164.293 182.558C162.886 181.409 161.046 182.424 160.323 183.801C159.529 185.296 158.955 187.302 159.977 188.82C160.85 190.126 162.564 190.551 163.9 189.678C164.977 188.978 165.638 187.499 165.858 186.271C166.078 185.02 165.693 183.651 164.655 182.928Z" fill="#31574A"/>
<path d="M112.581 139.216C112.094 137.596 110.537 136.581 109.019 137.218C108.005 137.423 107.046 138.233 106.653 139.256C106.236 140.349 105.977 141.773 105.898 142.93C105.835 143.913 106.126 144.96 106.889 145.628C108.493 147.029 110.828 146.234 111.897 144.598C112.911 143.04 113.108 140.979 112.581 139.216Z" fill="#31574A"/>
<path d="M153.765 140.719C152.767 140.467 151.918 140.617 151.226 141.018C150.856 141.089 150.487 141.23 150.141 141.451C146.06 144.086 148.112 152.497 153.553 150.797C157.736 149.507 158.396 141.907 153.765 140.719Z" fill="#31574A"/>
<path d="M175.309 154.385C174.916 154.157 174.475 154.007 174.004 153.976C169.844 153.716 168.791 160.686 171.59 162.834C175.049 165.478 177.731 159.939 177.66 157.162C177.62 155.746 176.638 154.581 175.309 154.385Z" fill="#31574A"/>
<path d="M89.1271 128.619C89.017 127.667 88.6868 126.707 88.1522 125.889C87.5389 124.512 86.1158 123.647 84.5668 123.568C80.0065 123.332 77.9387 130.137 80.8242 133.166C82.1058 134.512 84.1501 134.811 85.8484 134.181C88.1286 133.347 89.4023 131.011 89.1271 128.619Z" fill="#31574A"/>
<path d="M137.506 224.515C137.38 224.302 137.23 224.113 137.081 223.94C137.081 223.94 137.081 223.932 137.073 223.932C135.611 221.32 132.301 221.84 130.327 223.5C128.33 225.175 127.166 227.811 126.883 230.376C126.624 232.736 127.371 235.497 129.879 236.3C132.647 237.189 135.108 235.222 136.499 233.004C137.938 230.691 139.023 227.04 137.506 224.515Z" fill="#31574A"/>
<path d="M170.025 214.193C169.294 213.477 168.445 213.178 167.635 213.241C167.006 213.083 166.314 213.17 165.646 213.603C163.963 214.688 163.609 217.599 163.979 219.385C164.372 221.265 165.937 222.823 167.91 222.91C172.541 223.106 172.494 216.608 170.025 214.193Z" fill="#31574A"/>
<path d="M167.061 247.094C166.526 245.875 165.504 245.033 164.396 244.742C163.704 244.144 162.792 243.931 161.628 244.372C159.419 245.206 158.821 248.251 158.931 250.328C159.049 252.546 159.993 255.292 161.864 256.661C167.462 260.768 168.453 250.288 167.061 247.094Z" fill="#31574A"/>
<path d="M107.376 246.111C106.173 245.489 105.01 245.607 104.019 246.174C102.666 246.307 101.338 247.078 100.481 248.251C98.1376 251.453 98.5701 259.587 104.286 257.817C108.21 256.59 112.227 248.62 107.376 246.111Z" fill="#31574A"/>
<path d="M86.4067 290.829C85.7934 289.153 83.7255 288.162 82.1766 289.255C80.0694 290.75 80.9422 294.212 82.1687 295.958C82.8842 296.981 84.2602 297.083 84.9835 295.99C85.3295 295.463 85.5811 294.904 85.7462 294.33C86.4224 293.283 86.8627 292.088 86.4067 290.829Z" fill="#31574A"/>
<path d="M33.7981 296.045C30.9126 295.03 29.741 299.365 29.8826 301.458C30.0084 303.362 31.3922 305.95 33.6409 304.612C34.7495 303.952 35.1977 302.693 35.2763 301.387C35.8424 299.381 35.866 296.777 33.7981 296.045Z" fill="#31574A"/>
<path d="M152.586 282.387C151.084 280.46 148.419 280.507 146.532 281.821C143.167 284.149 142.145 290.577 146.288 292.748C149.197 294.275 152.075 291.387 152.853 288.351C153.663 286.392 153.993 284.204 152.586 282.387Z" fill="#31574A"/>
<path d="M168.468 392.114C166.967 390.186 164.301 390.233 162.414 391.547C159.049 393.876 158.027 400.304 162.171 402.475C165.08 404.001 167.957 401.114 168.736 398.077C169.554 396.11 169.876 393.923 168.468 392.114Z" fill="#31574A"/>
<path d="M115.231 313.55C115.176 313.282 115.097 313.015 114.987 312.763C114.948 312.527 114.877 312.283 114.767 312.031C114.193 310.71 112.668 310.002 111.3 310.6C108.493 311.827 108.155 317.027 110.891 318.467C112.196 319.151 113.729 318.782 114.618 317.617C115.538 316.445 115.514 314.95 115.231 313.55Z" fill="#31574A"/>
<path d="M69.5571 322.841C69.4549 322.22 69.2505 321.551 68.9596 320.922C68.936 319.6 68.4957 318.349 67.332 317.373C65.272 315.65 62.2607 316.524 60.8611 318.664C58.408 322.424 61.1599 331.22 66.7109 328.797C69.0146 327.79 69.9581 325.217 69.5571 322.841Z" fill="#31574A"/>
<path d="M103.233 372.067C102.541 369.699 99.8517 367.937 97.4536 368.913C96.0698 369.479 95.142 370.274 94.7253 371.753C94.4658 372.665 94.4186 373.625 94.4658 374.561C94.6388 377.85 96.4708 380.58 100.119 380.116C101.243 379.974 102.037 378.873 102.234 377.779C103.421 376.206 103.759 373.853 103.233 372.067Z" fill="#31574A"/>
<path d="M179.217 360.573C176.85 357.112 171.834 358.197 170.387 361.808C169.467 364.098 169.789 367.048 171.724 368.645C171.959 369.133 172.282 369.589 172.699 369.975C175.026 372.13 178.367 370.376 179.397 367.811C180.27 365.593 180.616 362.634 179.217 360.573Z" fill="#31574A"/>
<path d="M209.778 315.784C209.503 313.613 207.994 311.512 205.541 311.89C204.589 312.039 203.709 312.653 202.993 313.463C199.392 315.611 200.163 323.29 204.833 323.518C208.497 323.699 210.172 318.805 209.778 315.784Z" fill="#31574A"/>
<path d="M132.442 388.762C129.69 388.605 127.74 390.123 126.663 392.255C124.973 394.631 124.58 398.337 126.144 400.736C126.522 401.318 126.993 401.783 127.52 402.152L127.528 402.16C129.077 403.946 131.349 403.93 132.733 402.782C133.016 402.679 133.299 402.561 133.566 402.42C138.709 399.706 139.715 389.171 132.442 388.762Z" fill="#31574A"/>
<path d="M199.612 46.5857C199.612 46.5464 199.596 46.4992 199.596 46.4598C199.581 45.4764 199.156 44.5323 198.213 44.0446C198.095 43.9816 197.969 43.9344 197.835 43.8872C197.348 43.6433 196.766 43.5332 196.223 43.604C193.605 43.9423 190.499 47.1836 192.787 49.6855C193.566 50.543 194.533 50.8734 195.492 50.8262C196.082 50.8498 196.695 50.7082 197.246 50.4171C198.606 49.7012 199.707 48.1749 199.612 46.5857Z" fill="#D71D58"/>
<path d="M149.512 69.7552C146.886 68.52 142.207 71.2107 142.632 74.1216C142.616 74.57 142.687 75.0263 142.836 75.4669C143.45 77.2056 145.368 78.1182 147.129 77.8429C150.455 77.3315 153.412 71.5962 149.512 69.7552Z" fill="#D71D58"/>
</svg>
