<svg width="284" height="526" viewBox="0 0 284 526" fill="none" xmlns="http://www.w3.org/2000/svg">
<g clip-path="url(#clip0)">
<path d="M278.96 388.555C274.388 376.326 266.919 365.48 257.962 356.039C253.76 351.609 249.297 347.462 244.638 343.512C244.111 343.064 243.395 343.755 243.898 344.258C244.874 345.232 245.85 346.229 246.81 347.235C246.527 347.046 246.251 346.85 245.96 346.661C244.685 345.821 243.379 345.036 242.049 344.305C242.914 333.812 242.552 323.139 242.529 312.693C242.442 280.271 241.277 247.708 236.563 215.601C232.329 186.745 225.073 158.337 213.487 131.516C208.435 119.821 202.548 108.472 195.787 97.6729C191.065 87.4627 185.8 77.4802 179.952 67.804C173.136 56.5178 165.778 45.5693 158.01 34.9192C154.799 30.521 151.477 26.2091 148.14 21.9051C146.566 19.2504 144.984 16.5958 143.403 13.9411C141.577 10.8702 139.798 7.7757 137.878 4.75976C136.713 2.92977 135.359 0.0551925 132.809 0.0159223C131.896 0.000214287 131.023 0.424332 130.212 1.02909C129.952 1.08407 129.7 1.18617 129.48 1.3354C123.176 5.61584 118.359 11.5928 115.762 18.6378C114.644 20.5856 113.495 22.6512 112.732 24.764C103.484 26.7432 93.9849 25.518 84.6036 25.73C84.1471 25.298 83.6985 24.8896 83.3364 24.5126C81.3059 22.392 79.2281 20.3107 77.0796 18.3001C74.7342 16.101 72.3967 13.8704 70.012 11.687C69.5398 11.0822 69.0676 10.4696 68.5875 9.87273C67.1394 8.05059 65.5732 6.0164 63.0311 5.90644C60.2135 5.78863 59.1274 8.19197 58.5057 10.5089C57.7344 13.3521 57.0733 16.2345 56.5066 19.1326C55.4677 23.633 54.7279 28.1962 54.2793 32.8065C53.8071 37.6367 53.5159 42.6162 53.6812 47.5328C53.083 49.0643 52.4849 50.588 51.8867 52.1195C48.8645 59.8715 46.1021 67.6941 43.4026 75.556C38.0822 91.0598 33.8008 106.988 29.842 122.884C21.9796 154.418 16.0061 186.368 12.0001 218.625C8.11216 249.955 6.14459 281.504 6.00292 313.077C5.97144 320.916 6.0344 328.754 6.23903 336.585C6.42005 343.315 6.79782 350.156 8.7103 356.652C10.7251 363.477 14.2667 369.462 19.7681 374.064C24.7421 378.227 30.8494 380.716 36.9961 382.586C43.4734 384.557 50.171 385.664 56.8214 386.89C64.8806 388.374 72.9398 389.835 81.0147 391.202C97.377 393.958 113.818 396.267 130.369 397.563C146.566 398.828 162.874 399.048 179.063 397.516C192.977 396.197 207.915 394.32 220.146 387.039C228.669 381.965 234.367 374.253 237.775 365.385C240.75 370.113 243.749 374.849 246.212 379.86C248.967 385.468 251.045 391.5 250.832 397.822C250.643 403.383 248.447 408.637 245.315 413.185C238.468 423.12 227.174 428.712 215.998 432.38C203.225 436.566 189.916 439.339 176.655 441.459C149.714 445.763 122.389 446.816 95.1576 447.703C81.3216 448.159 67.4857 448.559 53.6654 449.227C46.7711 449.557 39.8767 449.973 32.998 450.515C27.3708 450.963 21.7435 451.458 16.3366 453.178C11.2367 454.796 6.35709 457.89 3.62609 462.602C0.737697 467.582 0.328441 473.449 1.76871 478.962C4.74368 490.335 13.5427 499.21 22.6958 506.074C42.6864 521.052 68.4065 526.354 92.9775 526.008C107.278 525.804 121.507 523.966 135.587 521.571C148.148 519.434 160.654 516.897 172.987 513.677C197.81 507.206 221.924 497.529 242.883 482.56C261.787 469.058 279.26 449.91 283.1 426.238C285.139 413.57 283.447 400.524 278.96 388.555Z" fill="#72A797"/>
<path d="M118.745 79.4749C117.273 80.7787 116.391 80.9279 116.1 79.9226C116.029 79.7341 115.959 79.5456 115.896 79.3571C115.707 78.8152 115.534 78.2654 115.368 77.7156C114.951 76.349 114.581 74.9746 114.243 73.5844C113.684 71.2989 113.354 68.9898 112.897 66.6807C112.881 66.5943 112.826 66.5472 112.755 66.5236C114.455 66.4215 115.51 63.0522 115.927 61.7955C115.998 61.5835 115.919 61.3086 115.683 61.23C113.212 60.4289 110.851 60.4682 108.435 61.4499C108.261 61.5206 108.23 61.6856 108.285 61.8191C108.073 61.8505 107.86 61.8741 107.648 61.8976C107.191 61.9447 106.829 62.4867 107.136 62.9029C108.348 64.5209 110.418 66.3666 112.567 66.5394C112.496 66.5708 112.441 66.6336 112.441 66.7357C112.464 68.6364 112.7 70.5528 113.007 72.4299C112.858 73.3645 112.677 74.2913 112.59 75.2181C112.527 75.9014 112.472 76.5925 112.401 77.2758C112.378 77.5114 112.362 77.7471 112.338 77.9905C113.039 80.6295 112.307 81.6348 110.15 81.0065C110.064 80.8258 109.828 80.8965 109.828 81.085C109.843 82.8836 111.583 84.5172 112.936 82.5302C113.763 81.3128 113.904 79.2158 113.975 77.5664C114.243 78.7131 114.581 79.8441 115.046 80.8572C115.51 81.8704 116.36 82.6872 117.556 82.4045C118.847 82.0982 119.28 80.8337 119.689 79.7263C119.917 79.1294 118.965 78.878 118.745 79.4749ZM112.149 65.377C110.874 65.0471 109.639 63.8768 108.734 62.8087C110.442 62.1961 112.511 62.149 114.266 62.2196C114.558 62.2275 114.747 62.0783 114.833 61.8898C114.873 61.9055 114.92 61.9133 114.959 61.929C114.723 62.5574 114.455 63.1778 114.125 63.7669C113.66 64.568 113.157 65.644 112.149 65.377Z" fill="#FCF6DE"/>
<path d="M135.091 46.7786C132.596 46.3388 130.078 46.6215 127.756 47.6426C125.962 48.4358 123.766 49.8338 122.837 51.6874C122.412 52.0094 122.554 52.8498 123.231 52.8576C127.693 52.9126 133.801 52.4021 135.414 47.3363C135.485 47.1163 135.327 46.8179 135.091 46.7786ZM130.094 50.6664C130.55 50.2658 130.755 49.5904 130.353 48.9542C130.29 48.8521 130.204 48.7578 130.117 48.6793C129.842 48.2002 129.228 47.9646 128.701 48.1217C127.52 48.4908 127.378 50.1401 128.378 50.7999C128.543 50.9098 128.716 50.9727 128.882 51.0041C127.166 51.4046 125.309 51.491 123.53 51.546C124.026 51.0355 124.498 50.5093 125.065 50.0616C125.977 49.3312 126.993 48.7421 128.079 48.2944C130.039 47.4933 132.156 47.2342 134.241 47.5483C133.202 49.1584 131.746 50.1009 130.094 50.6664Z" fill="#294F42"/>
<path d="M91.4033 54.1143C87.3029 50.7449 81.0539 52.1822 77.3391 55.5908C76.9141 55.9835 77.1974 56.7375 77.6382 56.9025C82.4863 58.6696 87.5469 58.2141 91.844 55.0568C92.2848 54.7347 91.8598 53.9022 91.4033 54.1143ZM85.2723 56.3134C85.595 56.0935 85.8311 55.6929 85.8075 55.1981C85.7918 54.8133 85.595 54.4913 85.3196 54.3028C85.1071 53.9729 84.7136 53.8629 84.3594 53.9965C83.5251 54.3185 83.3756 55.5908 84.0288 56.2192C84.1154 56.3055 84.2099 56.3684 84.3043 56.4076C82.6594 56.5255 81.0066 56.3684 79.409 55.8893C80.9201 54.8683 82.5414 54.1457 84.32 53.8158C86.6103 53.3917 88.8533 53.7923 91.0964 54.2792C89.2704 55.3316 87.2871 56.0307 85.2723 56.3134Z" fill="#294F42"/>
<path d="M98.219 288.934C95.8343 315.331 90.5848 341.438 82.5965 366.712C80.4715 373.436 78.134 380.08 75.6076 386.662C74.2776 385.374 72.9396 384.086 71.6095 382.805C71.216 382.421 70.3896 382.633 70.3267 383.222C70.1614 383.245 69.9961 383.269 69.8308 383.3C69.2484 383.559 69.0832 383.332 69.335 382.609C69.2563 382.279 69.335 381.808 69.335 381.462C69.335 380.567 69.3429 379.679 69.3429 378.784C69.3429 377.001 69.3429 375.218 69.3429 373.436C69.335 369.799 69.3193 366.155 69.2957 362.518C69.2406 355.387 69.1461 348.256 69.0045 341.124C68.7211 326.578 68.1938 312.025 67.4225 297.495C66.9897 289.335 66.5017 281.182 65.9587 273.037C65.9351 272.684 65.392 272.723 65.4077 273.077C66.9267 306.307 67.7295 339.6 67.698 372.87C67.698 375.171 67.6901 377.472 67.6744 379.782C67.6665 381.125 67.1235 383.622 67.9498 384.777C68.792 385.939 70.4605 385.656 71.3262 384.706C72.6799 386.002 74.0336 387.29 75.3873 388.586C75.8438 389.018 76.4655 388.735 76.6623 388.217C86.1853 363.437 93.1269 337.755 97.1014 311.507C98.219 304.124 99.1005 296.71 99.7616 289.28C99.8403 288.266 98.3056 287.929 98.219 288.934Z" fill="#294F42"/>
<path d="M162.417 265.191C159.033 296.812 155.664 328.432 152.241 360.052C151.312 368.629 150.36 377.205 149.376 385.782C149.053 385.578 148.77 385.319 148.542 385.028C148.549 384.015 148.219 382.994 147.597 382.051C147.093 381.29 145.677 381.706 145.669 382.625C145.661 383.591 145.866 384.494 146.244 385.295C145.653 384.73 145.055 384.164 144.465 383.591C143.993 383.135 143.292 383.206 142.836 383.63C142.08 384.321 141.301 384.989 140.53 385.664C133.265 357.9 129.496 329.571 128.968 300.872C128.811 292.335 128.882 283.845 129.44 275.315C129.448 275.158 129.212 275.166 129.196 275.315C127.851 290.089 127.134 304.909 127.866 319.73C128.59 334.519 130.298 349.261 133.014 363.814C134.548 372.037 136.398 380.19 138.601 388.264C138.853 389.175 139.979 389.536 140.687 388.877C141.702 387.934 142.678 386.96 143.678 386.002C144.402 386.67 145.118 387.337 145.842 388.005C146.401 388.523 147.18 388.452 147.621 387.832C147.739 387.667 147.841 387.502 147.936 387.329C148.542 387.777 149.258 388.107 150.068 388.295C150.58 388.413 151.241 388.02 151.296 387.471C154.444 355.67 158.01 323.908 161.441 292.138C162.401 283.24 163.361 274.333 164.329 265.435C164.44 264.21 162.543 263.974 162.417 265.191Z" fill="#294F42"/>
<path d="M140.404 59.3922C138.609 58.6382 136.642 59.0387 135.272 60.4368C134.595 61.1201 134.005 61.7327 132.856 61.4813C132.352 61.3714 131.817 60.6802 131.337 60.4525C130.605 60.099 129.873 59.9341 129.094 60.264C128.386 60.5624 127.992 61.1907 127.552 61.7876C126.473 63.2249 125.434 62.0154 124.096 61.9683C123.239 61.9369 122.404 62.3924 122.853 63.3349C122.877 63.382 122.955 63.3663 122.947 63.3113C123.404 63.115 123.868 62.9108 124.325 62.7144C124.514 62.9265 124.718 63.1228 124.931 63.3035C125.198 63.5234 125.49 63.7669 125.82 63.8768C126.253 64.026 126.725 64.026 127.158 63.8768C127.63 63.7119 127.984 63.3506 128.315 62.9972C128.583 62.6987 128.779 62.2746 129.102 62.039C129.802 61.5363 130.857 61.9447 131.573 62.3374C132.573 62.8872 133.533 63.6491 134.737 63.0679C135.367 62.7616 135.642 62.1646 136.075 61.662C137.122 60.4682 138.578 60.1854 140.097 60.4603C140.726 60.5624 140.978 59.6357 140.404 59.3922Z" fill="#294F42"/>
<path d="M138.145 66.3037C137.578 66.6964 137.177 67.2776 136.602 67.6468C135.729 68.2044 134.359 68.2437 133.47 67.9295C133.084 67.7881 132.762 67.4504 132.329 67.3719C130.857 67.1127 130.259 68.3929 129.047 68.8406C127.922 69.2568 123.018 66.2644 123.105 69.3982C123.113 69.571 123.333 69.571 123.404 69.4532C124.285 68.0395 127.615 70.5292 129.047 70.325C129.614 70.2464 130.07 69.9401 130.542 69.6417C131.526 69.0134 131.959 69.0762 133.077 69.5553C135.422 70.5685 137.964 69.4532 139.231 67.2541C139.648 66.5079 138.814 65.8403 138.145 66.3037Z" fill="#294F42"/>
<path d="M138.287 75.3202C136.351 75.383 134.997 74.3305 133.171 74.1185C132.368 74.0242 131.739 74.2599 130.983 74.4484C129.692 74.7704 129.055 74.362 127.882 73.8672C126.709 73.3645 124.553 72.7833 124.136 74.5269C124.12 74.5976 124.183 74.6604 124.254 74.629C126.111 73.7651 127.142 75.2887 128.575 76.0113C129.315 76.3883 130.015 76.4119 130.826 76.3412C131.92 76.2391 132.722 75.8778 133.832 76.2469C134.407 76.4433 134.942 76.7339 135.524 76.9224C136.697 77.2994 137.665 77.3386 138.68 76.5689C139.137 76.2234 138.916 75.2966 138.287 75.3202Z" fill="#294F42"/>
<path d="M102.312 63.5548C101.265 62.8323 99.8954 62.4945 98.6204 62.5417C97.0306 62.5888 96.1019 63.6334 94.6459 63.9397C93.3394 64.2146 93.607 63.9868 92.6626 63.6569C92.2848 63.5234 91.9306 63.4606 91.5293 63.4998C89.9552 63.6569 88.5858 65.856 86.8307 64.7329C86.8071 64.7172 86.7835 64.7565 86.8071 64.7722C87.4131 65.3298 88.0349 65.4005 88.8298 65.1963C89.3649 65.0549 89.8057 64.6937 90.333 64.5366C91.6237 64.1517 92.513 64.7015 93.5283 65.2827C94.3075 65.7304 95.0158 65.7304 95.8028 65.2984C96.8338 64.7329 97.4635 63.9946 98.7384 63.9554C99.8875 63.9161 100.926 64.4188 102.068 64.4816C102.595 64.5052 102.689 63.814 102.312 63.5548Z" fill="#294F42"/>
<path d="M102.343 68.173C101.037 69.8145 99.3208 70.5999 97.2195 70.1365C95.7635 69.8066 94.7639 69.4296 93.3551 70.0658C91.97 70.6941 90.876 71.2596 89.4121 70.7962C89.0107 70.6706 88.6015 70.5292 88.1765 70.4821C86.9881 70.3407 86.0909 70.7648 85.2251 71.5345C85.1071 71.6366 85.2724 71.8016 85.3983 71.7309C87.8381 70.3878 89.0501 72.2649 91.2538 72.367C91.8598 72.3985 92.3556 72.2178 92.8829 71.9351C94.2366 71.2125 95.1574 70.969 96.6449 71.346C99.2579 72.0215 101.887 71.2361 103.406 68.9191C103.799 68.2987 102.799 67.5997 102.343 68.173Z" fill="#294F42"/>
<path d="M105.137 74.6526C103.996 73.7258 102.988 74.2991 101.808 74.896C100.517 75.5558 99.7065 75.5558 98.337 75.5165C97.6208 75.493 96.8889 75.5401 96.2593 75.9249C95.4408 76.4197 95.1338 77.5271 94.3389 77.9905C93.245 78.6267 91.8598 78.2497 90.6871 78.289C89.6168 78.3283 88.7746 78.6346 88.1214 79.4985C88.0033 79.6477 88.2001 79.8519 88.3575 79.7341C90.0417 78.4382 92.0723 79.8598 93.8903 79.5378C94.9371 79.3493 95.3385 78.7916 96.1097 78.1633C97.369 77.1423 97.9435 77.1187 99.431 77.1737C99.9111 77.1894 100.352 77.2051 100.832 77.0952C102.264 76.7575 103.162 75.5401 104.743 75.6972C105.334 75.7521 105.562 74.9982 105.137 74.6526Z" fill="#294F42"/>
<path d="M66.7299 99.8169C66.5174 99.055 65.6438 98.9608 65.1716 99.5341C64.7545 100.045 64.4554 100.618 64.2902 101.238C63.6999 102.236 63.5346 103.477 63.8337 104.639C63.9517 105.095 64.6207 105.346 64.9985 105.048C66.5804 103.791 67.273 101.773 66.7299 99.8169Z" fill="#FCF6DE"/>
<path d="M80.3928 112.022C80.3692 111.629 80.0701 110.954 80.2433 110.577C80.44 110.153 80.3456 109.737 80.1016 109.446C80.1252 109.36 80.1488 109.273 80.1724 109.187C80.6053 108.378 79.1965 107.647 78.74 108.535C78.5118 108.983 78.2993 109.446 78.0947 109.909C78.0238 109.988 77.953 110.074 77.89 110.168C77.7798 110.333 77.7326 110.53 77.7405 110.726C77.5831 111.103 77.4257 111.488 77.2762 111.865C76.922 112.768 76.9771 113.852 78.0553 114.205C78.7951 114.449 79.6845 114.119 80.0858 113.451C80.3534 113.035 80.4243 112.517 80.3928 112.022Z" fill="#FCF6DE"/>
<path d="M90.8918 93.3687C90.758 93.2823 90.6084 93.2116 90.4668 93.1566C90.3566 92.7639 89.8686 92.5597 89.4515 92.8739C89.3098 92.9839 89.1682 93.1017 89.0344 93.2273C88.8534 93.3294 88.6802 93.463 88.5307 93.6436C88.3733 93.8321 88.2788 94.0206 88.208 94.2012C87.4525 95.3322 87.0668 96.7616 87.5469 98.0104C88.2395 99.8012 90.2228 99.4242 91.1043 98.034C91.9621 96.6988 92.4737 94.3976 90.8918 93.3687Z" fill="#FCF6DE"/>
<path d="M51.4143 105.378C50.4384 105.134 49.4389 105.715 48.9982 106.579C48.8644 106.831 48.7935 107.09 48.7542 107.349C47.9908 108.645 47.5972 110.239 48.3213 111.48C48.7542 112.218 49.5806 112.533 50.3833 112.195C51.2333 111.834 51.7528 110.867 52.1463 110.09C52.8389 108.708 53.5472 105.912 51.4143 105.378Z" fill="#FCF6DE"/>
<path d="M133.407 16.2186C132.919 14.9698 132.203 12.9827 130.629 12.7785C129.291 12.6057 128.48 13.8074 128.016 14.8834C126.946 17.3653 126.332 20.0121 125.671 22.6196C125.615 22.8317 125.93 22.8788 126.017 22.706C126.072 22.5961 127.134 23.0909 127.197 22.9809C127.315 23.1144 126.473 22.6196 126.709 22.6667C129.008 23.1616 131.321 23.5621 133.651 23.8684C134.32 23.9548 134.918 23.515 134.902 22.8081C134.871 20.5147 134.241 18.347 133.407 16.2186Z" fill="#FCF6DE"/>
<path d="M73.2859 26.421C72.9239 24.7088 71.3892 22.8081 70.3031 21.4965C69.0832 20.0199 67.6744 18.724 66.124 17.6009C65.7147 17.3024 65.093 17.5066 65.0221 18.0329C64.4712 21.952 64.5027 25.7534 64.9749 29.6411C64.5971 30.0417 64.7467 30.6857 65.1638 31.0156C65.1716 31.0627 65.1717 31.102 65.1795 31.1491C65.211 31.3455 65.4471 31.3376 65.5179 31.1962C65.699 31.2433 65.9036 31.2433 66.124 31.157C68.06 30.4422 70.1299 29.7825 71.9716 28.84C72.9711 28.3217 73.5299 27.5834 73.2859 26.421Z" fill="#FCF6DE"/>
<path d="M111.536 102.134C110.748 101.144 109.245 101.168 108.584 102.212C107.687 102.864 107.6 104.254 107.663 105.252C107.734 106.454 108.08 108.488 109.513 108.763C112.315 109.312 112.748 103.657 111.536 102.134Z" fill="#FCF6DE"/>
<path d="M134.926 92.921C134.407 91.79 133.084 91.2874 131.951 91.8058C131.487 92.0178 131.077 92.4027 130.81 92.8503C130.408 93.408 130.212 94.1463 130.149 94.8217C130.039 95.9998 130.125 97.3821 131.172 98.144C132.329 98.9765 133.895 98.4424 134.627 97.3193C135.375 96.1883 135.493 94.1541 134.926 92.921Z" fill="#FCF6DE"/>
<path d="M126.261 128.052C126.174 127.864 126.072 127.683 125.938 127.518C124.474 125.633 122.192 127.157 121.35 128.783C120.201 130.99 120.311 134.43 122.2 136.236C124.521 138.443 126.363 135.875 126.93 133.699C127.394 131.948 127.772 129.364 126.261 128.052Z" fill="#FCF6DE"/>
<path d="M97.2667 131.186C97.7468 129.324 97.8727 127.408 96.9676 125.609C95.8658 123.426 93.0324 122.107 90.9783 123.905C88.9005 125.727 88.0899 130.055 88.57 132.647C89.0816 135.388 91.9463 138.278 94.7246 136.063C94.9134 135.914 95.0787 135.749 95.2519 135.576C95.913 135.144 96.4403 134.414 96.6921 133.361C96.7079 133.314 96.7157 133.251 96.7315 133.196C96.9755 132.552 97.1565 131.869 97.2667 131.186Z" fill="#FCF6DE"/>
<path d="M67.9341 143.328C67.8633 143.21 67.7925 143.108 67.7216 143.014C67.698 142.951 67.6823 142.88 67.6587 142.818C66.6906 140.399 63.8652 141.082 62.724 142.935C61.5356 144.868 61.024 148.206 62.0393 150.303C63.1569 152.604 65.9823 152.541 67.3281 150.475C68.485 148.685 69.0438 145.221 67.9341 143.328Z" fill="#FCF6DE"/>
<path d="M90.6005 163.215C89.6482 161.118 87.1927 160.434 85.3825 161.95C83.5724 163.466 83.1867 166.348 83.6589 168.54C84.0367 170.322 85.4455 173.598 87.6807 173.566C89.3255 173.543 89.9316 171.87 90.1283 170.181C91.1515 168.123 91.5607 165.327 90.6005 163.215Z" fill="#FCF6DE"/>
<path d="M53.2875 88.6406C53.0042 89.8737 52.65 91.0753 52.2722 92.2849C52.2014 92.5205 52.5477 92.654 52.6343 92.4184C53.0593 91.2324 53.4921 90.0543 54.0037 88.9076C54.2319 88.3893 53.4134 88.0908 53.2875 88.6406Z" fill="#FCF6DE"/>
<path d="M43.7329 93.2352C42.9774 94.6175 42.7413 96.3454 42.4894 97.8769C42.4422 98.1597 42.8593 98.3403 42.9853 98.0497C43.6385 96.6124 44.3862 95.0573 44.5357 93.4629C44.5829 92.9681 43.9612 92.8111 43.7329 93.2352Z" fill="#FCF6DE"/>
<path d="M63.5819 86.4964C63.3379 87.5253 63.1726 88.5699 62.9837 89.6145C62.9365 89.8579 63.2985 89.8972 63.3851 89.7009C63.7944 88.7113 64.243 87.7295 64.605 86.7242C64.8096 86.1037 63.7393 85.8288 63.5819 86.4964Z" fill="#FCF6DE"/>
<path d="M71.3026 90.2742C71.1845 90.9182 71.216 91.5701 71.2081 92.222C71.2081 92.5676 71.7591 92.5519 71.8063 92.2299C71.8928 91.6173 72.0266 91.0046 72.0109 90.3842C72.003 89.9836 71.3813 89.8501 71.3026 90.2742Z" fill="#FCF6DE"/>
<path d="M158.946 453.13C157.907 452.848 156.994 453.429 156.018 453.767C155.066 454.096 154.082 454.324 153.154 454.717C152.792 454.866 152.996 455.361 153.343 455.329C154.492 455.235 155.617 454.921 156.758 454.756C157.593 454.638 158.442 454.685 159.08 454.096C159.363 453.845 159.403 453.256 158.946 453.13Z" fill="#292121"/>
<path d="M172.042 463.246C170.201 463.231 168.359 463.451 166.533 463.647C166.313 463.67 166.329 464.008 166.541 464.032C168.335 464.22 170.153 464.44 171.964 464.432C172.719 464.424 172.814 463.254 172.042 463.246Z" fill="#292121"/>
<path d="M186.673 450.397C185.965 450.46 185.516 450.751 184.918 451.104C184.328 451.45 183.698 451.764 183.139 452.156C182.911 452.314 183.053 452.636 183.32 452.596C183.958 452.502 184.588 452.321 185.209 452.172C185.941 451.999 186.484 451.929 187.082 451.457C187.492 451.135 187.201 450.35 186.673 450.397Z" fill="#292121"/>
<path d="M195.087 464.621C193.576 464.754 191.986 465.328 190.616 465.979C190.459 466.058 190.475 466.349 190.679 466.349C192.182 466.356 193.882 466.192 195.299 465.657C195.85 465.438 195.708 464.566 195.087 464.621Z" fill="#292121"/>
<path d="M205.09 452.086C204.224 451.991 203.602 452.408 202.847 452.793C202.036 453.209 201.21 453.586 200.375 453.947C199.99 454.12 200.265 454.756 200.659 454.63C201.501 454.363 202.335 454.096 203.201 453.892C204.011 453.696 204.806 453.586 205.397 452.958C205.656 452.675 205.499 452.125 205.09 452.086Z" fill="#292121"/>
<path d="M220.146 440.69C219.296 441.129 218.627 441.828 217.808 442.323C216.974 442.826 216.045 443.25 215.132 443.564C214.833 443.666 214.928 444.13 215.242 444.106C217.147 443.957 219.784 443.093 220.72 441.255C220.878 440.925 220.468 440.517 220.146 440.69Z" fill="#292121"/>
<path d="M222.515 458.817C220.728 459.241 218.816 460.136 217.21 461.039C217.131 461.079 217.155 461.228 217.249 461.22C219.052 461.063 221.2 460.717 222.884 460.034C223.64 459.728 223.325 458.62 222.515 458.817Z" fill="#292121"/>
<path d="M240.695 430.699C239.381 431.862 238.216 433.008 236.563 433.707C236.248 433.841 236.39 434.281 236.72 434.21C238.483 433.849 240.38 433.079 241.561 431.673C242.033 431.131 241.277 430.189 240.695 430.699Z" fill="#292121"/>
<path d="M246.55 459.311C245.881 459.178 245.323 459.736 244.811 460.097C243.993 460.67 243.284 461.228 242.552 461.895C242.261 462.155 242.576 462.594 242.922 462.453C243.819 462.076 244.63 461.676 245.48 461.189C246.047 460.867 246.771 460.6 246.952 459.924C247.031 459.602 246.85 459.366 246.55 459.311Z" fill="#292121"/>
<path d="M237.138 447.79C236.5 447.648 235.988 448.041 235.422 448.316C234.981 448.528 234.572 448.787 234.155 449.046C233.934 449.18 234.06 449.517 234.32 449.47C234.942 449.36 235.548 449.243 236.154 449.078C236.626 448.944 237.075 448.905 237.366 448.489C237.523 448.261 237.429 447.852 237.138 447.79Z" fill="#292121"/>
<path d="M205.184 474.399C204.547 474.258 203.972 474.501 203.366 474.682C202.847 474.831 202.351 475.02 201.847 475.216C201.493 475.349 201.682 475.836 202.012 475.813C202.563 475.781 203.091 475.734 203.642 475.656C204.232 475.569 204.838 475.561 205.334 475.184C205.586 474.988 205.53 474.478 205.184 474.399Z" fill="#292121"/>
<path d="M225.458 473.527C223.868 474.258 222.396 475.067 220.917 476.009C220.752 476.111 220.893 476.386 221.074 476.347C222.782 475.962 224.372 475.491 226.017 474.902C227.024 474.54 226.45 473.072 225.458 473.527Z" fill="#292121"/>
<path d="M207.293 486.015C206.27 486.282 205.467 486.973 204.602 487.562C203.799 488.112 203.083 488.693 202.406 489.385C202.13 489.667 202.422 490.068 202.776 489.942C203.783 489.589 204.673 489.102 205.586 488.56C206.396 488.073 207.262 487.672 207.86 486.926C208.159 486.549 207.781 485.889 207.293 486.015Z" fill="#292121"/>
<path d="M184.509 477.541C183.336 477.816 182.345 478.609 181.384 479.3C181.203 479.426 181.384 479.716 181.573 479.669C182.722 479.41 183.942 479.214 184.942 478.546C185.406 478.24 185.06 477.407 184.509 477.541Z" fill="#292121"/>
<path d="M182.872 492.935C182.47 493.17 182.077 493.406 181.676 493.641C181.463 493.767 181.4 493.995 181.447 494.183C180.904 494.592 180.33 494.945 179.724 495.212C179.535 495.299 179.598 495.636 179.81 495.621C181.29 495.526 182.62 494.898 183.557 493.728C183.942 493.249 183.391 492.62 182.872 492.935Z" fill="#292121"/>
<path d="M170.46 506.53C169.264 506.31 168.044 507.056 166.958 507.519C165.927 507.959 164.762 508.321 163.936 509.082C163.708 509.294 163.873 509.703 164.18 509.703C165.416 509.719 166.683 509.106 167.832 508.698C168.831 508.344 170.043 508.109 170.704 507.229C170.878 507.017 170.752 506.585 170.46 506.53Z" fill="#292121"/>
<path d="M161.536 491.654C160.434 492.298 159.174 493.068 158.222 493.924C158.025 494.105 158.269 494.435 158.498 494.356C159.733 493.932 161.024 493.202 162.149 492.55C162.763 492.188 162.134 491.301 161.536 491.654Z" fill="#292121"/>
<path d="M153.256 475.766C151.635 476.928 150.068 478.13 148.636 479.512C148.534 479.606 148.66 479.803 148.794 479.74C150.58 478.915 152.241 477.918 153.886 476.842C154.57 476.402 153.909 475.302 153.256 475.766Z" fill="#292121"/>
<path d="M131.77 464.259C130.645 464.621 129.527 464.982 128.425 465.422C128.284 465.477 128.339 465.689 128.488 465.65C129.653 465.406 130.794 465.1 131.943 464.778C132.297 464.684 132.108 464.15 131.77 464.259Z" fill="#292121"/>
<path d="M246.936 345.499L241.325 340.724L239.711 343.81C239.711 343.81 246.369 348.036 246.267 348.106C246.165 348.177 247.715 347.808 247.715 347.808L246.936 345.499Z" fill="#F7982C"/>
<path d="M118.949 157.191C118.351 156.138 117.131 155.793 116.187 156.57C115.817 156.609 115.463 156.782 115.172 157.12C114.322 158.109 114.455 159.939 114.534 161.133C114.613 162.225 114.943 163.772 116.297 163.874C117.643 163.976 118.516 162.453 118.941 161.377C119.429 160.112 119.65 158.416 118.949 157.191Z" fill="#FCF6DE"/>
<path d="M148.298 116.742C148.243 116.067 148.101 115.399 147.833 114.779C147.219 113.365 145.708 112.886 144.449 113.852C144.182 114.056 143.953 114.323 143.741 114.645C143.638 114.755 143.544 114.873 143.465 114.999C143.127 115.509 142.962 116.138 142.93 116.797C142.474 119.232 143.15 122.138 145.488 122.421C148.006 122.735 148.778 119.326 148.298 116.742Z" fill="#FCF6DE"/>
<path d="M158.521 99.5498C157.836 98.7095 156.648 98.5916 155.822 99.2985C155.68 99.4163 155.57 99.5498 155.468 99.6833C154.633 100.39 154.539 102.102 154.736 103.076C154.956 104.152 155.948 105.158 157.12 104.906C159.072 104.498 159.631 100.924 158.521 99.5498Z" fill="#FCF6DE"/>
<path d="M170.193 85.7424C170.24 84.6586 170.24 83.1742 168.863 82.9543C168.721 82.9307 168.587 82.9307 168.461 82.9386C167.8 82.483 166.982 82.6951 166.643 83.504C166.171 84.6507 166.407 86.1509 166.824 87.274C167.178 88.2086 168.131 89.3553 169.256 88.8605C169.949 88.5542 170.122 87.7688 170.169 86.9991C170.287 86.5671 170.287 86.143 170.193 85.7424Z" fill="#FCF6DE"/>
<path d="M175.836 114.308C175.789 114.127 175.718 113.946 175.592 113.766C175.135 113.098 174.207 112.784 173.49 113.239C171.751 114.347 172.231 117.913 173.191 119.35C173.278 119.476 173.372 119.593 173.467 119.695C173.569 119.853 173.672 120.01 173.79 120.159C174.207 120.701 174.844 120.701 175.293 120.324C176.088 120.151 176.796 119.468 177.032 118.455C177.378 116.962 176.851 115.407 175.836 114.308Z" fill="#FCF6DE"/>
<path d="M188.224 101.128C188.058 100.869 187.838 100.649 187.578 100.492C187.539 100.32 187.484 100.162 187.405 100.005C186.901 99.0079 185.556 99.0629 184.934 99.9111C184.257 100.846 184.399 102.621 184.887 103.61C185.422 104.702 186.76 105.197 187.744 104.364C188.649 103.61 188.838 102.11 188.224 101.128Z" fill="#FCF6DE"/>
<path d="M162.929 131.225C162.779 130.982 162.59 130.785 162.385 130.636C161.945 129.968 161.15 129.599 160.331 129.921C159.072 130.416 158.812 131.861 158.915 133.055C158.883 133.44 158.891 133.817 158.938 134.163C159.017 134.72 159.292 135.246 159.686 135.6C159.946 135.945 160.3 136.212 160.78 136.354C163.535 137.163 163.92 132.835 162.929 131.225Z" fill="#FCF6DE"/>
<path d="M145.59 148.072C144.37 147.609 143.402 148.284 142.899 149.274C141.285 151.308 141.718 156.35 144.85 156.217C145.606 156.185 146.251 155.848 146.731 155.345C146.763 155.455 146.944 155.439 146.944 155.321C146.944 155.251 146.944 155.172 146.944 155.101C147.408 154.512 147.692 153.75 147.739 153.004C147.841 151.402 147.267 148.708 145.59 148.072Z" fill="#FCF6DE"/>
<path d="M172.995 155.376C172.806 155.196 172.593 155.039 172.365 154.921C171.948 154.316 171.271 153.955 170.476 154.379C170.138 154.559 169.878 154.834 169.689 155.164C169.618 155.227 169.555 155.298 169.492 155.376C168.886 156.115 168.847 156.986 169.107 157.795C169.091 158.172 169.091 158.526 169.091 158.832C169.083 160.206 169.288 162.084 171.003 162.28C174.199 162.641 174.726 157.057 172.995 155.376Z" fill="#FCF6DE"/>
<path d="M190.034 140.155C189.813 139.275 188.963 138.545 188.058 138.427C187.46 138.113 186.689 138.231 186.13 138.655C185.131 139.417 185.076 141.003 185.8 141.969C186.484 142.881 187.704 143.187 188.743 142.692C189.68 142.252 190.294 141.2 190.034 140.155Z" fill="#FCF6DE"/>
<path d="M99.0375 91.0989C99.0375 91.0361 98.9352 91.0361 98.9273 91.0989C98.7699 93.0074 98.5574 94.9238 98.5102 96.8402C98.5023 97.2565 99.1477 97.1936 99.1556 96.7774C99.2107 94.8845 99.0926 92.9917 99.0375 91.0989Z" fill="#FCF6DE"/>
<path d="M104.429 92.8111C104.405 92.6618 104.153 92.599 104.137 92.7797C104.012 94.1148 103.862 95.4736 104.012 96.8088C104.067 97.335 104.838 97.3507 104.854 96.8009C104.885 95.4579 104.657 94.1305 104.429 92.8111Z" fill="#FCF6DE"/>
<path d="M110.536 94.9003C110.505 94.8139 110.394 94.8139 110.379 94.9081C110.19 95.8741 110.182 96.8559 110.261 97.8377C110.292 98.2618 111.032 98.2225 111.016 97.7905C110.969 96.8009 110.835 95.8349 110.536 94.9003Z" fill="#FCF6DE"/>
<path d="M115.935 94.3112C115.896 94.1541 115.675 94.2248 115.699 94.374C115.833 95.395 115.872 96.4867 116.187 97.4764C116.266 97.7277 116.612 97.5785 116.596 97.3507C116.541 96.3218 116.179 95.3008 115.935 94.3112Z" fill="#FCF6DE"/>
<path d="M123.05 94.8924C123.003 94.6568 122.64 94.6882 122.672 94.9317C122.727 95.3165 122.782 95.7013 122.837 96.0862C122.877 96.3611 123.317 96.2904 123.27 96.0155C123.191 95.6385 123.121 95.2615 123.05 94.8924Z" fill="#FCF6DE"/>
<path d="M123.916 106.077C123.868 105.896 123.593 105.959 123.601 106.139C123.64 106.964 123.585 107.875 123.766 108.684C123.86 109.1 124.584 109.069 124.545 108.613C124.474 107.757 124.136 106.901 123.916 106.077Z" fill="#FCF6DE"/>
<path d="M133.706 106.658C133.675 106.658 133.675 106.713 133.714 106.713C133.746 106.713 133.746 106.658 133.706 106.658Z" fill="#FCF6DE"/>
<path d="M143.985 101.105C143.741 100.147 143.221 99.3221 142.788 98.4346C142.71 98.2775 142.482 98.411 142.521 98.5602C142.741 99.5027 142.867 100.461 143.276 101.341C143.442 101.733 144.095 101.529 143.985 101.105Z" fill="#FCF6DE"/>
<path d="M139.727 103.493C139.491 102.817 139.184 102.173 138.893 101.521C138.838 101.403 138.68 101.49 138.688 101.6C138.782 102.314 138.861 103.029 139.011 103.736C139.121 104.254 139.916 104.019 139.727 103.493Z" fill="#FCF6DE"/>
<path d="M134.186 104.749C134.139 104.569 133.848 104.631 133.871 104.812C133.982 105.888 133.997 107.043 134.249 108.103C134.359 108.582 135.06 108.441 134.997 107.954C134.855 106.878 134.462 105.794 134.186 104.749Z" fill="#FCF6DE"/>
<path d="M143.922 92.599C143.725 91.6408 143.418 90.6983 143.158 89.748C143.119 89.5988 142.883 89.6537 142.922 89.8108C143.174 90.7612 143.379 91.7272 143.686 92.6618C143.733 92.8111 143.953 92.7561 143.922 92.599Z" fill="#FCF6DE"/>
<path d="M149.281 93.3373C149.14 92.9053 148.998 92.4655 148.849 92.0335C148.809 91.9 148.605 91.9471 148.636 92.0806C148.746 92.5362 148.856 92.9838 148.967 93.4394C149.022 93.6436 149.352 93.5415 149.281 93.3373Z" fill="#FCF6DE"/>
<path d="M155.751 90.4784C155.523 89.693 155.074 88.9626 154.712 88.2322C154.665 88.1379 154.499 88.1929 154.531 88.295C154.783 89.0725 154.987 89.9208 155.373 90.6434C155.507 90.8633 155.83 90.7219 155.751 90.4784Z" fill="#FCF6DE"/>
<path d="M161.748 86.0409C161.528 85.6561 161.221 85.3105 160.859 85.0513C160.379 84.7057 159.843 85.334 160.261 85.7582C160.607 86.0959 160.741 86.4964 160.867 86.952C160.914 87.1405 160.961 87.3761 161.095 87.5175C161.307 87.7295 161.669 87.7374 161.882 87.5253C162.26 87.1483 161.968 86.4179 161.748 86.0409Z" fill="#FCF6DE"/>
<path d="M136.374 171.571C135.595 170.747 134.359 170.802 133.525 171.516C133.069 171.901 132.817 172.372 132.707 172.867C132.667 172.906 132.636 172.946 132.596 172.993C132.061 173.708 132.116 175.027 132.368 175.828C132.714 176.92 133.753 177.533 134.871 177.226C136.012 176.912 136.571 175.812 136.791 174.744C137.02 173.7 137.185 172.427 136.374 171.571Z" fill="#FCF6DE"/>
<path d="M157.506 176.676C154.61 174.061 153.036 180.368 153.374 182.229C153.492 182.873 153.838 183.454 154.326 183.831C154.696 184.279 155.216 184.554 155.908 184.483C158.765 184.169 159.277 178.279 157.506 176.676Z" fill="#FCF6DE"/>
<path d="M201.91 158.141C201.918 158.086 201.926 158.031 201.926 157.976C201.934 157.379 201.619 156.876 201.162 156.554C200.895 156.248 200.43 156.091 200.029 156.17C199.903 156.162 199.769 156.17 199.643 156.193C198.392 156.405 197.77 157.827 197.849 158.973C197.928 160.159 198.683 161.125 199.399 162.021C199.769 162.484 200.627 162.437 201.005 162.021C202.036 160.874 202.272 159.484 201.91 158.141Z" fill="#FCF6DE"/>
<path d="M189.003 178.161C188.712 177.58 187.885 177.132 187.24 177.462C186.162 177.14 185.028 177.548 184.438 178.577C183.824 179.645 183.887 181.098 184.084 182.268C184.273 183.384 184.603 184.97 185.54 185.724C186.453 186.455 187.665 186.156 188.405 185.355C190.136 183.462 190.097 180.329 189.003 178.161Z" fill="#FCF6DE"/>
<path d="M110.489 182.111C108.773 180.706 106.475 181.53 105.499 183.399C104.775 184.79 104.783 186.423 105.389 187.798C105.672 189.353 106.561 190.609 108.214 190.712C112.118 190.963 112.96 184.146 110.489 182.111Z" fill="#FCF6DE"/>
<path d="M44.4019 139.59C44.3468 139.456 44.2524 139.354 44.1501 139.268C44.1501 139.173 44.1501 139.071 44.1265 138.969C44.0084 138.435 43.5677 138.121 43.0404 138.247C41.6473 138.576 41.183 141.365 41.2223 142.535C41.2617 143.642 42.2218 144.938 43.4103 144.09C44.5121 143.281 44.9056 140.768 44.4019 139.59ZM42.8121 141.514C42.7964 141.726 42.7413 141.922 42.6862 142.119C42.7019 141.765 42.6626 141.388 42.7255 141.043C42.7413 140.972 42.7492 140.87 42.7649 140.752C42.7964 141.003 42.8279 141.255 42.8121 141.514Z" fill="#FCF6DE"/>
<path d="M53.6338 167.966C53.5551 167.699 53.4213 167.448 53.2167 167.236C53.0514 166.89 52.7208 166.678 52.3273 166.694C51.0366 166.34 49.8639 167.691 49.738 168.956C49.6042 170.236 49.9112 172.639 51.6977 172.482C51.9889 172.459 52.225 172.357 52.4218 172.215C52.7366 172.121 53.0278 171.933 53.2403 171.713C53.7125 171.218 53.8778 170.48 53.925 169.82C53.9722 169.239 53.9014 168.54 53.6338 167.966Z" fill="#FCF6DE"/>
<path d="M44.2839 194.976C43.6149 192.652 40.7108 192.361 39.239 194.191C38.633 194.945 38.208 196.147 38.027 197.403C37.6099 198.895 37.6099 200.521 38.4441 201.794C39.5932 203.545 41.8362 203.325 43.0089 201.731C44.213 200.074 44.8584 196.963 44.2839 194.976Z" fill="#FCF6DE"/>
<path d="M173.286 196.767C173.034 196.633 172.782 196.547 172.53 196.492C171.413 195.424 169.595 195.997 168.823 197.238C167.147 199.94 168.154 206.938 172.648 205.509C175.844 204.495 176.135 198.291 173.286 196.767Z" fill="#FCF6DE"/>
<path d="M211.488 181.876C210.119 180.839 208.222 181.177 207.356 182.677C207.191 182.96 207.057 183.258 206.947 183.572C205.483 186.651 206.058 193.225 210.26 192.086C212.118 191.583 212.503 189.494 212.7 187.861C212.944 185.976 213.235 183.203 211.488 181.876ZM209.828 185.08C209.898 185.559 209.946 186.093 209.985 186.36C209.993 186.4 209.993 186.447 210.001 186.486C209.977 186.863 209.938 187.209 209.906 187.452C209.773 186.635 209.686 185.74 209.828 185.08Z" fill="#FCF6DE"/>
<path d="M166.344 98.5209C165.911 97.335 165.258 96.2197 164.676 95.1044C164.589 94.9474 164.298 94.9631 164.337 95.183C164.542 96.3925 164.676 97.6491 165.022 98.8194C165.274 99.6676 166.635 99.3299 166.344 98.5209Z" fill="#FCF6DE"/>
<path d="M172.979 93.8635C172.719 93.3373 172.459 92.8032 172.2 92.277C172.097 92.0649 171.743 92.1513 171.791 92.4027C171.893 92.9524 172.003 93.5022 172.105 94.0441C172.215 94.6096 172.223 95.0573 172.648 95.45C172.861 95.6464 173.27 95.5992 173.333 95.2772C173.443 94.7196 173.223 94.3583 172.979 93.8635Z" fill="#FCF6DE"/>
<path d="M176.442 85.389C175.899 84.368 175.387 83.402 174.71 82.4595C174.6 82.3024 174.38 82.4281 174.419 82.6008C174.703 83.7161 175.088 84.7214 175.521 85.7896C175.765 86.3943 176.741 85.9545 176.442 85.389Z" fill="#FCF6DE"/>
<path d="M177.599 77.048C176.953 76.2705 176.206 75.5636 175.521 74.8175C175.411 74.6918 175.19 74.8725 175.293 75.006C175.891 75.7992 176.45 76.6396 177.079 77.4015C177.339 77.6999 177.851 77.3543 177.599 77.048Z" fill="#FCF6DE"/>
<path d="M182.604 84.4151C181.983 83.5512 181.337 82.7422 180.629 81.9411C180.479 81.7683 180.227 81.9489 180.345 82.1453C180.881 83.0799 181.439 83.9674 182.053 84.8549C182.313 85.2241 182.872 84.7842 182.604 84.4151Z" fill="#FCF6DE"/>
<path d="M91.1358 105.11C90.4904 106.029 90.2071 106.995 90.396 108.095C90.4825 108.606 91.2145 108.417 91.1672 107.922C91.0728 107.043 91.1122 106.077 91.3955 105.236C91.4427 105.11 91.2223 104.993 91.1358 105.11Z" fill="#FCF6DE"/>
<path d="M97.5894 106.375C97.6051 105.409 97.5815 104.529 97.432 103.571C97.4083 103.414 97.1801 103.367 97.1408 103.54C96.9361 104.435 96.8259 105.244 96.7709 106.155C96.7079 107.176 96.5111 108.236 96.6843 109.25C96.7472 109.611 97.3218 109.666 97.4162 109.297C97.6602 108.362 97.5736 107.341 97.5894 106.375Z" fill="#FCF6DE"/>
<path d="M103.319 105.912C103.311 105.739 103.051 105.739 103.051 105.912C103.012 106.98 102.831 108.15 102.973 109.218C103.004 109.469 103.374 109.446 103.405 109.202C103.539 108.15 103.366 106.98 103.319 105.912Z" fill="#FCF6DE"/>
<path d="M118.658 102.393C118.65 102.291 118.516 102.322 118.501 102.401C118.28 103.461 118.052 104.514 117.926 105.59C117.855 106.226 118.8 106.304 118.816 105.652C118.839 104.561 118.737 103.477 118.658 102.393Z" fill="#FCF6DE"/>
<path d="M84.1784 90.9497C84.1705 90.7769 83.9108 90.7297 83.84 90.8947C83.6275 91.413 83.5094 91.8764 83.415 92.4262C83.3441 92.8739 83.1789 93.3608 83.3048 93.8085C83.352 93.997 83.6039 94.0756 83.7219 93.8949C83.9895 93.4944 83.9974 92.9839 84.0761 92.5205C84.1705 91.9707 84.2099 91.5073 84.1784 90.9497Z" fill="#FCF6DE"/>
<path d="M76.1821 89.536C76.009 90.0229 75.8752 90.4941 75.7729 91.0047C75.6785 91.468 75.5132 91.9393 75.5761 92.4105C75.5997 92.599 75.8988 92.6776 75.9933 92.4969C76.2372 92.0335 76.2215 91.4838 76.2923 90.9732C76.3553 90.502 76.371 90.0465 76.371 89.5674C76.3632 89.4653 76.2136 89.426 76.1821 89.536Z" fill="#FCF6DE"/>
<path d="M79.7632 90.2585C79.472 91.1774 79.0785 92.0963 78.8738 93.0388C78.8266 93.2587 79.2044 93.3608 79.2673 93.1409C79.5349 92.2142 79.6136 91.2167 79.7947 90.2664C79.7947 90.2507 79.771 90.2428 79.7632 90.2585Z" fill="#FCF6DE"/>
<path d="M71.0192 97.9476C70.791 98.7251 70.5785 99.4791 70.5077 100.288C70.4919 100.492 70.7989 100.61 70.8697 100.39C71.1216 99.6126 71.2239 98.8272 71.3104 98.0104C71.3262 97.8219 71.0743 97.7591 71.0192 97.9476Z" fill="#FCF6DE"/>
<path d="M76.8669 99.3456C76.497 100.484 76.2845 101.678 76.0248 102.849C75.9697 103.1 76.3868 103.163 76.4262 102.896C76.6308 101.725 76.8826 100.555 76.9692 99.3692C76.9771 99.3142 76.8905 99.2828 76.8669 99.3456Z" fill="#FCF6DE"/>
<path d="M81.0539 100.783C81.0539 100.681 80.9043 100.665 80.8886 100.767C80.7469 102.095 80.5423 103.422 80.5974 104.749C80.6053 104.914 80.865 104.946 80.8886 104.781C81.1011 103.461 81.046 102.118 81.0539 100.783Z" fill="#FCF6DE"/>
<path d="M85.5872 103.029C85.5085 102.817 85.1464 102.911 85.2015 103.139C85.4298 104.105 85.3589 105.11 85.1385 106.077C85.0598 106.422 85.5399 106.54 85.6659 106.218C86.0673 105.142 85.9885 104.105 85.5872 103.029Z" fill="#FCF6DE"/>
<path d="M58.3323 88.5856C58.0175 89.5045 57.7027 90.4156 57.6004 91.3895C57.5847 91.578 57.8286 91.6408 57.8916 91.4523C58.2143 90.5334 58.3245 89.5674 58.4346 88.6092C58.4425 88.5542 58.3481 88.5228 58.3323 88.5856Z" fill="#FCF6DE"/>
<path d="M46.4403 87.6039C46.1885 87.9259 45.8264 88.0201 45.5589 88.3421C45.2598 88.7113 45.0945 89.1904 44.9135 89.6223C44.701 90.125 45.4329 90.557 45.7556 90.1014C45.9996 89.7559 46.2514 89.4181 46.4403 89.0333C46.6528 88.5856 46.5112 88.1772 46.6686 87.7374C46.7158 87.6039 46.5269 87.4939 46.4403 87.6039Z" fill="#FCF6DE"/>
<path d="M48.2505 94.6254C47.9042 95.6385 47.5579 96.6517 47.2116 97.6649C47.1015 97.9947 47.6445 98.144 47.739 97.8062C48.0223 96.7774 48.3056 95.7563 48.5889 94.7275C48.644 94.539 48.3214 94.4369 48.2505 94.6254Z" fill="#FCF6DE"/>
<path d="M53.4764 96.5182C53.0435 97.3585 52.6028 98.1832 52.4217 99.1178C52.3824 99.3063 52.6893 99.4399 52.7838 99.2671C53.2481 98.4424 53.437 97.5235 53.6495 96.6046C53.6731 96.5025 53.5314 96.4161 53.4764 96.5182Z" fill="#FCF6DE"/>
<path d="M60.8587 96.0077C60.1897 97.0051 59.623 98.034 59.1902 99.1571C58.9856 99.6834 59.7568 100.084 59.993 99.5498C60.4888 98.4346 60.8429 97.2957 61.0791 96.1019C61.1105 95.9605 60.9374 95.8899 60.8587 96.0077Z" fill="#FCF6DE"/>
<path d="M64.9198 95.0652C64.6207 95.4893 64.2981 95.9056 64.0462 96.3611C63.7786 96.8323 63.4008 97.3193 63.2828 97.8455C63.1883 98.2461 63.6527 98.5131 63.9282 98.1754C64.2508 97.7827 64.4082 97.2565 64.6129 96.7931C64.8411 96.2747 64.9985 95.7328 65.1717 95.1987C65.2267 95.0652 65.0064 94.9474 64.9198 95.0652Z" fill="#FCF6DE"/>
<path d="M68.847 89.2453C68.6031 89.6538 68.3591 90.0622 68.123 90.4784C67.8318 90.9889 67.6822 91.4837 67.517 92.0492C67.4225 92.3634 67.8947 92.5283 68.0443 92.2534C68.5558 91.311 68.7998 90.3763 69.0595 89.3396C69.1068 89.2061 68.9179 89.1197 68.847 89.2453Z" fill="#FCF6DE"/>
<path d="M41.2774 102.142C41.2538 102.055 41.1357 102.016 41.0728 102.087C40.5927 102.574 40.4353 103.273 40.3172 103.925C40.2307 104.411 40.9154 104.647 41.0728 104.152C41.2695 103.516 41.4663 102.809 41.2774 102.142Z" fill="#FCF6DE"/>
<path d="M46.7236 103.555C46.4875 104.333 46.2436 105.11 46.0075 105.888C45.9838 105.974 46.1098 106.022 46.1334 105.935C46.3616 105.158 46.5899 104.372 46.826 103.595C46.8417 103.532 46.7473 103.493 46.7236 103.555Z" fill="#FCF6DE"/>
<path d="M56.105 102.393C55.9398 102.841 55.7902 103.296 55.6171 103.744C55.4361 104.223 55.1449 104.663 55.1134 105.181C55.0976 105.582 55.625 105.723 55.7902 105.346C56.0027 104.867 55.9555 104.349 56.0106 103.838C56.0657 103.367 56.1365 102.888 56.1995 102.417C56.2152 102.362 56.1208 102.33 56.105 102.393Z" fill="#FCF6DE"/>
<path d="M60.0402 104.718C59.631 105.778 59.2217 106.838 58.8203 107.899C58.6393 108.362 59.45 108.606 59.5444 108.134C59.7648 107.011 59.9851 105.88 60.1976 104.749C60.2134 104.663 60.0717 104.631 60.0402 104.718Z" fill="#FCF6DE"/>
<path d="M66.667 108.095C66.5883 107.938 66.3286 107.914 66.2184 108.048C65.6989 108.668 65.7226 109.603 65.6124 110.381C65.5179 111.111 65.2582 111.896 65.5258 112.603C65.636 112.894 66.1161 113.059 66.3128 112.745C66.7457 112.077 66.6827 111.268 66.7536 110.483C66.8165 109.721 67.0211 108.81 66.667 108.095Z" fill="#FCF6DE"/>
<path d="M70.7831 106.155C70.7753 106.037 70.6021 105.99 70.5706 106.116C70.1535 107.616 69.9017 109.289 69.8859 110.844C69.8859 111.205 70.4368 111.221 70.5077 110.883C70.8068 109.367 70.8933 107.687 70.7831 106.155Z" fill="#FCF6DE"/>
<path d="M75.2063 108.598C75.2141 107.985 75.1984 107.412 75.1354 106.807C75.1118 106.579 74.7498 106.556 74.6868 106.776C74.5137 107.443 74.4271 108.095 74.3405 108.778C74.2697 109.32 74.0966 109.909 74.2776 110.443C74.3799 110.726 74.8206 110.907 74.9938 110.569C75.3007 109.964 75.1984 109.257 75.2063 108.598Z" fill="#FCF6DE"/>
<path d="M85.052 109.187C85.0363 109.03 84.8238 109.022 84.808 109.187C84.7293 110.035 84.6113 110.875 84.564 111.724C84.5325 112.242 85.3196 112.234 85.2881 111.692C85.2488 110.852 85.1386 110.019 85.052 109.187Z" fill="#FCF6DE"/>
<path d="M94.8899 94.4369C94.8348 94.1541 94.3862 93.997 94.2681 94.3348C93.9376 95.3087 93.8116 96.4632 93.8116 97.4921C93.8116 98.2068 94.8033 98.1989 94.8977 97.5156C95.0315 96.5418 95.0709 95.4108 94.8899 94.4369Z" fill="#FCF6DE"/>
<path d="M138.838 91.6565C138.83 91.6015 138.751 91.6094 138.759 91.6644C138.822 93.0702 138.877 94.5075 139.137 95.8977C139.16 96.0312 139.381 96.0077 139.381 95.8663C139.333 94.4604 139.074 93.0388 138.838 91.6565Z" fill="#FCF6DE"/>
<path d="M126.741 94.1777C126.222 95.0652 125.765 96.4239 126.277 97.4057C126.466 97.767 126.969 97.6177 126.953 97.2172C126.93 96.7459 126.765 96.2982 126.741 95.8192C126.709 95.2929 126.796 94.7746 126.961 94.2719C127.009 94.1462 126.812 94.0599 126.741 94.1777Z" fill="#FCF6DE"/>
<path d="M129.913 107.176C129.913 106.909 129.913 106.642 129.881 106.383C129.85 106.1 129.716 105.943 129.677 105.66C129.661 105.566 129.519 105.558 129.496 105.652C129.425 105.888 129.267 106.061 129.204 106.312C129.149 106.548 129.11 106.783 129.078 107.019C128.992 107.687 128.85 108.401 128.968 109.061C129.047 109.501 129.677 109.422 129.779 109.053C129.952 108.456 129.905 107.797 129.913 107.176Z" fill="#FCF6DE"/>
<path d="M31.6363 176.213C30.747 175.428 29.4956 175.962 28.9919 176.912C28.4016 178.035 28.4331 179.488 28.9447 180.619C29.1335 181.028 29.4484 181.247 29.7789 181.318C29.9914 181.389 30.2275 181.412 30.5108 181.357C31.5419 181.177 31.9275 179.967 32.1085 179.08C32.321 178.145 32.4391 176.92 31.6363 176.213Z" fill="#FCF6DE"/>
<path d="M75.1118 188.183C74.01 187.028 72.5382 187.601 71.8614 188.85C71.7591 189.039 71.6646 189.235 71.5702 189.439C71.0901 190.295 70.8618 191.442 70.9248 192.298C71.035 193.625 72.1998 194.67 73.5614 194.309C75.7965 193.712 76.6465 189.793 75.1118 188.183Z" fill="#FCF6DE"/>
<path d="M84.4696 214.368C83.4937 212.287 80.9279 211.713 79.2043 213.229C77.2604 214.933 76.7803 218.067 77.4729 220.447C77.5673 220.785 77.709 221.091 77.8664 221.374C78.0553 221.9 78.315 222.371 78.677 222.74C80.6918 224.759 82.9585 222.583 83.8636 220.667C84.7293 218.813 85.3904 216.331 84.4696 214.368Z" fill="#FCF6DE"/>
<path d="M133.832 214.305C132.62 212.004 129.858 211.108 127.835 213.033C125.93 214.847 125.411 218.287 126.615 220.62C127.001 221.366 127.552 221.9 128.181 222.245C129.401 223.942 131.927 223.761 133.273 222.049C134.887 219.991 135.021 216.583 133.832 214.305Z" fill="#FCF6DE"/>
<path d="M166.738 221.083C164.18 218.483 160.969 221.052 159.946 223.746C159.049 226.102 158.875 230.107 161.528 231.466C161.551 231.49 161.575 231.521 161.606 231.552C164.078 233.932 166.785 230.971 167.619 228.646C168.461 226.322 168.611 222.984 166.738 221.083Z" fill="#FCF6DE"/>
<path d="M202.634 212.561C201.816 209.923 199.226 207.606 196.401 209.169C194.756 210.08 193.867 211.839 193.591 213.669C193.544 213.834 193.505 213.999 193.465 214.148C192.891 216.653 193.591 219.489 195.724 221.06C200.989 224.939 203.838 216.465 202.634 212.561Z" fill="#FCF6DE"/>
<path d="M218.579 238.158C217.115 236.846 214.825 237.71 214.148 239.414C213.432 241.205 214.424 243.239 215.659 244.527C215.785 244.661 215.935 244.755 216.084 244.818C216.344 244.991 216.651 245.109 217.005 245.156C218.485 245.36 219.233 244.033 219.374 242.776C219.532 241.307 219.799 239.257 218.579 238.158Z" fill="#FCF6DE"/>
<path d="M187.35 251.243C184.635 250.041 183.36 253.402 183.934 256.073C183.989 257.989 184.769 259.811 186.579 259.615C188.436 259.419 188.735 256.913 188.838 255.452C188.94 253.984 188.948 251.949 187.35 251.243Z" fill="#FCF6DE"/>
<path d="M110.158 242.195C110.032 240.545 108.521 239.477 106.931 240.066C106.813 240.106 106.703 240.161 106.601 240.223C106.231 240.333 105.877 240.545 105.593 240.844C104.649 241.873 104.381 243.923 104.72 245.234C104.83 245.674 105.043 246.043 105.318 246.334C105.806 247.182 106.64 247.669 107.86 247.347C108.348 247.221 108.742 246.86 108.844 246.373C109.938 245.391 110.26 243.601 110.158 242.195Z" fill="#FCF6DE"/>
<path d="M53.9643 227.83C53.988 227.186 53.8542 226.549 53.4843 225.976C52.587 224.578 50.706 224.539 49.5334 225.631C47.8806 227.154 47.7704 230.194 48.463 232.173C49.1241 234.081 51.3435 235.283 52.9019 233.492C54.0352 232.181 54.531 229.628 53.9643 227.83Z" fill="#FCF6DE"/>
<path d="M28.441 251.714C27.2683 251.18 26.4655 251.981 25.9618 252.915C25.8831 253.018 25.8123 253.12 25.7493 253.222C24.8915 254.651 24.6554 256.646 25.0961 258.248C25.4581 259.552 26.7095 260.667 28.1025 260.023C29.4877 259.379 29.6766 257.376 29.7632 256.057C29.8655 254.69 29.9599 252.405 28.441 251.714Z" fill="#FCF6DE"/>
<path d="M77.7562 263.683C77.4178 262.796 76.8354 262.647 75.9303 262.34C75.4974 262.199 74.9544 262.215 74.6002 262.537C73.2859 263.723 72.9632 266.055 73.2229 267.728C73.4039 268.859 74.4979 269.236 75.3007 268.922C75.9933 268.946 76.7173 268.655 77.2368 268.05C77.89 267.296 77.9923 266.283 77.9923 265.325C77.9844 264.767 77.9608 264.202 77.7562 263.683Z" fill="#FCF6DE"/>
<path d="M144.575 255.225C144.213 253.426 142.301 252.028 140.514 252.868C139.664 253.269 139.192 253.913 138.948 254.651C138.295 255.46 138.153 256.685 138.633 257.659C138.735 257.871 138.869 258.068 139.019 258.248C139.176 258.743 139.538 258.987 139.955 259.018C140.687 259.411 141.569 259.497 142.403 259.152C143.906 258.531 144.898 256.858 144.575 255.225Z" fill="#FCF6DE"/>
<path d="M113.102 454.348C111.528 454.929 109.961 455.494 108.356 455.981C108.34 455.989 108.348 456.013 108.364 456.005C109.985 455.573 111.614 455.235 113.259 454.89C113.621 454.819 113.448 454.222 113.102 454.348Z" fill="#292121"/>
<path d="M130.054 476.041C128.535 476.52 127.024 477.022 125.553 477.635C125.482 477.666 125.513 477.776 125.592 477.761C127.19 477.556 128.764 477.242 130.338 476.889C130.881 476.771 130.605 475.868 130.054 476.041Z" fill="#292121"/>
<path d="M112.984 468.226C111.189 468.508 109.45 469.365 107.758 470.001C107.608 470.056 107.632 470.307 107.805 470.291C109.584 470.126 111.488 470.142 113.212 469.632C113.967 469.412 113.802 468.1 112.984 468.226Z" fill="#292121"/>
<path d="M141.773 488.238C140.774 488.309 139.837 488.717 138.893 489.047C137.673 489.471 136.414 489.84 135.304 490.516C135.186 490.586 135.241 490.767 135.375 490.767C136.587 490.751 137.744 490.445 138.924 490.17C139.971 489.934 141.096 489.785 142.041 489.275C142.521 489.023 142.34 488.199 141.773 488.238Z" fill="#292121"/>
<path d="M148.786 503.475C147.18 503.027 145.142 504.205 143.812 504.998C143.686 505.077 143.772 505.289 143.922 505.242C144.85 504.936 145.811 504.771 146.779 504.637C147.471 504.543 148.195 504.606 148.856 504.354C149.321 504.189 149.211 503.592 148.786 503.475Z" fill="#292121"/>
<path d="M139.192 452.368C137.602 452.628 136.114 453.209 134.58 453.688C134.485 453.719 134.501 453.861 134.611 453.845C136.193 453.625 137.783 453.531 139.318 453.091C139.758 452.965 139.664 452.29 139.192 452.368Z" fill="#292121"/>
<path d="M94.0635 461.094C92.7885 461.754 91.057 461.935 89.6404 461.982C89.538 461.982 89.5223 462.139 89.6246 462.147C90.3959 462.21 91.1987 462.28 91.97 462.265C92.7176 462.249 93.4575 462.068 94.2051 462.053C95.1102 462.037 94.7246 460.749 94.0635 461.094Z" fill="#292121"/>
<path d="M119.422 486.125C118.556 485.999 117.611 486.259 116.761 486.447C115.778 486.667 114.857 486.95 113.92 487.303C113.842 487.335 113.873 487.452 113.952 487.46C115.66 487.586 117.958 487.774 119.547 487.06C119.996 486.863 119.917 486.196 119.422 486.125Z" fill="#292121"/>
<path d="M128.063 502.053C127.323 501.645 126.489 501.904 125.678 501.99C124.671 502.1 123.672 502.218 122.735 502.626C122.546 502.705 122.57 503.027 122.774 503.074C123.64 503.286 124.522 503.286 125.403 503.231C126.332 503.176 127.418 503.333 128.165 502.713C128.37 502.54 128.284 502.171 128.063 502.053Z" fill="#292121"/>
<path d="M139.814 513.724C138.782 513.716 137.775 513.952 136.768 514.14C135.808 514.321 134.784 514.455 133.934 514.957C133.808 515.036 133.864 515.216 133.997 515.248C135.083 515.538 136.303 515.303 137.397 515.201C138.255 515.122 139.121 515.059 139.947 514.808C140.553 514.635 140.459 513.732 139.814 513.724Z" fill="#292121"/>
<path d="M106.585 497.262C104.98 497.443 103.382 497.616 101.792 497.914C101.721 497.93 101.713 498.048 101.792 498.048C103.421 498.095 105.035 498.008 106.664 497.93C107.097 497.914 107.018 497.215 106.585 497.262Z" fill="#292121"/>
<path d="M115.77 513.049C114.251 512.554 112.622 513.025 111.205 513.661C111.11 513.701 111.158 513.826 111.244 513.842C112.763 514.133 114.455 514.211 115.809 513.379C115.927 513.3 115.904 513.088 115.77 513.049Z" fill="#292121"/>
<path d="M99.494 480.431C97.613 480.502 95.7084 480.996 93.8667 481.342C93.7644 481.358 93.7723 481.531 93.8825 481.531C95.7556 481.468 97.7153 481.538 99.5648 481.209C99.9977 481.13 99.9426 480.415 99.494 480.431Z" fill="#292121"/>
<path d="M80.3062 471.878C78.9682 472.027 77.6303 472.263 76.2923 472.451C76.1664 472.467 76.1979 472.655 76.3159 472.663C77.646 472.726 78.984 472.82 80.314 472.844C81.0224 472.852 81.0066 471.799 80.3062 471.878Z" fill="#292121"/>
<path d="M73.9234 456.256C71.8771 456.413 69.7994 456.767 67.7846 457.159C67.6272 457.191 67.6744 457.426 67.8239 457.426C69.8938 457.458 72.0188 457.45 74.0808 457.246C74.7262 457.183 74.5609 456.209 73.9234 456.256Z" fill="#292121"/>
<path d="M86.6733 492.534C86.0436 492.314 85.4219 492.401 84.7608 492.463C83.8714 492.55 82.9821 492.652 82.1006 492.746C82.0377 492.754 82.0377 492.848 82.1006 492.856C82.8877 492.958 83.6668 493.068 84.4538 493.178C85.2015 493.28 85.9571 493.429 86.689 493.194C86.9802 493.092 86.9487 492.628 86.6733 492.534Z" fill="#292121"/>
<path d="M92.0802 506.145C91.3876 505.909 90.6163 505.957 89.8923 505.917C89.0973 505.87 88.3103 505.831 87.5154 505.784C87.3974 505.776 87.358 505.972 87.4761 505.996C88.2001 506.145 88.9321 506.302 89.6561 506.451C90.4196 506.608 91.2145 506.875 91.9936 506.82C92.3557 506.797 92.4029 506.255 92.0802 506.145Z" fill="#292121"/>
<path d="M101.052 518.46C98.9588 518.429 96.6842 518.46 94.6301 518.845C94.5278 518.861 94.5199 519.026 94.6222 519.057C96.6528 519.552 98.9115 519.732 100.997 519.819C101.871 519.85 101.926 518.476 101.052 518.46Z" fill="#292121"/>
<path d="M68.4929 499.061C67.7688 498.896 67.0133 498.911 66.2735 498.872C65.2897 498.825 64.1406 498.684 63.1726 498.927C63.0073 498.966 62.9208 499.21 63.1175 499.288C63.9203 499.618 64.8568 499.681 65.7226 499.76C66.6198 499.846 67.5327 500.019 68.4299 499.94C68.9415 499.901 68.9887 499.178 68.4929 499.061Z" fill="#292121"/>
<path d="M74.5294 513.983C73.8919 513.63 73.0104 513.614 72.2864 513.544C71.4521 513.457 70.6021 513.426 69.7679 513.363C69.6105 513.355 69.5947 513.591 69.7364 513.63C70.5392 513.85 71.3341 514.085 72.1447 514.282C72.8688 514.462 73.6952 514.729 74.435 514.612C74.7655 514.557 74.8206 514.14 74.5294 513.983Z" fill="#292121"/>
<path d="M66.3207 484.727C65.6517 484.586 64.967 484.704 64.2823 484.743C63.393 484.806 62.5194 484.884 61.63 484.994C61.5356 485.01 61.5513 485.143 61.6379 485.151C62.4564 485.253 63.2671 485.332 64.0856 485.387C64.8332 485.442 65.5967 485.567 66.3286 485.418C66.7378 485.34 66.7064 484.813 66.3207 484.727Z" fill="#292121"/>
<path d="M60.5518 467.095C58.7652 466.969 56.774 467.864 55.0504 468.328C54.7829 468.399 54.838 468.799 55.1213 468.752C56.8842 468.485 59.1037 468.524 60.6856 467.676C60.9374 467.55 60.8194 467.118 60.5518 467.095Z" fill="#292121"/>
<path d="M47.3533 456.79C45.8028 456.845 44.1579 457.529 42.7019 458.023C42.5603 458.071 42.5839 458.298 42.7413 458.29C44.2681 458.196 46.0783 458.22 47.5185 457.67C47.9908 457.481 47.8727 456.775 47.3533 456.79Z" fill="#292121"/>
<path d="M36.6497 473.315C35.1622 473.574 33.8794 473.912 32.3447 473.755C32.1558 473.739 32.0849 473.999 32.2817 474.046C33.6905 474.391 35.4613 474.627 36.8543 474.101C37.3266 473.92 37.177 473.229 36.6497 473.315Z" fill="#292121"/>
<path d="M48.6519 487.484C47.9435 487.146 47.1014 487.256 46.3301 487.233C45.4487 487.209 44.5751 487.233 43.6936 487.24C43.544 487.24 43.5047 487.476 43.6621 487.507C44.5908 487.672 45.5116 487.837 46.4482 487.963C47.1722 488.057 47.9121 488.269 48.6283 488.057C48.888 487.979 48.888 487.594 48.6519 487.484Z" fill="#292121"/>
<path d="M51.5009 504.716C51.0838 504.244 50.4778 504.378 49.8954 504.307C49.1083 504.205 48.3449 504.056 47.5973 503.805C47.4556 503.757 47.3454 503.969 47.4635 504.064C48.0931 504.535 48.7621 504.951 49.5176 505.187C50.1157 505.375 50.9343 505.713 51.4616 505.234C51.5954 505.1 51.6347 504.865 51.5009 504.716Z" fill="#292121"/>
<path d="M54.2162 515.986C53.7282 515.46 52.9884 515.405 52.3116 515.264C51.3514 515.067 50.4148 515.067 49.4389 514.997C49.3366 514.989 49.2815 515.146 49.376 515.201C50.163 515.586 50.8792 516.033 51.7134 516.308C52.469 516.56 53.2481 516.968 54.043 516.724C54.3736 516.614 54.4366 516.222 54.2162 515.986Z" fill="#292121"/>
<path d="M35.3275 496.414C34.6821 496.131 33.9423 496.092 33.2497 495.982C32.4863 495.856 31.7229 495.738 30.9595 495.613C30.865 495.597 30.8336 495.746 30.928 495.77C31.6757 495.998 32.4234 496.225 33.1632 496.453C33.8321 496.657 34.509 496.948 35.2094 496.972C35.5006 496.987 35.5872 496.532 35.3275 496.414Z" fill="#292121"/>
<path d="M34.6664 506.687C34.0604 506.035 33.1946 505.642 32.4155 505.226C31.6835 504.841 30.9437 504.464 30.1961 504.095C30.1252 504.056 30.078 504.166 30.1331 504.213C30.8257 504.778 31.5183 505.336 32.2187 505.886C32.8483 506.381 33.5016 506.938 34.265 507.205C34.5562 507.307 34.9182 506.954 34.6664 506.687Z" fill="#292121"/>
<path d="M28.3151 484.484C27.528 484.224 26.6308 484.389 25.8123 484.46C24.7577 484.546 23.7031 484.68 22.6485 484.798C22.4989 484.813 22.4832 485.033 22.6485 485.041C23.6401 485.088 24.6396 485.151 25.6313 485.19C26.5049 485.23 27.5123 485.355 28.3308 485.033C28.5984 484.931 28.5984 484.578 28.3151 484.484Z" fill="#292121"/>
<path d="M30.6762 464.032C29.8577 463.655 28.9447 463.969 28.0868 464.095C27.0086 464.252 25.9382 464.409 24.8758 464.621C24.5452 464.684 24.6475 465.171 24.9623 465.178C26.1035 465.202 27.2447 465.147 28.3859 465.123C29.2516 465.1 30.078 465.194 30.81 464.684C31.0775 464.495 30.9123 464.134 30.6762 464.032Z" fill="#292121"/>
<path d="M16.0216 456.625C15.3133 456.366 14.3846 456.853 13.7707 457.214C13.1411 457.584 12.5902 458.047 12.0865 458.581C11.9448 458.73 12.1652 458.95 12.3226 458.832C12.9522 458.369 13.6055 458.031 14.3453 457.788C14.9198 457.599 15.6281 457.607 16.1082 457.23C16.3207 457.065 16.2735 456.72 16.0216 456.625Z" fill="#292121"/>
<path d="M13.9439 469.475C12.4249 469.569 11.0319 470.064 9.7018 470.794C9.67819 470.81 9.7018 470.857 9.72541 470.841C11.087 470.284 12.5194 470.009 13.9832 469.852C14.2272 469.828 14.1879 469.459 13.9439 469.475Z" fill="#292121"/>
<path d="M13.4638 479.991C12.4485 479.724 11.3467 479.771 10.3078 479.716C10.2055 479.708 10.1661 479.873 10.2684 479.897C11.2758 480.117 12.3305 480.454 13.3693 480.462C13.6448 480.47 13.7471 480.062 13.4638 479.991Z" fill="#292121"/>
<path d="M20.6415 496.17C20.3031 495.605 19.6577 495.519 19.0911 495.244C17.9892 494.717 17.0605 493.963 16.2656 493.045C16.1161 492.88 15.8406 493.06 15.9823 493.249C16.5962 494.089 17.3281 494.859 18.123 495.534C18.6976 496.021 19.5712 496.869 20.3739 496.689C20.5707 496.634 20.7675 496.382 20.6415 496.17Z" fill="#292121"/>
<path d="M223.467 487.735C223.144 487.987 222.822 488.23 222.499 488.481C222.176 488.733 221.94 489.008 221.649 489.29C221.617 489.322 221.641 489.385 221.688 489.361C222.034 489.188 222.381 489.063 222.711 488.85C223.05 488.638 223.396 488.418 223.742 488.206C224.041 488.01 223.734 487.523 223.467 487.735Z" fill="#292121"/>
<path d="M253.177 447.279C252.445 447.797 251.918 448.583 251.202 449.133C250.674 449.541 250.147 449.942 249.604 450.326C249.541 450.374 249.596 450.491 249.675 450.468C250.517 450.216 251.225 449.863 251.934 449.337C252.54 448.889 253.295 448.347 253.641 447.664C253.775 447.389 253.429 447.098 253.177 447.279Z" fill="#292121"/>
<path d="M261.858 457.372C261.221 457.56 260.748 458.275 260.371 458.793C259.898 459.429 259.466 460.089 259.009 460.733C258.938 460.835 259.088 460.945 259.174 460.867C259.741 460.387 260.316 459.908 260.89 459.429C261.409 458.99 262.126 458.408 262.267 457.733C262.315 457.489 262.071 457.309 261.858 457.372Z" fill="#292121"/>
<path d="M240.175 475.954C239.215 476.897 238.334 477.871 237.468 478.899C237.413 478.962 237.507 479.033 237.563 478.994C238.633 478.2 239.648 477.407 240.648 476.52C241.002 476.198 240.514 475.624 240.175 475.954Z" fill="#292121"/>
<path d="M254.011 430.079C252.941 430.927 251.997 431.972 251.131 433.016C251.068 433.087 251.178 433.205 251.257 433.15C252.422 432.419 253.594 431.618 254.586 430.66C254.964 430.291 254.413 429.757 254.011 430.079Z" fill="#292121"/>
<path d="M250.785 417.018C250.737 416.79 250.446 416.766 250.305 416.9C249.817 417.363 249.738 418.227 249.47 418.84C249.132 419.609 248.691 420.324 248.187 421C248.085 421.133 248.258 421.314 248.384 421.188C249.069 420.481 249.667 419.719 250.155 418.863C250.47 418.306 250.911 417.677 250.785 417.018Z" fill="#292121"/>
<path d="M265.368 443.941C265.006 444.46 264.857 445.135 264.558 445.7C264.235 446.313 263.912 446.918 263.519 447.483C263.479 447.546 263.558 447.601 263.605 447.546C264.455 446.69 265.612 445.308 265.652 444.035C265.659 443.902 265.447 443.823 265.368 443.941Z" fill="#292121"/>
<path d="M263.881 429.513C263.456 429.937 263.291 430.574 263.062 431.116C262.818 431.697 262.567 432.278 262.323 432.859C262.267 432.993 262.472 433.055 262.543 432.953C262.921 432.419 263.298 431.885 263.684 431.351C263.999 430.911 264.432 430.456 264.558 429.914C264.644 429.529 264.18 429.215 263.881 429.513Z" fill="#292121"/>
<path d="M274.049 431.359C273.538 431.799 273.388 432.529 273.144 433.142C272.821 433.951 272.499 434.752 272.176 435.561C272.121 435.687 272.333 435.773 272.396 435.655C272.837 434.862 273.278 434.061 273.719 433.268C274.018 432.726 274.443 432.184 274.458 431.555C274.458 431.335 274.207 431.218 274.049 431.359Z" fill="#292121"/>
<path d="M260.3 416.381C259.615 417.709 259.285 419.287 258.836 420.709C258.797 420.842 258.985 420.897 259.041 420.772C259.631 419.421 260.41 418.023 260.772 416.586C260.835 416.318 260.441 416.114 260.3 416.381Z" fill="#292121"/>
<path d="M272.751 417.175C272.003 417.889 272.082 419.452 272.239 420.379C272.278 420.607 272.617 420.615 272.64 420.379C272.719 419.774 272.861 419.17 273.058 418.588C273.183 418.211 273.404 417.881 273.412 417.473C273.42 417.143 273.002 416.931 272.751 417.175Z" fill="#292121"/>
<path d="M257.238 403.234C257.136 402.99 256.798 402.967 256.624 403.124C256.066 403.634 256.121 404.545 256.003 405.26C255.9 405.896 255.751 406.666 256.018 407.263C256.026 407.286 256.058 407.302 256.081 407.279C256.577 406.839 256.758 406.077 256.931 405.456C257.128 404.742 257.545 403.964 257.238 403.234Z" fill="#292121"/>
<path d="M268.878 398.733C268.823 398.419 268.351 398.309 268.225 398.647C267.918 399.448 267.95 400.336 267.879 401.184C267.792 402.299 267.698 403.469 267.926 404.569C267.942 404.647 268.052 404.655 268.084 404.585C268.477 403.626 268.603 402.558 268.721 401.537C268.831 400.618 269.044 399.637 268.878 398.733Z" fill="#292121"/>
<path d="M259.45 389.128C259.403 388.5 259.41 387.824 259.088 387.274C258.954 387.047 258.639 387.133 258.568 387.361C258.348 388.036 258.568 388.845 258.679 389.536C258.789 390.212 258.875 390.895 259.127 391.523C259.19 391.68 259.434 391.673 259.466 391.492C259.592 390.714 259.505 389.905 259.45 389.128Z" fill="#292121"/>
<path d="M279.283 408.724C279.196 409.91 279.283 411.088 279.433 412.266C279.448 412.407 279.661 412.462 279.7 412.297C279.96 411.166 280.188 410.027 280.227 408.865C280.251 408.268 279.33 408.103 279.283 408.724Z" fill="#292121"/>
<path d="M270.13 383.536C269.925 383.143 269.366 383.363 269.343 383.748C269.311 384.368 269.508 384.926 269.697 385.507C269.972 386.355 270.256 387.196 270.531 388.044C270.586 388.217 270.87 388.17 270.846 387.981C270.697 386.567 270.791 384.816 270.13 383.536Z" fill="#292121"/>
<path d="M261.221 372.846C261.087 372.171 259.985 372.422 260.182 373.066C260.615 374.488 261.11 375.862 261.638 377.245C261.685 377.378 261.866 377.339 261.85 377.198C261.685 375.729 261.504 374.299 261.221 372.846Z" fill="#292121"/>
<path d="M249.014 375.022C248.691 374.425 247.739 374.896 248.069 375.493C248.841 376.907 249.793 378.289 250.785 379.562C250.84 379.632 250.981 379.57 250.95 379.475C250.423 377.959 249.777 376.428 249.014 375.022Z" fill="#292121"/>
<path d="M252.123 367.514C251.635 366.54 251.147 365.574 250.619 364.623C250.187 363.854 249.919 362.903 249.037 362.605C248.683 362.487 248.353 362.809 248.337 363.139C248.298 363.971 249.022 364.56 249.525 365.173C250.242 366.053 250.989 366.909 251.745 367.765C251.91 367.961 252.241 367.749 252.123 367.514Z" fill="#292121"/>
<path d="M261.016 363.225C260.725 362.707 260.465 362.157 260.15 361.654C259.835 361.152 259.466 360.476 258.899 360.256C258.639 360.154 258.372 360.398 258.411 360.665C258.505 361.246 259.033 361.678 259.426 362.079C259.867 362.534 260.379 362.919 260.851 363.335C260.937 363.398 261.071 363.327 261.016 363.225Z" fill="#292121"/>
<path d="M241.718 361.081C241.403 360.626 241.096 360.162 240.781 359.707C240.443 359.204 240.128 358.607 239.554 358.348C239.302 358.23 238.987 358.521 239.058 358.78C239.207 359.322 239.68 359.707 240.081 360.084C240.537 360.508 240.986 360.94 241.435 361.372C241.608 361.545 241.836 361.262 241.718 361.081Z" fill="#292121"/>
<path d="M249.281 353.094C248.793 352.607 248.368 352.143 247.747 351.829C247.369 351.641 246.928 352.088 247.251 352.426C247.747 352.944 248.321 353.243 248.951 353.581C249.258 353.745 249.518 353.321 249.281 353.094Z" fill="#292121"/>
<path d="M212.323 264.563C212.291 264.32 212.22 264.06 212.102 263.817C212.063 263.558 212 263.314 211.905 263.094C211.512 262.238 210.866 261.908 209.954 261.853C209.127 261.798 208.49 262.191 208.017 262.843C207.325 263.801 207.191 265.364 207.844 266.369C208.671 267.642 210.418 267.838 211.512 266.778C212.079 266.228 212.417 265.364 212.323 264.563Z" fill="#FCF6DE"/>
<path d="M118.524 268.749C118.406 268.105 118.06 267.485 117.407 267.249C116.872 267.061 116.289 267.21 115.856 267.555C114.747 268.097 114.337 269.896 114.644 270.964C115.014 272.252 116.47 272.739 117.564 272.001C118.603 271.294 118.737 269.904 118.524 268.749Z" fill="#FCF6DE"/>
</g>
<defs>
<clipPath id="clip0">
<rect width="283" height="526" fill="white" transform="translate(0.950012)"/>
</clipPath>
</defs>
</svg>
