<svg width="60" height="60" viewBox="0 0 60 60" fill="none" xmlns="http://www.w3.org/2000/svg">
<path d="M14.7378 6.21118L28.9531 7.37491L40.4223 11.4432L50.2522 16.9448L56.277 23.5467L58.3381 33.6936L55.4303 40.4033L47.6616 43.5742L33.9219 41.3546L21.5014 37.1278L12.9938 35.0127L11.4591 29.5175L10.7456 22.9283L6.38556 21.2731C6.38556 21.2731 4.854 15.724 4.854 15.3022C4.854 14.8805 5.58015 10.2795 5.58015 10.2795L7.59052 7.95519L12.9272 6.21118H14.7378Z" fill="#FBF7EF"/>
<path d="M7.86318 44.6268L7.37486 44.1322C3.9566 41.6779 3.7061 39.5755 2.5931 36.8168C2.22527 35.9036 1.95891 34.9587 1.66085 34.0264C1.51181 33.573 1.34375 33.129 1.17886 32.6756C0.991104 32.1944 0.88397 31.6855 0.861772 31.1694C0.850941 30.8983 0.805111 30.6297 0.725422 30.3703C0.573217 29.8313 0.0912355 28.972 0.0341588 28.417C-0.140242 26.4035 0.408328 24.6944 0.440037 22.6777C0.440037 21.8532 0.573217 21.0288 0.636636 20.2043C0.668345 19.8175 0.671515 19.4306 0.700054 19.0438C0.779327 18.0354 0.573215 16.8971 0.785668 15.9141C1.1852 14.0718 2.4409 12.5592 3.4112 10.9579C3.44243 10.9176 3.47633 10.8795 3.51267 10.8438C3.51905 10.9197 3.51905 10.9961 3.51267 11.0721C3.40169 11.6555 3.08776 12.1914 3.1163 12.8066C3.11767 12.8192 3.11767 12.832 3.1163 12.8446C3.04707 13.0303 2.99713 13.2226 2.96727 13.4185C2.96727 13.7103 2.98946 14.0052 3.00532 14.2969C2.87794 14.2484 2.73685 14.2502 2.61079 14.3021C2.48472 14.3539 2.38315 14.4518 2.32674 14.5759L3.00532 14.4554C3.03069 14.9311 3.08142 15.4067 3.07825 15.8824C3.09065 16.536 3.2262 17.1815 3.47779 17.7849C3.80871 18.5994 4.23443 19.3721 4.74616 20.087C5.47474 21.121 6.36814 22.0283 7.39072 22.7728C7.7356 23.0604 8.0658 23.3652 8.38005 23.686L8.22784 24.0253L8.3737 24.187C8.41598 24.2314 8.4572 24.279 8.49737 24.3297C8.40541 24.3836 8.32614 24.4217 8.25638 24.4692C8.20195 24.4965 8.15522 24.537 8.12046 24.5871C8.08571 24.6371 8.06403 24.695 8.05741 24.7555C8.05079 24.8161 8.05943 24.8773 8.08256 24.9336C8.10568 24.99 8.14255 25.0396 8.18979 25.0781C8.31337 25.1844 8.44971 25.2749 8.59567 25.3476C8.81446 25.4776 9.02057 25.3064 9.22986 25.3191C9.29645 25.6361 9.35352 25.9532 9.4328 26.2703C9.61037 26.9553 9.79428 27.6381 9.98454 28.3187C10.2541 29.2986 10.4982 30.2879 10.8121 31.255C11.0323 32.0472 11.1777 32.8583 11.2466 33.6776C11.291 33.9947 11.2688 34.353 11.3417 34.6733C11.4368 35.0823 11.4876 35.5326 11.8934 35.7863C11.9589 35.8314 12.0104 35.8939 12.0424 35.9667C12.0743 36.0395 12.0853 36.1198 12.0742 36.1985C12.1938 36.1801 12.3159 36.1854 12.4334 36.2143C12.5509 36.2431 12.6616 36.2949 12.7591 36.3666C12.8124 36.4027 12.873 36.4265 12.9367 36.4363C13.4123 36.541 13.888 36.6361 14.3668 36.7534C14.7484 36.8174 15.1217 36.9237 15.4798 37.0705C16.4863 37.5302 17.5343 37.8933 18.6095 38.155C19.2183 38.323 19.8303 38.4721 20.4454 38.5957C20.9124 38.6865 21.3848 38.7458 21.8597 38.7733C22.1553 38.7879 22.448 38.8379 22.7317 38.9223C23.0488 39.0301 23.3912 39.1348 23.7242 39.2394C24.3855 39.4003 25.0245 39.6421 25.6267 39.9592C25.877 40.0936 26.1354 40.2122 26.4004 40.3144C26.8634 40.5141 27.3295 40.7012 27.7893 40.9042C28.0588 41.0215 28.322 41.1579 28.5852 41.291C28.7469 41.3735 28.9023 41.4845 29.0545 41.5637C30.1978 42.1304 31.4021 42.5645 32.644 42.8575C33.3353 43.0097 34.0234 43.1555 34.7178 43.2951C35.4122 43.4346 36.1796 43.5677 36.9089 43.7168C36.9927 43.7194 37.0737 43.7475 37.1412 43.7974C37.2086 43.8472 37.2592 43.9165 37.2862 43.9958C37.3465 44.1893 37.5526 44.2083 37.7207 44.0688C37.7572 44.0288 37.7882 43.9839 37.8126 43.9356C37.9553 43.9609 38.0441 43.9768 38.1297 43.999C38.4753 44.0846 38.8559 44.0561 39.1444 44.3161C39.1607 44.324 39.1786 44.3281 39.1967 44.3281C39.2148 44.3281 39.2327 44.324 39.2491 44.3161C39.4996 44.1893 39.6518 44.3573 39.7944 44.5063C40.2841 44.4497 40.7784 44.5615 41.196 44.8234C41.2923 44.7929 41.3931 44.779 41.4941 44.7822C42.1283 44.9122 42.791 45.0517 43.4347 45.2071C43.5203 45.2261 43.5679 45.2896 43.6662 45.2071C43.7546 45.157 43.8573 45.138 43.9579 45.1532C44.3796 45.1944 44.7982 45.2705 45.2263 45.2991C45.8953 45.3435 46.5676 45.3435 47.2366 45.3879C47.9974 45.4037 48.7563 45.3054 49.488 45.0961C49.8368 45.0105 50.1697 44.8678 50.5154 44.7791C51.1115 44.6078 51.7076 44.462 52.3006 44.2844C52.4382 44.2536 52.5713 44.2056 52.697 44.1417C53.1821 43.8722 53.6482 43.5931 54.1397 43.3172C54.2233 43.2459 54.3246 43.1985 54.4329 43.1801C54.5412 43.1617 54.6525 43.1729 54.7549 43.2126C54.7803 43.2126 54.8247 43.2126 54.8849 43.1809C54.85 43.0826 54.8183 42.997 54.7834 42.905C54.9198 42.7782 55.0339 42.6577 55.1671 42.5531C55.3003 42.4484 55.4684 42.3533 55.6047 42.236C55.7008 42.1315 55.8292 42.0622 55.9694 42.0394C56.1216 42.0394 56.204 41.9347 56.2294 41.7571C56.2493 41.6241 56.3169 41.5029 56.4196 41.416C56.5222 41.3291 56.653 41.2824 56.7875 41.2847C56.4663 41.92 56.0772 42.5185 55.6269 43.0699C54.8013 44.0864 53.9014 45.0403 52.9348 45.9238C51.752 47.0368 50.4551 48.6222 49.1487 49.5798C48.2418 50.2457 47.6171 50.3155 46.6119 50.8292C45.5433 51.3746 44.1355 51.8058 43.0732 52.3734C41.877 53.0691 40.6072 53.6296 39.2871 54.0445C38.4817 54.2696 37.6509 54.406 36.8265 54.5677C35.4366 54.8112 34.0261 54.9174 32.6155 54.8848C31.4517 54.8848 30.751 55.2241 29.5872 55.1829C28.7913 55.1575 27.3327 55.0592 26.5368 54.9673C25.4543 54.8678 24.3851 54.6552 23.3468 54.3331C22.7824 54.146 22.1894 53.5657 21.6123 53.4198C21.4613 53.3869 21.3145 53.3369 21.1747 53.2708C20.611 53.012 20.0163 52.8265 19.4054 52.7191C18.5472 52.5265 17.7179 52.2227 16.9384 51.8153C15.8183 51.2491 14.7443 50.596 13.7262 49.862C13.2094 49.472 12.721 49.0471 12.2169 48.6476C11.5478 48.1149 10.8565 47.6107 10.2097 47.0621C9.69915 46.6277 9.23937 46.1362 8.75739 45.6701L9.11253 45.353C9.18546 45.5242 9.23937 45.6701 9.32181 45.8572C9.37889 45.6415 9.4106 45.5115 9.45182 45.3466L9.07765 45.1532C9.09156 45.0174 9.0696 44.8804 9.01396 44.7557C8.95831 44.6311 8.87094 44.5232 8.76056 44.4429C8.69344 44.386 8.61349 44.3463 8.52761 44.3272C8.44172 44.3081 8.35247 44.3102 8.26757 44.3333C8.18267 44.3564 8.10467 44.3998 8.04029 44.4598C7.97591 44.5198 7.9271 44.5945 7.89806 44.6776L7.86318 44.6268ZM25.8582 50.7024L26.0802 50.7499L25.8963 51.4792C25.9767 51.4535 26.0596 51.4365 26.1436 51.4285C26.2325 51.4391 26.3198 51.4604 26.4036 51.4919C26.7461 51.5902 26.7556 51.568 26.9744 51.2921C27.1266 51.0987 27.0632 50.9212 27.06 50.7277L25.9533 50.5058C25.9311 50.5533 25.8963 50.6294 25.8582 50.7024C25.8582 50.7024 25.8392 50.7024 25.8328 50.7024C25.8265 50.7024 25.8328 50.7024 25.8328 50.7245L25.8646 50.6897L25.8582 50.7024ZM19.3927 47.3855C19.3451 47.468 19.2944 47.5536 19.2468 47.6456C19.1764 47.7825 19.1581 47.9403 19.1954 48.0897C19.2328 48.239 19.3232 48.3697 19.4498 48.4573C19.5988 48.5613 19.7778 48.6136 19.9593 48.6062C20.1409 48.5987 20.315 48.532 20.455 48.4161C20.6611 48.2861 20.8133 48.0324 21.1177 48.191C21.137 48.1919 21.1564 48.1888 21.1744 48.1816C21.1925 48.1745 21.2088 48.1637 21.2223 48.1498C21.2699 48.1022 21.3428 48.0324 21.3365 47.9817C21.3258 47.9474 21.3069 47.9162 21.2815 47.8908C21.2561 47.8654 21.2249 47.8465 21.1906 47.8358C21.1073 47.8302 21.0237 47.8388 20.9433 47.8612C20.7942 47.5758 20.6737 47.2841 20.3281 47.2016C19.9825 47.1192 19.6939 47.2999 19.3927 47.3855ZM23.8605 42.1757L23.7717 42.1979C23.7999 42.3313 23.8063 42.4683 23.7908 42.6038C23.7258 42.7276 23.6412 42.8401 23.5403 42.9367L23.9969 43.3585C24.1423 43.3743 24.289 43.3743 24.4345 43.3585C24.5867 43.3268 24.7896 43.0414 24.7516 42.924C24.6977 42.7179 24.6786 42.4801 24.3869 42.4548C24.2506 42.4548 24.1174 42.4104 23.9747 42.3882C23.9366 42.3247 23.8922 42.255 23.851 42.1821L23.8605 42.1757ZM5.03154 29.0925C4.95876 29.0441 4.8908 28.9889 4.8286 28.9276C4.75887 28.8613 4.67287 28.8147 4.57932 28.7924C4.48576 28.7702 4.38798 28.773 4.29589 28.8007C4.21545 28.8226 4.14213 28.8652 4.08317 28.9241C4.02422 28.9831 3.98168 29.0564 3.95977 29.1368C3.95977 29.2637 4.15954 29.4539 4.32126 29.4856C4.38419 29.4967 4.44858 29.4967 4.51151 29.4856C4.62366 29.4674 4.72966 29.4221 4.82029 29.3535C4.91092 29.285 4.98344 29.1954 5.03154 29.0925ZM23.9208 53.0298L24.3932 53.3469C24.4776 53.3077 24.5582 53.261 24.6342 53.2074C24.6753 53.1759 24.7089 53.1359 24.7329 53.0901C24.7568 53.0443 24.7705 52.9938 24.7729 52.9422C24.7753 52.8905 24.7664 52.839 24.7468 52.7911C24.7273 52.7433 24.6975 52.7003 24.6596 52.6652C24.6239 52.6325 24.5819 52.6076 24.5362 52.5919C24.4905 52.5762 24.442 52.5701 24.3938 52.5739C24.3456 52.5778 24.2987 52.5915 24.2561 52.6143C24.2134 52.6371 24.1759 52.6685 24.1459 52.7064C24.0629 52.814 23.9876 52.9274 23.9208 53.0457V53.0298ZM22.0182 52.1356C21.9611 52.0278 21.9167 51.901 21.885 51.9041C21.6948 51.9231 21.5933 51.6536 21.3935 51.7614C21.35 51.7878 21.3165 51.828 21.2984 51.8756C21.2744 51.9417 21.2553 52.0095 21.2413 52.0785C21.1462 52.1039 21.0511 52.1039 21.0067 52.1515C20.9623 52.199 20.902 52.329 20.9274 52.3734C21.0035 52.4907 21.0384 52.662 21.2445 52.7191C21.256 52.6304 21.2729 52.5425 21.2952 52.4559C21.3258 52.3722 21.3618 52.2907 21.4031 52.2117L22.0372 52.1356H22.0182ZM5.8655 34.2674L5.38986 34.4101C5.3612 34.4133 5.33363 34.4229 5.30916 34.4382C5.28469 34.4535 5.26394 34.474 5.24844 34.4983C5.23294 34.5227 5.22307 34.5501 5.21956 34.5788C5.21604 34.6074 5.21898 34.6364 5.22814 34.6638C5.2443 34.7078 5.27003 34.7477 5.30348 34.7806C5.33693 34.8135 5.37726 34.8386 5.42157 34.854C5.57872 34.8685 5.73688 34.8685 5.89404 34.854C5.89404 34.6352 5.87501 34.4577 5.8655 34.2611V34.2674ZM4.66689 37.0832L4.60664 37.023C4.60664 36.9976 4.60664 36.9691 4.60664 36.95C4.65737 36.8708 4.71128 36.7756 4.60664 36.7217C4.5689 36.7057 4.52784 36.699 4.48697 36.7024C4.44611 36.7057 4.40665 36.7188 4.37199 36.7407C4.33577 36.8136 4.32896 36.8976 4.35296 36.9754C4.3805 37.0608 4.42 37.142 4.47029 37.2164C4.484 37.2491 4.50475 37.2783 4.53106 37.3021C4.55738 37.3258 4.5886 37.3435 4.62252 37.3538C4.65644 37.3641 4.69221 37.3668 4.72728 37.3616C4.76235 37.3565 4.79587 37.3437 4.82543 37.3242C4.91207 37.268 4.99281 37.2032 5.06642 37.1308C5.19643 37.0134 5.18692 36.9849 4.97764 36.8486C4.873 36.9278 4.76836 37.0071 4.66054 37.0832H4.66689ZM24.8277 42.7592C24.8879 42.9431 24.8879 42.9431 25.075 42.9082L24.8277 42.7592ZM2.75482 14.7979C2.75482 14.7979 2.71042 14.8169 2.70725 14.8328C2.70408 14.8486 2.70725 14.8708 2.73262 14.893L2.79921 14.8391C2.78599 14.8238 2.7711 14.8099 2.75482 14.7979Z" fill="#966036"/>
<path d="M25.8232 50.6517C25.8613 50.5787 25.8962 50.5026 25.9184 50.4551L27.025 50.677C27.025 50.8705 27.0916 51.0481 26.9394 51.2415C26.7206 51.5174 26.7111 51.5395 26.3686 51.4381C26.2839 51.4105 26.1969 51.3904 26.1086 51.3778C26.0246 51.3858 25.9417 51.4028 25.8613 51.4286C25.9247 51.1749 25.9818 50.9498 26.0452 50.7024L25.8232 50.6517Z" fill="#844A2A"/>
<path d="M23.8892 52.9856C23.956 52.8673 24.0313 52.7539 24.1143 52.6463C24.1443 52.6084 24.1818 52.577 24.2244 52.5542C24.2671 52.5314 24.314 52.5177 24.3622 52.5138C24.4104 52.51 24.4588 52.5161 24.5046 52.5318C24.5503 52.5475 24.5923 52.5724 24.628 52.6051C24.6659 52.6402 24.6957 52.6832 24.7152 52.731C24.7348 52.7789 24.7437 52.8304 24.7413 52.8821C24.7388 52.9337 24.7252 52.9842 24.7012 53.03C24.6773 53.0758 24.6436 53.1158 24.6026 53.1473C24.5266 53.2009 24.446 53.2476 24.3616 53.2868L23.8892 52.9697" fill="#844A2A"/>
<path d="M21.9769 52.0755L21.3427 52.1516C21.3009 52.2303 21.2649 52.3119 21.2349 52.3958C21.2126 52.4824 21.1956 52.5703 21.1842 52.659C20.9812 52.6019 20.9464 52.4307 20.8671 52.3133C20.8417 52.2689 20.8924 52.1453 20.9464 52.0914C21.0003 52.0375 21.0859 52.0438 21.181 52.0184C21.1949 51.9494 21.214 51.8816 21.2381 51.8155C21.2562 51.7679 21.2897 51.7277 21.3332 51.7013C21.533 51.5935 21.6344 51.863 21.8247 51.844C21.8564 51.844 21.9008 51.9677 21.9579 52.0755" fill="#844A2A"/>
<path d="M5.81486 34.2073C5.81486 34.4039 5.83389 34.5814 5.8434 34.8002C5.68625 34.8148 5.52809 34.8148 5.37093 34.8002C5.32662 34.7848 5.28629 34.7598 5.25285 34.7268C5.2194 34.6939 5.19367 34.654 5.17751 34.61C5.16834 34.5826 5.16541 34.5536 5.16892 34.525C5.17243 34.4963 5.1823 34.4689 5.19781 34.4445C5.21331 34.4202 5.23405 34.3997 5.25852 34.3844C5.28299 34.3692 5.31056 34.3596 5.33922 34.3563L5.81486 34.2136" fill="#844A2A"/>
<path d="M4.66702 37.0834L4.98412 36.8488C5.1934 36.9851 5.20291 37.0137 5.0729 37.131C4.99928 37.2034 4.91854 37.2682 4.83191 37.3244C4.80235 37.344 4.76883 37.3568 4.73376 37.3619C4.69868 37.367 4.66291 37.3643 4.629 37.354C4.59508 37.3437 4.56386 37.3261 4.53754 37.3023C4.51123 37.2786 4.49048 37.2493 4.47677 37.2166C4.42648 37.1422 4.38698 37.0611 4.35944 36.9756C4.33458 36.8969 4.34141 36.8116 4.37847 36.7378C4.41492 36.7197 4.45508 36.7102 4.49579 36.7102C4.53651 36.7102 4.57667 36.7197 4.61312 36.7378C4.72093 36.7917 4.66702 36.8868 4.61312 36.9661C4.60649 36.99 4.60649 37.0152 4.61312 37.039L4.67337 37.0993" fill="#844A2A"/>
<path d="M2.75484 14.7981C2.77112 14.8101 2.78601 14.824 2.79923 14.8393L2.7263 14.8869C2.7263 14.8647 2.69776 14.8456 2.70093 14.8266C2.7041 14.8076 2.73264 14.8013 2.74849 14.7917" fill="#844A2A"/>
<path d="M25.8228 50.6519L25.7915 50.6863C25.7915 50.6863 25.7915 50.6863 25.7915 50.6644C25.7915 50.6425 25.8103 50.6644 25.8165 50.6644L25.8228 50.6519Z" fill="#844A2A"/>
<path d="M7.86303 44.627C7.89144 44.5435 7.93993 44.4682 8.00424 44.4077C8.06855 44.3473 8.14673 44.3036 8.23189 44.2804C8.31705 44.2572 8.4066 44.2553 8.49267 44.2748C8.57874 44.2944 8.65869 44.3347 8.72552 44.3924C8.8359 44.4727 8.92328 44.5805 8.97892 44.7052C9.03456 44.8298 9.05652 44.9669 9.04261 45.1027L9.41995 45.2961C9.37556 45.461 9.34385 45.591 9.28678 45.8066C9.20433 45.6037 9.15042 45.4895 9.07749 45.3024L8.72235 45.6195L7.85352 44.6334" fill="#844A2A"/>
<path d="M19.3514 47.3477C19.6685 47.2621 19.9508 47.0877 20.2869 47.1638C20.623 47.2399 20.753 47.538 20.902 47.8233C20.9824 47.8009 21.0661 47.7923 21.1494 47.798C21.1833 47.8093 21.2141 47.8285 21.2394 47.8538C21.2648 47.8791 21.2839 47.9099 21.2952 47.9438C21.2952 47.9946 21.2286 48.0643 21.1811 48.1119C21.1335 48.1595 21.0986 48.1626 21.0764 48.1531C20.7593 47.9946 20.6198 48.2482 20.4137 48.3783C20.2735 48.4936 20.0995 48.5601 19.918 48.5675C19.7366 48.575 19.5577 48.523 19.4085 48.4195C19.2819 48.3319 19.1915 48.2012 19.1542 48.0518C19.1168 47.9024 19.1351 47.7446 19.2056 47.6077C19.2532 47.5158 19.3039 47.4301 19.3514 47.3477Z" fill="#844A2A"/>
<path d="M8.34848 23.6987C8.37068 23.6987 8.40239 23.7177 8.4119 23.7368C8.72728 24.2376 8.99178 24.7687 9.20146 25.3222C8.98901 25.3222 8.7829 25.4808 8.56728 25.3508C8.42131 25.2781 8.28497 25.1876 8.1614 25.0813C8.11415 25.0428 8.07729 24.9932 8.05417 24.9368C8.03104 24.8805 8.0224 24.8193 8.02902 24.7587C8.03564 24.6982 8.05732 24.6403 8.09207 24.5902C8.12683 24.5402 8.17355 24.4997 8.22799 24.4724C8.29775 24.4249 8.37702 24.3868 8.46898 24.3329C8.42881 24.2822 8.38759 24.2346 8.34531 24.1902L8.19945 24.0285L8.35165 23.6892" fill="#844A2A"/>
<path d="M23.8195 42.1377C23.8608 42.2106 23.9052 42.2804 23.9432 42.3438C24.0859 42.366 24.2191 42.3977 24.3554 42.4072C24.6472 42.4358 24.6725 42.6736 24.7201 42.8797C24.7486 42.9907 24.5457 43.2792 24.403 43.3141C24.2576 43.33 24.1108 43.33 23.9654 43.3141L23.5088 42.8924C23.6098 42.7957 23.6944 42.6833 23.7593 42.5594C23.7748 42.424 23.7684 42.2869 23.7403 42.1535L23.8291 42.1313" fill="#844A2A"/>
<path d="M5.00003 29.0482C4.95193 29.1512 4.87941 29.2408 4.78878 29.3093C4.69815 29.3778 4.59215 29.4232 4.48 29.4414C4.41707 29.4525 4.35268 29.4525 4.28975 29.4414C4.12803 29.4193 3.92509 29.2195 3.92826 29.0926C3.95017 29.0122 3.99271 28.9389 4.05166 28.8799C4.11061 28.821 4.18394 28.7784 4.26438 28.7565C4.35647 28.7288 4.45425 28.726 4.54781 28.7482C4.64136 28.7705 4.72737 28.8171 4.79709 28.8834C4.85929 28.9447 4.92725 28.9999 5.00003 29.0482Z" fill="#844A2A"/>
<path d="M24.8276 42.7593L25.075 42.9083C24.8879 42.9432 24.8879 42.9432 24.8276 42.7593Z" fill="#844A2A"/>
<path d="M2.98595 14.2971V14.4557L2.3042 14.5762C2.36181 14.4523 2.46403 14.3548 2.59042 14.3031C2.7168 14.2514 2.85806 14.2492 2.98595 14.2971Z" fill="#844A2A"/>
<path d="M2.98638 14.297C2.98638 14.0053 2.93564 13.7104 2.94832 13.4187C2.97818 13.2228 3.02812 13.0304 3.09736 12.8447C3.09872 12.8321 3.09872 12.8193 3.09736 12.8067C3.06882 12.1915 3.38274 11.6556 3.49373 11.0722C3.50011 10.9962 3.50011 10.9199 3.49373 10.8439C3.49224 10.8397 3.49175 10.8352 3.4923 10.8308C3.49284 10.8264 3.49441 10.8222 3.49687 10.8185C3.49934 10.8148 3.50263 10.8117 3.50648 10.8095C3.51034 10.8073 3.51466 10.8061 3.51909 10.8058L3.57934 10.7044C3.77911 10.4348 3.95668 10.1495 4.17548 9.90212C4.50842 9.52161 4.86674 9.16646 5.21871 8.80181C5.32227 8.68634 5.4358 8.58023 5.558 8.48471C6.40161 7.84189 7.29432 7.26619 8.22792 6.7629C9.26204 6.26177 10.3433 5.86452 11.4559 5.57698C11.9918 5.42794 12.5372 5.3233 13.0858 5.225C13.3921 5.1763 13.7016 5.14981 14.0117 5.14572C14.4493 5.14572 14.89 5.14572 15.3308 5.14572C17.0399 5.1267 18.7427 5.22182 20.4455 5.37086C20.6231 5.38671 20.8038 5.41526 20.9814 5.44697C21.926 5.59319 22.8795 5.67476 23.8352 5.69113C23.9121 5.69261 23.9887 5.70217 24.0635 5.71966C24.8572 5.90331 25.6623 6.03361 26.4735 6.10969C27.0728 6.18896 27.6657 6.32214 28.265 6.42678C28.7121 6.50606 29.1592 6.5663 29.6032 6.64874C30.8468 6.89243 32.0646 7.25343 33.2402 7.72687C34.6893 8.28178 36.1258 8.86839 37.6224 9.28378C37.7584 9.32434 37.8918 9.37306 38.022 9.42965C38.9733 9.82285 39.9467 10.1875 40.8758 10.6219C41.9444 11.1134 42.994 11.6461 44.0246 12.2074C44.7637 12.6324 45.5282 13.0116 46.314 13.3426C47.7791 13.9148 49.1269 14.751 50.2903 15.8096C51.3811 16.7989 52.4909 17.7755 53.5469 18.8029C56.8795 21.067 57.7769 23.7305 58.6838 26.9395C59.0009 28.0557 59.1594 29.2131 59.3623 30.3546C59.4881 31.1601 59.5443 31.9748 59.5304 32.7899C59.5226 33.2419 59.4716 33.6921 59.3782 34.1344C59.2418 34.8447 59.1689 35.5708 58.985 36.2684C58.791 37.1552 58.4707 38.0095 58.0337 38.8051C57.8276 39.1476 57.6913 39.5281 57.5074 39.8833C57.2632 40.3526 57 40.8092 56.7463 41.2721C56.6118 41.2699 56.4811 41.3165 56.3785 41.4035C56.2758 41.4904 56.2082 41.6116 56.1882 41.7446C56.1629 41.9222 56.0804 42.011 55.9282 42.0268C55.7881 42.0497 55.6597 42.1189 55.5636 42.2234C55.4272 42.3376 55.2655 42.4232 55.126 42.5405C54.9865 42.6578 54.8786 42.7656 54.7423 42.8925C54.7772 42.9844 54.8089 43.07 54.8438 43.1683C54.7835 43.1842 54.7391 43.2127 54.7138 43.2C54.6119 43.1603 54.5011 43.149 54.3932 43.1675C54.2854 43.1859 54.1847 43.2333 54.1018 43.3047C53.6166 43.5806 53.1505 43.8596 52.6558 44.1291C52.5302 44.1931 52.397 44.241 52.2595 44.2718C51.6665 44.4399 51.0704 44.5889 50.4774 44.7697C50.1286 44.868 49.7956 45.0106 49.4468 45.0868C48.7152 45.296 47.9563 45.3943 47.1955 45.3785C46.5264 45.3341 45.8542 45.3341 45.1851 45.2897C44.7634 45.2612 44.3448 45.185 43.9167 45.1438C43.8162 45.1286 43.7135 45.1476 43.625 45.1977C43.5267 45.2707 43.4791 45.1977 43.3935 45.1977C42.7593 45.0424 42.0998 44.9028 41.4529 44.7728C41.352 44.7696 41.2512 44.7835 41.1549 44.8141C40.7373 44.5522 40.243 44.4403 39.7533 44.497C39.6106 44.3479 39.4584 44.1799 39.2079 44.3067C39.1916 44.3146 39.1737 44.3187 39.1556 44.3187C39.1375 44.3187 39.1196 44.3146 39.1033 44.3067C38.8147 44.0435 38.4342 44.0721 38.0886 43.9896C38.003 43.9674 37.9142 43.9516 37.7715 43.9262C37.747 43.9746 37.7161 44.0194 37.6795 44.0594C37.5115 44.1989 37.3054 44.1799 37.2451 43.9864C37.1849 43.793 37.0231 43.7391 36.8678 43.7074C36.1384 43.5584 35.406 43.4315 34.6766 43.2857C33.9473 43.1398 33.2941 43.0003 32.6029 42.8481C31.3702 42.5435 30.1765 42.0988 29.0451 41.5226C28.8834 41.4465 28.728 41.3356 28.5758 41.2531C28.3126 41.1199 28.0494 40.9836 27.7799 40.8662C27.3201 40.6633 26.854 40.4762 26.391 40.2765C26.126 40.1743 25.8676 40.0557 25.6173 39.9213C25.0151 39.6042 24.3761 39.3624 23.7147 39.2015C23.3977 39.1064 23.0488 39.0017 22.7222 38.8844C22.4386 38.8 22.1458 38.75 21.8502 38.7354C21.3755 38.7063 20.9032 38.647 20.436 38.5578C19.8208 38.4342 19.2089 38.2851 18.6 38.1171C17.5248 37.8554 16.4769 37.4923 15.4703 37.0326C15.1123 36.8858 14.739 36.7794 14.3573 36.7155C13.8817 36.6045 13.4061 36.5094 12.9272 36.3984C12.8636 36.3886 12.803 36.3648 12.7497 36.3286C12.6522 36.2569 12.5415 36.2052 12.424 36.1763C12.3064 36.1475 12.1844 36.1422 12.0647 36.1606C12.0759 36.0819 12.0649 36.0016 12.0329 35.9288C12.001 35.856 11.9494 35.7935 11.884 35.7484C11.4781 35.4947 11.4274 35.0444 11.3323 34.6354C11.2593 34.3183 11.2815 33.9695 11.2371 33.6397C11.1683 32.8204 11.0229 32.0093 10.8027 31.2171C10.4856 30.2658 10.2446 29.2606 9.97511 28.2808C9.78485 27.598 9.60094 26.9152 9.42337 26.2324C9.34409 25.9153 9.28702 25.5982 9.22043 25.2811C9.01074 24.7277 8.74624 24.1965 8.43086 23.6957C8.43086 23.6766 8.38964 23.6703 8.36744 23.6576C8.05319 23.3368 7.723 23.032 7.37811 22.7444C6.35628 21.999 5.46301 21.0918 4.73356 20.0586C4.22116 19.343 3.7954 18.5692 3.46519 17.7533C3.21439 17.1497 3.07888 16.5043 3.06565 15.8508C3.06565 15.3751 3.01808 14.8995 2.99272 14.4239V14.2653L2.98638 14.297ZM14.091 33.7126L14.5698 34.0043C15.0141 34.2108 15.4901 34.3405 15.9777 34.388C16.4919 34.4445 16.9945 34.5792 17.468 34.7876C17.9909 35.0437 18.5437 35.2333 19.1137 35.352C19.3167 35.3932 19.5069 35.4757 19.7099 35.5232C20.436 35.6945 21.1621 35.8974 21.8978 36.0147C22.7815 36.1317 23.655 36.3162 24.5106 36.5665C24.7607 36.6291 25.0055 36.7108 25.2431 36.8106C26.4291 37.4448 27.7069 37.8792 28.8929 38.5198C30.0257 39.1218 31.2486 39.5362 32.5141 39.7469C34.3976 40.064 36.2716 40.4604 38.1266 40.9297C39.7144 41.3437 41.3358 41.6153 42.9718 41.7414C44.4812 41.8492 45.9937 41.9 47.5031 41.9761C47.9328 41.9977 48.3628 41.9397 48.7714 41.8048L50.5567 41.3451C51.5183 41.0877 52.4341 40.6823 53.271 40.1433C53.623 39.915 53.9401 39.6264 54.2762 39.3664C54.7323 38.9883 55.1289 38.5436 55.4526 38.0473C55.6967 37.7302 55.9663 37.4321 56.1787 37.096C56.5182 36.5774 56.767 36.0048 56.9144 35.4027C57.0617 34.7098 57.1592 34.0073 57.2061 33.3004C57.2617 32.6955 57.2521 32.0864 57.1776 31.4835C57.0602 30.6305 56.8605 29.787 56.6734 28.9467C56.4078 27.8974 56.0293 26.8799 55.5445 25.9121C55.3979 25.4352 55.1843 24.9815 54.9104 24.5645C54.4602 23.7062 53.945 22.8835 53.3693 22.1039L52.1675 20.4898C51.923 20.0823 51.5996 19.7276 51.2162 19.4466C50.7786 19.1295 50.3664 18.7744 49.9288 18.4541C48.9775 17.766 48.0453 17.0938 47.1099 16.4025C46.3503 15.864 45.5323 15.413 44.6714 15.0581C44.0182 14.7695 43.403 14.4048 42.7942 14.056C41.9539 13.5804 41.0883 13.1492 40.2321 12.6989L39.0589 12.0171C38.9701 11.9664 38.8845 11.9125 38.7925 11.8649C37.5255 11.2814 36.2266 10.7701 34.9018 10.3334C32.7901 9.5345 30.6201 8.89948 28.4109 8.43398C27.3613 8.22152 26.3117 8.01859 25.2558 7.82199C24.9799 7.76808 24.6914 7.76808 24.4092 7.73003C23.775 7.64759 23.1598 7.52075 22.5288 7.47001C21.5522 7.39391 20.5692 7.3305 19.5894 7.32733C18.1688 7.32733 16.7355 7.36537 15.3245 7.39074C15.2991 7.38922 15.2737 7.38922 15.2484 7.39074L13.9261 7.45734C13.4378 7.4827 12.9463 7.4827 12.4579 7.53661C11.6734 7.6085 10.901 7.77896 10.159 8.04396C9.04512 8.49795 8.01838 9.14167 7.12444 9.94652C6.32854 10.6314 5.51361 12.4833 5.64362 13.5709C5.68167 13.888 5.66264 14.2051 5.71655 14.4968C5.81802 15.0802 5.9512 15.6574 6.07169 16.2345C6.15097 16.6023 6.21438 16.9701 6.31268 17.3284C6.38878 17.598 6.51245 17.8548 6.62977 18.118C6.62977 18.1656 6.65514 18.2163 6.67417 18.2639C7.36472 19.7607 8.40955 21.0667 9.71826 22.069C10.0702 22.348 10.4064 22.6429 10.7488 22.9346C10.9518 23.2961 11.1547 23.6576 11.3545 24.0223C11.4084 24.2062 11.4591 24.3933 11.5098 24.5804C11.9918 26.3476 12.4717 28.1138 12.9494 29.879C13.0089 30.0871 13.0544 30.299 13.0858 30.5132C13.1777 31.1917 13.2602 31.8703 13.3458 32.5489C13.3693 32.8458 13.4796 33.1291 13.6629 33.3638C13.7992 33.497 13.9515 33.6175 14.0973 33.7443" fill="#844A2A"/>
<path d="M29.5241 46.3901C29.5526 46.1111 29.5843 45.8479 29.616 45.553L29.4067 45.5118C29.5843 45.3881 29.8031 45.5118 29.8221 45.2834L30.3295 45.6005C30.3295 45.6005 30.3105 45.6988 30.3295 45.721C30.3485 45.7432 30.507 45.7876 30.58 45.8415C30.6529 45.8954 30.7037 45.9652 30.6973 46.0223C30.691 46.0794 30.6054 46.1428 30.5419 46.1777C30.478 46.2089 30.4058 46.2189 30.3358 46.2062C30.2448 46.1882 30.1507 46.1949 30.0631 46.2256C29.9756 46.2563 29.8979 46.3098 29.838 46.3806C29.7238 46.4916 29.635 46.4599 29.5209 46.3806" fill="#844A2A"/>
<path d="M13.3839 37.6158C13.331 37.5457 13.2583 37.4931 13.1752 37.4648C13.0921 37.4365 13.0024 37.4339 12.9177 37.4573L13.0794 37.286L12.6767 37.2385C12.6767 37.4604 12.6767 37.6666 12.6767 37.8727C12.6767 38.0788 12.6323 38.1898 12.4357 38.1898C12.3977 38.1941 12.3592 38.1908 12.3225 38.18C12.2858 38.1692 12.2517 38.1512 12.2221 38.1269C12.1925 38.1027 12.1681 38.0727 12.1504 38.0388C12.1326 38.005 12.1218 37.9679 12.1187 37.9297C12.1187 37.7712 12.2106 37.6888 12.4357 37.6634C12.4706 37.5809 12.5023 37.4953 12.5436 37.3938C12.4904 37.3546 12.4342 37.3197 12.3755 37.2892C12.2677 37.2321 12.1662 37.1719 12.1979 37.0292C12.2296 36.8865 12.3438 36.858 12.515 36.8707C12.6862 36.8833 12.8321 36.8009 12.9367 36.8707C13.0414 36.9404 13.0858 37.1116 13.1746 37.229C13.2126 37.2797 13.2982 37.2892 13.3521 37.3336C13.406 37.378 13.4536 37.4985 13.3521 37.619" fill="#844A2A"/>
<path d="M40.6949 47.0181C40.9169 47.1544 40.9454 47.2178 40.8154 47.3352C40.7437 47.3782 40.6865 47.4416 40.6509 47.5172C40.6153 47.5929 40.6031 47.6774 40.6156 47.7601C40.4 47.7283 40.2446 47.9693 39.9814 47.7981C40.1146 47.6522 40.2129 47.4493 40.3588 47.4081C40.5712 47.3478 40.5998 47.1925 40.6759 47.0276" fill="#844A2A"/>
<path d="M34.6704 48.1814H35.2792L35.1524 48.416L35.3331 48.6792C35.1744 48.7024 35.0131 48.7024 34.8543 48.6792C34.6292 48.6 34.6926 48.3843 34.6704 48.2004" fill="#844A2A"/>
<path d="M28.6675 45.4767C28.6104 45.6321 28.5724 45.7431 28.528 45.8604C28.2362 45.7938 28.3345 45.4704 28.1348 45.3816L28.1633 44.8743C28.344 44.8743 28.3821 44.9218 28.3631 45.0582C28.3377 45.2548 28.3631 45.4292 28.6802 45.4767" fill="#844A2A"/>
<path d="M24.4093 51.6221L24.1778 51.5682C24.1461 51.4825 24.0859 51.4825 24.0161 51.5206L24.1937 51.2637C24.1651 50.9466 24.1651 50.9466 24.4474 50.804C24.5012 50.9161 24.5478 51.0315 24.5869 51.1496C24.5869 51.1781 24.5266 51.2257 24.4949 51.2637V51.2416H24.4759L24.5108 51.2637C24.4646 51.3096 24.4326 51.3677 24.4185 51.4313C24.4045 51.4948 24.409 51.561 24.4315 51.6221" fill="#844A2A"/>
<path d="M29.5935 47.5887C29.5935 47.4523 29.5617 47.3223 29.5396 47.1257C29.7932 47.2716 29.993 47.3667 30.1737 47.4872C30.2815 47.5633 30.253 47.6711 30.1389 47.7631L29.5935 47.5887Z" fill="#844A2A"/>
<path d="M8.65571 26.5527L8.77621 26.6827L8.96963 26.5939C8.92524 26.4417 8.86182 26.2768 9.0711 26.1943C9.1188 26.264 9.14859 26.3443 9.15786 26.4282C9.16712 26.5121 9.15557 26.597 9.12422 26.6754C9.09287 26.7537 9.04269 26.8232 8.97812 26.8776C8.91355 26.9319 8.83658 26.9695 8.75401 26.9871C8.70328 26.8539 8.65254 26.7175 8.59863 26.5812L8.66205 26.5527" fill="#844A2A"/>
<path d="M27.1111 43.8343L26.8193 43.6028C26.8951 43.5349 26.9612 43.4571 27.0159 43.3713C27.0572 43.2794 27.0476 43.1652 27.184 43.105C27.2673 43.2009 27.3177 43.321 27.328 43.4476C27.3383 43.5742 27.3078 43.7008 27.2411 43.8089L27.1111 43.8343Z" fill="#844A2A"/>
<path d="M17.0938 40.0925C17.1286 40.029 17.1572 39.9276 17.1889 39.9276C17.335 39.9173 17.4817 39.9313 17.6233 39.9688C17.6492 39.9747 17.6732 39.9868 17.6934 40.004C17.7136 40.0212 17.7293 40.043 17.7393 40.0676C17.7493 40.0922 17.7531 40.1188 17.7506 40.1452C17.7481 40.1717 17.7392 40.1971 17.7248 40.2193C17.6997 40.2666 17.6573 40.3023 17.6064 40.3189C17.5555 40.3355 17.5002 40.3316 17.4521 40.3081C17.3411 40.2574 17.2428 40.1813 17.0938 40.0925Z" fill="#844A2A"/>
<path d="M10.1242 38.3518C10.1242 38.3074 10.1242 38.2662 10.1021 38.2218C10.1268 38.1982 10.1545 38.178 10.1845 38.1616C10.2003 38.1487 10.2194 38.1405 10.2396 38.1377C10.2598 38.135 10.2804 38.1379 10.299 38.1461C10.3177 38.1543 10.3338 38.1674 10.3455 38.1842C10.3571 38.2009 10.364 38.2205 10.3652 38.2408C10.3652 38.3328 10.3272 38.393 10.2225 38.3804L10.1242 38.3518Z" fill="#844A2A"/>
<path d="M50.1162 15.8984C50.1162 15.8984 50.1162 15.8984 50.1162 15.9238L50.1447 15.9016L50.1257 15.8826" fill="#844A2A"/>
<path d="M50.4776 17.6458C50.4015 17.4206 50.3285 17.1923 50.2461 16.945C50.3917 16.8384 50.5431 16.74 50.6995 16.6501C50.7618 16.6203 50.8159 16.576 50.8574 16.5207C50.8988 16.4655 50.9262 16.4011 50.9374 16.333C50.9944 16.4472 51.0547 16.5613 51.1149 16.6755C51.0039 17.0243 50.8898 17.3731 50.7788 17.7219L50.4617 17.6299L50.4776 17.6458Z" fill="#844A2A"/>
<path d="M30.4907 48.5464L30.2148 47.9281C30.3544 47.8901 30.3861 47.7886 30.4241 47.6364C30.5014 47.305 30.6907 47.0104 30.96 46.8024C30.7063 46.5932 30.7063 46.5931 30.9251 46.1904C31.1564 46.3578 31.3757 46.5411 31.5815 46.739C31.6392 46.8109 31.7028 46.8777 31.7718 46.9388C31.9061 47.0322 32.0063 47.1669 32.0572 47.3225C32.1015 47.462 32.2506 47.5888 32.2442 47.7157C32.2379 47.8425 32.0889 47.9566 32.0128 48.0835C31.9367 48.2103 31.8669 48.372 31.8003 48.5084C31.8828 48.6511 31.9557 48.7906 32.0413 48.9206C32.0568 48.943 32.0765 48.962 32.0993 48.9767C32.1222 48.9914 32.1477 49.0014 32.1745 49.0062C32.2529 49.0034 32.3307 48.9906 32.406 48.9682C32.3108 49.187 32.2601 49.2155 32.0064 49.1584C31.851 49.1236 31.7084 49.0792 31.6101 49.3297C31.534 49.1045 31.4769 48.9428 31.4261 48.8033L30.4907 48.5464Z" fill="#844A2A"/>
<path d="M11.9694 45.0868L11.1196 44.1101C11.2433 43.9325 11.4367 43.793 11.4367 43.5489C11.4367 43.4823 11.5255 43.4125 11.5889 43.3649C11.6945 43.2577 11.8228 43.1755 11.9644 43.1245C12.106 43.0734 12.2573 43.0548 12.407 43.0701C12.4652 43.0696 12.523 43.0599 12.5783 43.0415H12.648L12.8827 43.1398C12.9175 43.1683 12.9493 43.2127 12.9873 43.2254C13.279 43.3301 13.3044 43.3776 13.3361 43.6535C13.3648 44.1102 13.2249 44.5615 12.9429 44.9219C12.889 44.9821 12.8142 45.0196 12.7336 45.0265C12.4831 45.0582 12.2263 45.0773 11.9726 45.0995" fill="#844A2A"/>
<path d="M28.5121 48.2927C28.528 48.3847 28.5438 48.4766 28.5628 48.5718C28.7038 48.5471 28.8405 48.5023 28.9687 48.4386C29.0901 48.3234 29.1967 48.1934 29.2858 48.0518L29.4285 48.4291L29.7075 48.4989C29.4792 48.7018 29.5427 48.9079 29.6283 49.133L29.8756 49.0982C29.7519 49.3138 29.7519 49.3138 29.3239 49.1901C29.2858 49.4501 29.2858 49.4501 29.5871 49.5326C29.5553 49.6436 29.5268 49.7514 29.4887 49.8877C29.3651 49.8877 29.2319 49.8877 29.1717 50.0494C29.1403 50.1191 29.0849 50.1751 29.0156 50.2071C28.9462 50.2391 28.8677 50.2451 28.7943 50.2238C28.6554 50.2276 28.5176 50.2511 28.3853 50.2936L28.1601 49.9004L28.4772 49.8592C28.4772 49.8592 28.5121 49.8306 28.5153 49.8116C28.5368 49.6135 28.62 49.4272 28.7531 49.2789C28.8641 49.1394 29.0036 48.9903 28.8577 48.7398L28.2236 49.2789C27.9921 49.1204 28.2775 48.9618 28.1792 48.7842C28.1423 48.7673 28.1023 48.7581 28.0618 48.7573C28.0212 48.7565 27.9809 48.7641 27.9434 48.7796C27.9059 48.795 27.872 48.8181 27.8438 48.8473C27.8157 48.8764 27.7938 48.9111 27.7796 48.9491C27.7257 49.0506 27.6782 49.1521 27.6179 49.2662L27.824 49.5516L27.5545 49.7133C27.4752 49.5199 27.5735 49.3138 27.3579 49.1901C27.1838 49.108 26.9919 49.0709 26.7998 49.0823L27.0566 48.8794C27.0884 48.6986 26.9362 48.4957 27.0979 48.3181C27.323 48.3593 27.323 48.3593 27.5196 48.2135L27.6591 48.5084C27.7432 48.5116 27.8274 48.5042 27.9096 48.4862C28.0633 48.4078 28.2354 48.3728 28.4075 48.3847C28.4265 48.3847 28.455 48.3371 28.4772 48.3118H28.5438" fill="#844A2A"/>
<path d="M7.2067 34.5466C7.17499 34.3849 7.14328 34.2295 7.11475 34.0646C7.23841 33.979 7.36842 33.9061 7.48257 33.811C7.53677 33.7567 7.56944 33.6846 7.57453 33.608C7.57453 33.5763 7.48257 33.5161 7.4255 33.5097C7.25744 33.4875 7.24793 33.3956 7.29866 33.2402C7.55233 33.3068 7.83138 33.2402 8.05017 33.4304C8.03432 33.5731 8.02163 33.7 8.00261 33.8744L8.29116 33.7539C8.24677 33.6905 8.18335 33.6397 8.18969 33.5985C8.23092 33.3036 7.99626 33.0721 8.02163 32.7899C8.02699 32.7522 8.03986 32.7159 8.05946 32.6832C8.07907 32.6506 8.10502 32.6221 8.13579 32.5997C8.18876 32.5698 8.25114 32.5615 8.31011 32.5762C8.36908 32.5909 8.42017 32.6277 8.45288 32.6789C8.53138 32.7888 8.60338 32.9031 8.6685 33.0214C8.57972 33.0912 8.44654 33.1482 8.41166 33.2402C8.38633 33.3711 8.38633 33.5056 8.41166 33.6366C8.60508 33.6746 8.83656 33.6366 8.97291 33.8427C8.99194 34.0646 8.70973 33.9885 8.67484 34.128C8.62728 34.3405 8.43385 34.2105 8.30702 34.3183C8.4941 34.5308 8.82388 34.4895 9.02682 34.7464L8.34824 34.851C8.16115 34.8764 8.09139 35.0096 8.05334 35.1903C8.10623 35.1482 8.16498 35.114 8.22774 35.0888C8.26896 35.0888 8.3197 35.1237 8.36409 35.1459C8.34507 35.184 8.33555 35.2474 8.30702 35.2537C8.21953 35.2851 8.12727 35.3012 8.03432 35.3013C7.95504 35.3013 7.87894 35.2379 7.80284 35.2379C7.70766 35.2522 7.61552 35.2822 7.53014 35.3267L7.68551 35.0096H7.36842C7.3636 34.9674 7.3636 34.9249 7.36842 34.8827C7.39696 34.7781 7.36842 34.7369 7.25744 34.74L7.2289 34.6069C7.2289 34.5847 7.2289 34.5593 7.2289 34.5371" fill="#844A2A"/>
<path d="M33.995 50.0586L34.2868 50.1538L34.7212 49.9857C34.8068 50.1474 34.8766 50.2806 34.7212 50.3852C34.6831 50.4106 34.5595 50.3155 34.4675 50.2742C34.4675 50.4169 34.5309 50.5913 34.3565 50.715C34.1821 50.8387 34.1409 50.8419 34.0045 50.715C33.9475 50.6611 33.8936 50.6009 33.8397 50.547C33.5035 50.7594 33.4909 50.7531 33.4528 50.4201C33.3228 50.3852 33.1896 50.2711 33.0501 50.4391L32.7742 50.2013L32.8979 50.0491C32.454 50.0111 32.3049 49.9318 32.2954 49.732C32.2859 49.5323 32.4127 49.361 32.6854 49.3261C32.6696 49.2818 32.6379 49.2437 32.6442 49.212C32.6586 49.151 32.6787 49.0915 32.7045 49.0344C32.7647 49.0756 32.8598 49.1074 32.8789 49.1613C32.8941 49.2664 32.8941 49.3732 32.8789 49.4784C32.9513 49.5052 33.0222 49.5359 33.0913 49.5703C33.3291 49.7035 33.4084 49.6908 33.624 49.4942C33.7477 49.3737 33.8333 49.3674 33.9411 49.4942C34.0229 49.5822 34.1002 49.6743 34.1726 49.7701C34.1726 49.9286 33.9253 49.9033 33.9697 50.0872C33.8555 50.1823 33.8555 50.1823 33.9697 50.3028C33.9697 50.214 33.9697 50.1506 33.9697 50.0872" fill="#844A2A"/>
<path d="M14.0812 43.0478C14.0368 43.0129 13.9925 42.9749 13.9449 42.9432C13.8316 42.8826 13.7338 42.7967 13.659 42.6922C13.5842 42.5878 13.5345 42.4675 13.5136 42.3407C13.4788 42.0902 13.4629 42.0934 13.1617 42.0553C12.8604 42.0173 12.8129 41.8841 12.889 41.6241L13.6563 41.4084C13.7334 41.4916 13.8247 41.5603 13.9259 41.6114C14.021 41.6463 14.1478 41.5923 14.281 41.5733C14.3761 41.6748 14.4903 41.789 14.5981 41.9063C14.6948 41.9909 14.7555 42.1092 14.7679 42.2371C14.7803 42.365 14.7434 42.4928 14.6647 42.5944C14.5644 42.7805 14.4079 42.9303 14.2176 43.0224L14.0812 43.0478Z" fill="#844A2A"/>
<path d="M10.7839 41.0881C10.6974 40.9774 10.6475 40.8424 10.6412 40.7021C10.635 40.5617 10.6727 40.4228 10.7491 40.3049C10.8259 40.1013 10.8729 39.8877 10.8886 39.6707C10.8 39.6831 10.7122 39.7 10.6254 39.7214C10.4161 39.7848 10.3083 39.7214 10.3083 39.5153C10.2964 39.3988 10.2762 39.2833 10.248 39.1697L10.9488 38.897C10.9742 38.8209 11.0059 38.7353 11.044 38.6274C11.1116 38.6315 11.1787 38.6432 11.2437 38.6623C11.2664 38.6695 11.2871 38.6819 11.3041 38.6986C11.3211 38.7152 11.334 38.7356 11.3417 38.7581C11.3494 38.7806 11.3517 38.8046 11.3485 38.8282C11.3452 38.8517 11.3365 38.8742 11.323 38.8938C11.1422 39.1285 11.2057 39.436 11.0535 39.6738C11.0376 39.6992 11.0535 39.7404 11.0535 39.8007C11.1296 39.8453 11.2118 39.8784 11.2976 39.899C11.5037 39.918 11.5894 40.1083 11.7416 40.2002C11.7416 40.2002 11.7416 40.2985 11.7194 40.3524L11.2881 40.3176C11.1656 40.3969 11.0629 40.5034 10.9882 40.6287C10.9134 40.7541 10.8685 40.895 10.8569 41.0405C10.8569 41.0405 10.7998 41.0722 10.7713 41.0881" fill="#844A2A"/>
<path d="M27.84 46.9894C27.7259 47.0655 27.6117 47.1384 27.5039 47.2208C27.4583 47.2653 27.3982 47.2917 27.3347 47.2952C27.2711 47.2987 27.2085 47.279 27.1583 47.2399C26.8697 47.0496 26.8666 47.0559 26.7619 46.6945L26.1943 46.6628C26.299 46.3837 26.058 46.0698 26.3212 45.8605C26.5178 45.7051 26.5939 45.3849 26.9236 45.4007C27.0061 45.48 26.9871 45.5434 26.8919 45.591C26.7239 45.6766 26.7365 45.8193 26.8 45.9493C26.8629 46.0952 26.9534 46.2276 27.0663 46.3393C27.2172 46.5238 27.3411 46.7288 27.4342 46.9481C27.6212 46.8308 27.3771 46.5835 27.6117 46.4788C27.8305 46.5264 27.9447 46.7198 28.1222 46.8847L27.9764 46.964C27.9161 46.9006 27.8686 46.9069 27.8369 46.9894H27.84Z" fill="#844A2A"/>
<path d="M33.1418 46.8784C33.3923 47.0496 33.3986 47.0623 33.3003 47.2938C33.2339 47.4486 33.2098 47.6182 33.2304 47.7853C33.251 47.9524 33.3157 48.1111 33.4177 48.2451C33.294 48.7049 33.1545 48.7493 32.6883 48.4861L32.3269 48.708L32.0098 48.4797C32.1207 48.3592 32.2349 48.2324 32.3713 48.0897L32.4664 48.3719L32.6661 47.9407L32.4188 47.8265C32.4675 47.7716 32.5205 47.7207 32.5774 47.6743C32.6573 47.6186 32.7223 47.544 32.7665 47.4572C32.8108 47.3703 32.8329 47.2739 32.831 47.1765C32.831 47.1036 32.831 47.0179 32.9515 46.9957C33.0213 46.9957 33.0784 46.9101 33.1386 46.8689" fill="#844A2A"/>
<path d="M9.96255 38.2375L10.1021 38.2153C10.1021 38.2597 10.1021 38.3009 10.1243 38.3453C10.1465 38.3897 10.1465 38.5039 10.1591 38.6022L9.86108 38.6751C9.90547 38.8432 9.95621 38.9922 9.98157 39.1286C10.002 39.203 9.99215 39.2825 9.95412 39.3496C9.91608 39.4168 9.85298 39.4662 9.77863 39.4869C9.7435 39.5076 9.70428 39.5205 9.6637 39.5246C9.62311 39.5287 9.58212 39.5239 9.54354 39.5107C9.50496 39.4974 9.46971 39.4759 9.44023 39.4477C9.41075 39.4196 9.38773 39.3853 9.37276 39.3474C9.27129 39.1793 9.17299 39.0303 9.05566 38.821C9.09372 38.7861 9.14762 38.6941 9.2047 38.691C9.34939 38.6885 9.49058 38.6461 9.6126 38.5682C9.73462 38.4904 9.8327 38.3804 9.89596 38.2502H9.96572" fill="#844A2A"/>
<path d="M29.045 46.4788C28.988 46.4835 28.9308 46.4835 28.8738 46.4788C28.8259 46.4693 28.7799 46.4522 28.7374 46.428L29.0387 45.9365C29.0704 45.9587 29.1528 45.9873 29.1623 46.0316C29.2101 46.2135 29.3229 46.3714 29.4794 46.4756C29.6507 46.6246 29.6412 46.9417 29.4541 47.0178C29.232 47.133 29.0472 47.309 28.9214 47.5252C28.804 47.3952 28.7692 47.2081 28.6201 47.151C28.6201 47.151 28.6201 47.0178 28.6582 47.0083C28.915 46.9195 28.9309 46.6563 29.0577 46.4724L29.2099 46.4312L29.1877 46.3868L29.0577 46.4724" fill="#844A2A"/>
<path d="M38.5579 45.3276C38.4787 45.4163 38.4438 45.4893 38.3867 45.5146C38.3322 45.5375 38.2872 45.5782 38.2589 45.6301C38.2307 45.6819 38.221 45.7419 38.2313 45.8C38.2372 45.8819 38.2198 45.9638 38.1811 46.0362C38.1424 46.1086 38.0839 46.1685 38.0125 46.2091C37.9139 46.2929 37.8207 46.3829 37.7335 46.4786C37.6669 46.1615 37.4893 45.9078 37.5432 45.5876C37.5432 45.5305 37.5718 45.4385 37.6003 45.4322C37.8064 45.3973 37.9586 45.1563 38.2091 45.2832C38.3227 45.3146 38.4401 45.3296 38.5579 45.3276Z" fill="#844A2A"/>
<path d="M38.5359 46.3077C38.3107 46.165 38.6342 45.9747 38.4978 45.813L38.7927 45.7052L38.6659 45.3881C38.8498 45.2771 38.983 45.1091 39.2366 45.1281C39.306 45.1208 39.3757 45.1381 39.4337 45.1769C39.4916 45.2157 39.5341 45.2736 39.5537 45.3405C39.6013 45.4896 39.484 45.5403 39.3888 45.6101C39.243 45.7115 39.1035 45.8257 38.9671 45.9272C38.8308 46.0286 38.7134 46.146 38.5422 46.2918" fill="#844A2A"/>
<path d="M12.4356 36.3001L12.5847 36.6171L12.5403 36.6584C12.4895 36.6298 12.4007 36.6076 12.3944 36.5727C12.3744 36.4951 12.3377 36.4228 12.2867 36.3609C12.2358 36.299 12.1719 36.249 12.0995 36.2144C12.0199 36.1488 11.9693 36.0544 11.9587 35.9518C11.948 35.8492 11.9781 35.7465 12.0424 35.6659C12.1946 35.4915 12.2898 35.4724 12.461 35.5739C12.5011 35.5906 12.5374 35.6154 12.5675 35.6467C12.5977 35.678 12.6211 35.7152 12.6362 35.756C12.6514 35.7967 12.658 35.8402 12.6557 35.8836C12.6534 35.927 12.6421 35.9694 12.6227 36.0083C12.5686 36.1086 12.506 36.2041 12.4356 36.2937" fill="#844A2A"/>
<path d="M35.8022 45.8194C35.8896 45.7733 35.9908 45.7605 36.0869 45.7832C36.1831 45.8059 36.2678 45.8627 36.3254 45.943C36.2239 46.0731 36.1002 46.1618 36.1446 46.3426C36.1732 46.4567 35.9766 46.6406 35.9163 46.5899C35.7197 46.425 35.6595 46.6977 35.4882 46.6819C35.4058 46.6058 35.2821 46.5297 35.3614 46.3648C35.4407 46.1999 35.5009 46.1967 35.8307 46.2665C35.8307 46.1238 35.8148 45.9906 35.8022 45.8289" fill="#844A2A"/>
<path d="M21.6253 46.7231L21.4763 46.4853C21.432 46.4806 21.3874 46.4806 21.3431 46.4853C21.1687 46.517 21.0863 46.4377 21.0514 46.2728C21.0165 46.1079 21.0514 46.0096 21.2543 45.8955C21.2822 45.875 21.314 45.8604 21.3477 45.8528C21.3814 45.8452 21.4164 45.8447 21.4504 45.8512C21.4843 45.8578 21.5165 45.8713 21.545 45.8909C21.5735 45.9105 21.5976 45.9358 21.6158 45.9652C21.711 46.0678 21.7639 46.2026 21.7639 46.3426C21.7639 46.4825 21.711 46.6173 21.6158 46.7199" fill="#844A2A"/>
<path d="M16.3387 45.8447C16.0818 45.813 15.8218 45.9081 15.6094 45.7084C15.7426 45.1757 15.8091 45.1217 16.2594 45.2042C16.2784 45.2993 16.3006 45.3976 16.3133 45.4991C16.326 45.6005 16.3292 45.6989 16.3387 45.8447Z" fill="#844A2A"/>
<path d="M36.9408 45.9429C37.1945 46.0126 37.093 46.2092 37.1184 46.3487L37.315 46.4249L36.9725 46.9893C36.5983 46.7356 36.5983 46.4407 36.9535 45.9429" fill="#844A2A"/>
<path d="M12.3567 42.2837C12.1886 42.3883 11.9445 42.1981 11.7986 42.5025C11.7732 42.3598 11.7606 42.2805 11.7415 42.1854C11.6781 41.8968 11.862 41.7034 12.1474 41.77C12.252 41.7922 12.2869 41.8619 12.2933 41.9729C12.3035 42.0732 12.3248 42.1721 12.3567 42.2678" fill="#844A2A"/>
<path d="M29.2133 44.1799L28.9121 44.0214C29.0136 43.7963 29.1055 43.5933 29.2007 43.3872C29.2618 43.3915 29.3224 43.4021 29.3814 43.4189C29.5685 43.4887 29.6002 43.5648 29.5019 43.736C29.4036 43.9072 29.3307 44.0119 29.2133 44.1958" fill="#844A2A"/>
<path d="M12.4165 40.9424C12.556 40.8061 12.7019 40.7522 12.7938 40.9044C12.8858 41.0566 13.0031 41.0154 13.13 41.0693C13.0665 41.1454 12.9968 41.1961 12.9746 41.2627C12.9524 41.3293 12.9143 41.4339 12.8224 41.4149C12.7266 41.3823 12.6359 41.3364 12.5529 41.2785C12.537 41.2785 12.5338 41.2373 12.5243 41.2183C12.4926 41.1327 12.4577 41.0471 12.4165 40.9424Z" fill="#844A2A"/>
<path d="M10.8916 41.2816C10.936 41.2023 11.0081 41.1421 11.0942 41.1129C11.1803 41.0836 11.2742 41.0872 11.3577 41.1231C11.3951 41.2086 11.4072 41.303 11.3926 41.3952C11.378 41.4873 11.3373 41.5734 11.2753 41.6431C11.1516 41.7731 11.0121 41.7573 10.9582 41.5892C10.9284 41.4854 10.9071 41.3794 10.8948 41.2721" fill="#844A2A"/>
<path d="M37.9238 47.5823C37.8699 47.5538 37.7938 47.5411 37.7748 47.5031C37.7566 47.4321 37.7534 47.3582 37.7653 47.2859C37.7773 47.2137 37.804 47.1446 37.8439 47.0833C37.8839 47.0219 37.9361 46.9694 37.9973 46.9293C38.0586 46.8891 38.1275 46.862 38.1997 46.8499C38.2663 46.8499 38.3772 46.8847 38.3963 46.9355C38.4153 46.9862 38.3646 47.0782 38.3455 47.1543L38.1077 47.0782C38.0855 47.1416 38.0538 47.2272 38.0253 47.3128L37.9238 47.5823Z" fill="#844A2A"/>
<path d="M30.0914 51.0005C30.1263 51.1781 30.0914 51.2891 29.9646 51.3176C29.8955 51.3172 29.8288 51.2925 29.7761 51.2478C29.7233 51.2032 29.6879 51.1415 29.676 51.0734C29.6681 51.0428 29.6664 51.0109 29.671 50.9796C29.6757 50.9483 29.6867 50.9182 29.7033 50.8913C29.7199 50.8643 29.7417 50.841 29.7676 50.8227C29.7934 50.8044 29.8227 50.7916 29.8536 50.7849C29.9741 50.7532 30.0566 50.8325 30.0914 51.0132" fill="#844A2A"/>
<path d="M14.6997 37.3815C14.7948 37.3276 14.8709 37.2895 14.9502 37.2483C15.0073 37.429 15.0073 37.429 14.6997 37.3815Z" fill="#844A2A"/>
<path d="M27.9225 47.8297L27.856 47.8455C27.856 47.7821 27.856 47.7219 27.856 47.6553C28.024 47.6775 27.9828 47.7536 27.9257 47.8297" fill="#844A2A"/>
<path d="M27.9767 46.9639C27.9577 47.0051 27.9355 47.0463 27.9133 47.0875L27.8403 46.9892L27.9799 46.9639H27.9767Z" fill="#844A2A"/>
<path d="M27.1108 43.8342L27.2409 43.8088L27.2757 43.9262L27.1108 43.8342Z" fill="#844A2A"/>
<path d="M11.2881 40.5713C11.3005 40.5571 11.3121 40.5422 11.323 40.5269L11.3737 40.5839C11.3737 40.5839 11.342 40.6125 11.3261 40.6125C11.3103 40.6125 11.2881 40.5713 11.2881 40.5713Z" fill="#844A2A"/>
<path d="M16.3425 20.4551C16.2501 20.2249 16.1216 20.0108 15.962 19.8209C15.7709 19.5828 15.5951 19.3329 15.4356 19.0725C15.2324 18.6686 15.075 18.2431 14.9663 17.8042C14.9061 17.6266 14.8712 17.4395 14.8237 17.2556C14.7287 16.8766 14.7441 16.4783 14.868 16.1077C14.9346 15.8953 15.0076 15.6828 15.0678 15.4735C15.1281 15.2643 15.1598 15.1184 15.1947 14.9408C15.2265 14.7922 15.3002 14.6557 15.4071 14.5476C15.7729 14.1374 16.2397 13.8302 16.7611 13.6566C16.9169 13.5962 17.0684 13.5252 17.2145 13.4441C17.5418 13.2912 17.8922 13.1937 18.2514 13.1556C18.6383 13.1049 19.022 13.0478 19.4057 12.9939H19.4564C19.8845 12.9939 20.3157 12.9622 20.747 12.9622C20.9068 12.9734 21.0658 12.9957 21.2226 13.0288L21.8568 13.1239C22.0499 13.1456 22.2395 13.1914 22.4212 13.2602C22.5623 13.3075 22.7079 13.3404 22.8556 13.3585C23.1442 13.4124 23.4327 13.4663 23.7213 13.5107C23.9371 13.5498 24.1493 13.607 24.3555 13.682C24.525 13.734 24.7013 13.7607 24.8787 13.7612C25.3439 13.7931 25.8026 13.888 26.2422 14.0434C26.7273 14.1861 27.2252 14.3003 27.7167 14.4398C27.9324 14.5006 28.1442 14.5747 28.3508 14.6618C28.557 14.7442 28.7504 14.8615 28.9597 14.9377C29.1383 14.9956 29.3205 15.0423 29.5051 15.0772C29.9712 15.1913 30.4563 15.2769 30.9034 15.4228C31.6486 15.6606 32.3779 15.9492 33.1231 16.1965C33.4665 16.303 33.8159 16.3887 34.1695 16.4534C34.6373 16.5515 35.0867 16.7227 35.5013 16.9607C35.9199 17.1953 36.3479 17.4141 36.7697 17.6234C37.4039 17.9405 38.0539 18.2227 38.6722 18.5398C39.0766 18.7284 39.4629 18.9534 39.8264 19.2121C39.9281 19.2936 40.034 19.3698 40.1435 19.4404C40.6317 19.7062 41.1596 19.8915 41.7068 19.9889C41.9763 20.046 42.2395 20.1411 42.5091 20.2014C42.8758 20.2987 43.2153 20.4788 43.5016 20.7278C43.7838 20.9561 44.0406 21.2129 44.3228 21.438C44.7036 21.798 45.0615 22.1814 45.3946 22.5859C45.4902 22.684 45.5772 22.79 45.6546 22.903C45.88 23.201 46.1397 23.4713 46.4283 23.7084C46.6186 23.886 46.793 24.0858 46.9706 24.2792C47.072 24.3838 47.164 24.4948 47.2623 24.5963C47.3606 24.6978 47.5286 24.8817 47.6586 25.0275C48.013 25.4075 48.2869 25.8551 48.4641 26.3435C48.6068 26.7589 48.7368 27.1774 48.8477 27.6119C48.9017 27.832 48.9305 28.0575 48.9334 28.2841C48.936 28.5624 48.9593 28.8401 49.0031 29.1149C49.0078 29.1591 49.0078 29.2038 49.0031 29.248C49.0031 29.6127 49.0031 29.9774 49.0031 30.342C49.0045 30.771 48.9159 31.1955 48.7431 31.5882C48.6323 31.8789 48.5063 32.1636 48.3658 32.4412C48.1533 32.8344 47.9282 33.2181 47.6872 33.5922C47.5091 33.8482 47.3028 34.0833 47.072 34.293C46.8069 34.5102 46.5261 34.7073 46.2317 34.8828C46.1081 34.9748 45.9749 35.0572 45.8544 35.1523C45.576 35.3585 45.2476 35.4866 44.9031 35.5233C44.6938 35.5582 44.4941 35.5011 44.2911 35.5233C44.1845 35.527 44.0784 35.5397 43.974 35.5614C43.7273 35.6292 43.472 35.6612 43.2162 35.6565C42.9688 35.6565 42.7215 35.6565 42.4773 35.6565C42.0494 35.6475 41.6239 35.5901 41.209 35.4853C41.0036 35.4214 40.7899 35.3883 40.5748 35.387C40.4092 35.378 40.2448 35.3547 40.0833 35.3172C39.6964 35.2443 39.3128 35.1618 38.9291 35.0921C38.7578 35.0635 38.5834 35.0762 38.4154 35.0382C38.2473 35.0001 38.0349 34.9177 37.8478 34.8574C37.7958 34.8383 37.7413 34.8266 37.6861 34.8225C37.3796 34.8172 37.077 34.7526 36.795 34.6323C36.1387 34.3628 35.4728 34.1059 34.7973 33.8903C34.3364 33.7425 33.9066 33.5114 33.529 33.2086C33.0767 32.8465 32.5828 32.54 32.0577 32.2953C31.4838 32.0234 30.9239 31.7229 30.3802 31.3948C30.2586 31.3248 30.1286 31.2704 29.9934 31.2331C29.7192 31.1407 29.4556 31.0195 29.207 30.8716C29.077 30.8018 28.9343 30.7511 28.8011 30.6845C28.4301 30.5037 28.0686 30.3008 27.6913 30.1391C27.3912 30.0099 27.0817 29.9039 26.7654 29.822C26.3658 29.7142 25.9505 29.6603 25.5541 29.5493C25.1577 29.4383 24.8406 29.3083 24.4887 29.1719C24.2213 29.0826 23.9597 28.9767 23.7054 28.8549C23.5422 28.7644 23.3882 28.6582 23.2456 28.5378C23.1626 28.4636 23.0758 28.3938 22.9856 28.3285C22.8429 28.2237 22.7112 28.1047 22.5924 27.9733C22.419 27.8186 22.2346 27.6766 22.0407 27.5484C21.8425 27.4266 21.6509 27.2942 21.4668 27.1521C21.3404 27.0273 21.2267 26.8903 21.1275 26.743C21.0894 26.6955 21.0672 26.6352 21.026 26.5908C20.8389 26.3784 20.6423 26.1722 20.4616 25.9566C20.3636 25.8359 20.2786 25.7051 20.2079 25.5666C20.0876 25.335 19.9442 25.1161 19.7798 24.9134C19.6118 24.7009 19.4627 24.46 19.3137 24.2443C19.041 23.8797 18.7556 23.5245 18.4766 23.1662L17.9375 22.4876C17.8456 22.3703 17.7473 22.2562 17.6521 22.142L17.3604 21.7964C17.3562 21.7592 17.3466 21.7229 17.3319 21.6886C17.0877 21.3524 16.8435 21.0195 16.5962 20.6865C16.5317 20.6136 16.4606 20.5467 16.3838 20.4868L16.3425 20.4551ZM15.8447 16.9766C15.8447 17.1161 15.8447 17.2556 15.8447 17.3951C15.8335 17.7911 15.9003 18.1855 16.0413 18.5557C16.076 18.6652 16.1206 18.7713 16.1745 18.8728C16.4218 19.3104 16.6713 19.7458 16.9228 20.1792C17.1004 20.4963 17.278 20.8134 17.4619 21.1305C17.5824 21.3366 17.6997 21.5459 17.836 21.7425C17.9724 21.9391 18.0897 22.0374 18.207 22.1927C18.4551 22.5283 18.7264 22.8462 19.0188 23.144C19.0664 23.1916 19.1044 23.2455 19.1488 23.2962C19.2978 23.4706 19.4469 23.6418 19.5927 23.8162C19.8591 24.1333 20.1381 24.4504 20.3823 24.7675C20.5406 25.01 20.6856 25.2609 20.8167 25.5191C20.8902 25.6743 20.9852 25.8184 21.0989 25.9471C21.2945 26.1831 21.5321 26.3809 21.7997 26.5306C21.8219 26.5306 21.8378 26.5718 21.8599 26.5877C21.9329 26.6479 22.0026 26.7145 22.0819 26.7684C22.3356 26.9396 22.5893 27.1077 22.8461 27.2726C23.0205 27.3835 23.1886 27.5009 23.3725 27.5897C23.5564 27.6784 23.7276 27.7419 23.9084 27.818C23.9627 27.846 24.0202 27.8673 24.0796 27.8814C24.4683 27.9493 24.8446 28.0754 25.1958 28.2555C25.5129 28.3919 25.83 28.5409 26.147 28.6836C26.5561 28.8675 26.9715 29.0419 27.3774 29.2354C27.6144 29.3467 27.8442 29.4727 28.0655 29.6127C28.4142 29.8429 28.7889 30.0313 29.1816 30.174C29.4387 30.2489 29.6804 30.3691 29.8951 30.5291L30.4278 30.9572C30.6409 31.1446 30.8666 31.3173 31.1032 31.474C31.4622 31.6767 31.834 31.8557 32.2162 32.0099C32.6899 32.2198 33.1505 32.4581 33.5956 32.7234C33.8936 32.8915 34.1949 33.0405 34.4961 33.2054C34.5681 33.2354 34.6438 33.2557 34.7212 33.2656L35.812 33.4622C36.0052 33.5149 36.2049 33.5395 36.405 33.5352C36.4387 33.5303 36.4728 33.5303 36.5065 33.5352L37.296 33.7222C37.4895 33.773 37.6797 33.8301 37.8731 33.8776C38.0032 33.9093 38.1332 33.941 38.2632 33.9632C38.4693 34.0013 38.6786 34.033 38.8974 34.0647L39.3254 34.1249C39.6203 34.163 39.9184 34.2074 40.2165 34.2296C40.3882 34.23 40.5598 34.2194 40.7302 34.1979L41.0948 34.1598C41.27 34.1299 41.4468 34.1108 41.6244 34.1027C41.9415 34.1027 42.2807 34.1218 42.6105 34.1313H42.6422C42.9213 34.1535 43.1971 34.1852 43.473 34.1947C43.8798 34.2005 44.2866 34.1793 44.6907 34.1313C45.0673 34.1055 45.438 34.0243 45.791 33.8903C45.8671 33.8618 45.9495 33.8459 46.0288 33.8205C46.1487 33.802 46.2652 33.7656 46.3744 33.7127C46.5075 33.6272 46.6254 33.52 46.7232 33.3956C46.9126 33.1646 47.1148 32.9444 47.3289 32.7361C47.3677 32.7039 47.4018 32.6666 47.4303 32.6251C47.6207 32.3435 47.7872 32.0465 47.9282 31.7372C47.9662 31.6263 48.0138 31.5184 48.055 31.4201C48.2607 31.0118 48.3692 30.5614 48.3721 30.1042C48.3705 30.0884 48.3705 30.0725 48.3721 30.0567C48.3911 29.7396 48.4228 29.4225 48.4324 29.1054C48.4324 28.9088 48.4133 28.7058 48.4006 28.5061C48.4022 28.4955 48.4022 28.4849 48.4006 28.4743C48.334 28.1826 48.2611 27.8941 48.2072 27.5992C48.1196 27.2666 48.004 26.942 47.8616 26.6289C47.7524 26.3904 47.6058 26.1709 47.4272 25.9788C47.1323 25.5862 46.7856 25.2352 46.3966 24.9356C46.2666 24.8373 46.1429 24.7358 46.0224 24.6185C45.9019 24.5012 45.8322 24.4346 45.7339 24.3458C45.4548 24.1148 45.194 23.8625 44.9538 23.5911C44.6367 23.2106 44.3197 22.8333 44.0026 22.4749C43.758 22.214 43.4998 21.9663 43.2289 21.733C43.0755 21.604 42.9122 21.4874 42.7405 21.3841C42.5725 21.2763 42.3949 21.1812 42.2173 21.0893C41.9383 20.9497 41.6592 20.807 41.3707 20.6834C40.8316 20.4487 40.2799 20.2363 39.7408 19.9953C39.4523 19.8653 39.1796 19.6972 38.9005 19.5482C38.8054 19.4975 38.7039 19.4657 38.612 19.4182C38.3329 19.2755 38.0856 19.1011 37.7939 18.9711C37.5021 18.8411 37.1597 18.654 36.8426 18.5049C36.7999 18.4786 36.7586 18.45 36.7189 18.4193C36.497 18.2766 36.275 18.1244 36.0435 17.9912C35.812 17.8581 35.6376 17.782 35.4379 17.6742C35.2381 17.5663 35.0257 17.4268 34.8037 17.3254C34.5012 17.1842 34.1813 17.084 33.8524 17.0273C33.7333 17.0067 33.6193 16.9637 33.5163 16.9004C33.2467 16.7426 32.9578 16.62 32.657 16.5358C32.1972 16.3868 31.7311 16.2631 31.2681 16.1267C30.7481 15.9745 30.228 15.8097 29.7048 15.6733C29.4712 15.6024 29.2312 15.5546 28.9882 15.5306C28.7414 15.5025 28.4967 15.458 28.2557 15.3974C27.5645 15.2547 26.9017 15.0042 26.2232 14.814C26.1186 14.7873 26.0128 14.7662 25.9061 14.7506C25.7158 14.7189 25.5224 14.6935 25.3321 14.6649L25.0372 14.6142C24.8945 14.592 24.7487 14.5889 24.6123 14.554C24.2952 14.4747 23.9781 14.3574 23.6357 14.2971C23.3822 14.2038 23.1128 14.1618 22.8429 14.1735C22.8207 14.1735 22.7922 14.1735 22.7637 14.1544C22.6506 14.1097 22.5301 14.0871 22.4085 14.0878C22.2096 14.1028 22.0096 14.0954 21.8124 14.0656C21.5415 14.0502 21.2716 14.0205 21.0038 13.9769C20.9126 13.954 20.8188 13.9433 20.7248 13.9451C20.5105 13.9763 20.2987 14.0218 20.0906 14.0815C19.8264 14.1675 19.5503 14.2114 19.2725 14.2115C19.184 14.2004 19.0945 14.2004 19.0061 14.2115C18.5019 14.3161 18.0009 14.4335 17.4967 14.5286C17.2022 14.5838 16.9157 14.6754 16.6438 14.8013C16.4239 14.9017 16.2481 15.0786 16.1491 15.2991C16.0793 15.4577 16.0064 15.6162 15.9335 15.7684C15.8489 15.9262 15.8063 16.1031 15.8098 16.2821C15.8098 16.4914 15.8098 16.6975 15.8098 16.9163" fill="#E4DBC6"/>
<path d="M16.3423 20.4551C16.4191 20.515 16.4902 20.5819 16.5547 20.6548C16.8021 20.9719 17.0462 21.3207 17.2872 21.6568C17.3041 21.6906 17.3149 21.7271 17.3189 21.7647C17.1731 21.6156 17.0018 21.4729 16.8845 21.3112C16.7672 21.1495 16.5674 20.899 16.4279 20.677C16.3909 20.6033 16.3622 20.5256 16.3423 20.4456" fill="#E4DBC6"/>
<path d="M15.8034 16.9447C15.8034 16.7355 15.8034 16.5294 15.8034 16.3106C15.7999 16.1316 15.8425 15.9547 15.9271 15.7969C16 15.6415 16.073 15.4798 16.1427 15.3276C16.2417 15.1071 16.4175 14.9302 16.6374 14.8297C16.9093 14.7039 17.1958 14.6123 17.4904 14.557C17.9945 14.4524 18.4955 14.3351 18.9997 14.2399C19.0882 14.2288 19.1776 14.2288 19.2661 14.2399C19.5439 14.2399 19.82 14.196 20.0842 14.1099C20.2923 14.0502 20.5041 14.0047 20.7184 13.9736C20.8124 13.9718 20.9062 13.9824 20.9974 14.0053C21.2652 14.049 21.5351 14.0786 21.806 14.0941C22.0032 14.1238 22.2032 14.1313 22.4021 14.1163C22.5237 14.1156 22.6442 14.1382 22.7573 14.1829C22.7858 14.1829 22.8144 14.2082 22.8365 14.2019C23.1064 14.1902 23.3758 14.2322 23.6293 14.3256C23.9464 14.3858 24.2793 14.5031 24.6059 14.5824C24.7423 14.6173 24.8881 14.6205 25.0308 14.6427L25.3257 14.6934C25.516 14.7219 25.7094 14.7473 25.8997 14.779C26.0064 14.7946 26.1122 14.8158 26.2168 14.8424C26.8953 15.0327 27.5581 15.2832 28.2493 15.4259C28.4903 15.4864 28.735 15.5309 28.9818 15.5591C29.2248 15.583 29.4648 15.6308 29.6984 15.7017C30.2216 15.8444 30.7417 16.003 31.2617 16.1552C31.7247 16.2915 32.1908 16.4152 32.6506 16.5642C32.9515 16.6485 33.2403 16.771 33.5099 16.9289C33.6129 16.9921 33.7269 17.0352 33.846 17.0557C34.1749 17.1124 34.4948 17.2127 34.7973 17.3538C35.0129 17.4553 35.2159 17.5885 35.4315 17.7026C35.6471 17.8168 35.8405 17.9055 36.0371 18.0197C36.2337 18.1339 36.4906 18.3051 36.7125 18.4478C36.7522 18.4784 36.7935 18.507 36.8362 18.5334C37.1533 18.6919 37.4704 18.8505 37.7875 18.9995C38.1046 19.1485 38.3265 19.3166 38.6056 19.4466C38.6975 19.4942 38.799 19.5259 38.8941 19.5766C39.1732 19.7257 39.4459 19.8937 39.7344 20.0237C40.2735 20.2647 40.8252 20.4772 41.3643 20.7118C41.6528 20.8355 41.9319 20.9782 42.2109 21.1177C42.3885 21.2097 42.5661 21.3048 42.7341 21.4126C42.9058 21.5158 43.0691 21.6325 43.2225 21.7614C43.4934 21.9948 43.7516 22.2425 43.9962 22.5034C44.3291 22.8617 44.6303 23.239 44.9474 23.6196C45.1876 23.8909 45.4484 24.1432 45.7275 24.3742C45.8258 24.463 45.9146 24.5613 46.016 24.6469C46.1175 24.7326 46.2602 24.8562 46.3902 24.964C46.7792 25.2637 47.1259 25.6146 47.4208 26.0073C47.5994 26.1993 47.746 26.4188 47.8552 26.6573C47.9976 26.9704 48.1132 27.295 48.2008 27.6276C48.2547 27.9225 48.3277 28.2111 48.3942 28.5028C48.3958 28.5133 48.3958 28.524 48.3942 28.5345C48.3942 28.7343 48.4323 28.9372 48.426 29.1338C48.426 29.4509 48.3847 29.768 48.3657 30.0851C48.3641 30.1009 48.3641 30.1168 48.3657 30.1327C48.3628 30.5899 48.2543 31.0402 48.0486 31.4486C48.0074 31.5564 47.9598 31.6642 47.9218 31.7657C47.7808 32.075 47.6143 32.372 47.4239 32.6535C47.3954 32.695 47.3613 32.7324 47.3225 32.7645C47.1084 32.9729 46.9062 33.1931 46.7168 33.4241C46.619 33.5485 46.5011 33.6556 46.368 33.7412C46.2588 33.7941 46.1423 33.8304 46.0224 33.849C45.9431 33.8743 45.8607 33.8902 45.7846 33.9187C45.4316 34.0527 45.0609 34.1339 44.6843 34.1597C44.2802 34.2078 43.8735 34.229 43.4666 34.2231C43.1907 34.2231 42.9149 34.1819 42.6358 34.1597H42.6041C42.287 34.1597 41.9446 34.128 41.618 34.1312C41.4404 34.1392 41.2636 34.1583 41.0884 34.1883L40.7238 34.2263C40.5534 34.2478 40.3818 34.2584 40.2101 34.258C39.912 34.2358 39.6139 34.1914 39.319 34.1534L38.891 34.0931C38.6849 34.0614 38.4756 34.0297 38.2568 33.9917C38.1268 33.9695 37.9968 33.9378 37.8668 33.906C37.6733 33.8585 37.4831 33.8014 37.2896 33.7507L36.5001 33.5636C36.4664 33.5587 36.4323 33.5587 36.3986 33.5636C36.1985 33.5679 35.9988 33.5433 35.8057 33.4907L34.7149 33.2941C34.6375 33.2841 34.5617 33.2639 34.4897 33.2338C34.1885 33.0784 33.8872 32.9167 33.5892 32.7518C33.1469 32.477 32.6884 32.2292 32.2162 32.0098C31.8255 31.8462 31.4463 31.6566 31.081 31.4423C30.8443 31.2855 30.6187 31.1128 30.4056 30.9254L29.8728 30.4973C29.6581 30.3373 29.4165 30.217 29.1594 30.1422C28.7666 29.9994 28.392 29.8111 28.0432 29.5809C27.8219 29.4409 27.5921 29.3149 27.3551 29.2036C26.9492 29.0101 26.5339 28.8357 26.1248 28.6518C25.8077 28.5091 25.4906 28.3601 25.1735 28.2237C24.8224 28.0436 24.4461 27.9175 24.0574 27.8496C23.9979 27.8355 23.9404 27.8142 23.8861 27.7862C23.7054 27.7101 23.5215 27.6466 23.3502 27.5579C23.179 27.4691 22.9983 27.3454 22.8239 27.2408C22.567 27.0759 22.3133 26.9078 22.0597 26.7366C21.9804 26.6827 21.9106 26.6161 21.8377 26.5558C21.8155 26.5558 21.7997 26.5083 21.7775 26.4988C21.5099 26.3491 21.2723 26.1513 21.0767 25.9153C20.9629 25.7866 20.8679 25.6425 20.7945 25.4872C20.6634 25.229 20.5184 24.9782 20.3601 24.7357C20.1159 24.4186 19.8368 24.1015 19.5705 23.7844C19.4246 23.61 19.2756 23.4388 19.1266 23.2644C19.0822 23.2137 19.0441 23.1598 18.9966 23.1122C18.7041 22.8144 18.4329 22.4965 18.1848 22.1609C18.0675 22.0056 17.9248 21.8692 17.8138 21.7107C17.7028 21.5521 17.5601 21.3048 17.4396 21.0987C17.2557 20.7816 17.0781 20.4645 16.9006 20.1474C16.649 19.714 16.3996 19.2785 16.1522 18.841C16.0984 18.7395 16.0538 18.6334 16.019 18.5239C15.8781 18.1536 15.8113 17.7593 15.8225 17.3633C15.8225 17.2238 15.8225 17.0843 15.8225 16.9447H15.8034Z" fill="#E4DBC6"/>
</svg>
