<svg width="40" height="40" viewBox="0 0 40 40" fill="none" xmlns="http://www.w3.org/2000/svg">
<path d="M26.1646 8.00513L22.9665 8C19.3736 8 17.0517 10.3822 17.0517 14.0693V16.8676H13.8362C13.5583 16.8676 13.3333 17.0929 13.3333 17.3707V21.4252C13.3333 21.703 13.5586 21.928 13.8362 21.928H17.0517V32.1588C17.0517 32.4366 17.2767 32.6616 17.5545 32.6616H21.7499C22.0277 32.6616 22.2527 32.4364 22.2527 32.1588V21.928H26.0124C26.2903 21.928 26.5153 21.703 26.5153 21.4252L26.5168 17.3707C26.5168 17.2373 26.4637 17.1095 26.3695 17.0151C26.2754 16.9207 26.1471 16.8676 26.0137 16.8676H22.2527V14.4954C22.2527 13.3552 22.5244 12.7764 24.0097 12.7764L26.164 12.7757C26.4416 12.7757 26.6666 12.5504 26.6666 12.2728V8.508C26.6666 8.23065 26.4419 8.00564 26.1646 8.00513Z" fill="#FFED76"/>
<circle cx="20" cy="20" r="19.5" stroke="#FFED76"/>
</svg>
