<svg width="40" height="40" viewBox="0 0 40 40" fill="none" xmlns="http://www.w3.org/2000/svg">
<circle cx="20" cy="20" r="20" fill="#F8BB46"/>
<path d="M26.1645 8.00513L22.9664 8C19.3735 8 17.0516 10.3822 17.0516 14.0693V16.8676H13.8361C13.5583 16.8676 13.3333 17.0929 13.3333 17.3707V21.4252C13.3333 21.703 13.5585 21.928 13.8361 21.928H17.0516V32.1588C17.0516 32.4366 17.2766 32.6616 17.5545 32.6616H21.7498C22.0277 32.6616 22.2527 32.4364 22.2527 32.1588V21.928H26.0124C26.2902 21.928 26.5152 21.703 26.5152 21.4252L26.5168 17.3707C26.5168 17.2373 26.4636 17.1095 26.3695 17.0151C26.2753 16.9207 26.147 16.8676 26.0136 16.8676H22.2527V14.4954C22.2527 13.3552 22.5244 12.7764 24.0096 12.7764L26.164 12.7757C26.4416 12.7757 26.6666 12.5504 26.6666 12.2728V8.508C26.6666 8.23065 26.4418 8.00564 26.1645 8.00513Z" fill="#F8F3E8"/>
</svg>
