<svg width="274" height="146" viewBox="0 0 274 146" fill="none" xmlns="http://www.w3.org/2000/svg">
<path d="M18.4135 77.8127C20.4986 76.743 22.7183 75.9582 25.0128 75.4796C28.0037 74.9222 31.0411 74.6536 34.0832 74.6773C36.6332 74.6295 39.1828 74.7899 41.7064 75.1567C44.0436 75.6577 46.3283 76.377 48.5302 77.3051C51.5573 78.4516 54.3524 80.1326 56.7821 82.2678C59.6763 84.8612 61.9988 88.0267 63.6022 91.5638C65.3044 95.0574 66.5398 98.7591 67.2767 102.574C67.6566 104.836 67.9041 107.05 68.2474 109.279C68.7235 112.114 68.7828 115.01 69.4943 117.813C69.742 118.779 69.9368 119.754 70.1618 120.724C70.5685 122.648 71.2824 124.494 72.2762 126.191C73.7115 128.585 75.2185 130.944 76.7746 133.272C77.3005 134.032 77.9379 134.709 78.6654 135.28C80.2036 136.401 81.44 137.884 82.2647 139.598C82.9183 141.038 83.4222 142.605 83.9575 144.127C84.0822 144.502 84.1479 144.894 84.1525 145.288C84.3434 148.711 83.2475 152.082 81.0793 154.742C78.819 157.485 75.7222 159.415 72.2614 160.238C71.7414 160.38 71.205 160.47 70.6838 160.604C69.3907 160.933 68.0514 161.043 66.7221 160.928C63.1944 160.598 59.673 160.26 56.1478 159.945C52.6226 159.63 49.2597 159.125 45.784 159.15C43.1709 159.178 40.536 158.939 37.9508 159.225C33.1475 159.717 28.3186 159.912 23.4916 159.809C21.2403 159.764 19.0086 159.383 16.8703 158.681C13.5964 157.641 10.4254 156.303 7.39762 154.683C5.22545 153.497 3.1036 152.241 0.979329 151.11C-1.51778 149.651 -3.69411 147.704 -5.41949 145.386C-7.06316 143.225 -8.58708 140.976 -9.98438 138.649C-10.6372 137.57 -11.222 136.452 -11.7353 135.3C-12.1882 134.361 -12.5757 133.395 -12.9972 132.411C-13.4187 131.428 -13.6475 130.528 -14.0488 129.619C-14.4893 128.655 -14.7795 127.629 -14.9092 126.578C-15.0029 126.02 -15.0978 125.454 -15.1915 124.896C-15.6722 122.506 -15.4054 120.026 -14.4271 117.792C-14.2022 117.281 -13.9431 116.788 -13.6779 116.24C-14.7659 116.329 -15.8035 116.441 -16.8437 116.492C-18.6142 116.588 -20.3848 116.684 -22.1479 116.685C-22.7806 116.658 -23.4004 116.498 -23.9668 116.216C-24.165 116.145 -24.3403 116.022 -24.4736 115.86C-24.607 115.697 -24.6934 115.502 -24.7235 115.294C-24.7537 115.086 -24.7264 114.874 -24.6446 114.68C-24.5629 114.487 -24.4297 114.319 -24.2596 114.195C-23.8277 113.775 -23.3293 113.43 -22.7845 113.172C-19.8874 111.798 -17.2308 109.968 -14.9172 107.75C-14.1632 107.001 -13.4505 106.211 -12.7822 105.384L-13.8129 104.844C-14.6722 104.353 -15.6347 103.941 -16.4664 103.383C-17.4455 102.733 -18.3352 101.968 -19.269 101.264C-20.4259 100.413 -21.399 99.3369 -22.1306 98.1017C-22.2548 97.9263 -22.3292 97.7208 -22.346 97.5067C-22.3628 97.2926 -22.3214 97.078 -22.2261 96.8853C-22.0915 96.5452 -21.8684 96.2471 -21.58 96.0215C-21.2915 95.7959 -20.9481 95.6511 -20.5851 95.602C-19.8182 95.5429 -19.0361 95.5744 -18.2578 95.5832C-17.4796 95.592 -16.9342 95.6477 -16.2743 95.5989C-15.2682 95.5307 -14.2621 95.3229 -13.222 95.2723C-11.7464 95.2686 -10.2813 95.0226 -8.88546 94.544C-7.60137 94.0493 -6.30083 93.6061 -5.01548 93.1189C-4.87193 93.0948 -4.67186 92.8985 -4.68076 92.7993C-4.74673 92.1753 -4.85074 91.556 -4.99222 90.9447C-5.09097 90.3567 -5.41642 89.8066 -5.50762 89.2173C-5.73784 87.7452 -6.33735 86.3552 -7.2504 85.1768C-7.39971 84.9904 -7.5342 84.7928 -7.65266 84.5856C-8.21648 83.5873 -8.76646 82.5789 -9.3177 81.563C-9.48859 81.2068 -9.59512 80.8231 -9.63232 80.4298C-9.65444 80.1273 -9.59415 79.8243 -9.45782 79.5531C-9.3215 79.2818 -9.11427 79.0523 -8.85799 78.889C-8.65004 78.7519 -8.40331 78.6856 -8.1546 78.6997C-7.9059 78.7138 -7.66851 78.8077 -7.47765 78.9673C-7.31503 79.0608 -7.13858 79.1279 -6.95486 79.1662C-6.20034 79.3573 -5.44833 79.5333 -4.69508 79.7169C-3.45561 80.0203 -2.21363 80.3388 -0.959048 80.6398C0.842184 81.0504 2.65845 81.412 4.45968 81.8226C4.76702 81.895 4.91693 81.8622 5.07284 81.5879C6.13655 79.6884 7.20781 77.7877 8.28662 75.8857C8.6412 75.268 9.01334 74.6628 9.3591 74.0389C10.6378 71.7545 11.2652 69.1996 12.2844 66.8037C12.5428 66.1273 12.8447 65.4682 13.1881 64.8305C13.2765 64.6547 13.411 64.5061 13.5772 64.4006C13.7435 64.2951 13.9353 64.2366 14.1322 64.2314C14.3291 64.2261 14.5237 64.2743 14.6953 64.3709C14.8668 64.4674 15.0087 64.6087 15.106 64.7796C15.1867 64.89 15.2625 65.0169 15.3369 65.1361C17.8226 69.1603 18.1364 73.5727 17.6783 78.1998C17.9225 78.0812 18.1831 77.9677 18.3971 77.8542L18.4135 77.8127ZM15.4621 155.615C17.1041 156.295 18.8181 156.787 20.5713 157.082C23.5722 157.558 26.6269 157.594 29.6386 157.188C32.0746 156.769 34.5464 156.596 37.0167 156.669C39.3604 156.749 41.7973 156.781 44.1601 157.067C48.9171 157.64 53.7621 157.95 58.5593 158.439C61.247 158.716 63.9368 158.99 66.6287 159.262C67.86 159.393 69.1051 159.299 70.3032 158.986C70.5118 158.914 70.7262 158.859 70.9441 158.824C72.8577 158.505 74.6781 157.77 76.2767 156.673C78.59 155.321 80.3724 153.222 81.3289 150.723C81.8827 149.293 82.1983 147.781 82.2631 146.249C82.3059 145.058 81.9755 143.883 81.3181 142.889C80.3129 141.251 79.3141 139.605 78.2334 137.98C77.4705 136.861 76.5616 135.843 75.771 134.743C74.7458 133.264 73.713 131.74 72.6904 130.276C71.8307 129.178 71.1078 127.98 70.5375 126.708C69.8173 125.023 69.198 123.297 68.6829 121.539C67.6603 117.9 66.95 114.182 66.5597 110.423C66.3324 108.376 66.0234 106.35 65.7054 104.318C65.1449 100.837 64.1361 97.4418 62.7042 94.2184C61.9101 92.2139 60.8937 90.3046 59.6741 88.526C58.0539 86.1853 56.0653 84.1216 53.7849 82.4146C51.957 81.0637 49.944 79.9815 47.8077 79.2014C46.8949 78.8978 45.9559 78.6792 45.0026 78.5486C42.8945 78.2966 40.8114 77.8686 38.7753 77.2689C37.3119 76.92 35.8099 76.7582 34.3054 76.7872C30.6435 76.6475 26.9809 77.0588 23.4409 78.0071C21.5667 78.4912 19.7859 79.2826 18.1714 80.3493C17.3484 80.8771 16.5843 81.4915 15.8924 82.1817C14.5322 83.5651 13.2667 85.0488 11.9481 86.4485C11.0624 87.3724 10.0897 88.2411 9.17998 89.1613C8.64273 89.7089 8.21015 90.3708 7.64517 90.892C5.71493 92.6734 4.66429 95.1133 2.93694 97.039C2.07263 97.998 1.14278 98.8906 0.301132 99.8459C-1.66528 102.013 -3.70974 104.178 -5.64336 106.402C-6.48854 107.426 -7.25942 108.509 -7.95009 109.642C-8.87635 111.026 -9.72187 112.462 -10.4825 113.943C-11.4014 115.826 -12.6429 117.546 -13.2808 119.576C-13.7163 121.103 -13.8103 122.706 -13.5562 124.273C-13.4511 124.899 -13.346 125.524 -13.2422 126.143C-13.1281 127.133 -12.8608 128.101 -12.45 129.009C-12.0235 129.977 -11.7203 130.995 -11.3378 131.977C-11.0322 132.824 -10.6778 133.652 -10.2765 134.458C-9.67786 135.624 -8.99631 136.745 -8.23711 137.813C-5.78476 141.083 -3.50862 144.507 -0.376744 147.198C0.829378 148.228 2.26203 149.034 3.52724 149.953C7.36748 152.107 11.3562 153.986 15.4633 155.576L15.4621 155.615ZM12.6196 71.2977C11.8626 73.328 10.9047 75.278 9.75989 77.1188C8.69113 78.9881 7.6303 80.8587 6.57749 82.7306C6.36751 83.0991 6.184 83.4866 5.99294 83.8753C5.86205 84.2047 5.61734 84.4765 5.3031 84.6416C4.98886 84.8067 4.6258 84.8541 4.27973 84.7752C3.05748 84.6275 1.84537 84.4066 0.649793 84.1136C-1.10868 83.6338 -2.82692 83.0698 -4.56403 82.5321C-5.3841 82.2745 -6.20171 82.0318 -7.09994 81.6788C-7.02412 81.8552 -6.93821 82.0271 -6.8426 82.1937C-6.0645 83.404 -5.30014 84.6246 -4.50191 85.8161C-3.68496 87.0049 -3.13717 88.3571 -2.8965 89.7788C-2.76989 90.5327 -2.47703 91.2587 -2.28999 92.0024C-2.12953 92.4867 -2.15675 93.0134 -2.36611 93.479C-2.57548 93.9446 -2.95181 94.3153 -3.42114 94.5179C-4.36056 94.9949 -5.32737 95.4161 -6.31649 95.7793C-7.66356 96.269 -9.04349 96.7022 -10.4259 97.1204C-12.4148 97.721 -14.4917 97.9781 -16.5669 97.8806C-17.4685 97.9051 -18.3669 97.999 -19.2541 98.1613C-19.0991 98.3446 -19.0285 98.4413 -18.9453 98.5203C-16.857 100.534 -14.3951 102.121 -11.6974 103.194C-11.4364 103.308 -11.1834 103.439 -10.9401 103.586C-10.7609 103.656 -10.6 103.765 -10.47 103.907C-10.3399 104.048 -10.244 104.217 -10.1899 104.401C-10.1357 104.585 -10.1246 104.78 -10.1574 104.969C-10.1903 105.158 -10.2662 105.337 -10.3793 105.492C-11.226 107.106 -12.3633 108.55 -13.7342 109.753C-15.7189 111.513 -17.8472 113.105 -20.0971 114.511C-19.5111 114.488 -18.9273 114.426 -18.3493 114.326C-16.1034 113.924 -13.8989 113.318 -11.7633 112.515C-11.583 112.428 -11.4308 112.293 -11.3242 112.123C-10.9192 111.482 -10.5407 110.821 -10.1623 110.161C-8.74509 107.64 -7.01818 105.306 -5.02159 103.213C-3.04125 101.128 -1.02064 99.0059 0.899179 96.8386C1.76841 95.8137 2.57052 94.734 3.30041 93.6061C4.70649 91.5251 6.02433 89.3812 7.48206 87.3303C8.66807 85.6501 10.0651 84.1286 11.6388 82.8029C12.4958 82.1333 13.3025 81.4019 14.0524 80.6147C14.4224 80.0705 14.7123 79.4763 14.9134 78.8501C15.7605 76.9095 15.5269 74.8712 15.3085 72.877C15.1614 71.2207 14.7809 69.5936 14.1783 68.0438L14.0571 67.7386C14.0571 67.7386 14.013 67.7072 13.9261 67.652C13.4801 68.8819 13.0052 70.078 12.597 71.3015L12.6196 71.2977ZM58.6517 116.805C58.9511 117.801 59.258 118.796 59.5284 119.805C59.7988 120.814 59.9798 121.938 60.3095 122.976C61.0868 125.153 61.7398 127.373 62.2649 129.624C62.32 129.815 62.4475 129.977 62.6205 130.076C62.9922 130.3 63.4029 130.479 63.7897 130.655C65.0924 131.335 66.3952 132.015 67.6854 132.713C67.7763 132.764 67.8559 132.833 67.9192 132.916C67.9825 132.998 68.0282 133.093 68.0535 133.194C68.0738 133.315 67.8435 133.516 67.6862 133.597C66.6666 134.14 65.6437 133.831 64.6398 133.543C64.2001 133.423 63.8134 133.247 63.3297 133.096C63.3189 133.158 63.3139 133.221 63.3147 133.285C63.6923 135.687 63.8949 138.115 63.9207 140.547C63.9689 141.417 63.8427 142.288 63.5499 143.109C63.257 143.93 62.8031 144.685 62.2147 145.329C61.8394 145.784 61.3184 146.096 60.7396 146.213C59.8179 146.367 58.886 146.415 57.9642 146.477C57.1948 146.521 56.4178 146.52 55.6459 146.549C56.0822 147.251 56.5148 147.883 56.8982 148.548C57.0826 148.818 57.1803 149.138 57.1783 149.465C57.1764 149.792 57.0748 150.111 56.8872 150.379C56.847 150.458 56.7889 150.526 56.7174 150.579C56.6459 150.631 56.5632 150.666 56.4757 150.681C56.3883 150.695 56.2986 150.689 56.2139 150.663C56.1293 150.637 56.052 150.591 55.9882 150.53C55.8219 150.412 55.6689 150.277 55.532 150.126C54.8579 149.4 54.1434 148.712 53.3917 148.067C52.1307 147.016 50.5298 146.458 48.8869 146.498C47.8531 146.54 46.8051 146.313 45.7384 146.251C43.8971 146.158 42.0534 146.095 40.2638 146.031C40.3436 146.506 40.417 146.944 40.4892 147.373C40.5556 147.73 40.575 148.094 40.5468 148.457C40.5251 148.575 40.4758 148.687 40.4028 148.782C40.3298 148.878 40.2352 148.955 40.1266 149.008C39.9378 149.04 39.6632 148.931 39.4528 148.834C39.3186 148.75 39.2138 148.627 39.1527 148.481C38.6263 147.486 37.9134 146.6 37.0524 145.873C36.8086 145.654 36.5157 145.496 36.1981 145.412C33.4849 144.751 30.7427 144.15 28.032 143.458C25.5958 142.828 23.1446 142.108 20.6605 141.425C20.6965 141.568 20.721 141.715 20.734 141.862C20.7876 142.69 20.8652 143.522 20.8571 144.353C20.825 144.482 20.7615 144.601 20.6725 144.7C20.5834 144.798 20.4714 144.874 20.3463 144.919C20.1347 144.955 19.8575 144.738 19.6445 144.58C19.5274 144.453 19.4429 144.299 19.3985 144.133C19.1575 143.576 18.9253 143.026 18.707 142.466C18.2781 141.295 17.4443 140.317 16.3558 139.706C15.2142 139.06 14.0551 138.449 12.9236 137.771C11.4754 136.887 10.044 135.981 8.62934 135.05C6.79414 133.893 5.14147 132.47 3.72543 130.828C3.55019 130.617 3.35357 130.417 3.14431 130.189C3.02946 130.809 2.87265 131.42 2.67496 132.019C2.4381 132.562 2.13211 133.072 1.76455 133.537C1.64715 133.679 1.48242 133.773 1.30063 133.804C1.11884 133.835 0.932135 133.799 0.774821 133.703C0.608044 133.618 0.478472 133.474 0.41055 133.3C0.342627 133.126 0.34104 132.932 0.406222 132.757C0.768361 130.936 0.785926 129.064 0.457964 127.237C0.192082 125.654 -0.240004 124.099 -0.611651 122.533C-0.899931 121.53 -0.936321 120.471 -0.717664 119.45C-0.175268 117.222 1.01926 115.206 2.71384 113.657C4.29553 112.206 5.84947 110.727 7.40845 109.233C8.33076 108.342 9.24297 107.437 10.0506 106.464C11.5332 104.588 12.8313 102.574 13.9265 100.449C14.4565 99.5703 14.907 98.6464 15.2728 97.6881C15.8554 96.0982 16.7083 94.6203 17.7939 93.3192C19.0244 91.6982 20.6386 90.407 22.4917 89.5614C24.857 88.5273 27.4045 87.973 29.9858 87.9307C31.9659 87.8502 33.928 87.5206 35.8257 86.95C37.0898 86.6136 38.3387 86.1867 39.5952 85.8052C39.8973 85.7079 40.231 85.6132 40.4618 85.9233C40.6925 86.2334 40.4762 86.5178 40.3127 86.7933C39.7615 87.5519 39.0117 88.1445 38.1456 88.506L36.951 89.1639C38.3623 89.6661 39.6862 90.3853 40.8746 91.2956C41.104 91.4586 41.371 91.5688 41.6205 91.7129C42.4836 92.2268 43.4248 92.6967 44.2816 93.266C45.4623 94.0521 46.5815 94.9339 47.7572 95.7829C48.8252 96.437 50.0153 96.8673 51.2555 97.0479C52.0912 97.2192 52.9177 97.4324 53.7319 97.6863C54.305 97.8614 54.4114 98.4481 53.9104 98.7493C53.4536 98.9998 52.9548 99.165 52.4387 99.2368C51.781 99.3045 51.1202 99.3378 50.4591 99.3366C50.8399 99.8463 51.2067 100.273 51.4678 100.718C52.2951 101.989 53.0946 103.281 53.9068 104.556C54.2248 104.97 54.518 105.402 54.7845 105.85C55.8803 107.778 56.6966 109.852 57.2092 112.009C57.2367 112.173 57.3255 112.322 57.4577 112.424C58.8765 113.24 60.2098 114.288 61.856 114.608C62.1701 114.691 62.4612 114.843 62.7077 115.054C62.7707 115.118 62.8174 115.197 62.8439 115.282C62.8705 115.368 62.8762 115.459 62.8605 115.548C62.8221 115.636 62.763 115.715 62.6881 115.776C62.6132 115.837 62.5248 115.879 62.4301 115.899C61.2363 115.96 60.0301 116.225 58.8773 115.651C58.6427 115.548 58.4021 115.459 58.1567 115.384L58.5836 116.77L58.6517 116.805ZM21.5722 138.621C22.061 138.756 22.5636 138.834 23.0611 138.929C25.1822 139.348 27.3033 139.767 29.4244 140.186C30.8011 140.474 32.1665 140.787 33.5395 141.099C34.0962 141.222 34.6416 141.371 35.1606 141.501C37.6483 142.068 40.1172 142.661 42.6175 143.163C43.6138 143.36 44.6828 143.251 45.6753 143.425C47.6302 143.742 49.6077 143.9 51.5884 143.897C53.1487 143.937 54.6838 143.827 56.2844 143.783C56.904 143.772 57.5173 143.816 58.1344 143.79C58.7022 143.811 59.2703 143.752 59.8217 143.615C60.1419 143.473 60.4186 143.249 60.6235 142.965C60.8283 142.681 60.954 142.349 60.9877 142.001C61.2265 140.23 61.2126 138.434 60.9464 136.667C60.8917 136.017 60.8306 135.376 60.7608 134.729C60.7287 134.399 60.6737 134.071 60.5962 133.749C60.0516 131.709 59.5284 129.657 58.9385 127.625C58.5999 126.441 58.1127 125.298 57.7741 124.115C57.3914 122.761 57.1358 121.377 56.7605 120.022C56.3853 118.666 55.8917 117.346 55.5026 116.001C55.1136 114.655 54.7987 113.243 54.3982 111.876C53.8715 110.02 53.077 108.249 52.0398 106.621C51.3046 105.481 50.5417 104.361 49.8342 103.201C48.5525 101.225 47.0819 99.3765 45.4429 97.6831C44.3025 96.5001 43.0044 95.4792 41.5853 94.6489C40.8104 94.1512 40.0355 93.6535 39.2568 93.1797C37.4181 92.1079 35.3842 91.4112 33.2731 91.1303C32.4758 91.0084 31.6861 90.9318 30.8952 90.8476C29.6605 90.8069 28.43 91.0136 27.2763 91.4554C24.7837 92.1769 22.5371 93.5678 20.7817 95.4762C19.6546 96.6345 18.6741 97.9264 17.8623 99.323C17.5291 99.9293 17.0775 100.478 16.748 101.06C16.1673 102.228 15.545 103.425 15.0158 104.623C14.1059 106.605 13.0925 108.48 11.2197 109.771C9.13052 111.207 7.46112 113.154 5.55722 114.815C4.43803 115.649 3.49703 116.698 2.78947 117.9C2.20489 119.045 1.62914 120.242 2.02325 121.571C2.39305 122.861 2.86413 124.119 3.43207 125.334C4.85336 128.197 7.02988 130.619 9.72757 132.339C11.309 133.383 12.903 134.41 14.4919 135.453C16.7155 136.736 19.0679 137.783 21.5105 138.577" fill="#FDFBF8"/>
<path d="M173.3 84.6637L170.09 84.4035L171.274 91.0391L168.521 91.7727L168.23 91.9366L169.781 93.2845C172.478 92.5984 174.894 91.0861 176.689 88.9592C175.581 87.4898 174.464 86.0506 173.367 84.6006" fill="#FDFBF8"/>
<path d="M159.823 96.1867C160.152 96.0011 160.559 95.772 160.879 95.7961C162.931 95.9937 163.561 95.0262 163.178 93.1225C162.413 93.3051 161.638 93.4432 160.857 93.5359C160.498 93.6235 160.121 93.6199 159.763 93.5254C159.405 93.4309 159.076 93.2484 158.806 92.9945C158.537 92.7407 158.334 92.4237 158.218 92.0719C158.102 91.7201 158.076 91.3449 158.141 90.9803C158.05 87.9167 157.148 87.4034 154.314 88.7186L159.823 96.1867Z" fill="#FDFBF8"/>
<path d="M252.556 90.3764C252.906 90.9967 253.341 91.5432 253.661 91.9757C253.569 92.9465 253.461 93.9776 253.383 95.0175C254.224 95.0229 255.06 94.8808 255.852 94.597C257.636 93.5926 255.599 92.6968 255.679 91.4776C257.658 90.0053 256.502 87.7713 256.654 85.8213L252.6 90.4541" fill="#FDFBF8"/>
<path d="M105.211 137.311C105.464 138.803 105.719 140.524 107.724 140.186C109.067 139.791 110.351 139.222 111.545 138.493C111.194 137.235 110.871 136.116 110.557 135.015L105.211 137.311Z" fill="#FDFBF8"/>
<path d="M188.427 106.758C188.569 107.01 188.721 107.282 189.198 107.856C189.793 104.968 192.417 105.047 194.184 103.924L193.318 104.744C194.156 105.185 195.035 105.545 195.941 105.82C197.57 106.128 197.301 104.517 197.82 103.715L192.683 102.574L191.887 102.384C191.011 104.23 188.882 104.076 187.51 105.13L188.383 106.68" fill="#FDFBF8"/>
<path d="M205.355 111.113C205.568 110.993 205.709 110.608 205.897 110.578C206.7 110.509 207.509 110.539 208.392 110.475L208.408 109.598L206.41 109.268C206.242 108.29 205.176 107.078 207.269 106.486L207.376 108.264L207.929 108.566L209.026 106.569L209.698 105.45L206.118 104.76L203.943 107.926L204.319 110.497C204.629 110.731 204.909 110.956 205.208 111.17L205.344 111.094" fill="#FDFBF8"/>
<path d="M153.55 78.0675L151.463 76.9452L151.23 77.0761C150.417 77.3552 149.205 77.425 149.705 78.6754C149.946 79.1019 150.891 79.2845 151.829 79.7263L151.097 83.8664C151.1 83.9164 151.114 83.9652 151.139 84.0088C151.164 84.0524 151.198 84.0897 151.239 84.1184L151.82 83.7908L155.013 82.8865L155.446 82.1577C154.559 81.7631 153.786 81.4328 154.02 80.1263C154.157 79.4621 153.69 78.6782 153.452 77.8931" fill="#FDFBF8"/>
<path d="M169.841 109.21C169.996 109.122 170.042 108.841 170.197 108.754C170.991 108.306 171.961 107.76 171.316 106.796C171.021 106.273 170.022 106.222 168.865 105.801C169.022 104.947 169.221 103.712 169.374 102.17L165.733 104.502C167.087 106.088 168.421 107.686 169.744 109.264" fill="#FDFBF8"/>
<path d="M174.043 114.859C174.466 114.34 174.878 113.801 175.342 113.31C175.599 113.107 175.793 112.835 175.902 112.526C176.01 112.216 176.029 111.883 175.956 111.563C175.883 111.244 175.721 110.951 175.488 110.72C175.256 110.489 174.963 110.328 174.643 110.257L172.504 109.496L171.34 111.147L173.989 114.762" fill="#FDFBF8"/>
<path d="M222.288 103.593C222.837 105.838 222.837 105.838 226.231 104.973C225.965 104.229 225.668 103.477 225.403 102.733L222.288 103.593Z" fill="#FDFBF8"/>
<path d="M191.94 102.481L192.736 102.671L191.94 102.481Z" fill="#FDFBF8"/>
<path d="M174.116 153.476L174.144 154.66C174.377 154.529 174.57 154.599 174.59 154.409C176.795 151.84 182.193 150.816 179.087 145.799L180.525 143.458C180.131 143.348 179.565 142.977 179.382 143.105C178.751 143.716 178.164 144.371 177.626 145.065C175.663 144.832 173.685 145.361 172.1 146.543C171.407 146.956 170.863 147.578 170.547 148.321C170.231 149.064 170.159 149.887 170.342 150.674C170.525 151.501 171.004 152.233 171.689 152.731C172.374 153.229 173.218 153.46 174.061 153.379" fill="#FDFBF8"/>
<path d="M202.572 133.007L197.313 137.271C198.371 138.105 199.199 138.761 200.163 139.521C200.852 140.026 201.707 140.248 202.555 140.142C203.402 140.035 204.176 139.607 204.718 138.947C205.873 137.735 207.003 136.613 206.176 134.781C206.012 134.491 205.88 134.029 205.695 133.928C204.39 133.515 203.809 132.846 205.016 131.273L204.132 131.107L202.645 132.685L202.765 132.898" fill="#FDFBF8"/>
<path d="M194.238 124.604C195.211 124.246 196.156 123.817 197.064 123.318C197.432 123.111 197.838 122.244 197.696 121.992C197.154 121.074 196.478 120.241 195.691 119.521C194.704 119.013 193.605 118.759 192.495 118.782C191.385 118.805 190.298 119.106 189.333 119.655C189.02 119.96 188.795 120.343 188.68 120.764C188.528 121.361 188.592 121.992 188.862 122.546C189.132 123.1 189.59 123.54 190.154 123.789C191.407 124.564 192.625 125.819 194.238 124.604Z" fill="#FDFBF8"/>
<path d="M183.093 109.303C182.713 109.262 182.028 109.316 181.99 109.158C181.334 107.358 180.97 105.443 178.753 104.725C178.398 104.594 178.322 103.641 178.161 103.221C177.493 103.926 176.861 104.665 176.268 105.436C175.691 106.083 175.379 106.924 175.394 107.791C175.409 108.657 175.751 109.487 176.35 110.114L180.833 111.138C181.185 109.995 182.74 111.034 183.685 110.399L183.31 109.461L183.015 109.347" fill="#FDFBF8"/>
<path d="M248.272 113.599C249.266 112.743 250.148 111.766 250.898 110.69C252.012 108.633 251.055 107.205 248.697 107.053C246.338 106.9 243.729 108.931 244.466 111.146C244.989 112.12 245.706 112.976 246.572 113.662C247.133 112.708 247.69 112.292 248.322 113.596L248.272 113.599Z" fill="#FDFBF8"/>
<path d="M185.911 114.942C185.633 115.048 185.371 115.195 185.136 115.378C184.574 115.695 183.876 116.088 183.737 116.702C183.598 117.317 184.283 117.672 184.829 118.641C184.108 118.358 183.418 118.312 183.141 117.957C182.194 116.729 181.177 117.506 180.443 117.971C180.133 118.232 179.879 118.553 179.697 118.914C179.514 119.276 179.407 119.671 179.381 120.075C179.423 120.431 179.535 120.776 179.711 121.089C179.888 121.402 180.124 121.676 180.407 121.897C180.981 122.148 181.631 122.166 182.217 121.945C182.804 121.724 183.281 121.284 183.547 120.716C183.706 120.32 183.814 119.876 183.918 119.562C184.649 119.636 185.864 119.845 185.881 119.784C186.155 118.597 186.328 117.389 186.4 116.173C186.422 115.803 185.985 115.436 185.767 115.048L185.911 114.942Z" fill="#FDFBF8"/>
<path d="M246.574 113.662C246.029 114.188 245.455 114.682 244.853 115.142C243.814 115.88 242.822 118.2 243.439 118.977C244.468 120.261 245.675 119.684 246.936 119.203C247.794 118.965 248.677 118.828 249.566 118.794C249.601 118.085 249.664 117.156 249.715 116.157L246.882 114.255C246.762 114.041 246.642 113.828 246.521 113.615L246.574 113.662Z" fill="#FDFBF8"/>
<path d="M113.504 147.501C115.027 147.517 116.547 147.355 118.032 147.018C118.971 146.469 119.709 145.633 120.136 144.633C120.307 144.256 119.728 143.229 119.24 142.815C118.791 142.463 118.248 142.254 117.679 142.215C117.111 142.175 116.544 142.307 116.051 142.593C113.766 143.523 114.638 145.661 113.504 147.501Z" fill="#FDFBF8"/>
<path d="M217.244 121.297C217.78 121.978 218.485 122.506 219.29 122.829C220.094 123.151 220.97 123.256 221.827 123.133C223.262 122.325 224.276 119.864 223.395 118.573C223.156 118.346 222.863 118.183 222.544 118.099C222.224 118.016 221.889 118.014 221.569 118.095C220.531 118.806 219.551 119.597 218.637 120.461L217.222 121.258" fill="#FDFBF8"/>
<path d="M141.923 131.316C141.32 131.697 140.878 132.286 140.681 132.972C140.483 133.657 140.544 134.391 140.851 135.035C141.397 136.004 143.532 136.078 145.054 135.017C146.576 133.955 145.754 132.861 145.272 131.779C144.791 130.697 143.122 130.59 141.923 131.316Z" fill="#FDFBF8"/>
<path d="M204.261 110.529L203.885 107.958C204.187 105.592 203.312 104.629 201.079 104.789C200.414 104.832 199.763 104.764 199.015 104.751C199.168 105.023 199.259 105.456 199.389 105.868C199.97 107.354 200.532 108.85 201.094 110.347L204.261 110.529Z" fill="#FDFBF8"/>
<path d="M201.093 110.347C200.532 108.851 199.95 107.365 199.388 105.869L197.385 106.845C196.45 107.215 195.569 107.711 194.768 108.319C194.619 108.594 194.541 108.901 194.539 109.214C194.537 109.527 194.612 109.835 194.757 110.112C195.182 110.868 195.945 111.996 196.896 110.465C197.313 109.988 197.783 109.56 198.297 109.19L198.53 109.059L198.382 109.296C198.813 110.968 200.134 110.275 201.141 110.295" fill="#FDFBF8"/>
<path d="M242.094 115.367C240.851 113.795 241.672 111.673 239.484 111.731C238.356 111.758 237.26 112.109 236.326 112.743C236.092 112.962 235.923 113.241 235.84 113.551C235.756 113.86 235.761 114.187 235.854 114.494C235.947 114.8 236.124 115.075 236.366 115.286C236.607 115.497 236.902 115.636 237.219 115.688C238.857 115.701 240.494 115.574 242.111 115.307" fill="#FDFBF8"/>
<path d="M145.031 73.3666C145.57 73.599 146.191 74.0664 146.807 74.0261C147.097 73.9617 147.366 73.8267 147.591 73.6331C147.816 73.4395 147.99 73.1934 148.097 72.9165C148.398 71.6387 148.517 70.3251 148.452 69.0141C148.464 68.7831 148.41 68.5533 148.297 68.3518C148.183 68.1502 148.015 67.9851 147.811 67.8752C147.608 67.7653 147.378 67.7154 147.147 67.7312C146.916 67.747 146.694 67.8278 146.508 67.9643C145.868 68.3246 144.976 69.4145 145.142 69.755C145.417 70.1804 145.553 70.6807 145.531 71.1867C145.51 71.6927 145.332 72.1794 145.022 72.58C145.022 72.58 145.059 72.9169 145.109 73.3229" fill="#FDFBF8"/>
<path d="M229.771 127.262C230.51 127.305 231.24 127.558 231.757 127.343C232.655 127.015 233.449 126.453 234.058 125.716C234.149 125.377 234.152 125.02 234.068 124.679C233.983 124.338 233.813 124.024 233.573 123.767C232.516 123.426 231.404 123.281 230.295 123.341C230.159 123.418 229.829 124.191 229.782 124.652C229.728 125.508 229.717 126.366 229.749 127.223" fill="#FDFBF8"/>
<path d="M153.551 78.0671C153.746 78.7747 154.213 79.5585 154.12 80.3003C153.885 81.6068 154.659 81.9371 155.545 82.3317C156.553 81.764 157.483 81.2402 158.473 80.5041C158.59 80.3408 158.668 80.1516 158.698 79.9526C158.728 79.7537 158.71 79.5506 158.646 79.3598C157.978 78.7422 157.163 78.306 156.279 78.0933C155.395 77.8805 154.471 77.8984 153.595 78.1447" fill="#FDFBF8"/>
<path d="M264.674 106.813C264.527 106.543 264.438 106.246 264.412 105.94C264.696 103.226 263.575 102.096 260.853 102.659C259.986 102.841 259.709 103.303 259.998 104.315C260.721 106.64 262.432 107.004 264.663 106.794" fill="#FDFBF8"/>
<path d="M213.639 140.509L217.936 138.753C217.32 137.977 216.844 136.815 216.062 136.514C215.545 136.271 214.956 136.226 214.407 136.387C213.859 136.549 213.388 136.907 213.085 137.392C212.783 137.877 212.669 138.457 212.765 139.02C212.861 139.584 213.16 140.093 213.606 140.451" fill="#FDFBF8"/>
<path d="M220.391 128.742C221.353 128.661 222.295 128.415 223.174 128.017C224.029 127.376 224.748 126.572 225.289 125.651C225.042 125.104 224.597 124.671 224.043 124.438C223.409 124.285 222.741 124.378 222.173 124.698C221.605 125.018 221.179 125.541 220.981 126.162C220.742 127.041 220.563 127.935 220.445 128.838" fill="#FDFBF8"/>
<path d="M253.639 116.78L253.174 118.855C253.003 119.379 252.869 119.915 252.775 120.458C252.758 121.003 252.792 121.549 252.875 122.087C253.583 121.893 254.51 121.907 255.043 121.403C255.653 120.729 256.07 119.903 256.25 119.012C256.344 118.693 256.366 118.357 256.314 118.029C256.261 117.701 256.136 117.388 255.947 117.114C255.579 116.734 254.709 116.867 253.736 116.725" fill="#FDFBF8"/>
<path d="M185.882 114.934C187.22 114.181 188.693 113.351 186.674 111.807C186.588 111.722 186.527 111.614 186.499 111.497C185.797 109.16 185.796 109.161 183.702 110.519C183.911 111.113 184.029 111.735 184.052 112.365C183.945 112.963 184.07 113.58 184.4 114.091C184.73 114.601 185.242 114.967 185.831 115.116L185.882 114.934Z" fill="#FDFBF8"/>
<path d="M174.897 99.059C175.459 99.3301 176.013 99.8607 176.537 99.795C177.062 99.7292 177.499 99.0998 177.998 98.7166C177.454 98.3848 176.906 97.7743 176.409 97.7988C174.78 97.8991 174.28 96.649 173.458 95.7332C173.173 95.4306 172.863 95.1525 172.531 94.9022C172.291 95.2926 171.805 95.7448 171.872 96.0902C172.094 97.165 171.821 98.9018 173.953 98.2887C174.244 98.1249 174.703 98.3514 175.073 98.373L174.897 99.059Z" fill="#FDFBF8"/>
<path d="M185.532 138.748C185.923 138.809 186.424 139.063 186.576 138.926C187.797 137.829 189.022 138.417 190.318 138.632C190.85 138.715 191.519 137.955 192.12 137.616C191.793 137.035 191.311 135.953 191.192 135.969C189.371 136.437 187.577 137.004 185.817 137.668C185.681 137.745 185.697 138.272 185.62 138.724" fill="#FDFBF8"/>
<path d="M217.166 107.373C217.454 108.206 217.641 109.069 217.722 109.946C217.547 111.857 219.173 112.524 220.118 113.703C220.227 113.897 221.02 113.808 221.289 113.605C221.444 113.459 221.565 113.28 221.643 113.082C221.721 112.883 221.754 112.67 221.74 112.457C221.728 112.209 221.38 111.818 220.98 111.788C218.669 111.174 218.159 109.725 220.176 107.593L217.177 107.393" fill="#FDFBF8"/>
<path d="M188.427 106.757L187.554 105.206L182.913 107.258L183.689 108.634C184.103 108.554 184.568 108.292 184.923 108.424C185.26 108.591 185.629 108.68 186.005 108.685C186.38 108.689 186.751 108.608 187.091 108.449C187.431 108.289 187.73 108.055 187.967 107.764C188.203 107.472 188.371 107.131 188.458 106.766" fill="#FDFBF8"/>
<path d="M151.23 77.0757L151.463 76.9449L152.753 73.2055L153.899 73.0194C152.976 71.8795 152.342 71.343 151.451 72.662C151.364 72.8277 151.25 72.9782 151.114 73.1071C148.758 75.2256 148.758 75.2253 151.23 77.0757Z" fill="#FDFBF8"/>
<path d="M174.763 140.753L175.758 137.307C174.881 137.291 173.798 136.956 173.208 137.314C172.618 137.672 172.385 138.799 171.958 139.627L174.743 140.764" fill="#FDFBF8"/>
<path d="M164.543 135.3C166.889 136.201 168.02 135.896 168.444 134.61C168.869 133.324 167.863 133.124 166.822 132.817C164.274 132.056 164.981 134.083 164.543 135.3Z" fill="#FDFBF8"/>
<path d="M217.245 121.295L218.66 120.498C218.231 118.876 217.239 118.745 216.121 119.707L212.134 122.693L214.35 123.998L214.662 123.464L213.895 122.646C213.972 122.502 214.07 122.37 214.184 122.253C215.464 122.757 215.559 119.436 217.255 121.314" fill="#FDFBF8"/>
<path d="M168.162 91.9492L168.453 91.7853L169.07 88.3481C167.331 88.0255 167.331 88.0255 165.266 91.7932L168.184 91.988" fill="#FDFBF8"/>
<path d="M192.982 128.629C191.274 128.135 189.661 127.946 189.085 130.006C189 130.309 189.631 130.976 190.019 131.166C191.178 131.636 192.388 130.521 192.982 128.629Z" fill="#FDFBF8"/>
<path d="M258.715 90.8401L260.465 91.5906C260.558 92.2535 260.431 93.1162 260.731 93.3305C261.03 93.5448 261.93 93.4208 262.535 93.3611C262.69 93.2738 263.117 93.0337 263.051 92.9174C262.378 91.896 261.627 90.9273 260.807 90.0197C260.697 89.8259 259.731 90.4214 258.715 90.8401Z" fill="#FDFBF8"/>
<path d="M179.363 125.167C179.618 125.869 179.986 126.524 180.455 127.105C181.061 127.504 181.729 127.8 182.431 127.984C182.464 127.454 182.675 126.876 182.523 126.426C181.78 124.291 181.3 124.255 179.456 125.242" fill="#FDFBF8"/>
<path d="M190.821 116.135L193.464 115.387C193.579 114.684 193.798 113.667 194.051 112.349C191.884 113.034 190.671 114.1 190.821 116.135Z" fill="#FDFBF8"/>
<path d="M259.85 96.4825C258.657 96.9808 257.494 97.5505 256.368 98.1884C256.078 98.3522 256.188 99.1837 256.113 99.6855C256.764 99.753 257.739 100.123 258.014 99.8405C258.807 98.9007 259.511 97.8887 260.116 96.8179L259.909 96.4498" fill="#FDFBF8"/>
<path d="M205.933 124.602C206.26 125.184 206.704 125.7 206.907 125.969C207.551 125.515 208.239 125.128 208.961 124.812C210.305 124.387 210.491 123.72 209.794 122.709L206.681 123.619L205.922 124.583" fill="#FDFBF8"/>
<path d="M204.642 144.3L208.951 142.383C207.872 142.081 206.776 141.846 205.669 141.679C205.238 141.64 204.392 142.041 204.389 142.399C204.379 143.085 204.486 143.767 204.708 144.416" fill="#FDFBF8"/>
<path d="M161.269 76.8095C162.017 77.6393 162.69 78.5625 164.028 77.8092C165.365 77.0559 165.704 76.2522 164.69 75.4953L161.608 76.0058L161.225 76.7319" fill="#FDFBF8"/>
<path d="M169.804 93.3236C169.45 93.3287 169.1 93.4095 168.78 93.5604C168.459 93.7112 168.174 93.9287 167.944 94.1984C167.714 94.4681 167.544 94.7835 167.446 95.124C167.348 95.4645 167.323 95.8221 167.374 96.1728L170.307 96.2572L169.774 93.3151" fill="#FDFBF8"/>
<path d="M205.931 124.603L206.691 123.639C206.53 122.81 206.582 121.632 205.231 121.908C204.592 122.089 203.622 122.814 203.701 123.408C203.737 124.741 204.969 124.481 205.877 124.506" fill="#FDFBF8"/>
<path d="M198.149 146.146C199.304 145.872 200.441 145.529 201.555 145.121C201.73 145.023 201.688 143.77 201.484 143.68C201.281 143.591 200.125 143.399 199.781 143.695C199.14 144.443 198.592 145.266 198.149 146.146Z" fill="#FDFBF8"/>
<path d="M246.914 114.313L249.747 116.216L251.686 115.124L248.274 113.599L246.936 114.352" fill="#FDFBF8"/>
<path d="M155.068 82.9816L151.876 83.8862L154.22 84.9659L155.068 82.9816Z" fill="#FDFBF8"/>
<path d="M163.673 72.0592C161.822 71.0846 161.07 71.3807 160.223 74.0025L163.887 72.7561C163.778 72.5622 163.669 72.3682 163.695 72.098" fill="#FDFBF8"/>
<path d="M206.638 114.477C205.903 115.529 205.18 116.422 204.722 117.241C204.734 117.363 204.772 117.481 204.832 117.588C204.893 117.694 204.974 117.788 205.072 117.862C205.181 117.9 205.299 117.911 205.414 117.895C205.53 117.879 205.639 117.836 205.734 117.769C206.392 117.206 206.985 116.572 207.504 115.879C207.717 115.759 207.473 115.054 207.268 114.735C207.063 114.416 206.649 114.496 206.619 114.488" fill="#FDFBF8"/>
<path d="M195.386 131.538C196.548 131.471 197.262 131.605 197.805 131.299C198.347 130.994 198.167 130.355 198.332 129.879C197.698 129.751 197.013 129.396 196.444 129.564C195.874 129.731 195.942 130.485 195.444 131.505" fill="#FDFBF8"/>
<path d="M160.795 89.0249C161.72 89.0187 162.643 88.9263 163.551 88.7494C163.687 88.6729 163.746 87.4648 163.625 87.431C163.014 87.2084 162.355 87.1482 161.714 87.2563C161.423 87.42 161.256 88.0757 160.795 89.0249Z" fill="#FDFBF8"/>
<path d="M161.269 76.8099L161.652 76.0836C161.97 73.6572 160.262 74.977 159.223 74.7194C159.247 76.2124 159.462 77.1381 161.269 76.8099Z" fill="#FDFBF8"/>
<path d="M181.603 102.892C182.629 102.901 183.387 103.112 183.723 102.847C184.058 102.581 184.187 101.768 184.378 101.201C183.833 101.048 183.104 100.616 182.786 100.821C182.467 101.026 182.142 101.899 181.603 102.892Z" fill="#FDFBF8"/>
<path d="M246.93 102.918C248.141 103.027 248.953 103.336 249.228 103.053C249.503 102.771 249.638 101.878 249.816 101.241C249.403 101.142 248.839 100.821 248.636 100.961C248.002 101.553 247.431 102.209 246.93 102.918Z" fill="#FDFBF8"/>
<path d="M184.657 130.125C186.393 130.986 187.328 130.969 187.656 129.738C187.758 129.374 187.165 128.866 186.903 128.401L184.657 130.125Z" fill="#FDFBF8"/>
<path d="M205.356 111.112L205.143 111.233C204.959 111.949 204.786 112.685 204.583 113.412L207.83 113.192C206.74 112.299 206.021 111.657 205.367 111.132" fill="#FDFBF8"/>
<path d="M210.113 137.695L208 138.885C208.323 139.266 208.687 139.608 209.087 139.907C209.681 139.425 210.238 138.898 210.752 138.331C210.588 138.04 210.424 137.749 210.136 137.555" fill="#FDFBF8"/>
<path d="M254.42 107.558L254.501 110.423L257.304 109.278L254.42 107.558Z" fill="#FDFBF8"/>
<path d="M224.11 109.411C225.159 109.459 225.949 109.728 226.274 109.443C226.598 109.158 226.628 108.35 226.778 107.755C226.304 107.639 225.619 107.284 225.339 107.467C224.831 108.047 224.416 108.703 224.11 109.411Z" fill="#FDFBF8"/>
<path d="M209.466 129.608C209.654 126.949 209.615 126.971 206.448 127.784C207.679 128.52 208.471 129.019 209.466 129.608Z" fill="#FDFBF8"/>
<path d="M181.508 114.741C181.311 112.758 179.597 113.57 178.673 113.018C178.536 113.274 178.187 113.65 178.263 113.785C178.439 114.144 178.75 114.419 179.128 114.55C179.914 114.679 180.711 114.743 181.508 114.741Z" fill="#FDFBF8"/>
<path d="M222.739 116.591C223.386 115.972 224.093 115.369 224.668 114.713C224.862 114.604 224.692 113.985 224.511 113.755C224.331 113.525 223.787 113.601 223.695 113.755C223.144 114.5 222.667 115.33 222.187 116.111C222.296 116.305 222.541 116.422 222.739 116.591Z" fill="#FDFBF8"/>
<path d="M192.026 110.655C191.509 109.465 191.128 108.607 190.714 107.691C189.317 109.245 189.673 110.014 192.026 110.655Z" fill="#FDFBF8"/>
<path d="M183.731 108.714L183.136 109.381L183.431 109.496L183.701 108.706L183.731 108.714Z" fill="#FDFBF8"/>
<path d="M246.915 114.313L248.253 113.56C247.543 112.3 247.064 112.672 246.503 113.626L246.863 114.266" fill="#FDFBF8"/>
<path d="M198.302 109.292L198.451 109.054L198.217 109.186L198.302 109.292Z" fill="#FDFBF8"/>
<path d="M158.387 31.5273L159.267 30.1886C158.907 29.5489 158.32 29.3687 157.912 29.7773C157.504 30.186 157.775 30.8502 158.387 31.5273Z" fill="#FDFBF8"/>
</svg>
