<svg width="138" height="14" viewBox="0 0 138 14" fill="none" xmlns="http://www.w3.org/2000/svg">
<path d="M133.802 6.78839H130.586V2.6307H133.802C134.071 2.60459 134.342 2.64038 134.597 2.73552C134.851 2.83066 135.081 2.98278 135.272 3.18099C135.462 3.37919 135.608 3.61857 135.699 3.88198C135.79 4.14539 135.823 4.42631 135.797 4.7046C135.83 4.98483 135.802 5.26926 135.714 5.53651C135.626 5.80375 135.48 6.04682 135.288 6.24743C135.096 6.44804 134.863 6.60096 134.605 6.69466C134.348 6.78836 134.073 6.82041 133.802 6.78839ZM133.802 0.546915H128.487V13.6619H130.558V8.87217H133.678C136.293 8.87217 137.925 7.2723 137.925 4.7046C137.955 4.14098 137.868 3.57714 137.67 3.05108C137.473 2.52503 137.168 2.04897 136.777 1.65498C136.387 1.261 135.919 0.958232 135.406 0.767091C134.893 0.57595 134.346 0.500874 133.802 0.546915ZM120.567 2.52206C122.542 2.52206 123.878 4.36882 123.878 7.12416C123.878 9.87949 122.609 11.6966 120.634 11.6966C118.659 11.6966 117.342 9.84 117.342 7.08466C117.342 4.32933 118.601 2.52206 120.567 2.52206ZM120.615 0.349396C117.37 0.349396 115.185 3.0751 115.185 7.12416C115.185 11.1732 117.351 13.8594 120.577 13.8594C123.802 13.8594 126.025 11.1436 126.025 7.08466C126.025 3.02573 123.85 0.349396 120.615 0.349396ZM110.614 5.74156H105.156V0.546915H103.124V13.6619H105.233V7.93397H110.691V13.6619H112.809V0.546915H110.691L110.614 5.74156ZM96.5777 5.84032C94.3257 5.14901 93.9631 4.72436 93.9631 3.96392C93.9631 3.04548 94.6883 2.50231 95.8716 2.50231C96.4057 2.47441 96.9392 2.56882 97.434 2.77878C97.9288 2.98875 98.3728 3.30911 98.7342 3.71703L98.8297 3.81578L100.318 2.25542L100.223 2.15666C99.6863 1.58353 99.0421 1.13015 98.3299 0.824429C97.6176 0.518711 96.8525 0.367134 96.0815 0.379029C93.5909 0.379029 91.8542 1.89989 91.8542 4.0923C91.8542 6.59087 93.3524 7.23279 95.8334 8.0426C97.9041 8.68453 98.5434 9.15856 98.5434 10.0178C98.5434 10.4523 98.5434 11.7559 96.1006 11.7559C95.5079 11.7401 94.9244 11.6008 94.385 11.3463C93.8456 11.0917 93.3613 10.7272 92.9612 10.2745L92.8753 10.1758L91.3676 11.6176L91.4439 11.7164C92.0006 12.3895 92.6934 12.9277 93.4734 13.293C94.2534 13.6582 95.1014 13.8414 95.9574 13.8298C100.061 13.8298 100.671 11.3115 100.671 9.81036C100.671 7.30192 98.8297 6.51186 96.6063 5.86006L96.5777 5.84032ZM82.1306 4.18119C81.7489 4.89224 81.2432 5.89957 80.9665 6.47236C80.6897 5.88969 80.1745 4.85274 79.8023 4.16143L77.827 0.546915H75.3556L79.8977 8.44751V13.6323H82.0161V8.47714L86.5583 0.576541H84.125L82.1306 4.18119ZM67.3878 2.72945H68.7714C72.1017 2.72945 72.7983 5.13914 72.7983 7.15379C72.7983 9.16844 72.1017 11.5781 68.7714 11.5781H67.3878V2.72945ZM68.7714 0.546915H65.2694V13.6619H68.7714C70.2218 13.6619 74.9453 13.1879 74.9453 7.10441C74.9453 3.00598 72.636 0.546915 68.7714 0.546915ZM57.3206 2.52206C59.3054 2.52206 60.6414 4.36882 60.6414 7.12416C60.6414 9.87949 59.3627 11.6966 57.397 11.6966C55.4313 11.6966 54.0953 9.84 54.0953 7.08466C54.0953 4.32933 55.4122 2.52206 57.3206 2.52206ZM57.3779 0.349396C54.1335 0.349396 51.9483 3.0751 51.9483 7.12416C51.9483 11.1732 54.1144 13.8594 57.3397 13.8594C60.565 13.8594 62.7884 11.1436 62.7884 7.08466C62.7884 3.02573 60.6127 0.349396 57.3779 0.349396ZM45.8699 5.63293H42.6923V2.57144H45.8699C47.1867 2.57144 47.4634 3.42075 47.4634 4.13181C47.4724 4.34437 47.436 4.55638 47.357 4.7528C47.278 4.94923 47.1583 5.12528 47.0062 5.26849C46.8542 5.41171 46.6736 5.51859 46.4772 5.58156C46.2809 5.64454 46.0735 5.66207 45.8699 5.63293ZM45.8699 11.6176H42.6923V7.66733H45.9271C46.1942 7.62917 46.4662 7.65251 46.7236 7.73567C46.981 7.81884 47.2175 7.95979 47.4162 8.14845C47.6149 8.33711 47.7709 8.56883 47.8731 8.82709C47.9753 9.08535 48.0211 9.36377 48.0073 9.64248C48.0073 10.9856 47.3108 11.6176 45.8794 11.6176H45.8699ZM48.2173 6.54149C48.6504 6.29024 49.0086 5.92063 49.2526 5.47303C49.4966 5.02544 49.6171 4.51707 49.6009 4.00343C49.6009 1.83076 48.2268 0.527159 45.9176 0.527159H40.6789V13.6619H45.7363C48.599 13.6619 50.1162 12.2102 50.1162 9.58322C50.1427 8.93636 49.9729 8.29712 49.6307 7.75517C49.2884 7.21321 48.7908 6.79572 48.2077 6.56124L48.2173 6.54149ZM26.2127 7.73646H29.7815V5.6033H26.2127V2.72945H32.3484V0.546915H24.0943V13.6619H32.6156V11.5287H26.2127V7.73646ZM18.9415 5.76131H13.4833V0.546915H11.3649V13.6619H13.4833V7.93397H18.9415V13.6619H21.0599V0.546915H18.9415V5.76131ZM0 2.72945H3.61653V13.6915H5.73492V2.72945H9.35146V0.546915H0V2.72945Z" fill="#004236"/>
</svg>
