<svg width="231" height="245" viewBox="0 0 231 245" fill="none" xmlns="http://www.w3.org/2000/svg">
<path d="M22.3599 138.411C22.2358 140.35 22.0869 142.303 21.9907 144.246C21.6577 148.726 22.9099 153.18 25.5285 156.83C26.8012 158.858 27.8873 160.998 28.7734 163.222C29.3802 164.561 29.8488 166.096 30.4992 167.373C31.9907 170.477 32.9968 173.791 33.482 177.201C33.8294 179.334 34.6812 181.353 35.9665 183.09C38.1702 185.921 40.1735 188.906 42.5101 191.613C43.5737 192.613 44.8409 193.371 46.2246 193.835C49.7689 195.395 53.4005 196.832 57.003 198.309C57.7954 198.622 58.5338 199.057 59.1913 199.598C61.8262 201.784 64.8434 203.462 68.09 204.547C69.9911 205.141 71.9738 205.432 73.9654 205.409C75.9926 205.518 78.0451 205.304 80.0694 205.241C80.2974 205.214 80.5283 205.239 80.7454 205.313C83.7363 206.671 86.9753 206.331 90.1139 206.663C92.5027 206.918 92.5609 206.835 93.24 209.106C94.4351 213.131 95.489 217.181 96.709 221.193C98.0243 225.864 100.464 230.142 103.814 233.652C106.446 236.419 108.835 239.405 110.956 242.58C114.812 248.454 120.245 253.121 126.633 256.047C128.694 256.775 130.817 257.313 132.975 257.654C135.217 258.207 137.439 258.809 139.693 259.278C141.677 259.712 143.684 260.069 145.654 260.37C148.161 260.676 150.704 260.822 153.223 261.044C157.938 261.39 162.678 261.126 167.325 260.258C170.632 259.688 173.929 259.002 177.221 258.344C179.988 257.797 182.75 257.277 185.501 256.641C187.109 256.223 188.593 255.718 190.118 255.242C190.702 255.049 191.004 255.324 191.452 255.7C192.509 256.713 193.714 257.559 195.026 258.209C198.163 259.468 201.422 260.334 204.811 259.187C206.357 258.545 207.595 257.329 208.264 255.793C208.932 254.258 208.979 252.523 208.395 250.954C207.557 249.29 206.625 247.675 205.604 246.117C205 245.105 204.289 244.158 203.787 243.109C202.162 239.586 199.782 236.463 196.816 233.961C197.592 233.372 198.327 232.73 199.015 232.041C202.498 228.006 204.337 223.141 205.918 218.157C206.553 216.129 207.21 214.115 207.935 212.134C208.104 211.86 208.364 211.654 208.669 211.551C212.932 209.688 217.308 208.059 221.433 205.928C225.16 204.013 228.992 202.079 231.971 199.005C234.251 196.661 236.746 194.407 237.949 191.262C238.679 189.395 239.211 187.456 239.536 185.478C240.278 179.932 243.034 174.854 247.28 171.21C249.389 169.397 251.498 167.537 253.47 165.566C256.153 162.777 257.894 159.218 258.45 155.389C259.282 150.624 259.254 145.748 258.366 140.993C258.086 139.278 257.669 137.589 257.119 135.941C254.067 127.07 253.432 117.885 253.477 108.636C253.598 105.76 253.181 102.887 252.249 100.164C251.672 98.731 250.802 97.4345 249.693 96.3589C247.661 94.4065 245.406 92.6839 243.244 90.8722C242.126 89.9322 240.975 89.0158 239.863 88.0654C238.752 87.1149 237.62 86.1499 236.552 85.1373C234.699 83.3717 232.961 81.4405 231.02 79.7992C228.749 77.9064 226.382 76.131 223.929 74.4796C223.005 73.9698 221.998 73.6291 220.954 73.4735C218.248 72.8112 215.534 72.0959 212.788 71.6222C209.862 71.0848 206.903 70.7434 203.932 70.6004C200.387 70.4937 197.016 71.6379 193.673 72.6773C186.65 75.0518 179.217 75.9692 171.827 75.3732C170.615 75.2491 169.362 75.5138 168.124 75.4488C167.347 75.4216 166.587 75.2157 165.902 74.8472C162.129 72.5542 158.308 70.2424 154.669 67.8262C151.952 66.0117 149.419 63.8925 146.699 62.0603C145.274 61.1537 143.751 60.4112 142.159 59.8471C138.842 58.7199 135.404 57.9828 131.916 57.6506C128.269 57.3075 124.591 57.7528 121.131 58.9562C117.572 59.841 114.205 61.3725 111.2 63.4746C110.014 64.4046 108.915 65.4393 107.915 66.5663C105.512 69.1953 103.71 72.3169 102.637 75.7134C101.697 78.8583 100.43 81.8969 99.6258 85.0908C99.1538 87.4521 98.8833 89.8492 98.8171 92.2564C98.1367 102.389 99.5481 112.428 100.236 122.485C100.48 125.75 101.374 128.992 101.219 132.363C101.041 136.383 102.579 140.03 104.244 143.628C105.91 147.226 107.471 151.214 109.104 154.99C109.298 155.322 109.376 155.71 109.324 156.091C109.272 156.473 109.094 156.825 108.818 157.094C107.202 159.205 106.217 161.731 105.977 164.379L105.09 169.804C103.679 168.025 102.428 166.172 100.929 164.562C97.3963 160.783 93.7762 157.127 90.1925 153.42C89.9015 153.107 89.6064 152.823 89.3021 152.485L77.551 139.285C75.3933 136.873 73.2659 134.374 71.0324 132.048C69.5678 130.578 68.0182 129.196 66.3916 127.907C63.6983 125.601 61.2329 123.042 59.0295 120.264C57.2832 118.288 55.2807 116.554 53.0752 115.108C52.1172 114.51 51.0097 114.194 49.8802 114.197C48.7507 114.201 47.645 114.523 46.6904 115.126C44.2869 116.346 41.9052 117.535 39.6281 118.906C33.4637 122.621 28.1713 127.62 24.1101 133.562C23.8555 133.924 23.601 134.287 23.3827 134.598C23.0179 135.888 22.7186 137.086 22.4005 138.332L22.3599 138.411ZM169.879 77.8405L170.497 77.8414C176.895 77.5395 183.441 78.1296 189.674 75.8396C190.32 75.628 190.987 75.4899 191.664 75.4277C197.517 74.7579 203.346 74.0559 209.207 73.4846C210.552 73.4171 211.9 73.536 213.212 73.8378C215.656 74.3007 218.086 74.8932 220.517 75.4401C221.256 75.5469 221.976 75.7607 222.654 76.0747C225.315 77.5683 227.732 79.4586 229.823 81.6807C231.508 83.4667 233.261 85.1772 235.032 86.8846C236.092 87.9076 237.196 88.8683 238.311 89.8364C239.641 91.0028 240.975 92.187 242.343 93.3016C244.04 94.6947 245.738 96.0878 247.512 97.3492C249.937 99.0513 250.493 101.607 250.437 104.198C250.454 109.02 250.145 113.844 250.06 118.657C249.937 125.067 251.918 130.99 254.298 136.852C255.074 138.853 255.65 140.925 256.017 143.039C256.642 146.882 256.643 150.8 256.021 154.642C255.686 157.66 254.469 160.513 252.521 162.842C250.754 164.813 248.762 166.571 246.586 168.079C243.946 170.157 241.693 172.686 239.934 175.549C238.253 177.942 237.945 180.804 237.303 183.57C236.871 186.168 236.129 188.705 235.09 191.126C232.915 195.26 229.097 197.745 224.935 199.818C224.089 200.23 223.287 200.734 222.444 201.163C220.41 202.055 218.377 202.947 216.32 203.761C215.019 204.27 213.645 204.574 212.306 205.072C207.354 207.102 202.429 209.227 197.467 211.249C194.094 212.703 191.073 214.864 188.608 217.588C187.725 218.515 187.153 219.66 186.229 220.557C186.035 220.761 185.8 220.92 185.539 221.025C185.279 221.131 184.999 221.179 184.718 221.167C184.407 221.103 184.22 220.291 184.024 219.798C183.987 219.611 184 219.418 184.063 219.237C184.753 215.082 185.319 210.839 186.186 206.808C187.485 201.301 188.997 195.821 190.736 190.437C192.102 186.238 193.715 182.124 195.567 178.115C196.765 175.752 197.398 173.144 197.417 170.495C197.436 167.846 196.84 165.228 195.676 162.848C193.665 158.575 191.31 154.462 189.974 149.889C188.377 144.453 186.65 139.049 185.107 133.603C184.711 131.987 184.476 130.336 184.407 128.673C184.229 126.197 184.13 123.715 184.057 121.22C183.939 117.533 183.702 113.84 183.793 110.208C184.085 105.717 185.011 101.29 186.545 97.0594C187.238 94.948 187.699 92.7502 188.306 90.563C188.964 88.1944 189.709 85.856 190.213 83.4416C190.27 83.0859 190.244 82.7219 190.137 82.378C190.029 82.0342 189.843 81.7199 189.594 81.46C189.292 81.2631 188.95 81.1377 188.593 81.0931C188.235 81.0486 187.872 81.0862 187.532 81.203C186.087 81.8478 184.698 82.6106 183.378 83.4836C182.124 84.2575 180.954 85.1529 179.77 86.0233C179.248 86.4145 178.891 86.3496 178.418 85.8781C175.681 83.1676 173.235 80.0428 169.74 77.774L169.879 77.8405ZM183.285 90.2695C182.838 92.4922 182.354 94.7667 181.906 97.035C181.705 98.0697 181.551 99.1054 181.388 100.152C180.914 103.206 180.422 106.263 180.011 109.316C179.508 112.212 179.17 115.135 178.999 118.071C178.819 125.244 180.448 132.22 182.306 139.046C184.085 144.994 186.171 150.847 188.555 156.58C189.722 159.565 191.322 162.375 192.728 165.264C193.122 166.001 193.361 166.811 193.43 167.645C193.499 168.478 193.397 169.317 193.13 170.109C191.586 174.644 190.015 179.171 188.419 183.691C184.485 194.201 181.769 205.128 180.324 216.257C180.305 216.433 180.25 216.603 180.161 216.757C180.072 216.91 179.951 217.043 179.808 217.147C179.632 217.163 179.455 217.139 179.289 217.077C179.124 217.014 178.975 216.915 178.854 216.787C177.521 215.402 176.205 213.952 174.961 212.507C173.144 210.535 171.42 208.474 169.495 206.612C165.153 202.31 159.989 199.07 155.096 195.465C153.188 194.18 151.415 192.706 149.801 191.067C147.173 188.201 144.909 185.126 142.463 182.156C139.657 178.639 137.944 174.559 135.864 170.671C133.784 166.782 132.247 162.98 129.997 159.421C126.88 154.286 124.356 148.814 122.473 143.11C121.579 140.549 120.743 137.951 119.995 135.338C118.591 130.531 117.006 125.784 116.939 120.68C116.806 114.26 117.884 108.32 121.97 103.162C123.203 101.445 124.338 99.6597 125.369 97.8145C126.093 96.6064 126.756 95.3547 127.485 94.073C129.666 95.3723 131.649 96.4702 133.575 97.7143C135.626 98.8315 137.795 99.7167 140.043 100.353C147.213 103.102 155.156 103.046 162.287 100.196C165.488 98.9631 168.804 98.0283 172.044 96.9161C174.149 96.3415 176.192 95.5579 178.141 94.5771C180 93.2775 181.746 91.8231 183.359 90.2293L183.285 90.2695ZM132.793 200.84L132.655 201.037C131.786 200.798 130.921 200.531 130.037 200.359C129.22 200.087 128.358 199.975 127.499 200.031C124.612 200.574 121.761 201.294 118.962 202.188C116.257 203.134 113.695 204.491 110.714 204.331C108.677 204.215 106.64 204.208 104.611 204.036C102.169 203.899 99.7372 203.627 97.326 203.221C94.5921 202.709 91.8329 201.792 89.0775 201.157C88.0427 200.95 86.9858 200.879 85.9327 200.944C82.3537 201.106 78.7724 201.515 75.1906 201.506C71.9669 201.65 68.7733 200.83 66.0186 199.149C64.4981 198.097 62.8821 197.19 61.192 196.441C57.514 194.894 53.7433 193.546 50.0204 192.108C49.5551 191.962 49.1085 191.763 48.6898 191.513C47.4674 190.655 46.2782 189.727 45.1109 188.769C43.9997 187.881 42.9462 186.925 41.9564 185.904C41.2059 185.052 40.5368 184.132 39.9578 183.155C36.9916 178.765 34.7545 173.925 33.3333 168.822C32.4905 164.787 31.1583 160.87 29.366 157.158C27.9313 154.332 26.6832 151.414 25.6298 148.425C24.4739 145.351 24.4154 141.971 25.4641 138.859C25.8787 137.528 26.3793 136.227 26.9629 134.962C28.1864 132.356 29.9756 130.056 32.2002 128.23C34.123 126.703 36.2806 125.48 38.2437 124.028C41.0465 121.975 43.6796 119.678 46.5808 117.771C49.2038 116.04 51.639 115.832 53.7803 118.047C54.6128 118.91 55.6 119.619 56.4824 120.455C60.8816 124.565 65.2695 128.713 69.676 132.812C69.9246 132.987 70.115 133.244 70.3097 133.474C73.5549 137.237 76.8023 141.012 80.0516 144.799C82.5921 147.789 85.1335 150.888 87.7446 153.866C89.576 155.972 91.5434 157.972 93.4537 160.009C94.8401 161.493 96.1507 163.063 97.6264 164.486C99.964 166.686 101.956 169.226 103.534 172.021C104.584 173.989 105.817 175.854 107.216 177.592C110.988 181.957 114.476 186.571 119.271 189.985C123.28 192.8 127.01 195.991 130.852 199.044C131.577 199.553 132.157 200.27 132.809 200.882L132.793 200.84ZM95.23 206.977C95.7585 207.004 96.2847 207.064 96.8059 207.155C99.2865 207.83 101.753 208.525 104.197 209.251C106.854 210.054 109.69 210.054 112.348 209.252C115.135 208.409 117.893 207.5 120.67 206.65C122.237 206.204 123.814 205.764 125.453 205.368C127.633 205.093 129.846 205.291 131.942 205.95C135.001 206.551 138.028 207.13 141.086 207.73C143.225 208.162 145.338 208.711 147.417 209.376C149.583 210.123 151.605 211.296 153.776 212.016C156.526 212.866 159.048 214.326 161.156 216.285C163.832 218.957 166.124 221.987 167.966 225.289C170.476 229.99 174.493 233.71 179.373 235.851C180.886 236.534 182.257 237.496 183.413 238.687C186.554 242.352 188.541 246.863 189.126 251.654C189.148 251.929 189.109 252.205 189.013 252.464C188.917 252.722 188.766 252.957 188.57 253.151C187.839 253.842 186.952 254.349 185.985 254.63C182.4 255.33 178.837 255.999 175.333 256.43C169.104 257.239 162.947 259.025 156.624 258.668C150.95 258.335 145.157 258.721 139.683 256.362C137.441 255.392 135.006 254.873 132.702 254.013C126.131 251.565 120.488 247.881 116.468 241.888C115.168 240.128 113.665 238.527 111.99 237.119C109.84 235.115 107.524 233.303 105.32 231.354C103.264 229.489 101.68 227.162 100.698 224.566C99.3463 221.05 98.2679 217.431 97.1469 213.829C96.4564 211.596 95.9213 209.318 95.2478 206.819L95.23 206.977ZM161.482 74.3577L155.667 72.5947C154.445 72.2496 153.163 72.1662 151.907 72.3501C150.651 72.5339 149.447 72.9809 148.375 73.6617C147.225 74.3082 146.023 74.8093 144.858 75.4764C143.471 76.2113 142.202 77.1502 141.093 78.2616C139.183 80.52 137.436 82.9118 135.866 85.4187C135.221 86.4819 134.313 87.3618 133.23 87.9744C132.148 88.587 130.926 88.912 129.682 88.9181C128.408 89.0776 127.144 89.3168 125.9 89.6344C125.249 89.758 124.638 90.0369 124.118 90.4474C123.598 90.858 123.185 91.388 122.914 91.9923C121.313 95.1985 119.76 98.4235 118.058 101.575C116.264 104.621 115.07 107.982 114.538 111.477C114.349 113.046 114.244 114.627 113.982 116.19C113.272 121.502 113.697 126.903 115.228 132.038C116.483 136.862 117.986 141.619 119.73 146.288C121.423 151.369 123.726 156.227 126.587 160.754C128.164 163.065 129.479 165.544 130.507 168.146C132.202 172.232 134.306 176.135 136.789 179.795C138.845 182.925 141.083 185.904 142.971 189.163C144.443 191.637 146.374 193.807 148.66 195.555C152.644 198.538 156.682 201.466 160.826 204.221C165.121 207.194 168.953 210.786 172.196 214.881C176.372 219.947 180.218 225.153 185.117 229.521C187.03 231.234 189.274 232.536 191.711 233.346C193.672 233.952 195.411 235.124 196.708 236.716C198.445 238.91 200.012 241.217 201.725 243.425C203.76 245.955 205.395 248.783 206.573 251.809C206.765 252.277 206.848 252.784 206.815 253.29C206.781 253.796 206.632 254.287 206.379 254.726C206.126 255.165 205.775 255.54 205.355 255.823C204.934 256.106 204.454 256.288 203.952 256.356C202.954 256.568 201.93 256.631 200.913 256.543C199.925 256.418 198.984 256.045 198.179 255.458C196.236 253.597 194.699 251.354 193.664 248.87C192.574 246.744 191.569 244.584 190.397 242.509C189.156 240.106 187.295 238.079 185.008 236.637C180.534 234.116 176.269 231.24 172.254 228.037C170.864 226.926 169.791 225.468 169.143 223.811C168.358 221.713 167.526 219.659 166.656 217.595C165.392 214.312 162.933 211.629 159.772 210.085C158.039 209.271 156.159 208.755 154.378 208.03C150.913 206.752 147.516 205.296 144.201 203.669C140.453 201.671 136.665 199.599 133.711 196.427C132.105 194.673 130.622 192.81 129.273 190.852C127.908 188.919 126.751 186.822 125.507 184.805C123.761 181.939 121.997 179.076 120.258 176.2C119.417 175.001 118.692 173.726 118.092 172.39C116.317 167.494 114.688 162.545 112.998 157.616C112.762 156.94 112.575 156.236 112.286 155.569C110.007 150.598 107.644 145.659 105.423 140.65C104.885 139.327 104.551 137.93 104.434 136.507C104.264 134.547 104.344 132.516 104.203 130.514C103.882 126.081 103.444 121.66 103.13 117.217C102.964 114.811 102.977 112.392 102.845 109.979C102.547 104.434 102.27 98.9034 101.873 93.3663C101.549 88.4981 103.559 84.3572 105.273 80.1318C106.014 78.2393 107.127 76.4997 108.007 74.6738C110.388 69.7411 113.409 65.3506 118.23 62.4716C118.613 62.2003 119.023 61.9702 119.455 61.7848C121.871 61.0167 124.289 60.2815 126.711 59.5791C127.428 59.3611 128.171 59.2432 128.921 59.2287C130.351 59.1948 131.781 59.2882 133.195 59.5076C136.01 59.8169 138.779 60.4578 141.444 61.4172C144.602 62.9988 147.624 64.8408 150.476 66.9241C153.311 68.7907 156.039 70.8302 158.816 72.7796C159.634 73.3543 160.576 73.7528 161.533 74.2851L161.482 74.3577ZM164.287 96.4653C163.705 96.7216 163.339 96.9129 162.938 97.0648C160.877 97.7981 158.786 98.5729 156.596 99.0924C153.604 99.9516 150.428 99.9333 147.446 99.0399C145.428 98.4116 143.424 97.7628 141.388 97.1376C139.988 96.6648 138.619 96.0593 137.242 95.5098L137.166 95.0233C138.02 94.3953 138.926 93.8416 139.874 93.368C142.389 92.3647 145.002 91.6166 147.476 90.5386C148.429 90.0619 149.482 89.8214 150.548 89.8373C151.613 89.8533 152.66 90.1253 153.598 90.6304C155.852 91.8262 157.974 93.2084 160.185 94.4664C161.443 95.164 162.745 95.7538 164.296 96.5182L164.287 96.4653ZM186.334 226.663C190.264 219.415 196.822 216.132 204.128 213.745C203.23 216.61 202.211 219.406 201.143 222.182C200.653 223.485 200.097 224.762 199.477 226.008C198.772 227.456 197.937 228.837 196.982 230.134C196.715 230.397 196.393 230.597 196.039 230.72C195.685 230.844 195.308 230.887 194.935 230.847C191.678 230.354 189.084 228.409 186.376 226.693L186.334 226.663ZM125.393 191.422L122.523 189.407C118.452 186.703 114.969 183.205 112.282 179.122C110.998 177.116 109.579 175.2 108.034 173.387C107.771 173.097 107.595 172.738 107.529 172.352C107.464 171.966 107.51 171.569 107.662 171.208C108.167 169.784 108.71 168.371 109.215 166.947C109.849 165.164 110.478 163.364 111.108 161.563C111.797 163.347 112.314 165.191 112.654 167.072C113.147 169.606 114.106 172.026 115.484 174.21C117.893 178.268 120.214 182.387 122.541 186.496C123.477 188.158 124.331 189.872 125.258 191.636L125.393 191.422ZM140.346 89.5691C140.459 89.3116 140.588 89.0613 140.732 88.8198C143.386 84.9427 146.945 81.7717 151.101 79.5817C151.673 79.2571 152.325 79.098 152.982 79.1226C153.64 79.1472 154.277 79.3544 154.824 79.7208C155.249 79.9653 155.651 80.2477 156.025 80.5646C158.946 82.7835 161.288 85.6748 162.852 88.9928C163.397 90.1332 164.034 91.2302 164.629 92.3438L164.375 92.7063C163.428 92.1813 162.453 91.6977 161.526 91.1239C159.66 89.7863 157.713 88.5642 155.697 87.4643C153.869 86.6299 151.875 86.219 149.866 86.2622C147.856 86.3055 145.883 86.8017 144.092 87.714C142.898 88.2682 141.732 88.8721 140.384 89.5805L140.346 89.5691ZM131.275 92.4648L131.236 92.0354C134.892 91.8955 136.947 89.673 138.66 86.7926C140.304 84.0294 142.409 81.5682 144.883 79.5157C146.482 78.3149 148.162 77.2255 149.91 76.2553C150.583 75.7312 151.377 75.383 152.218 75.2421C153.06 75.1012 153.923 75.172 154.73 75.4481C155.623 75.7487 156.5 76.0959 157.357 76.488C160.373 78.0955 163.423 79.6336 165.426 82.6178C167.429 85.6021 169.53 88.9329 170.189 92.752C167.679 93.0004 167.91 93.0235 166.573 90.9403C164.655 87.923 163.072 84.6926 161.136 81.6783C160.039 80.0168 158.727 78.5079 157.234 77.1908C156.597 76.6375 155.815 76.2784 154.981 76.1555C154.146 76.0326 153.294 76.1513 152.524 76.4976C146.32 78.9327 141.117 83.3867 137.754 89.1413C135.924 92.1874 135.914 92.1802 132.461 92.6481C132.051 92.641 131.645 92.5743 131.254 92.4503L131.275 92.4648ZM162.094 75.4681C162.192 75.3783 162.284 75.2832 162.371 75.1833C163.436 75.9888 164.458 76.8505 165.431 77.7646C168.291 80.7626 171.086 83.8082 173.867 86.8744C174.534 87.621 174.92 88.5257 174.107 89.4402C170.661 84.2824 167.094 79.2728 162.094 75.4681Z" fill="#FDFBF8"/>
</svg>
