<svg width="40" height="40" viewBox="0 0 40 40" fill="none" xmlns="http://www.w3.org/2000/svg">
<g clip-path="url(#clip0)">
<path d="M18.6884 24.609C16.6227 24.4069 14.7603 23.9296 13.1657 22.7595C12.9678 22.6139 12.7635 22.4735 12.583 22.3109C11.885 21.682 11.8147 20.9617 12.367 20.2195C12.8394 19.5843 13.6325 19.4143 14.4569 19.7791C14.6165 19.8498 14.7686 19.938 14.9143 20.0328C17.8861 21.9486 21.9685 22.0015 24.9515 20.1189C25.247 19.9063 25.5629 19.733 25.929 19.6445C26.6409 19.473 27.3048 19.7183 27.6869 20.3027C28.1234 20.9701 28.1178 21.6216 27.58 22.1397C26.7551 22.9341 25.763 23.5088 24.6607 23.9099C23.6184 24.2891 22.4767 24.4799 21.3468 24.6067C21.5173 24.7808 21.5977 24.8664 21.7043 24.9669C23.2386 26.4133 24.7796 27.8536 26.3089 29.3044C26.8299 29.7987 26.9387 30.4116 26.6518 30.9866C26.3382 31.615 25.636 32.0284 24.9476 31.9842C24.5114 31.9559 24.1712 31.7522 23.869 31.4666C22.7111 30.3734 21.5315 29.3004 20.3971 28.1866C20.067 27.8628 19.9082 27.924 19.6168 28.2052C18.452 29.3303 17.2682 30.4381 16.0774 31.5396C15.5428 32.0342 14.9065 32.1232 14.2864 31.8407C13.6272 31.5409 13.2078 30.9096 13.2402 30.2752C13.2625 29.8461 13.4874 29.5183 13.8014 29.2243C15.3198 27.8017 16.834 26.3756 18.3488 24.9507C18.449 24.8559 18.5424 24.7554 18.6884 24.609Z" fill="#FFED76"/>
<path d="M19.9467 19.6539C16.2616 19.6421 13.2399 16.7759 13.2614 13.313C13.2826 9.8118 16.3063 6.99034 20.0276 7.00002C23.7565 7.00945 26.7495 9.87149 26.7308 13.4091C26.7118 16.8649 23.6692 19.666 19.9467 19.6539ZM23.2958 13.3213C23.2894 11.6019 21.8298 10.2331 20.0008 10.2315C18.1565 10.2297 16.6839 11.6234 16.6981 13.3585C16.7118 15.0714 18.1838 16.4306 20.0179 16.4243C21.8463 16.4182 23.3019 15.0405 23.2958 13.3213Z" fill="#FFED76"/>
<circle cx="19.9991" cy="20" r="19.5" stroke="#FFED76"/>
</g>
<defs>
<clipPath id="clip0">
<rect width="40" height="40" fill="white"/>
</clipPath>
</defs>
</svg>
