<svg width="40" height="40" viewBox="0 0 40 40" fill="none" xmlns="http://www.w3.org/2000/svg">
<g clip-path="url(#clip0)">
<circle cx="19.9996" cy="20" r="20" fill="#F8BB46"/>
<path d="M18.6889 24.609C16.6232 24.4069 14.7607 23.9296 13.1662 22.7595C12.9683 22.6139 12.764 22.4735 12.5835 22.3109C11.8855 21.682 11.8152 20.9617 12.3675 20.2195C12.8399 19.5843 13.633 19.4143 14.4574 19.7791C14.617 19.8498 14.7691 19.938 14.9148 20.0328C17.8866 21.9486 21.969 22.0015 24.952 20.1189C25.2475 19.9063 25.5634 19.733 25.9295 19.6445C26.6414 19.473 27.3053 19.7183 27.6874 20.3027C28.1238 20.9701 28.1183 21.6216 27.5805 22.1397C26.7556 22.9341 25.7635 23.5088 24.6612 23.9099C23.6189 24.2891 22.4772 24.4799 21.3473 24.6067C21.5178 24.7808 21.5981 24.8664 21.7048 24.9669C23.2391 26.4133 24.7801 27.8536 26.3093 29.3044C26.8304 29.7987 26.9392 30.4116 26.6523 30.9866C26.3386 31.615 25.6365 32.0284 24.9481 31.9842C24.5119 31.9559 24.1717 31.7522 23.8695 31.4666C22.7116 30.3734 21.532 29.3004 20.3976 28.1866C20.0675 27.8628 19.9087 27.924 19.6173 28.2052C18.4525 29.3303 17.2687 30.4381 16.0779 31.5396C15.5432 32.0342 14.907 32.1232 14.2869 31.8407C13.6277 31.5409 13.2083 30.9096 13.2407 30.2752C13.263 29.8461 13.4879 29.5183 13.8019 29.2243C15.3203 27.8017 16.8345 26.3756 18.3493 24.9507C18.4494 24.8559 18.5429 24.7554 18.6889 24.609Z" fill="#F8F3E8"/>
<path d="M19.9472 19.6539C16.2621 19.6421 13.2404 16.7759 13.2619 13.313C13.2831 9.8118 16.3068 6.99034 20.0281 7.00002C23.757 7.00945 26.75 9.87149 26.7313 13.4091C26.7123 16.8649 23.6697 19.666 19.9472 19.6539ZM23.2963 13.3213C23.2898 11.6019 21.8303 10.2331 20.0013 10.2315C18.157 10.2297 16.6843 11.6234 16.6986 13.3585C16.7123 15.0714 18.1843 16.4306 20.0184 16.4243C21.8468 16.4182 23.3024 15.0405 23.2963 13.3213Z" fill="#F8F3E8"/>
</g>
<defs>
<clipPath id="clip0">
<rect width="40" height="40" fill="white" transform="translate(0.000488281)"/>
</clipPath>
</defs>
</svg>
