<svg width="149" height="150" viewBox="0 0 149 150" fill="none" xmlns="http://www.w3.org/2000/svg">
<g clip-path="url(#clip0)">
<path d="M43.0831 0.477905C44.3225 0.477905 45.3272 1.48897 45.3272 2.73615C45.3272 3.9834 44.3225 4.9944 43.0831 4.9944C41.8438 4.9944 40.8391 3.9834 40.8391 2.73615C40.8391 1.48897 41.8438 0.477905 43.0831 0.477905Z" fill="#004236"/>
<path d="M47.5712 0.477905C48.8107 0.477905 49.8153 1.48897 49.8153 2.73615C49.8153 3.9834 48.8107 4.9944 47.5712 4.9944C46.3319 4.9944 45.3272 3.9834 45.3272 2.73615C45.3272 1.48897 46.3319 0.477905 47.5712 0.477905Z" fill="#004236"/>
<path d="M61.0356 0.477905C62.2751 0.477905 63.2797 1.48897 63.2797 2.73615C63.2797 3.9834 62.2751 4.9944 61.0356 4.9944C59.7963 4.9944 58.7916 3.9834 58.7916 2.73615C58.7916 1.48897 59.7963 0.477905 61.0356 0.477905Z" fill="#004236"/>
<path d="M65.5238 0.477905C66.7632 0.477905 67.7679 1.48897 67.7679 2.73615C67.7679 3.9834 66.7632 4.9944 65.5238 4.9944C64.2844 4.9944 63.2797 3.9834 63.2797 2.73615C63.2797 1.48897 64.2844 0.477905 65.5238 0.477905Z" fill="#004236"/>
<path d="M78.9882 0.477905C80.2276 0.477905 81.2323 1.48897 81.2323 2.73615C81.2323 3.9834 80.2276 4.9944 78.9882 4.9944C77.7489 4.9944 76.7441 3.9834 76.7441 2.73615C76.7441 1.48897 77.7489 0.477905 78.9882 0.477905Z" fill="#004236"/>
<path d="M96.9407 0.477905C98.1802 0.477905 99.1848 1.48897 99.1848 2.73615C99.1848 3.9834 98.1802 4.9944 96.9407 4.9944C95.7014 4.9944 94.6967 3.9834 94.6967 2.73615C94.6967 1.48897 95.7014 0.477905 96.9407 0.477905Z" fill="#004236"/>
<path d="M105.917 0.477905C107.156 0.477905 108.161 1.48897 108.161 2.73615C108.161 3.9834 107.156 4.9944 105.917 4.9944C104.678 4.9944 103.673 3.9834 103.673 2.73615C103.673 1.48897 104.678 0.477905 105.917 0.477905Z" fill="#004236"/>
<path d="M110.405 0.477905C111.645 0.477905 112.649 1.48897 112.649 2.73615C112.649 3.9834 111.645 4.9944 110.405 4.9944C109.166 4.9944 108.161 3.9834 108.161 2.73615C108.161 1.48897 109.166 0.477905 110.405 0.477905Z" fill="#004236"/>
<path d="M43.0831 4.99438C44.3225 4.99438 45.3272 6.00545 45.3272 7.25263C45.3272 8.49988 44.3225 9.51088 43.0831 9.51088C41.8438 9.51088 40.8391 8.49988 40.8391 7.25263C40.8391 6.00545 41.8438 4.99438 43.0831 4.99438Z" fill="#004236"/>
<path d="M47.5712 4.99438C48.8107 4.99438 49.8153 6.00545 49.8153 7.25263C49.8153 8.49988 48.8107 9.51088 47.5712 9.51088C46.3319 9.51088 45.3272 8.49988 45.3272 7.25263C45.3272 6.00545 46.3319 4.99438 47.5712 4.99438Z" fill="#004236"/>
<path d="M56.5475 4.99438C57.7869 4.99438 58.7915 6.00545 58.7915 7.25263C58.7915 8.49988 57.7869 9.51088 56.5475 9.51088C55.3081 9.51088 54.3034 8.49988 54.3034 7.25263C54.3034 6.00545 55.3081 4.99438 56.5475 4.99438Z" fill="#004236"/>
<path d="M70.0119 4.99438C71.2513 4.99438 72.256 6.00545 72.256 7.25263C72.256 8.49988 71.2513 9.51088 70.0119 9.51088C68.7725 9.51088 67.7678 8.49988 67.7678 7.25263C67.7678 6.00545 68.7725 4.99438 70.0119 4.99438Z" fill="#004236"/>
<path d="M74.5001 4.99438C75.7395 4.99438 76.7441 6.00545 76.7441 7.25263C76.7441 8.49988 75.7395 9.51088 74.5001 9.51088C73.2607 9.51088 72.256 8.49988 72.256 7.25263C72.256 6.00545 73.2607 4.99438 74.5001 4.99438Z" fill="#004236"/>
<path d="M83.4763 4.99438C84.7157 4.99438 85.7204 6.00545 85.7204 7.25263C85.7204 8.49988 84.7157 9.51088 83.4763 9.51088C82.237 9.51088 81.2322 8.49988 81.2322 7.25263C81.2322 6.00545 82.237 4.99438 83.4763 4.99438Z" fill="#004236"/>
<path d="M87.9645 4.99438C89.2039 4.99438 90.2086 6.00545 90.2086 7.25263C90.2086 8.49988 89.2039 9.51088 87.9645 9.51088C86.7251 9.51088 85.7204 8.49988 85.7204 7.25263C85.7204 6.00545 86.7251 4.99438 87.9645 4.99438Z" fill="#004236"/>
<path d="M92.4526 4.99438C93.692 4.99438 94.6967 6.00545 94.6967 7.25263C94.6967 8.49988 93.692 9.51088 92.4526 9.51088C91.2133 9.51088 90.2086 8.49988 90.2086 7.25263C90.2086 6.00545 91.2133 4.99438 92.4526 4.99438Z" fill="#004236"/>
<path d="M101.429 4.99438C102.668 4.99438 103.673 6.00545 103.673 7.25263C103.673 8.49988 102.668 9.51088 101.429 9.51088C100.19 9.51088 99.1848 8.49988 99.1848 7.25263C99.1848 6.00545 100.19 4.99438 101.429 4.99438Z" fill="#004236"/>
<path d="M105.917 4.99438C107.156 4.99438 108.161 6.00545 108.161 7.25263C108.161 8.49988 107.156 9.51088 105.917 9.51088C104.678 9.51088 103.673 8.49988 103.673 7.25263C103.673 6.00545 104.678 4.99438 105.917 4.99438Z" fill="#004236"/>
<path d="M43.0831 9.51086C44.3225 9.51086 45.3272 10.5219 45.3272 11.7691C45.3272 13.0164 44.3225 14.0274 43.0831 14.0274C41.8438 14.0274 40.8391 13.0164 40.8391 11.7691C40.8391 10.5219 41.8438 9.51086 43.0831 9.51086Z" fill="#004236"/>
<path d="M47.5712 9.51086C48.8107 9.51086 49.8153 10.5219 49.8153 11.7691C49.8153 13.0164 48.8107 14.0274 47.5712 14.0274C46.3319 14.0274 45.3272 13.0164 45.3272 11.7691C45.3272 10.5219 46.3319 9.51086 47.5712 9.51086Z" fill="#004236"/>
<path d="M52.0594 9.51086C53.2988 9.51086 54.3034 10.5219 54.3034 11.7691C54.3034 13.0164 53.2988 14.0274 52.0594 14.0274C50.82 14.0274 49.8153 13.0164 49.8153 11.7691C49.8153 10.5219 50.82 9.51086 52.0594 9.51086Z" fill="#004236"/>
<path d="M65.5238 9.51086C66.7632 9.51086 67.7679 10.5219 67.7679 11.7691C67.7679 13.0164 66.7632 14.0274 65.5238 14.0274C64.2844 14.0274 63.2797 13.0164 63.2797 11.7691C63.2797 10.5219 64.2844 9.51086 65.5238 9.51086Z" fill="#004236"/>
<path d="M78.9882 9.51086C80.2276 9.51086 81.2323 10.5219 81.2323 11.7691C81.2323 13.0164 80.2276 14.0274 78.9882 14.0274C77.7489 14.0274 76.7441 13.0164 76.7441 11.7691C76.7441 10.5219 77.7489 9.51086 78.9882 9.51086Z" fill="#004236"/>
<path d="M83.4763 9.51086C84.7157 9.51086 85.7204 10.5219 85.7204 11.7691C85.7204 13.0164 84.7157 14.0274 83.4763 14.0274C82.237 14.0274 81.2322 13.0164 81.2322 11.7691C81.2322 10.5219 82.237 9.51086 83.4763 9.51086Z" fill="#004236"/>
<path d="M87.9645 9.51086C89.2039 9.51086 90.2086 10.5219 90.2086 11.7691C90.2086 13.0164 89.2039 14.0274 87.9645 14.0274C86.7251 14.0274 85.7204 13.0164 85.7204 11.7691C85.7204 10.5219 86.7251 9.51086 87.9645 9.51086Z" fill="#004236"/>
<path d="M105.917 9.51086C107.156 9.51086 108.161 10.5219 108.161 11.7691C108.161 13.0164 107.156 14.0274 105.917 14.0274C104.678 14.0274 103.673 13.0164 103.673 11.7691C103.673 10.5219 104.678 9.51086 105.917 9.51086Z" fill="#004236"/>
<path d="M43.0831 14.0273C44.3225 14.0273 45.3272 15.0384 45.3272 16.2856C45.3272 17.5328 44.3225 18.5438 43.0831 18.5438C41.8438 18.5438 40.8391 17.5328 40.8391 16.2856C40.8391 15.0384 41.8438 14.0273 43.0831 14.0273Z" fill="#004236"/>
<path d="M74.5001 14.0273C75.7395 14.0273 76.7441 15.0384 76.7441 16.2856C76.7441 17.5328 75.7395 18.5438 74.5001 18.5438C73.2607 18.5438 72.256 17.5328 72.256 16.2856C72.256 15.0384 73.2607 14.0273 74.5001 14.0273Z" fill="#004236"/>
<path d="M101.429 14.0273C102.668 14.0273 103.673 15.0384 103.673 16.2856C103.673 17.5328 102.668 18.5438 101.429 18.5438C100.19 18.5438 99.1848 17.5328 99.1848 16.2856C99.1848 15.0384 100.19 14.0273 101.429 14.0273Z" fill="#004236"/>
<path d="M105.917 14.0273C107.156 14.0273 108.161 15.0384 108.161 16.2856C108.161 17.5328 107.156 18.5438 105.917 18.5438C104.678 18.5438 103.673 17.5328 103.673 16.2856C103.673 15.0384 104.678 14.0273 105.917 14.0273Z" fill="#004236"/>
<path d="M110.405 14.0273C111.645 14.0273 112.649 15.0384 112.649 16.2856C112.649 17.5328 111.645 18.5438 110.405 18.5438C109.166 18.5438 108.161 17.5328 108.161 16.2856C108.161 15.0384 109.166 14.0273 110.405 14.0273Z" fill="#004236"/>
<path d="M38.595 18.5439C39.8344 18.5439 40.839 19.555 40.839 20.8022C40.839 22.0494 39.8344 23.0604 38.595 23.0604C37.3556 23.0604 36.3509 22.0494 36.3509 20.8022C36.3509 19.555 37.3556 18.5439 38.595 18.5439Z" fill="#004236"/>
<path d="M43.0831 18.5439C44.3225 18.5439 45.3272 19.555 45.3272 20.8022C45.3272 22.0494 44.3225 23.0604 43.0831 23.0604C41.8438 23.0604 40.8391 22.0494 40.8391 20.8022C40.8391 19.555 41.8438 18.5439 43.0831 18.5439Z" fill="#004236"/>
<path d="M47.5712 18.5439C48.8107 18.5439 49.8153 19.555 49.8153 20.8022C49.8153 22.0494 48.8107 23.0604 47.5712 23.0604C46.3319 23.0604 45.3272 22.0494 45.3272 20.8022C45.3272 19.555 46.3319 18.5439 47.5712 18.5439Z" fill="#004236"/>
<path d="M56.5475 18.5439C57.7869 18.5439 58.7915 19.555 58.7915 20.8022C58.7915 22.0494 57.7869 23.0604 56.5475 23.0604C55.3081 23.0604 54.3034 22.0494 54.3034 20.8022C54.3034 19.555 55.3081 18.5439 56.5475 18.5439Z" fill="#004236"/>
<path d="M65.5238 18.5439C66.7632 18.5439 67.7679 19.555 67.7679 20.8022C67.7679 22.0494 66.7632 23.0604 65.5238 23.0604C64.2844 23.0604 63.2797 22.0494 63.2797 20.8022C63.2797 19.555 64.2844 18.5439 65.5238 18.5439Z" fill="#004236"/>
<path d="M70.0119 18.5439C71.2513 18.5439 72.256 19.555 72.256 20.8022C72.256 22.0494 71.2513 23.0604 70.0119 23.0604C68.7725 23.0604 67.7678 22.0494 67.7678 20.8022C67.7678 19.555 68.7725 18.5439 70.0119 18.5439Z" fill="#004236"/>
<path d="M74.5001 18.5439C75.7395 18.5439 76.7441 19.555 76.7441 20.8022C76.7441 22.0494 75.7395 23.0604 74.5001 23.0604C73.2607 23.0604 72.256 22.0494 72.256 20.8022C72.256 19.555 73.2607 18.5439 74.5001 18.5439Z" fill="#004236"/>
<path d="M78.9882 18.5439C80.2276 18.5439 81.2323 19.555 81.2323 20.8022C81.2323 22.0494 80.2276 23.0604 78.9882 23.0604C77.7489 23.0604 76.7441 22.0494 76.7441 20.8022C76.7441 19.555 77.7489 18.5439 78.9882 18.5439Z" fill="#004236"/>
<path d="M83.4763 18.5439C84.7157 18.5439 85.7204 19.555 85.7204 20.8022C85.7204 22.0494 84.7157 23.0604 83.4763 23.0604C82.237 23.0604 81.2322 22.0494 81.2322 20.8022C81.2322 19.555 82.237 18.5439 83.4763 18.5439Z" fill="#004236"/>
<path d="M87.9645 18.5439C89.2039 18.5439 90.2086 19.555 90.2086 20.8022C90.2086 22.0494 89.2039 23.0604 87.9645 23.0604C86.7251 23.0604 85.7204 22.0494 85.7204 20.8022C85.7204 19.555 86.7251 18.5439 87.9645 18.5439Z" fill="#004236"/>
<path d="M92.4526 18.5439C93.692 18.5439 94.6967 19.555 94.6967 20.8022C94.6967 22.0494 93.692 23.0604 92.4526 23.0604C91.2133 23.0604 90.2086 22.0494 90.2086 20.8022C90.2086 19.555 91.2133 18.5439 92.4526 18.5439Z" fill="#004236"/>
<path d="M96.9407 18.5439C98.1802 18.5439 99.1848 19.555 99.1848 20.8022C99.1848 22.0494 98.1802 23.0604 96.9407 23.0604C95.7014 23.0604 94.6967 22.0494 94.6967 20.8022C94.6967 19.555 95.7014 18.5439 96.9407 18.5439Z" fill="#004236"/>
<path d="M105.917 18.5439C107.156 18.5439 108.161 19.555 108.161 20.8022C108.161 22.0494 107.156 23.0604 105.917 23.0604C104.678 23.0604 103.673 22.0494 103.673 20.8022C103.673 19.555 104.678 18.5439 105.917 18.5439Z" fill="#004236"/>
<path d="M110.405 18.5439C111.645 18.5439 112.649 19.555 112.649 20.8022C112.649 22.0494 111.645 23.0604 110.405 23.0604C109.166 23.0604 108.161 22.0494 108.161 20.8022C108.161 19.555 109.166 18.5439 110.405 18.5439Z" fill="#004236"/>
<path d="M52.0594 23.0604C53.2988 23.0604 54.3034 24.0715 54.3034 25.3187C54.3034 26.5659 53.2988 27.5769 52.0594 27.5769C50.82 27.5769 49.8153 26.5659 49.8153 25.3187C49.8153 24.0715 50.82 23.0604 52.0594 23.0604Z" fill="#004236"/>
<path d="M56.5475 23.0604C57.7869 23.0604 58.7915 24.0715 58.7915 25.3187C58.7915 26.5659 57.7869 27.5769 56.5475 27.5769C55.3081 27.5769 54.3034 26.5659 54.3034 25.3187C54.3034 24.0715 55.3081 23.0604 56.5475 23.0604Z" fill="#004236"/>
<path d="M70.0119 23.0604C71.2513 23.0604 72.256 24.0715 72.256 25.3187C72.256 26.5659 71.2513 27.5769 70.0119 27.5769C68.7725 27.5769 67.7678 26.5659 67.7678 25.3187C67.7678 24.0715 68.7725 23.0604 70.0119 23.0604Z" fill="#004236"/>
<path d="M96.9407 23.0604C98.1802 23.0604 99.1848 24.0715 99.1848 25.3187C99.1848 26.5659 98.1802 27.5769 96.9407 27.5769C95.7014 27.5769 94.6967 26.5659 94.6967 25.3187C94.6967 24.0715 95.7014 23.0604 96.9407 23.0604Z" fill="#004236"/>
<path d="M105.917 23.0604C107.156 23.0604 108.161 24.0715 108.161 25.3187C108.161 26.5659 107.156 27.5769 105.917 27.5769C104.678 27.5769 103.673 26.5659 103.673 25.3187C103.673 24.0715 104.678 23.0604 105.917 23.0604Z" fill="#004236"/>
<path d="M38.595 27.5769C39.8344 27.5769 40.839 28.588 40.839 29.8352C40.839 31.0824 39.8344 32.0934 38.595 32.0934C37.3556 32.0934 36.3509 31.0824 36.3509 29.8352C36.3509 28.588 37.3556 27.5769 38.595 27.5769Z" fill="#004236"/>
<path d="M47.5712 27.5769C48.8107 27.5769 49.8153 28.588 49.8153 29.8352C49.8153 31.0824 48.8107 32.0934 47.5712 32.0934C46.3319 32.0934 45.3272 31.0824 45.3272 29.8352C45.3272 28.588 46.3319 27.5769 47.5712 27.5769Z" fill="#004236"/>
<path d="M56.5475 27.5769C57.7869 27.5769 58.7915 28.588 58.7915 29.8352C58.7915 31.0824 57.7869 32.0934 56.5475 32.0934C55.3081 32.0934 54.3034 31.0824 54.3034 29.8352C54.3034 28.588 55.3081 27.5769 56.5475 27.5769Z" fill="#004236"/>
<path d="M65.5238 27.5769C66.7632 27.5769 67.7679 28.588 67.7679 29.8352C67.7679 31.0824 66.7632 32.0934 65.5238 32.0934C64.2844 32.0934 63.2797 31.0824 63.2797 29.8352C63.2797 28.588 64.2844 27.5769 65.5238 27.5769Z" fill="#004236"/>
<path d="M74.5001 27.5769C75.7395 27.5769 76.7441 28.588 76.7441 29.8352C76.7441 31.0824 75.7395 32.0934 74.5001 32.0934C73.2607 32.0934 72.256 31.0824 72.256 29.8352C72.256 28.588 73.2607 27.5769 74.5001 27.5769Z" fill="#004236"/>
<path d="M83.4763 27.5769C84.7157 27.5769 85.7204 28.588 85.7204 29.8352C85.7204 31.0824 84.7157 32.0934 83.4763 32.0934C82.237 32.0934 81.2322 31.0824 81.2322 29.8352C81.2322 28.588 82.237 27.5769 83.4763 27.5769Z" fill="#004236"/>
<path d="M92.4526 27.5769C93.692 27.5769 94.6967 28.588 94.6967 29.8352C94.6967 31.0824 93.692 32.0934 92.4526 32.0934C91.2133 32.0934 90.2086 31.0824 90.2086 29.8352C90.2086 28.588 91.2133 27.5769 92.4526 27.5769Z" fill="#004236"/>
<path d="M101.429 27.5769C102.668 27.5769 103.673 28.588 103.673 29.8352C103.673 31.0824 102.668 32.0934 101.429 32.0934C100.19 32.0934 99.1848 31.0824 99.1848 29.8352C99.1848 28.588 100.19 27.5769 101.429 27.5769Z" fill="#004236"/>
<path d="M110.405 27.5769C111.645 27.5769 112.649 28.588 112.649 29.8352C112.649 31.0824 111.645 32.0934 110.405 32.0934C109.166 32.0934 108.161 31.0824 108.161 29.8352C108.161 28.588 109.166 27.5769 110.405 27.5769Z" fill="#004236"/>
<path d="M38.595 32.0934C39.8344 32.0934 40.839 33.1044 40.839 34.3516C40.839 35.5989 39.8344 36.6099 38.595 36.6099C37.3556 36.6099 36.3509 35.5989 36.3509 34.3516C36.3509 33.1044 37.3556 32.0934 38.595 32.0934Z" fill="#004236"/>
<path d="M43.0831 32.0934C44.3225 32.0934 45.3272 33.1044 45.3272 34.3516C45.3272 35.5989 44.3225 36.6099 43.0831 36.6099C41.8438 36.6099 40.8391 35.5989 40.8391 34.3516C40.8391 33.1044 41.8438 32.0934 43.0831 32.0934Z" fill="#004236"/>
<path d="M52.0594 32.0934C53.2988 32.0934 54.3034 33.1044 54.3034 34.3516C54.3034 35.5989 53.2988 36.6099 52.0594 36.6099C50.82 36.6099 49.8153 35.5989 49.8153 34.3516C49.8153 33.1044 50.82 32.0934 52.0594 32.0934Z" fill="#004236"/>
<path d="M61.0356 32.0934C62.2751 32.0934 63.2797 33.1044 63.2797 34.3516C63.2797 35.5989 62.2751 36.6099 61.0356 36.6099C59.7963 36.6099 58.7916 35.5989 58.7916 34.3516C58.7916 33.1044 59.7963 32.0934 61.0356 32.0934Z" fill="#004236"/>
<path d="M65.5238 32.0934C66.7632 32.0934 67.7679 33.1044 67.7679 34.3516C67.7679 35.5989 66.7632 36.6099 65.5238 36.6099C64.2844 36.6099 63.2797 35.5989 63.2797 34.3516C63.2797 33.1044 64.2844 32.0934 65.5238 32.0934Z" fill="#004236"/>
<path d="M70.0119 32.0934C71.2513 32.0934 72.256 33.1044 72.256 34.3516C72.256 35.5989 71.2513 36.6099 70.0119 36.6099C68.7725 36.6099 67.7678 35.5989 67.7678 34.3516C67.7678 33.1044 68.7725 32.0934 70.0119 32.0934Z" fill="#004236"/>
<path d="M74.5001 32.0934C75.7395 32.0934 76.7441 33.1044 76.7441 34.3516C76.7441 35.5989 75.7395 36.6099 74.5001 36.6099C73.2607 36.6099 72.256 35.5989 72.256 34.3516C72.256 33.1044 73.2607 32.0934 74.5001 32.0934Z" fill="#004236"/>
<path d="M110.405 32.0934C111.645 32.0934 112.649 33.1044 112.649 34.3516C112.649 35.5989 111.645 36.6099 110.405 36.6099C109.166 36.6099 108.161 35.5989 108.161 34.3516C108.161 33.1044 109.166 32.0934 110.405 32.0934Z" fill="#004236"/>
<path d="M11.6661 36.6099C12.9055 36.6099 13.9102 37.6209 13.9102 38.8681C13.9102 40.1154 12.9055 41.1264 11.6661 41.1264C10.4268 41.1264 9.42206 40.1154 9.42206 38.8681C9.42206 37.6209 10.4268 36.6099 11.6661 36.6099Z" fill="#004236"/>
<path d="M16.1543 36.6099C17.3937 36.6099 18.3984 37.6209 18.3984 38.8681C18.3984 40.1154 17.3937 41.1264 16.1543 41.1264C14.9149 41.1264 13.9102 40.1154 13.9102 38.8681C13.9102 37.6209 14.9149 36.6099 16.1543 36.6099Z" fill="#004236"/>
<path d="M29.6187 36.6099C30.8581 36.6099 31.8628 37.6209 31.8628 38.8681C31.8628 40.1154 30.8581 41.1264 29.6187 41.1264C28.3793 41.1264 27.3746 40.1154 27.3746 38.8681C27.3746 37.6209 28.3793 36.6099 29.6187 36.6099Z" fill="#004236"/>
<path d="M34.1068 36.6099C35.3462 36.6099 36.3509 37.6209 36.3509 38.8681C36.3509 40.1154 35.3462 41.1264 34.1068 41.1264C32.8674 41.1264 31.8627 40.1154 31.8627 38.8681C31.8627 37.6209 32.8674 36.6099 34.1068 36.6099Z" fill="#004236"/>
<path d="M38.595 36.6099C39.8344 36.6099 40.839 37.6209 40.839 38.8681C40.839 40.1154 39.8344 41.1264 38.595 41.1264C37.3556 41.1264 36.3509 40.1154 36.3509 38.8681C36.3509 37.6209 37.3556 36.6099 38.595 36.6099Z" fill="#004236"/>
<path d="M43.0831 36.6099C44.3225 36.6099 45.3272 37.6209 45.3272 38.8681C45.3272 40.1154 44.3225 41.1264 43.0831 41.1264C41.8438 41.1264 40.8391 40.1154 40.8391 38.8681C40.8391 37.6209 41.8438 36.6099 43.0831 36.6099Z" fill="#004236"/>
<path d="M52.0594 36.6099C53.2988 36.6099 54.3034 37.6209 54.3034 38.8681C54.3034 40.1154 53.2988 41.1264 52.0594 41.1264C50.82 41.1264 49.8153 40.1154 49.8153 38.8681C49.8153 37.6209 50.82 36.6099 52.0594 36.6099Z" fill="#004236"/>
<path d="M61.0356 36.6099C62.2751 36.6099 63.2797 37.6209 63.2797 38.8681C63.2797 40.1154 62.2751 41.1264 61.0356 41.1264C59.7963 41.1264 58.7916 40.1154 58.7916 38.8681C58.7916 37.6209 59.7963 36.6099 61.0356 36.6099Z" fill="#004236"/>
<path d="M65.5238 36.6099C66.7632 36.6099 67.7679 37.6209 67.7679 38.8681C67.7679 40.1154 66.7632 41.1264 65.5238 41.1264C64.2844 41.1264 63.2797 40.1154 63.2797 38.8681C63.2797 37.6209 64.2844 36.6099 65.5238 36.6099Z" fill="#004236"/>
<path d="M70.0119 36.6099C71.2513 36.6099 72.256 37.6209 72.256 38.8681C72.256 40.1154 71.2513 41.1264 70.0119 41.1264C68.7725 41.1264 67.7678 40.1154 67.7678 38.8681C67.7678 37.6209 68.7725 36.6099 70.0119 36.6099Z" fill="#004236"/>
<path d="M74.5001 36.6099C75.7395 36.6099 76.7441 37.6209 76.7441 38.8681C76.7441 40.1154 75.7395 41.1264 74.5001 41.1264C73.2607 41.1264 72.256 40.1154 72.256 38.8681C72.256 37.6209 73.2607 36.6099 74.5001 36.6099Z" fill="#004236"/>
<path d="M78.9882 36.6099C80.2276 36.6099 81.2323 37.6209 81.2323 38.8681C81.2323 40.1154 80.2276 41.1264 78.9882 41.1264C77.7489 41.1264 76.7441 40.1154 76.7441 38.8681C76.7441 37.6209 77.7489 36.6099 78.9882 36.6099Z" fill="#004236"/>
<path d="M92.4526 36.6099C93.692 36.6099 94.6967 37.6209 94.6967 38.8681C94.6967 40.1154 93.692 41.1264 92.4526 41.1264C91.2133 41.1264 90.2086 40.1154 90.2086 38.8681C90.2086 37.6209 91.2133 36.6099 92.4526 36.6099Z" fill="#004236"/>
<path d="M96.9407 36.6099C98.1802 36.6099 99.1848 37.6209 99.1848 38.8681C99.1848 40.1154 98.1802 41.1264 96.9407 41.1264C95.7014 41.1264 94.6967 40.1154 94.6967 38.8681C94.6967 37.6209 95.7014 36.6099 96.9407 36.6099Z" fill="#004236"/>
<path d="M105.917 36.6099C107.156 36.6099 108.161 37.6209 108.161 38.8681C108.161 40.1154 107.156 41.1264 105.917 41.1264C104.678 41.1264 103.673 40.1154 103.673 38.8681C103.673 37.6209 104.678 36.6099 105.917 36.6099Z" fill="#004236"/>
<path d="M114.893 36.6099C116.133 36.6099 117.137 37.6209 117.137 38.8681C117.137 40.1154 116.133 41.1264 114.893 41.1264C113.654 41.1264 112.649 40.1154 112.649 38.8681C112.649 37.6209 113.654 36.6099 114.893 36.6099Z" fill="#004236"/>
<path d="M119.381 36.6099C120.621 36.6099 121.626 37.6209 121.626 38.8681C121.626 40.1154 120.621 41.1264 119.381 41.1264C118.142 41.1264 117.137 40.1154 117.137 38.8681C117.137 37.6209 118.142 36.6099 119.381 36.6099Z" fill="#004236"/>
<path d="M128.358 36.6099C129.597 36.6099 130.602 37.6209 130.602 38.8681C130.602 40.1154 129.597 41.1264 128.358 41.1264C127.118 41.1264 126.114 40.1154 126.114 38.8681C126.114 37.6209 127.118 36.6099 128.358 36.6099Z" fill="#004236"/>
<path d="M7.17803 41.1263C8.41744 41.1263 9.42209 42.1374 9.42209 43.3846C9.42209 44.6319 8.41744 45.6429 7.17803 45.6429C5.93867 45.6429 4.93396 44.6319 4.93396 43.3846C4.93396 42.1374 5.93867 41.1263 7.17803 41.1263Z" fill="#004236"/>
<path d="M11.6661 41.1263C12.9055 41.1263 13.9102 42.1374 13.9102 43.3846C13.9102 44.6319 12.9055 45.6429 11.6661 45.6429C10.4268 45.6429 9.42206 44.6319 9.42206 43.3846C9.42206 42.1374 10.4268 41.1263 11.6661 41.1263Z" fill="#004236"/>
<path d="M20.6424 41.1263C21.8818 41.1263 22.8865 42.1374 22.8865 43.3846C22.8865 44.6319 21.8818 45.6429 20.6424 45.6429C19.4031 45.6429 18.3983 44.6319 18.3983 43.3846C18.3983 42.1374 19.4031 41.1263 20.6424 41.1263Z" fill="#004236"/>
<path d="M25.1305 41.1263C26.37 41.1263 27.3746 42.1374 27.3746 43.3846C27.3746 44.6319 26.37 45.6429 25.1305 45.6429C23.8912 45.6429 22.8865 44.6319 22.8865 43.3846C22.8865 42.1374 23.8912 41.1263 25.1305 41.1263Z" fill="#004236"/>
<path d="M56.5475 41.1263C57.7869 41.1263 58.7915 42.1374 58.7915 43.3846C58.7915 44.6319 57.7869 45.6429 56.5475 45.6429C55.3081 45.6429 54.3034 44.6319 54.3034 43.3846C54.3034 42.1374 55.3081 41.1263 56.5475 41.1263Z" fill="#004236"/>
<path d="M83.4763 41.1263C84.7157 41.1263 85.7204 42.1374 85.7204 43.3846C85.7204 44.6319 84.7157 45.6429 83.4763 45.6429C82.237 45.6429 81.2322 44.6319 81.2322 43.3846C81.2322 42.1374 82.237 41.1263 83.4763 41.1263Z" fill="#004236"/>
<path d="M87.9645 41.1263C89.2039 41.1263 90.2086 42.1374 90.2086 43.3846C90.2086 44.6319 89.2039 45.6429 87.9645 45.6429C86.7251 45.6429 85.7204 44.6319 85.7204 43.3846C85.7204 42.1374 86.7251 41.1263 87.9645 41.1263Z" fill="#004236"/>
<path d="M92.4526 41.1263C93.692 41.1263 94.6967 42.1374 94.6967 43.3846C94.6967 44.6319 93.692 45.6429 92.4526 45.6429C91.2133 45.6429 90.2086 44.6319 90.2086 43.3846C90.2086 42.1374 91.2133 41.1263 92.4526 41.1263Z" fill="#004236"/>
<path d="M96.9407 41.1263C98.1802 41.1263 99.1848 42.1374 99.1848 43.3846C99.1848 44.6319 98.1802 45.6429 96.9407 45.6429C95.7014 45.6429 94.6967 44.6319 94.6967 43.3846C94.6967 42.1374 95.7014 41.1263 96.9407 41.1263Z" fill="#004236"/>
<path d="M101.429 41.1263C102.668 41.1263 103.673 42.1374 103.673 43.3846C103.673 44.6319 102.668 45.6429 101.429 45.6429C100.19 45.6429 99.1848 44.6319 99.1848 43.3846C99.1848 42.1374 100.19 41.1263 101.429 41.1263Z" fill="#004236"/>
<path d="M105.917 41.1263C107.156 41.1263 108.161 42.1374 108.161 43.3846C108.161 44.6319 107.156 45.6429 105.917 45.6429C104.678 45.6429 103.673 44.6319 103.673 43.3846C103.673 42.1374 104.678 41.1263 105.917 41.1263Z" fill="#004236"/>
<path d="M110.405 41.1263C111.645 41.1263 112.649 42.1374 112.649 43.3846C112.649 44.6319 111.645 45.6429 110.405 45.6429C109.166 45.6429 108.161 44.6319 108.161 43.3846C108.161 42.1374 109.166 41.1263 110.405 41.1263Z" fill="#004236"/>
<path d="M114.893 41.1263C116.133 41.1263 117.137 42.1374 117.137 43.3846C117.137 44.6319 116.133 45.6429 114.893 45.6429C113.654 45.6429 112.649 44.6319 112.649 43.3846C112.649 42.1374 113.654 41.1263 114.893 41.1263Z" fill="#004236"/>
<path d="M119.381 41.1263C120.621 41.1263 121.626 42.1374 121.626 43.3846C121.626 44.6319 120.621 45.6429 119.381 45.6429C118.142 45.6429 117.137 44.6319 117.137 43.3846C117.137 42.1374 118.142 41.1263 119.381 41.1263Z" fill="#004236"/>
<path d="M132.846 41.1263C134.085 41.1263 135.09 42.1374 135.09 43.3846C135.09 44.6319 134.085 45.6429 132.846 45.6429C131.606 45.6429 130.602 44.6319 130.602 43.3846C130.602 42.1374 131.606 41.1263 132.846 41.1263Z" fill="#004236"/>
<path d="M137.334 41.1263C138.573 41.1263 139.578 42.1374 139.578 43.3846C139.578 44.6319 138.573 45.6429 137.334 45.6429C136.095 45.6429 135.09 44.6319 135.09 43.3846C135.09 42.1374 136.095 41.1263 137.334 41.1263Z" fill="#004236"/>
<path d="M141.822 41.1263C143.061 41.1263 144.066 42.1374 144.066 43.3846C144.066 44.6319 143.061 45.6429 141.822 45.6429C140.583 45.6429 139.578 44.6319 139.578 43.3846C139.578 42.1374 140.583 41.1263 141.822 41.1263Z" fill="#004236"/>
<path d="M146.31 41.1263C147.55 41.1263 148.554 42.1374 148.554 43.3846C148.554 44.6319 147.55 45.6429 146.31 45.6429C145.071 45.6429 144.066 44.6319 144.066 43.3846C144.066 42.1374 145.071 41.1263 146.31 41.1263Z" fill="#004236"/>
<path d="M7.17803 45.6428C8.41744 45.6428 9.42209 46.6539 9.42209 47.9011C9.42209 49.1483 8.41744 50.1593 7.17803 50.1593C5.93867 50.1593 4.93396 49.1483 4.93396 47.9011C4.93396 46.6539 5.93867 45.6428 7.17803 45.6428Z" fill="#004236"/>
<path d="M20.6424 45.6428C21.8818 45.6428 22.8865 46.6539 22.8865 47.9011C22.8865 49.1483 21.8818 50.1593 20.6424 50.1593C19.4031 50.1593 18.3983 49.1483 18.3983 47.9011C18.3983 46.6539 19.4031 45.6428 20.6424 45.6428Z" fill="#004236"/>
<path d="M29.6187 45.6428C30.8581 45.6428 31.8628 46.6539 31.8628 47.9011C31.8628 49.1483 30.8581 50.1593 29.6187 50.1593C28.3793 50.1593 27.3746 49.1483 27.3746 47.9011C27.3746 46.6539 28.3793 45.6428 29.6187 45.6428Z" fill="#004236"/>
<path d="M38.595 45.6428C39.8344 45.6428 40.839 46.6539 40.839 47.9011C40.839 49.1483 39.8344 50.1593 38.595 50.1593C37.3556 50.1593 36.3509 49.1483 36.3509 47.9011C36.3509 46.6539 37.3556 45.6428 38.595 45.6428Z" fill="#004236"/>
<path d="M47.5712 45.6428C48.8107 45.6428 49.8153 46.6539 49.8153 47.9011C49.8153 49.1483 48.8107 50.1593 47.5712 50.1593C46.3319 50.1593 45.3272 49.1483 45.3272 47.9011C45.3272 46.6539 46.3319 45.6428 47.5712 45.6428Z" fill="#004236"/>
<path d="M74.5001 45.6428C75.7395 45.6428 76.7441 46.6539 76.7441 47.9011C76.7441 49.1483 75.7395 50.1593 74.5001 50.1593C73.2607 50.1593 72.256 49.1483 72.256 47.9011C72.256 46.6539 73.2607 45.6428 74.5001 45.6428Z" fill="#004236"/>
<path d="M78.9882 45.6428C80.2276 45.6428 81.2323 46.6539 81.2323 47.9011C81.2323 49.1483 80.2276 50.1593 78.9882 50.1593C77.7489 50.1593 76.7441 49.1483 76.7441 47.9011C76.7441 46.6539 77.7489 45.6428 78.9882 45.6428Z" fill="#004236"/>
<path d="M83.4763 45.6428C84.7157 45.6428 85.7204 46.6539 85.7204 47.9011C85.7204 49.1483 84.7157 50.1593 83.4763 50.1593C82.237 50.1593 81.2322 49.1483 81.2322 47.9011C81.2322 46.6539 82.237 45.6428 83.4763 45.6428Z" fill="#004236"/>
<path d="M92.4526 45.6428C93.692 45.6428 94.6967 46.6539 94.6967 47.9011C94.6967 49.1483 93.692 50.1593 92.4526 50.1593C91.2133 50.1593 90.2086 49.1483 90.2086 47.9011C90.2086 46.6539 91.2133 45.6428 92.4526 45.6428Z" fill="#004236"/>
<path d="M105.917 45.6428C107.156 45.6428 108.161 46.6539 108.161 47.9011C108.161 49.1483 107.156 50.1593 105.917 50.1593C104.678 50.1593 103.673 49.1483 103.673 47.9011C103.673 46.6539 104.678 45.6428 105.917 45.6428Z" fill="#004236"/>
<path d="M114.893 45.6428C116.133 45.6428 117.137 46.6539 117.137 47.9011C117.137 49.1483 116.133 50.1593 114.893 50.1593C113.654 50.1593 112.649 49.1483 112.649 47.9011C112.649 46.6539 113.654 45.6428 114.893 45.6428Z" fill="#004236"/>
<path d="M132.846 45.6428C134.085 45.6428 135.09 46.6539 135.09 47.9011C135.09 49.1483 134.085 50.1593 132.846 50.1593C131.606 50.1593 130.602 49.1483 130.602 47.9011C130.602 46.6539 131.606 45.6428 132.846 45.6428Z" fill="#004236"/>
<path d="M141.822 45.6428C143.061 45.6428 144.066 46.6539 144.066 47.9011C144.066 49.1483 143.061 50.1593 141.822 50.1593C140.583 50.1593 139.578 49.1483 139.578 47.9011C139.578 46.6539 140.583 45.6428 141.822 45.6428Z" fill="#004236"/>
<path d="M146.31 45.6428C147.55 45.6428 148.554 46.6539 148.554 47.9011C148.554 49.1483 147.55 50.1593 146.31 50.1593C145.071 50.1593 144.066 49.1483 144.066 47.9011C144.066 46.6539 145.071 45.6428 146.31 45.6428Z" fill="#004236"/>
<path d="M11.6661 50.1593C12.9055 50.1593 13.9102 51.1704 13.9102 52.4176C13.9102 53.6648 12.9055 54.6758 11.6661 54.6758C10.4268 54.6758 9.42206 53.6648 9.42206 52.4176C9.42206 51.1704 10.4268 50.1593 11.6661 50.1593Z" fill="#004236"/>
<path d="M16.1543 50.1593C17.3937 50.1593 18.3984 51.1704 18.3984 52.4176C18.3984 53.6648 17.3937 54.6758 16.1543 54.6758C14.9149 54.6758 13.9102 53.6648 13.9102 52.4176C13.9102 51.1704 14.9149 50.1593 16.1543 50.1593Z" fill="#004236"/>
<path d="M34.1068 50.1593C35.3462 50.1593 36.3509 51.1704 36.3509 52.4176C36.3509 53.6648 35.3462 54.6758 34.1068 54.6758C32.8674 54.6758 31.8627 53.6648 31.8627 52.4176C31.8627 51.1704 32.8674 50.1593 34.1068 50.1593Z" fill="#004236"/>
<path d="M43.0831 50.1593C44.3225 50.1593 45.3272 51.1704 45.3272 52.4176C45.3272 53.6648 44.3225 54.6758 43.0831 54.6758C41.8438 54.6758 40.8391 53.6648 40.8391 52.4176C40.8391 51.1704 41.8438 50.1593 43.0831 50.1593Z" fill="#004236"/>
<path d="M114.893 50.1593C116.133 50.1593 117.137 51.1704 117.137 52.4176C117.137 53.6648 116.133 54.6758 114.893 54.6758C113.654 54.6758 112.649 53.6648 112.649 52.4176C112.649 51.1704 113.654 50.1593 114.893 50.1593Z" fill="#004236"/>
<path d="M119.381 50.1593C120.621 50.1593 121.626 51.1704 121.626 52.4176C121.626 53.6648 120.621 54.6758 119.381 54.6758C118.142 54.6758 117.137 53.6648 117.137 52.4176C117.137 51.1704 118.142 50.1593 119.381 50.1593Z" fill="#004236"/>
<path d="M123.87 50.1593C125.109 50.1593 126.114 51.1704 126.114 52.4176C126.114 53.6648 125.109 54.6758 123.87 54.6758C122.63 54.6758 121.625 53.6648 121.625 52.4176C121.625 51.1704 122.63 50.1593 123.87 50.1593Z" fill="#004236"/>
<path d="M128.358 50.1593C129.597 50.1593 130.602 51.1704 130.602 52.4176C130.602 53.6648 129.597 54.6758 128.358 54.6758C127.118 54.6758 126.114 53.6648 126.114 52.4176C126.114 51.1704 127.118 50.1593 128.358 50.1593Z" fill="#004236"/>
<path d="M132.846 50.1593C134.085 50.1593 135.09 51.1704 135.09 52.4176C135.09 53.6648 134.085 54.6758 132.846 54.6758C131.606 54.6758 130.602 53.6648 130.602 52.4176C130.602 51.1704 131.606 50.1593 132.846 50.1593Z" fill="#004236"/>
<path d="M146.31 50.1593C147.55 50.1593 148.554 51.1704 148.554 52.4176C148.554 53.6648 147.55 54.6758 146.31 54.6758C145.071 54.6758 144.066 53.6648 144.066 52.4176C144.066 51.1704 145.071 50.1593 146.31 50.1593Z" fill="#004236"/>
<path d="M2.68987 54.6758C3.92929 54.6758 4.93394 55.6868 4.93394 56.934C4.93394 58.1813 3.92929 59.1923 2.68987 59.1923C1.45052 59.1923 0.445801 58.1813 0.445801 56.934C0.445801 55.6868 1.45052 54.6758 2.68987 54.6758Z" fill="#004236"/>
<path d="M11.6661 54.6758C12.9055 54.6758 13.9102 55.6868 13.9102 56.934C13.9102 58.1813 12.9055 59.1923 11.6661 59.1923C10.4268 59.1923 9.42206 58.1813 9.42206 56.934C9.42206 55.6868 10.4268 54.6758 11.6661 54.6758Z" fill="#004236"/>
<path d="M29.6187 54.6758C30.8581 54.6758 31.8628 55.6868 31.8628 56.934C31.8628 58.1813 30.8581 59.1923 29.6187 59.1923C28.3793 59.1923 27.3746 58.1813 27.3746 56.934C27.3746 55.6868 28.3793 54.6758 29.6187 54.6758Z" fill="#004236"/>
<path d="M34.1068 54.6758C35.3462 54.6758 36.3509 55.6868 36.3509 56.934C36.3509 58.1813 35.3462 59.1923 34.1068 59.1923C32.8674 59.1923 31.8627 58.1813 31.8627 56.934C31.8627 55.6868 32.8674 54.6758 34.1068 54.6758Z" fill="#004236"/>
<path d="M43.0831 54.6758C44.3225 54.6758 45.3272 55.6868 45.3272 56.934C45.3272 58.1813 44.3225 59.1923 43.0831 59.1923C41.8438 59.1923 40.8391 58.1813 40.8391 56.934C40.8391 55.6868 41.8438 54.6758 43.0831 54.6758Z" fill="#004236"/>
<path d="M47.5712 54.6758C48.8107 54.6758 49.8153 55.6868 49.8153 56.934C49.8153 58.1813 48.8107 59.1923 47.5712 59.1923C46.3319 59.1923 45.3272 58.1813 45.3272 56.934C45.3272 55.6868 46.3319 54.6758 47.5712 54.6758Z" fill="#004236"/>
<path d="M110.405 54.6758C111.645 54.6758 112.649 55.6868 112.649 56.934C112.649 58.1813 111.645 59.1923 110.405 59.1923C109.166 59.1923 108.161 58.1813 108.161 56.934C108.161 55.6868 109.166 54.6758 110.405 54.6758Z" fill="#004236"/>
<path d="M114.893 54.6758C116.133 54.6758 117.137 55.6868 117.137 56.934C117.137 58.1813 116.133 59.1923 114.893 59.1923C113.654 59.1923 112.649 58.1813 112.649 56.934C112.649 55.6868 113.654 54.6758 114.893 54.6758Z" fill="#004236"/>
<path d="M132.846 54.6758C134.085 54.6758 135.09 55.6868 135.09 56.934C135.09 58.1813 134.085 59.1923 132.846 59.1923C131.606 59.1923 130.602 58.1813 130.602 56.934C130.602 55.6868 131.606 54.6758 132.846 54.6758Z" fill="#004236"/>
<path d="M141.822 54.6758C143.061 54.6758 144.066 55.6868 144.066 56.934C144.066 58.1813 143.061 59.1923 141.822 59.1923C140.583 59.1923 139.578 58.1813 139.578 56.934C139.578 55.6868 140.583 54.6758 141.822 54.6758Z" fill="#004236"/>
<path d="M2.68987 59.1923C3.92929 59.1923 4.93394 60.2033 4.93394 61.4505C4.93394 62.6978 3.92929 63.7088 2.68987 63.7088C1.45052 63.7088 0.445801 62.6978 0.445801 61.4505C0.445801 60.2033 1.45052 59.1923 2.68987 59.1923Z" fill="#004236"/>
<path d="M7.17803 59.1923C8.41744 59.1923 9.42209 60.2033 9.42209 61.4505C9.42209 62.6978 8.41744 63.7088 7.17803 63.7088C5.93867 63.7088 4.93396 62.6978 4.93396 61.4505C4.93396 60.2033 5.93867 59.1923 7.17803 59.1923Z" fill="#004236"/>
<path d="M16.1543 59.1923C17.3937 59.1923 18.3984 60.2033 18.3984 61.4505C18.3984 62.6978 17.3937 63.7088 16.1543 63.7088C14.9149 63.7088 13.9102 62.6978 13.9102 61.4505C13.9102 60.2033 14.9149 59.1923 16.1543 59.1923Z" fill="#004236"/>
<path d="M25.1305 59.1923C26.37 59.1923 27.3746 60.2033 27.3746 61.4505C27.3746 62.6978 26.37 63.7088 25.1305 63.7088C23.8912 63.7088 22.8865 62.6978 22.8865 61.4505C22.8865 60.2033 23.8912 59.1923 25.1305 59.1923Z" fill="#004236"/>
<path d="M43.0831 59.1923C44.3225 59.1923 45.3272 60.2033 45.3272 61.4505C45.3272 62.6978 44.3225 63.7088 43.0831 63.7088C41.8438 63.7088 40.8391 62.6978 40.8391 61.4505C40.8391 60.2033 41.8438 59.1923 43.0831 59.1923Z" fill="#004236"/>
<path d="M101.429 59.1923C102.668 59.1923 103.673 60.2033 103.673 61.4505C103.673 62.6978 102.668 63.7088 101.429 63.7088C100.19 63.7088 99.1848 62.6978 99.1848 61.4505C99.1848 60.2033 100.19 59.1923 101.429 59.1923Z" fill="#004236"/>
<path d="M110.405 59.1923C111.645 59.1923 112.649 60.2033 112.649 61.4505C112.649 62.6978 111.645 63.7088 110.405 63.7088C109.166 63.7088 108.161 62.6978 108.161 61.4505C108.161 60.2033 109.166 59.1923 110.405 59.1923Z" fill="#004236"/>
<path d="M114.893 59.1923C116.133 59.1923 117.137 60.2033 117.137 61.4505C117.137 62.6978 116.133 63.7088 114.893 63.7088C113.654 63.7088 112.649 62.6978 112.649 61.4505C112.649 60.2033 113.654 59.1923 114.893 59.1923Z" fill="#004236"/>
<path d="M137.334 59.1923C138.573 59.1923 139.578 60.2033 139.578 61.4505C139.578 62.6978 138.573 63.7088 137.334 63.7088C136.095 63.7088 135.09 62.6978 135.09 61.4505C135.09 60.2033 136.095 59.1923 137.334 59.1923Z" fill="#004236"/>
<path d="M2.68987 63.7089C3.92929 63.7089 4.93394 64.7199 4.93394 65.9671C4.93394 67.2144 3.92929 68.2253 2.68987 68.2253C1.45052 68.2253 0.445801 67.2144 0.445801 65.9671C0.445801 64.7199 1.45052 63.7089 2.68987 63.7089Z" fill="#004236"/>
<path d="M11.6661 63.7089C12.9055 63.7089 13.9102 64.7199 13.9102 65.9671C13.9102 67.2144 12.9055 68.2253 11.6661 68.2253C10.4268 68.2253 9.42206 67.2144 9.42206 65.9671C9.42206 64.7199 10.4268 63.7089 11.6661 63.7089Z" fill="#004236"/>
<path d="M16.1543 63.7089C17.3937 63.7089 18.3984 64.7199 18.3984 65.9671C18.3984 67.2144 17.3937 68.2253 16.1543 68.2253C14.9149 68.2253 13.9102 67.2144 13.9102 65.9671C13.9102 64.7199 14.9149 63.7089 16.1543 63.7089Z" fill="#004236"/>
<path d="M29.6187 63.7089C30.8581 63.7089 31.8628 64.7199 31.8628 65.9671C31.8628 67.2144 30.8581 68.2253 29.6187 68.2253C28.3793 68.2253 27.3746 67.2144 27.3746 65.9671C27.3746 64.7199 28.3793 63.7089 29.6187 63.7089Z" fill="#004236"/>
<path d="M34.1068 63.7089C35.3462 63.7089 36.3509 64.7199 36.3509 65.9671C36.3509 67.2144 35.3462 68.2253 34.1068 68.2253C32.8674 68.2253 31.8627 67.2144 31.8627 65.9671C31.8627 64.7199 32.8674 63.7089 34.1068 63.7089Z" fill="#004236"/>
<path d="M38.595 63.7089C39.8344 63.7089 40.839 64.7199 40.839 65.9671C40.839 67.2144 39.8344 68.2253 38.595 68.2253C37.3556 68.2253 36.3509 67.2144 36.3509 65.9671C36.3509 64.7199 37.3556 63.7089 38.595 63.7089Z" fill="#004236"/>
<path d="M43.0831 63.7089C44.3225 63.7089 45.3272 64.7199 45.3272 65.9671C45.3272 67.2144 44.3225 68.2253 43.0831 68.2253C41.8438 68.2253 40.8391 67.2144 40.8391 65.9671C40.8391 64.7199 41.8438 63.7089 43.0831 63.7089Z" fill="#004236"/>
<path d="M47.5712 63.7089C48.8107 63.7089 49.8153 64.7199 49.8153 65.9671C49.8153 67.2144 48.8107 68.2253 47.5712 68.2253C46.3319 68.2253 45.3272 67.2144 45.3272 65.9671C45.3272 64.7199 46.3319 63.7089 47.5712 63.7089Z" fill="#004236"/>
<path d="M114.893 63.7089C116.133 63.7089 117.137 64.7199 117.137 65.9671C117.137 67.2144 116.133 68.2253 114.893 68.2253C113.654 68.2253 112.649 67.2144 112.649 65.9671C112.649 64.7199 113.654 63.7089 114.893 63.7089Z" fill="#004236"/>
<path d="M119.381 63.7089C120.621 63.7089 121.626 64.7199 121.626 65.9671C121.626 67.2144 120.621 68.2253 119.381 68.2253C118.142 68.2253 117.137 67.2144 117.137 65.9671C117.137 64.7199 118.142 63.7089 119.381 63.7089Z" fill="#004236"/>
<path d="M123.87 63.7089C125.109 63.7089 126.114 64.7199 126.114 65.9671C126.114 67.2144 125.109 68.2253 123.87 68.2253C122.63 68.2253 121.625 67.2144 121.625 65.9671C121.625 64.7199 122.63 63.7089 123.87 63.7089Z" fill="#004236"/>
<path d="M128.358 63.7089C129.597 63.7089 130.602 64.7199 130.602 65.9671C130.602 67.2144 129.597 68.2253 128.358 68.2253C127.118 68.2253 126.114 67.2144 126.114 65.9671C126.114 64.7199 127.118 63.7089 128.358 63.7089Z" fill="#004236"/>
<path d="M132.846 63.7089C134.085 63.7089 135.09 64.7199 135.09 65.9671C135.09 67.2144 134.085 68.2253 132.846 68.2253C131.606 68.2253 130.602 67.2144 130.602 65.9671C130.602 64.7199 131.606 63.7089 132.846 63.7089Z" fill="#004236"/>
<path d="M137.334 63.7089C138.573 63.7089 139.578 64.7199 139.578 65.9671C139.578 67.2144 138.573 68.2253 137.334 68.2253C136.095 68.2253 135.09 67.2144 135.09 65.9671C135.09 64.7199 136.095 63.7089 137.334 63.7089Z" fill="#004236"/>
<path d="M16.1543 68.2253C17.3937 68.2253 18.3984 69.2364 18.3984 70.4836C18.3984 71.7308 17.3937 72.7418 16.1543 72.7418C14.9149 72.7418 13.9102 71.7308 13.9102 70.4836C13.9102 69.2364 14.9149 68.2253 16.1543 68.2253Z" fill="#004236"/>
<path d="M47.5712 68.2253C48.8107 68.2253 49.8153 69.2364 49.8153 70.4836C49.8153 71.7308 48.8107 72.7418 47.5712 72.7418C46.3319 72.7418 45.3272 71.7308 45.3272 70.4836C45.3272 69.2364 46.3319 68.2253 47.5712 68.2253Z" fill="#004236"/>
<path d="M101.429 68.2253C102.668 68.2253 103.673 69.2364 103.673 70.4836C103.673 71.7308 102.668 72.7418 101.429 72.7418C100.19 72.7418 99.1848 71.7308 99.1848 70.4836C99.1848 69.2364 100.19 68.2253 101.429 68.2253Z" fill="#004236"/>
<path d="M110.405 68.2253C111.645 68.2253 112.649 69.2364 112.649 70.4836C112.649 71.7308 111.645 72.7418 110.405 72.7418C109.166 72.7418 108.161 71.7308 108.161 70.4836C108.161 69.2364 109.166 68.2253 110.405 68.2253Z" fill="#004236"/>
<path d="M123.87 68.2253C125.109 68.2253 126.114 69.2364 126.114 70.4836C126.114 71.7308 125.109 72.7418 123.87 72.7418C122.63 72.7418 121.625 71.7308 121.625 70.4836C121.625 69.2364 122.63 68.2253 123.87 68.2253Z" fill="#004236"/>
<path d="M137.334 68.2253C138.573 68.2253 139.578 69.2364 139.578 70.4836C139.578 71.7308 138.573 72.7418 137.334 72.7418C136.095 72.7418 135.09 71.7308 135.09 70.4836C135.09 69.2364 136.095 68.2253 137.334 68.2253Z" fill="#004236"/>
<path d="M141.822 68.2253C143.061 68.2253 144.066 69.2364 144.066 70.4836C144.066 71.7308 143.061 72.7418 141.822 72.7418C140.583 72.7418 139.578 71.7308 139.578 70.4836C139.578 69.2364 140.583 68.2253 141.822 68.2253Z" fill="#004236"/>
<path d="M146.31 68.2253C147.55 68.2253 148.554 69.2364 148.554 70.4836C148.554 71.7308 147.55 72.7418 146.31 72.7418C145.071 72.7418 144.066 71.7308 144.066 70.4836C144.066 69.2364 145.071 68.2253 146.31 68.2253Z" fill="#004236"/>
<path d="M7.17803 72.7418C8.41744 72.7418 9.42209 73.7529 9.42209 75.0001C9.42209 76.2473 8.41744 77.2583 7.17803 77.2583C5.93867 77.2583 4.93396 76.2473 4.93396 75.0001C4.93396 73.7529 5.93867 72.7418 7.17803 72.7418Z" fill="#004236"/>
<path d="M11.6661 72.7418C12.9055 72.7418 13.9102 73.7529 13.9102 75.0001C13.9102 76.2473 12.9055 77.2583 11.6661 77.2583C10.4268 77.2583 9.42206 76.2473 9.42206 75.0001C9.42206 73.7529 10.4268 72.7418 11.6661 72.7418Z" fill="#004236"/>
<path d="M16.1543 72.7418C17.3937 72.7418 18.3984 73.7529 18.3984 75.0001C18.3984 76.2473 17.3937 77.2583 16.1543 77.2583C14.9149 77.2583 13.9102 76.2473 13.9102 75.0001C13.9102 73.7529 14.9149 72.7418 16.1543 72.7418Z" fill="#004236"/>
<path d="M29.6187 72.7418C30.8581 72.7418 31.8628 73.7529 31.8628 75.0001C31.8628 76.2473 30.8581 77.2583 29.6187 77.2583C28.3793 77.2583 27.3746 76.2473 27.3746 75.0001C27.3746 73.7529 28.3793 72.7418 29.6187 72.7418Z" fill="#004236"/>
<path d="M38.595 72.7418C39.8344 72.7418 40.839 73.7529 40.839 75.0001C40.839 76.2473 39.8344 77.2583 38.595 77.2583C37.3556 77.2583 36.3509 76.2473 36.3509 75.0001C36.3509 73.7529 37.3556 72.7418 38.595 72.7418Z" fill="#004236"/>
<path d="M47.5712 72.7418C48.8107 72.7418 49.8153 73.7529 49.8153 75.0001C49.8153 76.2473 48.8107 77.2583 47.5712 77.2583C46.3319 77.2583 45.3272 76.2473 45.3272 75.0001C45.3272 73.7529 46.3319 72.7418 47.5712 72.7418Z" fill="#004236"/>
<path d="M110.405 72.7418C111.645 72.7418 112.649 73.7529 112.649 75.0001C112.649 76.2473 111.645 77.2583 110.405 77.2583C109.166 77.2583 108.161 76.2473 108.161 75.0001C108.161 73.7529 109.166 72.7418 110.405 72.7418Z" fill="#004236"/>
<path d="M114.893 72.7418C116.133 72.7418 117.137 73.7529 117.137 75.0001C117.137 76.2473 116.133 77.2583 114.893 77.2583C113.654 77.2583 112.649 76.2473 112.649 75.0001C112.649 73.7529 113.654 72.7418 114.893 72.7418Z" fill="#004236"/>
<path d="M119.381 72.7418C120.621 72.7418 121.626 73.7529 121.626 75.0001C121.626 76.2473 120.621 77.2583 119.381 77.2583C118.142 77.2583 117.137 76.2473 117.137 75.0001C117.137 73.7529 118.142 72.7418 119.381 72.7418Z" fill="#004236"/>
<path d="M128.358 72.7418C129.597 72.7418 130.602 73.7529 130.602 75.0001C130.602 76.2473 129.597 77.2583 128.358 77.2583C127.118 77.2583 126.114 76.2473 126.114 75.0001C126.114 73.7529 127.118 72.7418 128.358 72.7418Z" fill="#004236"/>
<path d="M132.846 72.7418C134.085 72.7418 135.09 73.7529 135.09 75.0001C135.09 76.2473 134.085 77.2583 132.846 77.2583C131.606 77.2583 130.602 76.2473 130.602 75.0001C130.602 73.7529 131.606 72.7418 132.846 72.7418Z" fill="#004236"/>
<path d="M2.68987 77.2583C3.92929 77.2583 4.93394 78.2694 4.93394 79.5165C4.93394 80.7638 3.92929 81.7748 2.68987 81.7748C1.45052 81.7748 0.445801 80.7638 0.445801 79.5165C0.445801 78.2694 1.45052 77.2583 2.68987 77.2583Z" fill="#004236"/>
<path d="M16.1543 77.2583C17.3937 77.2583 18.3984 78.2694 18.3984 79.5165C18.3984 80.7638 17.3937 81.7748 16.1543 81.7748C14.9149 81.7748 13.9102 80.7638 13.9102 79.5165C13.9102 78.2694 14.9149 77.2583 16.1543 77.2583Z" fill="#004236"/>
<path d="M25.1305 77.2583C26.37 77.2583 27.3746 78.2694 27.3746 79.5165C27.3746 80.7638 26.37 81.7748 25.1305 81.7748C23.8912 81.7748 22.8865 80.7638 22.8865 79.5165C22.8865 78.2694 23.8912 77.2583 25.1305 77.2583Z" fill="#004236"/>
<path d="M38.595 77.2583C39.8344 77.2583 40.839 78.2694 40.839 79.5165C40.839 80.7638 39.8344 81.7748 38.595 81.7748C37.3556 81.7748 36.3509 80.7638 36.3509 79.5165C36.3509 78.2694 37.3556 77.2583 38.595 77.2583Z" fill="#004236"/>
<path d="M43.0831 77.2583C44.3225 77.2583 45.3272 78.2694 45.3272 79.5165C45.3272 80.7638 44.3225 81.7748 43.0831 81.7748C41.8438 81.7748 40.8391 80.7638 40.8391 79.5165C40.8391 78.2694 41.8438 77.2583 43.0831 77.2583Z" fill="#004236"/>
<path d="M47.5712 77.2583C48.8107 77.2583 49.8153 78.2694 49.8153 79.5165C49.8153 80.7638 48.8107 81.7748 47.5712 81.7748C46.3319 81.7748 45.3272 80.7638 45.3272 79.5165C45.3272 78.2694 46.3319 77.2583 47.5712 77.2583Z" fill="#004236"/>
<path d="M101.429 77.2583C102.668 77.2583 103.673 78.2694 103.673 79.5165C103.673 80.7638 102.668 81.7748 101.429 81.7748C100.19 81.7748 99.1848 80.7638 99.1848 79.5165C99.1848 78.2694 100.19 77.2583 101.429 77.2583Z" fill="#004236"/>
<path d="M105.917 77.2583C107.156 77.2583 108.161 78.2694 108.161 79.5165C108.161 80.7638 107.156 81.7748 105.917 81.7748C104.678 81.7748 103.673 80.7638 103.673 79.5165C103.673 78.2694 104.678 77.2583 105.917 77.2583Z" fill="#004236"/>
<path d="M114.893 77.2583C116.133 77.2583 117.137 78.2694 117.137 79.5165C117.137 80.7638 116.133 81.7748 114.893 81.7748C113.654 81.7748 112.649 80.7638 112.649 79.5165C112.649 78.2694 113.654 77.2583 114.893 77.2583Z" fill="#004236"/>
<path d="M119.381 77.2583C120.621 77.2583 121.626 78.2694 121.626 79.5165C121.626 80.7638 120.621 81.7748 119.381 81.7748C118.142 81.7748 117.137 80.7638 117.137 79.5165C117.137 78.2694 118.142 77.2583 119.381 77.2583Z" fill="#004236"/>
<path d="M123.87 77.2583C125.109 77.2583 126.114 78.2694 126.114 79.5165C126.114 80.7638 125.109 81.7748 123.87 81.7748C122.63 81.7748 121.625 80.7638 121.625 79.5165C121.625 78.2694 122.63 77.2583 123.87 77.2583Z" fill="#004236"/>
<path d="M128.358 77.2583C129.597 77.2583 130.602 78.2694 130.602 79.5165C130.602 80.7638 129.597 81.7748 128.358 81.7748C127.118 81.7748 126.114 80.7638 126.114 79.5165C126.114 78.2694 127.118 77.2583 128.358 77.2583Z" fill="#004236"/>
<path d="M137.334 77.2583C138.573 77.2583 139.578 78.2694 139.578 79.5165C139.578 80.7638 138.573 81.7748 137.334 81.7748C136.095 81.7748 135.09 80.7638 135.09 79.5165C135.09 78.2694 136.095 77.2583 137.334 77.2583Z" fill="#004236"/>
<path d="M141.822 77.2583C143.061 77.2583 144.066 78.2694 144.066 79.5165C144.066 80.7638 143.061 81.7748 141.822 81.7748C140.583 81.7748 139.578 80.7638 139.578 79.5165C139.578 78.2694 140.583 77.2583 141.822 77.2583Z" fill="#004236"/>
<path d="M146.31 77.2583C147.55 77.2583 148.554 78.2694 148.554 79.5165C148.554 80.7638 147.55 81.7748 146.31 81.7748C145.071 81.7748 144.066 80.7638 144.066 79.5165C144.066 78.2694 145.071 77.2583 146.31 77.2583Z" fill="#004236"/>
<path d="M7.17803 81.7748C8.41744 81.7748 9.42209 82.7858 9.42209 84.033C9.42209 85.2803 8.41744 86.2913 7.17803 86.2913C5.93867 86.2913 4.93396 85.2803 4.93396 84.033C4.93396 82.7858 5.93867 81.7748 7.17803 81.7748Z" fill="#004236"/>
<path d="M16.1543 81.7748C17.3937 81.7748 18.3984 82.7858 18.3984 84.033C18.3984 85.2803 17.3937 86.2913 16.1543 86.2913C14.9149 86.2913 13.9102 85.2803 13.9102 84.033C13.9102 82.7858 14.9149 81.7748 16.1543 81.7748Z" fill="#004236"/>
<path d="M25.1305 81.7748C26.37 81.7748 27.3746 82.7858 27.3746 84.033C27.3746 85.2803 26.37 86.2913 25.1305 86.2913C23.8912 86.2913 22.8865 85.2803 22.8865 84.033C22.8865 82.7858 23.8912 81.7748 25.1305 81.7748Z" fill="#004236"/>
<path d="M29.6187 81.7748C30.8581 81.7748 31.8628 82.7858 31.8628 84.033C31.8628 85.2803 30.8581 86.2913 29.6187 86.2913C28.3793 86.2913 27.3746 85.2803 27.3746 84.033C27.3746 82.7858 28.3793 81.7748 29.6187 81.7748Z" fill="#004236"/>
<path d="M114.893 81.7748C116.133 81.7748 117.137 82.7858 117.137 84.033C117.137 85.2803 116.133 86.2913 114.893 86.2913C113.654 86.2913 112.649 85.2803 112.649 84.033C112.649 82.7858 113.654 81.7748 114.893 81.7748Z" fill="#004236"/>
<path d="M119.381 81.7748C120.621 81.7748 121.626 82.7858 121.626 84.033C121.626 85.2803 120.621 86.2913 119.381 86.2913C118.142 86.2913 117.137 85.2803 117.137 84.033C117.137 82.7858 118.142 81.7748 119.381 81.7748Z" fill="#004236"/>
<path d="M128.358 81.7748C129.597 81.7748 130.602 82.7858 130.602 84.033C130.602 85.2803 129.597 86.2913 128.358 86.2913C127.118 86.2913 126.114 85.2803 126.114 84.033C126.114 82.7858 127.118 81.7748 128.358 81.7748Z" fill="#004236"/>
<path d="M137.334 81.7748C138.573 81.7748 139.578 82.7858 139.578 84.033C139.578 85.2803 138.573 86.2913 137.334 86.2913C136.095 86.2913 135.09 85.2803 135.09 84.033C135.09 82.7858 136.095 81.7748 137.334 81.7748Z" fill="#004236"/>
<path d="M2.68987 86.2913C3.92929 86.2913 4.93394 87.3023 4.93394 88.5495C4.93394 89.7968 3.92929 90.8078 2.68987 90.8078C1.45052 90.8078 0.445801 89.7968 0.445801 88.5495C0.445801 87.3023 1.45052 86.2913 2.68987 86.2913Z" fill="#004236"/>
<path d="M7.17803 86.2913C8.41744 86.2913 9.42209 87.3023 9.42209 88.5495C9.42209 89.7968 8.41744 90.8078 7.17803 90.8078C5.93867 90.8078 4.93396 89.7968 4.93396 88.5495C4.93396 87.3023 5.93867 86.2913 7.17803 86.2913Z" fill="#004236"/>
<path d="M11.6661 86.2913C12.9055 86.2913 13.9102 87.3023 13.9102 88.5495C13.9102 89.7968 12.9055 90.8078 11.6661 90.8078C10.4268 90.8078 9.42206 89.7968 9.42206 88.5495C9.42206 87.3023 10.4268 86.2913 11.6661 86.2913Z" fill="#004236"/>
<path d="M20.6424 86.2913C21.8818 86.2913 22.8865 87.3023 22.8865 88.5495C22.8865 89.7968 21.8818 90.8078 20.6424 90.8078C19.4031 90.8078 18.3983 89.7968 18.3983 88.5495C18.3983 87.3023 19.4031 86.2913 20.6424 86.2913Z" fill="#004236"/>
<path d="M25.1305 86.2913C26.37 86.2913 27.3746 87.3023 27.3746 88.5495C27.3746 89.7968 26.37 90.8078 25.1305 90.8078C23.8912 90.8078 22.8865 89.7968 22.8865 88.5495C22.8865 87.3023 23.8912 86.2913 25.1305 86.2913Z" fill="#004236"/>
<path d="M34.1068 86.2913C35.3462 86.2913 36.3509 87.3023 36.3509 88.5495C36.3509 89.7968 35.3462 90.8078 34.1068 90.8078C32.8674 90.8078 31.8627 89.7968 31.8627 88.5495C31.8627 87.3023 32.8674 86.2913 34.1068 86.2913Z" fill="#004236"/>
<path d="M43.0831 86.2913C44.3225 86.2913 45.3272 87.3023 45.3272 88.5495C45.3272 89.7968 44.3225 90.8078 43.0831 90.8078C41.8438 90.8078 40.8391 89.7968 40.8391 88.5495C40.8391 87.3023 41.8438 86.2913 43.0831 86.2913Z" fill="#004236"/>
<path d="M47.5712 86.2913C48.8107 86.2913 49.8153 87.3023 49.8153 88.5495C49.8153 89.7968 48.8107 90.8078 47.5712 90.8078C46.3319 90.8078 45.3272 89.7968 45.3272 88.5495C45.3272 87.3023 46.3319 86.2913 47.5712 86.2913Z" fill="#004236"/>
<path d="M141.822 86.2913C143.061 86.2913 144.066 87.3023 144.066 88.5495C144.066 89.7968 143.061 90.8078 141.822 90.8078C140.583 90.8078 139.578 89.7968 139.578 88.5495C139.578 87.3023 140.583 86.2913 141.822 86.2913Z" fill="#004236"/>
<path d="M146.31 86.2913C147.55 86.2913 148.554 87.3023 148.554 88.5495C148.554 89.7968 147.55 90.8078 146.31 90.8078C145.071 90.8078 144.066 89.7968 144.066 88.5495C144.066 87.3023 145.071 86.2913 146.31 86.2913Z" fill="#004236"/>
<path d="M2.68987 90.8077C3.92929 90.8077 4.93394 91.8188 4.93394 93.066C4.93394 94.3132 3.92929 95.3242 2.68987 95.3242C1.45052 95.3242 0.445801 94.3132 0.445801 93.066C0.445801 91.8188 1.45052 90.8077 2.68987 90.8077Z" fill="#004236"/>
<path d="M16.1543 90.8077C17.3937 90.8077 18.3984 91.8188 18.3984 93.066C18.3984 94.3132 17.3937 95.3242 16.1543 95.3242C14.9149 95.3242 13.9102 94.3132 13.9102 93.066C13.9102 91.8188 14.9149 90.8077 16.1543 90.8077Z" fill="#004236"/>
<path d="M29.6187 90.8077C30.8581 90.8077 31.8628 91.8188 31.8628 93.066C31.8628 94.3132 30.8581 95.3242 29.6187 95.3242C28.3793 95.3242 27.3746 94.3132 27.3746 93.066C27.3746 91.8188 28.3793 90.8077 29.6187 90.8077Z" fill="#004236"/>
<path d="M34.1068 90.8077C35.3462 90.8077 36.3509 91.8188 36.3509 93.066C36.3509 94.3132 35.3462 95.3242 34.1068 95.3242C32.8674 95.3242 31.8627 94.3132 31.8627 93.066C31.8627 91.8188 32.8674 90.8077 34.1068 90.8077Z" fill="#004236"/>
<path d="M38.595 90.8077C39.8344 90.8077 40.839 91.8188 40.839 93.066C40.839 94.3132 39.8344 95.3242 38.595 95.3242C37.3556 95.3242 36.3509 94.3132 36.3509 93.066C36.3509 91.8188 37.3556 90.8077 38.595 90.8077Z" fill="#004236"/>
<path d="M43.0831 90.8077C44.3225 90.8077 45.3272 91.8188 45.3272 93.066C45.3272 94.3132 44.3225 95.3242 43.0831 95.3242C41.8438 95.3242 40.8391 94.3132 40.8391 93.066C40.8391 91.8188 41.8438 90.8077 43.0831 90.8077Z" fill="#004236"/>
<path d="M110.405 90.8077C111.645 90.8077 112.649 91.8188 112.649 93.066C112.649 94.3132 111.645 95.3242 110.405 95.3242C109.166 95.3242 108.161 94.3132 108.161 93.066C108.161 91.8188 109.166 90.8077 110.405 90.8077Z" fill="#004236"/>
<path d="M119.381 90.8077C120.621 90.8077 121.626 91.8188 121.626 93.066C121.626 94.3132 120.621 95.3242 119.381 95.3242C118.142 95.3242 117.137 94.3132 117.137 93.066C117.137 91.8188 118.142 90.8077 119.381 90.8077Z" fill="#004236"/>
<path d="M132.846 90.8077C134.085 90.8077 135.09 91.8188 135.09 93.066C135.09 94.3132 134.085 95.3242 132.846 95.3242C131.606 95.3242 130.602 94.3132 130.602 93.066C130.602 91.8188 131.606 90.8077 132.846 90.8077Z" fill="#004236"/>
<path d="M137.334 90.8077C138.573 90.8077 139.578 91.8188 139.578 93.066C139.578 94.3132 138.573 95.3242 137.334 95.3242C136.095 95.3242 135.09 94.3132 135.09 93.066C135.09 91.8188 136.095 90.8077 137.334 90.8077Z" fill="#004236"/>
<path d="M2.68987 95.3242C3.92929 95.3242 4.93394 96.3353 4.93394 97.5825C4.93394 98.8297 3.92929 99.8407 2.68987 99.8407C1.45052 99.8407 0.445801 98.8297 0.445801 97.5825C0.445801 96.3353 1.45052 95.3242 2.68987 95.3242Z" fill="#004236"/>
<path d="M7.17803 95.3242C8.41744 95.3242 9.42209 96.3353 9.42209 97.5825C9.42209 98.8297 8.41744 99.8407 7.17803 99.8407C5.93867 99.8407 4.93396 98.8297 4.93396 97.5825C4.93396 96.3353 5.93867 95.3242 7.17803 95.3242Z" fill="#004236"/>
<path d="M11.6661 95.3242C12.9055 95.3242 13.9102 96.3353 13.9102 97.5825C13.9102 98.8297 12.9055 99.8407 11.6661 99.8407C10.4268 99.8407 9.42206 98.8297 9.42206 97.5825C9.42206 96.3353 10.4268 95.3242 11.6661 95.3242Z" fill="#004236"/>
<path d="M20.6424 95.3242C21.8818 95.3242 22.8865 96.3353 22.8865 97.5825C22.8865 98.8297 21.8818 99.8407 20.6424 99.8407C19.4031 99.8407 18.3983 98.8297 18.3983 97.5825C18.3983 96.3353 19.4031 95.3242 20.6424 95.3242Z" fill="#004236"/>
<path d="M34.1068 95.3242C35.3462 95.3242 36.3509 96.3353 36.3509 97.5825C36.3509 98.8297 35.3462 99.8407 34.1068 99.8407C32.8674 99.8407 31.8627 98.8297 31.8627 97.5825C31.8627 96.3353 32.8674 95.3242 34.1068 95.3242Z" fill="#004236"/>
<path d="M43.0831 95.3242C44.3225 95.3242 45.3272 96.3353 45.3272 97.5825C45.3272 98.8297 44.3225 99.8407 43.0831 99.8407C41.8438 99.8407 40.8391 98.8297 40.8391 97.5825C40.8391 96.3353 41.8438 95.3242 43.0831 95.3242Z" fill="#004236"/>
<path d="M110.405 95.3242C111.645 95.3242 112.649 96.3353 112.649 97.5825C112.649 98.8297 111.645 99.8407 110.405 99.8407C109.166 99.8407 108.161 98.8297 108.161 97.5825C108.161 96.3353 109.166 95.3242 110.405 95.3242Z" fill="#004236"/>
<path d="M123.87 95.3242C125.109 95.3242 126.114 96.3353 126.114 97.5825C126.114 98.8297 125.109 99.8407 123.87 99.8407C122.63 99.8407 121.625 98.8297 121.625 97.5825C121.625 96.3353 122.63 95.3242 123.87 95.3242Z" fill="#004236"/>
<path d="M132.846 95.3242C134.085 95.3242 135.09 96.3353 135.09 97.5825C135.09 98.8297 134.085 99.8407 132.846 99.8407C131.606 99.8407 130.602 98.8297 130.602 97.5825C130.602 96.3353 131.606 95.3242 132.846 95.3242Z" fill="#004236"/>
<path d="M137.334 95.3242C138.573 95.3242 139.578 96.3353 139.578 97.5825C139.578 98.8297 138.573 99.8407 137.334 99.8407C136.095 99.8407 135.09 98.8297 135.09 97.5825C135.09 96.3353 136.095 95.3242 137.334 95.3242Z" fill="#004236"/>
<path d="M146.31 95.3242C147.55 95.3242 148.554 96.3353 148.554 97.5825C148.554 98.8297 147.55 99.8407 146.31 99.8407C145.071 99.8407 144.066 98.8297 144.066 97.5825C144.066 96.3353 145.071 95.3242 146.31 95.3242Z" fill="#004236"/>
<path d="M16.1543 99.8408C17.3937 99.8408 18.3984 100.852 18.3984 102.099C18.3984 103.346 17.3937 104.357 16.1543 104.357C14.9149 104.357 13.9102 103.346 13.9102 102.099C13.9102 100.852 14.9149 99.8408 16.1543 99.8408Z" fill="#004236"/>
<path d="M25.1305 99.8408C26.37 99.8408 27.3746 100.852 27.3746 102.099C27.3746 103.346 26.37 104.357 25.1305 104.357C23.8912 104.357 22.8865 103.346 22.8865 102.099C22.8865 100.852 23.8912 99.8408 25.1305 99.8408Z" fill="#004236"/>
<path d="M29.6187 99.8408C30.8581 99.8408 31.8628 100.852 31.8628 102.099C31.8628 103.346 30.8581 104.357 29.6187 104.357C28.3793 104.357 27.3746 103.346 27.3746 102.099C27.3746 100.852 28.3793 99.8408 29.6187 99.8408Z" fill="#004236"/>
<path d="M34.1068 99.8408C35.3462 99.8408 36.3509 100.852 36.3509 102.099C36.3509 103.346 35.3462 104.357 34.1068 104.357C32.8674 104.357 31.8627 103.346 31.8627 102.099C31.8627 100.852 32.8674 99.8408 34.1068 99.8408Z" fill="#004236"/>
<path d="M38.595 99.8408C39.8344 99.8408 40.839 100.852 40.839 102.099C40.839 103.346 39.8344 104.357 38.595 104.357C37.3556 104.357 36.3509 103.346 36.3509 102.099C36.3509 100.852 37.3556 99.8408 38.595 99.8408Z" fill="#004236"/>
<path d="M52.0594 99.8408C53.2988 99.8408 54.3034 100.852 54.3034 102.099C54.3034 103.346 53.2988 104.357 52.0594 104.357C50.82 104.357 49.8153 103.346 49.8153 102.099C49.8153 100.852 50.82 99.8408 52.0594 99.8408Z" fill="#004236"/>
<path d="M65.5238 99.8408C66.7632 99.8408 67.7679 100.852 67.7679 102.099C67.7679 103.346 66.7632 104.357 65.5238 104.357C64.2844 104.357 63.2797 103.346 63.2797 102.099C63.2797 100.852 64.2844 99.8408 65.5238 99.8408Z" fill="#004236"/>
<path d="M70.0119 99.8408C71.2513 99.8408 72.256 100.852 72.256 102.099C72.256 103.346 71.2513 104.357 70.0119 104.357C68.7725 104.357 67.7678 103.346 67.7678 102.099C67.7678 100.852 68.7725 99.8408 70.0119 99.8408Z" fill="#004236"/>
<path d="M74.5001 99.8408C75.7395 99.8408 76.7441 100.852 76.7441 102.099C76.7441 103.346 75.7395 104.357 74.5001 104.357C73.2607 104.357 72.256 103.346 72.256 102.099C72.256 100.852 73.2607 99.8408 74.5001 99.8408Z" fill="#004236"/>
<path d="M78.9882 99.8408C80.2276 99.8408 81.2323 100.852 81.2323 102.099C81.2323 103.346 80.2276 104.357 78.9882 104.357C77.7489 104.357 76.7441 103.346 76.7441 102.099C76.7441 100.852 77.7489 99.8408 78.9882 99.8408Z" fill="#004236"/>
<path d="M83.4763 99.8408C84.7157 99.8408 85.7204 100.852 85.7204 102.099C85.7204 103.346 84.7157 104.357 83.4763 104.357C82.237 104.357 81.2322 103.346 81.2322 102.099C81.2322 100.852 82.237 99.8408 83.4763 99.8408Z" fill="#004236"/>
<path d="M87.9645 99.8408C89.2039 99.8408 90.2086 100.852 90.2086 102.099C90.2086 103.346 89.2039 104.357 87.9645 104.357C86.7251 104.357 85.7204 103.346 85.7204 102.099C85.7204 100.852 86.7251 99.8408 87.9645 99.8408Z" fill="#004236"/>
<path d="M92.4526 99.8408C93.692 99.8408 94.6967 100.852 94.6967 102.099C94.6967 103.346 93.692 104.357 92.4526 104.357C91.2133 104.357 90.2086 103.346 90.2086 102.099C90.2086 100.852 91.2133 99.8408 92.4526 99.8408Z" fill="#004236"/>
<path d="M96.9407 99.8408C98.1802 99.8408 99.1848 100.852 99.1848 102.099C99.1848 103.346 98.1802 104.357 96.9407 104.357C95.7014 104.357 94.6967 103.346 94.6967 102.099C94.6967 100.852 95.7014 99.8408 96.9407 99.8408Z" fill="#004236"/>
<path d="M105.917 99.8408C107.156 99.8408 108.161 100.852 108.161 102.099C108.161 103.346 107.156 104.357 105.917 104.357C104.678 104.357 103.673 103.346 103.673 102.099C103.673 100.852 104.678 99.8408 105.917 99.8408Z" fill="#004236"/>
<path d="M110.405 99.8408C111.645 99.8408 112.649 100.852 112.649 102.099C112.649 103.346 111.645 104.357 110.405 104.357C109.166 104.357 108.161 103.346 108.161 102.099C108.161 100.852 109.166 99.8408 110.405 99.8408Z" fill="#004236"/>
<path d="M119.381 99.8408C120.621 99.8408 121.626 100.852 121.626 102.099C121.626 103.346 120.621 104.357 119.381 104.357C118.142 104.357 117.137 103.346 117.137 102.099C117.137 100.852 118.142 99.8408 119.381 99.8408Z" fill="#004236"/>
<path d="M123.87 99.8408C125.109 99.8408 126.114 100.852 126.114 102.099C126.114 103.346 125.109 104.357 123.87 104.357C122.63 104.357 121.625 103.346 121.625 102.099C121.625 100.852 122.63 99.8408 123.87 99.8408Z" fill="#004236"/>
<path d="M128.358 99.8408C129.597 99.8408 130.602 100.852 130.602 102.099C130.602 103.346 129.597 104.357 128.358 104.357C127.118 104.357 126.114 103.346 126.114 102.099C126.114 100.852 127.118 99.8408 128.358 99.8408Z" fill="#004236"/>
<path d="M137.334 99.8408C138.573 99.8408 139.578 100.852 139.578 102.099C139.578 103.346 138.573 104.357 137.334 104.357C136.095 104.357 135.09 103.346 135.09 102.099C135.09 100.852 136.095 99.8408 137.334 99.8408Z" fill="#004236"/>
<path d="M141.822 99.8408C143.061 99.8408 144.066 100.852 144.066 102.099C144.066 103.346 143.061 104.357 141.822 104.357C140.583 104.357 139.578 103.346 139.578 102.099C139.578 100.852 140.583 99.8408 141.822 99.8408Z" fill="#004236"/>
<path d="M146.31 99.8408C147.55 99.8408 148.554 100.852 148.554 102.099C148.554 103.346 147.55 104.357 146.31 104.357C145.071 104.357 144.066 103.346 144.066 102.099C144.066 100.852 145.071 99.8408 146.31 99.8408Z" fill="#004236"/>
<path d="M7.17803 104.357C8.41744 104.357 9.42209 105.368 9.42209 106.616C9.42209 107.863 8.41744 108.874 7.17803 108.874C5.93867 108.874 4.93396 107.863 4.93396 106.616C4.93396 105.368 5.93867 104.357 7.17803 104.357Z" fill="#004236"/>
<path d="M11.6661 104.357C12.9055 104.357 13.9102 105.368 13.9102 106.616C13.9102 107.863 12.9055 108.874 11.6661 108.874C10.4268 108.874 9.42206 107.863 9.42206 106.616C9.42206 105.368 10.4268 104.357 11.6661 104.357Z" fill="#004236"/>
<path d="M20.6424 104.357C21.8818 104.357 22.8865 105.368 22.8865 106.616C22.8865 107.863 21.8818 108.874 20.6424 108.874C19.4031 108.874 18.3983 107.863 18.3983 106.616C18.3983 105.368 19.4031 104.357 20.6424 104.357Z" fill="#004236"/>
<path d="M25.1305 104.357C26.37 104.357 27.3746 105.368 27.3746 106.616C27.3746 107.863 26.37 108.874 25.1305 108.874C23.8912 108.874 22.8865 107.863 22.8865 106.616C22.8865 105.368 23.8912 104.357 25.1305 104.357Z" fill="#004236"/>
<path d="M38.595 104.357C39.8344 104.357 40.839 105.368 40.839 106.616C40.839 107.863 39.8344 108.874 38.595 108.874C37.3556 108.874 36.3509 107.863 36.3509 106.616C36.3509 105.368 37.3556 104.357 38.595 104.357Z" fill="#004236"/>
<path d="M43.0831 104.357C44.3225 104.357 45.3272 105.368 45.3272 106.616C45.3272 107.863 44.3225 108.874 43.0831 108.874C41.8438 108.874 40.8391 107.863 40.8391 106.616C40.8391 105.368 41.8438 104.357 43.0831 104.357Z" fill="#004236"/>
<path d="M56.5475 104.357C57.7869 104.357 58.7915 105.368 58.7915 106.616C58.7915 107.863 57.7869 108.874 56.5475 108.874C55.3081 108.874 54.3034 107.863 54.3034 106.616C54.3034 105.368 55.3081 104.357 56.5475 104.357Z" fill="#004236"/>
<path d="M70.0119 104.357C71.2513 104.357 72.256 105.368 72.256 106.616C72.256 107.863 71.2513 108.874 70.0119 108.874C68.7725 108.874 67.7678 107.863 67.7678 106.616C67.7678 105.368 68.7725 104.357 70.0119 104.357Z" fill="#004236"/>
<path d="M78.9882 104.357C80.2276 104.357 81.2323 105.368 81.2323 106.616C81.2323 107.863 80.2276 108.874 78.9882 108.874C77.7489 108.874 76.7441 107.863 76.7441 106.616C76.7441 105.368 77.7489 104.357 78.9882 104.357Z" fill="#004236"/>
<path d="M83.4763 104.357C84.7157 104.357 85.7204 105.368 85.7204 106.616C85.7204 107.863 84.7157 108.874 83.4763 108.874C82.237 108.874 81.2322 107.863 81.2322 106.616C81.2322 105.368 82.237 104.357 83.4763 104.357Z" fill="#004236"/>
<path d="M101.429 104.357C102.668 104.357 103.673 105.368 103.673 106.616C103.673 107.863 102.668 108.874 101.429 108.874C100.19 108.874 99.1848 107.863 99.1848 106.616C99.1848 105.368 100.19 104.357 101.429 104.357Z" fill="#004236"/>
<path d="M114.893 104.357C116.133 104.357 117.137 105.368 117.137 106.616C117.137 107.863 116.133 108.874 114.893 108.874C113.654 108.874 112.649 107.863 112.649 106.616C112.649 105.368 113.654 104.357 114.893 104.357Z" fill="#004236"/>
<path d="M123.87 104.357C125.109 104.357 126.114 105.368 126.114 106.616C126.114 107.863 125.109 108.874 123.87 108.874C122.63 108.874 121.625 107.863 121.625 106.616C121.625 105.368 122.63 104.357 123.87 104.357Z" fill="#004236"/>
<path d="M128.358 104.357C129.597 104.357 130.602 105.368 130.602 106.616C130.602 107.863 129.597 108.874 128.358 108.874C127.118 108.874 126.114 107.863 126.114 106.616C126.114 105.368 127.118 104.357 128.358 104.357Z" fill="#004236"/>
<path d="M132.846 104.357C134.085 104.357 135.09 105.368 135.09 106.616C135.09 107.863 134.085 108.874 132.846 108.874C131.606 108.874 130.602 107.863 130.602 106.616C130.602 105.368 131.606 104.357 132.846 104.357Z" fill="#004236"/>
<path d="M146.31 104.357C147.55 104.357 148.554 105.368 148.554 106.616C148.554 107.863 147.55 108.874 146.31 108.874C145.071 108.874 144.066 107.863 144.066 106.616C144.066 105.368 145.071 104.357 146.31 104.357Z" fill="#004236"/>
<path d="M2.68987 108.874C3.92929 108.874 4.93394 109.885 4.93394 111.132C4.93394 112.379 3.92929 113.39 2.68987 113.39C1.45052 113.39 0.445801 112.379 0.445801 111.132C0.445801 109.885 1.45052 108.874 2.68987 108.874Z" fill="#004236"/>
<path d="M11.6661 108.874C12.9055 108.874 13.9102 109.885 13.9102 111.132C13.9102 112.379 12.9055 113.39 11.6661 113.39C10.4268 113.39 9.42206 112.379 9.42206 111.132C9.42206 109.885 10.4268 108.874 11.6661 108.874Z" fill="#004236"/>
<path d="M20.6424 108.874C21.8818 108.874 22.8865 109.885 22.8865 111.132C22.8865 112.379 21.8818 113.39 20.6424 113.39C19.4031 113.39 18.3983 112.379 18.3983 111.132C18.3983 109.885 19.4031 108.874 20.6424 108.874Z" fill="#004236"/>
<path d="M29.6187 108.874C30.8581 108.874 31.8628 109.885 31.8628 111.132C31.8628 112.379 30.8581 113.39 29.6187 113.39C28.3793 113.39 27.3746 112.379 27.3746 111.132C27.3746 109.885 28.3793 108.874 29.6187 108.874Z" fill="#004236"/>
<path d="M34.1068 108.874C35.3462 108.874 36.3509 109.885 36.3509 111.132C36.3509 112.379 35.3462 113.39 34.1068 113.39C32.8674 113.39 31.8627 112.379 31.8627 111.132C31.8627 109.885 32.8674 108.874 34.1068 108.874Z" fill="#004236"/>
<path d="M43.0831 108.874C44.3225 108.874 45.3272 109.885 45.3272 111.132C45.3272 112.379 44.3225 113.39 43.0831 113.39C41.8438 113.39 40.8391 112.379 40.8391 111.132C40.8391 109.885 41.8438 108.874 43.0831 108.874Z" fill="#004236"/>
<path d="M47.5712 108.874C48.8107 108.874 49.8153 109.885 49.8153 111.132C49.8153 112.379 48.8107 113.39 47.5712 113.39C46.3319 113.39 45.3272 112.379 45.3272 111.132C45.3272 109.885 46.3319 108.874 47.5712 108.874Z" fill="#004236"/>
<path d="M65.5238 108.874C66.7632 108.874 67.7679 109.885 67.7679 111.132C67.7679 112.379 66.7632 113.39 65.5238 113.39C64.2844 113.39 63.2797 112.379 63.2797 111.132C63.2797 109.885 64.2844 108.874 65.5238 108.874Z" fill="#004236"/>
<path d="M70.0119 108.874C71.2513 108.874 72.256 109.885 72.256 111.132C72.256 112.379 71.2513 113.39 70.0119 113.39C68.7725 113.39 67.7678 112.379 67.7678 111.132C67.7678 109.885 68.7725 108.874 70.0119 108.874Z" fill="#004236"/>
<path d="M74.5001 108.874C75.7395 108.874 76.7441 109.885 76.7441 111.132C76.7441 112.379 75.7395 113.39 74.5001 113.39C73.2607 113.39 72.256 112.379 72.256 111.132C72.256 109.885 73.2607 108.874 74.5001 108.874Z" fill="#004236"/>
<path d="M87.9645 108.874C89.2039 108.874 90.2086 109.885 90.2086 111.132C90.2086 112.379 89.2039 113.39 87.9645 113.39C86.7251 113.39 85.7204 112.379 85.7204 111.132C85.7204 109.885 86.7251 108.874 87.9645 108.874Z" fill="#004236"/>
<path d="M101.429 108.874C102.668 108.874 103.673 109.885 103.673 111.132C103.673 112.379 102.668 113.39 101.429 113.39C100.19 113.39 99.1848 112.379 99.1848 111.132C99.1848 109.885 100.19 108.874 101.429 108.874Z" fill="#004236"/>
<path d="M110.405 108.874C111.645 108.874 112.649 109.885 112.649 111.132C112.649 112.379 111.645 113.39 110.405 113.39C109.166 113.39 108.161 112.379 108.161 111.132C108.161 109.885 109.166 108.874 110.405 108.874Z" fill="#004236"/>
<path d="M114.893 108.874C116.133 108.874 117.137 109.885 117.137 111.132C117.137 112.379 116.133 113.39 114.893 113.39C113.654 113.39 112.649 112.379 112.649 111.132C112.649 109.885 113.654 108.874 114.893 108.874Z" fill="#004236"/>
<path d="M119.381 108.874C120.621 108.874 121.626 109.885 121.626 111.132C121.626 112.379 120.621 113.39 119.381 113.39C118.142 113.39 117.137 112.379 117.137 111.132C117.137 109.885 118.142 108.874 119.381 108.874Z" fill="#004236"/>
<path d="M123.87 108.874C125.109 108.874 126.114 109.885 126.114 111.132C126.114 112.379 125.109 113.39 123.87 113.39C122.63 113.39 121.625 112.379 121.625 111.132C121.625 109.885 122.63 108.874 123.87 108.874Z" fill="#004236"/>
<path d="M128.358 108.874C129.597 108.874 130.602 109.885 130.602 111.132C130.602 112.379 129.597 113.39 128.358 113.39C127.118 113.39 126.114 112.379 126.114 111.132C126.114 109.885 127.118 108.874 128.358 108.874Z" fill="#004236"/>
<path d="M132.846 108.874C134.085 108.874 135.09 109.885 135.09 111.132C135.09 112.379 134.085 113.39 132.846 113.39C131.606 113.39 130.602 112.379 130.602 111.132C130.602 109.885 131.606 108.874 132.846 108.874Z" fill="#004236"/>
<path d="M141.822 108.874C143.061 108.874 144.066 109.885 144.066 111.132C144.066 112.379 143.061 113.39 141.822 113.39C140.583 113.39 139.578 112.379 139.578 111.132C139.578 109.885 140.583 108.874 141.822 108.874Z" fill="#004236"/>
<path d="M146.31 108.874C147.55 108.874 148.554 109.885 148.554 111.132C148.554 112.379 147.55 113.39 146.31 113.39C145.071 113.39 144.066 112.379 144.066 111.132C144.066 109.885 145.071 108.874 146.31 108.874Z" fill="#004236"/>
<path d="M38.595 113.39C39.8344 113.39 40.839 114.401 40.839 115.649C40.839 116.896 39.8344 117.907 38.595 117.907C37.3556 117.907 36.3509 116.896 36.3509 115.649C36.3509 114.401 37.3556 113.39 38.595 113.39Z" fill="#004236"/>
<path d="M47.5712 113.39C48.8107 113.39 49.8153 114.401 49.8153 115.649C49.8153 116.896 48.8107 117.907 47.5712 117.907C46.3319 117.907 45.3272 116.896 45.3272 115.649C45.3272 114.401 46.3319 113.39 47.5712 113.39Z" fill="#004236"/>
<path d="M52.0594 113.39C53.2988 113.39 54.3034 114.401 54.3034 115.649C54.3034 116.896 53.2988 117.907 52.0594 117.907C50.82 117.907 49.8153 116.896 49.8153 115.649C49.8153 114.401 50.82 113.39 52.0594 113.39Z" fill="#004236"/>
<path d="M65.5238 113.39C66.7632 113.39 67.7679 114.401 67.7679 115.649C67.7679 116.896 66.7632 117.907 65.5238 117.907C64.2844 117.907 63.2797 116.896 63.2797 115.649C63.2797 114.401 64.2844 113.39 65.5238 113.39Z" fill="#004236"/>
<path d="M78.9882 113.39C80.2276 113.39 81.2323 114.401 81.2323 115.649C81.2323 116.896 80.2276 117.907 78.9882 117.907C77.7489 117.907 76.7441 116.896 76.7441 115.649C76.7441 114.401 77.7489 113.39 78.9882 113.39Z" fill="#004236"/>
<path d="M92.4526 113.39C93.692 113.39 94.6967 114.401 94.6967 115.649C94.6967 116.896 93.692 117.907 92.4526 117.907C91.2133 117.907 90.2086 116.896 90.2086 115.649C90.2086 114.401 91.2133 113.39 92.4526 113.39Z" fill="#004236"/>
<path d="M96.9407 113.39C98.1802 113.39 99.1848 114.401 99.1848 115.649C99.1848 116.896 98.1802 117.907 96.9407 117.907C95.7014 117.907 94.6967 116.896 94.6967 115.649C94.6967 114.401 95.7014 113.39 96.9407 113.39Z" fill="#004236"/>
<path d="M101.429 113.39C102.668 113.39 103.673 114.401 103.673 115.649C103.673 116.896 102.668 117.907 101.429 117.907C100.19 117.907 99.1848 116.896 99.1848 115.649C99.1848 114.401 100.19 113.39 101.429 113.39Z" fill="#004236"/>
<path d="M110.405 113.39C111.645 113.39 112.649 114.401 112.649 115.649C112.649 116.896 111.645 117.907 110.405 117.907C109.166 117.907 108.161 116.896 108.161 115.649C108.161 114.401 109.166 113.39 110.405 113.39Z" fill="#004236"/>
<path d="M128.358 113.39C129.597 113.39 130.602 114.401 130.602 115.649C130.602 116.896 129.597 117.907 128.358 117.907C127.118 117.907 126.114 116.896 126.114 115.649C126.114 114.401 127.118 113.39 128.358 113.39Z" fill="#004236"/>
<path d="M132.846 113.39C134.085 113.39 135.09 114.401 135.09 115.649C135.09 116.896 134.085 117.907 132.846 117.907C131.606 117.907 130.602 116.896 130.602 115.649C130.602 114.401 131.606 113.39 132.846 113.39Z" fill="#004236"/>
<path d="M137.334 113.39C138.573 113.39 139.578 114.401 139.578 115.649C139.578 116.896 138.573 117.907 137.334 117.907C136.095 117.907 135.09 116.896 135.09 115.649C135.09 114.401 136.095 113.39 137.334 113.39Z" fill="#004236"/>
<path d="M141.822 113.39C143.061 113.39 144.066 114.401 144.066 115.649C144.066 116.896 143.061 117.907 141.822 117.907C140.583 117.907 139.578 116.896 139.578 115.649C139.578 114.401 140.583 113.39 141.822 113.39Z" fill="#004236"/>
<path d="M38.595 117.907C39.8344 117.907 40.839 118.918 40.839 120.165C40.839 121.412 39.8344 122.423 38.595 122.423C37.3556 122.423 36.3509 121.412 36.3509 120.165C36.3509 118.918 37.3556 117.907 38.595 117.907Z" fill="#004236"/>
<path d="M56.5475 117.907C57.7869 117.907 58.7915 118.918 58.7915 120.165C58.7915 121.412 57.7869 122.423 56.5475 122.423C55.3081 122.423 54.3034 121.412 54.3034 120.165C54.3034 118.918 55.3081 117.907 56.5475 117.907Z" fill="#004236"/>
<path d="M65.5238 117.907C66.7632 117.907 67.7679 118.918 67.7679 120.165C67.7679 121.412 66.7632 122.423 65.5238 122.423C64.2844 122.423 63.2797 121.412 63.2797 120.165C63.2797 118.918 64.2844 117.907 65.5238 117.907Z" fill="#004236"/>
<path d="M70.0119 117.907C71.2513 117.907 72.256 118.918 72.256 120.165C72.256 121.412 71.2513 122.423 70.0119 122.423C68.7725 122.423 67.7678 121.412 67.7678 120.165C67.7678 118.918 68.7725 117.907 70.0119 117.907Z" fill="#004236"/>
<path d="M83.4763 117.907C84.7157 117.907 85.7204 118.918 85.7204 120.165C85.7204 121.412 84.7157 122.423 83.4763 122.423C82.237 122.423 81.2322 121.412 81.2322 120.165C81.2322 118.918 82.237 117.907 83.4763 117.907Z" fill="#004236"/>
<path d="M92.4526 117.907C93.692 117.907 94.6967 118.918 94.6967 120.165C94.6967 121.412 93.692 122.423 92.4526 122.423C91.2133 122.423 90.2086 121.412 90.2086 120.165C90.2086 118.918 91.2133 117.907 92.4526 117.907Z" fill="#004236"/>
<path d="M96.9407 117.907C98.1802 117.907 99.1848 118.918 99.1848 120.165C99.1848 121.412 98.1802 122.423 96.9407 122.423C95.7014 122.423 94.6967 121.412 94.6967 120.165C94.6967 118.918 95.7014 117.907 96.9407 117.907Z" fill="#004236"/>
<path d="M105.917 117.907C107.156 117.907 108.161 118.918 108.161 120.165C108.161 121.412 107.156 122.423 105.917 122.423C104.678 122.423 103.673 121.412 103.673 120.165C103.673 118.918 104.678 117.907 105.917 117.907Z" fill="#004236"/>
<path d="M110.405 117.907C111.645 117.907 112.649 118.918 112.649 120.165C112.649 121.412 111.645 122.423 110.405 122.423C109.166 122.423 108.161 121.412 108.161 120.165C108.161 118.918 109.166 117.907 110.405 117.907Z" fill="#004236"/>
<path d="M119.381 117.907C120.621 117.907 121.626 118.918 121.626 120.165C121.626 121.412 120.621 122.423 119.381 122.423C118.142 122.423 117.137 121.412 117.137 120.165C117.137 118.918 118.142 117.907 119.381 117.907Z" fill="#004236"/>
<path d="M128.358 117.907C129.597 117.907 130.602 118.918 130.602 120.165C130.602 121.412 129.597 122.423 128.358 122.423C127.118 122.423 126.114 121.412 126.114 120.165C126.114 118.918 127.118 117.907 128.358 117.907Z" fill="#004236"/>
<path d="M132.846 117.907C134.085 117.907 135.09 118.918 135.09 120.165C135.09 121.412 134.085 122.423 132.846 122.423C131.606 122.423 130.602 121.412 130.602 120.165C130.602 118.918 131.606 117.907 132.846 117.907Z" fill="#004236"/>
<path d="M47.5712 122.423C48.8107 122.423 49.8153 123.434 49.8153 124.681C49.8153 125.929 48.8107 126.94 47.5712 126.94C46.3319 126.94 45.3272 125.929 45.3272 124.681C45.3272 123.434 46.3319 122.423 47.5712 122.423Z" fill="#004236"/>
<path d="M61.0356 122.423C62.2751 122.423 63.2797 123.434 63.2797 124.681C63.2797 125.929 62.2751 126.94 61.0356 126.94C59.7963 126.94 58.7916 125.929 58.7916 124.681C58.7916 123.434 59.7963 122.423 61.0356 122.423Z" fill="#004236"/>
<path d="M74.5001 122.423C75.7395 122.423 76.7441 123.434 76.7441 124.681C76.7441 125.929 75.7395 126.94 74.5001 126.94C73.2607 126.94 72.256 125.929 72.256 124.681C72.256 123.434 73.2607 122.423 74.5001 122.423Z" fill="#004236"/>
<path d="M87.9645 122.423C89.2039 122.423 90.2086 123.434 90.2086 124.681C90.2086 125.929 89.2039 126.94 87.9645 126.94C86.7251 126.94 85.7204 125.929 85.7204 124.681C85.7204 123.434 86.7251 122.423 87.9645 122.423Z" fill="#004236"/>
<path d="M92.4526 122.423C93.692 122.423 94.6967 123.434 94.6967 124.681C94.6967 125.929 93.692 126.94 92.4526 126.94C91.2133 126.94 90.2086 125.929 90.2086 124.681C90.2086 123.434 91.2133 122.423 92.4526 122.423Z" fill="#004236"/>
<path d="M105.917 122.423C107.156 122.423 108.161 123.434 108.161 124.681C108.161 125.929 107.156 126.94 105.917 126.94C104.678 126.94 103.673 125.929 103.673 124.681C103.673 123.434 104.678 122.423 105.917 122.423Z" fill="#004236"/>
<path d="M110.405 122.423C111.645 122.423 112.649 123.434 112.649 124.681C112.649 125.929 111.645 126.94 110.405 126.94C109.166 126.94 108.161 125.929 108.161 124.681C108.161 123.434 109.166 122.423 110.405 122.423Z" fill="#004236"/>
<path d="M128.358 122.423C129.597 122.423 130.602 123.434 130.602 124.681C130.602 125.929 129.597 126.94 128.358 126.94C127.118 126.94 126.114 125.929 126.114 124.681C126.114 123.434 127.118 122.423 128.358 122.423Z" fill="#004236"/>
<path d="M132.846 122.423C134.085 122.423 135.09 123.434 135.09 124.681C135.09 125.929 134.085 126.94 132.846 126.94C131.606 126.94 130.602 125.929 130.602 124.681C130.602 123.434 131.606 122.423 132.846 122.423Z" fill="#004236"/>
<path d="M137.334 122.423C138.573 122.423 139.578 123.434 139.578 124.681C139.578 125.929 138.573 126.94 137.334 126.94C136.095 126.94 135.09 125.929 135.09 124.681C135.09 123.434 136.095 122.423 137.334 122.423Z" fill="#004236"/>
<path d="M141.822 122.423C143.061 122.423 144.066 123.434 144.066 124.681C144.066 125.929 143.061 126.94 141.822 126.94C140.583 126.94 139.578 125.929 139.578 124.681C139.578 123.434 140.583 122.423 141.822 122.423Z" fill="#004236"/>
<path d="M146.31 122.423C147.55 122.423 148.554 123.434 148.554 124.681C148.554 125.929 147.55 126.94 146.31 126.94C145.071 126.94 144.066 125.929 144.066 124.681C144.066 123.434 145.071 122.423 146.31 122.423Z" fill="#004236"/>
<path d="M52.0594 126.94C53.2988 126.94 54.3034 127.951 54.3034 129.198C54.3034 130.445 53.2988 131.456 52.0594 131.456C50.82 131.456 49.8153 130.445 49.8153 129.198C49.8153 127.951 50.82 126.94 52.0594 126.94Z" fill="#004236"/>
<path d="M56.5475 126.94C57.7869 126.94 58.7915 127.951 58.7915 129.198C58.7915 130.445 57.7869 131.456 56.5475 131.456C55.3081 131.456 54.3034 130.445 54.3034 129.198C54.3034 127.951 55.3081 126.94 56.5475 126.94Z" fill="#004236"/>
<path d="M70.0119 126.94C71.2513 126.94 72.256 127.951 72.256 129.198C72.256 130.445 71.2513 131.456 70.0119 131.456C68.7725 131.456 67.7678 130.445 67.7678 129.198C67.7678 127.951 68.7725 126.94 70.0119 126.94Z" fill="#004236"/>
<path d="M87.9645 126.94C89.2039 126.94 90.2086 127.951 90.2086 129.198C90.2086 130.445 89.2039 131.456 87.9645 131.456C86.7251 131.456 85.7204 130.445 85.7204 129.198C85.7204 127.951 86.7251 126.94 87.9645 126.94Z" fill="#004236"/>
<path d="M101.429 126.94C102.668 126.94 103.673 127.951 103.673 129.198C103.673 130.445 102.668 131.456 101.429 131.456C100.19 131.456 99.1848 130.445 99.1848 129.198C99.1848 127.951 100.19 126.94 101.429 126.94Z" fill="#004236"/>
<path d="M105.917 126.94C107.156 126.94 108.161 127.951 108.161 129.198C108.161 130.445 107.156 131.456 105.917 131.456C104.678 131.456 103.673 130.445 103.673 129.198C103.673 127.951 104.678 126.94 105.917 126.94Z" fill="#004236"/>
<path d="M110.405 126.94C111.645 126.94 112.649 127.951 112.649 129.198C112.649 130.445 111.645 131.456 110.405 131.456C109.166 131.456 108.161 130.445 108.161 129.198C108.161 127.951 109.166 126.94 110.405 126.94Z" fill="#004236"/>
<path d="M114.893 126.94C116.133 126.94 117.137 127.951 117.137 129.198C117.137 130.445 116.133 131.456 114.893 131.456C113.654 131.456 112.649 130.445 112.649 129.198C112.649 127.951 113.654 126.94 114.893 126.94Z" fill="#004236"/>
<path d="M119.381 126.94C120.621 126.94 121.626 127.951 121.626 129.198C121.626 130.445 120.621 131.456 119.381 131.456C118.142 131.456 117.137 130.445 117.137 129.198C117.137 127.951 118.142 126.94 119.381 126.94Z" fill="#004236"/>
<path d="M123.87 126.94C125.109 126.94 126.114 127.951 126.114 129.198C126.114 130.445 125.109 131.456 123.87 131.456C122.63 131.456 121.625 130.445 121.625 129.198C121.625 127.951 122.63 126.94 123.87 126.94Z" fill="#004236"/>
<path d="M128.358 126.94C129.597 126.94 130.602 127.951 130.602 129.198C130.602 130.445 129.597 131.456 128.358 131.456C127.118 131.456 126.114 130.445 126.114 129.198C126.114 127.951 127.118 126.94 128.358 126.94Z" fill="#004236"/>
<path d="M137.334 126.94C138.573 126.94 139.578 127.951 139.578 129.198C139.578 130.445 138.573 131.456 137.334 131.456C136.095 131.456 135.09 130.445 135.09 129.198C135.09 127.951 136.095 126.94 137.334 126.94Z" fill="#004236"/>
<path d="M141.822 126.94C143.061 126.94 144.066 127.951 144.066 129.198C144.066 130.445 143.061 131.456 141.822 131.456C140.583 131.456 139.578 130.445 139.578 129.198C139.578 127.951 140.583 126.94 141.822 126.94Z" fill="#004236"/>
<path d="M38.595 131.456C39.8344 131.456 40.839 132.467 40.839 133.714C40.839 134.962 39.8344 135.973 38.595 135.973C37.3556 135.973 36.3509 134.962 36.3509 133.714C36.3509 132.467 37.3556 131.456 38.595 131.456Z" fill="#004236"/>
<path d="M43.0831 131.456C44.3225 131.456 45.3272 132.467 45.3272 133.714C45.3272 134.962 44.3225 135.973 43.0831 135.973C41.8438 135.973 40.8391 134.962 40.8391 133.714C40.8391 132.467 41.8438 131.456 43.0831 131.456Z" fill="#004236"/>
<path d="M47.5712 131.456C48.8107 131.456 49.8153 132.467 49.8153 133.714C49.8153 134.962 48.8107 135.973 47.5712 135.973C46.3319 135.973 45.3272 134.962 45.3272 133.714C45.3272 132.467 46.3319 131.456 47.5712 131.456Z" fill="#004236"/>
<path d="M52.0594 131.456C53.2988 131.456 54.3034 132.467 54.3034 133.714C54.3034 134.962 53.2988 135.973 52.0594 135.973C50.82 135.973 49.8153 134.962 49.8153 133.714C49.8153 132.467 50.82 131.456 52.0594 131.456Z" fill="#004236"/>
<path d="M56.5475 131.456C57.7869 131.456 58.7915 132.467 58.7915 133.714C58.7915 134.962 57.7869 135.973 56.5475 135.973C55.3081 135.973 54.3034 134.962 54.3034 133.714C54.3034 132.467 55.3081 131.456 56.5475 131.456Z" fill="#004236"/>
<path d="M61.0356 131.456C62.2751 131.456 63.2797 132.467 63.2797 133.714C63.2797 134.962 62.2751 135.973 61.0356 135.973C59.7963 135.973 58.7916 134.962 58.7916 133.714C58.7916 132.467 59.7963 131.456 61.0356 131.456Z" fill="#004236"/>
<path d="M65.5238 131.456C66.7632 131.456 67.7679 132.467 67.7679 133.714C67.7679 134.962 66.7632 135.973 65.5238 135.973C64.2844 135.973 63.2797 134.962 63.2797 133.714C63.2797 132.467 64.2844 131.456 65.5238 131.456Z" fill="#004236"/>
<path d="M83.4763 131.456C84.7157 131.456 85.7204 132.467 85.7204 133.714C85.7204 134.962 84.7157 135.973 83.4763 135.973C82.237 135.973 81.2322 134.962 81.2322 133.714C81.2322 132.467 82.237 131.456 83.4763 131.456Z" fill="#004236"/>
<path d="M87.9645 131.456C89.2039 131.456 90.2086 132.467 90.2086 133.714C90.2086 134.962 89.2039 135.973 87.9645 135.973C86.7251 135.973 85.7204 134.962 85.7204 133.714C85.7204 132.467 86.7251 131.456 87.9645 131.456Z" fill="#004236"/>
<path d="M92.4526 131.456C93.692 131.456 94.6967 132.467 94.6967 133.714C94.6967 134.962 93.692 135.973 92.4526 135.973C91.2133 135.973 90.2086 134.962 90.2086 133.714C90.2086 132.467 91.2133 131.456 92.4526 131.456Z" fill="#004236"/>
<path d="M96.9407 131.456C98.1802 131.456 99.1848 132.467 99.1848 133.714C99.1848 134.962 98.1802 135.973 96.9407 135.973C95.7014 135.973 94.6967 134.962 94.6967 133.714C94.6967 132.467 95.7014 131.456 96.9407 131.456Z" fill="#004236"/>
<path d="M101.429 131.456C102.668 131.456 103.673 132.467 103.673 133.714C103.673 134.962 102.668 135.973 101.429 135.973C100.19 135.973 99.1848 134.962 99.1848 133.714C99.1848 132.467 100.19 131.456 101.429 131.456Z" fill="#004236"/>
<path d="M105.917 131.456C107.156 131.456 108.161 132.467 108.161 133.714C108.161 134.962 107.156 135.973 105.917 135.973C104.678 135.973 103.673 134.962 103.673 133.714C103.673 132.467 104.678 131.456 105.917 131.456Z" fill="#004236"/>
<path d="M110.405 131.456C111.645 131.456 112.649 132.467 112.649 133.714C112.649 134.962 111.645 135.973 110.405 135.973C109.166 135.973 108.161 134.962 108.161 133.714C108.161 132.467 109.166 131.456 110.405 131.456Z" fill="#004236"/>
<path d="M123.87 131.456C125.109 131.456 126.114 132.467 126.114 133.714C126.114 134.962 125.109 135.973 123.87 135.973C122.63 135.973 121.625 134.962 121.625 133.714C121.625 132.467 122.63 131.456 123.87 131.456Z" fill="#004236"/>
<path d="M132.846 131.456C134.085 131.456 135.09 132.467 135.09 133.714C135.09 134.962 134.085 135.973 132.846 135.973C131.606 135.973 130.602 134.962 130.602 133.714C130.602 132.467 131.606 131.456 132.846 131.456Z" fill="#004236"/>
<path d="M137.334 131.456C138.573 131.456 139.578 132.467 139.578 133.714C139.578 134.962 138.573 135.973 137.334 135.973C136.095 135.973 135.09 134.962 135.09 133.714C135.09 132.467 136.095 131.456 137.334 131.456Z" fill="#004236"/>
<path d="M38.595 135.973C39.8344 135.973 40.839 136.984 40.839 138.231C40.839 139.478 39.8344 140.489 38.595 140.489C37.3556 140.489 36.3509 139.478 36.3509 138.231C36.3509 136.984 37.3556 135.973 38.595 135.973Z" fill="#004236"/>
<path d="M52.0594 135.973C53.2988 135.973 54.3034 136.984 54.3034 138.231C54.3034 139.478 53.2988 140.489 52.0594 140.489C50.82 140.489 49.8153 139.478 49.8153 138.231C49.8153 136.984 50.82 135.973 52.0594 135.973Z" fill="#004236"/>
<path d="M61.0356 135.973C62.2751 135.973 63.2797 136.984 63.2797 138.231C63.2797 139.478 62.2751 140.489 61.0356 140.489C59.7963 140.489 58.7916 139.478 58.7916 138.231C58.7916 136.984 59.7963 135.973 61.0356 135.973Z" fill="#004236"/>
<path d="M70.0119 135.973C71.2513 135.973 72.256 136.984 72.256 138.231C72.256 139.478 71.2513 140.489 70.0119 140.489C68.7725 140.489 67.7678 139.478 67.7678 138.231C67.7678 136.984 68.7725 135.973 70.0119 135.973Z" fill="#004236"/>
<path d="M74.5001 135.973C75.7395 135.973 76.7441 136.984 76.7441 138.231C76.7441 139.478 75.7395 140.489 74.5001 140.489C73.2607 140.489 72.256 139.478 72.256 138.231C72.256 136.984 73.2607 135.973 74.5001 135.973Z" fill="#004236"/>
<path d="M92.4526 135.973C93.692 135.973 94.6967 136.984 94.6967 138.231C94.6967 139.478 93.692 140.489 92.4526 140.489C91.2133 140.489 90.2086 139.478 90.2086 138.231C90.2086 136.984 91.2133 135.973 92.4526 135.973Z" fill="#004236"/>
<path d="M101.429 135.973C102.668 135.973 103.673 136.984 103.673 138.231C103.673 139.478 102.668 140.489 101.429 140.489C100.19 140.489 99.1848 139.478 99.1848 138.231C99.1848 136.984 100.19 135.973 101.429 135.973Z" fill="#004236"/>
<path d="M105.917 135.973C107.156 135.973 108.161 136.984 108.161 138.231C108.161 139.478 107.156 140.489 105.917 140.489C104.678 140.489 103.673 139.478 103.673 138.231C103.673 136.984 104.678 135.973 105.917 135.973Z" fill="#004236"/>
<path d="M114.893 135.973C116.133 135.973 117.137 136.984 117.137 138.231C117.137 139.478 116.133 140.489 114.893 140.489C113.654 140.489 112.649 139.478 112.649 138.231C112.649 136.984 113.654 135.973 114.893 135.973Z" fill="#004236"/>
<path d="M119.381 135.973C120.621 135.973 121.626 136.984 121.626 138.231C121.626 139.478 120.621 140.489 119.381 140.489C118.142 140.489 117.137 139.478 117.137 138.231C117.137 136.984 118.142 135.973 119.381 135.973Z" fill="#004236"/>
<path d="M43.0831 140.489C44.3225 140.489 45.3272 141.5 45.3272 142.747C45.3272 143.995 44.3225 145.006 43.0831 145.006C41.8438 145.006 40.8391 143.995 40.8391 142.747C40.8391 141.5 41.8438 140.489 43.0831 140.489Z" fill="#004236"/>
<path d="M52.0594 140.489C53.2988 140.489 54.3034 141.5 54.3034 142.747C54.3034 143.995 53.2988 145.006 52.0594 145.006C50.82 145.006 49.8153 143.995 49.8153 142.747C49.8153 141.5 50.82 140.489 52.0594 140.489Z" fill="#004236"/>
<path d="M56.5475 140.489C57.7869 140.489 58.7915 141.5 58.7915 142.747C58.7915 143.995 57.7869 145.006 56.5475 145.006C55.3081 145.006 54.3034 143.995 54.3034 142.747C54.3034 141.5 55.3081 140.489 56.5475 140.489Z" fill="#004236"/>
<path d="M65.5238 140.489C66.7632 140.489 67.7679 141.5 67.7679 142.747C67.7679 143.995 66.7632 145.006 65.5238 145.006C64.2844 145.006 63.2797 143.995 63.2797 142.747C63.2797 141.5 64.2844 140.489 65.5238 140.489Z" fill="#004236"/>
<path d="M74.5001 140.489C75.7395 140.489 76.7441 141.5 76.7441 142.747C76.7441 143.995 75.7395 145.006 74.5001 145.006C73.2607 145.006 72.256 143.995 72.256 142.747C72.256 141.5 73.2607 140.489 74.5001 140.489Z" fill="#004236"/>
<path d="M92.4526 140.489C93.692 140.489 94.6967 141.5 94.6967 142.747C94.6967 143.995 93.692 145.006 92.4526 145.006C91.2133 145.006 90.2086 143.995 90.2086 142.747C90.2086 141.5 91.2133 140.489 92.4526 140.489Z" fill="#004236"/>
<path d="M101.429 140.489C102.668 140.489 103.673 141.5 103.673 142.747C103.673 143.995 102.668 145.006 101.429 145.006C100.19 145.006 99.1848 143.995 99.1848 142.747C99.1848 141.5 100.19 140.489 101.429 140.489Z" fill="#004236"/>
<path d="M105.917 140.489C107.156 140.489 108.161 141.5 108.161 142.747C108.161 143.995 107.156 145.006 105.917 145.006C104.678 145.006 103.673 143.995 103.673 142.747C103.673 141.5 104.678 140.489 105.917 140.489Z" fill="#004236"/>
<path d="M110.405 140.489C111.645 140.489 112.649 141.5 112.649 142.747C112.649 143.995 111.645 145.006 110.405 145.006C109.166 145.006 108.161 143.995 108.161 142.747C108.161 141.5 109.166 140.489 110.405 140.489Z" fill="#004236"/>
<path d="M114.893 140.489C116.133 140.489 117.137 141.5 117.137 142.747C117.137 143.995 116.133 145.006 114.893 145.006C113.654 145.006 112.649 143.995 112.649 142.747C112.649 141.5 113.654 140.489 114.893 140.489Z" fill="#004236"/>
<path d="M119.381 140.489C120.621 140.489 121.626 141.5 121.626 142.747C121.626 143.995 120.621 145.006 119.381 145.006C118.142 145.006 117.137 143.995 117.137 142.747C117.137 141.5 118.142 140.489 119.381 140.489Z" fill="#004236"/>
<path d="M137.334 140.489C138.573 140.489 139.578 141.5 139.578 142.747C139.578 143.995 138.573 145.006 137.334 145.006C136.095 145.006 135.09 143.995 135.09 142.747C135.09 141.5 136.095 140.489 137.334 140.489Z" fill="#004236"/>
<path d="M146.31 140.489C147.55 140.489 148.554 141.5 148.554 142.747C148.554 143.995 147.55 145.006 146.31 145.006C145.071 145.006 144.066 143.995 144.066 142.747C144.066 141.5 145.071 140.489 146.31 140.489Z" fill="#004236"/>
<path d="M47.5712 145.006C48.8107 145.006 49.8153 146.017 49.8153 147.264C49.8153 148.511 48.8107 149.522 47.5712 149.522C46.3319 149.522 45.3272 148.511 45.3272 147.264C45.3272 146.017 46.3319 145.006 47.5712 145.006Z" fill="#004236"/>
<path d="M61.0356 145.006C62.2751 145.006 63.2797 146.017 63.2797 147.264C63.2797 148.511 62.2751 149.522 61.0356 149.522C59.7963 149.522 58.7916 148.511 58.7916 147.264C58.7916 146.017 59.7963 145.006 61.0356 145.006Z" fill="#004236"/>
<path d="M65.5238 145.006C66.7632 145.006 67.7679 146.017 67.7679 147.264C67.7679 148.511 66.7632 149.522 65.5238 149.522C64.2844 149.522 63.2797 148.511 63.2797 147.264C63.2797 146.017 64.2844 145.006 65.5238 145.006Z" fill="#004236"/>
<path d="M83.4763 145.006C84.7157 145.006 85.7204 146.017 85.7204 147.264C85.7204 148.511 84.7157 149.522 83.4763 149.522C82.237 149.522 81.2322 148.511 81.2322 147.264C81.2322 146.017 82.237 145.006 83.4763 145.006Z" fill="#004236"/>
<path d="M87.9645 145.006C89.2039 145.006 90.2086 146.017 90.2086 147.264C90.2086 148.511 89.2039 149.522 87.9645 149.522C86.7251 149.522 85.7204 148.511 85.7204 147.264C85.7204 146.017 86.7251 145.006 87.9645 145.006Z" fill="#004236"/>
<path d="M92.4526 145.006C93.692 145.006 94.6967 146.017 94.6967 147.264C94.6967 148.511 93.692 149.522 92.4526 149.522C91.2133 149.522 90.2086 148.511 90.2086 147.264C90.2086 146.017 91.2133 145.006 92.4526 145.006Z" fill="#004236"/>
<path d="M96.9407 145.006C98.1802 145.006 99.1848 146.017 99.1848 147.264C99.1848 148.511 98.1802 149.522 96.9407 149.522C95.7014 149.522 94.6967 148.511 94.6967 147.264C94.6967 146.017 95.7014 145.006 96.9407 145.006Z" fill="#004236"/>
<path d="M105.917 145.006C107.156 145.006 108.161 146.017 108.161 147.264C108.161 148.511 107.156 149.522 105.917 149.522C104.678 149.522 103.673 148.511 103.673 147.264C103.673 146.017 104.678 145.006 105.917 145.006Z" fill="#004236"/>
<path d="M114.893 145.006C116.133 145.006 117.137 146.017 117.137 147.264C117.137 148.511 116.133 149.522 114.893 149.522C113.654 149.522 112.649 148.511 112.649 147.264C112.649 146.017 113.654 145.006 114.893 145.006Z" fill="#004236"/>
<path d="M123.87 145.006C125.109 145.006 126.114 146.017 126.114 147.264C126.114 148.511 125.109 149.522 123.87 149.522C122.63 149.522 121.625 148.511 121.625 147.264C121.625 146.017 122.63 145.006 123.87 145.006Z" fill="#004236"/>
<path d="M128.358 145.006C129.597 145.006 130.602 146.017 130.602 147.264C130.602 148.511 129.597 149.522 128.358 149.522C127.118 149.522 126.114 148.511 126.114 147.264C126.114 146.017 127.118 145.006 128.358 145.006Z" fill="#004236"/>
<path d="M21.1367 0.481689H11.1719C6.31543 0.481689 2.20107 3.71058 0.885638 8.12378C0.749603 8.5803 0.643413 9.04948 0.569584 9.52908C0.488214 10.0583 0.445801 10.6002 0.445801 11.1519V21.4178C0.445801 27.3042 5.25888 32.0911 11.1719 32.0911L16.1543 32.0921L21.1367 32.0908C27.0494 32.0908 31.8628 27.3039 31.8628 21.4174V11.1519C31.8628 5.26827 27.0497 0.481689 21.1367 0.481689ZM27.1502 21.4178C27.1502 24.6881 24.4528 27.3488 21.1354 27.3488L16.1543 27.3498L11.1731 27.3485C7.85581 27.3485 5.15835 24.6877 5.15835 21.4178V11.1519C5.15835 10.1304 5.42162 9.16867 5.88502 8.32833C6.33114 7.51992 6.96231 6.8247 7.72228 6.2983C8.69935 5.62141 9.88911 5.22401 11.1716 5.22401H21.1367C24.4528 5.22401 27.1502 7.88318 27.1502 11.1519V21.4178Z" fill="#004236"/>
<path d="M137.828 0.480469H127.863C123.007 0.480469 118.893 3.70936 117.577 8.12256C117.441 8.57908 117.335 9.04826 117.261 9.52786C117.18 10.0571 117.137 10.599 117.137 11.1507V21.4165C117.137 27.303 121.95 32.0899 127.863 32.0899L132.846 32.0909L137.828 32.0896C143.741 32.0896 148.554 27.3027 148.554 21.4162V11.1507C148.554 5.26705 143.741 0.480469 137.828 0.480469ZM143.842 21.4165C143.842 24.6868 141.144 27.3476 137.827 27.3476L132.846 27.3485L127.865 27.3473C124.547 27.3473 121.85 24.6865 121.85 21.4165V11.1507C121.85 10.1292 122.113 9.16745 122.577 8.32711C123.023 7.5187 123.654 6.82348 124.414 6.29708C125.391 5.62019 126.581 5.22279 127.863 5.22279H137.828C141.144 5.22279 143.842 7.88196 143.842 11.1507V21.4165Z" fill="#004236"/>
<path d="M21.1367 117.909H11.1719C6.31543 117.909 2.20107 121.138 0.885638 125.551C0.749603 126.008 0.643413 126.477 0.569584 126.957C0.488214 127.486 0.445801 128.028 0.445801 128.58V138.845C0.445801 144.732 5.25888 149.519 11.1719 149.519L16.1543 149.52L21.1367 149.518C27.0494 149.518 31.8628 144.732 31.8628 138.845V128.58C31.8628 122.696 27.0497 117.909 21.1367 117.909ZM27.1502 138.845C27.1502 142.116 24.4528 144.776 21.1354 144.776L16.1543 144.777L11.1731 144.776C7.85581 144.776 5.15835 142.115 5.15835 138.845V128.58C5.15835 127.558 5.42162 126.596 5.88502 125.756C6.33114 124.948 6.96231 124.252 7.72228 123.726C8.69935 123.049 9.88911 122.652 11.1716 122.652H21.1367C24.4528 122.652 27.1502 125.311 27.1502 128.58V138.845Z" fill="#004236"/>
<path d="M16.0223 22.7947C19.6674 22.7947 22.6225 19.821 22.6225 16.1528C22.6225 12.4845 19.6674 9.51086 16.0223 9.51086C12.3771 9.51086 9.42206 12.4845 9.42206 16.1528C9.42206 19.821 12.3771 22.7947 16.0223 22.7947Z" fill="#004236"/>
<path d="M132.714 22.7947C136.359 22.7947 139.314 19.821 139.314 16.1528C139.314 12.4845 136.359 9.51086 132.714 9.51086C129.069 9.51086 126.114 12.4845 126.114 16.1528C126.114 19.821 129.069 22.7947 132.714 22.7947Z" fill="#004236"/>
<path d="M16.0223 140.224C19.6674 140.224 22.6225 137.25 22.6225 133.582C22.6225 129.913 19.6674 126.94 16.0223 126.94C12.3771 126.94 9.42206 129.913 9.42206 133.582C9.42206 137.25 12.3771 140.224 16.0223 140.224Z" fill="#004236"/>
<g clip-path="url(#clip1)">
<path d="M81.1182 57.3987C80.6586 57.4812 80.2428 57.7239 79.9442 58.0839C79.6455 58.444 79.4834 58.8982 79.4862 59.3664C79.4732 59.7974 79.6073 60.2199 79.8663 60.5639C80.1254 60.908 80.4938 61.153 80.9107 61.2585C88.8912 64.2478 93.6738 72.4782 90.9193 80.1786C89.6972 83.6056 87.4486 86.5698 84.4817 88.6656C81.5147 90.7614 77.9743 91.8864 74.3452 91.8864C70.7161 91.8864 67.1756 90.7614 64.2086 88.6656C61.2416 86.5698 58.9931 83.6056 57.7709 80.1786C55.0164 72.4687 59.7896 64.2384 67.7796 61.2585C68.1964 61.153 68.5649 60.908 68.8239 60.5639C69.083 60.2199 69.2171 59.7974 69.204 59.3664C69.2043 58.9009 69.0407 58.4502 68.7422 58.0938C68.4437 57.7373 68.0293 57.4978 67.5721 57.4177C64.8553 56.9163 55.6579 63.3208 55.7333 74.2945C55.7333 79.2397 57.6922 83.9823 61.1791 87.4791C64.666 90.9759 69.3951 92.9403 74.3263 92.9403C79.2574 92.9403 83.9866 90.9759 87.4735 87.4791C90.9603 83.9823 92.9192 79.2397 92.9192 74.2945C92.9947 63.3208 83.835 56.9163 81.1182 57.3987Z" fill="#004236"/>
<path d="M90.4383 78.7503C88.6272 76.0958 86.1291 73.9862 83.2124 72.6485C82.8979 72.5442 82.6257 72.3401 82.4368 72.0671C82.2479 71.7941 82.1526 71.4669 82.1653 71.1349C82.164 70.9209 82.2055 70.7089 82.2874 70.5112C82.3693 70.3137 82.4899 70.1346 82.6421 69.9846C82.7943 69.8347 82.9749 69.7168 83.1734 69.6382C83.3718 69.5596 83.584 69.5216 83.7972 69.5267C85.5896 69.5645 89.41 74.2946 90.4383 78.7503Z" fill="#004236"/>
<path d="M82.6181 63.4532C82.3816 63.4507 82.1469 63.4954 81.9278 63.5847C81.7087 63.6741 81.5095 63.8062 81.3418 63.9735C81.1741 64.1408 81.0413 64.3398 80.9511 64.5591C80.8609 64.7784 80.8151 65.0135 80.8164 65.2507C80.798 65.6114 80.8964 65.9685 81.097 66.2686C81.2976 66.5687 81.5896 66.7957 81.9295 66.9156C84.023 67.8715 85.8926 69.2583 87.417 70.9858C88.9414 72.7134 90.0864 74.7432 90.7778 76.9433C91.6268 69.5645 84.967 63.5194 82.6181 63.4532Z" fill="#004236"/>
<path d="M58.2426 78.7503C60.0572 76.0954 62.5585 73.9861 65.4778 72.6485C65.7924 72.5442 66.0646 72.3401 66.2535 72.0671C66.4423 71.7941 66.5377 71.4669 66.525 71.1349C66.5213 70.9242 66.4761 70.7162 66.3919 70.523C66.3078 70.3298 66.1864 70.1552 66.0348 70.0093C65.8831 69.8633 65.7041 69.7489 65.5082 69.6726C65.3122 69.5962 65.1032 69.5595 64.893 69.5645C63.1007 69.5645 59.2708 74.2946 58.2426 78.7503Z" fill="#004236"/>
<path d="M66.1099 63.4532C66.346 63.4507 66.5803 63.4955 66.7989 63.5849C67.0175 63.6743 67.216 63.8067 67.383 63.9741C67.5499 64.1415 67.6818 64.3406 67.771 64.5598C67.8602 64.779 67.9048 65.0139 67.9023 65.2507C67.9223 65.6118 67.8244 65.9695 67.6236 66.27C67.4227 66.5703 67.1298 66.797 66.7892 66.9156C64.6978 67.8731 62.8302 69.2605 61.3075 70.9879C59.7849 72.7154 58.6411 74.7443 57.9502 76.9433C57.0635 69.5645 63.7517 63.5194 66.1099 63.4532Z" fill="#004236"/>
</g>
</g>
<defs>
<clipPath id="clip0">
<rect width="149" height="150" fill="white"/>
</clipPath>
<clipPath id="clip1">
<rect width="37.5343" height="37.7715" fill="white" transform="translate(55.7329 56.1144)"/>
</clipPath>
</defs>
</svg>
