<svg width="224" height="242" viewBox="0 0 224 242" fill="none" xmlns="http://www.w3.org/2000/svg">
<path opacity="0.05" d="M-53.9905 6.81062C-53.9905 3.21487 -51.7637 0.184181 -52.3172 -3.46293C-52.5517 -5.9169 -52.6376 -8.38274 -52.5746 -10.847C-52.5746 -11.9129 -52.5746 -12.9789 -52.7033 -14.0447C-52.9092 -17.5506 -50.7081 -19.6823 -48.1336 -21.4545C-46.136 -22.9077 -44.798 -25.0924 -44.4134 -27.5288C-43.9886 -29.5064 -44.04 -31.6124 -43.538 -33.5644C-42.4696 -37.6738 -41.5686 -41.9887 -37.488 -44.403C-36.0053 -45.1689 -34.4307 -45.7429 -32.8023 -46.111C-31.1418 -46.5605 -29.4296 -46.7659 -27.7562 -47.1255C-27.1522 -47.2236 -26.5769 -47.4514 -26.07 -47.7933C-23.1847 -49.8712 -19.6886 -50.9328 -16.1322 -50.8111C-13.6199 -51 -11.096 -50.97 -8.58892 -50.7213C-4.15591 -50.1609 0.176849 -48.9851 4.28366 -47.2283C4.91278 -46.901 5.62494 -46.7669 6.33035 -46.843C8.03384 -47.1297 9.78455 -46.8782 11.3378 -46.1239C13.074 -45.34 14.8635 -44.6791 16.6928 -44.1462C17.3151 -43.9188 17.9893 -43.8729 18.6368 -44.0139C19.2842 -44.1549 19.878 -44.477 20.3486 -44.9424C22.1469 -46.7751 24.3515 -48.1606 26.7849 -48.9876C28.4841 -49.5526 30.1189 -50.2718 31.8052 -50.8882C32.3716 -51.0808 33.0924 -50.9909 33.6331 -51.1322C34.3767 -51.3317 35.1076 -51.5761 35.8215 -51.8642C36.7226 -52.1852 37.5721 -52.6347 38.4989 -52.8659C39.7862 -53.2126 41.1892 -53.3025 42.4636 -53.7134C44.7807 -54.4454 46.866 -53.6364 48.8999 -52.8402C52.53 -51.4404 56.1087 -49.9122 59.6615 -48.3326C62.7638 -46.9457 65.8531 -45.4946 68.8395 -43.8894C69.8576 -43.2091 70.7322 -42.3366 71.414 -41.321C72.5317 -40.0767 73.4996 -38.7062 74.2977 -37.2373C75.4176 -34.7973 76.8721 -32.2289 76.9493 -29.6734C77.0209 -27.7075 77.5033 -25.7782 78.3656 -24.0091C79.2279 -22.24 80.4511 -20.67 81.9568 -19.3998C85.6512 -16.0095 89.0366 -12.311 92.6667 -8.8437C95.872 -5.80016 99.2833 -2.91073 103.557 -1.45959C105.833 -0.738808 108.199 -0.34111 110.585 -0.278156C114.859 -0.0855255 118 1.80224 120.961 4.78157C123.801 7.91334 127.079 10.6208 130.692 12.8206C131.688 13.2892 132.785 13.5053 133.885 13.4499C135.899 13.458 137.908 13.2644 139.883 12.872C142.831 12.1913 145.728 11.2282 148.624 10.3036C149.428 10.0996 150.184 9.73792 150.847 9.23964C151.51 8.74136 152.067 8.11646 152.486 7.40129C152.974 6.74816 153.576 6.18721 154.262 5.74471C157.506 3.04791 158.909 -0.00845337 155.91 -4.02798C154.034 -6.86872 152.315 -9.80969 150.761 -12.8376C150.268 -13.7814 149.609 -14.6295 148.817 -15.3417C147.457 -16.3245 146.034 -17.2168 144.556 -18.0129C143.456 -18.8195 142.603 -19.9163 142.094 -21.1799C141.585 -22.4436 141.439 -23.824 141.673 -25.1658C141.766 -25.704 141.699 -26.2578 141.48 -26.7582C140.387 -28.7126 139.911 -30.9506 140.115 -33.1792C140.115 -33.9754 139.755 -34.8358 139.871 -35.6192C139.954 -36.4077 140.252 -37.1586 140.73 -37.7919C141.208 -38.4252 141.85 -38.917 142.587 -39.2149C146.587 -41.0937 150.915 -42.1797 155.33 -42.4125C156.734 -42.4125 158.15 -42.4125 159.54 -42.4125C160.997 -42.7156 162.471 -42.9257 163.955 -43.0418C168.962 -42.8491 173.828 -42.1172 177.458 -38.1105C177.716 -37.8151 178.128 -37.661 178.398 -37.3785C179.351 -36.3768 180.329 -35.388 181.204 -34.3221C183.444 -31.6082 185.65 -28.8728 187.821 -26.1161C189.443 -24.0486 190.975 -21.904 192.558 -19.8108C193.24 -18.899 193.961 -18.0129 194.669 -17.1268C195.15 -16.6534 195.581 -16.1328 195.956 -15.5729C196.907 -13.7224 198.367 -12.181 200.166 -11.1296C203.062 -9.37026 206.023 -7.68799 208.816 -5.77454C210.985 -4.24918 213.05 -2.58024 214.995 -0.779011C216.474 0.541908 217.816 2.00916 218.998 3.60013C220.144 5.19253 220.788 7.13166 221.959 8.7369C224.057 11.5621 222.873 14.1048 221.637 16.6732C220.993 18.0948 219.86 19.2391 218.443 19.8988C217.026 20.5585 215.419 20.6898 213.914 20.2689C212.626 19.9864 211.893 20.6285 212.459 21.7458C213.37 23.524 214.397 25.24 215.536 26.8826C216.411 28.1668 217.582 29.3225 218.419 30.6452C220.762 34.3001 222.582 38.2638 223.825 42.4213C224.016 43.1183 224.051 43.8484 223.929 44.5605C223.806 45.2726 223.53 45.9494 223.118 46.5435C220.886 50.0794 218.625 53.5852 216.334 57.0611C214.789 59.4112 213.154 61.7227 211.532 64.0343C211.18 64.5313 210.784 64.9955 210.348 65.4211C208.906 66.7952 207.49 68.2207 205.945 69.5049C204.714 70.4688 203.424 71.3565 202.084 72.1631C199.406 73.884 196.613 75.5021 194.592 78.0063C193.568 79.374 193.021 81.0381 193.034 82.7449C193.026 83.0513 192.992 83.3562 192.931 83.6567C192.259 86.4193 191.727 89.2138 191.335 92.0296C190.961 94.0114 191.222 96.0604 192.082 97.8856C192.489 98.851 192.804 99.853 193.021 100.878C193.369 101.995 193.729 103.112 194.154 104.191C195.738 108.198 194.154 111.704 192.429 115.158C192.067 115.683 191.592 116.122 191.039 116.442C189.671 117.472 188.239 118.416 186.753 119.267C185.728 119.755 184.634 120.08 183.509 120.231C182.341 120.337 181.231 120.783 180.316 121.515C179.266 122.381 178.106 123.107 176.866 123.672C175.064 124.61 173.378 123.891 171.91 122.863C169.814 121.529 167.458 120.653 164.998 120.295C164.779 120.295 164.496 120.295 164.38 120.102C162.805 118.676 161.401 117.073 160.196 115.325C159.321 113.745 159.282 111.729 158.909 109.906C158.768 109.315 158.536 108.75 158.356 108.159C158.034 107.055 157.725 105.937 157.403 104.833C157.197 104.152 156.978 103.485 156.682 102.573C154.575 103.808 152.538 105.158 150.58 106.618C148.341 108.467 147.684 111.216 147.375 113.964C147.227 115.741 147.201 117.525 147.298 119.306C147.327 120.043 147.489 120.77 147.774 121.45C149.538 125.74 151.314 130.016 153.181 134.292C153.605 135.268 154.468 136.065 154.996 137.028C156.283 139.416 157.57 141.831 158.626 144.296C159.913 147.237 161.2 150.255 162.488 153.286C163.649 156.162 163.927 159.318 163.286 162.352C163.115 164.2 163.162 166.062 163.427 167.9C163.569 169.582 163.917 171.239 164.161 172.921C164.304 174.482 164.531 176.034 164.843 177.57C165.037 178.312 165.051 179.089 164.883 179.837C164.715 180.586 164.371 181.283 163.878 181.872C163.041 183.277 161.732 184.342 160.183 184.877C159.499 185.163 158.851 185.529 158.253 185.968C157.043 186.662 155.781 187.253 154.597 188.023C152.808 189.127 150.529 189.564 149.177 191.234C148.101 192.592 147.234 194.102 146.603 195.715C144.711 200.338 142.908 205 141.261 209.7C140.998 211.084 140.899 212.493 140.965 213.9C140.92 215.067 140.743 216.226 140.437 217.354C139.678 219.524 140.643 221.297 141.454 223.184C142.522 225.676 143.41 228.231 144.363 230.748C144.424 230.915 144.467 231.087 144.492 231.262C144.917 234.678 141.106 238.248 137.631 237.824C135.679 237.452 133.68 237.391 131.709 237.644C129.7 238.25 127.788 239.141 126.032 240.29C122.737 242.139 119.506 242.743 115.928 240.816C113.775 239.597 111.473 238.66 109.079 238.03C107.967 237.856 106.832 237.917 105.745 238.209C104.658 238.501 103.645 239.017 102.772 239.725C102.061 240.301 101.303 240.816 100.506 241.266C99.8559 241.501 99.1609 241.589 98.4722 241.523C97.3256 241.355 96.1685 241.269 95.0096 241.266C94.3757 241.376 93.7234 241.298 93.1332 241.042C92.5431 240.787 92.0408 240.364 91.6884 239.827C90.2867 238.05 89.0623 236.14 88.0326 234.126C86.7453 231.313 83.7461 229.939 81.326 228.103C78.906 226.266 76.7048 224.571 74.3748 222.825C74.0151 222.509 73.6066 222.253 73.1649 222.067C72.0488 221.607 71.0405 220.92 70.2041 220.051C68.6208 218.677 67.9642 216.905 66.9086 215.274C65.5589 213.221 63.5031 211.732 61.1289 211.087C59.8416 210.715 58.4514 210.509 57.1384 210.098C55.314 209.555 53.5183 208.921 51.7578 208.198C51.1282 207.963 50.5838 207.545 50.1958 206.998C49.8078 206.45 49.594 205.799 49.5822 205.129C49.4399 202.228 49.5302 199.321 49.8525 196.435C50.6169 191.216 53.2959 186.466 57.3702 183.105C60.4339 180.472 63.1628 177.454 65.9947 174.565C70.7061 169.762 75.2115 164.792 81.7121 162.031C84.7372 160.747 87.7108 159.463 90.7229 158.178C93.5636 157.055 95.8446 154.858 97.0692 152.066C97.3524 151.436 97.597 150.781 97.8673 150.127C97.6613 150.127 97.5069 149.998 97.4168 150.037C93.9283 151.578 90.427 153.08 86.99 154.711C85.7611 155.301 84.6144 156.048 83.5787 156.933C82.0618 158.044 80.2929 158.763 78.4297 159.026C77.7987 159.235 77.2346 159.607 76.7949 160.105C75.1729 161.723 73.6926 163.521 71.9548 165.01C71.1144 165.568 70.0919 165.784 69.0971 165.614C65.165 164.944 61.3527 163.702 57.782 161.928C56.9516 161.38 56.202 160.719 55.5551 159.963C53.5985 158.114 51.5517 156.355 49.7495 154.39C47.0206 151.398 43.1589 150.396 39.8635 148.406C36.98 146.672 33.5558 146.338 30.7496 144.63C26.6561 142.152 24.4293 137.914 26.5146 133.56C27.1068 132.276 27.5057 130.992 28.1364 129.31C27.6473 129.644 27.4413 129.708 27.3512 129.862C25.2293 133.227 22.3006 136.012 18.8296 137.965C15.8564 139.842 12.6261 141.278 9.23957 142.229C8.60905 142.427 7.9973 142.681 7.41161 142.986C2.28823 145.062 -2.58633 147.702 -7.12143 150.859C-8.56316 151.95 -10.5584 152.335 -12.2705 153.055L-12.5151 153.132C-16.2997 154.557 -17.9859 154.12 -20.4832 150.936C-20.8804 150.434 -21.4012 150.044 -21.9945 149.803C-22.5878 149.563 -23.2335 149.479 -23.8687 149.561C-24.7319 149.63 -25.5912 149.741 -26.4432 149.895C-29.6742 150.332 -32.8795 150.794 -36.1363 151.18C-36.6181 151.256 -37.1091 151.256 -37.5909 151.18C-41.1456 150.409 -44.459 148.787 -47.2453 146.454C-49.4071 144.86 -51.787 143.584 -54.3124 142.665C-56.8452 141.755 -59.198 140.407 -61.2636 138.684C-62.7909 137.568 -64.4302 136.612 -66.1552 135.833C-68.0604 134.768 -70.2744 134.164 -71.7032 132.315C-71.9473 132.057 -72.2598 131.875 -72.6042 131.788C-74.7926 131.121 -75.4235 129.323 -75.6294 127.422C-75.8869 125.059 -75.8612 122.658 -75.977 120.269C-75.9656 119.885 -76.0543 119.504 -76.2344 119.165C-78.1782 116.339 -80.0961 113.553 -82.1171 110.753C-83.5073 108.788 -84.9363 106.901 -86.2622 104.833C-87.8326 102.457 -86.9701 100.184 -85.6699 98.1039C-83.842 95.2016 -81.9112 92.3507 -79.8773 89.5896C-77.9342 86.8512 -75.0386 84.933 -71.7548 84.2089C-69.8239 83.7722 -67.893 83.3357 -65.9621 82.822C-65.2685 82.5152 -64.6979 81.9856 -64.3409 81.3176C-63.984 80.6497 -63.8613 79.8819 -63.9926 79.1364C-64.1084 78.8282 -64.5332 78.6098 -64.8164 78.353C-66.1938 77.0688 -67.5325 75.8873 -68.9356 74.693C-69.5979 74.1252 -70.3038 73.6099 -71.0467 73.152C-75.5889 70.3427 -79.8595 67.1184 -83.8035 63.5205C-85.6314 61.8511 -86.3779 59.5395 -87.1246 57.3307C-88.1415 54.4413 -88.9524 51.5005 -90.008 48.6368C-91.0635 45.773 -92.5826 42.6653 -93.5995 39.6474C-94.1661 37.7716 -94.5963 35.8575 -94.8868 33.9199C-95.2729 31.9679 -95.6334 30.0673 -95.878 28.0254C-96.1076 26.623 -96.0123 25.1867 -95.5995 23.8266C-95.1867 22.4666 -94.4674 21.2189 -93.4966 20.179C-91.9261 18.5224 -90.0725 17.1098 -88.3475 15.5816C-88.1414 15.4148 -87.9594 15.2204 -87.8068 15.0038C-85.4383 10.9714 -81.2418 9.70004 -77.1741 8.24891C-76.676 8.05057 -76.1338 7.98848 -75.6037 8.0691C-74.381 8.31067 -73.1203 8.2842 -71.9089 7.9915C-70.6975 7.6988 -69.5644 7.14686 -68.588 6.37395C-64.3529 3.49736 -60.0406 3.94685 -55.5867 5.59061C-54.8863 5.9475 -54.226 6.37801 -53.6172 6.87481L-53.9905 6.81062ZM-5.2292 106.027C-5.2292 105.912 -5.31927 105.796 -5.35789 105.693C-5.75694 104.576 -6.23328 103.497 -6.52934 102.367C-7.8166 97.6416 -10.5842 93.7633 -13.4677 89.9364C-15.7206 87.2832 -17.3951 84.1912 -18.3849 80.8571C-19.3375 76.7991 -19.6722 72.5998 -20.3674 68.4775C-21.2031 63.7093 -20.8719 58.8103 -19.4019 54.1973C-19.1187 53.2984 -18.99 52.3609 -18.7841 51.4491C-19.2499 51.8625 -19.6152 52.3764 -19.8524 52.9517L-21.6675 56.8042C-22.0239 57.4617 -22.3419 58.1392 -22.6201 58.8332C-22.8389 59.4753 -22.8646 60.1945 -23.0577 60.8623C-23.6884 63.0197 -24.4479 65.1386 -24.9757 67.2832C-25.1711 68.5596 -25.2957 69.8457 -25.349 71.1358C-25.9798 76.4524 -23.9717 81.2424 -21.7833 85.827C-19.4663 90.6684 -15.6303 94.5723 -12.0904 98.6689C-10.8804 100.039 -9.64458 101.4 -8.38307 102.753C-7.44337 103.754 -6.46507 104.73 -5.49963 105.719L-5.21632 105.989L-5.15205 106.079L-5.2292 105.989V106.027ZM138.146 54.6211L138.403 54.7623L138.287 54.5312L138.017 54.4028L138.146 54.6211ZM-69.7852 52.3481H-69.8881H-69.7981L-69.3734 51.95L-66.5155 50.9098L-66.8245 50.3319L-69.399 51.9243L-69.7852 52.3609V52.3481ZM171.035 -19.5539H170.932L171.061 -19.6438C171.532 -19.6118 172.005 -19.6118 172.477 -19.6438C174.19 -20.0462 175.985 -19.9208 177.626 -19.2842C179.581 -18.4706 181.585 -17.7758 183.624 -17.2038C184.803 -16.9736 186.002 -16.8532 187.203 -16.8443L187.409 -17.2295C187.122 -17.8771 186.74 -18.4787 186.276 -19.0146C183.125 -21.6319 179.076 -22.9216 174.987 -22.6103C174.638 -22.6169 174.296 -22.5135 174.009 -22.3149C172.992 -21.4288 172.026 -20.4914 171.048 -19.5668L171.035 -19.5539ZM-39.6762 130.44C-38.5821 132.122 -37.4364 133.766 -36.4065 135.487C-34.6392 138.054 -33.8287 141.157 -34.1153 144.258C-34.4372 146.531 -33.9995 147.019 -31.7082 146.916C-30.7685 146.916 -29.8287 146.685 -28.7474 146.557C-28.9614 145.425 -29.2936 144.319 -29.7386 143.256C-31.3808 140.214 -33.1899 137.264 -35.1579 134.421C-36.4946 132.922 -37.9925 131.574 -39.6247 130.401C-39.6817 130.311 -39.7464 130.225 -39.8178 130.145C-39.8178 130.145 -39.9079 130.145 -39.9594 130.234L-39.6762 130.44ZM196.24 54.3129C196.24 54.878 196.162 55.4301 196.162 55.9952C196.162 57.1638 196.162 58.3324 196.162 59.501C196.034 62.0694 195.776 64.779 195.699 67.4245C195.776 68.2029 195.958 68.9675 196.24 69.6975C202.805 68.2977 205.559 64.7919 206.473 59.6551C202.882 58.1783 198.75 57.9728 196.33 54.2743L196.201 54.1202C196.207 54.1843 196.207 54.2488 196.201 54.3129H196.24ZM147.749 68.439C147.749 68.8243 147.749 69.2095 147.749 69.6076C147.877 72.176 148.173 74.7444 148.096 77.3128C147.938 80.322 148.137 83.3394 148.688 86.3021C149.59 90.5835 151.007 94.7404 152.91 98.6818C152.991 98.816 153.101 98.9298 153.233 99.0145C153.365 99.0991 153.514 99.1523 153.67 99.1698C153.94 99.1698 154.416 98.9129 154.442 98.7075C155.665 94.0155 155.509 89.0715 153.992 84.4657C153.091 80.8315 152.164 77.1972 150.915 73.6657C150.07 71.8209 149.049 70.0619 147.864 68.4133L147.671 68.2721L147.787 68.4519L147.749 68.439ZM16.0619 -34.5661C16.0975 -32.491 16.2567 -30.4198 16.5384 -28.3635C17.3107 -24.2669 15.7918 -20.7482 14.1054 -17.2552C12.7477 -13.9613 10.9178 -10.8813 8.6731 -8.1117C6.98679 -6.26246 7.56618 -3.71978 6.87106 -1.5495C6.55219 -0.470776 6.41294 0.652813 6.45905 1.77652C6.70646 4.91449 7.58188 7.97115 9.03356 10.7659C9.13654 10.0724 9.201 9.61015 9.27823 9.135C9.43995 6.93605 9.8238 4.75901 10.4239 2.63699C11.5824 -0.393711 13.436 -3.14191 14.6718 -6.13408C15.9774 -9.24974 17.0404 -12.4611 17.8512 -15.7398C18.3946 -18.4088 18.7005 -21.1204 18.7653 -23.8431C18.9763 -26.1152 18.9158 -28.4043 18.5851 -30.6621C18.3276 -32.0619 17.1176 -33.2306 16.3324 -34.5918C16.252 -34.707 16.1788 -34.8271 16.1135 -34.9514V-34.5019L16.0619 -34.5661ZM125.878 228.039H125.994C125.994 228.039 125.994 228.039 125.994 227.961L125.839 228.051C125.337 227.897 124.81 227.782 124.32 227.589C121.321 226.42 118.219 225.432 115.31 223.993C111.641 222.17 108.204 219.897 104.574 217.97C103.094 217.178 101.494 216.631 99.8368 216.352C97.3653 215.967 94.8166 216.031 92.3193 215.749C90.9532 215.641 89.6116 215.325 88.3415 214.811C82.8578 212.346 77.7603 209.328 73.847 204.641C72.8451 203.65 71.6943 202.823 70.4359 202.188C69.1844 201.446 67.8954 200.768 66.5741 200.159C64.5145 199.17 62.4676 198.117 60.3308 197.333C58.5801 196.704 57.7564 197.334 57.4088 199.208C57.3773 199.424 57.3212 199.635 57.2415 199.838C56.8424 200.749 57.0741 201.263 58.1296 201.546C58.8841 201.783 59.5997 202.129 60.2536 202.573C61.7468 203.485 63.1499 204.576 64.6946 205.385C66.8443 206.516 69.097 207.414 71.2854 208.467C72.9717 209.276 74.8897 209.662 76.0997 211.344C77.5414 213.322 79.2406 215.12 80.6309 217.136C82.5977 219.785 85.5107 221.578 88.7664 222.144C90.5621 222.61 92.4077 222.855 94.2629 222.876C97.1978 222.876 100.133 222.427 103.081 222.234C104.195 222.183 105.308 222.361 106.351 222.757C107.394 223.152 108.344 223.756 109.144 224.533C111.598 226.944 114.824 228.417 118.257 228.693C120.843 228.647 123.423 228.432 125.981 228.051L125.878 228.039ZM11.1189 134.716C11.0288 134.78 10.9387 134.845 11.1189 134.716C12.6508 133.034 14.2985 131.429 15.7016 129.644C17.1047 127.859 18.0702 125.997 19.3703 124.263C20.9717 122.276 22.1484 119.982 22.8281 117.524C23.5077 115.066 23.6758 112.495 23.3221 109.97C22.8458 106.798 22.035 103.664 21.5072 100.492C21.0789 97.6193 19.8927 94.9114 18.0701 92.646C16.165 90.3473 14.2084 88.1385 12.1488 85.9169C10.6684 84.2859 9.17519 82.6807 7.61761 81.114C5.4679 78.9437 3.29246 76.7734 1.05263 74.693C-1.1872 72.6126 -3.49145 70.1213 -4.31529 66.8723C-4.41844 66.548 -4.55197 66.2341 -4.71426 65.9348L-5.07474 66.0632C-4.77867 67.2318 -4.55988 68.4133 -4.16083 69.5563C-3.70596 71.2429 -3.05807 72.8716 -2.22994 74.4105C-0.97509 76.3147 0.432663 78.1142 1.97942 79.7912C5.17181 83.387 6.98683 87.7147 9.04645 91.914C10.7328 95.3685 12.3032 98.8744 13.8866 102.393C14.3368 103.335 14.6572 104.332 14.8391 105.36C15.3798 109.071 15.8689 112.782 16.268 116.494C16.6753 120.933 15.7809 125.394 13.6934 129.335C12.8052 131.12 11.9814 132.944 11.1189 134.742V134.716ZM106.376 164.895C106.608 165.152 106.852 165.396 107.071 165.652C108.185 166.756 109.209 167.945 110.135 169.21C111.821 171.906 112.954 175.001 114.962 177.428C117.371 180.32 120.125 182.907 123.162 185.134C125.675 186.763 128.344 188.14 131.13 189.243C132.62 190.011 134.198 190.598 135.829 190.99C139.175 191.657 142.368 190.347 145.625 189.911C145.876 189.836 146.092 189.672 146.23 189.449C147.517 187.342 149.847 186.598 151.906 185.596C153.966 184.594 156.039 183.721 157.442 181.641C157.923 181.093 158.269 180.441 158.455 179.737C158.64 179.033 158.659 178.295 158.51 177.583C158.317 176.876 158.253 176.157 158.111 175.322C157.69 175.785 157.234 176.215 156.746 176.607C154.404 178.212 151.984 179.727 149.667 181.358C148.427 182.244 146.993 182.823 145.484 183.046C143.975 183.269 142.435 183.131 140.99 182.642C140.27 182.437 139.523 182.296 138.815 182.039C136.442 181.366 134.127 180.507 131.89 179.47C128.671 177.749 125.608 175.772 122.287 174.179C119.492 172.853 116.872 171.188 114.486 169.222C112.054 167.323 109.31 165.858 106.376 164.895L105.913 164.522L105.81 164.676L106.376 164.895ZM159.939 57.5876C159.939 57.7674 159.939 57.9343 159.939 58.1141C160.544 61.6713 161.123 65.2413 161.754 68.7986C162.015 71.2442 162.801 73.605 164.058 75.7204C164.467 76.4451 164.829 77.1959 165.139 77.9677C166.092 79.8812 166.774 81.9359 168.602 83.3356C169.522 84.012 170.349 84.8065 171.061 85.6986C172.795 87.9716 174.103 90.5383 174.923 93.2753C176.21 97.4489 177.664 101.558 179.016 105.706C179.603 107.487 180.56 109.125 181.825 110.512C183.089 111.9 184.632 113.006 186.353 113.758C186.542 113.877 186.756 113.949 186.979 113.966C187.201 113.983 187.424 113.946 187.629 113.857C187.833 113.769 188.013 113.631 188.152 113.457C188.291 113.283 188.385 113.078 188.426 112.859C188.725 112.034 188.894 111.168 188.928 110.291C189.069 106.785 187.641 103.562 186.675 100.3C185.844 98.1428 184.769 96.0876 183.47 94.1742C182.332 91.7623 180.896 89.5017 179.196 87.4451C177.468 85.5723 175.852 83.5998 174.356 81.5378C172.427 79.2959 171.236 76.5161 170.945 73.5758C170.919 71.968 170.703 70.3688 170.301 68.8114C169.529 66.243 168.293 63.8673 165.513 62.7243C164.722 62.4495 163.999 62.012 163.389 61.4402C162.23 60.156 161.226 58.8718 160.158 57.5105L159.952 57.1509L159.939 57.5876ZM214.57 13.925H214.673C214.68 13.9042 214.68 13.8817 214.673 13.8608L214.557 13.9507C213.862 13.6425 213.193 13.3215 212.485 13.0518C210.087 12.1108 207.957 10.5985 206.28 8.647C204.89 7.06744 203.5 5.47506 202.174 3.84413C199.78 0.916172 196.471 -0.49646 193.06 -1.7935C190.254 -2.85938 187.357 -3.78399 185.259 -6.12122C184.917 -6.45422 184.503 -6.70464 184.049 -6.85322C182.762 -7.35405 181.269 -7.71362 179.943 -8.29151C178.781 -8.68111 177.546 -8.80495 176.329 -8.65379C175.112 -8.50262 173.945 -8.08035 172.914 -7.41827C171.627 -6.37807 170.34 -5.40206 169.053 -4.42607C168.408 -3.9567 167.67 -3.63026 166.889 -3.46857C166.107 -3.30689 165.3 -3.31373 164.522 -3.48864C164.122 -3.56569 163.71 -3.56566 163.131 -3.61703C163.53 -2.33283 163.865 -1.26701 164.2 -0.226818C165.693 -0.470814 167.032 -0.663403 168.37 -0.907398C169.575 -1.01197 170.788 -0.852325 171.925 -0.439701C173.061 -0.0270767 174.093 0.628521 174.948 1.48118C176.413 3.37935 178.147 5.05367 180.097 6.451C183.628 8.6807 187.62 10.0814 191.773 10.5476C194.27 10.8558 196.832 10.4577 199.277 11.8318C202.187 13.4113 205.07 14.8753 207.001 17.7134C207.488 18.3273 208.026 18.8987 208.61 19.4214C208.803 18.9206 208.945 18.6123 209.061 18.3041C209.374 17.2941 209.954 16.3868 210.74 15.6774C211.526 14.9679 212.489 14.4824 213.527 14.2718C213.863 14.1911 214.194 14.0924 214.519 13.9764L214.57 13.925ZM-79.2594 63.6233C-78.4742 59.0773 -75.7581 55.687 -72.4884 52.6306C-71.3042 51.5391 -70.1586 50.4089 -68.8971 49.4073C-66.6176 47.8694 -64.4257 46.2059 -62.3319 44.4246C-58.6504 40.7903 -55.2006 36.9121 -51.7507 33.0467C-50.0902 31.1717 -48.185 29.3482 -47.8889 26.6257C-47.7731 25.3415 -47.4385 23.7491 -47.9791 22.6704C-48.8883 20.9642 -50.1109 19.4438 -51.5834 18.1885C-53.3561 16.7616 -55.2368 15.4735 -57.2087 14.336C-59.4743 12.8977 -59.8862 13.2059 -60.9547 15.6202C-62.8459 20.0952 -64.9639 24.4714 -67.3007 28.7318C-69.3412 32.0589 -71.6716 35.2002 -74.2649 38.1192C-77.6375 42.0746 -79.3109 46.8132 -81.1645 51.4877C-81.5992 53.0795 -82.1499 54.6375 -82.8123 56.1493C-83.1832 56.7135 -83.3689 57.3789 -83.3435 58.0532C-83.3182 58.7274 -83.083 59.3771 -82.6707 59.912C-81.6407 61.264 -80.5273 62.5507 -79.3367 63.7645L-79.1823 63.9058C-79.1891 63.8332 -79.1891 63.7601 -79.1823 63.6875L-79.2594 63.6233ZM150.812 99.6449C150.194 98.4249 149.435 96.8967 148.662 95.3814C146.397 90.8867 145.779 85.9683 144.904 81.1397C144.376 78.1861 144.595 75.1169 143.951 72.1504C143.166 68.6317 141.84 65.2414 140.746 61.7869C140.6 61.2837 140.356 60.8144 140.027 60.4065C139.697 59.9986 139.29 59.6602 138.828 59.4111C138.106 58.9062 137.434 58.3344 136.82 57.7032C134.863 55.9952 132.958 54.2744 130.976 52.5664C127.783 49.7926 124.977 46.6591 124.308 42.4213C123.64 38.0428 123.211 33.6316 123.02 29.2069C123.02 27.5663 123.404 25.9481 124.14 24.481C125.556 21.5274 124.604 18.5867 124.449 15.6459C124.411 15.4267 124.313 15.2222 124.166 15.0551C121.9 12.384 119.725 9.6358 117.305 7.0931C116.304 6.04781 115.013 5.3236 113.598 5.01271C111.095 4.70998 108.575 4.56412 106.054 4.57605C106.994 8.92947 108.049 12.9105 107.341 17.1098C106.543 21.7842 106.054 26.5358 104.278 30.9534C102.948 34.079 102.537 37.5175 103.094 40.8674C103.199 41.5125 103.246 42.1658 103.235 42.8194C103.345 47.0005 104.688 51.0564 107.097 54.4799C108.564 56.7786 110.959 58.5508 113.057 60.4257C115.94 62.9941 119.017 65.4083 121.836 68.0666C123.561 69.6846 124.887 71.7137 126.547 73.4088C128.271 75.2378 129.51 77.4668 130.152 79.894C130.396 80.7287 130.654 81.5763 130.873 82.4624C131.964 87.3209 133.641 92.0297 135.867 96.4858C137.336 99.1774 138.957 101.784 140.72 104.294C141.594 105.61 142.908 106.574 144.427 107.016L150.864 99.632L150.812 99.6449ZM149.834 141.625C149.21 140.427 148.66 139.192 148.186 137.927C148.023 137.359 147.719 136.842 147.303 136.422C146.887 136.003 146.372 135.694 145.805 135.525C142.616 134.235 139.061 134.171 135.829 135.345C133.547 136.123 131.316 137.041 129.148 138.094C127.608 138.972 125.889 139.493 124.12 139.617C122.35 139.742 120.575 139.467 118.927 138.813C115.142 137.246 112.735 134.151 110.611 130.838C109.71 129.451 108.783 128.077 107.908 126.664C107.427 125.986 107.037 125.248 106.749 124.468C105.903 121.921 104.475 119.604 102.579 117.701C100.634 115.756 98.2885 114.257 95.7048 113.309C88.7407 110.342 83.7075 105.051 79.3951 99.1826C76.5376 95.3028 72.6108 92.3357 68.093 90.6427C65.5718 89.828 63.2206 88.5617 61.1546 86.9057C58.0308 84.0468 56.0393 80.1643 55.5422 75.9644C55.0239 71.6555 53.8882 67.4432 52.1696 63.4564C51.8349 62.7244 51.4359 62.2877 50.5476 62.5574C48.6039 63.1738 46.6858 63.7517 44.4074 64.4195C47.278 66.7182 47.3681 69.7746 47.6384 72.6897C47.8315 74.7187 47.3295 76.8505 47.8058 78.7768C48.7841 82.822 48.8355 87.0213 50.8308 90.9124C52.6201 94.4182 54.4223 97.8085 57.8336 99.9017C62.5449 102.778 67.4236 105.372 72.2508 108.043C73.6797 108.827 75.1858 109.482 76.6533 110.201C79.511 111.601 82.6261 112.654 85.1363 114.516C88.2817 116.654 90.9506 119.417 92.9756 122.632C94.2629 124.802 95.5501 126.934 96.8374 129.053C97.5711 130.337 98.1247 131.698 98.9614 132.906C100.371 135.291 101.368 137.895 101.909 140.611C102.109 141.514 102.554 142.345 103.197 143.012C104.947 144.72 107.058 146.133 108.629 147.956C109.319 148.709 110.178 149.286 111.136 149.641C112.094 149.996 113.123 150.119 114.138 149.998C117.917 149.929 121.595 148.774 124.732 146.672C128.3 144.268 132.105 142.233 136.086 140.598C139.768 138.954 143.617 138.029 147.517 140.302C148.225 140.726 148.984 141.086 149.898 141.587L149.834 141.625ZM50.7665 38.3247C48.5351 34.4378 47.7639 29.8853 48.591 25.4827C50.0216 18.9895 51.9584 12.6176 54.3837 6.42529C56.1987 1.68662 58.3741 -2.9236 59.5327 -7.90627C59.7405 -9.22803 59.71 -10.5762 59.4426 -11.8872C59.0205 -13.4687 58.3234 -14.9639 57.3831 -16.3049C56.0198 -18.6555 55.2415 -21.2981 55.1139 -24.0108C54.9862 -26.7235 55.5127 -29.4273 56.6492 -31.895C57.3235 -33.6433 58.4903 -35.1597 60.009 -36.2613C60.8777 -37.1074 61.5577 -38.127 62.0043 -39.2534C62.0944 -39.4075 61.7726 -39.9084 61.528 -40.101C60.8071 -40.6789 59.9833 -41.1412 59.2753 -41.7319C56.2735 -44.3666 52.6861 -46.2506 48.8099 -47.2283C48.3722 -47.3181 47.5227 -47.2283 47.4197 -46.9072C46.1221 -44.6564 44.9655 -42.3276 43.9569 -39.934C42.4637 -36.0815 41.2407 -32.139 39.8891 -28.2479C39.3023 -26.9396 38.8203 -25.5869 38.4474 -24.2027C37.9454 -21.2234 37.7137 -18.1798 37.3275 -15.2133C36.7005 -11.5155 37.0058 -7.72012 38.2158 -4.1693C38.7765 -2.56967 39.1732 -0.917423 39.3999 0.762035C39.6703 2.55991 39.5288 4.42196 39.8635 6.19415C40.0795 7.43257 39.9365 8.70684 39.4515 9.867C38.2316 12.6499 37.2415 15.5274 36.4909 18.471C35.7185 22.3238 35.7579 26.2948 36.6067 30.1315C36.9929 31.8267 37.5849 33.4833 38.1385 35.1399C38.692 36.7965 41.1121 38.9925 42.5409 38.9925C45.2957 38.8384 48.0503 38.6072 50.8179 38.4017L50.7665 38.3247ZM-12.734 -44.5443C-12.9314 -43.2055 -13.0046 -41.8513 -12.9528 -40.4991C-12.5022 -37.1345 -11.8458 -33.8084 -11.2923 -30.4695C-11.0735 -29.0955 -10.8288 -27.7213 -10.7 -26.3473C-10.4941 -24.2027 -10.2366 -22.0452 -10.2366 -19.9263C-10.2366 -17.2423 -10.6743 -14.5584 -10.5585 -11.8872C-10.3268 -6.82751 -8.0998 -2.29432 -6.20753 2.31594C-5.40064 4.05666 -4.84583 5.9029 -4.5598 7.79939C-4.12213 12.0758 -3.92908 16.3778 -3.80036 20.6413C-3.45905 26.5648 -4.66082 32.4756 -7.28878 37.7982C-7.72645 38.6458 -9.00095 39.4548 -8.21573 40.4821C-7.41921 41.2409 -6.50121 41.8616 -5.49963 42.3185C-5.21566 42.4421 -4.92306 42.5451 -4.62422 42.6267C-2.44875 43.6027 -0.286232 44.6172 1.90211 45.5676C3.63991 46.3124 5.28763 47.4039 7.41161 47.4681C7.30201 47.092 7.21184 46.7105 7.14133 46.3252C6.79378 43.3073 4.99154 40.5849 5.30048 37.4257C5.54506 34.8573 5.30051 32.289 6.44617 29.9004C7.45737 28.1617 7.88165 26.1448 7.65627 24.1472C7.58542 23.2368 7.58542 22.3223 7.65627 21.4119C7.65627 18.2142 7.74629 14.9909 6.60063 11.896C5.76337 9.80915 5.08358 7.66286 4.56682 5.475C3.81723 0.821815 4.26006 -3.94491 5.85407 -8.38141C6.70734 -10.6457 7.674 -12.8659 8.7504 -15.0335C9.21381 -16.1122 9.44553 -17.2937 10.0377 -18.3211C12.329 -22.6103 12.3804 -27.3104 12.0844 -31.9078C11.8008 -33.9355 11.2646 -35.92 10.4882 -37.8151C10.3523 -38.0401 10.1647 -38.2297 9.94086 -38.3681C9.71704 -38.5066 9.46339 -38.5899 9.20091 -38.6113C4.30741 -39.0653 -0.477104 -40.3237 -4.95892 -42.3355C-7.49072 -43.2523 -10.0687 -44.0368 -12.6825 -44.6856L-12.734 -44.5443ZM72.7271 53.8634C73.5837 55.2942 74.8922 56.4008 76.4473 57.0097C80.4635 58.6278 84.5313 60.1688 88.4446 62.0181C92.3579 63.8673 96.2711 65.8706 99.1674 69.1582C101.462 71.6965 103.554 74.4102 105.423 77.2743C107.018 80.0368 108.416 82.9076 109.607 85.8655C110.504 88.4173 111.544 90.9168 112.722 93.3523C115.614 98.2993 119.367 102.692 123.806 106.323C128.169 109.88 132.816 112.744 139.162 112.05C138.949 111.908 138.75 111.745 138.57 111.562C135.754 107.714 132.265 104.404 128.272 101.789C123.369 98.8206 119.69 94.2029 117.897 88.7678C116.611 84.4454 114.772 80.3062 112.426 76.4524C111.924 75.7076 111.28 75.0397 110.701 74.3334C109.607 72.9594 108.127 71.7651 107.496 70.1984C106.657 67.9081 105.5 65.7467 104.059 63.7774C102.63 61.9538 101.665 59.6294 99.9268 58.1911C97.5636 56.0065 95.4089 53.6077 93.4906 51.0254C91.5211 48.6368 90.4013 45.8885 91.6756 42.7808C91.9899 41.8472 92.2266 40.8894 92.3835 39.9171C92.6016 38.0304 92.9982 36.1686 93.5679 34.3565C94.7204 31.6391 96.1073 29.0267 97.7128 26.5487C100.055 22.8759 101.883 18.9009 103.145 14.7341C103.645 13.1624 103.707 11.4845 103.324 9.8804C102.941 8.27631 102.127 6.80658 100.97 5.6291C99.0284 3.72735 96.9597 1.95964 94.7778 0.33823C94.5842 0.184479 94.3668 0.0630913 94.1342 -0.0213013C93.2331 1.26289 92.6667 2.81673 91.5597 3.39462C89.6929 4.36863 88.2532 5.99699 87.5177 7.96634C86.9297 9.26373 86.648 10.6784 86.694 12.1015C86.947 13.8529 87.3783 15.5741 87.9812 17.2383C88.9192 20.2876 89.1783 23.5045 88.7407 26.6642C88.6963 27.9229 88.4529 29.1668 88.0197 30.3498C86.9964 32.5514 85.7498 34.6428 84.2995 36.5911C82.2142 39.3007 80.0001 41.9718 76.7433 43.5257C75.0313 44.3347 73.4351 45.3878 71.7359 46.3637L75.3918 48.4698C76.6791 49.2275 76.885 50.2163 75.881 51.2565C74.8808 52.1681 73.8322 53.0254 72.74 53.8249L72.7271 53.8634ZM13.7063 136.155C13.7063 136.257 13.8351 136.36 13.8866 136.463C14.1322 136.406 14.37 136.32 14.5946 136.206C16.2104 135.332 17.7593 134.341 19.2287 133.239C20.7903 131.758 22.2564 130.18 23.6183 128.514C25.3175 126.6 26.9779 124.661 28.6643 122.748C28.8 122.636 28.9518 122.545 29.1148 122.478C30.7496 121.72 32.3973 120.988 34.0064 120.179C35.2058 119.64 36.2397 118.792 37.002 117.722C37.7644 116.652 38.2277 115.399 38.3445 114.092C38.6405 109.944 38.885 105.771 38.9237 101.61C38.9237 95.7795 38.7306 89.9364 36.0789 84.5043C34.6776 81.1794 32.4651 78.2569 29.6426 76.0029C27.5011 74.3808 25.6399 72.42 24.1331 70.1984C22.1446 67.5526 20.8204 64.4702 20.2713 61.209C20.2713 60.8366 19.8466 60.1945 19.5892 60.1817C18.2352 60.0789 16.8754 60.0789 15.5214 60.1817C13.2944 60.3743 11.0803 60.888 8.85333 60.888C5.27476 60.888 1.68333 60.554 -1.90813 60.4384C-2.10387 60.4756 -2.28835 60.5576 -2.44695 60.6779C-2.60555 60.7982 -2.73388 60.9537 -2.82203 61.132C-3.64587 63.5077 -2.56453 65.6651 -1.80505 67.8354C-1.55508 68.7155 -1.1158 69.5307 -0.517792 70.2241C1.65768 72.3815 3.98755 74.3977 6.17589 76.5551C7.46315 77.8393 8.67315 79.2647 9.85743 80.6773C11.3936 82.4752 12.8954 84.3074 14.3628 86.1737C16.8215 89.2558 19.3961 92.2608 21.6488 95.4841C23.9015 98.7075 24.6352 102.265 25.5105 105.886C26.6559 110.131 26.4123 114.63 24.8154 118.728C22.9283 123.016 20.7788 127.185 18.3791 131.21C17.4538 132.517 16.3732 133.707 15.1609 134.755C14.6331 135.307 14.0282 135.795 13.4618 136.309L13.7063 136.155ZM-20.7536 146.004C-20.311 143.109 -20.2677 140.166 -20.6249 137.259C-21.1784 132.417 -23.0964 127.923 -24.7183 123.351C-25.8253 120.231 -28.3355 118.099 -30.0089 115.376C-30.9744 113.81 -32.6993 112.705 -33.8707 111.203C-37.1372 106.906 -41.2232 103.297 -45.8936 100.582C-52.4715 96.7298 -59.1653 92.8772 -66.4898 90.6813C-68.3139 90.167 -70.226 90.0401 -72.1023 90.3088C-73.1596 90.3802 -74.164 90.7958 -74.9616 91.4918C-75.7592 92.1877 -76.3058 93.1256 -76.5176 94.1614C-77.1483 96.7298 -78.4871 99.0799 -79.2852 101.597C-79.8676 102.983 -80.059 104.502 -79.8388 105.989C-79.169 107.698 -78.2492 109.299 -77.1096 110.74C-76.9972 110.879 -76.8532 110.988 -76.6898 111.059C-76.5263 111.131 -76.3481 111.162 -76.17 111.151C-74.1276 110.618 -71.9947 110.526 -69.9139 110.882C-64.7546 111.411 -59.7529 112.961 -55.2006 115.44C-51.746 117.394 -48.4415 119.6 -45.3144 122.041C-42.0577 124.533 -39.084 127.383 -35.9174 130.003C-33.93 131.545 -32.3193 133.517 -31.2061 135.769C-30.8344 136.663 -30.3405 137.502 -29.7386 138.261C-28.2483 139.944 -27.2429 141.999 -26.8294 144.206C-26.71 144.684 -26.5551 145.152 -26.366 145.606L-20.7536 146.043V146.004ZM145.625 131.519C145.457 130.954 145.316 130.414 145.122 129.888C144.144 127.101 142.548 124.494 142.548 121.412C142.548 121.194 141.892 120.77 141.544 120.783C139.523 120.783 137.489 120.86 135.468 121.027C132.697 121.406 129.877 121.223 127.178 120.487C125.731 120.1 124.247 119.867 122.75 119.794C121.197 119.734 119.673 119.351 118.277 118.67C116.88 117.989 115.642 117.024 114.64 115.839C111.641 112.114 108.655 108.377 105.629 104.653C105.385 104.358 105.05 104.114 104.806 103.806C103.699 102.521 102.643 101.173 101.523 99.8889C101.052 99.2665 100.467 98.7392 99.7982 98.335C97.2236 97.0508 94.4175 96.0877 91.7915 94.8163C88.0713 93.0185 84.4025 91.0922 82.5618 87.1112C81.0685 83.875 77.9277 82.2826 75.07 80.6902C72.8688 79.4959 70.9379 78.2374 69.9209 76.0286C68.9073 73.719 68.1435 71.3083 67.6425 68.8371C67.2475 66.6881 66.3046 64.6766 64.9045 62.9965C63.5045 61.3164 61.6944 60.0241 59.6486 59.2442C59.269 59.09 58.8439 59.09 58.4643 59.2442C57.3701 59.8477 56.3145 60.5284 55.2075 61.2475C55.7095 62.8656 56.2888 64.4195 56.6492 66.0119C56.8908 67.1117 56.9732 68.2404 56.8939 69.3636C56.5592 74.0124 57.0611 78.2374 61.1289 81.525C63.4272 83.4683 66.0386 85.0096 68.8524 86.0838C72.1336 87.1505 75.1887 88.8137 77.8632 90.9895C81.2101 93.9688 82.5232 98.2837 85.368 101.597C86.8484 103.305 87.8138 105.591 89.5516 106.939C92.1962 108.848 95.0048 110.52 97.9446 111.935C100.828 113.45 103.634 115.055 105.449 117.829C106.736 119.884 107.895 122.105 109.221 124.25C111.041 127.489 113.632 130.232 116.764 132.238C118.592 133.265 120.793 133.869 122.634 132.88C125.538 131.487 128.696 130.701 131.915 130.568C136.48 129.976 141.117 130.312 145.547 131.557L145.625 131.519ZM-21.6675 45.606C-22.2468 47.0443 -22.736 48.3671 -23.3023 49.6641C-25.7849 55.7534 -29.9778 60.9977 -35.3768 64.7663C-37.1328 66.0672 -39.0387 67.1536 -41.0537 68.0024C-44.7352 69.2866 -48.6228 70.0956 -52.3043 71.3927C-54.7051 72.3376 -57.0327 73.4579 -59.2683 74.7444C-59.5018 74.8773 -59.7013 75.0624 -59.8509 75.2853C-60.0006 75.5081 -60.0964 75.7625 -60.1308 76.0286C-60.1308 76.4138 -59.3842 76.7862 -58.908 77.0559C-58.1356 77.4797 -57.2601 77.7237 -56.5264 78.1989C-52.9221 80.5746 -49.3821 83.066 -45.7521 85.3904C-44.4932 86.2729 -43.0779 86.909 -41.5814 87.2653C-37.2028 88.1011 -33.2143 90.3318 -30.2149 93.622C-27.9622 96.0106 -26.0441 98.7588 -24.0102 101.327C-23.6529 101.831 -23.3386 102.363 -23.0706 102.92C-22.562 104.03 -21.9592 105.096 -21.2685 106.104C-16.7981 111.817 -13.5236 118.368 -11.6397 125.367C-10.5842 129.092 -10.0049 132.944 -9.21967 136.732C-8.75092 138.782 -8.81297 140.916 -9.3999 142.935C-9.51662 143.554 -9.5898 144.181 -9.61879 144.81C-8.33153 143.885 -7.12155 143.089 -5.96302 142.319C-5.49961 142.01 -4.79149 141.856 -4.54691 141.445C-3.3386 139.51 -2.63913 137.301 -2.5131 135.024C-2.5131 132.777 -2.1655 130.53 -1.98528 128.282C-1.69714 126.486 -1.56801 124.669 -1.5992 122.85C-1.90814 119.486 -3.78754 116.583 -5.46098 113.771C-7.85528 109.777 -10.7387 106.066 -13.4935 102.213C-15.5531 99.3881 -17.5741 96.5115 -19.9297 93.8917C-22.1613 91.3015 -23.9843 88.3871 -25.3362 85.2491C-26.7598 82.488 -27.5055 79.429 -27.5117 76.324C-27.496 72.9458 -27.2854 69.5713 -26.881 66.2173C-26.2918 62.7593 -25.3692 59.3662 -24.1262 56.0851C-22.85 53.0164 -21.4148 50.0159 -19.8267 47.0957C-20.3287 46.6463 -20.9853 46.0812 -21.6804 45.4519L-21.6675 45.606ZM16.7056 -38.958C17.568 -37.5069 18.392 -35.9787 19.3574 -34.5404C20.8753 -32.3709 21.5897 -29.7423 21.3783 -27.105C21.1518 -22.1817 20.3439 -17.3023 18.9712 -12.5679C18.3919 -10.7829 17.9027 -8.97213 17.1947 -7.25132C16.0628 -4.63745 14.7731 -2.09438 13.333 0.363941C11.9907 3.20935 11.0839 6.23951 10.6426 9.35329C10.2447 11.9965 9.98263 14.6582 9.85743 17.3282C9.58841 18.9083 9.4207 20.5039 9.35538 22.1053C9.44337 25.33 8.9507 28.5444 7.90077 31.5955C7.72325 32.2175 7.59849 32.8533 7.52757 33.4961C6.87107 38.1192 8.27419 42.5625 8.81483 47.0829C8.94356 48.046 9.63863 48.1744 10.3724 48.0974C12.3934 47.8791 14.4014 47.6094 16.4095 47.3397C16.6992 47.3011 16.9671 47.1651 17.1691 46.9544C20.915 42.5496 22.4726 37.8367 19.8723 32.1349C18.6567 29.8104 17.9544 27.2532 17.8128 24.6352C17.8069 22.3836 18.1277 20.1429 18.7653 17.983C19.7694 14.5414 20.1813 10.92 21.3398 7.5169C22.7429 3.24054 24.5837 -0.894554 26.2957 -5.08102C27.0295 -6.89174 27.8405 -8.6768 28.7287 -10.4105C29.7327 -12.3753 30.9685 -14.263 31.9339 -16.215C32.447 -17.0815 32.7737 -18.0451 32.8934 -19.0444C33.0131 -20.0436 32.9231 -21.0568 32.6291 -22.0195C32.4435 -22.824 32.4128 -23.6565 32.5389 -24.4724C32.6795 -25.4553 32.757 -26.4461 32.7707 -27.4389C32.5219 -31.0093 33.3084 -34.5758 35.0363 -37.7124C35.8859 -39.3562 36.8383 -40.9614 37.8424 -42.5281C38.8465 -44.0949 40.1467 -45.9441 41.4597 -47.8703C40.9274 -47.9937 40.384 -48.0626 39.8377 -48.0759C35.4482 -47.6007 31.0457 -47.0742 27.0681 -45.0195C25.9404 -44.4699 24.964 -43.6544 24.2233 -42.6437C23.8287 -41.9421 23.2956 -41.3278 22.6562 -40.8378C22.0167 -40.3477 21.2842 -39.9922 20.5031 -39.7928C19.2158 -39.4974 17.9286 -39.2277 16.6413 -38.9838L16.7056 -38.958ZM-16.1451 50.3191C-16.8402 52.6306 -17.6255 54.788 -18.1147 57.0225C-18.5626 58.7845 -18.7704 60.5988 -18.7325 62.4162C-18.5137 66.3715 -18.0503 70.3011 -17.6255 74.2435C-17.2946 78.8062 -15.6497 83.1765 -12.8885 86.8287C-11.318 88.832 -9.94064 90.9766 -8.52466 93.0956C-5.57684 97.5003 -4.28952 102.586 -2.35863 107.414C-1.63777 109.212 -0.595093 110.894 0.215881 112.667C1.18133 114.709 2.52 116.725 2.88043 118.869C3.44896 122.489 3.32679 126.184 2.52012 129.759C1.85075 132.957 1.42594 136.18 0.898163 139.455C2.12087 139.593 3.35763 139.378 4.46185 138.837C5.56608 138.295 6.49146 137.449 7.12845 136.399C8.62167 134.164 9.92172 131.801 11.2347 129.451C12.7492 126.995 13.6704 124.22 13.9252 121.348C14.0499 118.534 13.981 115.715 13.7192 112.911C13.5513 110.221 13.1201 107.554 12.4319 104.949C11.5921 102.419 10.5458 99.9622 9.30384 97.603C7.45019 93.7504 5.58373 89.7823 3.58849 85.9426C2.68049 84.1847 1.58881 82.5274 0.331688 80.9984C-2.50743 77.8717 -4.82005 74.3069 -6.51646 70.4424C-7.46902 68.0152 -8.61465 65.5881 -7.44324 62.8784C-6.95409 61.7098 -6.69677 60.4385 -6.29772 59.1286C-11.0348 57.6518 -13.2102 53.5167 -16.1709 50.3191H-16.1451ZM-15.3728 -44.9039C-15.7011 -44.8952 -16.0282 -44.8608 -16.3511 -44.8011C-17.4848 -44.2555 -18.6708 -43.8252 -19.8911 -43.5169C-22.2876 -43.2214 -24.6982 -43.0543 -27.1126 -43.0161C-28.0909 -43.0161 -28.3226 -42.7079 -28.2325 -41.7961C-27.9716 -40.0022 -27.8768 -38.1881 -27.9493 -36.3768C-28.3484 -32.1647 -29.2366 -28.0039 -29.4039 -23.7532C-29.6085 -20.1966 -29.3314 -16.6286 -28.5801 -13.1458C-28.3425 -12.0428 -28.162 -10.9283 -28.0394 -9.80685C-27.582 -6.04475 -27.8265 -2.23068 -28.7603 1.4427C-29.6317 5.30391 -31.1787 8.98158 -33.3301 12.3069C-35.1655 14.8069 -36.3748 17.7086 -36.8572 20.7698C-37.179 23.1199 -37.1018 25.5084 -37.3335 27.8713C-37.4036 28.2107 -37.3626 28.5636 -37.2166 28.878C-37.0706 29.1924 -36.8273 29.4517 -36.5225 29.6178C-35.4498 30.1321 -34.4464 30.7794 -33.536 31.5441C-32.0328 33.1121 -30.0901 34.1908 -27.9622 34.6391C-27.1999 34.8734 -26.452 35.1522 -25.7224 35.4738C-24.3579 35.9875 -23.0191 36.5525 -21.6289 36.9892C-21.2942 37.0919 -20.5219 36.8479 -20.4576 36.6295C-19.9311 35.3451 -19.6558 33.972 -19.6466 32.5844C-20.0006 30.4087 -20.5168 28.2624 -21.1912 26.1634C-21.9636 23.3896 -22.9934 20.5643 -22.3627 17.7005C-21.6359 14.5323 -20.6676 11.4241 -19.4663 8.403C-18.5524 6.05293 -18.1791 4.06245 -19.7753 1.76374C-20.8808 -0.0148125 -21.7098 -1.95027 -22.234 -3.97664C-22.4011 -5.21673 -22.4011 -6.47352 -22.234 -7.71361C-22.234 -10.7828 -20.9466 -13.531 -20.1485 -16.3819C-19.7237 -17.7945 -19.2089 -19.1815 -18.7841 -20.5941C-17.6384 -24.4467 -16.5699 -28.2993 -15.3728 -32.1518C-14.793 -33.7062 -14.7433 -35.4079 -15.2312 -36.9933C-15.9715 -38.8112 -16.1899 -40.7988 -15.862 -42.7336C-15.7332 -43.3628 -15.5788 -44.0177 -15.3986 -44.8011L-15.3728 -44.9039ZM135.005 19.4085C134.258 21.887 133.434 24.1986 132.894 26.5615C132.493 28.1203 132.371 29.7375 132.533 31.3387C133.186 35.4562 134.756 39.3751 137.129 42.8065C138.377 44.4539 139.256 46.3505 139.703 48.3671C139.929 49.3017 140.252 50.2099 140.669 51.0767C141.789 53.8249 142.908 56.5859 144.041 59.3341C144.469 60.9149 145.367 62.3295 146.616 63.3922C148.875 65.0597 150.677 67.2679 151.855 69.8131C152.846 71.7908 153.979 73.6657 155.022 75.669C155.594 76.5807 156.027 77.5716 156.309 78.6098C157.146 83.2843 157.789 87.9716 158.626 92.6332C158.821 93.4641 159.271 94.2137 159.913 94.7778C160.891 95.6382 162.243 96.1391 163.118 97.0765C165.564 99.6449 167.92 102.38 168.538 106.066C168.662 106.576 168.871 107.062 169.156 107.504C169.972 108.695 170.708 109.939 171.357 111.228C172.734 114.657 175.733 115.864 178.9 116.866C179.17 116.956 179.544 116.763 179.853 116.648C180.741 116.327 181.603 115.916 182.504 115.646C183.406 115.376 184.088 115.351 185.272 115.132C184.706 114.863 184.538 114.747 184.345 114.683C182.943 114.221 181.65 113.479 180.543 112.504C179.437 111.528 178.541 110.338 177.909 109.007C177.124 107.273 176.751 105.36 176.12 103.549C174.717 99.5935 173.301 95.6382 171.82 91.7086C170.894 88.8465 169.054 86.3658 166.581 84.6455C165.972 84.2052 165.474 83.6292 165.126 82.9632C163.839 80.3949 162.552 77.8265 161.265 75.3351C160.732 74.3828 160.329 73.3635 160.068 72.3045C159.347 68.4519 158.665 64.6764 158.137 60.8366C157.815 58.2823 157.103 55.7921 156.026 53.4525C155.296 51.4373 154.277 49.5383 153 47.8149C151.152 45.7935 149.008 44.0618 146.641 42.6781C144.017 41.0499 141.749 38.9096 139.973 36.3855C139.274 35.4389 138.831 34.329 138.686 33.1622C138.416 30.2599 138.377 27.3448 138.339 24.4426C138.339 23.0299 138.519 21.6045 138.622 20.2047L135.133 19.4599L135.005 19.4085ZM194.618 71.0459C193.432 69.1903 193.017 66.9476 193.459 64.7919C194.012 61.1819 194.064 57.5132 193.614 53.8891C193.543 53.4614 193.39 53.0515 193.163 52.682C191.761 50.779 190.666 48.6688 189.919 46.4279C189.294 44.3027 188.538 42.2183 187.654 40.1868C187.245 39.0403 186.737 37.9316 186.135 36.8735C185.407 35.5951 184.544 34.3982 183.56 33.3035C182.35 32.0193 182.002 30.1315 180.252 29.3225C178.897 28.5793 177.822 27.4163 177.188 26.0092C175.901 23.6592 174.189 21.4889 172.644 19.2544C172.419 18.9796 172.126 18.7673 171.795 18.638C170.095 17.906 168.358 17.2382 166.646 16.4934C165.28 16.0204 163.982 15.3729 162.784 14.5671C161.61 13.7524 160.304 13.1483 158.922 12.7821C157.789 12.3583 157.48 13.3985 156.901 13.8737C156.669 14.0663 156.682 14.7084 156.759 15.1579C157.217 16.7003 157.553 18.2761 157.763 19.8708C157.984 24.473 159.805 28.8548 162.912 32.2633C165.487 35.217 168.435 37.7853 171.267 40.495C173.837 42.723 175.926 45.4494 177.407 48.5083C178.975 52.34 180.345 56.249 181.513 60.2202C182.35 62.9683 182.801 65.8321 183.47 68.6188C183.841 70.4509 184.331 72.2568 184.937 74.0252C185.6 75.5016 186.357 76.9343 187.203 78.3145C187.448 78.7896 187.666 79.2904 188.027 80.061C188.4 78.7768 188.658 77.8265 188.979 76.889C189.523 75.2135 190.639 73.7818 192.133 72.8438C193.021 72.2916 193.897 71.688 194.824 71.0845L194.618 71.0459ZM79.4594 -9.25465C80.0225 -10.7038 80.1128 -12.2933 79.7176 -13.7967C79.3224 -15.3 78.4618 -16.6407 77.2583 -17.6276C76.5576 -18.2989 75.9319 -19.0438 75.3918 -19.8492C74.1635 -21.6562 73.0291 -23.525 71.9934 -25.4483C71.0923 -27.2333 70.5259 -29.1725 69.7149 -31.0089C69.0327 -32.5242 68.1574 -33.9497 67.5009 -35.4779C66.8444 -37.006 65.969 -37.1987 64.8619 -35.9659C64.2398 -35.1272 63.5033 -34.3795 62.6737 -33.7442C61.6807 -33.0642 60.8608 -32.1619 60.2797 -31.1094C59.6986 -30.057 59.3723 -28.8836 59.3268 -27.6829C58.8892 -24.4724 58.4515 -21.1463 60.6141 -18.1285C61.9014 -16.4462 62.5449 -14.4171 63.6262 -12.6192C64.6405 -11.1371 65.0965 -9.34479 64.9135 -7.55951C64.8493 -6.91267 64.8753 -6.26008 64.9906 -5.62037C65.3511 -3.30882 65.9433 -1.01016 66.0849 1.31423C66.3166 5.03839 66.3294 8.77543 66.2908 12.5124C66.4244 15.8206 65.9264 19.1239 64.8233 22.2466C63.8578 24.6737 62.7895 27.0495 61.6824 29.4124C59.9833 33.0467 59.1079 36.6937 61.1418 40.5463C61.4422 41.1504 61.8965 41.6653 62.459 42.0394C63.0215 42.4135 63.6725 42.6338 64.347 42.6781C64.4667 42.6663 64.5826 42.6293 64.6869 42.5696C64.7912 42.5098 64.8816 42.4286 64.9521 42.3314C65.9819 40.7775 67.0889 39.2622 67.9643 37.6184C70.0213 33.6351 71.1853 29.2532 71.3755 24.7765C71.5558 21.6302 71.131 18.4454 71.0151 15.2863C70.8711 11.8088 71.4586 8.3398 72.74 5.10262C73.5123 3.18917 74.7868 1.58392 75.7007 -0.201107C77.1811 -3.0777 78.1722 -6.21113 79.3694 -9.19046L79.4594 -9.25465ZM151.803 17.5722C150.799 17.8804 149.731 18.2656 148.624 18.5353C147.259 18.882 145.869 19.0618 144.518 19.4342C144.308 19.5183 144.121 19.6487 143.969 19.8155C143.817 19.9823 143.706 20.1812 143.642 20.3973C143.359 21.3526 143.207 22.342 143.192 23.3382C143.269 26.5487 143.449 29.7591 143.629 32.9696C143.676 33.3603 143.832 33.7298 144.08 34.0354C144.784 34.9939 145.568 35.8918 146.423 36.7194C147.826 38.0036 149.409 39.031 150.851 40.2381C151.61 40.8931 152.138 41.9076 152.936 42.3956C156.21 44.4601 158.6 47.6633 159.643 51.3849C160.311 53.7712 161.471 55.992 163.049 57.9049C164.628 59.8178 166.589 61.3806 168.808 62.4932C169.669 62.965 170.423 63.6087 171.023 64.3843C171.623 65.1599 172.057 66.0505 172.297 67.0007C173.146 69.415 173.751 71.9063 174.485 74.3591C174.613 74.6871 174.796 74.9911 175.026 75.2581C177.265 78.1732 179.544 81.0755 181.758 84.0291C183.573 86.4691 185.311 88.9733 187.074 91.4517L187.551 91.3362C187.551 90.3859 187.55 89.4227 187.448 88.4724C187.37 86.5333 187.139 84.6199 187.242 82.655C187.292 82.2574 187.262 81.8537 187.154 81.4677C187.046 81.0818 186.861 80.7214 186.611 80.4077C183.937 77.1406 182.029 73.3192 181.024 69.2224C180.452 66.5793 179.739 63.9686 178.887 61.4016C178.076 58.9745 176.776 56.6758 176.068 54.223C175.249 51.7764 173.974 49.5064 172.309 47.5323C169.538 43.9916 166.139 40.9882 162.282 38.6714C160.269 37.3982 158.426 35.8749 156.798 34.1382C153.863 30.9406 152.82 26.8055 151.829 22.7603C151.625 21.0541 151.625 19.3297 151.829 17.6235L151.803 17.5722ZM156.154 165.46C155.897 163.662 155.678 162.044 155.408 160.426C155.194 158.352 154.828 156.296 154.314 154.274C153.453 151.749 152.447 149.275 151.301 146.865C151.008 146.038 150.44 145.336 149.692 144.874C147.839 144.033 145.913 143.363 143.938 142.871C142.918 142.555 141.833 142.507 140.789 142.732C139.745 142.957 138.777 143.447 137.978 144.155C135.574 146.381 132.728 148.078 129.624 149.138C127.998 149.681 126.525 150.6 125.324 151.822C123.387 153.858 121.016 155.433 118.386 156.432C115.593 157.575 112.684 158.371 109.774 157.048C106.415 155.533 102.823 154.39 100.081 151.912L96.4513 158.024C99.3991 158.898 102.386 159.899 105.462 160.683C109.105 161.62 112.787 162.391 116.455 163.251C117.228 163.431 118 163.649 118.785 163.752C121.102 164.086 123.419 164.445 125.749 164.651C128.767 164.986 131.801 165.162 134.837 165.177C138.017 165.177 141.171 164.394 144.337 164.343C148.276 164.343 152.267 164.15 156.193 165.498L156.154 165.46ZM142.561 119.139C142.921 118.047 142.664 117.418 141.557 117.251C139.354 116.784 137.122 116.466 134.876 116.301C131.371 116.308 127.908 115.546 124.732 114.066C122.995 113.335 121.381 112.343 119.944 111.126C117.902 109.14 116.025 106.993 114.331 104.705C110.804 99.9916 107.496 95.1502 106.492 89.2044C106.411 88.7634 106.282 88.3327 106.106 87.9202C105.424 86.4988 104.843 85.0312 104.368 83.5283C103.48 79.8683 101.176 76.9276 99.4892 73.6657C99.2259 73.2581 98.9051 72.8904 98.5367 72.5741C95.4548 69.3475 91.8245 66.691 87.8139 64.7277C83.9521 62.994 80.2447 61.1191 76.4602 59.3212C75.6492 58.9488 74.7997 58.6663 73.7827 58.2554C73.9887 59.424 74.1044 60.3743 74.3233 61.2989C75.0055 64.1241 75.8294 66.7824 78.4297 68.7087C79.8061 69.8515 80.9099 71.2861 81.6607 72.908C82.948 75.3223 83.7461 77.9035 84.7631 80.4206C85.1862 81.3272 85.5558 82.2576 85.8701 83.2072C86.4533 85.2949 87.6504 87.1602 89.307 88.5623C91.5641 90.6615 94.1799 92.3404 97.0305 93.5193C98.4265 94.0733 99.7929 94.6992 101.124 95.3942C101.832 95.7456 102.466 96.2295 102.991 96.8197C104.445 98.5662 105.642 100.557 107.741 101.712C107.994 101.885 108.209 102.108 108.371 102.367C111.216 106.22 114.022 109.996 116.88 113.784C117.417 114.638 118.138 115.362 118.991 115.903C120.81 116.773 122.717 117.445 124.681 117.906C127.354 118.482 130.057 118.911 132.778 119.19C134.274 119.274 135.774 119.274 137.27 119.19C139.021 119.19 140.785 119.19 142.497 119.19L142.561 119.139ZM144.608 191.747C142.329 192.158 140.308 192.621 138.261 192.852C137.006 193.073 135.716 193.007 134.49 192.659C131.024 191.449 127.648 189.998 124.385 188.318C121.927 186.774 119.583 185.058 117.369 183.182C113.537 180.397 110.538 176.623 108.693 172.266C107.419 169.314 105.329 166.784 102.669 164.972C100.661 163.508 98.2405 162.609 96.2324 161.222C95.6028 160.728 94.8474 160.42 94.0514 160.331C93.2553 160.243 92.4502 160.378 91.727 160.721C87.272 162.39 82.9659 164.431 78.8544 166.821C77.7217 167.476 77.4642 168.311 78.5069 169.056C80.618 170.597 81.9696 173.075 84.6213 173.948C85.5482 174.257 86.4879 174.539 87.4147 174.834C89.6266 175.31 91.7834 176.011 93.851 176.928C98.2572 179.27 102.256 182.305 105.694 185.917C108.039 188.75 111.272 190.714 114.872 191.49C115.914 191.666 116.936 191.945 117.923 192.325C120.291 193.275 122.596 194.393 124.99 195.304C127.384 196.216 130.139 196.833 132.495 197.873C135.212 198.989 138.243 199.09 141.029 198.155C141.406 198.076 141.74 197.861 141.969 197.552C142.857 195.715 143.655 193.853 144.621 191.683L144.608 191.747ZM-61.8172 74.8214C-60.0408 71.6109 -56.668 70.5708 -53.643 69.1453C-50.6179 67.7199 -47.5285 67.2576 -44.4777 66.2559C-40.6159 64.9717 -36.8571 63.482 -34.4885 59.9248C-33.9022 58.8582 -33.2307 57.8404 -32.4805 56.8813C-30.264 54.5246 -28.6675 51.6567 -27.8335 48.534C-27.2576 46.456 -26.8275 44.3406 -26.5463 42.203C-26.4818 41.7873 -26.5095 41.3626 -26.6273 40.9588C-26.7452 40.5549 -26.9503 40.1819 -27.2284 39.8657C-30.1247 37.7211 -33.1498 35.7306 -36.2392 33.7787C-36.479 33.7053 -36.7336 33.6938 -36.979 33.7455C-37.2244 33.7972 -37.4528 33.9102 -37.6424 34.074C-39.303 37.1561 -40.8735 40.3023 -42.4825 43.4229C-43.5252 45.8727 -45.0939 48.0646 -47.078 49.8439C-49.1805 51.4876 -51.2572 53.1614 -53.3083 54.8651C-55.6253 56.7785 -57.9296 58.7177 -60.1952 60.6953C-62.9628 63.0967 -66.3097 64.9203 -67.6098 68.7215C-68.2535 70.6093 -68.3177 71.2128 -66.5413 72.2402C-65.061 73.1006 -63.542 73.8968 -61.8686 74.8086L-61.8172 74.8214ZM-17.7028 44.1806C-16.0551 45.6317 -14.5876 47.0058 -13.0172 48.2772C-8.46973 51.7966 -3.3609 54.5273 2.09522 56.3547C2.9668 56.6035 3.88645 56.6344 4.77282 56.4446C7.63053 56.008 10.4624 55.2247 13.333 55.0063C16.7174 54.524 20.1695 54.9312 23.3479 56.1878C24.3466 56.5501 25.3829 56.7999 26.4373 56.9326C28.7939 57.2616 31.1191 57.7857 33.3885 58.4994C35.9631 59.5653 38.6147 59.2571 41.215 59.0644C43.2262 58.8721 45.1392 58.1051 46.7245 56.8556C48.2212 55.4758 50.1015 54.5804 52.1181 54.2872C53.0835 54.2872 54.049 54.0432 55.0144 54.0818C56.9961 54.2178 58.9801 53.8511 60.7814 53.0159C62.4549 52.2068 64.3214 51.7317 66.0592 51.1024C66.8675 50.7261 67.65 50.2971 68.4019 49.8182V49.2403C66.4968 48.2643 64.6303 47.1856 62.6737 46.338C59.8674 45.1437 56.9969 44.1164 54.152 43.012C51.6419 42.0489 49.1832 40.8032 46.4285 41.2141C39.9922 42.1644 33.5559 42.9221 28.4069 47.1599C26.9651 48.3286 25.6522 49.6512 24.2619 50.8969C23.9453 51.2491 23.5813 51.5559 23.1805 51.8087C20.6311 52.8833 17.766 52.9431 15.1738 51.9757C14.5258 51.7394 13.8427 51.6135 13.1529 51.6033C11.681 51.8788 10.1823 51.9865 8.68598 51.9243C6.10339 51.3509 3.57527 50.556 1.12978 49.5485C-1.29026 48.5982 -3.49149 46.9801 -5.96302 46.3252C-9.6832 45.3107 -13.5578 44.8484 -17.6513 44.1036L-17.7028 44.1806ZM82.1757 150.987L82.5746 151.192L85.1492 146.903C86.0598 145.394 86.5956 143.689 86.712 141.931C86.8285 140.173 86.5222 138.413 85.8186 136.797C84.49 133.236 82.0483 130.197 78.8544 128.128C76.7709 126.712 75.0832 124.789 73.9501 122.542C72.0835 118.921 70.4745 115.184 68.6723 111.537C68.2586 110.659 67.646 109.89 66.883 109.289C64.6157 107.535 62.2473 105.914 59.7902 104.435C56.1227 102.392 52.8666 99.6877 50.1872 96.4601C48.4664 93.9805 46.9592 91.3599 45.6818 88.6265C45.5711 88.388 45.5058 88.1311 45.4888 87.8689C45.249 86.6287 45.0728 85.3771 44.961 84.119C44.6699 81.8914 44.6354 79.638 44.8581 77.4027C45.4234 75.0014 45.6572 72.5343 45.5531 70.0699C45.4073 68.352 44.611 66.754 43.3261 65.6009C43.0993 65.4112 42.8366 65.2691 42.5535 65.1831C42.2704 65.097 41.9727 65.0688 41.6784 65.1001C38.1899 65.755 35.0748 64.4195 31.8824 63.4178C29.5138 62.673 27.1195 61.9795 24.7509 61.2732C25.2787 62.5574 25.7808 63.8416 26.3086 65.0359C26.4594 65.6271 26.712 66.1877 27.0552 66.6925C29.0247 68.8757 31.0329 71.0331 33.1054 73.1135C35.7829 75.8232 38.705 78.4172 39.5417 82.257C40.0281 84.1564 40.9539 85.9157 42.2449 87.3937C42.9406 88.4059 43.556 89.4707 44.0856 90.5785C44.4203 91.1821 44.7292 91.8627 45.0253 92.4406C46.276 94.737 47.3726 97.1137 48.3078 99.555C50.0714 105.116 53.8816 109.289 57.6276 113.54C57.7762 113.708 57.9611 113.839 58.1683 113.925C60.0653 114.759 61.7666 115.979 63.1628 117.508C63.8708 118.163 64.7075 118.689 65.4026 119.37C66.5483 120.487 67.6682 121.656 68.7237 122.863C69.8425 124.429 71.0913 125.898 72.4568 127.255C74.2643 128.664 75.8071 130.381 77.0137 132.328C77.8505 133.753 78.4167 135.32 79.1376 136.809C80.5536 139.725 82.2013 142.563 82.2013 145.914C82.2013 147.61 82.2013 149.305 82.2013 151.051L82.1757 150.987ZM-19.093 146.775C-15.8362 148.56 -16.4155 149.343 -13.2874 146.955C-13.115 146.817 -12.9297 146.697 -12.734 146.595C-12.3001 146.341 -11.9393 145.979 -11.6867 145.545C-11.4341 145.11 -11.2983 144.619 -11.2923 144.117C-10.5714 139.416 -11.7814 134.896 -12.5796 130.311C-12.9993 127.646 -13.93 125.087 -15.3213 122.773C-15.9906 121.707 -16.4026 120.487 -17.0076 119.37C-17.8572 117.803 -18.7454 116.224 -19.7108 114.708C-20.4703 113.501 -21.3715 112.371 -22.2211 111.228C-22.4785 110.869 -22.8131 110.573 -23.0706 110.214C-26.2372 105.796 -29.1465 101.224 -33.1628 97.3719C-35.5185 95.1245 -38.5177 93.9944 -40.9893 92.0168C-41.3853 91.8006 -41.8256 91.6776 -42.2765 91.6573C-45.6813 91.0326 -48.8733 89.5618 -51.5576 87.3809C-53.6172 85.7371 -55.7026 84.119 -57.9939 82.334C-60.1951 86.803 -64.4946 87.2267 -68.6524 87.9202C-67.5325 88.3055 -66.4254 88.4467 -65.4085 88.8192C-62.6451 89.7562 -59.9376 90.8495 -57.2989 92.0938C-50.4507 95.6254 -43.2935 98.7459 -37.8355 104.435C-34.8877 107.517 -31.9012 110.548 -28.9405 113.604C-28.6872 113.909 -28.455 114.231 -28.2454 114.567C-27.473 115.684 -26.7006 116.789 -25.9411 117.906C-25.0515 118.937 -24.3027 120.082 -23.7142 121.309C-22.4269 125.239 -20.5091 128.925 -19.6595 133.047C-18.6748 137.547 -18.4787 142.183 -19.0801 146.749L-19.093 146.775ZM140.154 201.969C139.944 201.878 139.723 201.813 139.497 201.777C138.918 201.777 138.339 201.777 137.772 201.777C134.185 202.055 130.583 201.456 127.281 200.03C124.179 198.669 121.321 196.781 118.27 195.202C117.299 194.702 116.27 194.323 115.207 194.072C111.345 193.121 107.56 191.966 104.909 188.55C101.562 184.196 96.8633 181.756 91.6628 180.228C89.0882 179.47 86.2948 178.944 83.7074 178.096C82.074 177.604 80.5851 176.722 79.3694 175.528C77.7668 173.491 76.3087 171.346 75.0056 169.107C73.3965 171.2 71.6072 173.499 69.8565 175.798C70.8118 176.502 71.6765 177.322 72.431 178.238C74.0015 180.6 75.3789 183.092 76.8206 185.545C77.5544 186.829 78.2365 188.113 78.9831 189.294C79.2317 189.749 79.6077 190.12 80.065 190.365C80.5223 190.609 81.041 190.714 81.5576 190.669C83.141 190.591 84.7373 190.476 86.3206 190.502C88.3802 190.502 90.4526 190.669 92.5251 190.771C95.8076 190.938 99.1674 190.463 102.244 192.184C103.713 192.77 105.105 193.534 106.389 194.457C108.321 196.309 110.047 198.362 111.538 200.582C112.845 202.609 114.6 204.31 116.669 205.554C118.737 206.799 121.064 207.554 123.471 207.761C125.105 207.755 126.738 207.841 128.363 208.018C131.375 208.75 133.885 207.569 136.549 206.657C138.841 205.861 139.446 203.998 140.077 201.918L140.154 201.969ZM163.054 5.33376C163.811 5.58898 164.547 5.90239 165.255 6.2712C168.229 8.10759 171.228 9.87984 174.073 11.8703C179.132 15.389 182.453 19.9608 182.53 26.3175C182.53 27.4733 183.225 27.9997 184.242 28.5134C185.87 29.3538 187.425 30.3289 188.889 31.4286C191.464 33.4191 192.313 36.5653 193.511 39.3649C195.171 43.2175 196.304 47.237 197.81 51.1409C198.249 52.4721 199.015 53.6729 200.037 54.6339C201.457 55.6122 203.009 56.386 204.645 56.9326C207.143 57.9471 207.22 57.883 208.121 55.4301C208.503 54.1529 209.163 52.9753 210.053 51.981C210.943 50.9867 212.041 50.2001 213.27 49.677C214.642 48.9241 215.906 47.9911 217.029 46.9031C217.711 46.3766 217.621 45.7473 217.196 45.0538C215.063 41.2739 211.886 38.1849 208.044 36.1544C204.182 34.2281 200.05 32.6229 196.162 30.6324C192.597 28.8088 189.559 26.356 188.336 22.3108C188.17 21.9072 187.944 21.5305 187.666 21.1935C186.25 19.1645 184.822 17.1226 183.367 15.1065C182.883 14.3695 182.312 13.6927 181.668 13.0903C180.059 11.729 178.295 10.5219 176.725 9.135C175.254 7.99307 173.954 6.64827 172.863 5.1411C172.395 4.13493 171.564 3.34202 170.535 2.92065C169.507 2.49927 168.357 2.48051 167.315 2.86813C166.985 2.99175 166.637 3.06111 166.285 3.07357C165.554 2.96576 164.81 3.13932 164.203 3.55906C163.595 3.9788 163.171 4.61329 163.015 5.33376H163.054ZM67.6553 159.912C68.1149 160.176 68.6422 160.298 69.1712 160.264C69.7003 160.23 70.2074 160.04 70.6288 159.719C71.7745 158.846 72.8558 157.934 73.9886 157.061C74.5133 156.602 75.0927 156.21 75.7136 155.893C76.1769 155.701 76.5777 155.384 76.8709 154.978C77.1642 154.572 77.3383 154.093 77.3741 153.594C78.0563 149.626 76.37 146.223 74.4777 142.948C72.9456 140.334 72.0628 137.393 71.9032 134.369C71.9032 133.637 71.9033 132.687 71.4527 132.238C70.0014 130.404 68.2626 128.817 66.3037 127.538C62.4419 125.444 58.1553 123.903 54.0747 122.093C52.7102 121.489 50.9853 121.078 50.2129 120.025C48.6297 118.311 46.6432 117.018 44.4332 116.262C44.026 116.051 43.5793 115.927 43.1214 115.898C42.6635 115.868 42.2046 115.934 41.7736 116.091C41.3427 116.248 40.9491 116.493 40.6181 116.81C40.287 117.127 40.0257 117.509 39.8506 117.932C39.1812 119.332 38.5633 120.808 36.9156 121.425C36.4136 121.605 36.066 122.234 35.6284 122.709C35.8086 122.83 35.9979 122.938 36.1947 123.03C39.5135 124.172 42.4862 126.139 44.8323 128.745C45.3497 129.225 45.8911 129.68 46.4543 130.106C47.1419 130.629 47.7378 131.263 48.2178 131.981C48.8205 133.06 49.8016 133.878 50.9725 134.28C54.2679 135.756 57.8464 136.72 60.511 139.352C61.7983 140.636 63.0083 141.921 64.3728 143.205C66.8599 145.35 68.5211 148.292 69.0713 151.526C69.5257 154.409 69.0431 157.361 67.694 159.951L67.6553 159.912ZM135.494 220.308C134.915 220.539 134.207 220.796 133.524 221.091C132.003 221.811 130.346 222.202 128.662 222.24C126.979 222.278 125.306 221.961 123.754 221.309C121.617 220.41 119.39 219.743 118.039 217.457C116.828 215.624 115.454 213.905 113.932 212.32C113.462 211.798 112.806 211.479 112.104 211.434C110.428 211.511 108.762 211.73 107.123 212.089C101.974 213.219 97.7514 211.331 93.9797 208.326C91.7134 206.311 89.6047 204.126 87.6721 201.79C85.5224 199.465 83.54 196.961 81.2358 194.804C79.411 193.308 77.4793 191.948 75.4561 190.733C74.8382 190.309 74.1689 189.898 73.5767 189.449C70.9121 187.83 68.2475 186.2 65.5313 184.659C65.2739 184.504 64.5401 184.864 64.2441 185.185C63.5325 186.09 62.7628 186.948 61.9398 187.753C59.6099 189.551 58.8892 192.043 58.3743 194.547C60.0863 195.317 61.6825 195.959 63.1886 196.768C65.7631 198.053 68.2346 199.465 70.6417 200.993C72.2637 202.021 73.6411 203.446 75.2244 204.551C77.6316 206.246 80.0903 207.89 82.6133 209.431C84.1723 210.335 85.7795 211.153 87.4276 211.883C90.5943 213.373 94.0698 213.168 97.3523 213.091C101.755 213.001 105.475 214.567 109.169 216.481C114.473 219.203 119.146 223.03 124.771 225.188C126.651 226.071 128.719 226.481 130.795 226.382C132.224 226.215 133.627 225.843 135.056 225.74C136.035 225.729 137.012 225.802 137.978 225.958L135.52 220.141L135.494 220.308ZM103.467 21.0908H103.274C101.304 24.4683 99.5279 27.9741 97.3138 31.1717C95.4087 33.8942 95.0096 36.9763 94.2373 40.007C94.0885 41.1614 93.8211 42.2975 93.4392 43.3973C93.059 44.2392 92.9134 45.1677 93.0176 46.0853C93.1218 47.0028 93.4719 47.8754 94.0313 48.6111C95.4915 50.862 97.2205 52.9276 99.1803 54.7623C102.354 57.8717 105.13 61.3613 107.445 65.1515C108.835 67.2833 109.813 69.6461 111.19 71.765C112.31 73.473 113.765 74.937 115.052 76.5551C115.477 77.0945 115.631 77.8393 116.082 78.3658C117.987 80.4976 118.759 83.1687 119.879 85.6857C121.167 88.6907 121.797 92.0168 124.398 94.4696C126.084 96.062 127.41 98.0011 129.547 99.2082C133.467 101.357 136.875 104.328 139.536 107.915C140.746 109.61 142.316 111.1 142.484 113.399C143.011 111.639 143.513 109.996 143.887 108.737C141.866 107.273 139.69 106.169 138.261 104.551C135.803 101.69 133.61 98.6124 131.709 95.3557C129.135 90.8481 127.963 85.7756 126.56 80.8314C126.125 78.8725 125.317 77.0153 124.179 75.3608C120.317 70.635 116.301 65.9734 111.203 62.2621C108.564 60.4863 106.313 58.1947 104.588 55.526C102.862 52.8573 101.697 49.867 101.163 46.7361C100.527 43.277 100.272 39.7588 100.403 36.2443C100.622 33.0852 101.832 30.0031 102.527 26.8697C102.965 24.9434 103.248 23.0171 103.596 21.0523L103.467 21.0908ZM22.1764 46.4022C25.0213 44.9768 27.1196 42.6396 30.312 42.0489C33.5044 41.4581 36.2462 40.3794 39.3228 39.4805C36.7483 37.7211 35.6283 35.2041 34.4827 32.6999C33.2965 29.6944 32.8549 26.4476 33.1954 23.2354C33.1132 21.3317 33.2341 19.4247 33.5559 17.5464C34.3224 14.8729 35.2951 12.2625 36.4651 9.73853C37.1087 8.26171 37.7523 6.91332 37.1859 5.25671C37.1077 4.74268 37.0819 4.22204 37.1087 3.70281C36.9601 1.54958 36.6937 -0.593937 36.3107 -2.71815C35.8859 -4.67013 35.0233 -6.57069 34.4569 -8.45846C34.1714 -9.64397 33.9522 -10.8444 33.8004 -12.0542L33.3757 -12.1569C31.9983 -9.42161 30.505 -6.72484 29.2821 -3.9253C27.5314 0.094223 25.8581 4.15229 24.3777 8.28739C23.2063 11.5621 23.3608 15.1065 22.8974 18.5609C22.2924 23.0171 23.2965 27.0751 24.3906 31.2616C25.266 34.5877 26.2056 38.0036 24.6609 41.3811C23.9014 43.0248 23.0261 44.6172 22.0864 46.4408L22.1764 46.4022ZM66.0592 159.129C66.3975 157.523 66.5913 155.889 66.6384 154.249C66.5316 151.863 65.9495 149.523 64.9262 147.364C63.9029 145.206 62.4589 143.272 60.6784 141.677C58.8359 139.888 56.561 138.605 54.0747 137.952C51.504 137.5 49.0826 136.429 47.0206 134.832C46.6458 134.526 46.2404 134.259 45.8106 134.036L38.5118 130.029C36.9285 129.156 35.3581 128.244 33.749 127.46C32.9252 127.037 32.4617 127.242 32.2171 128.308C31.865 130.071 31.33 131.792 30.6209 133.445C29.1921 136.643 29.8099 139.275 32.6805 141.047C33.3112 141.433 34.0836 141.6 34.7401 141.946C38.175 143.878 41.8202 145.412 45.6046 146.518C46.8502 146.836 48.0104 147.424 49.003 148.239C50.9725 149.921 52.736 151.847 54.6025 153.658C55.5338 154.814 56.6624 155.796 57.9365 156.56C60.5976 157.556 63.3089 158.414 66.0592 159.129ZM83.2183 192.518C83.2183 192.685 83.1153 192.852 83.0509 193.019C82.9866 193.186 83.2184 193.211 83.3085 193.314C85.0978 195.369 86.8226 197.475 88.6891 199.465C91.2636 202.162 93.4906 205.218 97.0692 206.734C99.2318 207.646 101.394 208.686 103.814 208.416C106.234 208.146 108.307 207.62 110.573 207.376C111.866 207.175 113.19 207.305 114.42 207.754C115.649 208.203 116.744 208.957 117.601 209.944C119.067 211.795 120.164 213.91 120.832 216.173C121.113 216.965 121.581 217.679 122.196 218.253C122.816 218.676 123.504 218.988 124.23 219.178C125.518 219.666 126.921 220.667 128.092 220.462C130.748 219.917 133.36 219.174 135.906 218.24C136.15 218.24 136.395 217.752 136.446 217.457C136.91 214.31 137.347 211.151 137.734 208.031C134.612 209.925 130.9 210.606 127.307 209.944C125.479 209.623 123.664 209.122 121.836 208.981C118.92 208.742 116.154 207.592 113.932 205.694C111.013 203.096 108.301 200.275 105.823 197.256C103.66 194.919 100.764 193.969 97.9317 193.186C95.885 192.633 93.555 193.07 91.3538 193.057C90.0666 193.057 88.7792 193.057 87.389 192.942C85.9987 192.826 84.5571 192.659 83.1411 192.518H83.2183ZM66.2523 43.0762C67.0761 43.8724 67.8742 44.1935 68.8268 43.5642C71.4013 41.8434 74.0788 40.251 76.5504 38.4274C77.6198 37.6104 78.5129 36.5864 79.1764 35.4169C79.84 34.2474 80.2603 32.9565 80.4121 31.6212C81.0043 27.0752 81.2746 22.4777 81.6994 17.906C81.7605 15.7847 81.9928 13.6718 82.3944 11.5878C83.0614 9.755 83.8351 7.96264 84.7115 6.21986C85.0133 5.39765 85.4776 4.64432 86.0769 4.00458C86.6761 3.36483 87.3981 2.85169 88.2 2.49567C89.0007 2.20646 89.7215 1.73221 90.3032 1.11169C90.8849 0.491177 91.3111 -0.257935 91.5468 -1.07435C91.5931 -1.2752 91.5953 -1.48366 91.5531 -1.68541C91.5108 -1.88715 91.4253 -2.07744 91.3023 -2.24301C89.6289 -3.87393 87.8653 -5.40208 86.1533 -7.02017C85.5547 -7.67666 85 -8.37161 84.4926 -9.10056C83.6817 -7.36552 82.7527 -5.6879 81.7121 -4.0794C80.2189 -2.06321 78.4168 -0.226803 76.782 1.63528C73.847 5.03839 73.1004 9.18633 73.242 13.4242C73.4222 18.6637 74.1818 23.8775 73.3322 29.1427C72.5341 34.0226 71.0794 38.4916 67.3206 41.9846C66.9473 42.3313 66.6512 42.7551 66.3037 43.1404L66.2523 43.0762ZM-61.5596 12.3198L-61.9072 11.729C-63.4081 11.8266 -64.8956 12.0718 -66.3482 12.461C-68.3963 13.3964 -70.6369 13.8364 -72.8876 13.7452C-74.731 13.6575 -76.5703 13.9868 -78.2682 14.7084C-79.1049 14.978 -79.2595 15.4275 -79.311 16.3136C-79.3403 18.3379 -79.6344 20.3497 -80.1862 22.298C-81.1055 24.7802 -82.1495 27.2147 -83.3143 29.5922C-84.6567 32.738 -86.4853 35.6543 -88.7336 38.2348C-88.9933 38.5621 -89.1219 38.9741 -89.0941 39.3906C-88.9268 42.6396 -87.2147 45.4263 -86.172 48.3799C-85.7601 49.5614 -85.4384 50.7814 -85.1423 51.9885C-84.9106 52.9388 -84.7689 53.9019 -84.5758 54.8522C-83.6363 50.2217 -82.1093 45.7294 -80.0317 41.4838C-77.4531 36.8917 -74.3565 32.6089 -70.8022 28.7189C-68.6396 26.1506 -66.0908 23.9032 -65.1125 20.5386C-64.8361 19.7626 -64.5137 19.0035 -64.147 18.2656L-61.5725 12.3198H-61.5596ZM-13.0686 -28.2607L-13.4677 -28.3506C-13.7251 -27.6571 -14.0211 -26.9894 -14.2142 -26.2959C-15.6302 -21.0693 -17.1749 -15.8683 -18.3849 -10.5903C-18.7275 -8.37754 -18.844 -6.13579 -18.7325 -3.89959C-18.6355 -3.43456 -18.4378 -2.99628 -18.1533 -2.6154C-16.8661 -0.0470123 -15.0896 2.36727 -14.2915 5.08976C-13.1845 8.59561 -14.2143 12.1657 -15.4115 15.5303C-16.6086 18.8948 -17.5869 22.0925 -16.3511 25.8038C-15.6737 28.1759 -15.3357 30.6316 -15.347 33.098C-15.4678 34.3539 -15.794 35.5816 -16.3125 36.7323C-16.5442 37.4643 -16.4026 37.8495 -15.5788 38.0165C-14.4056 38.2704 -13.2526 38.6095 -12.1289 39.031C-11.2149 39.3777 -10.8416 39.031 -10.3525 38.3118C-8.38557 34.9208 -7.29725 31.0941 -7.18586 27.1779C-7.07001 23.8904 -7.28881 20.59 -7.31455 17.2896C-7.31455 15.5174 -7.09572 13.7195 -7.31455 11.973C-7.83622 7.85048 -9.04582 3.84414 -10.8932 0.119942C-12.6938 -3.92542 -13.6445 -8.29594 -13.6866 -12.722C-13.9047 -14.7065 -13.809 -16.7129 -13.4033 -18.6678C-12.3863 -21.9168 -12.8884 -25.0888 -13.1588 -28.2479L-13.0686 -28.2607ZM-31.8498 -42.374C-33.137 -41.8475 -34.4242 -41.398 -35.6342 -40.833C-36.3627 -40.5695 -37.0132 -40.128 -37.5265 -39.5488C-38.3702 -38.2426 -39.1354 -36.8875 -39.8178 -35.4907C-41.086 -32.9658 -41.3837 -30.065 -40.6546 -27.3361C-40.1214 -24.8788 -39.8282 -22.3758 -39.7792 -19.8621C-39.5441 -17.9143 -39.81 -15.9388 -40.5516 -14.1218C-41.0923 -12.9403 -41.5814 -11.7332 -42.1607 -10.5646C-42.893 -8.61771 -43.8614 -6.76759 -45.0442 -5.0554C-46.5374 -3.28321 -48.0434 -1.71646 -47.9018 0.762035C-47.9018 0.916138 -48.0692 1.07024 -48.1207 1.23718C-48.906 4.02388 -49.8326 6.77208 -50.399 9.61015C-50.3843 10.719 -50.0876 11.806 -49.5367 12.7692C-49.1119 13.8479 -48.5325 14.8882 -48.0048 15.9284L-47.1037 17.7263C-46.5245 16.5962 -46.4215 15.4532 -45.9967 14.4515C-44.4778 10.8172 -42.9587 7.15728 -41.2338 3.61291C-39.9465 1.04452 -38.4919 -1.3055 -37.0502 -3.71978C-35.2626 -6.35297 -34.5788 -9.57946 -35.1451 -12.7091C-35.9055 -16.7827 -35.5861 -20.9837 -34.2183 -24.8961C-33.0597 -28.6203 -31.7725 -32.2931 -30.5754 -36.0044C-30.3125 -36.6375 -30.2235 -37.329 -30.3178 -38.0078C-30.6654 -39.3818 -31.2319 -40.7045 -31.8498 -42.4125V-42.374ZM66.9473 207.838C69.7182 210.124 72.1727 212.767 74.2461 215.697C75.7486 217.993 77.5252 220.097 79.5367 221.964C82.1112 224.237 85.0847 226.022 87.8266 228.09C88.9903 228.79 89.9771 229.748 90.7102 230.889C91.8591 233.191 93.8149 234.991 96.2067 235.949C96.3212 236.004 96.4466 236.032 96.5736 236.032C96.7006 236.032 96.826 236.004 96.9405 235.949C98.0726 234.767 99.6053 234.048 101.24 233.933C101.356 233.933 101.472 233.817 101.562 233.715C103.428 231.711 105.707 231.609 108.114 232.508C110.058 233.24 111.976 234.126 113.855 234.909C114.872 235.51 116.003 235.895 117.176 236.039C120.021 235.814 122.853 235.441 125.659 234.922C126.744 234.738 127.806 234.437 128.826 234.023C131.207 233.098 133.717 233.702 136.15 233.445C136.524 233.426 136.891 233.331 137.226 233.166C137.562 233 137.859 232.767 138.101 232.482C138.342 232.196 138.522 231.864 138.63 231.506C138.737 231.148 138.769 230.772 138.725 230.401C138.752 230.188 138.734 229.971 138.671 229.765C138.607 229.56 138.501 229.37 138.359 229.208C138.216 229.046 138.041 228.917 137.844 228.828C137.648 228.739 137.435 228.694 137.219 228.693C134.76 228.1 132.174 228.325 129.856 229.336C126.819 230.885 123.457 231.691 120.047 231.686C115.438 231.686 111.654 229.259 107.972 226.78C106.872 225.845 105.58 225.162 104.188 224.777C100.87 224.321 97.5212 224.128 94.1729 224.199C90.5406 224.45 86.9105 223.68 83.6945 221.977C82.5298 221.292 81.4824 220.424 80.5922 219.409C79.3049 217.893 78.198 216.173 76.9751 214.567C76.1958 213.209 75.1802 212 73.9758 210.997C71.6745 209.783 69.2966 208.719 66.8573 207.812L66.9473 207.838ZM-69.5921 123.3C-68.3048 124.045 -67.0176 124.841 -65.7303 125.573C-61.5606 127.65 -58.2206 131.078 -56.2561 135.294C-55.9918 135.918 -55.5427 136.447 -54.9689 136.809C-50.5579 139.241 -46.1169 141.612 -41.6458 143.924C-40.0238 144.759 -38.286 145.336 -36.4967 146.094C-36.6285 145.602 -36.7189 145.099 -36.767 144.592C-36.8238 141.032 -37.9939 137.58 -40.1139 134.716C-40.7317 133.856 -41.4012 133.072 -42.1092 132.263C-44.6414 129.017 -47.7964 126.306 -51.3903 124.289C-55.5157 121.868 -59.993 120.1 -64.662 119.049C-65.3442 118.921 -65.9491 118.523 -66.67 118.368C-68.5623 117.919 -70.5318 117.534 -72.3726 117.084L-69.6952 123.261L-69.5921 123.3ZM186.611 12.8206C187.898 15.5303 189.185 18.3555 190.589 21.1037C191.726 23.3714 193.016 25.5595 194.45 27.653C195.286 28.8294 196.418 29.7643 197.733 30.3627C200.11 31.3064 202.559 32.0579 205.057 32.61C208.889 33.4392 212.333 35.5231 214.84 38.5301C216.128 40.1097 217.415 41.7407 218.702 43.3331C219.668 41.8049 219.693 41.5865 218.998 40.0198C218.136 38.0935 217.338 36.1672 216.424 34.2923C215.725 33.0854 214.933 31.9347 214.055 30.8507C213.123 29.7562 212.263 28.6023 211.481 27.3962C209.794 24.5243 207.814 21.8345 205.572 19.37C203.049 16.4172 199.587 14.418 195.763 13.7067C192.779 13.2385 189.771 12.9427 186.753 12.8206H186.611ZM111.152 163.765L110.997 164.137L113.327 165.421C116.648 167.155 119.764 169.274 123.381 170.455C126.627 171.371 129.647 172.949 132.25 175.091C132.871 175.656 133.574 176.124 134.335 176.478C137.689 178.114 141.364 178.991 145.097 179.047C146.578 179.19 148.072 179.072 149.512 178.7C151.436 177.755 153.232 176.568 154.854 175.168C156.746 173.679 157.931 171.829 156.978 169.21C156.747 168.58 156.643 168.105 155.91 167.925C152.91 167.386 149.911 166.898 146.899 166.256C143.858 165.652 140.709 165.897 137.798 166.962C136.061 167.431 134.268 167.656 132.469 167.63C131.175 167.62 129.884 167.512 128.607 167.309C123.304 166.757 117.923 166.616 112.928 164.343C112.327 164.12 111.712 163.935 111.087 163.79L111.152 163.765ZM-41.9547 29.3353C-42.4567 30.3242 -42.8429 31.2488 -43.3578 32.0964C-45.4689 35.5123 -46.8977 39.3777 -50.0901 42.0874C-50.0901 42.0874 -50.1931 42.2287 -50.2575 42.2929C-51.7014 43.9189 -53.2867 45.4143 -54.9946 46.7618C-59.4697 49.9458 -64.2065 52.7467 -69.1545 55.1348C-70.1654 55.5151 -71.1464 55.9701 -72.0895 56.496C-74.3937 57.9729 -75.2948 60.4513 -76.2988 62.8014C-76.9553 64.3167 -76.0541 67.0393 -74.754 67.5658C-73.1321 68.2079 -71.4071 68.5931 -69.605 69.1196C-69.4505 68.7343 -69.3089 68.2335 -69.0901 67.8354C-68.2533 66.0375 -67.8029 64.0599 -66.1037 62.6986C-62.641 59.8991 -59.2555 56.9969 -55.8056 54.2359C-54.5184 53.2727 -53.0895 52.6691 -51.8023 51.7701C-48.164 49.1729 -45.2094 45.7363 -43.1904 41.7535C-41.4733 38.9366 -40.4253 35.765 -40.1267 32.4816C-40.0519 31.8376 -40.1916 31.1868 -40.5243 30.6298C-40.857 30.0728 -41.3642 29.6405 -41.9676 29.3995L-41.9547 29.3353ZM71.1824 111.01C72.4697 113.578 73.4609 115.736 74.555 117.919C75.1075 118.76 75.5897 119.645 75.9968 120.564C76.5751 122.231 77.6708 123.671 79.1249 124.674C80.8098 125.877 82.4137 127.19 83.9263 128.603C87.1101 131.615 89.1444 135.637 89.6803 139.981C89.6559 140.762 89.7251 141.542 89.8863 142.306C90.3379 143.475 90.5158 144.732 90.4064 145.981C90.2971 147.229 89.9035 148.436 89.2556 149.51C91.8301 148.586 94.1342 147.776 96.4127 146.942C96.7565 146.752 97.0278 146.454 97.185 146.094C98.601 143.23 99.7595 140.482 97.687 137.246C94.9066 132.777 92.6797 127.987 89.8734 123.544C88.0386 120.5 85.4612 117.968 82.3815 116.185C78.9059 114.298 75.1729 112.846 71.1824 111.049V111.01ZM58.9406 41.2912L59.1337 41.0343C56.8295 39.0567 56.9711 36.4113 57.0226 33.8429C57.0226 30.748 58.9278 28.2053 59.9576 25.4186C60.9942 22.8995 61.8965 20.3275 62.6608 17.7134C63.2897 14.9653 63.7199 12.1757 63.948 9.36615C64.2287 7.21564 64.2719 5.04089 64.0767 2.88099C63.6262 -0.971596 62.7122 -4.82419 63.0469 -8.77951C63.0469 -8.93361 62.9053 -9.11338 62.7379 -9.4858C62.6092 -8.97212 62.5449 -8.67679 62.4548 -8.39426C61.3349 -4.54169 60.305 -0.791824 59.0306 2.94518C58.1295 5.6163 56.7651 8.08193 55.864 10.7916C54.5768 14.6442 53.4955 18.7022 52.2211 22.619C50.6121 27.499 51.1399 32.4174 51.938 37.3358C52.0016 37.6936 52.1384 38.0345 52.3399 38.3372C52.5415 38.6399 52.8034 38.8979 53.1093 39.0952C54.9758 39.9427 56.971 40.572 58.8891 41.2912H58.9406ZM206.641 -1.3055C206.641 -1.43391 206.756 -1.54953 206.821 -1.66511C204.878 -2.74784 202.88 -3.72939 200.835 -4.60588C197.447 -5.92025 194.357 -7.89831 191.747 -10.4233C190.707 -11.4718 189.807 -12.6501 189.069 -13.9291C188.889 -14.2545 188.614 -14.518 188.281 -14.6853C187.948 -14.8525 187.573 -14.9157 187.203 -14.8666C183.64 -14.801 180.112 -15.5754 176.905 -17.1268C175.572 -17.5639 174.195 -17.8567 172.799 -18C172.412 -18 172.001 -18 171.614 -18C169.794 -18.4881 167.875 -18.4748 166.062 -17.9615C164.248 -17.4482 162.608 -16.4541 161.316 -15.0849C159.671 -13.2853 157.516 -12.0268 155.137 -11.4764C155.742 -10.5389 156.283 -9.69133 156.837 -8.90797C157.583 -7.76504 161.29 -6.10836 162.591 -6.50646C164.419 -6.99644 166.026 -8.09245 167.148 -9.61427C168.293 -11.2067 169.426 -13.0045 171.769 -13.0944C173.165 -13.2941 174.582 -13.2941 175.978 -13.0944C179.84 -12.1056 183.624 -10.9113 187.409 -9.69131C188.09 -9.38086 188.663 -8.87584 189.057 -8.24017C189.779 -7.05367 190.754 -6.04046 191.913 -5.27251C193.072 -4.50456 194.387 -4.0007 195.763 -3.79683C199.445 -3.37305 203.152 -3.06482 206.563 -1.36969L206.641 -1.3055ZM40.5071 87.7019C40.2754 88.2541 40.1724 88.3697 40.1853 88.4853C40.1853 88.8705 40.2883 89.2558 40.3269 89.6411C40.6487 93.3524 41.1507 97.0637 41.2279 100.788C41.3051 104.512 41.0092 108.493 40.8289 112.346C40.8289 113.411 41.0735 113.797 42.2449 113.771C43.4251 113.709 44.606 113.879 45.7204 114.272C47.4418 115.005 49.1068 115.864 50.7021 116.84C51.8606 117.521 52.8518 118.51 54.049 119.088C56.3145 120.154 58.6831 121.027 61.0131 121.99L67.6167 124.738L67.8485 124.456C66.78 123.377 65.7631 122.247 64.6174 121.258C63.4718 120.269 62.1201 119.344 60.8844 118.368C60.1916 117.635 59.4087 116.992 58.5544 116.455C56.4871 115.512 54.7095 114.036 53.4053 112.179C50.4451 108.367 48.084 104.127 46.4027 99.6063C45.0573 96.4294 43.5271 93.3335 41.82 90.3345C41.4209 89.5383 41.0091 88.7549 40.4427 87.6634L40.5071 87.7019ZM145.457 -25.8464C144.517 -23.278 145.058 -21.7756 147.337 -20.44C147.955 -20.0804 148.624 -19.7337 149.152 -19.3356C150.831 -18.4454 152.274 -17.1688 153.361 -15.6114C154.648 -13.287 156.914 -13.043 158.935 -14.7895C160.956 -16.536 163.17 -17.8973 165.255 -19.4897C167.341 -21.0821 169.387 -22.5589 171.254 -24.2926C171.675 -24.7637 172.196 -25.1341 172.78 -25.3764C173.364 -25.6188 173.995 -25.7267 174.626 -25.6923C176.403 -25.5382 178.192 -25.4355 180.226 -25.2942C178.922 -26.2725 177.707 -27.3641 176.596 -28.5561C175.509 -29.7586 174.117 -30.646 172.567 -31.1245C171.861 -31.4445 171.071 -31.5273 170.314 -31.3606C169.557 -31.1938 168.875 -30.7865 168.37 -30.1998C166.384 -28.0635 164.165 -26.1554 161.754 -24.5109C159.012 -22.8543 156.18 -23.0084 153.335 -23.0341C150.498 -23.1834 147.764 -24.1416 145.457 -25.7951V-25.8464ZM-30.8972 -25.885H-31.219C-31.8857 -24.0332 -32.4358 -22.1418 -32.8666 -20.2217C-33.4201 -17.9822 -33.4201 -15.6421 -32.8666 -13.4026C-32.3264 -11.8346 -32.0863 -10.1792 -32.1587 -8.52266C-32.6195 -4.88266 -33.8478 -1.3813 -35.7629 1.75089C-36.561 3.24055 -37.4235 4.70451 -38.1701 6.21986C-39.7534 9.49455 -41.3369 12.795 -42.8043 16.121C-43.2246 17.0477 -43.4271 18.058 -43.3964 19.0746C-43.3158 20.2531 -43.0599 21.413 -42.637 22.5163C-42.3288 23.5349 -41.7934 24.4706 -41.0711 25.2535C-40.3488 26.0363 -39.4583 26.646 -38.4663 27.0367C-38.5693 25.8295 -38.6722 24.8021 -38.7366 23.7748C-38.8008 23.1772 -38.8008 22.5745 -38.7366 21.9769C-38.1606 17.7325 -36.4981 13.7077 -33.9093 10.2907C-33.5548 9.79375 -33.273 9.2489 -33.0726 8.67263C-31.6874 5.5878 -30.6721 2.35071 -30.0476 -0.971592C-29.3596 -4.3365 -29.3203 -7.80136 -29.9318 -11.1809C-30.8472 -14.5272 -31.2806 -17.9864 -31.219 -21.4545C-31.1289 -22.9313 -31.0516 -24.4081 -30.9744 -25.885H-30.8972ZM137.515 54.0946L136.575 51.3849C135.996 49.6898 135.468 47.9818 134.824 46.2481C134.542 45.2112 134.062 44.2387 133.408 43.3844C128.903 38.7099 128.607 32.944 129.058 27.1266C129.225 24.7893 130.512 22.5419 131.259 20.2432C131.375 19.8837 131.465 19.1774 131.259 19.0875C129.972 18.3555 128.491 17.7134 127.294 17.1484C126.612 20.6157 126.007 23.9418 125.286 27.2036C124.707 29.2958 124.619 31.4929 125.028 33.6246C125.363 35.2427 125.595 36.8607 125.968 38.4659C126.273 40.5322 126.827 42.5543 127.616 44.4888C129.74 48.5854 133.383 51.3464 137.476 54.0175L137.515 54.0946ZM156.772 98.5661C157.748 98.9605 158.621 99.5695 159.328 100.348C160.034 101.126 160.556 102.053 160.853 103.061C161.816 106.378 163.164 109.571 164.869 112.577C166.07 114.729 167.903 116.463 170.121 117.547C171.256 118.244 172.566 118.606 173.899 118.59C175.233 118.574 176.534 118.181 177.652 117.457C177.008 117.264 176.454 117.084 175.901 116.943C173.832 116.357 172.064 115.007 170.958 113.167C169.35 110.81 167.975 108.302 166.851 105.681C164.985 101.16 161.509 98.2066 157.673 95.5355C157.39 96.5114 157.081 97.5003 156.772 98.5661ZM169.027 -32.5628C168.293 -32.9344 167.508 -33.1941 166.697 -33.3333C164.367 -33.3333 161.998 -33.5773 159.784 -32.5628C158.497 -31.9464 157.068 -31.3813 155.742 -30.7135C152.704 -29.1725 149.654 -27.7342 145.766 -27.7984C146.487 -27.2847 146.886 -26.938 147.324 -26.6812C150.261 -24.92 153.708 -24.2005 157.107 -24.6393C159.948 -25.0344 162.603 -26.274 164.728 -28.1965C166.208 -29.4807 167.469 -30.9704 169.027 -32.5628ZM145.187 -29.6605C146.119 -29.4188 147.084 -29.3278 148.045 -29.3908C149.736 -29.8177 151.386 -30.3936 152.975 -31.1116C154.571 -31.818 156.051 -32.7939 157.635 -33.5516C161.133 -35.2004 165.112 -35.5289 168.834 -34.4762C170.301 -34.091 171.743 -33.6158 173.198 -33.192C173.125 -33.6973 172.863 -34.1563 172.464 -34.4762C170.105 -36.2083 167.339 -37.3051 164.431 -37.661C162.089 -37.8922 159.669 -37.2757 157.326 -37.494C155.189 -37.7018 153.048 -37.1417 151.288 -35.9145C150.786 -35.5806 150.079 -35.5678 149.576 -35.2467C147.517 -33.9625 145.599 -32.5627 145.187 -29.6219V-29.6605ZM-81.0874 16.1595C-81.2114 16.1451 -81.3366 16.1451 -81.4606 16.1595C-81.7824 16.3008 -82.0786 16.4806 -82.3875 16.6475C-86.6355 18.882 -88.592 22.9272 -90.4972 26.921C-91.1115 28.4632 -91.3422 30.1308 -91.1695 31.7813C-90.9969 33.4318 -90.4261 35.016 -89.5059 36.3984C-86.1205 31.557 -80.8814 20.911 -81.0874 16.1082V16.1595ZM68.4921 54.6339L63.6262 57.8573C63.8945 58.0245 64.1485 58.2135 64.3857 58.4223C65.8531 59.9248 67.5524 61.2476 68.1445 63.3922C69.0456 66.7567 69.9852 70.0956 70.9378 73.4473C71.1509 74.4786 71.5905 75.4499 72.2249 76.2915C72.8592 77.133 73.6727 77.8239 74.6066 78.3145C75.4433 78.7126 76.28 79.1235 77.1811 79.483C78.0822 79.8426 78.7644 80.0738 79.8585 80.4719C79.305 79.1877 78.8802 78.1988 78.5713 77.2229C77.8165 74.7235 76.2665 72.5373 74.1559 70.9946C73.6939 70.6335 73.294 70.1997 72.9717 69.7104C71.0151 67.3731 70.5001 64.5736 70.011 61.6842C69.6119 59.3855 69.1099 57.0996 68.6079 54.5825L68.4921 54.6339ZM160.647 9.63578C161.934 10.8172 163.028 11.9345 164.2 13.0389C164.41 13.2586 164.653 13.4448 164.921 13.5911C166.427 14.246 167.971 14.7983 169.426 15.5174C171.227 16.2056 172.908 17.1719 174.408 18.3811C176.649 20.4395 178.381 22.9894 179.467 25.8295C179.685 26.4973 180.561 26.9596 181.127 27.5118C181.309 27.2958 181.409 27.0232 181.41 26.7412C181.41 23.0428 179.248 20.1662 177.317 17.2511C176.792 16.2843 176.058 15.4463 175.167 14.7983C171.421 12.6408 168.177 9.66153 163.994 8.26176C161.587 7.46556 161.419 7.5297 160.647 9.63578ZM201.517 -0.457962C201.517 -0.213966 201.427 -0.098381 201.517 -0.0470123C201.644 0.128647 201.781 0.295963 201.929 0.453842L208.057 7.50405C209.991 9.70366 212.543 11.2738 215.381 12.0116C216.668 12.384 216.99 12.0116 217.119 10.7274C217.428 7.54259 214.969 5.84745 212.961 4.46052C210.015 2.68613 206.918 1.1735 203.706 -0.059864C203.011 -0.265781 202.293 -0.38649 201.569 -0.419399L201.517 -0.457962ZM123.651 150.948L123.432 150.846L115.709 152.721C113.265 153.181 110.737 152.815 108.526 151.68C107.986 151.386 107.499 151.004 107.084 150.55C105.591 149.189 104.136 147.789 102.398 146.171C102.128 147.368 101.757 148.541 101.291 149.677C100.88 150.499 100.97 151.038 101.69 151.424C103.776 152.554 105.835 153.748 108.024 154.673C109.624 155.376 111.32 155.839 113.057 156.047C116.031 156.329 118.502 154.762 120.909 153.363C121.915 152.643 122.854 151.835 123.715 150.948H123.651ZM76.1641 189.474C75.0957 187.278 74.2332 185.172 73.0876 183.22C72.1474 181.699 71.0516 180.279 69.8179 178.982C69.097 178.173 68.3118 178.25 67.7712 179.355C67.3202 180.294 66.7815 181.188 66.1621 182.026C66.0369 182.146 65.9406 182.293 65.88 182.456C65.8195 182.618 65.7964 182.792 65.8125 182.965C65.8285 183.138 65.8834 183.305 65.9729 183.453C66.0624 183.602 66.1842 183.728 66.3294 183.824C69.2462 186.274 72.5763 188.187 76.1641 189.474ZM-45.1342 26.1248C-45.2369 26.3625 -45.3062 26.6132 -45.3402 26.8697C-45.4824 28.9317 -46.3325 30.8819 -47.7474 32.3917C-50.9312 36.0388 -54.1836 39.626 -57.5047 43.1533C-59.4742 45.2337 -61.3665 47.5067 -64.1213 48.6239C-64.705 48.9675 -65.2308 49.4009 -65.6789 49.9081C-65.5383 49.9753 -65.3842 50.0103 -65.2283 50.0103C-65.0723 50.0103 -64.9184 49.9753 -64.7778 49.9081C-60.6856 47.7353 -56.8732 45.0746 -53.4242 41.9846C-51.653 40.4256 -50.0834 38.6526 -48.7515 36.7066C-47.0265 34.0611 -45.7393 31.146 -44.2332 28.3593C-43.641 27.2678 -43.8984 26.5743 -45.1342 26.1506V26.1248ZM-51.8151 120.718C-57.3117 114.85 -70.4931 111.729 -74.8569 113.899C-70.712 114.927 -66.7858 115.749 -62.9627 116.879C-59.1395 118.009 -55.2393 119.447 -51.8151 120.731V120.718ZM-47.3998 -4.81139C-44.8253 -6.57074 -40.8347 -16.8186 -41.4011 -19.6567C-42.4066 -17.8848 -43.6305 -16.2453 -45.0442 -14.7767C-48.391 -12.0028 -48.5583 -8.56124 -47.3998 -4.81139ZM-69.5021 125.791C-69.4343 126.656 -69.3008 127.515 -69.1029 128.359C-68.9485 128.899 -68.588 129.644 -68.1504 129.785C-65.1196 131.002 -62.2698 132.626 -59.6803 134.613C-59.1875 134.887 -58.6703 135.115 -58.1355 135.294C-60.4783 130.157 -64.5719 127.486 -69.5021 125.791Z" fill="#F8F3E8"/>
</svg>
