<svg width="269" height="311" viewBox="0 0 269 311" fill="none" xmlns="http://www.w3.org/2000/svg">
<path d="M164.347 80.5886L159.482 80.3676L162.521 70.639L158.531 69.0143L158.126 68.713L160.709 66.9863C164.625 68.5293 167.96 71.2579 170.249 74.7904C168.307 76.7836 166.358 78.7298 164.435 80.696" fill="#FDFBF8"/>
<path d="M146.324 60.7367C146.783 61.0779 147.35 61.4991 147.834 61.5239C150.95 61.6182 151.71 63.1894 150.773 65.9722C149.661 65.5526 148.525 65.198 147.371 64.9102C146.848 64.7102 146.283 64.644 145.728 64.7176C145.172 64.7911 144.644 65.0024 144.191 65.3318C143.738 65.6612 143.375 66.0982 143.133 66.6038C142.892 67.1093 142.781 67.6672 142.81 68.2266C142.09 72.8049 140.639 73.4032 136.638 70.8906L146.324 60.7367Z" fill="#FDFBF8"/>
<path d="M191.246 50.3254C191.507 49.9744 191.787 49.5961 192.611 48.8256C192.953 53.2715 196.905 53.6514 199.342 55.6729L198.199 54.2783C199.541 53.7761 200.927 53.403 202.339 53.1639C204.842 53.0118 204.132 55.3765 204.756 56.6791L196.833 57.413L195.603 57.5461C194.641 54.61 191.418 54.4355 189.56 52.5933L191.165 50.4335" fill="#FDFBF8"/>
<path d="M217.469 47.0159C217.766 47.2366 217.904 47.8417 218.18 47.9212C219.372 48.1785 220.59 48.2876 221.903 48.5511L221.761 49.8702L218.7 49.9846C218.262 51.4196 216.432 53.0355 219.459 54.321L219.959 51.6742L220.846 51.3276L222.11 54.5314L222.905 56.338L217.403 56.6911L214.743 51.5284L215.797 47.7429C216.307 47.4514 216.77 47.1668 217.26 46.9023L217.449 47.0429" fill="#FDFBF8"/>
<path d="M133.464 86.7222L130.119 88.0081L129.795 87.7675C128.629 87.1939 126.824 86.8585 127.812 85.078C128.254 84.4841 129.706 84.39 131.198 83.9059L130.888 77.556C130.903 77.4817 130.933 77.4112 130.979 77.3504C131.024 77.2897 131.082 77.2402 131.149 77.205L131.959 77.8072L136.577 79.7718L137.086 80.9474C135.682 81.3705 134.459 81.7187 134.561 83.7233C134.64 84.7456 133.79 85.8325 133.284 86.9651" fill="#FDFBF8"/>
<path d="M163.831 43.1087C164.047 43.2693 164.063 43.6997 164.279 43.8603C165.386 44.6831 166.736 45.6868 165.584 47.0105C165.042 47.7395 163.534 47.6245 161.719 48.036C161.792 49.3477 161.854 51.2379 161.79 53.5796L156.773 49.3894C159.106 47.2667 161.411 45.124 163.696 43.0083" fill="#FDFBF8"/>
<path d="M171.212 35.4348C171.748 36.2937 172.263 37.18 172.865 38.0049C173.212 38.3592 173.452 38.8041 173.556 39.2887C173.66 39.7732 173.625 40.2773 173.454 40.7427C173.284 41.208 172.984 41.6155 172.592 41.9181C172.199 42.2207 171.729 42.4058 171.236 42.4523L167.882 43.1869L166.45 40.4881L171.112 35.5699" fill="#FDFBF8"/>
<path d="M241.437 61.5206C242.688 58.2588 242.688 58.2586 247.615 60.2021C247.074 61.2675 246.487 62.3398 245.946 63.4052L241.437 61.5206Z" fill="#FDFBF8"/>
<path d="M195.701 57.4103L196.932 57.2772L195.701 57.4103Z" fill="#FDFBF8"/>
<path d="M217.463 13.6432L210.387 6.24561C212.132 5.19523 213.5 4.36855 215.091 3.41303C216.219 2.78634 217.546 2.61572 218.796 2.93701C220.046 3.25829 221.126 4.04726 221.813 5.14044C223.316 7.17937 224.797 9.0769 223.207 11.6674C222.906 12.0724 222.62 12.7399 222.324 12.8555C220.287 13.2276 219.288 14.1195 220.8 16.7101L219.441 16.7904L217.512 14.1405L217.733 13.8436" fill="#FDFBF8"/>
<path d="M203.362 24.6619C204.753 25.3829 206.089 26.2073 207.356 27.1278C207.869 27.5091 208.313 28.8866 208.052 29.2376C207.063 30.5117 205.891 31.6325 204.574 32.5629C202.996 33.1376 201.3 33.3094 199.638 33.0628C197.977 32.8162 196.404 32.1587 195.061 31.1504C194.65 30.634 194.385 30.0172 194.293 29.3639C194.179 28.4391 194.395 27.5036 194.906 26.724C195.416 25.9444 196.187 25.3714 197.08 25.1065C199.108 24.1827 201.173 22.5318 203.362 24.6619Z" fill="#FDFBF8"/>
<path d="M183.73 45.4919C183.151 45.4809 182.134 45.27 182.048 45.4991C180.72 48.075 179.81 50.878 176.348 51.532C175.79 51.6622 175.494 53.0766 175.173 53.6768C174.305 52.4912 173.498 51.2619 172.755 49.9935C172.013 48.9129 171.705 47.592 171.893 46.2944C172.08 44.9968 172.75 43.8176 173.768 42.9915L180.688 42.3087C180.999 44.0903 183.53 42.8282 184.827 43.9597L184.085 45.2953L183.621 45.4115" fill="#FDFBF8"/>
<path d="M189.031 37.5702C188.633 37.3581 188.268 37.0873 187.951 36.7671C187.168 36.1852 186.196 35.4631 186.104 34.5148C186.013 33.5665 187.108 33.1649 188.111 31.8149C186.975 32.1024 185.932 32.0396 185.45 32.5194C183.795 34.1816 182.417 32.8215 181.404 31.9848C180.989 31.5342 180.67 31.0045 180.465 30.4272C180.26 29.85 180.174 29.2375 180.212 28.6262C180.343 28.0994 180.577 27.6038 180.901 27.1682C181.225 26.7325 181.632 26.3653 182.099 26.0881C183.008 25.8203 183.985 25.9183 184.823 26.3609C185.66 26.8035 186.292 27.5557 186.583 28.4573C186.747 29.0824 186.824 29.7681 186.92 30.2589C188.031 30.2877 189.894 30.2056 189.908 30.2997C190.092 32.1329 190.122 33.9784 189.999 35.8166C189.961 36.3752 189.236 36.8425 188.835 37.3825L189.031 37.5702Z" fill="#FDFBF8"/>
<path d="M237.243 34.0034C238.176 33.0835 239.335 32.4256 240.603 32.0954C241.871 31.7651 243.205 31.7743 244.468 32.1221C246.466 33.6072 247.518 37.4915 245.952 39.261C245.549 39.5562 245.079 39.7452 244.584 39.8096C244.089 39.8741 243.586 39.8122 243.121 39.63C241.7 38.3664 240.38 36.9926 239.174 35.5221L237.203 34.0571" fill="#FDFBF8"/>
<path d="M126.162 4.63019C125.33 3.94338 124.78 2.97573 124.614 1.91007C124.448 0.844408 124.679 -0.245179 125.262 -1.15213C126.266 -2.50208 129.484 -2.20624 131.564 -0.324549C133.644 1.55714 132.204 3.04307 131.275 4.57437C130.346 6.10568 127.823 5.94852 126.162 4.63019Z" fill="#FDFBF8"/>
<path d="M215.716 47.6829L214.663 51.4689C214.666 55.0753 213.17 56.353 209.85 55.6877C208.861 55.4968 207.871 55.4743 206.747 55.3513C207.028 54.9733 207.248 54.3402 207.521 53.7469C208.676 51.6293 209.803 49.4915 210.931 47.3538L215.716 47.6829Z" fill="#FDFBF8"/>
<path d="M210.931 47.3532C209.803 49.4909 208.649 51.6086 207.521 53.7463L204.7 51.9013C203.369 51.1671 202.142 50.2555 201.055 49.1918C200.885 48.7506 200.826 48.2746 200.883 47.8052C200.939 47.3358 201.11 46.8876 201.38 46.4995C202.163 45.4465 203.522 43.8999 204.656 46.3778C205.191 47.1728 205.814 47.9033 206.516 48.556L206.84 48.797L206.663 48.4142C207.628 45.9879 209.478 47.2788 210.992 47.4404" fill="#FDFBF8"/>
<path d="M273.391 47.6307C271.227 49.7527 272.055 53.0931 268.783 52.5891C267.096 52.3335 265.519 51.5974 264.239 50.4689C263.929 50.0966 263.73 49.6449 263.663 49.1648C263.597 48.6848 263.667 48.1955 263.864 47.7531C264.062 47.3107 264.381 46.9332 264.782 46.6626C265.184 46.3919 265.654 46.2389 266.138 46.2219C268.599 46.5138 271.03 47.0168 273.405 47.7249" fill="#FDFBF8"/>
<path d="M119.789 92.152C120.643 91.9061 121.663 91.3231 122.579 91.5008C123.001 91.6526 123.379 91.9065 123.68 92.2397C123.981 92.5729 124.195 92.9753 124.303 93.411C124.51 95.385 124.44 97.3783 124.093 99.3326C124.066 99.6814 123.942 100.016 123.733 100.297C123.525 100.577 123.241 100.793 122.915 100.919C122.588 101.045 122.233 101.076 121.89 101.009C121.547 100.941 121.23 100.777 120.976 100.537C120.085 99.8749 118.954 98.0699 119.268 97.5908C119.761 97.0051 120.06 96.2804 120.124 95.5173C120.189 94.7542 120.015 93.9902 119.627 93.3303C119.627 93.3303 119.745 92.8318 119.897 92.2323" fill="#FDFBF8"/>
<path d="M257.17 27.4403C258.288 27.5163 259.43 27.276 260.166 27.6967C261.45 28.3607 262.534 29.3546 263.307 30.5764C263.379 31.1026 263.316 31.6387 263.124 32.1339C262.932 32.6291 262.617 33.0671 262.209 33.4069C260.557 33.7178 258.863 33.723 257.21 33.4218C257.021 33.2813 256.672 32.0583 256.69 31.3584C256.772 30.0639 256.919 28.7742 257.13 27.4944" fill="#FDFBF8"/>
<path d="M133.466 86.7236C133.892 85.6991 134.742 84.6122 134.744 83.4818C134.641 81.4772 135.864 81.1291 137.269 80.7059C138.673 81.7495 139.968 82.7122 141.313 84.005C141.458 84.2724 141.538 84.5709 141.545 84.8751C141.552 85.1792 141.486 85.4805 141.354 85.7544C140.235 86.5537 138.93 87.053 137.563 87.2037C136.196 87.3545 134.813 87.1517 133.546 86.6155" fill="#FDFBF8"/>
<path d="M235.494 4.49696L241.605 7.9493C240.533 8.99679 239.598 10.6493 238.368 10.9507C237.545 11.2174 236.653 11.1731 235.861 10.8261C235.069 10.4791 234.431 9.8532 234.069 9.06764C233.708 8.28208 233.647 7.39116 233.898 6.56368C234.15 5.7362 234.696 5.02967 235.434 4.57804" fill="#FDFBF8"/>
<path d="M243.382 23.4353C244.81 23.7399 246.175 24.2872 247.419 25.053C248.58 26.176 249.505 27.5194 250.141 29.0043C249.666 29.778 248.916 30.3431 248.041 30.5873C247.061 30.6956 246.077 30.4294 245.285 29.8411C244.494 29.2529 243.955 28.3865 243.776 27.4168C243.585 26.0529 243.487 24.6777 243.482 23.3005" fill="#FDFBF8"/>
<path d="M188.985 37.5756C190.848 38.9603 192.9 40.4857 189.578 42.4175C189.432 42.5285 189.321 42.6783 189.257 42.8496C187.757 46.2202 187.757 46.2199 184.874 43.7832C185.301 42.9323 185.597 42.0211 185.75 41.0813C185.704 40.163 186.008 39.2616 186.601 38.5586C187.193 37.8556 188.031 37.4035 188.943 37.2932L188.985 37.5756Z" fill="#FDFBF8"/>
<path d="M169.485 59.2986C170.378 58.9987 171.311 58.3083 172.085 58.5068C172.86 58.7053 173.396 59.7328 174.071 60.4027C173.192 60.7967 172.254 61.6082 171.513 61.4768C169.089 61.0163 168.1 62.7963 166.692 64.0134C166.207 64.4131 165.689 64.7712 165.143 65.0834C164.858 64.4521 164.215 63.6813 164.381 63.1759C164.919 61.6059 164.841 58.9486 167.921 60.2743C168.326 60.5753 169.059 60.323 169.617 60.3609L169.485 59.2986Z" fill="#FDFBF8"/>
<path d="M192.995 1.78582C193.593 1.76979 194.393 1.4842 194.596 1.71882C196.219 3.59575 198.167 2.94802 200.152 2.87221C200.966 2.84853 201.826 4.11633 202.663 4.73846C202.061 5.54844 201.132 7.08 200.957 7.03366C198.314 5.98433 195.73 4.79129 193.218 3.46035C193.029 3.31987 193.153 2.53203 193.123 1.83915" fill="#FDFBF8"/>
<path d="M234.475 54.8751C235.065 53.6817 235.51 52.4218 235.798 51.122C235.9 48.2217 238.467 47.5309 240.109 45.9427C240.309 45.6727 241.481 45.957 241.846 46.312C242.051 46.5609 242.198 46.8519 242.278 47.1645C242.357 47.4771 242.367 47.8037 242.305 48.1202C242.239 48.4906 241.642 49.0107 241.037 48.9797C237.453 49.4593 236.412 51.5365 239.031 55.1181L234.495 54.848" fill="#FDFBF8"/>
<path d="M191.246 50.327L189.641 52.4871L183.07 48.5254L184.495 46.6085C185.102 46.8078 185.75 47.2893 186.308 47.1591C186.844 46.9724 187.415 46.9092 187.979 46.9743C188.543 47.0394 189.084 47.2312 189.564 47.5352C190.043 47.8391 190.448 48.2473 190.747 48.7296C191.047 49.2118 191.234 49.7556 191.294 50.3201" fill="#FDFBF8"/>
<path d="M129.795 87.7689L130.119 88.0095L131.342 93.8645L133.026 94.362C131.424 95.8962 130.371 96.5803 129.286 94.432C129.187 94.1668 129.044 93.9193 128.865 93.7C125.734 90.0735 125.734 90.074 129.795 87.7689Z" fill="#FDFBF8"/>
<path d="M177.222 -3.27329L178.059 2.08534C176.74 1.94299 175.052 2.23938 174.236 1.59025C173.419 0.941127 173.283 -0.79419 172.8 -2.11757L177.195 -3.29337" fill="#FDFBF8"/>
<path d="M160.854 2.96126C164.544 2.05727 166.182 2.73023 166.574 4.74029C166.966 6.75034 165.419 6.85809 163.799 7.12073C159.832 7.77696 161.279 4.87025 160.854 2.96126Z" fill="#FDFBF8"/>
<path d="M237.244 34.0059L239.215 35.4709C238.263 37.8231 236.75 37.83 235.255 36.1745L229.844 30.9362L233.416 29.4L233.783 30.2596L232.476 31.342C232.565 31.5724 232.686 31.7891 232.835 31.9862C234.852 31.4729 234.361 36.4741 237.264 33.9789" fill="#FDFBF8"/>
<path d="M158.026 68.6812L158.431 68.9825L158.703 74.2562C156.033 74.409 156.033 74.4089 153.652 68.3638L158.066 68.6272" fill="#FDFBF8"/>
<path d="M202.243 18.3852C199.587 18.8003 197.131 18.7769 196.66 15.5763C196.591 15.1056 197.664 14.2264 198.282 14.0152C200.11 13.5296 201.713 15.4338 202.243 18.3852Z" fill="#FDFBF8"/>
<path d="M181.155 20.9846C181.67 19.9804 182.349 19.0681 183.161 18.2847C184.147 17.8026 185.205 17.4845 186.293 17.3428C186.243 18.1437 186.448 19.0508 186.135 19.6981C184.614 22.7592 183.887 22.7221 181.309 20.8897" fill="#FDFBF8"/>
<path d="M196.623 36.7157L200.445 38.3408C200.483 39.4171 200.618 40.9847 200.748 43.0093C197.627 41.5694 196.011 39.7393 196.623 36.7157Z" fill="#FDFBF8"/>
<path d="M220.905 26.8903C221.507 26.0804 222.271 25.391 222.626 25.0261C223.506 25.8294 224.464 26.5417 225.487 27.153C227.422 28.0463 227.575 29.0819 226.336 30.4665L221.84 28.5078L220.885 26.9174" fill="#FDFBF8"/>
<path d="M222.719 -2.9027L228.818 0.792151C227.142 1.04034 225.453 1.18442 223.759 1.22406C223.107 1.19995 221.913 0.438242 221.978 -0.100296C222.092 -1.13054 222.384 -2.13338 222.839 -3.06452" fill="#FDFBF8"/>
<path d="M144.804 90.0793C146.084 88.9771 147.269 87.7203 149.132 89.105C150.995 90.4898 151.351 91.7599 149.686 92.7023L145.159 91.3495L144.723 90.1874" fill="#FDFBF8"/>
<path d="M160.751 66.9326C160.221 66.8574 159.712 66.6697 159.26 66.3823C158.808 66.095 158.422 65.7144 158.128 65.2661C157.834 64.8178 157.64 64.3123 157.557 63.7828C157.475 63.2533 157.506 62.7122 157.649 62.1958L162.065 62.6277L160.704 66.9395" fill="#FDFBF8"/>
<path d="M220.902 26.8898L221.858 28.4802C221.459 29.693 221.312 31.47 219.338 30.7989C218.415 30.4059 217.097 29.1329 217.328 28.2572C217.636 26.2643 219.435 26.8895 220.802 27.0249" fill="#FDFBF8"/>
<path d="M136.677 79.6396L132.06 77.6746L135.782 76.5014L136.677 79.6396Z" fill="#FDFBF8"/>
<path d="M147.506 97.6633C144.543 98.7727 143.471 98.1852 142.7 94.091L147.959 96.6585C147.758 96.9285 147.558 97.1987 147.546 97.6092" fill="#FDFBF8"/>
<path d="M220.035 42.2138C219.132 40.4953 218.217 39.019 217.687 37.7026C217.729 37.5221 217.808 37.3525 217.918 37.2038C218.029 37.0552 218.168 36.9304 218.329 36.8384C218.501 36.802 218.68 36.8075 218.85 36.8536C219.02 36.8996 219.176 36.985 219.306 37.1034C220.185 38.0737 220.954 39.1378 221.601 40.2762C221.898 40.4969 221.397 41.5081 221.029 41.947C220.661 42.386 220.055 42.1868 220.007 42.1937" fill="#FDFBF8"/>
<path d="M206.404 14.478C208.134 14.8002 209.231 14.7351 209.987 15.2971C210.743 15.859 210.35 16.7823 210.508 17.5285C209.532 17.5999 208.437 18.0014 207.615 17.6416C206.792 17.2818 207.037 16.1641 206.485 14.5383" fill="#FDFBF8"/>
<path d="M146.418 71.6648C147.805 71.8503 149.171 72.1646 150.5 72.603C150.689 72.7435 150.548 74.5671 150.36 74.5948C149.401 74.8123 148.401 74.7772 147.46 74.4929C147.055 74.1919 146.929 73.1765 146.418 71.6648Z" fill="#FDFBF8"/>
<path d="M144.803 90.0794L145.239 91.2418C145.255 94.9423 142.944 92.6373 141.336 92.8259C141.656 90.5907 142.156 89.243 144.803 90.0794Z" fill="#FDFBF8"/>
<path d="M180.273 54.8266C181.814 55.0083 182.991 54.8354 183.444 55.2977C183.897 55.76 183.935 57.0043 184.114 57.8916C183.267 58.0164 182.091 58.526 181.653 58.1578C181.214 57.7896 180.892 56.4185 180.273 54.8266Z" fill="#FDFBF8"/>
<path d="M190.04 14.5553C192.808 13.5947 194.209 13.7972 194.466 15.7069C194.549 16.2718 193.563 16.9217 193.081 17.5697L190.04 14.5553Z" fill="#FDFBF8"/>
<path d="M217.471 47.017L217.174 46.796C217.035 45.6865 216.915 44.5501 216.749 43.4204L221.577 44.3687C219.772 45.5 218.572 46.326 217.491 46.99" fill="#FDFBF8"/>
<path d="M229.669 8.04625L226.725 5.85859C227.282 5.34961 227.895 4.90499 228.55 4.53236C229.35 5.36932 230.085 6.26585 230.749 7.21421C230.448 7.6192 230.146 8.02422 229.676 8.26173" fill="#FDFBF8"/>
<path d="M245.28 53.141C246.861 53.2688 248.099 53.0147 248.531 53.504C248.964 53.9933 248.854 55.2114 248.966 56.1326C248.233 56.2165 247.138 56.6183 246.753 56.2903C246.1 55.3239 245.604 54.2612 245.28 53.141Z" fill="#FDFBF8"/>
<path d="M227.159 20.0552C226.934 24.0797 226.88 24.0395 222.283 22.2157C224.271 21.346 225.554 20.7484 227.159 20.0552Z" fill="#FDFBF8"/>
<path d="M182.387 37.0334C181.713 39.9698 179.297 38.4256 177.806 39.0779C177.65 38.6682 177.197 38.0378 177.337 37.8488C177.67 37.3438 178.188 36.9907 178.78 36.8669C179.984 36.8229 181.191 36.8788 182.387 37.0334Z" fill="#FDFBF8"/>
<path d="M244.59 42.1086C245.442 43.1613 246.388 44.1997 247.127 45.2933C247.397 45.4939 247.023 46.3903 246.708 46.7012C246.393 47.012 245.592 46.7936 245.484 46.5451C244.799 45.3235 244.241 43.9869 243.671 42.7244C243.871 42.4544 244.261 42.3253 244.59 42.1086Z" fill="#FDFBF8"/>
<path d="M197.386 45.1649C196.384 46.8512 195.65 48.0656 194.855 49.3608C193.054 46.7648 193.735 45.6784 197.386 45.1649Z" fill="#FDFBF8"/>
<path d="M184.575 46.4969L183.809 45.383L184.273 45.2669L184.528 46.5038L184.575 46.4969Z" fill="#FDFBF8"/>
<path d="M206.543 48.4057L206.721 48.79L206.395 48.548L206.543 48.4057Z" fill="#FDFBF8"/>
<path d="M131.856 157.458L132.922 159.634C132.26 160.525 131.346 160.684 130.811 159.993C130.277 159.302 130.811 158.358 131.856 157.458Z" fill="#FDFBF8"/>
<path d="M223.236 309.582C219.798 308.638 216.375 307.665 212.908 306.765C210.031 306.013 207.095 305.467 204.262 304.582C200.087 303.299 195.882 301.971 191.839 300.29C189.991 299.24 188.269 297.983 186.705 296.544C182.899 293.727 180.331 289.833 177.616 286.072C175.507 283.122 173.367 280.172 171.361 277.223C170.503 275.794 169.729 274.317 169.045 272.798C166.964 268.727 164.618 264.76 162.863 260.586C160.649 255.468 158.953 250.128 156.799 244.996C155.308 241.464 154.73 237.615 155.117 233.801C155.441 230.07 156.017 226.427 156.474 222.636C156.858 219.48 157.109 216.309 157.596 213.182C158.201 209.451 158.879 205.719 159.735 202.047C160.664 198.05 161.682 194.053 162.907 190.144C164.451 185.764 166.786 181.704 169.797 178.168C172.585 174.658 176.067 171.708 178.885 168.197C182.839 163.257 188.52 160.823 193.639 157.504C196.721 155.441 199.918 153.555 203.215 151.856C207.724 149.55 212.353 147.487 217.083 145.676C224.46 142.932 232.221 142.726 239.952 143.198C250.319 143.92 260.5 146.327 270.094 150.322C274.166 151.974 277.987 154.26 282.015 156.044C287.473 158.613 292.321 162.314 296.238 166.9C298.36 169.241 300.152 171.861 301.564 174.687C304.648 180.911 307.466 187.268 310.21 193.684C312.049 197.779 313.492 202.042 314.518 206.412C315.742 212.312 317.38 218.212 317.026 224.362C317.015 228.059 317.232 231.753 317.675 235.424C317.675 235.556 317.882 235.66 318 235.778C318 239.539 318 243.314 318 247.075C317.69 248.742 317.365 250.394 317.1 252.061C316.377 256.485 314.4 260.615 312.674 264.73C311.639 267.273 310.421 269.738 309.03 272.105C304.161 280.172 297.049 286.396 291.074 293.564C288.832 296.249 285.733 297.694 282.65 299.228C276.151 302.604 269.317 305.293 262.26 307.252C259.914 307.842 257.671 308.727 255.384 309.597C241.884 311.263 239.273 311.662 223.236 309.597V309.582ZM242.962 149.098C241.353 149.275 239.716 149.378 238.107 149.599C234.486 149.958 230.887 150.504 227.323 151.236C220.636 152.88 214.235 155.52 208.334 159.068C205.236 160.941 204.484 163.493 206.254 166.634C216.09 184.195 225.96 201.766 235.865 219.347C236.44 220.38 237.222 221.058 238.299 220.822C239.376 220.586 240.66 220.498 241.25 218.89C248.273 199.525 255.428 180.203 262.422 160.823C262.705 159.586 262.505 158.288 261.861 157.195C260.199 154.562 257.746 152.523 254.853 151.369C251.093 149.796 247.052 149.003 242.976 149.038L242.962 149.098ZM168.617 198.109C168.425 204.569 170.962 206.811 175.743 208.3C192.96 213.669 210.237 218.757 227.499 223.949C228.798 224.332 230.081 224.745 231.394 225.085C231.898 225.274 232.456 225.263 232.953 225.055C233.449 224.846 233.847 224.456 234.065 223.964C234.389 223.154 234.389 222.251 234.065 221.442C232.589 218.713 230.996 216.043 229.344 213.418C223.896 205.155 219.016 196.532 214.737 187.607C211.167 179.79 206.534 172.445 202.329 164.923C202.022 164.446 201.566 164.083 201.031 163.891C198.137 162.959 194.993 163.208 192.282 164.584C185.525 167.431 180.789 172.607 176.628 178.478C174.054 182.475 172.067 186.821 170.727 191.383C169.812 194.023 169.059 196.737 168.632 198.109H168.617ZM246.488 222.917C247.388 222.459 248.155 222.032 248.952 221.678C253.525 219.623 258.104 217.587 262.688 215.572C269.386 212.622 276.055 209.554 282.812 206.722C287.504 204.775 292.358 203.182 297.123 201.398C298.47 200.949 299.711 200.228 300.767 199.279C301.823 198.33 302.672 197.173 303.261 195.881C303.726 194.972 303.915 193.947 303.807 192.932C302.907 189.185 301.933 185.454 300.738 181.796C299.355 177.678 297.155 173.88 294.271 170.632C291.386 167.383 287.875 164.749 283.948 162.888C280.746 161.251 276.955 160.735 273.399 159.805C268.574 158.522 265.299 160.602 263.676 165.012C257.115 182.996 250.516 200.955 243.876 218.89C243.595 219.5 243.563 220.195 243.786 220.828C244.009 221.462 244.47 221.983 245.071 222.282C245.514 222.547 245.978 222.773 246.458 222.961L246.488 222.917ZM231.704 237.489C231.808 235.114 231.291 234.627 229.786 235.217C225.537 236.928 221.229 238.506 217.142 240.542C211.456 243.613 205.423 245.994 199.172 247.636C197.003 248.137 194.746 248.403 192.665 249.111C186.911 250.94 181.172 252.798 175.507 254.892C173.72 255.55 172.123 256.639 170.859 258.064C170.31 258.685 169.888 259.409 169.62 260.193C169.352 260.978 169.241 261.808 169.295 262.636C170.771 269.936 173.722 276.662 179.166 281.986C181.91 284.641 184.536 287.414 187.458 289.862C190.43 292.627 193.893 294.813 197.667 296.308C199.007 296.737 200.451 296.721 201.781 296.261C203.111 295.801 204.256 294.922 205.044 293.756C211.183 282.198 216.685 270.312 221.524 258.152C223.605 253.103 226.144 248.255 229.108 243.668C230.188 241.715 231.073 239.66 231.749 237.533L231.704 237.489ZM234.139 307.591C236.166 307.536 238.185 307.309 240.173 306.912C244.422 305.718 248.583 304.199 252.773 302.827C254.352 302.296 254.514 301.072 254.248 299.715C254.116 298.977 253.717 298.24 253.511 297.547C251.873 291.736 250.162 285.939 248.642 280.099C247.167 274.671 246.075 269.17 244.761 263.712C243.448 258.255 242.121 253.255 240.896 248.019C240.144 244.76 239.701 241.441 238.934 238.197C238.491 236.309 237.001 235.881 235.717 237.326C234.607 238.736 233.648 240.259 232.855 241.869C232.309 242.828 232.059 243.978 231.38 244.819C226.437 251.928 223.604 260.069 220.004 267.827C217.496 273.255 215.136 278.756 212.627 284.199C211.04 287.173 209.66 290.253 208.497 293.417C207.493 296.839 207.124 298.358 211.374 300.364C213.41 301.337 215.386 302.429 217.452 303.314C222.697 305.638 228.3 307.05 234.021 307.488L234.139 307.591ZM159.292 234.568C159.676 237.518 159.927 239.952 160.281 242.311C160.57 245.246 161.427 248.096 162.803 250.704C163.502 251.705 164.488 252.471 165.631 252.9C166.775 253.33 168.022 253.402 169.207 253.108C174.976 251.19 180.759 249.214 186.602 247.533C190.305 246.471 194.215 246.058 197.918 245.04C208.983 241.899 218.957 235.955 229.831 232.297C230.124 232.123 230.372 231.883 230.557 231.596C230.741 231.309 230.856 230.984 230.893 230.645C231.04 228.359 230.332 227.518 228.149 226.869C209.824 221.353 191.495 215.847 173.161 210.35C171.961 210.002 170.683 210.033 169.502 210.439C165.326 212.076 163.6 215.748 162.42 219.731C162.007 221.102 161.786 222.548 161.491 223.964C160.723 227.68 160.015 231.338 159.292 234.568ZM262.437 300.703C263.374 300.777 264.317 300.777 265.255 300.703C271.4 299.905 277.326 297.9 282.694 294.803C286.943 292.237 290.956 289.449 291.856 283.978C291.995 283.452 291.985 282.899 291.829 282.378C291.673 281.858 291.376 281.39 290.971 281.028C289.392 279.464 287.872 277.812 286.382 276.161C282.517 271.898 278.917 267.311 274.786 263.388C268.958 257.754 262.702 252.562 256.697 247.164C254.366 245.04 252.183 242.739 249.97 240.468C248.214 238.683 246.591 236.736 244.717 235.07C244.321 234.848 243.877 234.724 243.422 234.708C242.968 234.693 242.516 234.787 242.106 234.981C241.589 235.247 241.339 236.456 241.398 237.238C241.501 238.565 242.017 239.848 242.224 241.176C243.191 247.501 244.581 253.753 246.385 259.892C248.627 267.267 250.427 274.774 252.492 282.208C253.791 286.883 254.189 291.795 256.314 296.293C258.04 299.936 258.881 300.851 262.437 300.836V300.703ZM306.079 243.477C310.21 243.477 311.435 242.651 312.497 239.435C312.849 238.648 313.154 237.84 313.411 237.017C313.932 234.829 314.287 232.606 314.474 230.365C314.532 227.971 314.429 225.576 314.164 223.197C314.029 220.874 313.768 218.56 313.382 216.265C312.58 212.093 310.599 208.239 307.672 205.159C305.415 202.74 303.084 201.619 299.646 203.153C289.126 207.828 278.445 212.164 267.837 216.633C261.935 219.096 256.151 221.604 250.279 224.008C249.656 224.253 249.126 224.689 248.766 225.253C248.405 225.817 248.233 226.481 248.273 227.149C248.273 227.71 249.66 228.3 250.442 228.831C250.708 228.956 250.992 229.04 251.283 229.082C266.322 233.084 281.356 237.071 296.385 241.043C299.838 241.958 303.32 242.813 306.079 243.506V243.477ZM311.405 255.895C311.346 254.171 311.183 252.452 310.918 250.748C310.69 249.927 310.223 249.193 309.576 248.639C307.289 246.486 304.264 245.837 301.372 245.07C285.409 240.763 269.42 236.52 253.407 232.341C251.821 231.965 250.208 231.714 248.583 231.589C248.125 231.589 247.639 231.899 247.107 232.076C247.249 232.562 247.463 233.024 247.742 233.447C250.486 236.397 253.171 239.435 256.093 242.208C262.186 247.99 268.589 253.462 274.564 259.347C279.374 264.081 283.756 269.229 288.3 274.243C290.181 276.389 292.631 277.959 295.367 278.771C295.982 278.998 296.643 279.07 297.291 278.98C297.94 278.89 298.556 278.641 299.085 278.255C302.238 275.851 305.018 272.993 307.333 269.774C310.461 265.6 310.697 260.541 311.346 255.895" fill="#FDFBF8"/>
<path d="M200.683 104.61C199.51 106.106 199.179 107.664 198.41 108.987C198.295 109.258 198.126 109.502 197.912 109.705C197.699 109.908 197.447 110.065 197.171 110.166C196.876 110.216 196.575 110.203 196.286 110.127C194.599 109.795 192.787 109.114 192.024 107.58C191.768 106.998 191.643 106.367 191.655 105.731C191.668 105.095 191.82 104.47 192.099 103.899C192.575 102.84 193.326 101.927 194.273 101.257C194.609 101.082 194.873 100.795 195.019 100.446C195.057 100.237 195.025 100.022 194.927 99.8346C194.828 99.6469 194.67 99.4974 194.477 99.41C194.09 99.2384 193.671 99.1491 193.248 99.1479C192.243 99.1052 191.281 99.0397 190.301 98.9796C190.233 98.9944 190.163 98.993 190.095 98.9757C190.028 98.9583 189.965 98.9255 189.913 98.8797C189.86 98.8339 189.82 98.7764 189.793 98.712C189.767 98.6475 189.756 98.5777 189.762 98.5083C189.495 96.3106 189.948 94.0856 191.054 92.1674C191.156 91.9485 191.309 91.7565 191.498 91.6063C191.849 91.4079 192.259 91.3435 192.653 91.4251C193.862 91.5514 195.018 91.9865 196.011 92.6885C196.493 93.0381 197.019 93.4639 197.604 93.3659C197.907 93.2667 198.166 93.0669 198.34 92.7997C198.513 92.5325 198.59 92.214 198.557 91.8971C198.466 91.2675 198.28 90.6552 198.007 90.0807C197.878 89.7884 197.809 89.4728 197.806 89.1532C197.803 88.8335 197.865 88.5165 197.989 88.2219C198.47 87.3525 199.685 87.2719 200.697 87.3419C202.157 87.3872 203.58 87.8102 204.828 88.5697C205.097 88.7245 205.297 88.9758 205.388 89.2726C205.41 89.5432 205.355 89.8146 205.228 90.0548L204.328 92.1915C204.22 92.404 204.162 92.6387 204.159 92.8773C204.191 93.0868 204.291 93.2797 204.445 93.4254C204.599 93.5711 204.797 93.6612 205.008 93.6813C205.428 93.7254 205.852 93.6519 206.232 93.4689C207.363 92.8732 208.527 92.3449 209.72 91.8869C210.937 91.5182 212.493 91.8103 213.098 92.9258C213.29 93.3141 213.417 93.7315 213.473 94.161L213.833 96.2334C213.939 96.6548 213.943 97.0953 213.845 97.5187C213.702 97.8862 213.453 98.2031 213.13 98.4296C212.396 99.0223 211.469 99.321 210.528 99.2675C210.065 99.1956 209.598 99.1517 209.129 99.1358C208.893 99.1324 208.661 99.1919 208.456 99.3081C208.25 99.4243 208.08 99.5931 207.961 99.7971C207.867 100.053 207.859 100.332 207.938 100.592C208.017 100.853 208.179 101.081 208.399 101.241C208.858 101.534 209.367 101.74 209.901 101.847C210.519 102.019 211.124 102.233 211.712 102.488C212.129 102.614 212.513 102.83 212.837 103.121C213.162 103.412 213.419 103.77 213.59 104.17C213.714 104.914 213.544 105.678 213.114 106.298C211.551 108.895 209.254 110.971 206.512 112.264C206.251 112.435 205.957 112.55 205.648 112.603C205.34 112.655 205.024 112.644 204.721 112.569C204.388 112.368 204.108 112.089 203.906 111.757C203.703 111.425 203.584 111.049 203.558 110.66L202.805 107.259C202.703 106.665 202.503 106.093 202.212 105.565C201.881 105.06 201.672 104.568 200.726 104.686C200.828 104.596 200.617 104.719 200.726 104.686" fill="white"/>
<path d="M205.259 97.5215C203.487 91.6725 194.402 94.415 196.177 100.273C197.952 106.131 207.031 103.371 205.259 97.5215Z" fill="#F8E8B7"/>
</svg>
