<svg width="155" height="339" viewBox="0 0 155 339" fill="none" xmlns="http://www.w3.org/2000/svg">
<path d="M128.048 331.32C126.469 330.027 124.957 328.635 123.583 327.356C122.648 326.483 121.711 325.593 120.792 324.701L117.946 322.017C117.263 321.458 116.642 320.842 115.974 320.264L114.45 318.924C114.255 318.743 114.076 318.545 113.916 318.333L113.552 317.911L110.906 315.267L109.909 314.281L109.258 313.192C109.162 312.664 109.206 312.119 109.387 311.614C109.568 311.108 109.88 310.658 110.29 310.311C111.286 309.319 112.084 308.146 112.64 306.856C112.804 306.542 112.959 306.22 113.123 305.907C113.893 304.496 114.588 303.025 115.27 301.589C115.662 300.751 116.064 299.921 116.474 299.081C117.076 297.874 117.686 296.658 118.313 295.439C118.789 294.5 119.265 293.56 119.732 292.613C121.249 289.432 122.465 286.117 123.364 282.711C123.602 281.855 123.804 280.968 123.956 280.104C124.108 279.239 124.319 278.53 124.522 277.754C124.726 276.978 124.883 276.597 125.081 276.016C125.278 275.436 125.526 274.681 125.689 274.011C126.18 271.898 126.975 269.867 128.048 267.982C128.554 267.167 128.917 266.271 129.12 265.334L129.361 263.986C129.997 260.627 130.657 257.164 131.057 253.736C131.915 247.758 132.174 241.71 131.832 235.684C131.775 235.112 131.736 234.539 131.666 234.002C131.547 231.346 131.202 228.705 130.633 226.109C128.755 218.768 126.132 211.639 122.805 204.834C120.643 200.299 118.18 195.81 115.809 191.474L113.229 186.751C111.455 183.475 109.454 180.06 107.212 176.433C106.541 175.395 105.819 174.391 105.048 173.425C104.415 172.598 103.744 171.74 103.155 170.84C99.3663 165.332 95.0316 160.221 90.2164 155.585L89.4183 154.808C88.815 154.281 88.2533 153.707 87.7383 153.093C86.3892 151.464 85.1495 149.738 84.0876 148.266C83.9164 148.039 83.7943 147.779 83.729 147.502C83.6637 147.225 83.6566 146.938 83.7083 146.658L83.7606 146.5C84.2122 144.991 84.7702 143.516 85.4303 142.085C86.3546 140.183 87.3832 138.305 88.3738 136.473L89.6298 134.147L91.5986 130.441C93.302 127.229 95.0146 124.025 96.7365 120.828C96.8743 120.482 97.081 120.168 97.344 119.904C97.6071 119.641 97.9209 119.434 98.2663 119.296C98.6117 119.157 98.9815 119.091 99.3531 119.1C99.7247 119.11 100.09 119.195 100.428 119.351C101.124 119.611 101.875 119.824 102.6 120.031C103.325 120.238 103.919 120.415 104.562 120.648L105.063 120.826C109.032 122.25 113.14 123.711 117.137 125.251C118.189 125.677 119.212 126.169 120.202 126.723L121.757 127.517L125.065 129.127C126.838 129.975 128.603 130.832 130.37 131.706L131.049 132.045C133.405 133.216 135.851 134.429 138.181 135.764C139.906 136.771 141.553 137.907 143.108 139.162C144.142 140.008 145.195 140.87 146.11 141.805C146.618 142.22 147.056 142.702 147.549 143.136C147.853 143.386 148.167 143.643 148.472 143.892C149.164 144.383 149.787 144.966 150.324 145.623C152.28 148.244 154.273 151.065 156.591 154.524C158.134 156.822 159.602 159.229 161.019 161.548L161.191 161.827C163.846 166.41 166.106 171.212 167.946 176.18C168.613 177.87 169.349 179.57 170.072 181.212C170.951 183.246 171.871 185.343 172.666 187.462C173.899 190.759 175.04 194.15 176.128 197.436L177.319 200.992C177.573 201.756 177.752 202.536 177.913 203.224L179.006 208.199L179.239 209.271L179.459 210.208C179.634 210.954 179.784 211.695 179.921 212.488C180.748 218.637 181.197 224.832 181.267 231.039C181.278 231.403 181.322 231.763 181.358 232.133C181.395 232.503 181.433 232.72 181.454 233.015L181.504 233.783C181.587 235.056 181.668 236.389 181.704 237.702C181.729 238.557 181.711 239.408 181.685 240.268L181.652 241.647L181.655 242.886C181.662 243.649 181.655 244.431 181.627 245.181C181.487 247.895 181.295 250.597 181.139 253.313C181.096 253.912 181.036 254.512 180.976 255.113C180.917 255.713 180.877 256.252 180.84 256.825C180.766 257.8 180.748 258.821 180.645 259.756C180.535 261.398 180.435 263.047 180.299 264.682C180.163 266.317 179.893 268.136 179.663 269.679C179.605 270.056 179.525 270.43 179.425 270.798C179.294 271.238 179.214 271.69 179.185 272.147C178.945 274.707 178.329 277.218 177.357 279.6C177.165 280.154 176.972 280.692 176.788 281.237C175.656 284.341 174.285 287.352 172.685 290.244C171.801 291.947 170.887 293.703 170.086 295.474L169.863 295.972C169.546 296.763 169.148 297.52 168.677 298.231C167.709 299.603 166.654 300.949 165.636 302.249L164.469 303.675C162.938 305.535 161.233 307.245 159.379 308.783C158.776 309.32 158.199 309.837 157.648 310.334L155.921 311.935C154.655 313.124 153.349 314.343 152.011 315.489C150.672 316.635 149.184 317.813 147.807 318.911C146.72 319.768 145.643 320.633 144.584 321.513C144.223 321.82 143.887 322.155 143.579 322.514C143.206 322.935 142.802 323.328 142.371 323.689C139.771 325.735 137.606 327.364 135.498 328.885C133.798 330.183 131.851 331.12 129.777 331.637C129.478 331.71 129.167 331.723 128.863 331.673C128.559 331.624 128.269 331.513 128.009 331.349L128.048 331.32ZM110.041 312.951L110.07 312.996L110.533 313.725L111.455 314.634L114.108 317.269C114.258 317.428 114.399 317.595 114.531 317.77C114.671 317.941 114.821 318.104 114.978 318.259L116.484 319.584C117.177 320.151 117.86 320.71 118.484 321.36L121.322 324.053L124.121 326.699C125.513 327.993 127.015 329.361 128.586 330.662C128.903 330.817 129.264 330.856 129.607 330.771C131.56 330.279 133.391 329.388 134.985 328.156C137.017 326.727 139.205 325.071 141.789 323.044C142.182 322.712 142.549 322.351 142.888 321.965C143.226 321.578 143.59 321.215 143.978 320.878C145.054 319.996 146.131 319.132 147.226 318.265C148.603 317.167 150.035 316.02 151.397 314.863C152.737 313.726 153.984 312.557 155.221 311.397C155.243 311.377 155.264 311.357 155.285 311.337C155.861 310.803 156.427 310.262 157.012 309.736C157.596 309.21 158.164 308.685 158.758 308.167C160.586 306.653 162.268 304.971 163.78 303.142L164.947 301.716C165.992 300.439 167.005 299.088 167.965 297.726C168.402 297.07 168.768 296.37 169.058 295.637L169.286 295.113C170.103 293.324 171.015 291.551 171.907 289.839C173.481 286.995 174.832 284.034 175.948 280.982C176.132 280.437 176.323 279.883 176.517 279.345C177.451 277.042 178.049 274.616 178.293 272.144C178.331 271.614 178.424 271.09 178.572 270.579C178.672 270.242 178.752 269.9 178.81 269.553C179.034 268.036 179.288 266.312 179.427 264.617C179.565 262.922 179.672 261.341 179.775 259.709L179.96 256.769L180.112 255.039C180.164 254.448 180.233 253.855 180.268 253.266C180.275 253.166 180.281 253.066 180.288 252.967C180.464 250.358 180.639 247.763 180.749 245.143C180.793 244.391 180.795 243.635 180.782 242.898L180.777 241.642C180.773 241.175 180.796 240.714 180.809 240.246C180.819 239.404 180.846 238.561 180.823 237.723C180.789 236.427 180.71 235.111 180.627 233.837L180.586 233.077C180.567 232.799 180.522 232.515 180.486 232.238C180.45 231.962 180.4 231.457 180.387 231.06C180.298 224.905 179.837 218.762 179.005 212.665C178.891 211.938 178.688 211.169 178.551 210.47L178.33 209.516L178.097 208.444L176.996 203.478C176.847 202.754 176.66 202.039 176.436 201.336C176.022 200.147 175.634 198.963 175.244 197.763C174.148 194.486 172.998 191.088 171.785 187.823C171.001 185.728 170.09 183.639 169.175 181.592C168.461 179.94 167.715 178.233 167.046 176.526C165.223 171.604 162.982 166.849 160.347 162.312L160.175 162.032C158.758 159.713 157.299 157.314 155.759 155.033C153.451 151.598 151.475 148.776 149.52 146.172C149.031 145.574 148.462 145.046 147.829 144.602C147.506 144.338 147.174 144.066 146.85 143.801C146.343 143.386 145.88 142.915 145.412 142.47C144.458 141.581 143.487 140.678 142.456 139.865C140.937 138.642 139.33 137.533 137.647 136.548C135.335 135.228 132.899 134.023 130.55 132.842L129.881 132.511C128.113 131.631 126.348 130.774 124.585 129.939L121.277 128.33C120.743 128.078 120.195 127.768 119.694 127.513C118.736 126.986 117.749 126.513 116.737 126.098C112.74 124.558 108.632 123.097 104.672 121.681L104.188 121.5C103.554 121.276 102.954 121.124 102.27 120.905C101.586 120.685 100.759 120.472 100.018 120.19C99.7806 120.077 99.522 120.016 99.259 120.01C98.9961 120.004 98.7346 120.053 98.4917 120.154C98.2487 120.256 98.0296 120.407 97.8488 120.599C97.6679 120.79 97.5293 121.018 97.4418 121.266C95.6956 124.474 93.977 127.704 92.3115 130.87L90.3335 134.568C89.919 135.357 89.5029 136.129 89.0791 136.911C88.0868 138.726 87.0675 140.612 86.149 142.488C85.5022 143.875 84.9626 145.309 84.535 146.778L84.4826 146.936C84.4685 147.228 84.5538 147.515 84.7244 147.752C85.7863 149.224 87.0227 150.916 88.3457 152.539C88.8325 153.103 89.3529 153.638 89.9041 154.139L90.7744 154.959C95.6293 159.659 99.9963 164.838 103.809 170.418C104.395 171.284 105.039 172.136 105.671 172.946C106.413 173.924 107.219 174.955 107.894 176.033C110.184 179.715 112.157 183.107 113.942 186.407C114.785 187.977 115.653 189.554 116.512 191.122C116.559 191.208 116.607 191.295 116.654 191.381C118.991 195.644 121.407 200.054 123.5 204.569C126.872 211.376 129.541 218.511 131.466 225.863C132.059 228.518 132.427 231.219 132.568 233.936L132.734 235.618C133.093 241.705 132.84 247.815 131.977 253.855C131.554 257.311 130.914 260.806 130.252 264.159L130.021 265.515C129.797 266.551 129.398 267.542 128.841 268.445C127.812 270.255 127.052 272.206 126.586 274.234C126.409 274.94 126.173 275.643 125.942 276.32C125.712 276.997 125.559 277.428 125.412 278.004C125.2 278.772 125.021 279.538 124.851 280.31C124.681 281.083 124.441 282.092 124.198 282.991C123.286 286.448 122.055 289.813 120.521 293.042L119.085 295.871C118.466 297.08 117.856 298.296 117.246 299.512C116.844 300.343 116.45 301.164 116.057 302.001C115.375 303.437 114.665 304.927 113.867 306.392L113.382 307.324C112.779 308.717 111.912 309.982 110.829 311.046C110.542 311.282 110.321 311.588 110.188 311.935C110.059 312.273 110.018 312.639 110.07 312.996C110.071 313.006 110.072 313.015 110.074 313.024L110.041 312.951ZM127.467 329.561L129.257 328.429C129.577 328.227 129.825 328.075 130.09 327.921C135.421 324.868 140.409 321.249 144.966 317.127C148.152 314.274 151.114 311.178 153.823 307.868L155.413 305.924C159.51 301.107 163.308 296.045 166.786 290.764C167.848 289.149 168.797 287.461 169.624 285.714C170.712 283.235 171.696 280.64 172.637 278.133L173.203 276.65C173.719 275.397 174.128 274.103 174.426 272.782C175.049 269.458 175.563 266.061 176.053 262.768L176.116 262.371C176.351 260.802 176.546 259.076 176.748 256.907C176.859 255.623 176.935 254.324 177.003 253.035L177.177 250.242C177.183 250.145 177.19 250.047 177.196 249.95C177.271 248.796 177.347 247.621 177.38 246.451C177.402 245.634 177.389 244.82 177.377 244.006C177.332 242.664 177.361 241.321 177.464 239.982C177.704 237.915 177.655 235.825 177.318 233.773C177.122 232.638 177.027 231.51 176.959 230.557C176.858 229.192 176.782 227.816 176.689 226.442C176.578 224.806 176.459 223.162 176.33 221.511C176.328 221.487 176.326 221.462 176.324 221.438C176.167 219.423 175.984 217.06 175.727 214.712L175.685 214.368C175.412 212.12 175.14 209.796 174.673 207.559C174.207 205.322 173.593 203.228 173.031 201.145L172.108 197.809C171.49 195.511 170.85 193.147 170.074 190.874C169.232 188.361 168.192 185.733 166.804 182.587C165.797 180.218 164.58 177.769 163.093 174.914C162.369 173.54 161.706 172.111 161.065 170.728C161.059 170.715 161.052 170.702 161.046 170.689C159.958 168.171 158.669 165.747 157.19 163.438C155.851 161.476 154.338 159.388 152.617 157.083C150.761 154.621 149.265 152.794 147.863 151.06C146.525 149.414 145.078 147.858 143.534 146.404C142.211 145.213 140.809 144.081 139.452 142.971C138.325 142.049 137.171 141.104 136.026 140.167C134.02 138.472 131.722 137.157 129.243 136.286C125.194 134.775 121.303 132.874 117.623 130.61C114.994 129.087 112.212 127.846 109.322 126.907L108.426 126.607C107.35 126.267 106.299 125.851 105.282 125.363C103.439 124.299 101.418 123.577 99.3165 123.233C99.0898 123.195 98.8661 123.141 98.6469 123.071L97.9388 122.863L98.0579 122.435C98.1034 122.191 98.1976 121.959 98.3348 121.753C98.4719 121.546 98.6492 121.37 98.8561 121.233C99.0515 121.139 99.2642 121.085 99.481 121.076C99.6977 121.067 99.9138 121.104 100.116 121.182L100.9 121.391C101.27 121.473 101.634 121.575 101.992 121.697L103.195 122.11C105.833 123.032 108.55 123.988 111.211 124.976C113.229 125.731 115.061 126.488 116.802 127.28C119.327 128.434 121.787 129.628 124.546 131.005L126.178 131.799C128.184 132.776 130.253 133.789 132.222 134.906C133.453 135.598 134.631 136.407 135.774 137.192C135.808 137.216 135.842 137.239 135.875 137.262C136.658 137.794 137.442 138.343 138.238 138.84C144.102 142.642 149.172 147.547 153.167 153.283C155.926 156.922 158.431 160.748 160.663 164.733L160.953 165.265C161.354 165.98 161.768 166.736 162.117 167.516C163.751 171.264 165.641 175.624 167.462 179.973L167.586 180.275C169.073 183.826 170.606 187.492 171.979 191.165C172.883 193.621 173.702 196.161 174.487 198.612C174.488 198.614 174.488 198.616 174.489 198.617C174.759 199.471 175.03 200.325 175.317 201.177C175.605 202.031 175.862 202.998 176.111 203.975C176.36 204.952 176.459 205.528 176.629 206.3C176.845 207.373 177.078 208.445 177.345 209.513C178.488 214.594 179.127 219.776 179.253 224.985C179.298 226.568 179.429 228.066 179.547 229.599L179.639 231.22C179.992 234.649 180.075 238.102 179.884 241.545C179.802 242.606 179.774 243.696 179.752 244.76C179.728 245.467 179.721 246.172 179.681 246.881C179.633 247.862 179.589 248.877 179.495 249.82L179.236 253.302C179.118 254.859 179 256.416 178.9 257.989C178.801 259.561 178.74 260.747 178.618 262.101L178.504 264.295C178.483 264.602 178.487 264.899 178.483 265.205C178.485 265.932 178.409 266.657 178.255 267.368L177.801 269.222C177.129 272.041 176.416 274.966 175.451 277.747C174.488 280.355 173.386 282.91 172.148 285.399L171.39 287.004C170.721 288.405 169.977 289.805 169.261 291.151C168.903 291.832 168.537 292.506 168.189 293.195C167.96 293.626 167.749 294.072 167.546 294.508C167.128 295.458 166.637 296.373 166.076 297.247C164.991 298.846 163.809 300.423 162.665 301.949C162.629 301.997 162.592 302.046 162.556 302.094C161.996 302.779 161.49 303.509 160.974 304.215C160.793 304.437 160.611 304.66 160.484 304.927C160.177 305.448 159.809 305.93 159.387 306.363C157.11 308.58 154.647 310.892 151.876 313.431C150.7 314.509 149.448 315.493 148.476 316.229C145.915 318.21 143.47 320.337 141.151 322.599C138.576 324.952 135.703 326.956 132.606 328.558C131.816 328.972 131.002 329.338 130.167 329.653C129.912 329.728 129.642 329.741 129.381 329.69L128.962 329.656L127.467 329.561ZM139.917 322.393C137.439 324.276 134.863 326.027 132.201 327.639C134.965 326.192 137.554 324.431 139.917 322.393ZM171.712 192.848C172.159 194.373 172.581 195.893 172.984 197.397L173.898 200.726C174.487 202.832 175.102 205.02 175.555 207.198C176.007 209.377 176.315 211.808 176.582 214.082L176.624 214.426C176.913 216.842 177.1 219.251 177.258 221.281C177.424 222.963 177.506 224.576 177.58 226.275L177.851 230.391C177.912 231.432 178.031 232.469 178.208 233.496C178.549 235.631 178.597 237.802 178.352 239.951C178.246 241.251 178.208 242.556 178.237 243.86C178.251 244.691 178.265 245.521 178.244 246.338C178.209 247.624 178.124 248.915 178.044 250.162L177.868 252.94C177.794 254.255 177.718 255.553 177.609 256.854C177.381 259.017 177.208 260.792 176.972 262.361L176.909 262.758C176.421 266.068 175.909 269.482 175.269 272.807C174.968 274.186 174.545 275.536 174.003 276.84L173.444 278.315C172.495 280.83 171.514 283.443 170.41 285.94C169.57 287.731 168.6 289.458 167.508 291.107C164.017 296.418 160.201 301.508 156.083 306.349L154.485 308.302C152.581 310.627 150.553 312.847 148.41 314.953C149.269 314.281 150.322 313.427 151.265 312.576C154.02 310.039 156.475 307.736 158.761 305.526C159.13 305.137 159.455 304.708 159.73 304.248C159.919 304.016 160.061 303.73 160.241 303.491C160.802 302.806 161.298 302.069 161.83 301.361C163.001 299.799 164.216 298.182 165.35 296.513C165.884 295.686 166.352 294.818 166.749 293.918C166.953 293.456 167.171 293.001 167.404 292.553C167.761 291.871 168.119 291.19 168.485 290.516C169.194 289.179 169.931 287.789 170.591 286.397L171.35 284.793C172.569 282.332 173.66 279.81 174.619 277.236C175.571 274.491 176.269 271.585 176.925 268.768L177.369 266.906C177.501 266.255 177.558 265.591 177.539 264.927C177.55 264.612 177.545 264.298 177.573 263.981L177.688 261.788C177.763 260.396 177.83 259.014 177.977 257.666C178.124 256.318 178.195 254.537 178.313 252.979L178.572 249.498C178.646 248.522 178.727 247.538 178.767 246.566C178.8 245.866 178.816 245.168 178.832 244.47C178.845 243.399 178.872 242.293 178.96 241.206C179.149 237.81 179.068 234.406 178.719 231.025L178.618 229.396C178.509 227.854 178.425 226.317 178.332 224.773C178.214 219.612 177.594 214.477 176.48 209.44C176.204 208.364 175.97 207.275 175.744 206.194L175.245 203.884C175.017 202.957 174.766 202.04 174.487 201.193L173.654 198.688C173.042 196.78 172.406 194.807 171.73 192.863L171.712 192.848ZM141.155 143.112C142.152 143.929 143.159 144.752 144.11 145.624C145.689 147.107 147.165 148.697 148.526 150.382C149.968 152.087 151.443 153.958 153.317 156.435C155.056 158.755 156.562 160.852 157.92 162.829C159.42 165.175 160.73 167.637 161.838 170.193C162.485 171.588 163.152 173.014 163.864 174.386C164.576 175.757 165.23 177.049 165.851 178.269C164.271 174.548 162.659 170.865 161.303 167.7C160.975 166.952 160.564 166.229 160.172 165.522L159.882 164.991C157.673 161.04 155.192 157.248 152.456 153.643C150.607 151.017 148.538 148.554 146.272 146.28C143.668 143.719 140.817 141.422 137.761 139.423C136.963 138.909 136.162 138.362 135.37 137.822C134.214 137.031 133.012 136.202 131.78 135.503C129.837 134.392 127.786 133.394 125.789 132.424L124.158 131.63C121.445 130.291 118.985 129.096 116.477 127.941C114.754 127.164 112.941 126.422 110.939 125.665C108.287 124.686 105.57 123.729 102.942 122.815L101.746 122.393C101.421 122.281 101.073 122.198 100.742 122.112L99.9056 121.891C99.8175 121.852 99.7226 121.831 99.6262 121.829C99.5299 121.827 99.4341 121.845 99.3443 121.88C99.2537 121.942 99.1827 122.029 99.1398 122.13L99.4875 122.214C101.694 122.562 103.817 123.314 105.75 124.433C106.729 124.896 107.738 125.293 108.77 125.622L109.666 125.922C112.612 126.887 115.445 128.169 118.115 129.745C121.747 131.978 125.587 133.853 129.583 135.343C132.163 136.245 134.554 137.615 136.636 139.384C137.772 140.313 138.917 141.25 140.034 142.165L141.198 143.117L141.155 143.112ZM127.337 328.063C125.924 326.907 124.456 325.706 123.048 324.43C121.025 322.589 118.993 320.663 117.037 318.815L116.547 318.415C115.245 317.179 113.959 315.926 112.661 314.647C112.448 314.432 112.25 314.203 112.067 313.96L111.766 313.575L111.419 313.152L111.911 312.89C118.326 309.729 124.127 305.447 129.041 300.246L129.306 299.922L131.153 301.434C132.482 302.522 133.775 303.58 135.134 304.537C135.333 304.633 135.549 304.689 135.77 304.702C135.816 304.528 135.838 304.349 135.836 304.169C135.135 303.147 134.347 302.187 133.482 301.3C132.899 300.758 132.282 300.253 131.636 299.789C131.349 299.554 131.063 299.32 130.768 299.078L130.426 298.799L130.714 298.447C131.002 298.095 131.289 297.743 131.57 297.401C132.176 296.66 132.744 295.966 133.312 295.272C134.088 294.191 134.778 293.009 135.438 291.864L135.619 291.642C136.115 290.811 136.61 289.98 137.114 289.156C138.371 287.093 139.618 285.023 140.629 282.883C142.556 278.582 144.201 274.162 145.554 269.649C146.01 268.244 146.473 266.831 146.938 265.434C147.296 264.284 147.549 263.105 147.694 261.91C148.808 254.894 148.939 247.76 148.082 240.713C148.041 240.572 148.032 240.424 148.055 240.279C148.078 240.133 148.133 239.995 148.216 239.874C148.299 239.753 148.408 239.651 148.535 239.577C148.662 239.503 148.804 239.458 148.95 239.445C149.174 239.397 149.4 239.365 149.627 239.334C150.242 239.263 150.852 239.148 151.451 238.988C151.646 238.907 151.824 238.791 151.978 238.646C151.854 238.556 151.716 238.49 151.568 238.45C150.763 238.378 149.963 238.358 149.105 238.351L148.067 238.32L147.718 238.313L146.87 234.79L148.7 234.325L153.022 233.226C153.207 233.184 153.397 233.167 153.586 233.177L153.84 233.168C153.969 233.152 154.098 233.145 154.228 233.146C154.463 233.154 154.698 233.121 154.923 233.05C155.152 232.924 155.365 232.772 155.557 232.595L154.896 232.178C153.637 232.132 152.379 232.332 151.194 232.765C150.294 233.105 149.371 233.383 148.433 233.596L147.216 233.915L146.821 234.04L146.603 233.459L146.516 233.187L145.533 228.982C145.532 228.981 145.532 228.979 145.532 228.978C144.808 225.852 144.084 222.726 143.309 219.605C142.534 216.482 141.824 214.016 141.058 211.58C140.808 210.866 140.496 210.176 140.124 209.518C139.766 208.865 139.455 208.187 139.194 207.489C136.85 200.577 134.108 193.807 130.981 187.213C130.49 186.193 130.031 185.153 129.579 184.103L128.946 182.673L128.772 182.283L129.337 181.988L129.693 181.816L131.971 180.728C133.885 179.822 135.793 178.91 137.694 177.993C138.466 177.623 138.379 177.34 138.34 177.213C138.339 177.211 138.339 177.208 138.338 177.206C138.3 177.083 137.895 176.843 137.376 177.006C136.679 177.219 136.002 177.492 135.352 177.822C133.775 178.619 132.218 179.447 130.645 180.277L128.401 181.455L128.038 180.863L127.816 180.512C127.255 179.728 126.707 178.909 126.161 178.107C124.997 176.286 123.711 174.547 122.312 172.901C119.082 169.136 116.209 165.078 113.732 160.779C113.538 160.451 113.371 159.788 113.648 159.412C114.477 158.267 115.374 157.115 116.33 155.965C116.678 155.54 117.019 155.123 117.434 154.767C117.849 154.411 118.003 154.166 118.256 153.894C119.797 152.136 121.332 150.368 122.86 148.589C123.428 147.895 123.996 147.2 124.564 146.506C125.132 145.812 125.761 145.044 126.359 144.312C127.329 143.127 128.356 142.005 129.371 140.858L130.821 139.2C130.91 139.067 131.025 138.954 131.159 138.867C131.292 138.779 131.442 138.72 131.599 138.691C131.756 138.663 131.917 138.666 132.073 138.701C132.228 138.735 132.375 138.801 132.505 138.893L133.249 139.379C133.868 139.751 134.455 140.174 135.004 140.644C136.59 142.097 138.157 143.611 139.676 145.071L140.82 146.177L141.615 146.921C142.427 147.658 143.198 148.439 143.926 149.259C145.308 150.885 146.668 152.539 148.043 154.175L151.089 157.857C151.492 158.326 151.898 158.752 152.342 159.208C153.071 159.921 153.735 160.698 154.328 161.528L154.489 161.784C156.705 165.142 159.031 168.592 160.959 172.209C162.886 175.826 164.808 179.826 166.82 184.564C168.133 187.632 169.381 191.08 170.769 195.431C171.119 196.617 171.375 197.829 171.534 199.055C171.663 199.84 171.768 200.653 171.956 201.441C172.98 205.952 173.657 210.536 173.979 215.152C174.366 220.105 174.836 225.126 175.204 230.064L175.758 236.452L175.798 236.949C175.843 237.403 175.886 237.84 175.914 238.296C175.96 239.276 176.013 240.247 176.05 241.22L176.05 241.222C176.114 242.819 176.178 244.417 176.29 245.976C176.316 246.415 176.377 246.867 176.437 247.302C176.567 248.062 176.618 248.834 176.588 249.605C176.321 253.436 175.953 257.277 175.606 261.166C175.464 262.517 175.251 263.859 174.967 265.187C174.715 266.419 174.482 267.665 174.343 268.927C174.055 271.675 173.402 274.374 172.401 276.951C172.035 277.795 171.716 278.693 171.412 279.573C171.108 280.453 170.745 281.5 170.319 282.435C169.28 284.832 168.108 287.17 166.808 289.438C164.062 293.852 161.009 298.067 157.672 302.053L156.816 303.099C153.271 307.801 149.31 312.174 144.982 316.166C144.617 316.483 144.272 316.83 143.935 317.169C143.924 317.18 143.914 317.19 143.904 317.201C143.408 317.713 142.883 318.197 142.332 318.65C139.971 320.443 137.182 322.55 134.37 324.499C132.924 325.506 131.388 326.423 129.903 327.309C129.879 327.323 129.854 327.338 129.83 327.353L128.515 328.131C128.325 328.238 128.11 328.291 127.892 328.285C127.674 328.278 127.463 328.213 127.28 328.094L127.337 328.063ZM112.771 313.439C112.92 313.642 113.081 313.836 113.253 314.019C114.54 315.273 115.826 316.526 117.137 317.769L117.617 318.162C119.574 320.01 121.596 321.928 123.62 323.77C125.009 325.03 126.468 326.224 127.871 327.372C127.871 327.372 128.022 327.357 128.071 327.335L129.394 326.548C130.893 325.657 132.423 324.73 133.879 323.742C136.699 321.784 139.48 319.686 141.832 317.886C142.354 317.46 142.85 317.004 143.319 316.521C143.652 316.114 144.052 315.776 144.435 315.44C148.723 311.482 152.648 307.147 156.161 302.486L157.017 301.44C160.322 297.49 163.348 293.314 166.072 288.943C167.353 286.707 168.508 284.402 169.533 282.039C169.936 281.132 170.274 280.172 170.59 279.24C170.905 278.308 171.218 277.436 171.606 276.548C172.564 274.052 173.183 271.439 173.446 268.78C173.637 267.53 173.824 266.245 174.082 264.988C174.355 263.689 174.56 262.376 174.696 261.055C175.081 257.136 175.459 253.302 175.696 249.508C175.729 248.746 175.682 247.982 175.556 247.23C175.493 246.761 175.429 246.292 175.409 245.827C175.336 244.221 175.271 242.623 175.169 241.071L175.017 238.149C175 237.718 174.957 237.281 174.913 236.844L174.871 236.33C174.687 234.201 174.511 232.079 174.319 229.959C173.896 225.068 173.472 219.992 173.085 215.038C172.76 210.468 172.094 205.93 171.093 201.46C170.901 200.639 170.777 199.811 170.647 199.009C170.495 197.828 170.249 196.66 169.912 195.518C168.535 191.191 167.297 187.767 166.005 184.731C164.002 180.001 162.08 176.001 160.168 172.459C158.257 168.916 155.96 165.506 153.754 162.155L153.576 161.902C153.02 161.114 152.391 160.382 151.696 159.714C151.252 159.258 150.816 158.793 150.413 158.324L147.359 154.635C145.999 152.981 144.648 151.334 143.241 149.719C142.54 148.923 141.794 148.168 141.006 147.458L140.202 146.707L139.057 145.6C137.546 144.131 135.988 142.625 134.404 141.189C133.894 140.753 133.347 140.362 132.769 140.021L132.007 139.521C131.887 139.423 131.785 139.34 131.503 139.665L130.054 141.323C129.084 142.508 128.039 143.616 127.042 144.778C126.443 145.509 125.853 146.231 125.254 146.963C124.656 147.694 124.11 148.36 123.542 149.055C122.02 150.839 120.483 152.61 118.931 154.369C118.666 154.693 118.393 155.026 118.063 155.298C117.734 155.569 117.34 156.05 117.005 156.44C116.065 157.588 115.149 158.708 114.361 159.841C114.384 159.972 114.425 160.099 114.483 160.219C116.929 164.438 119.76 168.42 122.939 172.116C124.369 173.794 125.684 175.567 126.875 177.423C127.412 178.218 127.95 179.03 128.511 179.813L128.691 180.084L130.193 179.304C131.773 178.465 133.339 177.644 134.907 176.84C135.602 176.489 136.326 176.197 137.07 175.967C138.083 175.653 138.88 175.903 139.146 176.708C139.309 177.15 139.382 177.983 138.061 178.618C136.149 179.542 134.235 180.448 132.331 181.363L129.893 182.459L130.361 183.506C130.811 184.539 131.261 185.572 131.742 186.584C134.884 193.21 137.641 200.013 139.999 206.958C140.248 207.616 140.544 208.256 140.884 208.872C141.271 209.572 141.602 210.303 141.872 211.056C142.664 213.498 143.417 216.138 144.17 219.119C144.922 222.099 145.669 225.369 146.395 228.513L147.366 232.677C147.646 232.598 147.92 232.528 148.202 232.465C149.099 232.248 149.982 231.98 150.848 231.663C152.162 231.187 153.554 230.963 154.95 231.001L155.086 231.004L155.243 231.133L157.029 232.285L156.541 232.674C156.45 232.785 156.313 232.859 156.204 232.955C155.922 233.226 155.601 233.453 155.252 233.628C154.919 233.765 154.561 233.83 154.201 233.819L153.871 233.827C153.765 233.845 153.657 233.851 153.55 233.843C153.428 233.84 153.307 233.849 153.188 233.871L148.865 234.971L147.905 235.221L148.413 237.181L149.093 237.197C149.96 237.212 150.794 237.229 151.625 237.306C151.986 237.372 152.324 237.531 152.604 237.768L152.9 238.009L153.494 238.357L152.931 238.762C152.82 238.844 152.712 238.931 152.609 239.024C152.334 239.295 152.005 239.505 151.643 239.639C151.026 239.816 150.399 239.953 149.765 240.05L149.096 240.152C149.05 240.158 149.005 240.175 148.965 240.199C148.952 240.278 148.954 240.358 148.971 240.436C149.834 247.559 149.703 254.771 148.581 261.863C148.421 263.108 148.153 264.337 147.78 265.535C147.308 266.941 146.852 268.346 146.396 269.751C145.035 274.301 143.376 278.757 141.431 283.09C140.351 285.268 139.161 287.389 137.864 289.445C137.367 290.26 136.872 291.091 136.385 291.913L136.203 292.135C135.528 293.299 134.831 294.49 134.033 295.615C133.489 296.375 132.859 297.05 132.238 297.809C132.056 298.031 131.867 298.262 131.678 298.494L132.176 298.902C132.847 299.381 133.485 299.903 134.087 300.466C134.994 301.392 135.82 302.393 136.556 303.46C136.794 303.809 136.703 304.26 136.615 304.668C136.595 304.806 136.566 304.936 136.553 305.064L136.509 305.57L135.998 305.46C135.872 305.432 135.746 305.411 135.618 305.397C135.245 305.375 134.883 305.259 134.566 305.062C133.228 304.059 131.92 303.02 130.566 301.943L129.403 300.991C124.604 306 118.984 310.153 112.788 313.268L112.771 313.439ZM113.613 309.151L113.71 308.751L114.064 308.129C114.325 307.678 114.577 307.22 114.812 306.763C115.32 305.803 115.819 304.836 116.319 303.885C116.399 303.732 116.478 303.58 116.557 303.427C117.382 301.834 118.204 300.249 119.047 298.668C119.313 298.178 119.614 297.717 119.908 297.265C119.916 297.253 119.924 297.241 119.932 297.228C120.247 296.781 120.536 296.315 120.796 295.833C121.454 294.578 122.052 293.244 122.601 292.009C123.52 289.886 124.245 288.115 124.922 286.459C125.275 285.557 125.59 284.625 125.892 283.728L126.248 282.691L127.058 280.401C127.697 278.622 128.333 276.808 128.896 274.934C129.104 274.209 129.276 273.452 129.432 272.715C129.719 271.023 130.265 269.384 131.049 267.856C131.646 266.69 132.02 265.422 132.149 264.12C132.262 263.454 132.371 262.756 132.557 262.058C132.926 260.762 133.207 259.443 133.399 258.109C133.801 254.621 134.177 251.204 134.4 247.786C134.532 245.433 134.521 243.075 134.366 240.725C134.205 238.058 133.937 235.165 133.516 231.591C133.504 231.509 133.492 231.428 133.48 231.347C133.258 229.828 133.031 228.273 132.575 226.184C131.519 221.188 129.946 216.316 127.882 211.648C124.885 205.099 121.672 198.513 118.421 192.143C117.092 189.51 115.564 186.931 114.103 184.421C113.124 182.754 112.181 181.117 111.214 179.398C108.021 173.562 104.257 168.059 99.9762 162.969C98.3712 161.068 96.6426 159.205 95.0089 157.358C93.8602 156.125 92.7206 154.898 91.6038 153.644C90.6397 152.562 89.7287 151.414 88.8394 150.316L87.6196 148.792L87.3587 148.47L88.0706 147.77L88.6892 148.276C88.8929 148.467 89.1088 148.643 89.3355 148.805C89.7284 149.017 90.1379 149.198 90.56 149.344C95.6135 151.155 100.525 153.34 105.253 155.88C107.105 156.933 109.083 158.057 111.042 159.243C111.444 159.537 111.766 159.928 111.978 160.379C112.511 161.31 112.998 162.203 113.464 163.141C114.456 164.942 115.482 166.817 116.652 168.532C118.108 170.601 119.667 172.594 121.324 174.504L122.44 175.834C125.754 179.829 127.899 184.537 129.971 189.107L130.405 190.065C130.934 191.209 131.374 192.404 131.875 193.525C132.376 194.646 132.919 196.017 133.471 197.226C133.86 198.07 134.264 198.895 134.662 199.746C135.709 201.758 136.618 203.839 137.381 205.975C137.808 207.288 138.311 208.633 138.806 209.957C138.819 209.993 138.832 210.028 138.846 210.063C139.791 212.49 140.613 214.962 141.308 217.472C141.612 218.664 141.993 219.857 142.361 221.008C142.729 222.16 143.18 223.549 143.495 224.842C143.809 226.134 144.16 227.797 144.437 229.229C144.45 229.293 144.462 229.357 144.475 229.421C144.813 231.1 145.159 232.821 145.616 234.476C147.192 240.59 147.779 246.92 147.355 253.225C147.316 257.44 146.725 261.633 145.597 265.697C144.336 269.687 142.906 273.865 141.38 278.103C138.401 286.284 135.008 291.899 130.359 296.318C129.801 296.85 129.279 297.412 128.748 297.967C127.967 298.841 127.129 299.663 126.241 300.428C123.944 302.327 121.553 304.179 119.235 305.975C119.193 306.008 119.15 306.041 119.107 306.074C118.279 306.71 117.442 307.355 116.623 307.998C116.135 308.387 115.635 308.735 115.128 309.108L114.186 309.79L113.613 309.151ZM89.6266 149.863C90.4772 150.914 91.359 152.022 92.266 153.043C93.3828 154.297 94.5223 155.523 95.6618 156.749C97.3426 158.557 99.0804 160.427 100.666 162.39C104.985 167.557 108.782 173.139 112.003 179.055C112.925 180.737 113.895 182.396 114.874 184.063C116.344 186.58 117.866 189.185 119.221 191.825C122.51 198.225 125.674 204.833 128.703 211.361C130.789 216.086 132.382 221.015 133.455 226.069C133.879 227.869 134.212 229.688 134.452 231.521C134.874 235.113 135.144 238.023 135.299 240.716C135.464 243.099 135.479 245.491 135.343 247.877C135.122 251.313 134.731 254.748 134.329 258.253C134.141 259.626 133.858 260.986 133.483 262.321C133.316 262.972 133.182 263.632 133.084 264.297C132.939 265.702 132.532 267.067 131.885 268.324C131.132 269.777 130.613 271.339 130.347 272.954C130.183 273.7 130.013 274.473 129.791 275.234C129.246 277.106 128.617 278.911 127.942 280.753C127.667 281.503 127.395 282.269 127.13 283.026L126.782 284.055C126.474 284.977 126.151 285.918 125.791 286.829C125.125 288.51 124.368 290.301 123.463 292.405C122.909 293.667 122.303 295.01 121.623 296.293C121.351 296.813 121.004 297.332 120.717 297.777C120.429 298.222 120.125 298.669 119.883 299.135C118.949 300.86 118.051 302.598 117.162 304.343C116.664 305.311 116.156 306.271 115.665 307.229L115.298 307.903C115.607 307.676 115.916 307.45 116.215 307.215C117.042 306.563 117.878 305.918 118.707 305.282C121.064 303.456 123.485 301.573 125.816 299.647C126.673 298.907 127.482 298.114 128.238 297.271C128.784 296.698 129.323 296.134 129.919 295.556C134.459 291.233 137.794 285.725 140.71 277.679C142.238 273.457 143.668 269.28 144.914 265.307C146.013 261.321 146.589 257.21 146.628 253.078C147.026 246.88 146.438 240.66 144.887 234.651C144.408 232.9 144.043 231.086 143.693 229.347C143.407 227.907 143.117 226.433 142.763 225C142.41 223.567 142.037 222.459 141.644 221.225C141.251 219.991 140.875 218.849 140.569 217.641C139.88 215.159 139.067 212.713 138.132 210.314C137.632 208.946 137.123 207.572 136.664 206.192C135.905 204.09 135.006 202.042 133.972 200.062L132.762 197.527C132.218 196.309 131.673 195.09 131.182 193.807C130.69 192.524 130.249 191.499 129.722 190.372L129.288 189.414C127.24 184.909 125.124 180.241 121.887 176.34L120.772 175.01C119.091 173.078 117.51 171.061 116.033 168.969C114.843 167.221 113.816 165.33 112.803 163.497C112.316 162.603 111.821 161.719 111.31 160.837C111.168 160.505 110.947 160.213 110.666 159.985C108.724 158.798 106.745 157.674 104.902 156.629C100.204 154.096 95.3219 151.92 90.2968 150.117L89.6173 149.855L89.6266 149.863ZM150.202 280.284C150.015 280.108 149.878 279.884 149.807 279.636C149.779 279.557 149.743 279.482 149.7 279.409L149.418 278.869L150.018 278.758L150.257 278.691C150.54 278.575 150.852 278.549 151.15 278.617C152.346 279.04 153.519 279.49 154.677 279.959C156.646 280.812 158.601 281.701 160.547 282.583C161.081 282.834 161.637 283.135 162.164 283.396L163.246 283.957L163.186 284.294C163.154 284.415 163.135 284.54 163.129 284.665C163.083 285.06 163.037 285.455 162.697 285.625C162.455 285.733 162.193 285.788 161.928 285.787C161.663 285.786 161.401 285.729 161.161 285.62C159.205 284.731 157.271 283.797 154.98 282.679C153.116 281.772 151.687 281.051 150.353 280.345L150.233 280.247L150.202 280.284ZM150.748 279.448L150.802 279.492L150.831 279.516C152.13 280.208 153.55 280.922 155.414 281.828C157.696 282.939 159.621 283.865 161.576 284.754C161.777 284.832 161.998 284.845 162.208 284.792C162.226 284.695 162.239 284.597 162.247 284.499L162.308 284.425L161.779 284.148C161.242 283.862 160.704 283.577 160.207 283.356C158.269 282.465 156.323 281.584 154.355 280.73C153.265 280.271 152.118 279.827 150.929 279.472L150.802 279.492L150.787 279.495L150.748 279.448ZM144.826 212.608C144.717 212.524 144.633 212.413 144.582 212.285C144.536 212.091 144.54 211.889 144.592 211.697C144.644 211.505 144.744 211.329 144.881 211.185C145.077 210.986 145.319 210.839 145.586 210.757C149.65 209.121 153.806 207.728 158.034 206.585C159.313 206.21 160.6 205.842 161.87 205.458C162.233 205.279 162.652 205.247 163.037 205.369C163.423 205.492 163.746 205.759 163.938 206.115C164.423 207.161 163.61 207.779 162.956 208.295L162.802 208.37L162.077 208.596C161.469 208.793 160.747 209.053 160.063 209.173L157.52 209.719C156.289 209.98 155.016 210.236 153.764 210.541C152.102 210.989 150.421 211.499 148.799 212.011L146.41 212.745C146.114 212.857 145.797 212.903 145.481 212.881C145.23 212.835 144.993 212.731 144.789 212.578L144.826 212.608ZM162.951 206.266C162.822 206.16 162.598 206.132 162.095 206.276C160.818 206.669 159.522 207.046 158.244 207.421C154.085 208.547 149.994 209.91 145.991 211.505L145.876 211.551C145.741 211.599 145.613 211.666 145.497 211.751C145.452 211.796 145.412 211.846 145.376 211.899C145.439 211.933 145.507 211.958 145.578 211.972C145.749 211.964 145.917 211.93 146.077 211.87C146.918 211.615 147.71 211.382 148.5 211.133C150.139 210.619 151.828 210.1 153.506 209.65C154.764 209.319 156.045 209.053 157.285 208.801C158.134 208.63 158.973 208.451 159.811 208.256C160.65 208.061 161.197 207.844 161.788 207.725L162.447 207.523C163.164 206.966 163.267 206.803 163.084 206.499C163.038 206.438 162.978 206.389 162.909 206.355L162.951 206.266ZM85.2182 146.131L85.7538 145.194C85.9425 144.869 86.1253 144.571 86.2895 144.257L88.5717 139.942C89.9062 137.407 91.2336 134.887 92.554 132.382C93.7418 130.139 95.072 127.704 96.7297 124.717C96.9108 124.402 97.4266 123.866 97.9138 123.986L99.3184 124.285C100.822 124.552 102.297 124.957 103.724 125.495L104.875 125.973C106.541 126.732 108.263 127.362 110.026 127.855C113.009 128.76 115.842 130.095 118.438 131.818L119.231 132.281C122.015 133.859 124.898 135.257 127.86 136.468L128.428 136.716L129.579 137.194L130.745 137.654L129.692 138.94L128.177 140.792C127.033 142.189 125.904 143.569 124.654 144.926C122.524 147.341 120.367 149.733 118.216 152.022C117.287 153.024 116.322 153.996 115.374 154.967C114.426 155.937 113.538 156.834 112.648 157.79C112.459 158.022 112.19 158.176 111.894 158.22C111.598 158.264 111.297 158.195 111.05 158.028L104.31 153.981L105.386 152.157C106.017 151.136 106.715 150.158 107.474 149.229C108.725 147.817 109.717 146.196 110.406 144.441L110.456 144.266L110.203 144.368C110.17 144.402 110.14 144.439 110.112 144.479L110.014 144.599C109.446 145.293 108.815 145.951 108.202 146.625C106.358 148.493 104.737 150.569 103.371 152.811L103.161 153.18L102.511 152.864L102.038 152.631L99.2704 151.51C96.4938 150.382 93.7264 149.261 90.9439 148.159C89.7857 147.69 88.5897 147.268 87.4164 146.817L85.7542 146.23L85.2182 146.131ZM97.7907 124.89C97.6873 124.968 97.6041 125.069 97.5483 125.186C95.8906 128.173 94.5681 130.599 93.371 132.834C92.0293 135.353 90.7019 137.873 89.3887 140.394L87.1066 144.709C86.9347 145.032 86.7537 145.348 86.565 145.672L87.7534 146.104C88.9495 146.526 90.1456 146.949 91.281 147.445C94.0543 148.54 96.8309 149.669 99.5983 150.789L102.358 151.92L102.794 152.122C104.165 149.971 105.753 147.966 107.535 146.14C108.103 145.446 108.745 144.812 109.331 144.133C109.455 143.93 109.633 143.765 109.845 143.657C110.096 143.551 110.353 143.463 110.616 143.392L111.654 143.066L111.419 144.126C111.373 144.364 111.314 144.6 111.242 144.831C110.521 146.688 109.477 148.403 108.16 149.898C107.436 150.789 106.768 151.724 106.161 152.698L105.551 153.745L111.525 157.335C111.719 157.493 111.755 157.523 112.031 157.224C112.929 156.258 113.847 155.325 114.765 154.392C115.684 153.458 116.679 152.449 117.6 151.456C119.743 149.176 121.902 146.801 124.038 144.36C125.238 143.008 126.385 141.644 127.553 140.235L129.068 138.384L129.333 138.06C128.919 137.906 128.548 137.757 128.175 137.591L127.6 137.352C124.604 136.114 121.687 134.697 118.863 133.108L118.078 132.635C115.551 130.96 112.795 129.657 109.895 128.768C108.091 128.264 106.328 127.622 104.622 126.848L103.471 126.37C102.094 125.855 100.672 125.467 99.2231 125.212L97.9058 124.938L97.7907 124.89ZM92.8449 142.991C92.774 142.953 92.7112 142.902 92.6603 142.84C92.5956 142.787 92.2572 141.938 92.5882 141.421C93.6541 139.835 94.7461 138.256 95.8474 136.684L96.7187 135.45C96.7613 135.371 96.8212 135.302 96.8938 135.249C96.9665 135.196 97.0501 135.161 97.1385 135.144C97.3818 135.072 97.6403 135.07 97.8847 135.137L98.0686 135.195L98.1868 135.446C98.2858 135.681 98.2906 135.945 98.2001 136.183L97.7442 137.155C97.2175 138.269 96.7 139.392 96.033 140.546C95.6618 141.158 95.239 141.738 94.7694 142.278C94.5648 142.528 94.3527 142.787 94.1406 143.047L93.9664 143.259L93.6984 143.21L93.4765 143.199C93.236 143.207 92.9989 143.142 92.7961 143.013L92.8449 142.991ZM97.0131 136.541L96.5593 137.19C96.549 137.204 96.5388 137.219 96.5285 137.234C95.4451 138.782 94.362 140.33 93.3152 141.907C93.3235 142.039 93.3535 142.168 93.4038 142.289L93.4703 142.189L93.9627 141.587C94.401 141.083 94.7963 140.543 95.1447 139.973C95.6385 139.087 96.0872 138.163 96.5285 137.234C96.6157 137.05 96.7025 136.866 96.7894 136.683L97.0131 136.541Z" fill="#FDFBF8"/>
<path fill-rule="evenodd" clip-rule="evenodd" d="M110.07 312.996L110.533 313.725L111.455 314.634L114.108 317.269C114.258 317.428 114.399 317.595 114.531 317.77C114.671 317.941 114.821 318.104 114.978 318.259L116.484 319.584C117.177 320.151 117.86 320.71 118.484 321.36L121.322 324.053L124.121 326.699C125.513 327.993 127.015 329.361 128.586 330.662C128.903 330.817 129.264 330.856 129.607 330.771C131.56 330.279 133.391 329.388 134.985 328.156C137.017 326.727 139.205 325.071 141.789 323.044C142.182 322.712 142.549 322.351 142.888 321.965C143.226 321.578 143.59 321.215 143.978 320.878C145.054 319.996 146.131 319.132 147.226 318.265C148.603 317.167 150.035 316.02 151.397 314.863C152.737 313.726 153.984 312.557 155.221 311.397L155.285 311.337C155.861 310.803 156.427 310.262 157.012 309.736C157.596 309.21 158.164 308.685 158.758 308.167C160.586 306.653 162.268 304.971 163.78 303.142L164.947 301.716C165.992 300.439 167.005 299.088 167.965 297.726C168.402 297.07 168.768 296.37 169.058 295.637L169.286 295.113C170.103 293.324 171.015 291.551 171.907 289.839C173.481 286.995 174.832 284.034 175.948 280.982C176.132 280.437 176.323 279.883 176.517 279.345C177.451 277.042 178.049 274.616 178.293 272.144C178.331 271.614 178.424 271.09 178.572 270.579C178.672 270.242 178.752 269.9 178.81 269.553C179.034 268.036 179.288 266.312 179.427 264.617C179.565 262.922 179.672 261.341 179.775 259.709L179.96 256.769L180.112 255.039C180.164 254.448 180.233 253.855 180.268 253.266L180.288 252.967C180.464 250.358 180.639 247.763 180.749 245.143C180.793 244.391 180.795 243.635 180.782 242.898L180.777 241.642C180.773 241.175 180.796 240.714 180.809 240.246C180.819 239.404 180.846 238.561 180.823 237.723C180.789 236.427 180.71 235.111 180.627 233.837L180.586 233.077C180.567 232.799 180.522 232.515 180.486 232.238C180.45 231.962 180.4 231.457 180.387 231.06C180.298 224.905 179.837 218.762 179.005 212.665C178.891 211.938 178.688 211.169 178.551 210.47L178.33 209.516L178.097 208.444L176.996 203.478C176.847 202.754 176.66 202.039 176.436 201.336C176.022 200.147 175.634 198.963 175.244 197.763C174.148 194.486 172.998 191.088 171.785 187.823C171.001 185.728 170.09 183.639 169.175 181.592C168.461 179.94 167.715 178.233 167.046 176.526C165.223 171.604 162.982 166.849 160.347 162.312L160.175 162.032C158.758 159.713 157.299 157.314 155.759 155.033C153.451 151.598 151.475 148.776 149.52 146.172C149.031 145.574 148.462 145.046 147.829 144.602L146.85 143.801C146.343 143.386 145.88 142.915 145.412 142.47C144.458 141.581 143.487 140.678 142.456 139.865C140.937 138.642 139.33 137.533 137.647 136.548C135.335 135.228 132.899 134.023 130.55 132.842L129.881 132.511C128.113 131.631 126.348 130.774 124.585 129.939L121.277 128.33C120.743 128.078 120.195 127.768 119.694 127.513C118.736 126.986 117.749 126.513 116.737 126.098C112.74 124.558 108.632 123.097 104.672 121.681L104.188 121.5C103.554 121.276 102.954 121.124 102.27 120.905C101.586 120.685 100.759 120.472 100.018 120.19C99.7806 120.077 99.522 120.016 99.259 120.01C98.9961 120.004 98.7346 120.053 98.4917 120.154C98.2487 120.256 98.0296 120.407 97.8488 120.599C97.6679 120.79 97.5293 121.018 97.4418 121.266C95.6956 124.474 93.977 127.704 92.3115 130.87L90.3335 134.568C89.919 135.357 89.5029 136.129 89.0791 136.911C88.0868 138.726 87.0675 140.612 86.149 142.488C85.5022 143.875 84.9626 145.309 84.535 146.778L84.4826 146.936C84.4685 147.228 84.5538 147.515 84.7244 147.752C85.7863 149.224 87.0227 150.916 88.3457 152.539C88.8325 153.103 89.3529 153.638 89.9041 154.139L90.7744 154.959C95.6293 159.659 99.9963 164.838 103.809 170.418C104.395 171.284 105.039 172.136 105.671 172.946C106.413 173.924 107.219 174.955 107.894 176.033C110.184 179.715 112.157 183.107 113.942 186.407C114.785 187.977 115.653 189.554 116.512 191.122L116.654 191.381C118.991 195.644 121.407 200.054 123.5 204.569C126.872 211.376 129.541 218.511 131.466 225.863C132.059 228.518 132.427 231.219 132.568 233.936L132.734 235.618C133.093 241.705 132.84 247.815 131.977 253.855C131.554 257.311 130.914 260.806 130.252 264.159L130.021 265.515C129.797 266.551 129.398 267.542 128.841 268.445C127.812 270.255 127.052 272.206 126.586 274.234C126.409 274.94 126.173 275.643 125.942 276.32C125.712 276.997 125.559 277.428 125.412 278.004C125.2 278.772 125.021 279.538 124.851 280.31C124.681 281.083 124.441 282.092 124.198 282.991C123.286 286.448 122.055 289.813 120.521 293.042L119.085 295.871C118.466 297.08 117.856 298.296 117.246 299.512C116.844 300.343 116.45 301.164 116.057 302.001C115.375 303.437 114.665 304.927 113.867 306.392L113.382 307.324C112.779 308.717 111.912 309.982 110.829 311.046C110.542 311.282 110.321 311.588 110.188 311.935C110.059 312.273 110.018 312.639 110.07 312.996ZM129.257 328.429L127.467 329.561L128.962 329.656L129.381 329.69C129.642 329.741 129.912 329.728 130.167 329.653C131.002 329.338 131.816 328.972 132.606 328.558C135.703 326.956 138.576 324.952 141.151 322.599C143.47 320.337 145.915 318.21 148.476 316.229C149.448 315.493 150.7 314.509 151.876 313.431C154.647 310.892 157.11 308.58 159.387 306.363C159.809 305.93 160.177 305.448 160.484 304.927C160.611 304.66 160.793 304.437 160.974 304.215C161.49 303.509 161.996 302.779 162.556 302.094L162.665 301.949C163.809 300.423 164.991 298.846 166.076 297.247C166.637 296.373 167.128 295.458 167.546 294.508C167.749 294.072 167.96 293.626 168.189 293.195C168.537 292.506 168.903 291.832 169.261 291.151C169.977 289.805 170.721 288.405 171.39 287.004L172.148 285.399C173.386 282.91 174.488 280.355 175.451 277.747C176.416 274.966 177.129 272.041 177.801 269.222L178.255 267.368C178.409 266.657 178.485 265.932 178.483 265.205C178.487 264.899 178.483 264.602 178.504 264.295L178.618 262.101C178.74 260.747 178.801 259.561 178.9 257.989C179 256.416 179.118 254.859 179.236 253.302L179.495 249.82C179.589 248.877 179.633 247.862 179.681 246.881C179.721 246.172 179.728 245.467 179.752 244.76C179.774 243.696 179.802 242.606 179.884 241.545C180.075 238.102 179.992 234.649 179.639 231.22L179.547 229.599C179.429 228.066 179.298 226.568 179.253 224.985C179.127 219.776 178.488 214.594 177.345 209.513C177.078 208.445 176.845 207.373 176.629 206.3C176.459 205.528 176.36 204.952 176.111 203.975C175.862 202.998 175.605 202.031 175.317 201.177C175.03 200.325 174.759 199.471 174.489 198.617L174.487 198.612C173.702 196.161 172.883 193.621 171.979 191.165C170.606 187.492 169.073 183.826 167.586 180.275L167.462 179.973C165.641 175.624 163.751 171.264 162.117 167.516C161.768 166.736 161.354 165.98 160.953 165.265L160.663 164.733C158.431 160.748 155.926 156.922 153.167 153.283C149.172 147.547 144.102 142.642 138.238 138.84C137.442 138.343 136.658 137.794 135.875 137.262L135.774 137.192C134.631 136.407 133.453 135.598 132.222 134.906C130.253 133.789 128.184 132.776 126.178 131.799L124.546 131.005C121.787 129.628 119.327 128.434 116.802 127.28C115.061 126.488 113.229 125.731 111.211 124.976C108.55 123.988 105.833 123.032 103.195 122.11L101.992 121.697C101.634 121.575 101.27 121.473 100.9 121.391L100.116 121.182C99.9138 121.104 99.6977 121.067 99.481 121.076C99.2642 121.085 99.0515 121.139 98.8561 121.233C98.6492 121.37 98.4719 121.546 98.3348 121.753C98.1976 121.959 98.1034 122.191 98.0579 122.435L97.9388 122.863L98.6469 123.071C98.8661 123.141 99.0898 123.195 99.3165 123.233C101.418 123.577 103.439 124.299 105.282 125.363C106.299 125.851 107.35 126.267 108.426 126.607L109.322 126.907C112.212 127.846 114.994 129.087 117.623 130.61C121.303 132.874 125.194 134.775 129.243 136.286C131.722 137.157 134.02 138.472 136.026 140.167L139.452 142.971C140.809 144.081 142.211 145.213 143.534 146.404C145.078 147.858 146.525 149.414 147.863 151.06C149.265 152.794 150.761 154.621 152.617 157.083C154.338 159.388 155.851 161.476 157.19 163.438C158.669 165.747 159.958 168.171 161.046 170.689L161.065 170.728C161.706 172.111 162.369 173.54 163.093 174.914C164.58 177.769 165.797 180.218 166.804 182.587C168.192 185.733 169.232 188.361 170.074 190.874C170.85 193.147 171.49 195.511 172.108 197.809L173.031 201.145C173.593 203.228 174.207 205.322 174.673 207.559C175.14 209.796 175.412 212.12 175.685 214.368L175.727 214.712C175.984 217.06 176.167 219.423 176.324 221.438L176.33 221.511C176.459 223.162 176.578 224.806 176.689 226.442C176.782 227.816 176.858 229.192 176.959 230.557C177.027 231.51 177.122 232.638 177.318 233.773C177.655 235.825 177.704 237.915 177.464 239.982C177.361 241.321 177.332 242.664 177.377 244.006C177.389 244.82 177.402 245.634 177.38 246.451C177.347 247.621 177.271 248.796 177.196 249.95L177.177 250.242L177.003 253.035C176.935 254.324 176.859 255.623 176.748 256.907C176.546 259.076 176.351 260.802 176.116 262.371L176.053 262.768C175.563 266.061 175.049 269.458 174.426 272.782C174.128 274.103 173.719 275.397 173.203 276.65L172.637 278.133C171.696 280.64 170.712 283.235 169.624 285.714C168.797 287.461 167.848 289.149 166.786 290.764C163.308 296.045 159.51 301.107 155.413 305.924L153.823 307.868C151.114 311.178 148.152 314.274 144.966 317.127C140.409 321.249 135.421 324.868 130.09 327.921C129.825 328.075 129.577 328.227 129.257 328.429ZM123.048 324.43C124.456 325.706 125.924 326.907 127.337 328.063L127.28 328.094C127.463 328.213 127.674 328.278 127.892 328.285C128.11 328.291 128.325 328.238 128.515 328.131L129.83 327.353L129.903 327.309C131.388 326.423 132.924 325.506 134.37 324.499C137.182 322.55 139.971 320.443 142.332 318.65C142.883 318.197 143.408 317.713 143.904 317.201L143.935 317.169C144.272 316.83 144.617 316.483 144.982 316.166C149.31 312.174 153.271 307.801 156.816 303.099L157.672 302.053C161.009 298.067 164.062 293.852 166.808 289.438C168.108 287.17 169.28 284.832 170.319 282.435C170.745 281.5 171.108 280.453 171.412 279.573C171.716 278.693 172.035 277.795 172.401 276.951C173.402 274.374 174.055 271.675 174.343 268.927C174.482 267.665 174.715 266.419 174.967 265.187C175.251 263.859 175.464 262.517 175.606 261.166C175.953 257.277 176.321 253.436 176.588 249.605C176.618 248.834 176.567 248.062 176.437 247.302C176.377 246.867 176.316 246.415 176.29 245.976C176.178 244.417 176.114 242.819 176.05 241.222L176.05 241.22C176.013 240.247 175.96 239.276 175.914 238.296C175.886 237.84 175.843 237.403 175.798 236.949L175.758 236.452L175.204 230.064C174.836 225.126 174.366 220.105 173.979 215.152C173.657 210.536 172.98 205.952 171.956 201.441C171.768 200.653 171.663 199.84 171.534 199.055C171.375 197.829 171.119 196.617 170.769 195.431C169.381 191.08 168.133 187.632 166.82 184.564C164.808 179.826 162.886 175.826 160.959 172.209C159.031 168.592 156.705 165.142 154.489 161.784L154.328 161.528C153.735 160.698 153.071 159.921 152.342 159.208C151.898 158.752 151.492 158.326 151.089 157.857L148.043 154.175C146.668 152.539 145.308 150.885 143.926 149.259C143.198 148.439 142.427 147.658 141.615 146.921L140.82 146.177L139.676 145.071C138.157 143.611 136.59 142.097 135.004 140.644C134.455 140.174 133.868 139.751 133.249 139.379L132.505 138.893C132.375 138.801 132.228 138.735 132.073 138.701C131.917 138.666 131.756 138.663 131.599 138.691C131.442 138.72 131.292 138.779 131.159 138.867C131.025 138.954 130.91 139.067 130.821 139.2L129.371 140.858C128.356 142.005 127.329 143.127 126.359 144.312L124.564 146.506L122.86 148.589C121.332 150.368 119.797 152.136 118.256 153.894C118.003 154.166 117.849 154.411 117.434 154.767C117.019 155.123 116.678 155.54 116.33 155.965C115.374 157.115 114.477 158.267 113.648 159.412C113.371 159.788 113.538 160.451 113.732 160.779C116.209 165.078 119.082 169.136 122.312 172.901C123.711 174.547 124.997 176.286 126.161 178.107C126.707 178.909 127.255 179.728 127.816 180.512L128.038 180.863L128.401 181.455L130.645 180.277C132.218 179.447 133.775 178.619 135.352 177.822C136.002 177.492 136.679 177.219 137.376 177.006C137.895 176.843 138.3 177.083 138.338 177.206L138.34 177.213C138.379 177.34 138.466 177.623 137.694 177.993C135.793 178.91 133.885 179.822 131.971 180.728L129.693 181.816L129.337 181.988L128.772 182.283L128.946 182.673L129.579 184.103C130.031 185.153 130.49 186.193 130.981 187.213C134.108 193.807 136.85 200.577 139.194 207.489C139.455 208.187 139.766 208.865 140.124 209.518C140.496 210.176 140.808 210.866 141.058 211.58C141.824 214.016 142.534 216.482 143.309 219.605C144.084 222.726 144.808 225.852 145.532 228.978L145.533 228.982L146.516 233.187L146.603 233.459L146.821 234.04L147.216 233.915L148.433 233.596C149.371 233.383 150.294 233.105 151.194 232.765C152.379 232.332 153.637 232.132 154.896 232.178L155.557 232.595C155.365 232.772 155.152 232.924 154.923 233.05C154.698 233.121 154.463 233.154 154.228 233.146C154.098 233.145 153.969 233.152 153.84 233.168L153.586 233.177C153.397 233.167 153.207 233.184 153.022 233.226L148.7 234.325L146.87 234.79L147.718 238.313L148.067 238.32L149.105 238.351C149.963 238.358 150.763 238.378 151.568 238.45C151.716 238.49 151.854 238.556 151.978 238.646C151.824 238.791 151.646 238.907 151.451 238.988C150.852 239.148 150.242 239.263 149.627 239.334C149.4 239.365 149.174 239.397 148.95 239.445C148.804 239.458 148.662 239.503 148.535 239.577C148.408 239.651 148.299 239.753 148.216 239.874C148.133 239.995 148.078 240.133 148.055 240.279C148.032 240.424 148.041 240.572 148.082 240.713C148.939 247.76 148.808 254.894 147.694 261.91C147.549 263.105 147.296 264.284 146.938 265.434C146.473 266.831 146.01 268.244 145.554 269.649C144.201 274.162 142.556 278.582 140.629 282.883C139.618 285.023 138.371 287.093 137.114 289.156C136.61 289.98 136.115 290.811 135.619 291.642L135.438 291.864C134.778 293.009 134.088 294.191 133.312 295.272L131.57 297.401L130.714 298.447L130.426 298.799L130.768 299.078L131.636 299.789C132.282 300.253 132.899 300.758 133.482 301.3C134.347 302.187 135.135 303.147 135.836 304.169C135.838 304.349 135.816 304.528 135.77 304.702C135.549 304.689 135.333 304.633 135.134 304.537C133.775 303.58 132.482 302.522 131.153 301.434L129.306 299.922L129.041 300.246C124.127 305.447 118.326 309.729 111.911 312.89L111.419 313.152L111.766 313.575L112.067 313.96C112.25 314.203 112.448 314.432 112.661 314.647C113.959 315.926 115.245 317.179 116.547 318.415L117.037 318.815C118.993 320.663 121.025 322.589 123.048 324.43ZM113.71 308.751L113.613 309.151L114.186 309.79L115.128 309.108C115.635 308.735 116.135 308.387 116.623 307.998C117.442 307.355 118.279 306.71 119.107 306.074L119.235 305.975C121.553 304.179 123.944 302.327 126.241 300.428C127.129 299.663 127.967 298.841 128.748 297.967C129.279 297.412 129.801 296.85 130.359 296.318C135.008 291.899 138.401 286.284 141.38 278.103C142.906 273.865 144.336 269.687 145.597 265.697C146.725 261.633 147.316 257.44 147.355 253.225C147.779 246.92 147.192 240.59 145.616 234.476C145.159 232.821 144.813 231.1 144.475 229.421L144.437 229.229C144.16 227.797 143.809 226.134 143.495 224.842C143.18 223.549 142.729 222.16 142.361 221.008C141.993 219.857 141.612 218.664 141.308 217.472C140.613 214.962 139.791 212.49 138.846 210.063L138.806 209.957C138.311 208.633 137.808 207.288 137.381 205.975C136.618 203.839 135.709 201.758 134.662 199.746C134.264 198.895 133.86 198.07 133.471 197.226C132.919 196.017 132.376 194.646 131.875 193.525C131.374 192.404 130.934 191.209 130.405 190.065L129.971 189.107C127.899 184.537 125.754 179.829 122.44 175.834L121.324 174.504C119.667 172.594 118.108 170.601 116.652 168.532C115.482 166.817 114.456 164.942 113.464 163.141C112.998 162.203 112.511 161.31 111.978 160.379C111.766 159.928 111.444 159.537 111.042 159.243C109.083 158.057 107.105 156.933 105.253 155.88C100.525 153.34 95.6135 151.155 90.56 149.344C90.1379 149.198 89.7284 149.017 89.3355 148.805C89.1088 148.643 88.8929 148.467 88.6892 148.276L88.0706 147.77L87.3587 148.47L87.6196 148.792L88.8394 150.316C89.7287 151.414 90.6397 152.562 91.6038 153.644C92.7206 154.898 93.8602 156.125 95.0089 157.358C96.6426 159.205 98.3712 161.068 99.9762 162.969C104.257 168.059 108.021 173.562 111.214 179.398C112.181 181.117 113.124 182.754 114.103 184.421C115.564 186.931 117.092 189.51 118.421 192.143C121.672 198.513 124.885 205.099 127.882 211.648C129.946 216.316 131.519 221.188 132.575 226.184C133.031 228.273 133.258 229.828 133.48 231.347L133.516 231.591C133.937 235.165 134.205 238.058 134.366 240.725C134.521 243.075 134.532 245.433 134.4 247.786C134.177 251.204 133.801 254.621 133.399 258.109C133.207 259.443 132.926 260.762 132.557 262.058C132.371 262.756 132.262 263.454 132.149 264.12C132.02 265.422 131.646 266.69 131.049 267.856C130.265 269.384 129.719 271.023 129.432 272.715C129.276 273.452 129.104 274.209 128.896 274.934C128.333 276.808 127.697 278.622 127.058 280.401L126.248 282.691L125.892 283.728C125.59 284.625 125.275 285.557 124.922 286.459C124.245 288.115 123.52 289.886 122.601 292.009C122.052 293.244 121.454 294.578 120.796 295.833C120.536 296.315 120.247 296.781 119.932 297.228L119.908 297.265C119.614 297.717 119.313 298.178 119.047 298.668C118.204 300.249 117.382 301.834 116.557 303.427L116.319 303.885C115.819 304.836 115.32 305.803 114.812 306.763C114.577 307.22 114.325 307.678 114.064 308.129L113.71 308.751ZM85.7538 145.194L85.2182 146.131L85.7542 146.23L87.4164 146.817C88.5897 147.268 89.7857 147.69 90.9439 148.159C93.7264 149.261 96.4938 150.382 99.2704 151.51L102.038 152.631L102.511 152.864L103.161 153.18L103.371 152.811C104.737 150.569 106.358 148.493 108.202 146.625C108.815 145.951 109.446 145.293 110.014 144.599L110.112 144.479C110.14 144.439 110.17 144.402 110.203 144.368L110.456 144.266L110.406 144.441C109.717 146.196 108.725 147.817 107.474 149.229C106.715 150.158 106.017 151.136 105.386 152.157L104.31 153.981L111.05 158.028C111.297 158.195 111.598 158.264 111.894 158.22C112.19 158.176 112.459 158.022 112.648 157.79C113.538 156.834 114.426 155.937 115.374 154.967C116.322 153.996 117.287 153.024 118.216 152.022C120.367 149.733 122.524 147.341 124.654 144.926C125.904 143.569 127.033 142.189 128.177 140.792L129.692 138.94L130.745 137.654L129.579 137.194L128.428 136.716L127.86 136.468C124.898 135.257 122.015 133.859 119.231 132.281L118.438 131.818C115.842 130.095 113.009 128.76 110.026 127.855C108.263 127.362 106.541 126.732 104.875 125.973L103.724 125.495C102.297 124.957 100.822 124.552 99.3184 124.285L97.9138 123.986C97.4266 123.866 96.9108 124.402 96.7297 124.717C95.072 127.704 93.7418 130.139 92.554 132.382C91.2336 134.887 89.9062 137.407 88.5717 139.942L86.2895 144.257C86.1253 144.571 85.9425 144.869 85.7538 145.194Z" fill="#FDFBF8"/>
<path d="M96.5285 137.234C95.4451 138.782 94.362 140.33 93.3152 141.907C93.3235 142.039 93.3535 142.168 93.4038 142.289L93.4703 142.189L93.9627 141.587C94.401 141.083 94.7963 140.543 95.1447 139.973C95.6385 139.087 96.0872 138.163 96.5285 137.234Z" fill="#FDFBF8"/>
<path d="M162.951 206.266C162.822 206.16 162.598 206.132 162.095 206.276C160.818 206.669 159.522 207.046 158.244 207.421C154.085 208.547 149.994 209.91 145.991 211.505L145.876 211.551C145.741 211.599 145.613 211.666 145.497 211.751C145.452 211.796 145.412 211.846 145.376 211.899C145.439 211.933 145.507 211.958 145.578 211.972C145.749 211.964 145.917 211.93 146.077 211.87C146.918 211.615 147.71 211.382 148.5 211.133C150.139 210.619 151.828 210.1 153.506 209.65C154.764 209.319 156.045 209.053 157.285 208.801C158.134 208.63 158.973 208.451 159.811 208.256C160.65 208.061 161.197 207.844 161.788 207.725L162.447 207.523C163.164 206.966 163.267 206.803 163.084 206.499C163.038 206.438 162.978 206.389 162.909 206.355L162.951 206.266Z" fill="#FDFBF8"/>
<path d="M150.802 279.492L150.831 279.516C152.13 280.208 153.55 280.922 155.414 281.828C157.696 282.939 159.621 283.865 161.576 284.754C161.777 284.832 161.998 284.845 162.208 284.792C162.226 284.695 162.239 284.597 162.247 284.499L162.308 284.425L161.779 284.148C161.242 283.862 160.704 283.577 160.207 283.356C158.269 282.465 156.323 281.584 154.355 280.73C153.265 280.271 152.118 279.827 150.929 279.472L150.802 279.492Z" fill="#FDFBF8"/>
<path d="M27.5911 129.086C26.9145 129.077 26.2645 128.819 25.765 128.363C25.2655 127.906 24.951 127.282 24.8807 126.609C24.7854 126.151 24.0862 125.884 23.7029 125.333C25.0574 125.228 24.9329 124.456 24.6435 123.334C24.354 122.212 24.7459 121.627 26.067 121.777C26.6262 121.813 27.1879 121.767 27.7339 121.642C29.2463 121.394 30.7728 121.132 31.7734 122.789L27.7461 128.885" fill="#FDFBF8"/>
<path d="M110.826 98.0929L110.38 101.115L104.502 98.6016L103.235 100.989L103.021 101.222L102.107 99.501C103.318 97.155 105.233 95.2465 107.582 94.0421C108.703 95.3808 109.794 96.7204 110.899 98.0448" fill="#FDFBF8"/>
<path d="M97.2955 108.082C97.5375 107.817 97.8363 107.49 97.8825 107.189C98.1388 105.251 99.1675 104.876 100.845 105.637C100.512 106.305 100.219 106.991 99.9664 107.693C99.8084 108.007 99.7313 108.355 99.742 108.706C99.7527 109.058 99.8511 109.4 100.028 109.704C100.205 110.008 100.454 110.262 100.755 110.445C101.055 110.627 101.396 110.732 101.747 110.749C104.558 111.489 104.84 112.432 103.018 114.77L97.2955 108.082Z" fill="#FDFBF8"/>
<path d="M122.502 23.6329C122.003 23.1774 121.591 22.6585 121.26 22.2701C120.343 22.1471 119.367 22.0264 118.39 21.8762C118.565 21.0975 118.875 20.3558 119.307 19.6844C120.616 18.2514 121.008 20.3246 122.152 20.5121C123.936 18.998 125.753 20.5444 127.588 20.8203L122.439 23.5759" fill="#FDFBF8"/>
<path d="M47.6115 149.749C46.2872 149.196 44.7515 148.593 45.4929 146.812C46.1449 145.656 46.9455 144.591 47.8744 143.643C48.9615 144.236 49.9269 144.775 50.8765 145.3L47.6115 149.749Z" fill="#FDFBF8"/>
<path d="M93.6458 79.3886C93.4433 79.2035 93.225 79.0045 92.7964 78.4413C95.5925 78.5097 96.0801 76.0679 97.496 74.6748L96.5533 75.2998C96.3249 74.4309 96.1799 73.5421 96.1202 72.6456C96.1839 71.0745 97.6146 71.6674 98.4671 71.3602L98.4229 76.351L98.428 77.1275C96.5348 77.5413 96.2216 79.5414 94.9542 80.5843L93.7081 79.4456" fill="#FDFBF8"/>
<path d="M93.2426 62.8141C93.3992 62.6427 93.7855 62.5953 93.8527 62.428C94.0888 61.7004 94.2341 60.9471 94.4817 60.1443L95.2959 60.3168L95.1733 62.2342C96.041 62.5984 96.9334 63.8429 97.9275 62.0357L96.3074 61.556L96.1474 60.9804L98.2268 60.3942L99.4046 60.0127L99.2763 63.4686L95.8859 64.8012L93.5903 63.9037C93.4408 63.5669 93.2925 63.26 93.1585 62.9375L93.2582 62.8283" fill="#FDFBF8"/>
<path d="M112.697 117.754L113.287 119.923L113.117 120.11C112.685 120.802 112.361 121.906 111.312 121.177C110.97 120.864 111.003 119.951 110.796 118.99L106.813 118.781C106.768 118.767 106.726 118.743 106.691 118.711C106.656 118.679 106.629 118.64 106.611 118.596L107.038 118.128L108.557 115.371L109.323 115.128C109.498 116.031 109.637 116.816 110.895 116.879C111.538 116.895 112.162 117.494 112.837 117.882" fill="#FDFBF8"/>
<path d="M87.4044 96.0392C87.5182 95.9146 87.7878 95.9323 87.9017 95.8077C88.4854 95.169 89.1973 94.39 89.9504 95.1925C90.3709 95.5769 90.2036 96.5109 90.3454 97.6695C91.1685 97.7072 92.352 97.7882 93.8093 97.9766L90.8765 100.842C89.6996 99.2518 88.5086 97.6773 87.3331 96.1171" fill="#FDFBF8"/>
<path d="M83.0833 90.9465C83.6532 90.6669 84.239 90.4016 84.792 90.0779C85.035 89.8841 85.3279 89.7628 85.6368 89.7285C85.9458 89.6942 86.2582 89.7481 86.5378 89.884C86.8174 90.0198 87.0527 90.2326 87.2166 90.4967C87.3806 90.7608 87.4663 91.0659 87.4641 91.3767L87.7099 93.5164L85.935 94.2386L83.1613 91.0177" fill="#FDFBF8"/>
<path d="M103.813 48.7763C101.857 47.7889 101.857 47.7889 103.382 44.8376C104.013 45.2423 104.645 45.6771 105.275 46.0819L103.813 48.7763Z" fill="#FDFBF8"/>
<path d="M10.4326 123.46C12.0657 124.238 12.1407 125.908 10.6189 127.604L10.4326 123.46Z" fill="#FDFBF8"/>
<path d="M98.3494 77.0573L98.3443 76.2808L98.3494 77.0573Z" fill="#FDFBF8"/>
<path d="M47.4138 82.6187L46.3258 82.3391C46.4966 82.1521 46.473 81.9591 46.6532 81.9808C49.4988 80.4936 51.5995 75.7238 55.5708 79.6675L58.0425 78.8395C58.0599 79.227 58.2814 79.8293 58.1235 79.9708C57.4245 80.4239 56.6937 80.8263 55.9371 81.1747C55.7324 83.0385 54.8206 84.7529 53.3895 85.9643C52.8595 86.5168 52.1677 86.8863 51.4139 87.0196C50.66 87.1528 49.8834 87.0428 49.1961 86.7055C48.4709 86.3595 47.897 85.7604 47.5831 85.0207C47.2692 84.2809 47.2367 83.4519 47.4917 82.6899" fill="#FDFBF8"/>
<path d="M72.416 60.7027L67.3511 64.6497C66.8062 63.4943 66.377 62.5879 65.8815 61.5348C65.562 60.7907 65.5396 59.9523 65.8193 59.1923C66.0991 58.4324 66.6599 57.8083 67.3856 57.449C68.7532 56.6406 70.0313 55.8362 71.5471 56.9928C71.7808 57.2063 72.1791 57.4275 72.2326 57.6192C72.3357 58.914 72.8289 59.594 74.5414 58.8149L74.5054 59.6676L72.7295 60.7037L72.5582 60.5471" fill="#FDFBF8"/>
<path d="M78.3985 70.2007C78.9366 69.3783 79.5357 68.5973 80.1905 67.8645C80.4609 67.5685 81.3486 67.3792 81.5511 67.5642C82.2836 68.2619 82.9087 69.0643 83.4059 69.9452C83.6645 70.9664 83.6642 72.036 83.405 73.057C83.1458 74.078 82.6358 75.0182 81.9214 75.7923C81.5732 76.0159 81.1714 76.1422 80.7579 76.1583C80.1735 76.1712 79.6035 75.9767 79.1493 75.6088C78.6951 75.2408 78.3864 74.7236 78.2777 74.1493C77.8298 72.8252 76.9304 71.4318 78.3985 70.2007Z" fill="#FDFBF8"/>
<path d="M90.153 83.7727C90.1095 84.1331 89.9134 84.7541 90.0509 84.8226C91.5742 85.8145 93.2657 86.56 93.4545 88.7621C93.5004 89.1185 94.3642 89.3931 94.7184 89.631C93.9235 90.0979 93.1053 90.5236 92.2667 90.9064C91.5452 91.3012 90.7014 91.4098 89.9036 91.2104C89.1057 91.011 88.4122 90.5182 87.9613 89.8305L87.9738 85.4689C89.1053 85.3881 88.4781 83.7285 89.2664 82.991L90.0529 83.5382L90.096 83.8351" fill="#FDFBF8"/>
<path d="M100.126 22.6244C101.129 21.8886 102.221 21.2826 103.376 20.8204C105.515 20.2313 106.629 21.4204 106.266 23.6324C105.902 25.8443 103.467 27.8212 101.578 26.6665C100.79 25.9748 100.152 25.1291 99.7037 24.1817C100.705 23.8678 101.209 23.4419 100.139 22.5789L100.126 22.6244Z" fill="#FDFBF8"/>
<path d="M85.5453 79.9623C85.3878 80.1973 85.1956 80.4076 84.9757 80.5856C84.5629 81.0374 84.0507 81.5979 83.4531 81.595C82.8556 81.592 82.6743 80.8832 81.8955 80.1714C82.0029 80.8985 81.8976 81.5455 82.1664 81.8769C83.0988 83.0149 82.1627 83.789 81.5764 84.368C81.2689 84.5984 80.918 84.764 80.5448 84.8553C80.1716 84.9465 79.7839 84.9613 79.4049 84.8987C79.0844 84.7836 78.79 84.6062 78.5386 84.3765C78.2873 84.1468 78.084 83.8693 77.9405 83.5606C77.831 82.9764 77.9541 82.3727 78.2834 81.8779C78.6127 81.3832 79.1222 81.0367 79.7033 80.9122C80.1038 80.8494 80.5366 80.845 80.8489 80.816C80.9373 80.125 81.0042 78.957 81.0638 78.9543C82.2194 78.9557 83.373 79.0537 84.5124 79.2472C84.8585 79.3063 85.1042 79.7881 85.4157 80.0728L85.5453 79.9623Z" fill="#FDFBF8"/>
<path d="M99.7043 24.1804C99.102 24.5711 98.5228 24.9962 97.9694 25.4535C97.0645 26.2559 94.7084 26.6759 94.1227 25.9406C93.1564 24.7145 93.9481 23.7227 94.6621 22.6599C95.065 21.9181 95.3808 21.132 95.6024 20.3174C96.265 20.4369 97.1375 20.5771 98.071 20.7442L99.2229 23.7691C99.3942 23.9257 99.5655 24.0822 99.7369 24.2388L99.7043 24.1804Z" fill="#FDFBF8"/>
<path d="M39.9698 139.906C40.2804 138.495 40.7548 137.126 41.384 135.825C42.0921 135.075 43.0225 134.572 44.038 134.391C44.4229 134.314 45.2486 135.068 45.5268 135.609C45.7558 136.098 45.8326 136.645 45.7475 137.179C45.6623 137.713 45.4193 138.208 45.0493 138.602C43.7015 140.515 41.9119 139.251 39.9698 139.906Z" fill="#FDFBF8"/>
<path d="M86.3753 49.6497C85.8604 49.009 85.5233 48.2439 85.3976 47.4316C85.2719 46.6193 85.3621 45.7879 85.6592 45.0215C86.7126 43.8688 89.2033 43.4583 90.2083 44.5482C90.367 44.8181 90.4551 45.1235 90.464 45.4365C90.4728 45.7495 90.4023 46.0596 90.2591 46.338C89.3805 47.1449 88.4395 47.8816 87.4454 48.541L86.4063 49.678" fill="#FDFBF8"/>
<path d="M61.0045 117.108C60.5232 117.583 59.8845 117.865 59.209 117.901C58.5334 117.937 57.8681 117.724 57.3391 117.303C56.5602 116.591 56.9488 114.602 58.2549 113.423C59.5611 112.244 60.3971 113.237 61.2938 113.913C62.1905 114.59 61.9325 116.155 61.0045 117.108Z" fill="#FDFBF8"/>
<path d="M93.5478 63.9502L95.8437 64.8473C98.0943 65.0746 98.7969 66.0887 98.1713 68.1183C97.9895 68.7239 97.9127 69.34 97.7647 70.0337C97.5466 69.8344 97.1655 69.6572 96.8126 69.449C95.5643 68.5941 94.3016 67.7548 93.0391 66.9155L93.5478 63.9502Z" fill="#FDFBF8"/>
<path d="M93.0386 66.9156C94.3011 67.755 95.5495 68.6098 96.8121 69.4491L95.4819 71.0921C94.9394 71.8767 94.2928 72.5843 93.5601 73.1951C93.274 73.2733 92.9731 73.2802 92.6838 73.2151C92.3944 73.15 92.1256 73.0148 91.9005 72.8217C91.293 72.2665 90.414 71.3203 92.0322 70.7695C92.5622 70.4864 93.0576 70.1435 93.5094 69.7473L93.6803 69.5602L93.4302 69.6464C91.9773 68.8903 92.9 67.818 93.0969 66.8831" fill="#FDFBF8"/>
<path d="M97.1706 27.9554C98.3577 29.4404 100.495 29.1351 99.9729 31.1451C99.7065 32.1815 99.1471 33.1192 98.3618 33.8462C98.1098 34.0162 97.8153 34.112 97.5115 34.1229C97.2077 34.1338 96.9068 34.0595 96.6432 33.908C96.3797 33.7565 96.1643 33.534 96.0209 33.266C95.8774 32.998 95.8117 32.6952 95.8318 32.3918C96.17 30.8748 96.6379 29.3897 97.2303 27.9527" fill="#FDFBF8"/>
<path d="M115.218 126.632C115.119 126.084 114.82 125.41 114.989 124.85C115.11 124.596 115.293 124.376 115.52 124.209C115.747 124.043 116.011 123.935 116.29 123.895C117.535 123.891 118.775 124.061 119.972 124.402C120.188 124.44 120.389 124.539 120.551 124.687C120.713 124.835 120.83 125.026 120.888 125.237C120.946 125.449 120.943 125.672 120.879 125.882C120.815 126.092 120.693 126.28 120.526 126.423C120.057 126.937 118.859 127.529 118.58 127.302C118.245 126.957 117.812 126.725 117.34 126.636C116.868 126.548 116.38 126.608 115.943 126.808C115.943 126.808 115.64 126.703 115.275 126.57" fill="#FDFBF8"/>
<path d="M83.5428 36.7979C83.661 36.1055 83.5835 35.3772 83.8927 34.9451C84.3884 34.1858 85.0774 33.5722 85.8888 33.1674C86.2218 33.1557 86.5523 33.2287 86.8492 33.38C87.1461 33.5313 87.3994 33.7557 87.5856 34.032C87.675 35.0823 87.5708 36.14 87.2781 37.1525C87.1784 37.2616 86.3931 37.4014 85.9575 37.3463C85.1549 37.2127 84.3593 37.0393 83.574 36.8264" fill="#FDFBF8"/>
<path d="M112.698 117.753C112.085 117.422 111.461 116.823 110.756 116.75C109.498 116.687 109.358 115.902 109.183 114.998C109.924 114.188 110.607 113.441 111.498 112.684C111.675 112.61 111.866 112.579 112.056 112.594C112.246 112.609 112.43 112.669 112.593 112.769C113.021 113.518 113.25 114.364 113.257 115.227C113.264 116.089 113.05 116.94 112.635 117.696" fill="#FDFBF8"/>
<path d="M109.905 8.91935C110.123 9.11277 110.379 9.25881 110.656 9.34846C113.225 9.66602 114.029 10.944 112.927 13.3386C112.573 14.1013 112.087 14.258 111.214 13.7745C109.22 12.6096 109.25 10.9503 109.92 8.9336" fill="#FDFBF8"/>
<path d="M67.851 48.8709L70.3927 45.2762C70.9785 46.0116 71.9505 46.6998 72.0606 47.4865C72.1749 48.0167 72.0907 48.5705 71.8239 49.0429C71.5572 49.5152 71.1262 49.8736 70.613 50.0495C70.0999 50.2254 69.54 50.2069 69.0396 49.9976C68.5391 49.7883 68.1329 49.4025 67.8978 48.9136" fill="#FDFBF8"/>
<path d="M80.1694 45.1488C80.45 44.2768 80.878 43.4594 81.4348 42.732C82.2091 42.0787 83.1062 41.5862 84.0731 41.2838C84.5258 41.6292 84.8309 42.1333 84.9279 42.6944C84.9333 43.3129 84.7048 43.9103 84.2875 44.3669C83.8703 44.8235 83.2955 45.1051 82.679 45.1553C81.8157 45.1877 80.9513 45.1619 80.0916 45.0777" fill="#FDFBF8"/>
<path d="M98.3348 16.9846L96.3179 16.9705C95.7968 17.0166 95.2732 17.0253 94.7508 16.9964C94.2439 16.8951 93.7471 16.7475 93.2671 16.5554C93.598 15.9431 93.7834 15.0834 94.3636 14.6988C95.1166 14.2792 95.9689 14.0704 96.8306 14.0948C97.1454 14.0756 97.4606 14.1273 97.7529 14.246C98.0451 14.3647 98.3072 14.5473 98.5195 14.7805C98.7924 15.2014 98.4837 15.9771 98.4061 16.9067" fill="#FDFBF8"/>
<path d="M85.546 79.9911C86.5282 78.9163 87.6102 77.7326 88.6052 79.9282C88.6653 80.026 88.7517 80.105 88.8545 80.156C90.8628 81.3053 90.8626 81.3055 89.1593 82.9505C88.6554 82.6297 88.1055 82.3875 87.5287 82.2322C86.9527 82.2026 86.4095 81.9558 86.0083 81.5414C85.6072 81.1271 85.3781 80.576 85.3672 79.9994L85.546 79.9911Z" fill="#FDFBF8"/>
<path d="M97.8659 93.5373C97.7354 92.9606 97.3636 92.3351 97.5366 91.8643C97.7096 91.3935 98.3848 91.1242 98.8457 90.745C99.0358 91.3189 99.4827 91.9558 99.3538 92.4097C98.9127 93.8933 99.9609 94.623 100.631 95.5787C100.85 95.9069 101.04 96.253 101.201 96.6134C100.789 96.7515 100.267 97.1037 99.9621 96.968C99.0164 96.5326 97.3532 96.4131 98.3757 94.5747C98.5892 94.3411 98.4782 93.8682 98.5373 93.522L97.8659 93.5373Z" fill="#FDFBF8"/>
<path d="M63.4655 75.2206C63.4934 74.8459 63.3659 74.3288 63.5251 74.2171C64.7993 73.3233 64.5186 72.0662 64.5971 70.823C64.6339 70.3135 65.4796 69.8573 65.9208 69.3745C66.3881 69.8015 67.285 70.4782 67.245 70.5846C66.4227 72.1673 65.5144 73.7039 64.5246 75.1877C64.4249 75.2967 63.9412 75.1692 63.5069 75.1439" fill="#FDFBF8"/>
<path d="M99.2248 52.6998C98.5175 52.2558 97.7594 51.8986 96.9666 51.6362C95.1631 51.3888 94.8947 49.7432 94.0076 48.6181C93.8519 48.4757 94.1036 47.7625 94.3483 47.5573C94.5166 47.4451 94.7075 47.3716 94.9076 47.3419C95.1077 47.3123 95.3121 47.3269 95.5058 47.3854C95.7327 47.4499 96.0195 47.8553 95.9617 48.2313C96.0339 50.4983 97.2642 51.2793 99.6653 49.8718L99.2092 52.6856" fill="#FDFBF8"/>
<path d="M93.6466 79.3883L94.8929 80.5272L92.0041 84.3763L90.8982 83.3656C91.061 82.9998 91.4026 82.6258 91.3567 82.2694C91.2742 81.9231 91.2709 81.5625 91.3473 81.2148C91.4237 80.867 91.5777 80.5412 91.7978 80.2613C92.0178 79.9814 92.2982 79.7548 92.6181 79.5985C92.938 79.4422 93.2892 79.36 93.6453 79.3584" fill="#FDFBF8"/>
<path d="M113.117 120.11L113.288 119.923L117.019 119.531L117.436 118.512C118.292 119.608 118.652 120.309 117.243 120.85C117.071 120.895 116.908 120.969 116.76 121.067C114.298 122.79 114.298 122.79 113.117 120.11Z" fill="#FDFBF8"/>
<path d="M59.3088 84.7427L62.7059 84.5601C62.5334 85.3744 62.6114 86.4462 62.1545 86.9148C61.6977 87.3835 60.6062 87.3579 59.7497 87.5757L59.2945 84.7583" fill="#FDFBF8"/>
<path d="M62.1619 95.3525C61.8316 92.9925 62.3554 92.0128 63.6347 91.8955C64.9139 91.7782 64.8831 92.7505 64.9443 93.7783C65.1023 96.2954 63.3801 95.2081 62.1619 95.3525Z" fill="#FDFBF8"/>
<path d="M86.3771 49.6491L87.4162 48.512C88.8238 49.2552 88.7322 50.2001 87.6044 51.0275L83.9925 54.0726L83.2602 51.7459L83.8199 51.5714L84.4125 52.4556C84.562 52.4146 84.7049 52.3529 84.8373 52.2723C84.6448 50.9815 87.7347 51.6044 86.3615 49.6349" fill="#FDFBF8"/>
<path d="M102.995 101.283L103.209 101.049L106.517 101.214C106.443 102.89 106.443 102.89 102.52 103.992L102.964 101.254" fill="#FDFBF8"/>
<path d="M74.4104 70.5011C74.5011 72.1848 74.3309 73.716 72.3037 73.8072C72.0056 73.8206 71.5249 73.0953 71.4323 72.6962C71.2451 71.5246 72.535 70.6453 74.4104 70.5011Z" fill="#FDFBF8"/>
<path d="M123.391 17.8426L123.072 16.0651C122.479 15.8379 121.655 15.7701 121.521 15.4475C121.387 15.125 121.694 14.3196 121.878 13.7736C121.992 13.6489 122.305 13.3061 122.399 13.3915C123.199 14.2326 123.933 15.1332 124.596 16.0856C124.752 16.228 123.995 16.994 123.391 17.8426Z" fill="#FDFBF8"/>
<path d="M74.6959 83.8262C74.1019 83.4406 73.5756 82.9597 73.1382 82.4027C72.8998 81.7571 72.7684 81.0767 72.7489 80.3888C73.2455 80.471 73.8246 80.4002 74.2087 80.6368C76.0226 81.78 75.9534 82.2311 74.6464 83.7238" fill="#FDFBF8"/>
<path d="M85.4934 75.1701L86.7497 72.8881C87.4239 72.9325 88.4106 72.9477 89.6823 72.995C88.5859 74.8516 87.3414 75.7441 85.4934 75.1701Z" fill="#FDFBF8"/>
<path d="M118.419 15.587C117.704 16.5836 116.928 17.5362 116.098 18.4397C115.885 18.6733 115.14 18.3934 114.66 18.3552C114.737 17.7394 114.604 16.7593 114.924 16.5657C115.962 16.0336 117.047 15.5999 118.166 15.2698L118.462 15.5402" fill="#FDFBF8"/>
<path d="M80.9009 59.3947C80.4336 58.9676 80.0518 58.447 79.8466 58.2023C80.4037 57.7039 80.909 57.151 81.3553 56.5514C82.0354 55.4006 82.6913 55.3711 83.4768 56.2319L81.9695 58.9134L80.9165 59.4089" fill="#FDFBF8"/>
<path d="M62.4236 56.3739L65.1159 52.8024C65.1646 53.8637 65.1474 54.9271 65.0648 55.9863C65.0084 56.3921 64.4574 57.0889 64.1254 57.0142C63.4898 56.8773 62.8824 56.6319 62.3302 56.2886" fill="#FDFBF8"/>
<path d="M115.51 110.89C114.904 110.021 114.195 109.202 115.177 108.127C116.159 107.053 116.974 106.911 117.457 108.01L116.326 110.749L115.573 110.947" fill="#FDFBF8"/>
<path d="M102.076 99.4712C101.996 99.7975 101.846 100.103 101.638 100.367C101.43 100.631 101.168 100.848 100.87 101.003C100.572 101.157 100.244 101.247 99.9083 101.265C99.5726 101.283 99.2369 101.229 98.9237 101.107L99.4732 98.3784L102.078 99.501" fill="#FDFBF8"/>
<path d="M80.9006 59.3962L81.9536 58.9007C82.6852 59.2262 83.7848 59.4306 83.2409 60.6201C82.9371 61.1714 82.0592 61.9132 81.5274 61.7131C80.3032 61.3948 80.8074 60.3116 80.9785 59.4675" fill="#FDFBF8"/>
<path d="M59.3288 61.9788C59.8292 60.9705 60.3888 59.9927 61.0045 59.0505C61.1326 58.9103 62.2815 59.2169 62.3207 59.4243C62.3599 59.6316 62.2901 60.7403 61.9431 60.9949C61.1147 61.4277 60.237 61.758 59.3288 61.9788Z" fill="#FDFBF8"/>
<path d="M99.1755 23.7266L98.0237 20.7017L99.4472 19.144L100.126 22.6234L99.1443 23.6981" fill="#FDFBF8"/>
<path d="M108.48 115.3L106.962 118.057L106.465 115.66L108.48 115.3Z" fill="#FDFBF8"/>
<path d="M120.414 109.685C120.919 111.604 120.484 112.236 117.88 112.458L119.816 109.338C119.972 109.481 120.128 109.623 120.383 109.656" fill="#FDFBF8"/>
<path d="M90.4083 60.9089C89.2786 61.363 88.2993 61.8405 87.4442 62.0881C87.3342 62.0506 87.2334 61.9904 87.1477 61.912C87.0619 61.8336 86.9929 61.7386 86.9456 61.6325C86.9338 61.5227 86.9486 61.4115 86.9881 61.3084C87.0276 61.2053 87.0908 61.1134 87.1729 61.0397C87.8341 60.5528 88.5469 60.1399 89.2983 59.8087C89.4549 59.6374 90.0542 60.0138 90.3048 60.2714C90.5554 60.529 90.3927 60.8947 90.394 60.9245" fill="#FDFBF8"/>
<path d="M72.2359 67.6571C72.5467 66.5976 72.5755 65.9093 72.9741 65.4732C73.3727 65.037 73.924 65.3407 74.3996 65.2894C74.3824 65.9025 74.5635 66.6116 74.2869 67.102C74.0102 67.5925 73.3282 67.3689 72.2786 67.6103" fill="#FDFBF8"/>
<path d="M104.121 108.716C104.325 107.862 104.608 107.029 104.965 106.228C105.065 106.119 106.194 106.322 106.199 106.442C106.274 107.054 106.189 107.675 105.952 108.245C105.739 108.479 105.097 108.493 104.121 108.716Z" fill="#FDFBF8"/>
<path d="M115.51 110.891L116.263 110.692C118.574 110.917 116.989 112.213 117.004 113.228C115.63 112.887 114.821 112.49 115.51 110.891Z" fill="#FDFBF8"/>
<path d="M95.759 86.5216C95.9701 85.5711 95.9368 84.8258 96.254 84.5725C96.5712 84.3192 97.3501 84.374 97.9152 84.3187C97.9394 84.8553 98.1829 85.6211 97.9253 85.8717C97.6677 86.1222 96.7917 86.2361 95.759 86.5216Z" fill="#FDFBF8"/>
<path d="M109.709 26.1491C109.867 25.0068 109.756 24.1906 110.076 23.997C110.395 23.8034 111.25 23.8692 111.876 23.8411C111.879 24.2442 112.055 24.8339 111.883 24.991C111.2 25.4502 110.472 25.8381 109.709 26.1491Z" fill="#FDFBF8"/>
<path d="M71.247 77.8736C70.8229 76.0854 71.0381 75.2244 72.2462 75.1849C72.6039 75.1688 72.947 75.8254 73.3209 76.1671L71.247 77.8736Z" fill="#FDFBF8"/>
<path d="M93.2435 62.813L93.0867 62.9845C92.3855 63.0011 91.6688 63.0035 90.9533 63.0357L91.8511 60.0826C92.4427 61.2807 92.882 62.0824 93.2279 62.7987" fill="#FDFBF8"/>
<path d="M69.6969 52.7311L68.1451 54.4291C67.8628 54.0495 67.6241 53.6391 67.4332 53.2062C68.0062 52.7603 68.6122 52.3585 69.2461 52.0044C69.4798 52.218 69.7134 52.4317 69.8318 52.74" fill="#FDFBF8"/>
<path d="M107.023 18.2356L104.393 17.5476L106.051 15.2027L107.023 18.2356Z" fill="#FDFBF8"/>
<path d="M98.8277 45.8473C99.0076 44.8683 98.9275 44.0802 99.2603 43.8412C99.5931 43.6022 100.346 43.7478 100.928 43.7366C100.934 44.1993 101.115 44.9082 100.886 45.1276C100.242 45.4736 99.5473 45.7162 98.8277 45.8473Z" fill="#FDFBF8"/>
<path d="M77.0319 55.0586C79.5291 55.4541 79.5006 55.4853 78.0711 58.2381C77.6544 56.9425 77.3627 56.1042 77.0319 55.0586Z" fill="#FDFBF8"/>
<path d="M84.7892 84.0744C86.579 84.6809 85.4622 86.0908 85.7748 87.0625C85.5092 87.1342 85.0871 87.3769 84.9781 87.2772C84.684 87.0379 84.4965 86.6921 84.4567 86.315C84.5056 85.5604 84.617 84.8108 84.7892 84.0744Z" fill="#FDFBF8"/>
<path d="M91.8991 45.5785C92.61 45.1134 93.3181 44.5887 94.0473 44.1974C94.1896 44.0416 94.7253 44.3313 94.8994 44.5476C95.0734 44.7638 94.8863 45.2498 94.7244 45.3019C93.9186 45.6518 93.0491 45.9152 92.2251 46.1912C92.0694 46.0489 92.0135 45.7974 91.8991 45.5785Z" fill="#FDFBF8"/>
<path d="M21.206 129.57C21.7886 129.644 22.3612 129.784 22.9127 129.986C23.0061 130.071 23.0396 130.817 22.8274 131.08C22.6152 131.344 21.8961 131.63 21.787 131.53C21.4255 131.07 21.1129 130.574 20.8541 130.049L21.2528 129.613" fill="#FDFBF8"/>
<path d="M34.645 91.6177L35.3141 90.8857C35.8018 91.1027 36.2752 91.3353 36.7629 91.5523L35.9107 92.8602L34.645 91.6177Z" fill="#FDFBF8"/>
<path d="M90.8144 75.2295C91.8033 75.9616 92.5146 76.4969 93.2725 77.0752C91.5382 78.0345 90.9035 77.5406 90.8144 75.2295Z" fill="#FDFBF8"/>
<path d="M90.8337 83.309L90.09 83.716L90.047 83.4192L90.835 83.3388L90.8337 83.309Z" fill="#FDFBF8"/>
<path d="M99.1758 23.7252L100.158 22.6505C101.17 23.5758 100.724 23.9393 99.7223 24.2532L99.2083 23.7835" fill="#FDFBF8"/>
<path d="M93.4173 69.7208L93.6684 69.6343L93.4967 69.8222L93.4173 69.7208Z" fill="#FDFBF8"/>
<path d="M58.8675 127.478C57.5336 128.413 56.8749 129.609 55.9152 130.504C55.7534 130.697 55.5538 130.855 55.3286 130.969C55.1034 131.082 54.8573 131.148 54.6056 131.162C54.3518 131.13 54.1078 131.044 53.8899 130.91C52.5885 130.219 51.271 129.21 51.027 127.763C50.9617 127.222 51.0153 126.673 51.1838 126.154C51.3524 125.636 51.6319 125.161 52.003 124.761C52.6564 124.011 53.499 123.449 54.443 123.135C54.762 123.075 55.0499 122.905 55.2563 122.655C55.3394 122.493 55.3662 122.309 55.3323 122.131C55.2984 121.952 55.2058 121.79 55.0693 121.671C54.7943 121.434 54.4729 121.256 54.1258 121.15C53.3124 120.866 52.5397 120.573 51.7508 120.28C51.6913 120.275 51.6339 120.257 51.5829 120.226C51.5319 120.195 51.4888 120.152 51.4572 120.101C51.4256 120.051 51.4063 119.994 51.4008 119.934C51.3953 119.875 51.4037 119.815 51.4255 119.759C51.7527 117.89 52.6774 116.178 54.0607 114.879C54.1996 114.725 54.3722 114.606 54.565 114.53C54.9016 114.454 55.2542 114.503 55.5573 114.668C56.5175 115.072 57.3578 115.716 57.9973 116.539C58.3064 116.945 58.6317 117.425 59.136 117.49C59.4089 117.484 59.6715 117.385 59.8801 117.209C60.0887 117.032 60.2309 116.79 60.2828 116.522C60.3642 115.983 60.3642 115.435 60.2828 114.896C60.2492 114.624 60.2714 114.348 60.3483 114.085C60.4253 113.822 60.5552 113.577 60.7301 113.366C61.3401 112.773 62.3568 113.009 63.1701 113.318C64.3562 113.718 65.4183 114.418 66.2527 115.351C66.4349 115.545 66.5367 115.801 66.5374 116.067C66.4886 116.294 66.3757 116.503 66.212 116.669L64.9433 118.198C64.8015 118.345 64.6957 118.523 64.6342 118.718C64.6079 118.898 64.6425 119.081 64.7324 119.239C64.8223 119.397 64.9624 119.52 65.1303 119.589C65.4639 119.729 65.8299 119.774 66.1876 119.719C67.2626 119.511 68.3489 119.367 69.441 119.288C70.5308 119.288 71.7347 119.914 71.9543 120.979C72.0152 121.346 72.0152 121.719 71.9543 122.086L71.7346 123.875C71.7168 124.247 71.6109 124.609 71.4256 124.932C71.2165 125.198 70.9335 125.396 70.6122 125.502C69.8636 125.806 69.0286 125.82 68.2698 125.542C67.9078 125.368 67.5357 125.216 67.1555 125.087C66.9629 125.025 66.7574 125.016 66.5601 125.061C66.3629 125.105 66.181 125.201 66.0331 125.339C65.8926 125.525 65.8166 125.752 65.8166 125.986C65.8166 126.219 65.8926 126.446 66.0331 126.632C66.3368 126.987 66.7035 127.282 67.1148 127.502C67.5789 127.797 68.0219 128.123 68.4406 128.478C68.7512 128.685 69.0127 128.958 69.2067 129.277C69.4006 129.596 69.5222 129.954 69.563 130.325C69.4803 130.966 69.1506 131.55 68.6439 131.951C66.7169 133.694 64.3168 134.826 61.7468 135.205C61.4896 135.28 61.2197 135.302 60.9538 135.268C60.6879 135.234 60.4318 135.146 60.2014 135.01C59.9782 134.762 59.8181 134.464 59.7346 134.141C59.651 133.818 59.6466 133.48 59.7216 133.155L59.9493 130.178C60.0134 129.666 59.9913 129.146 59.8842 128.641C59.7378 128.145 59.689 127.689 58.8838 127.551C58.9895 127.502 58.7862 127.551 58.8838 127.551" fill="white"/>
<path d="M64.3823 122.801C64.3823 117.563 56.2489 117.555 56.2489 122.801C56.2489 128.047 64.3823 128.039 64.3823 122.801Z" fill="#F8E8B7"/>
</svg>
