<svg width="258" height="366" viewBox="0 0 258 366" fill="none" xmlns="http://www.w3.org/2000/svg">
<path d="M323.984 142.549C324.718 144.643 325.392 146.292 325.859 147.997C326.505 150.232 326.669 152.578 326.341 154.881C326.119 156.238 326.034 157.615 326.089 158.989C326.237 161.707 326.124 164.432 325.751 167.128C325.419 169.707 325.488 172.35 325.371 174.966C325.324 175.893 325.171 176.879 325.228 177.768C325.129 179.54 325.43 181.311 326.111 182.951C326.917 184.815 327.096 186.89 326.621 188.865C326.392 190.024 326.286 191.187 326.128 192.379C326.062 192.975 325.949 193.565 325.789 194.143C324.829 197.375 323.87 200.606 322.785 203.896C322.565 204.499 322.231 205.054 321.799 205.529C320.819 206.615 319.749 207.605 318.812 208.609C318.317 209.083 317.885 209.618 317.528 210.202C316.205 212.749 314.473 215.062 312.401 217.048C311.931 217.486 311.53 217.992 311.213 218.551C309.954 220.3 308.87 222.168 307.978 224.13C307.419 225.367 306.425 226.355 305.186 226.907C303.509 227.829 301.851 228.792 300.134 229.67C296.618 231.446 293.276 233.578 289.583 235.019C288.985 235.258 288.41 235.552 287.866 235.898C285.304 237.379 282.559 238.52 279.703 239.294C279.33 239.422 278.936 239.474 278.543 239.446C277.277 239.409 276.011 239.49 274.761 239.688C271.555 239.967 268.709 241.391 265.587 241.992C264.257 242.355 262.892 242.569 261.515 242.628C258.949 242.562 256.386 242.831 253.89 243.429C250.932 243.972 247.931 244.249 244.923 244.254C243.694 244.312 242.459 244.575 241.291 244.655C239.39 244.765 237.499 244.886 235.508 244.901C232.597 244.722 229.73 244.093 227.011 243.037C226.383 242.751 225.73 242.521 225.061 242.352C221.569 241.818 218.463 240.078 215.096 239.146C214.063 238.858 213.154 238.172 212.133 237.812C210.356 237.204 208.557 236.637 206.744 236.203C203.801 235.446 201.15 233.829 199.131 231.559C197.24 229.402 194.82 227.775 192.108 226.839C189.315 225.831 186.735 224.308 184.502 222.35C181.521 219.85 178.722 217.119 175.858 214.468C173.799 212.562 171.75 210.647 169.732 208.701C168.307 207.34 166.914 205.928 165.552 204.506C165.069 204.017 164.629 203.486 164.236 202.921C162.595 200.495 160.718 198.236 158.633 196.179C157.298 194.752 156.08 193.22 154.99 191.598C153.582 189.639 152.227 187.63 150.934 185.581C147.852 180.563 145.744 175.008 144.722 169.208L144.705 169.063C144.791 165.373 142.876 162.389 141.252 159.31C140.117 157.173 139.14 154.948 138.036 152.801C137.695 152.1 137.342 151.451 136.962 150.708C136.677 150.191 136.427 149.657 136.213 149.108C134.076 143.105 131.991 137.052 129.7 130.994C128.896 128.825 127.758 126.812 126.735 124.709C126.379 124.063 126.131 123.362 126.001 122.635C125.785 120.473 125.702 118.305 125.527 116.144C125.405 114.676 125.189 113.215 125.046 111.747C124.855 109.781 124.653 107.826 124.524 105.863C124.549 104.488 124.319 103.121 123.846 101.831C123.544 100.789 123.377 99.7132 123.35 98.6292L122.851 94.8294C122.766 94.1875 122.65 93.5549 122.627 92.9147C122.52 89.4665 122.455 86.0195 122.358 82.5614C122.345 80.937 122.768 79.3388 123.585 77.9345C124.87 75.8904 126.422 74.0272 128.2 72.3943C128.584 72.0086 129.033 71.6934 129.527 71.463C131.701 70.3057 133.709 68.8613 135.499 67.1686C136.641 66.241 137.833 65.3766 139.07 64.5793C141.449 62.9739 144.041 61.7084 146.77 60.8196C152.256 59.0487 157.791 57.3927 163.307 55.6948C163.54 55.6177 163.78 55.5659 164.023 55.5402C167.799 55.0349 171.633 55.1872 175.356 55.9902C176.608 56.334 177.909 56.4621 179.203 56.3692C180.579 56.3704 181.953 56.4893 183.308 56.7246L192.925 57.6719C195.826 57.8501 198.737 57.723 201.611 57.2928C203.135 57.1803 204.665 57.1555 206.193 57.2185C206.636 57.2591 207.06 57.4211 207.417 57.6869C208.282 58.2707 209.31 58.564 210.353 58.5243C213.66 58.4735 216.96 58.8493 220.171 59.6424C220.41 59.7072 220.654 59.7523 220.9 59.777C223.725 60.178 226.532 60.4754 229.374 61.0008C230.805 61.1001 232.198 61.5098 233.455 62.2013C235.294 63.5127 237.489 63.9472 239.319 65.248C241.109 66.4894 243.128 67.3642 245.258 67.8222C248.764 68.4008 252.198 69.3538 255.501 70.6648C256.694 71.1319 257.737 71.9142 258.52 72.9281C259.03 73.5208 259.645 74.0141 260.335 74.3831C261.144 74.9428 262.007 75.4318 262.877 75.9932C263.748 76.5546 264.151 76.917 264.852 77.2775C268.519 79.2294 272.241 81.0694 275.866 83.0819C278.034 84.2597 280.35 85.1418 282.753 85.7042C285.14 86.4968 287.299 87.858 289.044 89.6707C289.951 90.8251 291.024 91.8395 292.227 92.6814C293.067 93.3591 293.811 94.1474 294.439 95.0247C295.15 95.7775 295.723 96.6398 296.37 97.4527C298.101 99.6686 299.822 101.874 301.563 104.08C302.42 105.157 303.339 106.194 304.173 107.291C305.306 108.788 306.377 110.304 307.477 111.831C307.567 112.003 307.669 112.168 307.783 112.325C310.207 115.315 312.095 118.702 313.364 122.336C314.215 124.279 315.321 126.101 316.653 127.753C317.962 129.543 319.095 131.454 320.037 133.462C321.566 136.61 322.927 139.837 324.177 142.647L323.984 142.549ZM319.45 140.933C317.773 135.972 315.628 131.183 313.044 126.628C312.068 124.969 311.215 123.242 310.491 121.459C309.655 118.979 308.36 116.677 306.674 114.676C306.195 114.049 305.753 113.395 305.348 112.719C304.884 111.958 304.305 111.273 303.632 110.689C301.853 109.279 300.313 107.591 299.073 105.689C297.871 104.077 296.617 102.493 295.289 100.98C294.098 99.7183 292.916 98.4672 291.65 97.2962C291.115 96.7149 290.538 96.1742 289.923 95.6786C287.248 93.6521 284.509 91.7063 281.866 89.6292C280.478 88.4436 278.837 87.5918 277.069 87.1393C276.393 86.9802 275.742 86.7326 275.131 86.4028C271.727 84.6235 268.292 82.833 264.963 80.9425C263.207 79.9533 261.701 78.5278 259.899 77.7023C255.836 75.5224 251.639 73.6893 247.487 71.7337C246.475 71.2192 245.401 70.8381 244.291 70.5999C241.475 70.1029 238.728 69.2689 236.111 68.1159C235.384 67.8262 234.723 67.3932 234.167 66.8428C233.576 66.2491 232.802 65.871 231.97 65.7687C229.693 65.3318 227.415 64.9156 225.172 64.3663C219.975 62.9597 214.661 62.0299 209.295 61.5884C208.663 61.5093 208.038 61.3738 207.43 61.1839C207.059 61.0448 206.675 60.9439 206.283 60.8827C204.026 60.828 201.76 60.7216 199.489 60.78C197.218 60.8384 194.486 61.1516 191.944 61.2848C190.22 61.3486 188.499 61.3093 186.768 61.2389C185.329 61.2254 183.892 61.1219 182.465 60.9293C180.802 60.6545 179.18 60.0199 177.556 59.8494C175.51 59.6151 173.433 59.7307 171.366 59.5371C168.858 59.2882 166.327 59.4134 163.856 59.9087C161.678 60.3205 159.464 60.5662 157.314 61.0922C154.5 61.7435 151.802 62.6458 149.066 63.4644C148.457 63.6677 147.866 63.9233 147.301 64.2284C145.051 65.4564 142.808 66.6984 140.571 67.9543C139.413 68.5968 138.288 69.2975 137.2 70.0541C135.547 71.234 133.953 72.4775 132.39 73.7528C131.657 74.3237 131.009 74.9962 130.466 75.75C129.358 77.3168 128.403 78.9809 127.335 80.5902C125.773 83.0593 124.949 85.924 124.962 88.8459C124.89 90.0802 124.907 91.3181 125.01 92.5502C125.307 95.1374 125.614 97.735 126.139 100.288C126.805 103.669 127.748 107.09 128.568 110.486L129.997 116.376C130.247 117.384 130.476 118.391 130.673 119.407C130.708 120.291 130.86 121.166 131.125 122.009C132.232 124.329 132.915 126.829 133.14 129.391C133.498 131.525 134.038 133.625 134.754 135.667C135.743 137.985 136.442 140.417 136.835 142.906C136.925 143.342 137.083 143.761 137.305 144.147C138.439 146.665 139.323 149.28 140.687 151.702C141.905 153.841 142.85 156.117 144.056 158.287C145.339 160.677 146.471 163.145 147.443 165.677C147.53 165.896 147.553 166.154 147.629 166.383C147.931 167.62 148.298 168.839 148.731 170.036C149.976 172.99 151.326 175.907 152.624 178.832C153.797 181.435 154.98 184.047 156.164 186.64C156.291 186.901 156.459 187.164 156.606 187.405C157.741 189.202 158.802 191.048 159.989 192.794C161.719 195.758 163.884 198.446 166.413 200.766C167.232 201.468 167.905 202.326 168.392 203.289C168.71 203.947 169.143 204.543 169.673 205.048L180.866 215.375C181.941 216.366 183.095 217.482 184.231 218.495C187.234 221.375 190.839 223.553 194.785 224.874C196.337 225.392 197.762 226.234 198.963 227.346C199.708 227.986 200.315 228.777 200.965 229.466C202.862 231.428 205.227 232.874 207.838 233.666C209.81 234.114 211.739 234.735 213.602 235.524C215.754 236.508 217.961 237.371 220.211 238.107C221.081 238.416 221.974 238.652 222.883 238.813C225.005 238.941 227.086 239.448 229.029 240.31C229.287 240.448 229.575 240.52 229.868 240.52C231.589 240.601 233.319 240.671 235.051 240.7C239.329 240.813 243.618 240.854 247.894 241.008C250.851 241.044 253.805 240.818 256.723 240.334C257.254 240.226 257.794 240.172 258.336 240.174C261.876 240.482 265.172 239.195 268.505 238.435C272.388 237.557 276.152 236.169 279.96 235.021C282.395 234.417 284.779 233.627 287.093 232.658C288.767 231.839 290.402 230.937 292.017 230.014C292.97 229.516 293.933 229.028 294.867 228.487C296.524 227.524 298.172 226.55 299.78 225.514C300.641 224.961 301.384 224.24 302.216 223.634C303.742 222.725 305.049 221.492 306.044 220.021C306.502 219.087 307.09 218.222 307.789 217.451C309.663 215.433 311.422 213.311 313.057 211.095C313.847 210.148 314.648 209.212 315.479 208.307C316.341 207.58 317.119 206.758 317.798 205.857C318.486 204.607 318.987 203.263 319.285 201.867C319.708 199.785 320.444 197.778 321.467 195.916C321.805 195.315 322.079 194.68 322.285 194.021C322.968 191.394 323.183 188.666 322.919 185.963C322.721 181.739 322.337 177.509 322.304 173.29C322.263 169.699 322.594 166.098 322.811 162.505C323.1 159.607 322.979 156.684 322.452 153.82C322.131 152.439 321.801 151.006 321.417 149.664C320.958 146.792 320.217 143.972 319.204 141.246" fill="#FDFBF8"/>
<path d="M147.928 160.668C147.343 158.774 146.544 156.079 145.651 153.413C144.447 150.019 143.066 146.691 141.513 143.443C140.542 141.334 139.87 139.1 139.517 136.805C139.05 133.483 138.299 130.207 137.272 127.014C136.584 124.757 135.643 122.584 134.467 120.538C133.5 118.528 132.962 116.338 132.889 114.108C132.805 113.425 132.659 112.76 132.555 112.076C132.398 111.496 132.318 110.897 132.318 110.295C132.446 107.93 131.983 105.57 130.968 103.428C130.165 101.624 129.484 99.7679 128.931 97.8721C128.336 95.5168 128.329 93.0511 128.911 90.6925C129.386 88.8805 129.882 87.0691 130.172 85.2311C130.744 82.1521 132.366 79.3666 134.762 77.3488C136.402 75.9299 138.203 74.7079 140.127 73.7076C140.359 73.6216 140.578 73.5029 140.777 73.355C142.813 71.0515 145.839 70.2206 148.295 68.7441C148.742 68.5305 149.202 68.344 149.672 68.1856C151.77 67.3486 153.907 66.554 155.955 65.6228C158.418 64.7415 160.962 64.1064 163.55 63.7269C168.182 62.6225 172.855 62.9634 177.549 62.9232C177.697 62.9205 177.845 62.9283 177.992 62.9462C182.256 63.4266 186.519 63.8999 190.783 64.3665C191.167 64.4614 191.566 64.48 191.957 64.4211C194.188 63.9696 196.504 64.2015 198.601 65.0868C203.084 66.2843 207.653 67.1331 212.267 67.6256C214.471 67.8247 216.686 67.8644 218.896 67.7443C219.546 67.7527 220.184 67.7917 220.872 67.8837C221.551 68.0123 222.239 68.0804 222.929 68.0873C225.203 67.9372 227.478 68.3719 229.536 69.3501C231.901 70.3259 234.321 71.1694 236.729 72.0639C238.709 72.8017 240.743 73.448 242.679 74.2876C245.355 75.2758 247.913 76.5604 250.304 78.1173C253.148 80.0893 256.266 81.6319 259.559 82.6953C260.018 82.8632 260.534 82.878 261.004 83.0153C262.158 83.2779 263.286 83.6418 264.376 84.1027C266.58 85.0866 268.848 85.9203 271.164 86.5982C272.553 87.2217 273.87 87.9963 275.089 88.9083C275.839 89.3631 276.546 89.8992 277.284 90.4052C277.568 90.599 277.873 90.7522 278.145 90.9767C280.581 93.0478 283.039 95.099 285.443 97.2208C286.439 98.1056 287.265 99.1505 288.176 100.115C288.78 100.759 289.432 101.357 290.125 101.904C290.942 102.536 291.824 103.088 292.695 103.649C294.486 104.8 296.013 106.317 297.177 108.1C297.367 108.503 297.637 108.862 297.972 109.154C299.357 110.099 300.574 111.267 301.575 112.611C303.027 114.148 304.266 115.886 305.548 117.562C306.771 119.101 307.906 120.708 308.948 122.374C310.55 124.927 311.727 127.723 312.433 130.654C312.978 133.207 313.617 135.752 314.308 138.268C315.598 142.926 316.575 147.665 317.231 152.453C317.622 154.991 318.113 157.635 318.514 160.184C318.944 162.619 318.977 165.107 318.611 167.552C318.279 169.996 318.389 172.48 318.937 174.884C319.508 177.983 319.612 181.15 319.244 184.28C319.21 185.413 319.243 186.547 319.342 187.676C319.346 188.319 319.279 188.96 319.143 189.589C319.033 190.126 318.848 190.645 318.593 191.13C316.661 194.819 316.475 199.146 314.481 202.812C313.696 204.295 313.277 205.954 312.594 207.482C311.561 209.835 310.135 211.995 308.377 213.869C306.386 216.008 304.683 218.218 302.553 220.168C300.577 221.961 298.319 223.416 295.869 224.473C293.028 225.712 290.323 227.243 287.491 228.492C285.6 229.335 283.681 230.084 281.699 230.852C279.53 231.656 277.332 232.408 275.085 233.086C274.158 233.399 273.174 233.546 272.228 233.777C271.933 233.811 271.644 233.893 271.376 234.021C269.21 235.444 266.64 235.504 264.239 236.126C262.638 236.554 261.028 236.611 259.412 236.853L251.807 238.016C247.715 238.696 243.537 238.673 239.452 237.949C237.078 237.517 234.712 237.077 232.352 236.631C232.01 236.583 231.676 236.487 231.36 236.345C228.641 234.781 225.429 234.565 222.61 233.256C222.144 233.074 221.653 232.962 221.154 232.925C218.911 232.585 216.72 231.957 214.638 231.057C212.005 230.073 209.361 229.1 206.673 228.249C203.134 227.126 199.813 225.404 196.856 223.159C193.731 220.819 190.4 218.769 186.903 217.035C186.588 216.888 186.282 216.721 185.989 216.534C182.76 214.531 179.806 212.116 177.202 209.35C175.416 207.246 173.111 205.632 171.611 203.258C170.822 201.997 170.033 200.737 169.181 199.536C167.862 197.693 166.565 195.83 165.13 194.077C163.359 191.766 161.928 189.214 160.882 186.497C159.28 182.676 157.521 178.922 155.626 175.237C154.511 173.261 153.267 171.361 151.901 169.549C150.135 166.825 148.756 163.87 147.801 160.767L147.928 160.668ZM307.682 134.798L307.746 134.738L306.487 130.472C306.026 128.148 305.18 125.917 303.985 123.871C302.727 122.051 301.47 120.23 300.202 118.419C298.933 116.609 297.743 114.965 296.597 113.2C295.562 111.235 294.134 109.505 292.401 108.117C292.128 107.903 291.889 107.649 291.69 107.365C289.988 105.43 287.905 103.867 285.572 102.774C283.383 101.617 281.433 100.056 279.825 98.173C278.641 96.8489 277.292 95.6833 275.809 94.7051C274.361 93.7661 272.956 92.7664 271.519 91.8174C270.847 91.3223 270.139 90.8779 269.402 90.4877C267.855 89.6129 266.163 89.0227 264.408 88.7452C263.965 88.695 263.535 88.5638 263.14 88.358C261.136 87.4029 259.121 86.4372 257.149 85.4315C254.821 84.2608 252.504 83.0388 250.166 81.8575C249.109 81.2286 247.999 80.6928 246.849 80.2561C244.017 79.3804 241.151 78.617 238.295 77.885C235.438 77.1529 232.916 76.6058 230.243 75.9615C228.839 75.673 227.455 75.299 226.097 74.8417C223.008 73.6522 219.764 72.9128 216.465 72.646C215.094 72.493 213.733 72.2575 212.39 71.9407C210.985 71.663 209.603 71.3034 208.21 70.9745C206.892 70.8146 205.599 70.4934 204.359 70.0179C202.671 69.1989 200.892 68.5833 199.059 68.184C196.312 67.5897 193.497 67.3733 190.691 67.5408C187.151 67.6349 183.628 68.1936 180.067 67.5444C175.828 66.7357 171.463 66.8776 167.286 67.9602C163.545 68.8828 159.741 69.525 155.905 69.8812C150.804 70.4255 146.615 72.9763 142.434 75.6202C142.274 75.7407 142.129 75.8783 141.999 76.0306C139.626 78.3355 137.54 80.9178 135.785 83.7218C135.502 84.1276 135.291 84.5784 135.159 85.055C134.686 87.125 134.173 89.1937 133.897 91.2796C133.62 93.3655 133.612 95.4179 133.553 97.4791C133.528 98.1224 133.607 98.7656 133.787 99.3837C134.886 103.118 136.058 106.845 137.126 110.589C138.072 113.906 139.205 117.188 138.949 120.719C138.939 121.165 139.006 121.611 139.148 122.034C140.154 125.797 141.128 129.569 142.228 133.304C143.399 137.435 144.962 141.445 146.896 145.28C147.55 146.546 147.963 147.961 148.692 149.178C150.069 151.693 151.033 154.413 151.544 157.234C152.312 160.452 153.506 163.552 155.095 166.454C156.492 169.145 158.178 171.845 159.741 174.52C161.263 177.166 162.543 179.944 163.566 182.82C163.825 183.518 164.031 184.226 164.31 184.925C165.179 187.234 166.432 189.38 168.016 191.272C168.734 192.206 169.375 193.197 169.932 194.236C170.834 195.989 171.832 197.691 172.921 199.335C174.957 202.065 177.172 204.645 179.397 207.257C180.22 208.239 181.126 209.148 182.104 209.975C185.004 212.27 188.129 214.265 191.432 215.927C191.697 216.059 191.983 216.15 192.247 216.281C193.408 216.809 194.579 217.328 195.75 217.867C197.307 218.603 198.874 219.329 200.398 220.136C203.324 221.685 206.196 223.325 209.123 224.853C210.379 225.539 211.695 226.108 213.055 226.555C217.39 227.897 221.804 228.983 226.084 230.458C229.397 231.431 232.807 232.037 236.253 232.267C239.234 232.621 242.204 232.665 245.239 232.907C245.631 232.932 246.023 232.937 246.415 232.92C248.046 232.885 249.666 232.839 251.297 232.824C255.083 232.778 258.916 233.652 262.659 232.986C264.607 232.671 266.6 232.573 268.511 232.133C270.961 231.585 273.333 230.869 275.759 230.083C280.667 228.718 285.283 226.467 289.38 223.441C289.701 223.209 290.034 222.994 290.378 222.799L294.311 220.189C294.938 219.72 295.609 219.314 296.316 218.978C299.596 217.768 302.501 215.718 304.739 213.032C306.087 211.338 307.55 209.637 308.795 207.94C310.334 205.874 311.402 203.497 311.925 200.975C312.148 199.42 312.555 197.898 313.138 196.44C313.723 195.126 314.297 193.823 314.809 192.497C315.261 191.403 315.625 190.275 315.897 189.124C316.648 184.959 316.86 180.715 316.528 176.496C316.352 173.294 316.29 170.105 316.433 166.901C316.839 161.915 316.116 156.903 314.318 152.235C313.199 149.541 312.466 146.704 311.451 143.973C310.292 140.876 309.029 137.817 307.818 134.75" fill="#FDFBF8"/>
<path d="M275.543 155.533C276.707 158.258 277.412 161.157 277.627 164.112C277.826 167.935 277.584 171.713 275.179 174.986C274.941 175.357 274.772 175.768 274.68 176.199C274.147 178.159 273.307 180.022 272.19 181.718C272.113 181.778 272.042 181.845 271.978 181.918C270.591 185.034 268.575 187.831 266.058 190.133C265.617 190.6 265.149 191.041 264.658 191.454C263.159 192.649 261.66 193.844 260.131 195.006C257.783 196.91 254.982 198.172 252.001 198.671C248.738 199.145 245.474 199.68 242.219 200.226C241.348 200.386 240.513 200.713 239.651 200.925C239.099 201.101 238.528 201.209 237.95 201.248C235.815 201.258 233.619 201.206 231.456 201.102C229.791 200.947 228.154 200.57 226.589 199.982C223.42 198.757 220.333 197.332 217.346 195.714C215.936 194.994 214.667 194.024 213.602 192.852C210.069 189.119 207.241 184.778 205.255 180.038C204.559 178.409 203.728 176.828 202.886 175.277C201.897 173.181 201.422 170.879 201.501 168.563C201.533 168.176 201.534 167.786 201.503 167.398C201.13 165.55 201.245 163.637 201.839 161.848C203.01 157.715 204.077 153.599 205.208 149.423C205.411 148.278 205.681 147.146 206.017 146.032C206.484 144.956 207.104 143.952 207.857 143.053C208.777 141.903 209.847 140.913 210.794 139.919C210.985 139.698 211.198 139.497 211.43 139.318C213.947 137.885 216.524 136.515 219.001 135.019C219.724 134.617 220.339 134.036 221.063 133.613C222.344 132.846 223.624 132.078 224.92 131.476C225.977 130.96 227.141 130.642 228.218 130.147C231.176 129.051 234.302 128.474 237.457 128.443C239.912 128.251 242.376 128.208 244.836 128.315C246.907 128.452 248.934 128.972 250.816 129.849C253.467 130.916 256.195 131.809 258.791 132.987C260.303 133.808 261.765 134.718 263.169 135.713C265.338 137.033 266.502 139.243 268.099 141.084C271.711 145.335 273.45 150.47 275.503 155.47L275.543 155.533ZM252.312 193.605C252.973 193.293 253.597 192.906 254.171 192.452C256.937 189.775 260.045 187.475 263.413 185.611C263.857 185.323 264.245 184.957 264.558 184.53C265.399 183.316 266.304 182.147 267.269 181.029C269.153 179.197 270.416 176.82 270.879 174.233C271.359 171.817 271.619 169.363 271.657 166.901C271.634 165.276 271.799 163.654 272.147 162.067C272.797 159.716 272.488 157.203 271.286 155.08C269.919 152.618 268.812 150.022 267.981 147.331C267.266 145.221 266.042 143.319 264.417 141.793C262.088 139.654 259.608 137.687 256.995 135.906C255.841 135.049 254.493 134.489 253.071 134.277C251.232 134.008 249.376 133.634 247.555 133.468C244.228 132.969 240.837 133.102 237.559 133.861C234.84 134.595 232.056 135.061 229.247 135.252C227.722 135.384 226.226 135.748 224.811 136.331C222.339 137.301 219.952 138.512 217.518 139.587C216.073 140.239 214.817 141.246 213.865 142.514C213.019 143.593 212.122 144.661 211.185 145.665C210.005 146.871 209.077 148.299 208.455 149.867C206.939 153.805 204.85 157.561 204.406 161.87C204.145 163.136 204.018 164.425 204.027 165.717C204.291 168.014 204.793 170.288 205.274 172.561C205.414 173.189 205.666 173.786 206.018 174.325C206.967 175.755 208.021 177.127 209.001 178.547C209.506 179.273 209.969 180.019 210.443 180.775C210.916 181.532 211.168 182.096 211.664 182.791C213.478 185.488 215.479 188.055 217.652 190.472C219.063 191.894 220.721 193.047 222.546 193.873C224.03 194.637 225.678 195.067 227.228 195.689C229.488 196.519 231.888 196.896 234.293 196.8C236.549 196.582 238.785 196.188 240.98 195.621C242.661 195.277 244.268 194.983 245.916 194.711C248.009 194.358 250.101 194.068 252.236 193.737" fill="#FDFBF8"/>
<path d="M203.02 157.812C203.023 157.776 203.023 157.74 203.02 157.704L203.116 157.746L203.014 157.812" fill="#FFD560"/>
<path d="M241 174.542C241 175.327 241 176.112 240.964 176.892C240.934 177.239 240.88 177.583 240.802 177.923C240.711 177.978 240.626 178.045 240.55 178.12C240.486 178.213 240.433 178.314 240.395 178.42L240.7 178.546C240.526 179.289 240.383 180.039 240.155 180.77C239.771 182.011 239.352 183.24 238.914 184.462C238.686 185.116 238.398 185.751 238.123 186.387C238.058 186.492 237.974 186.586 237.877 186.662C237.829 186.71 237.733 186.752 237.733 186.8C237.673 187.52 237.164 187.999 236.834 188.598C236.633 188.973 236.381 189.318 236.085 189.623C235.705 189.973 235.294 190.286 234.856 190.559C233.121 191.666 231.385 192.765 229.647 193.856C228.731 194.511 227.687 194.964 226.584 195.186C226.178 195.271 225.778 195.379 225.385 195.51C225.253 195.288 225.127 195.21 224.869 195.408C224.783 195.449 224.689 195.471 224.593 195.471C224.498 195.471 224.404 195.449 224.318 195.408C224.036 195.282 224.036 195.408 224.042 195.606C223.798 195.547 223.549 195.509 223.299 195.492C223.023 195.516 222.748 195.558 222.478 195.618C221.414 195.736 220.337 195.661 219.301 195.396C218.659 195.276 218.012 195.168 217.382 195.006C216.753 194.845 215.98 194.605 215.284 194.365C214.361 194.049 213.446 193.712 212.539 193.352C211.515 192.922 210.57 192.327 209.74 191.59C208.462 190.45 207.334 189.153 206.383 187.729C206.083 187.316 205.783 186.884 205.52 186.458C204.654 185.074 204.056 183.539 203.757 181.933C203.462 180.749 203.24 179.548 203.092 178.336C202.924 176.937 202.987 175.519 203.278 174.14C203.511 173.175 203.877 172.246 204.177 171.305C204.531 170.214 204.902 169.135 205.274 168.05C205.394 167.702 205.538 167.367 205.663 167.025C205.873 166.479 206.089 165.94 206.263 165.394C206.611 164.375 207.324 163.596 207.839 162.649C208.213 161.89 208.762 161.231 209.44 160.725C209.517 160.767 209.6 160.799 209.686 160.821C209.799 160.83 209.914 160.83 210.027 160.821C210.027 160.713 209.991 160.605 209.967 160.497C209.954 160.448 209.938 160.4 209.919 160.353C210.387 160.042 210.837 159.688 211.328 159.412C212.485 158.765 213.642 158.123 214.829 157.542C215.391 157.318 215.967 157.133 216.555 156.99C217.309 156.7 218.077 156.45 218.857 156.241C219.959 155.959 221.109 155.924 222.226 156.139C223.269 156.391 224.3 156.667 225.331 156.954C226.662 157.326 228.022 157.644 229.311 158.153C230.413 158.588 231.481 159.105 232.506 159.7C233.345 160.181 234.157 160.707 234.94 161.276C236.594 162.433 238.147 163.716 239.106 165.544C239.397 166.147 239.618 166.78 239.765 167.433C240.023 168.44 240.221 169.465 240.443 170.478L240.185 170.634C240.311 170.819 240.185 171.233 240.58 171.191L240.976 174.254C240.852 174.242 240.728 174.242 240.604 174.254C240.604 174.254 240.556 174.446 240.604 174.476C240.69 174.523 240.783 174.554 240.88 174.566C240.916 174.572 240.952 174.572 240.988 174.566L241 174.542ZM236.582 185.991H237.235C237.235 185.613 237.056 185.583 236.798 185.667C236.972 185.254 237.158 184.846 237.307 184.426C237.703 183.317 238.057 182.191 238.506 181.094C238.946 179.909 239.247 178.678 239.405 177.425C239.507 176.724 239.543 176.01 239.609 175.303C239.795 175.303 240.101 175.411 240.077 174.979L239.555 175.033C239.554 174.871 239.544 174.709 239.525 174.548C239.31 173.085 239.13 171.611 238.86 170.154C238.716 169.357 238.404 168.589 238.219 167.798C238.124 167.176 237.877 166.587 237.499 166.084C236.9 165.406 236.384 164.693 235.755 164.07C235.228 163.573 234.658 163.124 234.052 162.727C233.195 162.128 232.314 161.528 231.427 160.995C230.984 160.731 230.524 160.498 230.048 160.299C229.449 160.029 228.849 159.76 228.25 159.544C227.651 159.328 226.997 159.19 226.374 159.023C225.499 158.789 224.629 158.549 223.754 158.339C222.879 158.129 221.956 157.74 221.033 157.86C220.11 157.979 219.277 158.117 218.407 158.303C217.97 158.393 217.574 158.663 217.143 158.765C215.87 159.052 214.654 159.551 213.546 160.239C212.575 160.839 211.616 161.438 210.645 162.038V161.552L210.507 161.504C210.434 161.656 210.37 161.812 210.315 161.972C210.289 162.1 210.273 162.23 210.267 162.361C209.764 163.105 209.278 163.854 208.75 164.579C208.229 165.319 207.81 166.125 207.504 166.977C207.354 167.367 207.228 167.762 207.09 168.176C206.539 169.774 205.985 171.353 205.43 172.911C204.99 174.036 204.767 175.234 204.77 176.442C204.73 177.007 204.72 177.573 204.74 178.138C204.854 179.061 205.094 179.973 205.25 180.896C205.471 182.22 205.875 183.507 206.449 184.72C206.865 185.536 207.354 186.313 207.911 187.04C208.643 188.09 209.472 189.07 210.387 189.965C211.232 190.811 212.223 191.498 213.312 191.991C214.121 192.321 214.961 192.591 215.782 192.872C216.894 193.339 218.06 193.665 219.253 193.844C220.05 193.927 220.835 194.101 221.65 194.173C222.202 194.221 222.765 194.173 223.317 194.173H224.516L224.408 194.617C224.619 194.609 224.825 194.55 225.007 194.443C225.223 194.323 225.199 194.203 225.007 194.107C225.487 193.975 225.978 193.856 226.458 193.706C227.02 193.578 227.567 193.389 228.088 193.142C229.347 192.417 230.564 191.608 231.799 190.834C232.476 190.403 233.159 189.971 233.831 189.534C234.246 189.329 234.623 189.055 234.946 188.724C235.661 187.91 236.242 186.988 236.666 185.991H236.582ZM222.31 195.054C222.474 195.146 222.644 195.227 222.819 195.294C222.909 195.294 223.023 195.246 223.191 195.198L223.005 195.096L222.843 195.018C223.221 194.839 223.227 194.737 222.951 194.521L222.31 195.054ZM226.176 194.767C226.378 194.755 226.578 194.727 226.775 194.683C226.871 194.683 226.943 194.557 227.027 194.491C226.925 194.443 226.823 194.341 226.727 194.347C226.537 194.374 226.35 194.423 226.17 194.491C226.144 194.504 226.122 194.524 226.105 194.548C226.088 194.572 226.078 194.6 226.074 194.629C226.074 194.677 226.14 194.725 226.17 194.767H226.176ZM240.598 172.797L240.269 172.198C240.173 172.264 240.005 172.336 240.005 172.402C240.005 172.69 240.209 172.755 240.604 172.785L240.598 172.797ZM240.334 173.583V173.361L239.891 173.295C239.891 173.433 239.891 173.571 239.891 173.709L240.34 173.583H240.334ZM220.763 195.282C220.763 195.318 220.763 195.36 220.763 195.396C220.763 195.432 221.021 195.312 221.015 195.288C220.981 195.111 220.933 194.936 220.871 194.767L220.655 194.821L220.811 195.222L220.739 195.282H220.763ZM207.072 165.311C206.928 165.43 206.808 165.484 206.766 165.574C206.724 165.664 206.844 165.808 206.862 165.802C206.979 165.788 207.09 165.74 207.18 165.664C207.18 165.664 207.126 165.49 207.072 165.311ZM223.586 194.641L223.407 194.563C223.365 194.737 223.317 194.904 223.281 195.072L223.425 195.12C223.484 194.964 223.538 194.803 223.586 194.641ZM240.233 176.112L240.706 176.412C240.442 175.884 240.442 175.884 240.233 176.112ZM217.454 194.815L217.55 194.934L217.934 194.665C217.886 194.605 217.832 194.545 217.784 194.479L217.454 194.815Z" fill="#F8BB46"/>
<path d="M210.609 162.049C211.58 161.45 212.539 160.85 213.51 160.251C214.618 159.562 215.834 159.064 217.106 158.776C217.538 158.675 217.94 158.405 218.371 158.315C219.24 158.129 220.115 157.979 220.997 157.871C221.878 157.763 222.795 158.141 223.718 158.351C224.641 158.561 225.462 158.806 226.338 159.034C226.937 159.202 227.602 159.346 228.214 159.556C228.825 159.765 229.413 160.041 230.012 160.311C230.485 160.515 230.946 160.747 231.391 161.006C232.278 161.558 233.189 162.139 234.016 162.745C234.622 163.139 235.192 163.587 235.719 164.081C236.318 164.681 236.888 165.418 237.463 166.095C237.841 166.601 238.088 167.192 238.182 167.816C238.368 168.601 238.68 169.368 238.824 170.166C239.094 171.622 239.273 173.097 239.489 174.559C239.508 174.721 239.518 174.883 239.519 175.045L239.573 175.315C239.507 176.022 239.471 176.735 239.369 177.437C239.211 178.69 238.909 179.921 238.47 181.105C238.051 182.202 237.697 183.329 237.271 184.438C237.121 184.864 236.936 185.265 236.762 185.679L236.546 185.997C236.121 186.992 235.542 187.914 234.832 188.73C234.505 189.06 234.127 189.333 233.711 189.539C233.039 189.977 232.356 190.408 231.679 190.84C230.444 191.613 229.227 192.423 227.968 193.148C227.447 193.395 226.9 193.584 226.338 193.711C225.858 193.861 225.373 193.981 224.887 194.113H224.821L224.449 194.197H223.251C222.699 194.197 222.136 194.263 221.584 194.197C220.787 194.125 220.002 193.951 219.186 193.867C217.994 193.689 216.828 193.363 215.716 192.896C214.895 192.602 214.055 192.345 213.246 192.015C212.157 191.521 211.166 190.835 210.321 189.989C209.403 189.096 208.574 188.116 207.845 187.064C206.439 185.282 205.524 183.164 205.19 180.919C205.034 179.996 204.794 179.085 204.68 178.162C204.66 177.598 204.67 177.034 204.71 176.472C204.706 175.262 204.93 174.062 205.37 172.935C205.929 171.357 206.482 169.778 207.03 168.199C207.168 167.81 207.294 167.414 207.444 167.001C207.749 166.149 208.168 165.342 208.69 164.603C209.218 163.878 209.703 163.128 210.207 162.385L210.597 162.061L210.609 162.049ZM235.071 181.243C235.443 180.11 235.713 179.313 235.971 178.51C236.309 177.326 236.423 176.09 236.306 174.865C236.216 173.891 236.054 172.926 235.821 171.976C235.677 171.173 235.438 170.39 235.107 169.644C234.338 168.084 233.326 166.656 232.11 165.412C231.508 164.812 230.836 164.286 230.108 163.848C229.365 163.455 228.591 163.124 227.794 162.859C227.063 162.557 226.314 162.299 225.552 162.085C224.725 161.838 223.873 161.683 223.011 161.624C221.56 161.588 220.074 161.408 218.659 161.953C218.286 162.065 217.921 162.203 217.568 162.367C216.201 163.134 214.847 163.92 213.498 164.711C212.94 164.972 212.423 165.313 211.963 165.724C211.094 166.695 210.392 167.803 209.883 169.003C209.602 169.662 209.362 170.339 209.116 171.017C208.828 171.796 208.516 172.575 208.295 173.367C207.846 174.793 207.683 176.295 207.815 177.784C207.953 179.169 208.193 180.542 208.415 181.915C208.707 183.682 209.661 185.272 211.082 186.362C212.275 187.396 213.585 188.287 214.984 189.018C215.878 189.443 216.783 189.827 217.73 190.163C218.551 190.456 219.408 190.666 220.247 190.906C220.717 191.08 221.203 191.207 221.698 191.284C222.458 191.341 223.221 191.317 223.976 191.212C224.676 191.059 225.365 190.859 226.038 190.612C226.563 190.495 227.078 190.337 227.579 190.139C228.463 189.722 229.324 189.256 230.156 188.742C230.789 188.383 231.36 187.923 231.846 187.381C232.794 186.146 233.572 184.789 234.16 183.347C234.508 182.538 234.844 181.723 235.053 181.231" fill="#F8E8B7"/>
<path d="M235.083 181.243C234.873 181.734 234.538 182.55 234.19 183.359C233.602 184.801 232.824 186.157 231.876 187.393C231.39 187.935 230.819 188.395 230.186 188.754C229.354 189.267 228.493 189.734 227.608 190.15C227.108 190.349 226.593 190.507 226.068 190.624C225.395 190.87 224.706 191.071 224.006 191.223C223.251 191.328 222.488 191.353 221.728 191.295C221.233 191.218 220.747 191.092 220.277 190.918C219.438 190.678 218.581 190.468 217.76 190.174C216.83 189.839 215.907 189.455 215.014 189.029C213.614 188.299 212.305 187.408 211.112 186.374C209.69 185.284 208.737 183.694 208.444 181.926C208.223 180.554 207.983 179.181 207.845 177.796C207.713 176.306 207.876 174.805 208.325 173.378C208.564 172.587 208.858 171.808 209.146 171.029C209.392 170.351 209.631 169.674 209.913 169.014C210.421 167.815 211.124 166.707 211.993 165.736C212.452 165.325 212.969 164.983 213.528 164.722C214.876 163.931 216.231 163.146 217.598 162.379C217.951 162.215 218.316 162.077 218.689 161.965C220.103 161.42 221.59 161.6 223.041 161.635C223.903 161.692 224.755 161.846 225.582 162.097C226.344 162.311 227.093 162.569 227.824 162.87C228.621 163.136 229.395 163.467 230.138 163.859C230.866 164.298 231.538 164.823 232.14 165.424C233.356 166.667 234.368 168.096 235.137 169.656C235.467 170.402 235.707 171.185 235.85 171.988C236.083 172.937 236.246 173.903 236.336 174.877C236.452 176.102 236.338 177.338 236 178.521C235.743 179.325 235.473 180.122 235.101 181.255L235.083 181.243ZM218.173 176.106C217.927 176.004 217.688 175.896 217.436 175.8C217.341 175.769 217.242 175.751 217.142 175.746C217.037 175.728 216.928 175.738 216.828 175.775C216.728 175.813 216.64 175.876 216.572 175.96C216.505 176.043 216.461 176.142 216.446 176.248C216.43 176.354 216.443 176.462 216.483 176.561C216.557 176.803 216.709 177.014 216.914 177.161C217.502 177.395 218.102 177.596 218.713 177.76C218.778 177.762 218.842 177.749 218.902 177.722C218.961 177.695 219.013 177.655 219.054 177.604C219.138 177.502 219.195 177.381 219.222 177.252C219.248 177.123 219.243 176.989 219.207 176.862C219.17 176.736 219.103 176.62 219.012 176.524C218.921 176.429 218.808 176.358 218.683 176.316L218.161 176.094L218.173 176.106ZM222.309 180.889C222.771 181.069 223.065 180.889 223.041 180.422C223.031 180.133 222.991 179.845 222.921 179.564C222.865 179.083 222.627 178.641 222.255 178.33C221.932 178.12 221.656 178.21 221.56 178.563C221.473 178.941 221.479 179.334 221.577 179.709C221.675 180.083 221.863 180.429 222.123 180.715C222.179 180.78 222.241 180.838 222.309 180.889ZM222.969 174.769H223.041C223.137 174.295 223.268 173.822 223.322 173.342C223.327 173.244 223.308 173.147 223.266 173.058C223.224 172.969 223.161 172.892 223.083 172.833C222.985 172.822 222.886 172.833 222.793 172.867C222.701 172.9 222.617 172.954 222.549 173.025C222.046 173.657 221.736 174.421 221.656 175.225C221.658 175.266 221.67 175.306 221.691 175.341C221.712 175.377 221.741 175.406 221.776 175.428C221.872 175.488 221.981 175.525 222.095 175.536C222.208 175.546 222.322 175.53 222.428 175.489C222.534 175.447 222.629 175.382 222.705 175.298C222.781 175.213 222.836 175.112 222.867 175.003L222.969 174.757" fill="white"/>
<path d="M224.018 195.624C224.018 195.432 224.018 195.3 224.294 195.426C224.379 195.47 224.474 195.493 224.57 195.493C224.665 195.493 224.76 195.47 224.845 195.426C225.103 195.228 225.229 195.306 225.361 195.534L224.018 195.642" fill="#FFD560"/>
<path d="M240.574 171.167C240.155 171.167 240.304 170.795 240.178 170.609C240.268 170.562 240.352 170.508 240.436 170.454C240.484 170.693 240.526 170.927 240.574 171.167Z" fill="#FFD560"/>
<path d="M209.913 160.335C209.932 160.382 209.948 160.43 209.961 160.479C209.961 160.587 210.003 160.695 210.021 160.803C209.908 160.812 209.793 160.812 209.68 160.803C209.594 160.781 209.511 160.749 209.434 160.707C209.596 160.587 209.758 160.467 209.913 160.341" fill="#FFD560"/>
<path d="M240.67 178.546L240.364 178.42C240.403 178.314 240.455 178.213 240.52 178.12C240.596 178.047 240.681 177.982 240.772 177.928C240.772 178.132 240.706 178.342 240.67 178.528" fill="#FFD560"/>
<path d="M241 174.541C240.964 174.547 240.928 174.547 240.892 174.541C240.795 174.53 240.702 174.499 240.616 174.452C240.58 174.452 240.616 174.236 240.616 174.23C240.74 174.218 240.864 174.218 240.988 174.23V174.541" fill="#FFD560"/>
<path d="M222.208 195.03L222.849 194.497C223.125 194.718 223.119 194.814 222.741 194.994L222.903 195.078L223.089 195.174C222.921 195.222 222.807 195.294 222.717 195.27C222.541 195.205 222.37 195.125 222.208 195.03Z" fill="#FFD560"/>
<path d="M226.074 194.749C226.074 194.701 225.984 194.653 225.984 194.605C225.986 194.576 225.995 194.548 226.011 194.524C226.027 194.5 226.048 194.48 226.074 194.467C226.256 194.398 226.445 194.35 226.637 194.323C226.727 194.323 226.829 194.419 226.931 194.467C226.847 194.533 226.775 194.635 226.685 194.659C226.488 194.702 226.288 194.732 226.086 194.749" fill="#FFD560"/>
<path d="M224.815 194.065H224.881C225.097 194.161 225.121 194.281 224.881 194.401C224.698 194.508 224.492 194.567 224.281 194.575L224.389 194.131C224.533 194.197 224.683 194.275 224.761 194.047" fill="#FFD560"/>
<path d="M240.502 172.773C240.113 172.773 239.903 172.677 239.903 172.389C239.903 172.323 240.071 172.251 240.167 172.186L240.496 172.785" fill="#FFD560"/>
<path d="M240.233 173.57L239.783 173.696C239.783 173.558 239.783 173.421 239.783 173.283L240.227 173.349V173.57" fill="#FFD560"/>
<path d="M210.609 162.05L210.219 162.373C210.225 162.242 210.241 162.112 210.267 161.984C210.322 161.824 210.386 161.668 210.459 161.516L210.597 161.564V162.05" fill="#FFD560"/>
<path d="M220.655 195.27L220.727 195.21L220.571 194.809L220.787 194.755C220.849 194.924 220.897 195.099 220.931 195.276C220.931 195.276 220.769 195.348 220.679 195.384C220.589 195.42 220.679 195.306 220.679 195.27" fill="#FFD560"/>
<path d="M236.564 185.967L236.78 185.649C237.044 185.565 237.223 185.595 237.217 185.973H236.564" fill="#FFD560"/>
<path d="M206.988 165.28C207.042 165.454 207.126 165.598 207.096 165.628C207.007 165.703 206.899 165.751 206.784 165.766C206.784 165.766 206.658 165.592 206.682 165.538C206.706 165.484 206.844 165.394 206.988 165.28Z" fill="#FFD560"/>
<path d="M239.561 175.285L239.507 175.015L240.029 174.961C240.029 175.393 239.747 175.255 239.561 175.285Z" fill="#FFD560"/>
<path d="M223.503 194.605C223.455 194.766 223.401 194.928 223.341 195.084L223.197 195.036C223.233 194.868 223.281 194.7 223.323 194.527L223.503 194.605Z" fill="#FFD560"/>
<path d="M240.149 176.076C240.358 175.848 240.358 175.848 240.622 176.376L240.149 176.076Z" fill="#FFD560"/>
<path d="M217.34 194.779L217.67 194.443C217.718 194.509 217.772 194.569 217.82 194.629L217.436 194.898L217.34 194.779Z" fill="#FFD560"/>
<path d="M224.815 194.065C224.737 194.293 224.587 194.215 224.443 194.149L224.815 194.065Z" fill="#FFD560"/>
<path d="M218.155 176.094L218.677 176.316C218.802 176.358 218.915 176.43 219.006 176.525C219.098 176.62 219.164 176.736 219.201 176.863C219.237 176.99 219.243 177.123 219.216 177.253C219.19 177.382 219.132 177.503 219.049 177.605C219.007 177.655 218.955 177.695 218.896 177.722C218.837 177.749 218.772 177.762 218.707 177.761C218.096 177.596 217.496 177.396 216.909 177.161C216.703 177.014 216.551 176.804 216.477 176.562C216.437 176.463 216.424 176.355 216.44 176.249C216.456 176.143 216.499 176.043 216.567 175.96C216.634 175.877 216.722 175.813 216.823 175.776C216.923 175.738 217.031 175.728 217.136 175.747C217.236 175.752 217.335 175.77 217.43 175.801C217.682 175.896 217.922 176.004 218.167 176.106" fill="#F8BB46"/>
<path d="M222.304 180.89C222.235 180.839 222.173 180.78 222.118 180.716C221.857 180.429 221.669 180.084 221.571 179.709C221.473 179.334 221.467 178.941 221.554 178.564C221.644 178.21 221.926 178.12 222.25 178.33C222.621 178.641 222.859 179.083 222.915 179.565C222.985 179.845 223.025 180.133 223.035 180.422C223.035 180.872 222.765 181.069 222.304 180.89Z" fill="#F8BB46"/>
<path d="M222.963 174.77L222.861 175.016C222.831 175.125 222.775 175.226 222.699 175.31C222.623 175.395 222.528 175.46 222.422 175.502C222.316 175.543 222.202 175.559 222.089 175.548C221.976 175.538 221.867 175.501 221.77 175.441C221.735 175.419 221.706 175.389 221.686 175.354C221.665 175.318 221.653 175.278 221.65 175.237C221.73 174.433 222.04 173.669 222.543 173.037C222.612 172.967 222.695 172.913 222.788 172.879C222.88 172.846 222.979 172.835 223.077 172.846C223.156 172.904 223.219 172.982 223.26 173.07C223.302 173.159 223.322 173.257 223.317 173.355C223.263 173.835 223.131 174.308 223.035 174.782H222.963" fill="#F8BB46"/>
<path d="M123.701 449.831C120.578 445.4 117.878 440.653 115.725 435.673C113.307 430.087 111.625 423.573 113.489 417.563C115.107 412.349 119.092 407.798 124.656 406.877C129.352 406.101 133.698 408.278 137.186 411.236C140.324 413.899 142.309 416.082 144.867 419.301C145.296 419.619 148.11 422.07 148.545 422.368C152.836 425.33 155.628 426.792 160.376 428.96C169.881 433.295 180.122 435.98 190.513 437.096C200.789 438.198 211.27 437.746 221.43 435.725C220.222 435.649 219.013 435.553 217.802 435.437C204.029 434.126 196.223 430.433 182.365 424.891C180.47 424.131 175.069 421.557 173.312 420.529C168.877 418.255 165.751 416.534 162.058 414.444C160.359 413.482 158.68 412.482 157.01 411.476C155.5 410.568 153.57 409.737 152.475 408.309C151.598 407.169 150.766 406.55 151.696 405.372C151.834 405.201 151.981 405.051 152.139 404.914C152.062 404.496 152.078 404.053 152.192 403.638C152.41 402.884 152.901 402.382 153.522 402.063C153.328 401.486 153.611 400.869 153.578 400.159C153.541 399.355 157.988 399.551 161.122 399.795C163.839 400.004 168.436 399.395 171.727 398.932C174.708 398.935 182.021 397.092 185.947 395.883C185.932 395.881 186.695 395.736 186.68 395.734C181.434 395.691 171.3 393.311 166.198 391.982C164.939 391.654 163.689 391.257 162.486 390.768C161.528 390.378 160.339 389.961 159.719 389.079C159.115 388.218 159.214 387.134 159.936 386.375C160.013 386.295 160.091 386.226 160.173 386.162C159.73 385.523 159.528 384.73 159.725 383.924C159.942 383.025 160.58 382.346 161.373 381.99C160.643 380.825 160.558 379.407 161.987 378.387C162.736 377.857 163.717 377.875 164.373 378.368C171.782 378.748 179.532 379.076 186.502 376.099C192.541 373.516 197.342 368.521 197.971 361.776C198.563 355.428 195.977 349.093 192.363 343.998C188.763 338.92 183.936 335.086 178.481 332.166C176.205 330.946 173.792 329.959 171.304 329.224C162.466 329.58 153.632 329.94 144.799 330.292C139.204 330.514 133.614 330.725 128.025 330.937C125.246 331.04 122.471 331.14 119.691 331.252C117.139 331.352 114.568 331.543 112.014 331.533C111.265 331.528 110.428 331.454 109.643 331.242C109.511 331.234 109.372 331.225 109.24 331.217C109.185 331.218 109.13 331.219 109.072 331.216L108.864 331.198C108.025 331.229 107.18 331.189 106.429 330.79C105.562 330.33 105.023 329.391 105.21 328.411C105.262 328.148 105.354 327.91 105.483 327.691C104.983 327.221 104.716 326.514 104.895 325.666C104.988 325.225 105.19 324.859 105.464 324.569C105.253 324.29 105.115 323.953 105.081 323.536C104.973 322.204 106.113 321.563 107.203 321.114C110.345 319.623 113.577 318.346 116.889 317.277C118.324 316.815 119.766 316.382 121.224 316.013C122.054 315.704 122.888 315.399 123.725 315.099C127.765 313.662 131.852 312.356 135.977 311.18C128.999 311.921 122.002 312.503 114.999 312.917C113.257 313.022 111.514 313.115 109.767 313.203C106.327 313.664 102.875 314.134 99.4378 314.384C99.1227 314.408 98.7892 314.391 98.4553 314.347C97.4874 314.382 96.5048 314.219 95.8089 313.917C95.1793 313.645 94.6525 313.016 94.9952 312.297C95.1112 312.054 95.3189 311.856 95.5681 311.703C95.0529 311.516 94.6215 311.124 94.558 310.598C94.4702 309.889 95.072 309.315 95.8052 308.971C95.4582 308.874 95.1467 308.68 94.9619 308.408C94.8662 308.268 94.8447 308 94.956 307.858C95.7081 306.826 97.0267 306.385 98.144 305.838C98.3014 305.763 98.4555 305.685 98.6097 305.606C109.305 298.982 121.032 294.07 133.294 291.24C135.703 290.682 138.134 290.24 140.574 289.881C139.416 286.254 136.189 283.772 132.787 281.947C124.199 280.094 116.389 275.017 111.033 268.021C107.635 263.584 105.31 258.419 104.326 252.914C103.134 246.252 103.888 239.382 105.101 232.77C105.999 227.848 107.161 222.977 108.265 218.095C107.995 215.641 107.96 213.156 108.173 210.678C108.339 208.744 108.483 205.626 111.084 205.543C112.189 205.506 113.247 206.067 114.215 206.531C115.25 207.028 116.256 207.567 117.226 208.176C118.178 208.771 119.094 209.409 119.958 210.122C120.639 209.943 121.331 209.805 121.968 209.64C123.158 209.328 124.351 209.021 125.545 208.733C128.177 208.085 130.823 207.508 133.486 206.989C137.552 206.191 141.646 205.553 145.772 205.188C146.257 204.17 146.802 203.175 147.413 202.212C148.824 199.984 150.505 197.747 152.539 196.04C153.501 195.232 154.707 194.692 155.952 195.163C157.163 195.625 158.241 196.907 159.093 197.837C160.021 198.846 160.861 199.912 161.602 201.074C161.866 201.492 162.129 201.926 162.37 202.369C164.45 203.409 166.761 204.087 169.037 204.55C169.482 204.639 169.929 204.721 170.375 204.802C173.04 205.051 175.708 205.215 178.362 205.361C184.459 205.683 190.563 205.854 196.659 206.184C208.106 206.808 219.325 208.43 230.243 212.099C250.96 219.054 269.447 231.659 285.166 246.65C303.013 263.671 317.842 284.105 327.256 306.974C336.042 328.321 340.22 352.193 337.418 375.192C337.07 378.032 336.696 380.393 336.152 383.205C336.049 384.952 335.735 386.766 335.173 388.434C332.342 396.893 325.721 418.906 312.648 435.128C306.115 443.232 294.985 453.625 287.594 459.527C278.942 466.441 268.813 472.436 263.749 475.11C257.699 478.319 249.993 481.787 242.316 484.331C230.644 488.2 218.384 490.418 206.079 490.451C195.413 490.479 184.774 488.869 174.598 485.704C164.428 482.54 154.757 477.911 146.022 471.828C137.396 465.813 129.759 458.428 123.701 449.831Z" fill="#EF8194"/>
<path d="M111.336 236.919C113.392 235.917 115.633 235.206 117.918 234.995C120.215 234.783 122.738 234.823 124.799 235.947C124.85 235.977 124.851 236.066 124.784 236.07C122.627 236.132 120.495 235.889 118.344 236.155C119.021 236.264 119.673 236.858 119.808 237.53C119.861 237.801 119.84 238.06 119.767 238.305C121.15 237.848 122.386 237.097 123.711 236.353C124.361 235.991 125.314 236.766 124.809 237.446C123.219 239.605 120.055 240.481 117.479 240.336C115.193 240.207 112.976 239.4 111.148 238.031C110.712 237.706 110.925 237.123 111.336 236.919ZM116.746 238.722C116.694 238.638 116.65 238.555 116.614 238.464C116.527 238.255 116.485 238.031 116.489 237.806C116.501 237.304 116.704 237.02 117.084 236.723C117.118 236.669 117.151 236.622 117.196 236.573C117.311 236.435 117.444 236.338 117.577 236.268C115.96 236.532 114.392 236.974 112.892 237.619C114.082 238.278 115.389 238.659 116.746 238.722Z" fill="#004236"/>
<path d="M128.181 251.544C129.161 251.979 129.961 252.763 130.926 253.258C131.406 253.507 132.003 253.728 132.176 253.051C132.277 252.646 132.121 251.956 132.082 251.542C131.986 250.465 131.839 249.379 131.663 248.316C131.61 247.99 131.544 247.666 131.479 247.342C130.415 247.272 129.587 246.461 128.968 245.661C128.891 245.562 128.837 245.458 128.799 245.356C128.605 245.125 128.49 244.799 128.495 244.379C128.506 243.69 128.69 242.991 128.729 242.301C128.769 241.596 128.764 240.886 128.71 240.185C128.586 238.54 128.265 236.882 127.643 235.348C127.587 235.205 127.788 235.097 127.856 235.237C128.729 236.95 129.39 238.696 129.636 240.613C129.759 241.545 129.798 242.486 129.76 243.425C129.756 243.588 129.704 243.843 129.707 244.042C129.919 244.002 130.139 244.017 130.338 244.111C130.471 243.987 130.608 243.851 130.694 243.791C130.855 243.686 131.021 243.605 131.204 243.545C132.752 243.015 134.476 244.437 133.767 246.067C133.549 246.571 133.092 246.949 132.567 247.158C133.034 247.862 133.545 248.525 133.973 249.259C134.438 250.069 134.946 250.852 135.471 251.621C135.777 252.076 136.301 253.2 136.861 253.373C137.519 253.574 137.286 252.118 137.451 251.698C137.594 251.329 138.056 251.225 138.332 251.516C139.07 252.292 138.912 253.727 138.109 254.418C137.287 255.129 136.241 254.753 135.585 254.038C134.722 253.094 134.103 251.83 133.513 250.701C133.406 250.493 133.288 250.28 133.178 250.068C133.267 250.644 133.335 251.222 133.392 251.802C133.451 252.429 133.6 253.181 133.368 253.792C132.974 254.864 131.744 254.964 130.835 254.557C129.73 254.061 128.315 253.168 127.677 252.119C127.497 251.836 127.859 251.4 128.181 251.544ZM131.294 245.183C131.377 245.083 131.543 245.092 131.63 245.212C131.693 245.301 131.753 245.386 131.811 245.479C131.869 245.482 131.925 245.474 131.978 245.453C132.193 245.362 132.251 245.17 132.018 245.005C131.788 244.845 131.514 244.983 131.27 245.16C131.281 245.165 131.287 245.174 131.294 245.183Z" fill="#004236"/>
<path d="M229.217 258.515C228.919 257.297 229.328 255.576 230.335 254.906C230.574 254.713 230.861 254.564 231.199 254.481C232.871 254.055 234.293 255.304 235.058 256.657C235.81 257.984 236.673 259.774 236.054 261.306C235.369 262.993 233.477 263.368 232.056 262.369C230.803 261.488 229.579 260.002 229.217 258.515Z" fill="#004236"/>
<path d="M251.161 267.662C251.737 266.414 253.141 265.816 254.461 265.992C255.643 266.151 256.637 266.887 257.551 267.603C258.19 268.109 258.785 268.657 259.224 269.307C260.395 270.717 261.008 272.48 260.162 274.328C259.233 276.352 256.99 276.759 255.148 275.72C253.354 274.707 251.726 272.739 251.092 270.77C250.765 269.756 250.703 268.644 251.161 267.662Z" fill="#004236"/>
<path d="M251.946 250.265C252.835 249.772 253.984 249.881 254.663 250.661C255.268 251.355 255.337 252.467 254.894 253.271C254.966 253.763 254.663 254.257 254.073 254.42C253.326 254.621 252.559 254.388 251.999 253.903C251.685 253.732 251.414 253.492 251.216 253.203C250.532 252.204 250.891 250.847 251.946 250.265Z" fill="#004236"/>
<path d="M233.002 241.571C232.63 239.724 234.295 238.312 236.079 238.645C236.137 238.656 236.194 238.667 236.254 238.682C237.521 238.816 238.823 239.895 239.544 240.789C240.57 242.076 240.836 244.089 239.496 245.296C236.973 247.587 233.511 244.075 233.002 241.571Z" fill="#004236"/>
<path d="M138.18 232.866C139.751 234.048 141.442 234.19 143.086 233.766C142.44 233.847 141.872 233.521 141.563 233.019C141.233 232.757 141.034 232.316 141.081 231.877C141.083 231.826 141.093 231.777 141.106 231.731C141.104 231.622 141.113 231.518 141.134 231.411C140.113 231.751 139.126 232.189 138.1 232.666C138.025 232.703 137.972 232.592 138.022 232.539C140.737 229.452 145.944 228.617 149.677 230.037C150.102 230.198 150.155 230.809 149.798 231.074C147.724 232.604 145.742 234.369 143.135 234.879C142.176 235.067 141.182 235.087 140.223 234.893C139.151 234.669 138.446 234.221 137.682 233.457C137.373 233.151 137.827 232.601 138.18 232.866ZM148.105 230.946C146.784 230.716 145.464 230.602 144.112 230.743C144.558 231.046 144.906 231.518 144.922 232.046C144.94 232.434 144.771 232.796 144.371 232.907L144.363 232.907C144.201 233.207 143.936 233.455 143.617 233.608C145.239 233.075 146.792 232.035 148.105 230.946Z" fill="#004236"/>
<path d="M175.133 235.898C176.746 236.199 178.09 236.814 179.248 237.984C179.449 238.188 179.188 238.593 178.934 238.41C177.736 237.563 176.41 236.766 175.026 236.259C174.802 236.177 174.893 235.849 175.133 235.898Z" fill="#F8F3E8"/>
<path d="M176.3 242.822C177.522 243.255 178.744 243.688 179.972 244.11C180.353 244.242 180.112 244.868 179.759 244.692C178.588 244.129 177.403 243.584 176.227 243.031C176.101 242.977 176.162 242.77 176.3 242.822Z" fill="#F8F3E8"/>
<path d="M183.575 233.353C183.997 233.502 184.42 233.651 184.842 233.799C185.208 233.93 185.551 234.03 185.865 234.27C186.06 234.423 185.89 234.757 185.655 234.705C185.293 234.634 185.026 234.454 184.71 234.271C184.299 234.03 183.891 233.793 183.476 233.556C183.367 233.488 183.459 233.312 183.575 233.353Z" fill="#F8F3E8"/>
<path d="M185.041 228.57C185.479 228.561 185.921 228.556 186.359 228.546C186.879 228.535 187.328 228.601 187.835 228.725C188.195 228.812 188.033 229.299 187.719 229.316C187.228 229.338 186.826 229.313 186.348 229.2C185.905 229.096 185.465 228.996 185.024 228.895C184.842 228.858 184.85 228.574 185.041 228.57Z" fill="#F8F3E8"/>
<path d="M184.615 219.318C186.116 219.609 187.749 219.749 189.184 220.293C189.605 220.45 189.464 221.15 188.997 221.078C187.478 220.835 185.968 220.114 184.52 219.614C184.352 219.551 184.448 219.282 184.615 219.318Z" fill="#F8F3E8"/>
<path d="M178.202 214.308C179.311 213.955 180.368 213.982 181.446 214.417C181.854 214.584 181.548 215.233 181.146 215.04C180.255 214.612 179.218 214.389 178.23 214.46C178.139 214.468 178.117 214.333 178.202 214.308Z" fill="#F8F3E8"/>
<path d="M194.055 214.577L195.564 214.675C195.653 214.682 195.663 214.819 195.575 214.812L194.067 214.735C193.961 214.734 193.954 214.573 194.055 214.577Z" fill="#F8F3E8"/>
<path d="M185.484 211.989C186.955 212.055 188.477 212.239 189.797 212.922C190.196 213.13 189.851 213.802 189.444 213.628C188.128 213.067 186.905 212.489 185.467 212.315C185.279 212.288 185.298 211.982 185.484 211.989Z" fill="#F8F3E8"/>
<path d="M190.638 210.064C192.295 210.296 193.949 210.516 195.6 210.795C195.937 210.851 195.816 211.382 195.481 211.318C193.85 211.004 192.23 210.632 190.605 210.271C190.492 210.241 190.523 210.05 190.638 210.064Z" fill="#F8F3E8"/>
<path d="M177.437 220.764C178.073 220.705 178.769 220.875 179.393 220.978C180.069 221.087 180.734 221.234 181.376 221.468C181.753 221.603 181.545 222.148 181.18 222.107C180.602 222.045 180.04 221.922 179.482 221.769C178.807 221.581 177.99 221.4 177.386 221.046C177.278 220.979 177.275 220.779 177.437 220.764Z" fill="#F8F3E8"/>
<path d="M177.637 226.077C178.42 226.304 179.207 226.509 179.993 226.714C180.378 226.815 180.146 227.461 179.78 227.296C179.044 226.969 178.298 226.664 177.546 226.37C177.379 226.307 177.468 226.029 177.637 226.077Z" fill="#F8F3E8"/>
<path d="M175.148 230.584C176.212 230.904 177.287 231.175 178.301 231.617C178.49 231.699 178.358 232.003 178.166 231.952C177.096 231.678 176.082 231.227 175.051 230.825C174.891 230.763 174.986 230.537 175.148 230.584Z" fill="#F8F3E8"/>
<path d="M178.711 249.308C179.104 249.542 179.497 249.769 179.893 250.001C180.104 250.128 179.894 250.465 179.697 250.328C179.317 250.056 178.941 249.788 178.561 249.516C178.417 249.42 178.57 249.224 178.711 249.308Z" fill="#F8F3E8"/>
<path d="M172.036 251.103C173.111 251.401 174.353 251.922 174.979 252.884C175.127 253.108 174.828 253.411 174.601 253.263C174.139 252.957 173.764 252.557 173.313 252.229C172.883 251.92 172.418 251.672 171.929 251.465C171.709 251.379 171.795 251.035 172.036 251.103Z" fill="#F8F3E8"/>
<path d="M177.341 258.229C178.398 258.735 179.391 259.41 180.127 260.333C180.265 260.51 180.034 260.767 179.869 260.591C179.075 259.753 178.252 259.002 177.242 258.431C177.129 258.367 177.223 258.175 177.341 258.229Z" fill="#F8F3E8"/>
<path d="M185.832 246.72C186.856 247.023 187.884 247.288 188.862 247.711C189.124 247.825 188.97 248.286 188.692 248.198C187.668 247.867 186.72 247.366 185.75 246.909C185.64 246.856 185.723 246.687 185.832 246.72Z" fill="#F8F3E8"/>
<path d="M187.959 238.366C189.106 238.685 190.214 239.061 191.321 239.507C191.934 239.757 191.503 240.746 190.924 240.45C189.864 239.904 188.846 239.332 187.854 238.677C187.71 238.582 187.763 238.311 187.959 238.366Z" fill="#F8F3E8"/>
<path d="M191.481 231.734C192.424 232.024 193.328 232.317 194.23 232.723C194.507 232.846 194.329 233.242 194.051 233.153C193.123 232.865 192.255 232.51 191.367 232.114C191.134 232.012 191.229 231.653 191.481 231.734Z" fill="#F8F3E8"/>
<path d="M191.225 226.02C191.579 226.153 191.941 226.287 192.295 226.419C192.649 226.552 192.469 227.123 192.12 226.979C191.753 226.829 191.382 226.675 191.014 226.525C190.732 226.413 190.93 225.911 191.225 226.02Z" fill="#F8F3E8"/>
<path d="M234.75 336.23C234.86 335.124 235.842 334.314 236.962 334.563C237.627 334.71 238.272 335.233 238.8 335.785C239.112 335.979 239.383 336.218 239.576 336.456C240.379 337.466 239.941 338.829 238.781 339.312C237.897 339.677 236.997 339.353 236.282 338.794C235.491 338.184 234.649 337.302 234.75 336.23Z" fill="#004236"/>
<path d="M253.458 336.038C252.561 334.809 252.58 332.948 253.797 331.913C255.442 330.51 257.621 331.597 259.036 332.74C260.373 333.819 262.297 335.639 261.689 337.559C261.076 339.481 258.784 339.656 257.163 339.069C255.953 338.634 254.782 337.758 254.018 336.648C253.818 336.471 253.624 336.268 253.458 336.038Z" fill="#004236"/>
<path d="M254.885 371.187C254.596 369.241 255.815 367.115 257.971 367.096C258.58 367.092 259.141 367.257 259.656 367.542C262.29 368.135 264.778 371.826 263.929 374.301C263.2 376.439 260.66 376.946 258.756 376.158C256.766 375.339 255.2 373.308 254.885 371.187Z" fill="#004236"/>
<path d="M170.16 263.855C170.884 264.212 171.77 264.616 172.258 265.276C172.419 265.491 172.141 265.784 171.91 265.659C171.205 265.273 170.636 264.607 169.971 264.148C169.81 264.031 169.983 263.772 170.16 263.855Z" fill="#F8F3E8"/>
<path d="M164.904 257.122C165.427 257.47 165.991 257.792 166.454 258.215C166.619 258.364 166.408 258.646 166.22 258.53C165.692 258.193 165.235 257.724 164.76 257.311C164.661 257.221 164.792 257.05 164.904 257.122Z" fill="#F8F3E8"/>
<path d="M182.583 253.736C183.196 254.013 183.817 254.264 184.378 254.644C184.609 254.797 184.384 255.167 184.132 255.059C183.514 254.785 182.974 254.388 182.416 254.012C182.257 253.915 182.416 253.665 182.583 253.736Z" fill="#F8F3E8"/>
<path d="M170.205 244.656C170.754 244.789 171.213 245.18 171.678 245.49C172.19 245.833 172.688 246.186 173.18 246.558C173.405 246.729 173.179 247.072 172.936 246.922C172.429 246.611 171.937 246.294 171.449 245.954C170.972 245.619 170.412 245.321 170.07 244.831C170.012 244.738 170.111 244.633 170.205 244.656Z" fill="#F8F3E8"/>
<path d="M116.522 247.213C118.993 246.628 122.014 246.967 124.386 247.82C124.726 247.943 124.601 248.443 124.244 248.368C122.936 248.092 121.632 247.848 120.297 247.788C119.063 247.732 117.85 247.889 116.619 247.935C116.203 247.954 116.116 247.308 116.522 247.213Z" fill="#F8F3E8"/>
<path d="M117.183 250.694C119.367 250.319 121.67 250.622 123.862 250.728C123.943 250.734 123.943 250.859 123.86 250.868C121.69 251.155 119.424 251.656 117.227 251.472C116.787 251.434 116.728 250.771 117.183 250.694Z" fill="#F8F3E8"/>
<path d="M118.119 254.162C120.352 253.867 122.6 253.602 124.841 253.37C124.968 253.355 124.987 253.548 124.873 253.589C122.7 254.281 120.395 254.652 118.117 254.649C117.841 254.643 117.853 254.196 118.119 254.162Z" fill="#F8F3E8"/>
<path d="M138.27 244.235C141.098 243.107 144.747 242.399 147.785 242.725C148.301 242.78 148.183 243.51 147.73 243.58C146.097 243.823 144.417 243.775 142.773 243.942C141.284 244.093 139.798 244.311 138.304 244.43C138.182 244.442 138.163 244.276 138.27 244.235Z" fill="#F8F3E8"/>
<path d="M140.022 247.696C141.257 247.175 142.545 246.953 143.886 246.932C145.184 246.91 146.928 246.997 147.987 247.808C148.286 248.039 148.071 248.575 147.705 248.569C146.555 248.559 145.397 248.02 144.246 247.865C142.856 247.681 141.459 247.718 140.063 247.81C139.987 247.821 139.948 247.726 140.022 247.696Z" fill="#F8F3E8"/>
<path d="M141.558 251.042C144.034 250.87 146.706 251.28 148.863 252.544C149.237 252.765 148.948 253.365 148.539 253.234C146.219 252.5 143.976 251.748 141.565 251.335C141.416 251.313 141.381 251.055 141.558 251.042Z" fill="#F8F3E8"/>
<path d="M165.368 251.457C166.377 252.25 167.313 253.011 168.169 253.973C168.357 254.187 168.022 254.497 167.803 254.314C166.829 253.486 166.038 252.564 165.223 251.583C165.159 251.502 165.286 251.396 165.368 251.457Z" fill="#F8F3E8"/>
<path d="M162.132 264.606C162.072 264.485 162.238 264.342 162.329 264.458C163.102 265.429 164.058 266.189 164.947 267.041C165.16 267.243 164.917 267.627 164.647 267.477C163.485 266.845 162.717 265.772 162.132 264.606Z" fill="#F8F3E8"/>
<path d="M164.38 274.293C164.109 273.929 163.743 273.576 163.68 273.112C163.665 273.013 163.753 272.93 163.851 272.958C164.311 273.084 164.613 273.487 164.951 273.813C165.323 274.174 165.683 274.545 165.982 274.963C166.268 275.365 165.766 275.826 165.408 275.475C165.028 275.113 164.695 274.714 164.38 274.293Z" fill="#F8F3E8"/>
<path d="M173.697 268.746C173.643 268.65 173.763 268.528 173.85 268.613C174.436 269.175 175.189 269.801 175.572 270.522C175.724 270.806 175.37 271.083 175.132 270.866C174.525 270.313 174.098 269.446 173.697 268.746Z" fill="#F8F3E8"/>
<path d="M159.78 259.184C159.753 259.087 159.862 258.995 159.951 259.029C160.338 259.177 160.652 259.543 160.937 259.827C161.215 260.103 161.457 260.386 161.687 260.698C161.908 260.99 161.546 261.364 161.263 261.099C160.991 260.84 160.737 260.587 160.5 260.293C160.245 259.966 159.889 259.591 159.78 259.184Z" fill="#F8F3E8"/>
<path d="M153.29 281.524C153.24 281.452 153.341 281.367 153.402 281.437C154.191 282.312 155.066 283.156 155.704 284.149C155.845 284.365 155.507 284.574 155.346 284.395C154.547 283.533 153.939 282.488 153.29 281.524Z" fill="#F8F3E8"/>
<path d="M149.44 282.368C148.972 281.395 148.395 280.381 148.115 279.337C148.08 279.212 148.267 279.113 148.344 279.22C148.995 280.072 149.43 281.127 149.905 282.081C150.061 282.397 149.592 282.687 149.44 282.368Z" fill="#F8F3E8"/>
<path d="M146.914 282.038C146.886 281.984 146.969 281.94 146.997 281.994C147.255 282.501 147.512 283.008 147.769 283.515C147.804 283.577 147.704 283.628 147.669 283.565L146.914 282.038Z" fill="#F8F3E8"/>
<path d="M144.342 281.418C144.185 280.923 144.024 280.424 143.867 279.929C143.811 279.751 144.065 279.622 144.14 279.806C144.335 280.306 144.527 280.809 144.722 281.308C144.806 281.541 144.417 281.657 144.342 281.418Z" fill="#F8F3E8"/>
<path d="M141.226 281.376C141.15 281.234 141.363 281.115 141.444 281.254C141.856 281.924 142.281 282.592 142.685 283.269C142.82 283.496 142.455 283.705 142.328 283.471C141.953 282.778 141.592 282.075 141.226 281.376Z" fill="#F8F3E8"/>
<path d="M145.138 286.772C144.903 286.081 144.562 285.439 144.07 284.899C144.022 284.847 144.1 284.759 144.152 284.808C144.753 285.31 145.191 285.897 145.422 286.647C145.488 286.838 145.204 286.963 145.138 286.772Z" fill="#F8F3E8"/>
<path d="M141.724 287.746C141.548 287.121 141.345 286.495 141.209 285.859C141.207 285.839 141.228 285.83 141.237 285.85C141.503 286.448 141.71 287.07 141.934 287.686C141.988 287.817 141.769 287.885 141.724 287.746Z" fill="#F8F3E8"/>
<path d="M154.849 267.556C154.792 267.448 154.924 267.358 155.002 267.45C155.638 268.174 156.265 268.878 156.789 269.691C156.982 269.991 156.531 270.26 156.32 269.981C155.751 269.218 155.307 268.392 154.849 267.556Z" fill="#F8F3E8"/>
<path d="M158.835 273.956C158.8 273.858 158.927 273.78 159.001 273.847C159.578 274.381 160 275.1 160.401 275.772C160.523 275.982 160.227 276.165 160.079 275.975C159.618 275.35 159.111 274.691 158.835 273.956Z" fill="#F8F3E8"/>
<path d="M155.205 274.44C156.299 274.904 157.288 275.672 157.792 276.77C157.91 277.019 157.567 277.203 157.42 276.971C156.803 276.003 156.131 275.188 155.136 274.592C155.041 274.541 155.102 274.396 155.205 274.44Z" fill="#F8F3E8"/>
<path d="M150.033 273.867C149.956 273.76 150.121 273.66 150.203 273.755C150.811 274.48 151.441 275.196 152.01 275.952C152.144 276.132 151.867 276.321 151.728 276.152C151.133 275.409 150.594 274.63 150.033 273.867Z" fill="#F8F3E8"/>
<path d="M156.557 279.179C156.498 279.094 156.613 279.01 156.683 279.081C157.355 279.826 158.082 280.542 158.68 281.351C158.873 281.617 158.476 281.892 158.272 281.649C157.63 280.881 157.11 280.01 156.557 279.179Z" fill="#F8F3E8"/>
<path d="M152.169 206.642C152.37 205.278 152.704 203.961 153.245 202.685C153.621 201.787 154.201 200.071 154.972 199.482C155.73 198.903 156.292 199.568 156.792 200.128C157.843 201.312 159.229 202.818 159.414 204.444C159.423 204.554 159.296 204.667 159.193 204.588C158.361 203.934 155.969 199.404 154.968 199.922C154.735 200.042 154.49 200.699 154.356 200.956C153.992 201.664 153.73 202.424 153.514 203.19C153.19 204.324 153.014 205.497 152.938 206.673C152.907 207.176 152.098 207.121 152.169 206.642Z" fill="#F8F3E8"/>
<path d="M111.944 216.268C111.466 214.927 111.27 213.491 111.278 212.068C111.282 211.406 111.144 209.564 111.834 209.156C112.469 208.785 114.085 210.006 114.518 210.32C115.672 211.147 116.852 212.202 117.48 213.495C117.539 213.616 117.401 213.724 117.294 213.64C115.816 212.443 114.55 210.948 112.817 210.067C111.456 209.375 111.889 211.737 111.96 212.486C112.069 213.685 112.377 214.819 112.715 215.963C112.87 216.474 112.127 216.777 111.944 216.268Z" fill="#F8F3E8"/>
<path d="M220.104 244.309C220.856 243.589 221.993 243.547 222.913 243.959C222.97 243.978 223.03 243.993 223.082 244.015C224.196 244.435 225.308 245.26 225.452 246.521C225.589 247.712 224.804 248.756 223.601 248.898C222.425 249.033 221.047 248.409 220.245 247.579C219.409 246.705 219.17 245.206 220.104 244.309Z" fill="#004236"/>
<path d="M220.803 231.457C220.825 231.182 221.046 230.975 221.306 230.917C222.113 230.738 222.917 230.699 223.592 231.241C224.209 231.737 224.481 232.566 224.136 233.3C223.606 234.429 222.226 234.328 221.665 233.566C221.04 233.034 220.74 232.276 220.803 231.457Z" fill="#004236"/>
<path d="M225.658 220.291C225.27 219.428 225.371 218.703 225.754 218.161C225.83 217.769 226.028 217.399 226.354 217.095C227.403 216.13 229.184 216.424 230.383 216.889C231.667 217.384 232.746 218.506 232.632 219.962C232.364 223.288 226.741 222.7 225.658 220.291Z" fill="#004236"/>
<path d="M248.285 236.768C247.78 235.24 248.942 234.02 250.316 233.73C250.684 233.533 251.108 233.416 251.541 233.411C253.39 233.381 255.419 235.238 255.833 236.997C256.274 238.86 254.724 240.411 252.876 239.863C251.954 239.592 251.064 239.094 250.217 238.652C249.397 238.217 248.589 237.682 248.285 236.768Z" fill="#004236"/>
<path d="M228.309 280.678C228.627 280.249 229.198 280.053 229.768 280.142C230.667 280.286 231.418 280.962 231.9 281.703C232.349 282.393 232.618 283.307 232.335 284.111C232.027 284.991 231.083 285.465 230.203 285.07C229.486 284.749 228.647 284.031 228.151 283.432C227.394 282.518 227.443 281.369 228.309 280.678Z" fill="#004236"/>
<path d="M210.199 274.344C209.842 272.853 210.682 270.955 212.273 271.023C212.745 270.862 213.272 270.832 213.784 270.952C215.69 271.406 217.333 273.384 217.555 275.306C217.788 277.331 216.099 278.562 214.211 278.024C212.405 277.513 210.659 276.24 210.199 274.344Z" fill="#004236"/>
<path d="M245.938 292.06C246.082 291.559 246.377 291.161 246.764 290.873C247.023 290.261 247.566 289.781 248.296 289.62C249.815 289.293 251.017 290.332 251.824 291.499C252.737 292.818 253.518 294.61 252.357 296.044C251.233 297.437 249.514 296.885 248.258 296.035C246.994 295.183 245.454 293.756 245.938 292.06Z" fill="#004236"/>
<path d="M229.693 298.76C230.148 298.21 230.775 298.06 231.371 298.191C231.635 298.172 231.906 298.189 232.165 298.237C233.488 298.487 234.608 299.777 234.729 301.098C234.83 302.171 234.239 303.258 233.127 303.482C231.911 303.724 230.885 302.874 230.193 301.972C229.51 301.089 228.866 299.767 229.693 298.76Z" fill="#004236"/>
<path d="M205.033 301.342C205.075 300.025 205.97 299.318 207.038 299.136C210.025 297.295 215.535 301.594 213.645 304.855C211.703 308.22 204.933 304.571 205.033 301.342Z" fill="#004236"/>
<path d="M193.813 288.643C193.357 287.632 193.627 286.561 194.334 285.89C194.339 285.879 194.344 285.868 194.346 285.853C195.067 284.318 197.074 284.749 198.189 285.445C199.673 286.374 201.316 287.915 201.416 289.753C201.51 291.449 199.809 292.272 198.311 291.833C196.794 291.38 194.496 290.157 193.813 288.643Z" fill="#004236"/>
<path d="M188.369 305.885C188.368 305.768 188.379 305.648 188.41 305.527C188.691 304.293 190.136 304.059 191.123 304.503C192.199 304.98 193.373 305.833 193.462 307.103C193.541 308.193 192.781 309.162 191.673 309.257C190.782 309.336 189.786 308.81 189.139 308.232C188.483 307.642 188.109 306.727 188.369 305.885Z" fill="#004236"/>
<path d="M198.268 259.585C197.842 258.488 198.263 257.264 199.369 256.961C200.014 256.638 200.888 256.67 201.541 257.061C202.238 257.481 202.991 258.149 203.529 258.749C203.984 259.261 204.272 259.959 204.14 260.652C203.858 262.108 202.235 262.676 200.947 262.239C199.723 261.821 198.733 260.777 198.268 259.585Z" fill="#004236"/>
<path d="M176.285 278.093C176.725 277.526 177.256 277.243 177.808 277.166C178.041 277.046 178.305 276.965 178.589 276.937C181.959 276.628 184.432 282.115 180.715 283.521C177.865 284.611 174.249 280.732 176.285 278.093Z" fill="#004236"/>
<path d="M170.298 294.828C170.417 294.534 170.595 294.263 170.84 294.043C173.014 292.115 176.577 295.48 175.958 297.858C175.189 300.792 171.345 298.91 170.196 297.358C169.611 296.566 169.653 295.506 170.298 294.828Z" fill="#004236"/>
<path d="M206.617 243.71C206.27 243.142 206.04 242.474 205.984 241.797C205.732 240.779 206.143 239.694 206.96 238.986C209.365 236.899 213.414 239.738 213.125 242.636C212.997 243.923 212.001 244.964 210.799 245.349C209.189 245.871 207.489 245.138 206.617 243.71Z" fill="#004236"/>
<path d="M221.086 317.002C221.064 316.832 221.065 316.664 221.073 316.505C221.073 316.505 221.07 316.501 221.074 316.497C220.76 314.439 222.801 313.302 224.595 313.364C226.41 313.424 228.177 314.367 229.431 315.651C230.583 316.832 231.355 318.665 230.321 320.181C229.181 321.857 226.987 321.836 225.273 321.219C223.492 320.57 221.333 319.037 221.086 317.002Z" fill="#004236"/>
<path d="M198.802 325.313C198.897 324.607 199.236 324.079 199.707 323.765C199.986 323.409 200.403 323.159 200.955 323.109C202.344 322.981 203.785 324.424 204.346 325.56C204.935 326.759 204.742 328.284 203.695 329.179C201.235 331.275 198.479 327.696 198.802 325.313Z" fill="#004236"/>
<path d="M214.514 342.059C214.285 341.161 214.487 340.262 214.971 339.626C215.095 339.002 215.505 338.494 216.333 338.235C217.904 337.743 219.536 339.154 220.364 340.339C221.249 341.604 221.906 343.513 221.464 345.066C220.146 349.719 215.116 344.406 214.514 342.059Z" fill="#004236"/>
<path d="M246.883 315.891C247.278 315.035 247.968 314.6 248.754 314.484C249.555 313.977 250.615 313.829 251.587 314.102C254.245 314.85 257.49 319.491 253.591 320.976C250.911 321.988 245.292 319.349 246.883 315.891Z" fill="#004236"/>
<path d="M237.573 355.172C237.573 353.471 239.058 352.353 240.657 352.262C243.502 352.092 246.815 355.173 245.468 358.142C244.523 360.227 241.706 359.881 239.979 358.552C238.695 357.827 237.578 356.771 237.573 355.172Z" fill="#004236"/>
<path d="M110.803 246.227C110.787 246.205 110.775 246.173 110.758 246.151C110.346 245.606 110.175 244.906 110.485 244.234C110.522 244.149 110.571 244.069 110.625 243.986C110.788 243.643 111.061 243.333 111.389 243.139C112.972 242.2 116.066 242.641 115.88 244.994C115.819 245.798 115.429 246.394 114.882 246.78C114.568 247.046 114.171 247.232 113.744 247.309C112.69 247.501 111.432 247.138 110.803 246.227Z" fill="#DB4546"/>
<path d="M148.246 237.402C149.16 235.598 152.882 235.063 153.894 236.84C154.095 237.078 154.251 237.359 154.358 237.664C154.765 238.88 154.102 240.203 153.016 240.809C150.97 241.957 146.891 240.085 148.246 237.402Z" fill="#DB4546"/>
</svg>
