<svg width="243" height="437" viewBox="0 0 243 437" fill="none" xmlns="http://www.w3.org/2000/svg">
<g clip-path="url(#clip0)">
<path d="M214.984 87.5489C215.718 89.6429 216.392 91.2919 216.859 92.9969C217.505 95.2319 217.669 97.5779 217.341 99.8809C217.119 101.238 217.034 102.615 217.089 103.989C217.237 106.707 217.124 109.432 216.751 112.128C216.419 114.707 216.488 117.35 216.371 119.966C216.324 120.893 216.171 121.879 216.228 122.768C216.129 124.54 216.43 126.311 217.111 127.951C217.917 129.815 218.096 131.89 217.621 133.865C217.392 135.024 217.286 136.187 217.128 137.379C217.062 137.975 216.949 138.565 216.789 139.143C215.829 142.375 214.87 145.606 213.785 148.896C213.565 149.5 213.231 150.054 212.799 150.529C211.819 151.615 210.749 152.605 209.812 153.609C209.317 154.083 208.885 154.618 208.528 155.202C207.205 157.749 205.473 160.062 203.401 162.048C202.931 162.486 202.53 162.992 202.213 163.551C200.954 165.3 199.87 167.168 198.978 169.13C198.419 170.367 197.425 171.355 196.186 171.907C194.509 172.829 192.851 173.792 191.134 174.67C187.618 176.446 184.276 178.578 180.583 180.019C179.985 180.258 179.41 180.552 178.866 180.898C176.304 182.379 173.559 183.52 170.703 184.294C170.33 184.422 169.936 184.474 169.543 184.446C168.277 184.409 167.011 184.49 165.761 184.688C162.555 184.967 159.709 186.391 156.587 186.992C155.257 187.355 153.892 187.569 152.515 187.628C149.949 187.562 147.386 187.831 144.89 188.429C141.932 188.972 138.931 189.249 135.923 189.254C134.694 189.312 133.459 189.575 132.291 189.655C130.39 189.765 128.499 189.886 126.508 189.901C123.597 189.722 120.73 189.093 118.011 188.037C117.383 187.751 116.73 187.521 116.061 187.352C112.569 186.818 109.463 185.078 106.096 184.146C105.063 183.858 104.154 183.172 103.133 182.812C101.356 182.204 99.5569 181.637 97.7439 181.203C94.8009 180.446 92.15 178.829 90.131 176.559C88.24 174.402 85.82 172.775 83.108 171.839C80.315 170.831 77.735 169.308 75.502 167.35C72.521 164.85 69.722 162.119 66.858 159.468C64.799 157.562 62.7499 155.647 60.7319 153.701C59.3069 152.34 57.914 150.928 56.552 149.506C56.069 149.017 55.6289 148.486 55.2359 147.921C53.5949 145.495 51.7179 143.236 49.6329 141.179C48.2979 139.752 47.08 138.22 45.99 136.598C44.582 134.639 43.227 132.63 41.934 130.581C38.852 125.563 36.744 120.008 35.722 114.208L35.705 114.063C35.791 110.373 33.876 107.389 32.252 104.31C31.117 102.173 30.14 99.9479 29.036 97.8009C28.695 97.0999 28.342 96.4509 27.962 95.7079C27.677 95.1909 27.427 94.6569 27.213 94.1079C25.076 88.1049 22.991 82.0519 20.7 75.9939C19.896 73.8249 18.758 71.8119 17.735 69.7089C17.379 69.0629 17.131 68.3619 17.001 67.6349C16.785 65.4729 16.7019 63.3049 16.5269 61.1439C16.4049 59.6759 16.189 58.2149 16.046 56.7469C15.855 54.7809 15.653 52.8259 15.524 50.8629C15.549 49.4879 15.3189 48.1209 14.8459 46.8309C14.5439 45.7889 14.377 44.7129 14.35 43.6289L13.851 39.8289C13.766 39.1869 13.65 38.5549 13.627 37.9149C13.52 34.4669 13.455 31.0199 13.358 27.5613C13.345 25.9369 13.768 24.3387 14.585 22.9344C15.87 20.8903 17.422 19.0271 19.2 17.3942C19.584 17.0085 20.0329 16.6933 20.5269 16.4629C22.7009 15.3057 24.7089 13.8612 26.4989 12.1685C27.6409 11.2409 28.833 10.3765 30.07 9.57923C32.449 7.97383 35.041 6.70834 37.77 5.81954C43.256 4.04864 48.791 2.39264 54.307 0.694735C54.54 0.617635 54.7799 0.565833 55.0229 0.540133C58.7989 0.0348331 62.633 0.18713 66.356 0.99013C67.608 1.33393 68.909 1.46204 70.203 1.36914C71.579 1.37034 72.953 1.48924 74.308 1.72454L83.925 2.67183C86.826 2.85003 89.7369 2.72303 92.6109 2.29273C94.1349 2.18023 95.6649 2.15543 97.1929 2.21843C97.6359 2.25903 98.0599 2.42103 98.4169 2.68683C99.2819 3.27063 100.31 3.56393 101.353 3.52423C104.66 3.47343 107.96 3.84924 111.171 4.64234C111.41 4.70714 111.654 4.75223 111.9 4.77693C114.725 5.17793 117.532 5.47533 120.374 6.00073C121.805 6.10003 123.198 6.50974 124.455 7.20124C126.294 8.51264 128.489 8.94714 130.319 10.2479C132.109 11.4893 134.128 12.3641 136.258 12.8221C139.764 13.4007 143.198 14.3536 146.501 15.6647C147.694 16.1318 148.737 16.9141 149.52 17.928C150.03 18.5207 150.645 19.014 151.335 19.383C152.144 19.9427 153.007 20.4316 153.877 20.9931C154.748 21.5545 155.151 21.9169 155.852 22.2774C159.519 24.2293 163.241 26.0693 166.866 28.0818C169.034 29.2596 171.35 30.1417 173.753 30.7041C176.14 31.4969 178.299 32.8579 180.044 34.6709C180.951 35.8249 182.024 36.8389 183.227 37.6809C184.067 38.3589 184.811 39.1469 185.439 40.0249C186.15 40.7769 186.723 41.6399 187.37 42.4529C189.101 44.6689 190.822 46.8739 192.563 49.0799C193.42 50.1569 194.339 51.1939 195.173 52.2909C196.306 53.7879 197.377 55.3039 198.477 56.8309C198.567 57.0029 198.669 57.1679 198.783 57.3249C201.207 60.3149 203.095 63.7019 204.364 67.3359C205.215 69.2789 206.321 71.1009 207.653 72.7529C208.962 74.5429 210.095 76.4539 211.037 78.4619C212.566 81.6099 213.927 84.8369 215.177 87.6469L214.984 87.5489ZM210.45 85.9329C208.773 80.9719 206.628 76.1829 204.044 71.6279C203.068 69.9689 202.215 68.2419 201.491 66.4589C200.655 63.9789 199.36 61.6769 197.674 59.6759C197.195 59.0489 196.753 58.3949 196.348 57.7189C195.884 56.9579 195.305 56.2729 194.632 55.6889C192.853 54.2789 191.313 52.5909 190.073 50.6889C188.871 49.0769 187.617 47.4929 186.289 45.9799C185.098 44.7179 183.916 43.4669 182.65 42.2959C182.115 41.7149 181.538 41.1739 180.923 40.6789C178.248 38.6519 175.509 36.7059 172.866 34.6289C171.478 33.4439 169.837 32.5919 168.069 32.1389C167.393 31.9799 166.742 31.7329 166.131 31.4029C162.727 29.6234 159.292 27.8329 155.963 25.9424C154.207 24.9532 152.701 23.5277 150.899 22.7022C146.836 20.5223 142.639 18.6892 138.487 16.7336C137.475 16.2191 136.401 15.838 135.291 15.5998C132.475 15.1028 129.728 14.2688 127.111 13.1158C126.384 12.8261 125.723 12.3931 125.167 11.8427C124.576 11.249 123.802 10.8709 122.97 10.7686C120.693 10.3317 118.415 9.91554 116.172 9.36624C110.975 7.95964 105.661 7.02984 100.295 6.58834C99.663 6.50924 99.0379 6.37373 98.4299 6.18383C98.0589 6.04473 97.6749 5.94383 97.2829 5.88263C95.0259 5.82793 92.76 5.72153 90.489 5.77993C88.218 5.83833 85.486 6.15153 82.944 6.28473C81.22 6.34853 79.499 6.30923 77.768 6.23883C76.329 6.22533 74.892 6.12183 73.465 5.92923C71.802 5.65443 70.18 5.01984 68.556 4.84934C66.51 4.61504 64.433 4.73064 62.366 4.53704C59.858 4.28814 57.327 4.41333 54.856 4.90863C52.678 5.32043 50.4639 5.56613 48.3139 6.09213C45.4999 6.74343 42.8019 7.64574 40.0659 8.46434C39.4569 8.66764 38.8659 8.92324 38.3009 9.22834C36.0509 10.4563 33.808 11.6983 31.571 12.9542C30.413 13.5967 29.288 14.2974 28.2 15.054C26.547 16.2339 24.953 17.4774 23.39 18.7527C22.657 19.3236 22.009 19.9961 21.466 20.7499C20.358 22.3167 19.403 23.9808 18.335 25.5901C16.773 28.0592 15.949 30.9239 15.962 33.8459C15.89 35.0799 15.9069 36.3179 16.0099 37.5499C16.3069 40.1369 16.614 42.7349 17.139 45.2879C17.805 48.6689 18.7479 52.0899 19.5679 55.4859L20.9969 61.3759C21.2469 62.3839 21.476 63.3909 21.673 64.4069C21.708 65.2909 21.86 66.1659 22.125 67.0089C23.232 69.3289 23.915 71.8289 24.14 74.3909C24.498 76.5249 25.038 78.6249 25.754 80.6669C26.743 82.9849 27.442 85.4169 27.835 87.9059C27.925 88.3419 28.0829 88.7609 28.3049 89.1469C29.4389 91.6649 30.323 94.2799 31.687 96.7019C32.905 98.8409 33.85 101.117 35.056 103.287C36.339 105.677 37.4709 108.145 38.4429 110.677C38.5299 110.896 38.553 111.154 38.629 111.383C38.931 112.62 39.298 113.839 39.731 115.036C40.976 117.99 42.3259 120.907 43.6239 123.832C44.7969 126.435 45.98 129.047 47.164 131.64C47.291 131.901 47.459 132.164 47.606 132.405C48.741 134.202 49.802 136.048 50.989 137.794C52.719 140.758 54.8839 143.446 57.4129 145.766C58.2319 146.469 58.905 147.326 59.392 148.289C59.71 148.947 60.143 149.543 60.673 150.048L71.866 160.375C72.941 161.366 74.095 162.482 75.231 163.495C78.234 166.375 81.839 168.553 85.785 169.874C87.337 170.392 88.762 171.234 89.963 172.346C90.708 172.986 91.315 173.777 91.965 174.466C93.862 176.428 96.227 177.874 98.838 178.666C100.81 179.114 102.739 179.735 104.602 180.524C106.754 181.508 108.961 182.371 111.211 183.107C112.081 183.416 112.974 183.652 113.883 183.813C116.005 183.941 118.086 184.448 120.029 185.31C120.287 185.448 120.575 185.52 120.868 185.52C122.589 185.601 124.319 185.671 126.051 185.7C130.329 185.813 134.618 185.854 138.894 186.008C141.851 186.044 144.805 185.818 147.723 185.334C148.254 185.226 148.794 185.172 149.336 185.174C152.876 185.482 156.172 184.195 159.505 183.435C163.388 182.557 167.152 181.169 170.96 180.021C173.395 179.417 175.779 178.627 178.093 177.658C179.767 176.839 181.402 175.937 183.017 175.014C183.97 174.516 184.933 174.028 185.867 173.487C187.524 172.524 189.172 171.551 190.78 170.514C191.641 169.961 192.384 169.24 193.216 168.634C194.742 167.725 196.049 166.492 197.044 165.021C197.502 164.087 198.09 163.222 198.789 162.451C200.663 160.433 202.422 158.311 204.057 156.095C204.847 155.148 205.648 154.212 206.479 153.307C207.341 152.58 208.119 151.758 208.798 150.857C209.486 149.607 209.987 148.263 210.285 146.867C210.708 144.785 211.444 142.778 212.467 140.916C212.805 140.315 213.079 139.68 213.285 139.021C213.968 136.394 214.183 133.666 213.919 130.963C213.721 126.739 213.337 122.509 213.304 118.29C213.263 114.699 213.594 111.098 213.811 107.505C214.1 104.607 213.979 101.684 213.452 98.8199C213.131 97.4389 212.801 96.0059 212.417 94.6639C211.958 91.7919 211.217 88.9719 210.204 86.2459" fill="#FDFBF8"/>
<path d="M38.9279 105.668C38.3429 103.774 37.5439 101.079 36.6509 98.4129C35.4469 95.0189 34.0659 91.6909 32.5129 88.4429C31.5419 86.3339 30.8699 84.0999 30.5169 81.8049C30.0499 78.4829 29.2989 75.2069 28.2719 72.0139C27.5839 69.7569 26.6429 67.5839 25.4669 65.5379C24.4999 63.5279 23.9619 61.3379 23.8889 59.1079C23.8049 58.4249 23.6589 57.7599 23.5549 57.0759C23.3979 56.4959 23.3179 55.8969 23.3179 55.2949C23.4459 52.9299 22.9829 50.5699 21.9679 48.4279C21.1649 46.6239 20.4839 44.7679 19.9309 42.8719C19.3359 40.5169 19.3289 38.0509 19.9109 35.6919C20.3859 33.8799 20.8819 32.0689 21.1719 30.231C21.7439 27.152 23.3659 24.3665 25.7619 22.3487C27.4019 20.9298 29.2029 19.7078 31.1269 18.7075C31.3589 18.6215 31.5779 18.5028 31.7769 18.3549C33.8129 16.0514 36.8389 15.2205 39.2949 13.744C39.7419 13.5304 40.2019 13.3439 40.6719 13.1855C42.7699 12.3485 44.9069 11.5539 46.9549 10.6226C49.4179 9.74143 51.9619 9.10632 54.5499 8.72682C59.1819 7.62242 63.8549 7.96333 68.5489 7.92313C68.6969 7.92043 68.8449 7.92822 68.9919 7.94612C73.2559 8.42652 77.5189 8.89982 81.7829 9.36642C82.1669 9.46132 82.5659 9.48002 82.9569 9.42102C85.1879 8.96952 87.5039 9.20142 89.6009 10.0867C94.0839 11.2842 98.6529 12.133 103.267 12.6255C105.471 12.8246 107.686 12.8643 109.896 12.7442C110.546 12.7526 111.184 12.7916 111.872 12.8836C112.551 13.0122 113.239 13.0804 113.929 13.0872C116.203 12.9371 118.478 13.3718 120.536 14.35C122.901 15.3258 125.321 16.1693 127.729 17.0638C129.709 17.8016 131.743 18.4479 133.679 19.2875C136.355 20.2758 138.913 21.5603 141.304 23.1172C144.148 25.0892 147.266 26.6318 150.559 27.6952C151.018 27.8631 151.534 27.8779 152.004 28.0152C153.158 28.2778 154.286 28.6417 155.376 29.1026C157.58 30.0865 159.848 30.9202 162.164 31.5979C163.553 32.2219 164.87 32.9959 166.089 33.9079C166.839 34.3629 167.546 34.8989 168.284 35.4049C168.568 35.5989 168.873 35.7519 169.145 35.9769C171.581 38.0479 174.039 40.0989 176.443 42.2209C177.439 43.1059 178.265 44.1499 179.176 45.1149C179.78 45.7589 180.432 46.3569 181.125 46.9039C181.942 47.5359 182.824 48.0879 183.695 48.6489C185.486 49.7999 187.013 51.3169 188.177 53.0999C188.367 53.5029 188.637 53.8619 188.972 54.1539C190.357 55.0989 191.574 56.2669 192.575 57.6109C194.027 59.1479 195.266 60.8859 196.548 62.5619C197.771 64.1009 198.906 65.7079 199.948 67.3739C201.55 69.9269 202.727 72.7229 203.433 75.6539C203.978 78.2069 204.617 80.7519 205.308 83.2679C206.598 87.9259 207.575 92.6649 208.231 97.4529C208.622 99.9909 209.113 102.635 209.514 105.184C209.944 107.619 209.977 110.107 209.611 112.552C209.279 114.996 209.389 117.48 209.937 119.884C210.508 122.983 210.612 126.15 210.244 129.28C210.21 130.413 210.243 131.547 210.342 132.676C210.346 133.319 210.279 133.96 210.143 134.589C210.033 135.126 209.848 135.645 209.593 136.13C207.661 139.819 207.475 144.146 205.481 147.812C204.696 149.295 204.277 150.954 203.594 152.482C202.561 154.835 201.135 156.995 199.377 158.869C197.386 161.008 195.683 163.218 193.553 165.168C191.577 166.961 189.319 168.416 186.869 169.473C184.028 170.712 181.323 172.243 178.491 173.492C176.6 174.335 174.681 175.084 172.699 175.852C170.53 176.656 168.332 177.408 166.085 178.086C165.158 178.399 164.174 178.546 163.228 178.777C162.933 178.811 162.644 178.893 162.376 179.021C160.21 180.444 157.64 180.504 155.239 181.126C153.638 181.554 152.028 181.611 150.412 181.853L142.807 183.016C138.715 183.696 134.537 183.673 130.452 182.949C128.078 182.517 125.712 182.077 123.352 181.631C123.01 181.583 122.676 181.487 122.36 181.345C119.641 179.781 116.429 179.565 113.61 178.256C113.144 178.074 112.653 177.962 112.154 177.925C109.911 177.585 107.72 176.957 105.638 176.057C103.005 175.073 100.361 174.1 97.6729 173.249C94.1339 172.126 90.8129 170.404 87.8559 168.159C84.7309 165.819 81.3999 163.769 77.9029 162.035C77.5879 161.888 77.2819 161.721 76.9889 161.534C73.7599 159.531 70.8059 157.116 68.2019 154.35C66.4159 152.246 64.1109 150.632 62.6109 148.258C61.8219 146.997 61.0329 145.737 60.1809 144.536C58.8619 142.693 57.5649 140.83 56.1299 139.077C54.3589 136.766 52.9279 134.214 51.8819 131.497C50.2799 127.676 48.5209 123.922 46.6259 120.237C45.5109 118.261 44.2669 116.361 42.9009 114.549C41.1349 111.825 39.7559 108.87 38.8009 105.767L38.9279 105.668ZM198.682 79.7979L198.746 79.7379L197.487 75.4719C197.026 73.1479 196.18 70.9169 194.985 68.8709C193.727 67.0509 192.47 65.2299 191.202 63.4189C189.933 61.6089 188.743 59.9649 187.597 58.1999C186.562 56.2349 185.134 54.5049 183.401 53.1169C183.128 52.9029 182.889 52.6489 182.69 52.3649C180.988 50.4299 178.905 48.8669 176.572 47.7739C174.383 46.6169 172.433 45.0559 170.825 43.1729C169.641 41.8489 168.292 40.6829 166.809 39.7049C165.361 38.7659 163.956 37.7659 162.519 36.8169C161.847 36.3219 161.139 35.8779 160.402 35.4879C158.855 34.6129 157.163 34.0229 155.408 33.7449C154.965 33.6949 154.535 33.5639 154.14 33.3579C152.136 32.4029 150.121 31.4369 148.149 30.4314C145.821 29.2607 143.504 28.0387 141.166 26.8574C140.109 26.2285 138.999 25.6927 137.849 25.256C135.017 24.3803 132.151 23.6169 129.295 22.8849C126.438 22.1528 123.916 21.6057 121.243 20.9615C119.839 20.6729 118.455 20.299 117.097 19.8416C114.008 18.6521 110.764 17.9127 107.465 17.6459C106.094 17.4929 104.733 17.2574 103.39 16.9406C101.985 16.6629 100.603 16.3033 99.2099 15.9744C97.8919 15.8145 96.5989 15.4933 95.3589 15.0178C93.6709 14.1988 91.8919 13.5832 90.0589 13.1839C87.3119 12.5896 84.4969 12.3732 81.6909 12.5407C78.1509 12.6348 74.6279 13.1935 71.0669 12.5443C66.8279 11.7356 62.4629 11.8775 58.2859 12.9601C54.5449 13.8827 50.7409 14.5249 46.9049 14.8811C41.8039 15.4254 37.6149 17.9762 33.4339 20.6201C33.2739 20.7406 33.1289 20.8782 32.9989 21.0305C30.6259 23.3354 28.5399 25.9177 26.7849 28.7217C26.5019 29.1275 26.2909 29.5783 26.1589 30.0549C25.6859 32.1249 25.1729 34.1939 24.8969 36.2799C24.6199 38.3649 24.6119 40.4179 24.5529 42.4789C24.5279 43.1219 24.6069 43.7659 24.7869 44.3839C25.8859 48.1179 27.0579 51.8449 28.1259 55.5889C29.0719 58.9059 30.2049 62.1879 29.9489 65.7189C29.9389 66.1649 30.0059 66.6109 30.1479 67.0339C31.1539 70.7969 32.1279 74.5689 33.2279 78.3039C34.3989 82.4349 35.9619 86.4449 37.8959 90.2799C38.5499 91.5459 38.9629 92.9609 39.6919 94.1779C41.0689 96.6929 42.0329 99.4129 42.5439 102.234C43.3119 105.452 44.5059 108.552 46.0949 111.454C47.4919 114.145 49.1779 116.845 50.7409 119.52C52.2629 122.166 53.5429 124.944 54.5659 127.82C54.8249 128.518 55.0309 129.226 55.3099 129.925C56.1789 132.234 57.4319 134.38 59.0159 136.272C59.7339 137.206 60.3749 138.197 60.9319 139.236C61.8339 140.989 62.8319 142.691 63.9209 144.335C65.9569 147.065 68.1719 149.645 70.3969 152.257C71.2199 153.239 72.1259 154.148 73.1039 154.975C76.0039 157.27 79.1289 159.265 82.4319 160.927C82.6969 161.059 82.9829 161.15 83.2469 161.281C84.4079 161.809 85.5789 162.328 86.7499 162.867C88.3069 163.603 89.8739 164.329 91.3979 165.136C94.3239 166.685 97.1959 168.325 100.123 169.853C101.379 170.539 102.695 171.108 104.055 171.555C108.39 172.897 112.804 173.983 117.084 175.458C120.397 176.431 123.807 177.037 127.253 177.267C130.234 177.621 133.204 177.665 136.239 177.907C136.631 177.932 137.023 177.937 137.415 177.92C139.046 177.885 140.666 177.839 142.297 177.824C146.083 177.778 149.916 178.652 153.659 177.986C155.607 177.671 157.6 177.573 159.511 177.133C161.961 176.585 164.333 175.869 166.759 175.083C171.667 173.718 176.283 171.467 180.38 168.441C180.701 168.209 181.034 167.994 181.378 167.799L185.311 165.189C185.938 164.72 186.609 164.314 187.316 163.978C190.596 162.768 193.501 160.718 195.739 158.032C197.087 156.338 198.55 154.637 199.795 152.94C201.334 150.874 202.402 148.497 202.925 145.975C203.148 144.42 203.555 142.898 204.138 141.44C204.723 140.126 205.297 138.823 205.809 137.497C206.261 136.403 206.625 135.275 206.897 134.124C207.648 129.959 207.86 125.715 207.528 121.496C207.352 118.294 207.29 115.105 207.433 111.901C207.839 106.915 207.116 101.903 205.318 97.2349C204.199 94.5409 203.466 91.7039 202.451 88.9729C201.292 85.8759 200.029 82.8169 198.818 79.7499" fill="#FDFBF8"/>
<path d="M166.543 100.533C167.707 103.258 168.412 106.157 168.627 109.112C168.826 112.935 168.584 116.713 166.179 119.986C165.941 120.357 165.772 120.768 165.68 121.199C165.147 123.159 164.307 125.022 163.19 126.718C163.113 126.778 163.042 126.845 162.978 126.918C161.591 130.034 159.575 132.831 157.058 135.133C156.617 135.6 156.149 136.041 155.658 136.454C154.159 137.649 152.66 138.844 151.131 140.006C148.783 141.91 145.982 143.172 143.001 143.671C139.738 144.145 136.474 144.68 133.219 145.226C132.348 145.386 131.513 145.713 130.651 145.925C130.099 146.101 129.528 146.209 128.95 146.248C126.815 146.258 124.619 146.206 122.456 146.102C120.791 145.947 119.154 145.57 117.589 144.982C114.42 143.757 111.333 142.332 108.346 140.714C106.936 139.994 105.667 139.024 104.602 137.852C101.069 134.119 98.2409 129.778 96.2549 125.038C95.5589 123.409 94.7279 121.828 93.8859 120.277C92.8969 118.181 92.4219 115.879 92.5009 113.563C92.5329 113.176 92.5339 112.786 92.5029 112.398C92.1299 110.55 92.2449 108.637 92.8389 106.848C94.0099 102.715 95.0769 98.5991 96.2079 94.4231C96.4109 93.2781 96.6809 92.1461 97.0169 91.0321C97.4839 89.9561 98.1039 88.9521 98.8569 88.0531C99.7769 86.9031 100.847 85.9131 101.794 84.9191C101.985 84.6981 102.198 84.4971 102.43 84.3181C104.947 82.8851 107.524 81.5151 110.001 80.0191C110.724 79.6171 111.339 79.0361 112.063 78.6131C113.344 77.8461 114.624 77.0781 115.92 76.4761C116.977 75.9601 118.141 75.6421 119.218 75.1471C122.176 74.0511 125.302 73.4741 128.457 73.4431C130.912 73.2511 133.376 73.2081 135.836 73.3151C137.907 73.4521 139.934 73.9721 141.816 74.8491C144.467 75.9161 147.195 76.8091 149.791 77.9871C151.303 78.8081 152.765 79.7181 154.169 80.7131C156.338 82.0331 157.502 84.2431 159.099 86.0841C162.711 90.3351 164.45 95.4701 166.503 100.47L166.543 100.533ZM143.312 138.605C143.973 138.293 144.597 137.906 145.171 137.452C147.937 134.775 151.045 132.475 154.413 130.611C154.857 130.323 155.245 129.957 155.558 129.53C156.399 128.316 157.304 127.147 158.269 126.029C160.153 124.197 161.416 121.82 161.879 119.233C162.359 116.817 162.619 114.363 162.657 111.901C162.634 110.276 162.799 108.654 163.147 107.067C163.797 104.716 163.488 102.203 162.286 100.08C160.919 97.6181 159.812 95.0221 158.981 92.3311C158.266 90.2211 157.042 88.3191 155.417 86.7931C153.088 84.6541 150.608 82.6871 147.995 80.9061C146.841 80.0491 145.493 79.4891 144.071 79.2771C142.232 79.0081 140.376 78.6341 138.555 78.4681C135.228 77.9691 131.837 78.1021 128.559 78.8611C125.84 79.5951 123.056 80.0611 120.247 80.2521C118.722 80.3841 117.226 80.7481 115.811 81.3311C113.339 82.3011 110.952 83.5121 108.518 84.5871C107.073 85.2391 105.817 86.2461 104.865 87.5141C104.019 88.5931 103.122 89.6611 102.185 90.6651C101.005 91.8711 100.077 93.2991 99.4549 94.8671C97.9389 98.8051 95.8499 102.561 95.4059 106.87C95.1449 108.136 95.0179 109.425 95.0269 110.717C95.2909 113.014 95.7929 115.288 96.2739 117.561C96.4139 118.189 96.6659 118.786 97.0179 119.325C97.9669 120.755 99.0209 122.127 100.001 123.547C100.506 124.273 100.969 125.019 101.443 125.775C101.916 126.532 102.168 127.096 102.664 127.791C104.478 130.488 106.479 133.055 108.652 135.472C110.063 136.895 111.721 138.047 113.546 138.873C115.03 139.637 116.679 140.067 118.228 140.689C120.488 141.519 122.888 141.896 125.293 141.8C127.549 141.582 129.785 141.188 131.98 140.621C133.661 140.277 135.268 139.983 136.916 139.711C139.009 139.358 141.101 139.068 143.236 138.737" fill="#FDFBF8"/>
<path d="M94.0199 102.812C94.0229 102.776 94.0229 102.74 94.0199 102.704L94.1159 102.746L94.0139 102.812" fill="#FFD560"/>
<path d="M132 119.542C132 120.327 132 121.112 131.964 121.892C131.934 122.239 131.88 122.583 131.802 122.923C131.711 122.978 131.626 123.045 131.55 123.12C131.486 123.213 131.433 123.314 131.394 123.42L131.7 123.546C131.526 124.289 131.383 125.039 131.155 125.77C130.771 127.011 130.352 128.24 129.914 129.462C129.686 130.116 129.398 130.751 129.123 131.387C129.058 131.492 128.974 131.586 128.877 131.662C128.829 131.71 128.733 131.752 128.733 131.8C128.673 132.52 128.164 132.999 127.834 133.598C127.633 133.973 127.381 134.318 127.085 134.623C126.705 134.973 126.294 135.286 125.856 135.559C124.121 136.666 122.385 137.765 120.647 138.856C119.731 139.511 118.687 139.964 117.584 140.186C117.178 140.271 116.778 140.379 116.385 140.51C116.253 140.288 116.127 140.21 115.869 140.408C115.783 140.449 115.689 140.471 115.593 140.471C115.498 140.471 115.404 140.449 115.318 140.408C115.036 140.282 115.036 140.408 115.042 140.606C114.798 140.547 114.549 140.509 114.299 140.492C114.023 140.516 113.748 140.558 113.478 140.618C112.414 140.736 111.337 140.661 110.301 140.396C109.659 140.276 109.012 140.168 108.382 140.006C107.753 139.845 106.98 139.605 106.284 139.365C105.361 139.049 104.446 138.712 103.539 138.352C102.515 137.922 101.57 137.327 100.74 136.59C99.462 135.45 98.334 134.153 97.383 132.729C97.083 132.316 96.783 131.884 96.52 131.458C95.654 130.074 95.056 128.539 94.757 126.933C94.462 125.749 94.24 124.548 94.092 123.336C93.924 121.937 93.987 120.519 94.278 119.14C94.511 118.175 94.877 117.246 95.177 116.305C95.531 115.214 95.902 114.135 96.274 113.05C96.394 112.702 96.538 112.367 96.663 112.025C96.873 111.479 97.089 110.94 97.263 110.394C97.611 109.375 98.324 108.596 98.839 107.649C99.213 106.89 99.762 106.231 100.44 105.725C100.517 105.767 100.6 105.799 100.686 105.821C100.799 105.83 100.914 105.83 101.027 105.821C101.027 105.713 100.991 105.605 100.967 105.497C100.954 105.448 100.938 105.4 100.919 105.353C101.387 105.042 101.837 104.688 102.328 104.412C103.485 103.765 104.642 103.123 105.829 102.542C106.391 102.318 106.967 102.133 107.555 101.99C108.309 101.7 109.077 101.45 109.857 101.241C110.959 100.959 112.109 100.924 113.226 101.139C114.269 101.391 115.3 101.667 116.331 101.954C117.662 102.326 119.022 102.644 120.311 103.153C121.413 103.588 122.481 104.105 123.506 104.7C124.345 105.181 125.157 105.707 125.94 106.276C127.594 107.433 129.147 108.716 130.106 110.544C130.397 111.147 130.618 111.78 130.765 112.433C131.023 113.44 131.221 114.465 131.443 115.478L131.185 115.634C131.311 115.819 131.185 116.233 131.58 116.191L131.976 119.254C131.852 119.242 131.728 119.242 131.604 119.254C131.604 119.254 131.556 119.446 131.604 119.476C131.69 119.523 131.783 119.554 131.88 119.566C131.916 119.572 131.952 119.572 131.988 119.566L132 119.542ZM127.582 130.991H128.235C128.235 130.613 128.056 130.583 127.798 130.667C127.972 130.254 128.158 129.846 128.307 129.426C128.703 128.317 129.057 127.191 129.506 126.094C129.946 124.909 130.247 123.678 130.405 122.425C130.507 121.724 130.543 121.01 130.609 120.303C130.795 120.303 131.101 120.411 131.077 119.979L130.555 120.033C130.554 119.871 130.544 119.709 130.525 119.548C130.31 118.085 130.13 116.611 129.86 115.154C129.716 114.357 129.404 113.589 129.219 112.798C129.124 112.176 128.877 111.587 128.499 111.084C127.9 110.406 127.384 109.693 126.755 109.07C126.228 108.573 125.658 108.124 125.052 107.727C124.195 107.128 123.314 106.528 122.427 105.995C121.984 105.731 121.524 105.498 121.048 105.299C120.449 105.029 119.849 104.76 119.25 104.544C118.651 104.328 117.997 104.19 117.374 104.023C116.499 103.789 115.629 103.549 114.754 103.339C113.879 103.129 112.956 102.74 112.033 102.86C111.11 102.979 110.277 103.117 109.407 103.303C108.97 103.393 108.574 103.663 108.143 103.765C106.87 104.052 105.654 104.551 104.546 105.239C103.575 105.839 102.616 106.438 101.645 107.038V106.552L101.507 106.504C101.434 106.656 101.37 106.812 101.315 106.972C101.289 107.1 101.273 107.23 101.267 107.361C100.764 108.105 100.278 108.854 99.75 109.579C99.229 110.319 98.81 111.125 98.504 111.977C98.354 112.367 98.228 112.762 98.09 113.176C97.539 114.774 96.985 116.353 96.43 117.911C95.99 119.036 95.767 120.234 95.77 121.442C95.73 122.007 95.72 122.573 95.74 123.138C95.854 124.061 96.094 124.973 96.25 125.896C96.471 127.22 96.875 128.507 97.449 129.72C97.865 130.536 98.354 131.313 98.911 132.04C99.643 133.09 100.472 134.07 101.387 134.965C102.232 135.811 103.223 136.498 104.312 136.991C105.121 137.321 105.961 137.591 106.782 137.872C107.894 138.339 109.06 138.665 110.253 138.844C111.05 138.927 111.835 139.101 112.65 139.173C113.202 139.221 113.765 139.173 114.317 139.173H115.516L115.408 139.617C115.619 139.609 115.825 139.55 116.007 139.443C116.223 139.323 116.199 139.203 116.007 139.107C116.487 138.975 116.978 138.856 117.458 138.706C118.02 138.578 118.567 138.389 119.088 138.142C120.347 137.417 121.564 136.608 122.799 135.834C123.476 135.403 124.159 134.971 124.831 134.534C125.246 134.329 125.623 134.055 125.946 133.724C126.661 132.91 127.242 131.988 127.666 130.991H127.582ZM113.31 140.054C113.474 140.146 113.644 140.227 113.819 140.294C113.909 140.294 114.023 140.246 114.191 140.198L114.005 140.096L113.843 140.018C114.221 139.839 114.227 139.737 113.951 139.521L113.31 140.054ZM117.176 139.767C117.378 139.755 117.578 139.727 117.775 139.683C117.871 139.683 117.943 139.557 118.027 139.491C117.925 139.443 117.823 139.341 117.727 139.347C117.537 139.374 117.35 139.423 117.17 139.491C117.144 139.504 117.122 139.524 117.105 139.548C117.088 139.572 117.078 139.6 117.074 139.629C117.074 139.677 117.14 139.725 117.17 139.767H117.176ZM131.598 117.797L131.269 117.198C131.173 117.264 131.005 117.336 131.005 117.402C131.005 117.69 131.209 117.755 131.604 117.785L131.598 117.797ZM131.334 118.583V118.361L130.891 118.295C130.891 118.433 130.891 118.571 130.891 118.709L131.34 118.583H131.334ZM111.763 140.282C111.763 140.318 111.763 140.36 111.763 140.396C111.763 140.432 112.021 140.312 112.015 140.288C111.981 140.111 111.933 139.936 111.871 139.767L111.655 139.821L111.811 140.222L111.739 140.282H111.763ZM98.072 110.311C97.928 110.43 97.808 110.484 97.766 110.574C97.724 110.664 97.844 110.808 97.862 110.802C97.979 110.788 98.09 110.74 98.18 110.664C98.18 110.664 98.126 110.49 98.072 110.311ZM114.586 139.641L114.407 139.563C114.365 139.737 114.317 139.904 114.281 140.072L114.425 140.12C114.484 139.964 114.538 139.803 114.586 139.641ZM131.233 121.112L131.706 121.412C131.442 120.884 131.442 120.884 131.233 121.112ZM108.454 139.815L108.55 139.934L108.934 139.665C108.886 139.605 108.832 139.545 108.784 139.479L108.454 139.815Z" fill="#F8BB46"/>
<path d="M101.609 107.049C102.58 106.45 103.539 105.85 104.51 105.251C105.618 104.562 106.834 104.064 108.106 103.776C108.538 103.675 108.94 103.405 109.371 103.315C110.24 103.129 111.115 102.979 111.997 102.871C112.878 102.763 113.795 103.141 114.718 103.351C115.641 103.561 116.462 103.806 117.338 104.034C117.937 104.202 118.602 104.346 119.214 104.556C119.825 104.765 120.413 105.041 121.012 105.311C121.485 105.515 121.946 105.747 122.391 106.006C123.278 106.558 124.189 107.139 125.016 107.745C125.622 108.139 126.192 108.587 126.719 109.081C127.318 109.681 127.888 110.418 128.463 111.095C128.841 111.601 129.088 112.192 129.182 112.816C129.368 113.601 129.68 114.368 129.824 115.166C130.094 116.622 130.273 118.097 130.489 119.559C130.508 119.721 130.518 119.883 130.519 120.045L130.573 120.315C130.507 121.022 130.471 121.735 130.369 122.437C130.211 123.69 129.909 124.921 129.47 126.105C129.051 127.202 128.697 128.329 128.271 129.438C128.121 129.864 127.936 130.265 127.762 130.679L127.546 130.997C127.121 131.992 126.542 132.914 125.832 133.73C125.505 134.06 125.127 134.333 124.711 134.539C124.039 134.977 123.356 135.408 122.679 135.84C121.444 136.613 120.227 137.423 118.968 138.148C118.447 138.395 117.9 138.584 117.338 138.711C116.858 138.861 116.373 138.981 115.887 139.113H115.821L115.449 139.197H114.251C113.699 139.197 113.136 139.263 112.584 139.197C111.787 139.125 111.002 138.951 110.186 138.867C108.994 138.689 107.828 138.363 106.716 137.896C105.895 137.602 105.055 137.345 104.246 137.015C103.157 136.521 102.166 135.835 101.321 134.989C100.403 134.096 99.5739 133.116 98.8449 132.064C97.4389 130.282 96.5239 128.164 96.1899 125.919C96.0339 124.996 95.7939 124.085 95.6799 123.162C95.6599 122.598 95.6699 122.034 95.7099 121.472C95.7059 120.262 95.9299 119.062 96.3699 117.935C96.9289 116.357 97.4819 114.778 98.0299 113.199C98.1679 112.81 98.2939 112.414 98.4439 112.001C98.7489 111.149 99.1679 110.342 99.6899 109.603C100.218 108.878 100.703 108.128 101.207 107.385L101.597 107.061L101.609 107.049ZM126.071 126.243C126.443 125.11 126.713 124.313 126.971 123.51C127.309 122.326 127.423 121.09 127.306 119.865C127.216 118.891 127.054 117.926 126.821 116.976C126.677 116.173 126.438 115.39 126.107 114.644C125.338 113.084 124.326 111.656 123.11 110.412C122.508 109.812 121.836 109.286 121.108 108.848C120.365 108.455 119.591 108.124 118.794 107.859C118.063 107.557 117.314 107.299 116.552 107.085C115.725 106.838 114.873 106.683 114.011 106.624C112.56 106.588 111.074 106.408 109.659 106.953C109.286 107.065 108.921 107.203 108.568 107.367C107.201 108.134 105.847 108.92 104.498 109.711C103.94 109.972 103.423 110.313 102.963 110.724C102.094 111.695 101.392 112.803 100.883 114.003C100.602 114.662 100.362 115.339 100.116 116.017C99.8279 116.796 99.5159 117.575 99.2949 118.367C98.8459 119.793 98.6829 121.295 98.8149 122.784C98.9529 124.169 99.1929 125.542 99.4149 126.915C99.7069 128.682 100.661 130.272 102.082 131.362C103.275 132.396 104.585 133.287 105.984 134.018C106.878 134.443 107.783 134.827 108.73 135.163C109.551 135.456 110.408 135.666 111.247 135.906C111.717 136.08 112.203 136.207 112.698 136.284C113.458 136.341 114.221 136.317 114.976 136.212C115.676 136.059 116.365 135.859 117.038 135.612C117.563 135.495 118.078 135.337 118.579 135.139C119.463 134.722 120.324 134.256 121.156 133.742C121.789 133.383 122.36 132.923 122.846 132.381C123.794 131.146 124.572 129.789 125.16 128.347C125.508 127.538 125.844 126.723 126.053 126.231" fill="#F8E8B7"/>
<path d="M126.083 126.243C125.873 126.734 125.538 127.55 125.19 128.359C124.602 129.801 123.824 131.157 122.876 132.393C122.39 132.935 121.819 133.395 121.186 133.754C120.353 134.267 119.493 134.734 118.608 135.15C118.108 135.349 117.593 135.507 117.068 135.624C116.395 135.87 115.706 136.071 115.006 136.223C114.251 136.328 113.488 136.353 112.728 136.295C112.233 136.218 111.747 136.092 111.277 135.918C110.438 135.678 109.581 135.468 108.76 135.174C107.83 134.839 106.907 134.455 106.014 134.029C104.614 133.299 103.305 132.408 102.112 131.374C100.69 130.284 99.7369 128.694 99.4439 126.926C99.2229 125.554 98.9829 124.181 98.8449 122.796C98.7129 121.306 98.8759 119.805 99.3249 118.378C99.5639 117.587 99.8579 116.808 100.146 116.029C100.392 115.351 100.631 114.674 100.913 114.014C101.421 112.815 102.124 111.707 102.993 110.736C103.452 110.325 103.969 109.983 104.528 109.722C105.876 108.931 107.231 108.146 108.598 107.379C108.951 107.215 109.316 107.077 109.689 106.965C111.103 106.42 112.59 106.6 114.041 106.635C114.903 106.692 115.755 106.846 116.582 107.097C117.344 107.311 118.093 107.569 118.824 107.87C119.621 108.136 120.395 108.467 121.138 108.859C121.866 109.298 122.538 109.823 123.14 110.424C124.356 111.667 125.368 113.096 126.137 114.656C126.467 115.402 126.707 116.185 126.85 116.988C127.083 117.937 127.246 118.903 127.336 119.877C127.452 121.102 127.338 122.338 127 123.521C126.743 124.325 126.473 125.122 126.101 126.255L126.083 126.243ZM109.173 121.106C108.927 121.004 108.688 120.896 108.436 120.8C108.341 120.769 108.242 120.751 108.142 120.746C108.037 120.728 107.928 120.738 107.828 120.775C107.728 120.813 107.64 120.876 107.572 120.96C107.505 121.043 107.461 121.142 107.446 121.248C107.43 121.354 107.443 121.462 107.483 121.561C107.557 121.803 107.709 122.014 107.914 122.161C108.502 122.395 109.102 122.596 109.713 122.76C109.778 122.762 109.842 122.749 109.902 122.722C109.961 122.695 110.013 122.655 110.054 122.604C110.138 122.502 110.195 122.381 110.222 122.252C110.248 122.123 110.243 121.989 110.206 121.862C110.17 121.736 110.103 121.62 110.012 121.524C109.921 121.429 109.808 121.358 109.683 121.316L109.161 121.094L109.173 121.106ZM113.309 125.889C113.771 126.069 114.065 125.889 114.041 125.422C114.031 125.133 113.991 124.845 113.921 124.564C113.865 124.083 113.627 123.641 113.255 123.33C112.932 123.12 112.656 123.21 112.56 123.563C112.473 123.941 112.479 124.334 112.577 124.709C112.675 125.083 112.863 125.429 113.123 125.715C113.179 125.78 113.241 125.838 113.309 125.889ZM113.969 119.769H114.041C114.137 119.295 114.268 118.822 114.322 118.342C114.327 118.244 114.308 118.147 114.266 118.058C114.224 117.969 114.161 117.892 114.083 117.833C113.985 117.822 113.886 117.833 113.793 117.867C113.701 117.9 113.617 117.954 113.549 118.025C113.046 118.657 112.736 119.421 112.656 120.225C112.658 120.266 112.67 120.306 112.691 120.341C112.712 120.377 112.741 120.406 112.776 120.428C112.872 120.488 112.981 120.525 113.095 120.536C113.208 120.546 113.322 120.53 113.428 120.489C113.534 120.447 113.629 120.382 113.705 120.298C113.781 120.213 113.836 120.112 113.867 120.003L113.969 119.757" fill="white"/>
<path d="M115.018 140.624C115.018 140.432 115.018 140.3 115.294 140.426C115.379 140.47 115.474 140.493 115.57 140.493C115.665 140.493 115.76 140.47 115.845 140.426C116.103 140.228 116.229 140.306 116.361 140.534L115.018 140.642" fill="#FFD560"/>
<path d="M131.574 116.167C131.155 116.167 131.304 115.795 131.178 115.609C131.268 115.562 131.352 115.508 131.436 115.454C131.484 115.693 131.526 115.927 131.574 116.167Z" fill="#FFD560"/>
<path d="M100.913 105.335C100.932 105.382 100.948 105.43 100.961 105.479C100.961 105.587 101.003 105.695 101.021 105.803C100.908 105.812 100.793 105.812 100.68 105.803C100.594 105.781 100.511 105.749 100.434 105.707C100.596 105.587 100.758 105.467 100.913 105.341" fill="#FFD560"/>
<path d="M131.67 123.546L131.364 123.42C131.403 123.314 131.455 123.213 131.52 123.12C131.596 123.047 131.681 122.982 131.772 122.928C131.772 123.132 131.706 123.342 131.67 123.528" fill="#FFD560"/>
<path d="M132 119.541C131.964 119.547 131.928 119.547 131.892 119.541C131.795 119.53 131.702 119.499 131.616 119.452C131.58 119.452 131.616 119.236 131.616 119.23C131.74 119.218 131.864 119.218 131.988 119.23V119.541" fill="#FFD560"/>
<path d="M113.208 140.03L113.849 139.497C114.125 139.718 114.119 139.814 113.741 139.994L113.903 140.078L114.089 140.174C113.921 140.222 113.807 140.294 113.717 140.27C113.541 140.205 113.37 140.125 113.208 140.03Z" fill="#FFD560"/>
<path d="M117.074 139.749C117.074 139.701 116.984 139.653 116.984 139.605C116.986 139.576 116.995 139.548 117.011 139.524C117.027 139.5 117.048 139.48 117.074 139.467C117.256 139.398 117.445 139.35 117.637 139.323C117.727 139.323 117.829 139.419 117.931 139.467C117.847 139.533 117.775 139.635 117.685 139.659C117.488 139.702 117.288 139.732 117.086 139.749" fill="#FFD560"/>
<path d="M115.815 139.065H115.881C116.097 139.161 116.121 139.281 115.881 139.401C115.698 139.508 115.492 139.567 115.281 139.575L115.389 139.131C115.533 139.197 115.683 139.275 115.761 139.047" fill="#FFD560"/>
<path d="M131.502 117.773C131.113 117.773 130.903 117.677 130.903 117.389C130.903 117.323 131.071 117.251 131.167 117.186L131.496 117.785" fill="#FFD560"/>
<path d="M131.233 118.57L130.783 118.696C130.783 118.558 130.783 118.421 130.783 118.283L131.227 118.349V118.57" fill="#FFD560"/>
<path d="M101.609 107.05L101.219 107.373C101.225 107.242 101.241 107.112 101.267 106.984C101.322 106.824 101.386 106.668 101.459 106.516L101.597 106.564V107.05" fill="#FFD560"/>
<path d="M111.655 140.27L111.727 140.21L111.571 139.809L111.787 139.755C111.849 139.924 111.897 140.099 111.931 140.276C111.931 140.276 111.769 140.348 111.679 140.384C111.589 140.42 111.679 140.306 111.679 140.27" fill="#FFD560"/>
<path d="M127.564 130.967L127.78 130.649C128.044 130.565 128.223 130.595 128.217 130.973H127.564" fill="#FFD560"/>
<path d="M97.988 110.28C98.042 110.454 98.126 110.598 98.096 110.628C98.007 110.703 97.899 110.751 97.784 110.766C97.784 110.766 97.658 110.592 97.682 110.538C97.706 110.484 97.844 110.394 97.988 110.28Z" fill="#FFD560"/>
<path d="M130.561 120.285L130.507 120.015L131.029 119.961C131.029 120.393 130.747 120.255 130.561 120.285Z" fill="#FFD560"/>
<path d="M114.503 139.605C114.455 139.766 114.401 139.928 114.341 140.084L114.197 140.036C114.233 139.868 114.281 139.7 114.323 139.527L114.503 139.605Z" fill="#FFD560"/>
<path d="M131.149 121.076C131.358 120.848 131.358 120.848 131.622 121.376L131.149 121.076Z" fill="#FFD560"/>
<path d="M108.34 139.779L108.67 139.443C108.718 139.509 108.772 139.569 108.82 139.629L108.436 139.898L108.34 139.779Z" fill="#FFD560"/>
<path d="M115.815 139.065C115.737 139.293 115.587 139.215 115.443 139.149L115.815 139.065Z" fill="#FFD560"/>
<path d="M109.155 121.094L109.677 121.316C109.802 121.358 109.915 121.43 110.006 121.525C110.098 121.62 110.164 121.736 110.201 121.863C110.237 121.99 110.243 122.123 110.216 122.253C110.19 122.382 110.132 122.503 110.049 122.605C110.007 122.655 109.955 122.695 109.896 122.722C109.837 122.749 109.772 122.762 109.707 122.761C109.096 122.596 108.496 122.396 107.909 122.161C107.703 122.014 107.551 121.804 107.477 121.562C107.437 121.463 107.424 121.355 107.44 121.249C107.456 121.143 107.499 121.043 107.567 120.96C107.634 120.877 107.722 120.813 107.823 120.776C107.923 120.738 108.031 120.728 108.136 120.747C108.236 120.752 108.335 120.77 108.43 120.801C108.682 120.896 108.922 121.004 109.167 121.106" fill="#F8BB46"/>
<path d="M113.303 125.89C113.235 125.839 113.173 125.78 113.118 125.716C112.857 125.429 112.669 125.084 112.571 124.709C112.473 124.334 112.467 123.941 112.554 123.564C112.644 123.21 112.926 123.12 113.249 123.33C113.621 123.641 113.859 124.083 113.915 124.565C113.985 124.845 114.025 125.133 114.035 125.422C114.035 125.872 113.765 126.069 113.303 125.89Z" fill="#F8BB46"/>
<path d="M113.963 119.77L113.861 120.016C113.831 120.125 113.775 120.226 113.699 120.31C113.623 120.395 113.528 120.46 113.422 120.502C113.316 120.543 113.202 120.559 113.089 120.548C112.976 120.538 112.867 120.501 112.77 120.441C112.735 120.419 112.706 120.389 112.686 120.354C112.665 120.318 112.653 120.278 112.65 120.237C112.73 119.433 113.04 118.669 113.543 118.037C113.612 117.967 113.695 117.913 113.788 117.879C113.88 117.846 113.979 117.835 114.077 117.846C114.156 117.904 114.219 117.982 114.26 118.07C114.302 118.159 114.322 118.257 114.317 118.355C114.263 118.835 114.131 119.308 114.035 119.782H113.963" fill="#F8BB46"/>
<path d="M28.7009 396.831C25.5779 392.4 22.8779 387.653 20.7249 382.673C18.3069 377.087 16.6249 370.573 18.4889 364.563C20.1069 359.349 24.0919 354.798 29.6559 353.877C34.3519 353.101 38.6979 355.278 42.1859 358.236C45.3239 360.899 47.3089 363.082 49.8669 366.301C50.2959 366.619 53.1099 369.07 53.5449 369.368C57.8359 372.33 60.6279 373.792 65.3759 375.96C74.8809 380.295 85.1219 382.98 95.5129 384.096C105.789 385.198 116.27 384.746 126.43 382.725C125.222 382.649 124.013 382.553 122.802 382.437C109.029 381.126 101.223 377.433 87.3649 371.891C85.4699 371.131 80.0689 368.557 78.3119 367.529C73.8769 365.255 70.7509 363.534 67.0579 361.444C65.3589 360.482 63.6799 359.482 62.0099 358.476C60.4999 357.568 58.5699 356.737 57.4749 355.309C56.5979 354.169 55.7659 353.55 56.6959 352.372C56.8339 352.201 56.9809 352.051 57.1389 351.914C57.0619 351.496 57.0779 351.053 57.1919 350.638C57.4099 349.884 57.9009 349.382 58.5219 349.063C58.3279 348.486 58.6109 347.869 58.5779 347.159C58.5409 346.355 62.9879 346.551 66.1219 346.795C68.8389 347.004 73.4359 346.395 76.7269 345.932C79.7079 345.935 87.0209 344.092 90.9469 342.883C90.9319 342.881 91.6949 342.736 91.6799 342.734C86.4339 342.691 76.2999 340.311 71.1979 338.982C69.9389 338.654 68.6889 338.257 67.4859 337.768C66.5279 337.378 65.3389 336.961 64.7189 336.079C64.1149 335.218 64.2139 334.134 64.9359 333.375C65.0129 333.295 65.0909 333.226 65.1729 333.162C64.7299 332.523 64.5279 331.73 64.7249 330.924C64.9419 330.025 65.5799 329.346 66.3729 328.99C65.6429 327.825 65.5579 326.407 66.9869 325.387C67.7359 324.857 68.7169 324.875 69.3729 325.368C76.7819 325.748 84.5319 326.076 91.5019 323.099C97.5409 320.516 102.342 315.521 102.971 308.776C103.563 302.428 100.977 296.093 97.3629 290.998C93.7629 285.92 88.9359 282.086 83.4809 279.166C81.2049 277.946 78.7919 276.959 76.3039 276.224C67.4659 276.58 58.6319 276.94 49.7989 277.292C44.2039 277.514 38.6139 277.725 33.0249 277.937C30.2459 278.04 27.4709 278.14 24.6909 278.252C22.1389 278.352 19.5679 278.543 17.0139 278.533C16.2649 278.528 15.4279 278.454 14.6429 278.242C14.5109 278.234 14.3719 278.225 14.2399 278.217C14.1849 278.218 14.1299 278.219 14.0719 278.216L13.8639 278.198C13.0249 278.229 12.1799 278.189 11.4289 277.79C10.5619 277.33 10.0229 276.391 10.2099 275.411C10.2619 275.148 10.3539 274.91 10.4829 274.691C9.98289 274.221 9.71589 273.514 9.89489 272.666C9.98789 272.225 10.1899 271.859 10.4639 271.569C10.2529 271.29 10.1149 270.953 10.0809 270.536C9.97288 269.204 11.1129 268.563 12.2029 268.114C15.3449 266.623 18.5769 265.346 21.8889 264.277C23.3239 263.815 24.7659 263.382 26.2239 263.013C27.0539 262.704 27.8879 262.399 28.7249 262.099C32.7649 260.662 36.8519 259.356 40.9769 258.18C33.9989 258.921 27.0019 259.503 19.9989 259.917C18.2569 260.022 16.5139 260.115 14.7669 260.203C11.3269 260.664 7.87489 261.134 4.43789 261.384C4.12289 261.408 3.78889 261.391 3.45489 261.347C2.48689 261.382 1.50489 261.219 0.808892 260.917C0.178892 260.645 -0.347119 260.016 -0.00511879 259.297C0.110881 259.054 0.318879 258.856 0.567879 258.703C0.0528792 258.516 -0.378115 258.124 -0.442115 257.598C-0.530115 256.889 0.0718787 256.315 0.804879 255.971C0.457879 255.874 0.146892 255.68 -0.0381083 255.408C-0.134108 255.268 -0.15512 255 -0.0441203 254.858C0.70788 253.826 2.02688 253.385 3.14388 252.838C3.30088 252.763 3.45589 252.685 3.60989 252.606C14.3049 245.982 26.0319 241.07 38.2939 238.24C40.7029 237.682 43.1339 237.24 45.5739 236.881C44.4159 233.254 41.1889 230.772 37.7869 228.947C29.1989 227.094 21.3889 222.017 16.0329 215.021C12.6349 210.584 10.3099 205.419 9.32589 199.914C8.13389 193.252 8.88788 186.382 10.1009 179.77C10.9989 174.848 12.1609 169.977 13.2649 165.095C12.9949 162.641 12.9599 160.156 13.1729 157.678C13.3389 155.744 13.4829 152.626 16.0839 152.543C17.1889 152.506 18.2469 153.067 19.2149 153.531C20.2499 154.028 21.2559 154.567 22.2259 155.176C23.1779 155.771 24.0939 156.409 24.9579 157.122C25.6389 156.943 26.3309 156.805 26.9679 156.64C28.1579 156.328 29.3509 156.021 30.5449 155.733C33.1769 155.085 35.8229 154.508 38.4859 153.989C42.5519 153.191 46.6459 152.553 50.7719 152.188C51.2569 151.17 51.8019 150.175 52.4129 149.212C53.8239 146.984 55.5049 144.747 57.5389 143.04C58.5009 142.232 59.7069 141.692 60.9519 142.163C62.1629 142.625 63.2409 143.907 64.0929 144.837C65.0209 145.846 65.8609 146.912 66.6019 148.074C66.8659 148.492 67.1289 148.926 67.3699 149.369C69.4499 150.409 71.7609 151.087 74.0369 151.55C74.4819 151.639 74.9289 151.721 75.3749 151.802C78.0399 152.051 80.7079 152.215 83.3619 152.361C89.4589 152.683 95.5629 152.854 101.659 153.184C113.106 153.808 124.325 155.43 135.243 159.099C155.96 166.054 174.447 178.659 190.166 193.65C208.013 210.671 222.842 231.105 232.256 253.974C241.042 275.321 245.22 299.193 242.418 322.192C242.07 325.032 241.696 327.393 241.152 330.205C241.049 331.952 240.735 333.766 240.173 335.434C237.342 343.893 230.721 365.906 217.648 382.128C211.115 390.232 199.985 400.625 192.594 406.527C183.942 413.441 173.813 419.436 168.749 422.11C162.699 425.319 154.993 428.787 147.316 431.331C135.644 435.2 123.384 437.418 111.079 437.451C100.413 437.479 89.7739 435.869 79.5979 432.704C69.4279 429.54 59.7569 424.911 51.0219 418.828C42.3959 412.813 34.7589 405.428 28.7009 396.831Z" fill="#EF8194"/>
<path d="M16.336 183.919C18.392 182.917 20.633 182.206 22.918 181.995C25.215 181.783 27.738 181.823 29.799 182.947C29.85 182.977 29.851 183.066 29.784 183.07C27.627 183.132 25.495 182.889 23.344 183.155C24.021 183.264 24.673 183.858 24.808 184.53C24.861 184.801 24.84 185.06 24.767 185.305C26.15 184.848 27.386 184.097 28.711 183.353C29.361 182.991 30.314 183.766 29.809 184.446C28.219 186.605 25.055 187.481 22.479 187.336C20.193 187.207 17.976 186.4 16.148 185.031C15.712 184.706 15.925 184.123 16.336 183.919ZM21.746 185.722C21.694 185.638 21.65 185.555 21.614 185.464C21.527 185.255 21.485 185.031 21.489 184.806C21.501 184.304 21.704 184.02 22.084 183.723C22.118 183.669 22.151 183.622 22.196 183.573C22.311 183.435 22.444 183.338 22.577 183.268C20.96 183.532 19.392 183.974 17.892 184.619C19.082 185.278 20.389 185.659 21.746 185.722Z" fill="#004236"/>
<path d="M33.1809 198.544C34.1609 198.979 34.9609 199.763 35.9259 200.258C36.4059 200.507 37.0029 200.728 37.1759 200.051C37.2769 199.646 37.1209 198.956 37.0819 198.542C36.9849 197.465 36.8389 196.379 36.6629 195.316C36.6089 194.99 36.5439 194.666 36.4789 194.342C35.4149 194.272 34.5869 193.461 33.9679 192.661C33.8909 192.562 33.8369 192.458 33.7989 192.356C33.6049 192.125 33.4899 191.799 33.4949 191.379C33.5059 190.69 33.6899 189.991 33.7289 189.301C33.7689 188.596 33.7639 187.886 33.7099 187.185C33.5859 185.54 33.2649 183.882 32.6429 182.348C32.5869 182.205 32.7879 182.097 32.8559 182.237C33.7279 183.95 34.3899 185.696 34.6359 187.613C34.7589 188.545 34.7979 189.486 34.7599 190.425C34.7549 190.588 34.7039 190.843 34.7069 191.042C34.9189 191.002 35.1389 191.017 35.3379 191.111C35.4709 190.987 35.6079 190.851 35.6939 190.791C35.8549 190.686 36.0209 190.605 36.2039 190.545C37.7519 190.015 39.4759 191.437 38.7669 193.067C38.5489 193.571 38.0919 193.949 37.5669 194.158C38.0339 194.862 38.5449 195.525 38.9719 196.259C39.4379 197.069 39.9459 197.852 40.4709 198.621C40.7769 199.076 41.3009 200.2 41.8609 200.373C42.5189 200.574 42.2859 199.118 42.4509 198.698C42.5939 198.329 43.0559 198.225 43.3319 198.516C44.0699 199.292 43.9119 200.727 43.1089 201.418C42.2869 202.129 41.2409 201.753 40.5849 201.038C39.7219 200.094 39.1029 198.83 38.5129 197.701C38.4059 197.493 38.2879 197.28 38.1779 197.068C38.2659 197.644 38.3349 198.222 38.3919 198.802C38.4509 199.429 38.5999 200.181 38.3679 200.792C37.9739 201.864 36.7439 201.964 35.8349 201.557C34.7299 201.061 33.3149 200.168 32.6759 199.119C32.4969 198.836 32.8589 198.4 33.1809 198.544ZM36.2939 192.183C36.3759 192.083 36.5429 192.092 36.6299 192.212C36.6929 192.301 36.7519 192.386 36.8109 192.479C36.8689 192.482 36.9249 192.474 36.9779 192.453C37.1919 192.362 37.2509 192.17 37.0179 192.005C36.7879 191.845 36.5139 191.983 36.2689 192.16C36.2799 192.165 36.2869 192.174 36.2939 192.183Z" fill="#004236"/>
<path d="M134.217 205.515C133.919 204.297 134.328 202.576 135.335 201.906C135.574 201.713 135.861 201.564 136.2 201.481C137.871 201.055 139.293 202.304 140.058 203.657C140.81 204.984 141.673 206.774 141.054 208.306C140.369 209.993 138.477 210.368 137.056 209.369C135.803 208.488 134.579 207.002 134.217 205.515Z" fill="#004236"/>
<path d="M156.161 214.662C156.737 213.414 158.141 212.816 159.461 212.992C160.643 213.151 161.637 213.887 162.551 214.603C163.19 215.109 163.785 215.657 164.224 216.307C165.395 217.717 166.008 219.48 165.162 221.328C164.233 223.352 161.99 223.759 160.148 222.72C158.354 221.707 156.726 219.739 156.092 217.77C155.765 216.756 155.703 215.644 156.161 214.662Z" fill="#004236"/>
<path d="M156.946 197.265C157.834 196.772 158.984 196.881 159.663 197.661C160.268 198.355 160.337 199.467 159.894 200.271C159.966 200.763 159.663 201.257 159.073 201.42C158.326 201.621 157.559 201.388 156.999 200.903C156.685 200.732 156.414 200.492 156.216 200.203C155.532 199.204 155.891 197.847 156.946 197.265Z" fill="#004236"/>
<path d="M138.002 188.571C137.63 186.724 139.295 185.312 141.079 185.645C141.137 185.656 141.194 185.667 141.254 185.682C142.521 185.816 143.823 186.895 144.544 187.789C145.57 189.076 145.836 191.089 144.496 192.296C141.973 194.587 138.511 191.075 138.002 188.571Z" fill="#004236"/>
<path d="M43.18 179.866C44.751 181.048 46.442 181.19 48.086 180.766C47.44 180.847 46.872 180.521 46.563 180.019C46.233 179.757 46.034 179.316 46.081 178.877C46.083 178.826 46.093 178.777 46.106 178.731C46.104 178.622 46.113 178.518 46.134 178.411C45.113 178.751 44.126 179.189 43.1 179.666C43.025 179.703 42.972 179.592 43.022 179.539C45.737 176.452 50.944 175.617 54.677 177.037C55.102 177.198 55.155 177.809 54.798 178.074C52.724 179.604 50.742 181.369 48.135 181.879C47.176 182.067 46.182 182.087 45.223 181.893C44.151 181.669 43.446 181.221 42.682 180.457C42.373 180.151 42.827 179.601 43.18 179.866ZM53.105 177.946C51.784 177.716 50.464 177.602 49.112 177.743C49.558 178.046 49.906 178.518 49.922 179.046C49.94 179.434 49.771 179.796 49.371 179.907H49.363C49.201 180.207 48.936 180.455 48.617 180.608C50.239 180.075 51.792 179.035 53.105 177.946Z" fill="#004236"/>
<path d="M80.1329 182.898C81.7459 183.199 83.0899 183.814 84.2479 184.984C84.4489 185.188 84.1879 185.593 83.9339 185.41C82.7359 184.563 81.4099 183.766 80.0259 183.259C79.8019 183.177 79.8929 182.849 80.1329 182.898Z" fill="#F8F3E8"/>
<path d="M81.2999 189.822C82.5219 190.255 83.7439 190.688 84.9719 191.11C85.3529 191.242 85.1119 191.868 84.7589 191.692C83.5879 191.129 82.4039 190.584 81.2269 190.031C81.1019 189.977 81.1619 189.77 81.2999 189.822Z" fill="#F8F3E8"/>
<path d="M88.5749 180.353C88.9969 180.502 89.4199 180.651 89.8419 180.799C90.2079 180.93 90.551 181.03 90.864 181.27C91.06 181.423 90.89 181.757 90.655 181.705C90.293 181.634 90.026 181.454 89.71 181.271C89.299 181.03 88.891 180.793 88.476 180.556C88.367 180.488 88.4589 180.312 88.5749 180.353Z" fill="#F8F3E8"/>
<path d="M90.0411 175.57C90.4791 175.561 90.9211 175.556 91.3591 175.546C91.8791 175.535 92.3281 175.601 92.8351 175.725C93.1951 175.812 93.0331 176.299 92.7191 176.316C92.2281 176.338 91.8261 176.313 91.3481 176.2C90.9051 176.096 90.4651 175.996 90.0241 175.895C89.8421 175.858 89.8501 175.574 90.0411 175.57Z" fill="#F8F3E8"/>
<path d="M89.615 166.318C91.116 166.609 92.7489 166.749 94.1839 167.293C94.6049 167.45 94.464 168.15 93.997 168.078C92.478 167.835 90.968 167.114 89.52 166.614C89.352 166.551 89.448 166.282 89.615 166.318Z" fill="#F8F3E8"/>
<path d="M83.202 161.308C84.311 160.955 85.368 160.982 86.446 161.417C86.854 161.584 86.548 162.233 86.146 162.04C85.255 161.612 84.218 161.389 83.23 161.46C83.139 161.468 83.117 161.333 83.202 161.308Z" fill="#F8F3E8"/>
<path d="M99.055 161.577L100.564 161.675C100.653 161.682 100.663 161.819 100.574 161.812L99.0661 161.735C98.9611 161.734 98.954 161.573 99.055 161.577Z" fill="#F8F3E8"/>
<path d="M90.484 158.989C91.955 159.055 93.477 159.239 94.797 159.922C95.196 160.13 94.851 160.802 94.444 160.628C93.128 160.067 91.905 159.489 90.467 159.315C90.279 159.288 90.298 158.982 90.484 158.989Z" fill="#F8F3E8"/>
<path d="M95.6381 157.064C97.2951 157.296 98.9491 157.516 100.6 157.795C100.936 157.851 100.816 158.382 100.481 158.318C98.8501 158.004 97.2301 157.632 95.6051 157.271C95.4921 157.241 95.5231 157.05 95.6381 157.064Z" fill="#F8F3E8"/>
<path d="M82.437 167.764C83.073 167.705 83.769 167.875 84.393 167.978C85.07 168.087 85.734 168.234 86.376 168.468C86.753 168.603 86.546 169.148 86.18 169.107C85.602 169.045 85.04 168.922 84.482 168.769C83.807 168.581 82.99 168.4 82.387 168.046C82.278 167.979 82.275 167.779 82.437 167.764Z" fill="#F8F3E8"/>
<path d="M82.6369 173.077C83.4199 173.304 84.2069 173.509 84.9929 173.714C85.3779 173.815 85.1459 174.461 84.7799 174.296C84.0439 173.969 83.2979 173.664 82.5459 173.37C82.3789 173.307 82.4679 173.029 82.6369 173.077Z" fill="#F8F3E8"/>
<path d="M80.1479 177.584C81.2119 177.904 82.2869 178.175 83.3009 178.617C83.4899 178.699 83.3579 179.003 83.1659 178.952C82.0959 178.678 81.0819 178.227 80.0509 177.825C79.8909 177.763 79.9859 177.537 80.1479 177.584Z" fill="#F8F3E8"/>
<path d="M83.7111 196.308C84.1041 196.542 84.4971 196.769 84.8931 197.001C85.1041 197.128 84.8941 197.465 84.6971 197.328C84.3171 197.056 83.9411 196.788 83.5611 196.516C83.4171 196.42 83.5701 196.224 83.7111 196.308Z" fill="#F8F3E8"/>
<path d="M77.036 198.103C78.111 198.401 79.353 198.922 79.979 199.884C80.127 200.108 79.828 200.411 79.601 200.263C79.139 199.957 78.764 199.557 78.313 199.229C77.883 198.92 77.418 198.672 76.929 198.465C76.709 198.379 76.795 198.035 77.036 198.103Z" fill="#F8F3E8"/>
<path d="M82.3411 205.229C83.3981 205.735 84.391 206.41 85.127 207.333C85.265 207.51 85.0341 207.767 84.8691 207.591C84.0751 206.753 83.2521 206.002 82.2421 205.431C82.1291 205.367 82.2231 205.175 82.3411 205.229Z" fill="#F8F3E8"/>
<path d="M90.8321 193.72C91.8561 194.023 92.8841 194.288 93.8621 194.711C94.1241 194.825 93.9701 195.286 93.6921 195.198C92.6681 194.867 91.7201 194.366 90.7501 193.909C90.6401 193.856 90.7231 193.687 90.8321 193.72Z" fill="#F8F3E8"/>
<path d="M92.959 185.366C94.106 185.685 95.214 186.061 96.321 186.507C96.934 186.757 96.503 187.746 95.924 187.45C94.864 186.904 93.846 186.332 92.854 185.677C92.71 185.582 92.763 185.311 92.959 185.366Z" fill="#F8F3E8"/>
<path d="M96.481 178.734C97.424 179.024 98.328 179.317 99.23 179.723C99.507 179.846 99.329 180.242 99.051 180.153C98.123 179.865 97.255 179.51 96.367 179.114C96.134 179.012 96.229 178.653 96.481 178.734Z" fill="#F8F3E8"/>
<path d="M96.2249 173.02C96.5789 173.153 96.9409 173.287 97.2949 173.419C97.6489 173.552 97.4689 174.123 97.1199 173.979C96.7529 173.829 96.3819 173.675 96.0139 173.525C95.7319 173.413 95.9299 172.911 96.2249 173.02Z" fill="#F8F3E8"/>
<path d="M172.563 244.764C172.894 242.659 175.045 241.512 177.034 242.116C179.106 242.746 180.094 244.749 180.541 246.718C181.066 248.022 181.481 249.489 180.532 250.633C177.597 254.169 172.052 248.002 172.563 244.764Z" fill="#004236"/>
<path d="M139.75 283.23C139.86 282.124 140.842 281.314 141.962 281.563C142.627 281.71 143.272 282.233 143.8 282.785C144.112 282.979 144.383 283.218 144.576 283.456C145.379 284.466 144.941 285.829 143.781 286.312C142.897 286.677 141.997 286.353 141.282 285.794C140.491 285.184 139.649 284.302 139.75 283.23Z" fill="#004236"/>
<path d="M158.458 283.038C157.561 281.809 157.58 279.948 158.797 278.913C160.442 277.51 162.621 278.597 164.036 279.74C165.373 280.819 167.297 282.639 166.689 284.559C166.076 286.481 163.784 286.656 162.163 286.069C160.953 285.634 159.782 284.758 159.018 283.648C158.818 283.471 158.624 283.268 158.458 283.038Z" fill="#004236"/>
<path d="M192.392 220.715C192.008 219.28 192.623 217.778 194.145 217.394C195.796 216.978 197.325 218.15 198.25 219.405C198.687 220 199.137 220.842 199.346 221.706C199.72 222.754 199.778 223.853 199.373 224.635C197.488 228.295 192.931 222.722 192.392 220.715Z" fill="#004236"/>
<path d="M193.024 237.121C193.488 236.842 194.086 236.77 194.602 236.95C194.86 237.04 195.081 237.179 195.267 237.346C196.25 238.097 197.156 239.728 195.883 240.682C194.894 241.427 193.676 240.866 192.911 240.083C192.097 239.247 191.878 237.809 193.024 237.121Z" fill="#004236"/>
<path d="M189.834 256.73C190.026 256.317 190.292 255.998 190.601 255.77C191.203 254.911 192.519 254.611 193.567 254.909C195.591 255.486 197.498 257.598 198.429 259.403C199.317 261.118 198.774 263.263 196.696 263.666C195.017 263.993 193.2 262.817 191.993 261.789C190.599 260.602 188.936 258.689 189.834 256.73Z" fill="#004236"/>
<path d="M77.3011 403.654C78.1041 403.631 78.9491 403.99 79.7061 404.238C80.4931 404.498 81.2001 404.743 81.9201 405.166C82.0481 405.24 81.9791 405.481 81.8311 405.479C80.9841 405.481 80.2461 405.329 79.4221 405.148C78.6781 404.979 77.7621 404.876 77.1201 404.455C76.7841 404.239 76.8501 403.673 77.3011 403.654Z" fill="#F8F3E8"/>
<path d="M69.601 410.353C70.327 410.16 71.055 410.424 71.734 410.678C72.477 410.951 73.215 411.228 73.953 411.505C74.218 411.603 74.034 411.955 73.794 411.934C73.028 411.853 72.258 411.767 71.492 411.686C70.792 411.609 70.011 411.518 69.461 411.046C69.247 410.852 69.303 410.434 69.601 410.353Z" fill="#F8F3E8"/>
<path d="M67.1811 394.49C67.9861 394.611 68.7531 395.156 69.4461 395.572C70.2201 396.036 70.9381 396.599 71.6971 397.089C71.8341 397.176 71.7181 397.392 71.5651 397.338C70.7291 397.026 69.8551 396.78 69.0271 396.441C68.2551 396.121 67.3641 395.818 66.7611 395.234C66.4231 394.909 66.7681 394.424 67.1811 394.49Z" fill="#F8F3E8"/>
<path d="M57.359 399.765C58.837 400.338 60.206 401.448 61.563 402.268C61.646 402.321 61.59 402.462 61.493 402.427C60.025 401.902 58.28 401.558 56.93 400.774C56.337 400.433 56.682 399.503 57.359 399.765Z" fill="#F8F3E8"/>
<path d="M47.4881 403.837C48.3331 404.161 49.1081 404.68 49.8951 405.127C50.1941 405.296 49.9331 405.736 49.6281 405.586C48.8331 405.193 47.9861 404.856 47.2611 404.347C47.0091 404.176 47.1711 403.716 47.4881 403.837Z" fill="#F8F3E8"/>
<path d="M56.633 386.736C57.927 387.591 59.219 388.442 60.509 389.301C60.768 389.472 60.553 389.891 60.272 389.736C58.937 388.981 57.604 388.219 56.265 387.467C55.806 387.201 56.203 386.454 56.633 386.736Z" fill="#F8F3E8"/>
<path d="M72.7991 387.843C73.9651 388.292 75.0071 388.922 76.0901 389.533C76.2141 389.602 76.1111 389.8 75.9841 389.754C74.8371 389.311 73.6981 388.903 72.6261 388.297C72.3851 388.167 72.5311 387.74 72.7991 387.843Z" fill="#F8F3E8"/>
<path d="M81.5069 397.167C81.7869 397.143 82.0739 397.092 82.3459 397.164C82.7019 397.254 83.0269 397.465 83.3789 397.585C83.9659 397.785 84.6099 397.914 85.1489 398.221C85.3929 398.364 85.2879 398.8 85.0079 398.824C84.4049 398.872 83.7959 398.716 83.1969 398.644C82.8049 398.596 82.3689 398.653 81.9899 398.56C81.7059 398.49 81.4579 398.316 81.2169 398.158C80.7889 397.895 81.0569 397.206 81.5069 397.167Z" fill="#F8F3E8"/>
<path d="M92.2371 393.695C93.0941 393.608 93.8581 393.802 94.6991 393.97C95.5641 394.141 96.4051 394.31 97.2411 394.587C97.3721 394.63 97.3571 394.85 97.2151 394.857C96.3321 394.929 95.4721 394.879 94.5871 394.85C93.7051 394.817 92.8821 394.815 92.0481 394.495C91.6241 394.327 91.8661 393.728 92.2371 393.695Z" fill="#F8F3E8"/>
<path d="M93.3902 404.822C94.2052 404.671 95.2271 404.92 96.0341 405.115C96.9471 405.339 97.8471 405.627 98.7531 405.878C99.0431 405.956 98.9811 406.393 98.6801 406.399C97.6771 406.406 96.6581 406.474 95.6581 406.423C94.8591 406.38 93.9361 406.366 93.2151 406.013C92.7071 405.772 92.8602 404.917 93.3902 404.822Z" fill="#F8F3E8"/>
<path d="M110.796 408.243C111.491 408.047 112.29 408.276 112.988 408.369C113.709 408.472 114.43 408.575 115.155 408.674C115.35 408.702 115.352 409.006 115.15 409.025C114.358 409.089 113.565 409.16 112.774 409.216C112.097 409.267 111.396 409.412 110.741 409.188C110.257 409.032 110.335 408.374 110.796 408.243Z" fill="#F8F3E8"/>
<path d="M110.284 393.727C111.209 393.629 112.161 393.912 113.07 394.069C113.911 394.21 114.756 394.355 115.6 394.501C115.921 394.555 115.823 395.062 115.508 395.051C114.552 395.021 113.596 394.991 112.64 394.961C111.805 394.934 110.978 394.989 110.178 394.74C109.678 394.59 109.778 393.783 110.284 393.727Z" fill="#F8F3E8"/>
<path d="M130.687 389.427C131.779 389.08 132.902 388.612 134.041 388.457C134.204 388.434 134.321 388.683 134.17 388.773C133.195 389.369 132.03 389.703 130.965 390.112C130.513 390.292 130.236 389.572 130.687 389.427Z" fill="#F8F3E8"/>
<path d="M126.189 400.73C127.082 400.511 128.117 400.723 129.02 400.738C129.791 400.754 130.566 400.766 131.333 400.777C131.601 400.782 131.638 401.177 131.358 401.202C130.475 401.274 129.6 401.347 128.721 401.424C127.9 401.496 127.009 401.727 126.196 401.585C125.765 401.506 125.774 400.832 126.189 400.73Z" fill="#F8F3E8"/>
<path d="M138.393 406.364C139.825 405.668 141.552 406.186 143.029 406.447C143.213 406.477 143.255 406.763 143.065 406.822C141.71 407.235 140.002 407.987 138.58 407.495C138.132 407.339 137.857 406.623 138.393 406.364Z" fill="#F8F3E8"/>
<path d="M147.728 393.897C148.106 393.525 148.599 393.417 149.089 393.243C149.648 393.041 150.221 392.893 150.797 392.748C150.99 392.701 151.183 392.966 150.977 393.086C150.48 393.384 149.989 393.691 149.462 393.943C149.011 394.158 148.561 394.481 148.056 394.494C147.778 394.503 147.471 394.146 147.728 393.897Z" fill="#F8F3E8"/>
<path d="M153.822 406.999C155.781 406.426 157.706 405.852 159.697 405.399C160.022 405.326 160.204 405.808 159.897 405.958C158.086 406.846 156.24 407.609 154.374 408.373C153.481 408.744 152.923 407.265 153.822 406.999Z" fill="#F8F3E8"/>
<path d="M42.978 391.585C42.891 391.376 43.052 391.118 43.255 391.049C44.076 390.782 44.87 391.62 45.42 392.154C46.016 392.73 46.411 393.316 46.693 394.095C46.758 394.267 46.532 394.45 46.39 394.312C45.842 393.789 45.27 393.236 44.64 392.812C44.05 392.413 43.259 392.274 42.978 391.585Z" fill="#F8F3E8"/>
<path d="M30.653 392.785C30.236 392.154 31.151 391.535 31.617 392.122C32.783 393.605 33.661 395.369 34.614 396.998C34.707 397.161 34.457 397.287 34.344 397.16C33.096 395.741 31.698 394.363 30.653 392.785Z" fill="#F8F3E8"/>
<path d="M54.679 377.47C54.533 377.23 54.694 376.786 55.033 376.881C55.716 377.07 56.24 377.652 56.772 378.118C57.341 378.624 57.887 379.162 58.435 379.685C58.561 379.802 58.3719 379.97 58.2489 379.892C57.5219 379.461 56.789 379.048 56.086 378.585C55.584 378.255 55.004 377.993 54.679 377.47Z" fill="#F8F3E8"/>
<path d="M43.7611 379.687C43.6771 379.357 43.9591 379.068 44.2901 379.197C44.8931 379.434 45.2351 380.014 45.6121 380.524C46.1331 381.235 46.6061 381.982 47.0971 382.709C47.1761 382.828 47.0381 383.033 46.9121 382.916C46.2781 382.364 45.6281 381.817 45.0121 381.243C44.5251 380.798 43.9261 380.343 43.7611 379.687Z" fill="#F8F3E8"/>
<path d="M31.9899 378.213C31.7889 377.634 32.5329 377.171 32.9279 377.667C33.9349 378.92 34.5149 380.73 35.0339 382.24C35.0729 382.362 34.9239 382.492 34.8289 382.379C33.8179 381.157 32.5249 379.724 31.9899 378.213Z" fill="#F8F3E8"/>
<path d="M42.383 370.597C42.171 370.29 42.517 369.833 42.864 370.019C43.5 370.362 43.876 370.887 44.336 371.43C44.993 372.2 45.711 372.896 46.431 373.603C46.497 373.67 46.4 373.759 46.329 373.704C45.605 373.117 44.894 372.5 44.114 371.992C43.471 371.579 42.827 371.235 42.383 370.597Z" fill="#F8F3E8"/>
<path d="M32.3291 365.434C33.0091 366.402 33.5511 367.47 34.1511 368.486C34.2121 368.591 34.0601 368.69 33.9801 368.606C33.1391 367.779 32.2301 366.99 31.4551 366.096C31.0011 365.569 31.9251 364.854 32.3291 365.434Z" fill="#F8F3E8"/>
<path d="M24.8439 382.174C24.4659 380.533 23.7669 379.087 22.7119 377.774C22.2899 377.251 23.1419 376.57 23.4969 377.112C24.4899 378.633 25.0859 380.285 25.2949 382.092C25.3209 382.349 24.9019 382.427 24.8439 382.174Z" fill="#F8F3E8"/>
<path d="M195.86 306.595C196.139 305.128 197.673 304.401 199.011 304.973C199.685 305.258 200.232 305.788 200.673 306.415C202.088 307.717 202.73 310.124 201.432 311.561C198.972 314.29 195.416 308.956 195.86 306.595Z" fill="#004236"/>
<path d="M159.885 318.187C159.596 316.241 160.815 314.115 162.971 314.096C163.58 314.092 164.141 314.257 164.656 314.542C167.29 315.135 169.778 318.826 168.929 321.301C168.2 323.439 165.66 323.946 163.756 323.158C161.766 322.339 160.2 320.308 159.885 318.187Z" fill="#004236"/>
<path d="M134.163 323.543C133.646 322.711 133.303 321.383 134.147 320.647C134.326 320.493 134.53 320.389 134.751 320.342C135.852 319.231 138.024 320.025 138.572 321.464C139.154 323.001 137.921 324.7 136.298 324.734C135.421 324.76 134.619 324.276 134.163 323.543Z" fill="#004236"/>
<path d="M149.993 337.26C150.249 336.921 150.745 336.79 151.165 336.837C151.494 336.76 151.847 336.776 152.179 336.87C153.784 337.33 155.816 339.254 155.087 341.08C154.36 342.884 152.399 342.529 151.079 341.686C149.507 340.68 148.796 338.855 149.993 337.26Z" fill="#004236"/>
<path d="M180.87 335.448C180.476 334.757 180.398 334.193 180.505 333.574C180.416 333.131 180.438 332.669 180.629 332.228C181.823 329.456 185.155 331.127 186.475 332.781C187.272 333.783 187.958 335.176 187.814 336.497C187.667 337.84 186.527 338.821 185.175 338.677C183.962 338.549 182.772 337.605 181.95 336.776C181.547 336.376 181.153 335.935 180.87 335.448Z" fill="#004236"/>
<path d="M218.751 309.04C218.65 308.911 218.563 308.764 218.49 308.591C218.422 308.423 218.373 308.246 218.352 308.068C218.344 308.039 218.332 308.014 218.327 307.99C218.222 307.642 218.301 307.316 218.485 307.062C218.598 306.807 218.771 306.582 219.018 306.409C220.476 305.416 222.18 306.902 222.799 308.174C223.088 308.767 223.332 309.534 223.168 310.196C222.968 311.026 222.171 311.538 221.329 311.342C220.174 311.065 219.294 310.101 218.751 309.04Z" fill="#004236"/>
<path d="M75.1599 210.855C75.8839 211.212 76.7699 211.616 77.2579 212.276C77.4189 212.491 77.1409 212.784 76.9099 212.659C76.2049 212.273 75.6359 211.607 74.9709 211.148C74.8099 211.031 74.9829 210.772 75.1599 210.855Z" fill="#F8F3E8"/>
<path d="M69.9041 204.122C70.4271 204.47 70.9911 204.792 71.4541 205.215C71.6191 205.364 71.4081 205.646 71.2201 205.53C70.6921 205.193 70.2351 204.724 69.7601 204.311C69.6611 204.221 69.7921 204.05 69.9041 204.122Z" fill="#F8F3E8"/>
<path d="M87.583 200.736C88.196 201.013 88.817 201.264 89.378 201.644C89.609 201.797 89.384 202.167 89.132 202.059C88.514 201.785 87.974 201.388 87.416 201.012C87.257 200.915 87.416 200.665 87.583 200.736Z" fill="#F8F3E8"/>
<path d="M75.205 191.656C75.754 191.789 76.213 192.18 76.678 192.49C77.19 192.833 77.688 193.186 78.18 193.558C78.405 193.729 78.179 194.072 77.936 193.922C77.429 193.611 76.937 193.294 76.449 192.954C75.972 192.619 75.412 192.321 75.07 191.831C75.012 191.738 75.111 191.633 75.205 191.656Z" fill="#F8F3E8"/>
<path d="M21.5211 194.213C23.9931 193.628 27.0141 193.967 29.3861 194.82C29.7251 194.943 29.6011 195.443 29.2441 195.368C27.9361 195.092 26.6321 194.848 25.2971 194.788C24.0631 194.732 22.8501 194.889 21.6191 194.935C21.2031 194.954 21.1161 194.308 21.5211 194.213Z" fill="#F8F3E8"/>
<path d="M22.1829 197.694C24.3669 197.319 26.6699 197.622 28.8619 197.728C28.9429 197.734 28.9429 197.859 28.8599 197.868C26.6899 198.155 24.4239 198.656 22.2269 198.472C21.7869 198.434 21.7279 197.771 22.1829 197.694Z" fill="#F8F3E8"/>
<path d="M23.1191 201.162C25.3521 200.867 27.6001 200.602 29.8411 200.37C29.9681 200.355 29.9871 200.548 29.8731 200.589C27.7001 201.281 25.3951 201.652 23.1171 201.649C22.8411 201.643 22.8531 201.196 23.1191 201.162Z" fill="#F8F3E8"/>
<path d="M43.27 191.235C46.098 190.107 49.747 189.399 52.785 189.725C53.301 189.78 53.183 190.51 52.73 190.58C51.096 190.823 49.417 190.775 47.773 190.942C46.284 191.093 44.798 191.311 43.304 191.43C43.182 191.442 43.163 191.276 43.27 191.235Z" fill="#F8F3E8"/>
<path d="M45.022 194.696C46.257 194.175 47.545 193.953 48.885 193.932C50.183 193.91 51.928 193.997 52.986 194.808C53.286 195.039 53.071 195.575 52.705 195.569C51.555 195.559 50.397 195.02 49.246 194.865C47.856 194.681 46.459 194.718 45.063 194.81C44.987 194.821 44.948 194.726 45.022 194.696Z" fill="#F8F3E8"/>
<path d="M46.558 198.042C49.034 197.87 51.706 198.28 53.863 199.544C54.237 199.765 53.948 200.365 53.539 200.234C51.219 199.5 48.976 198.748 46.565 198.335C46.416 198.313 46.381 198.055 46.558 198.042Z" fill="#F8F3E8"/>
<path d="M70.368 198.457C71.377 199.25 72.313 200.011 73.169 200.973C73.357 201.187 73.022 201.497 72.803 201.314C71.829 200.486 71.038 199.564 70.223 198.583C70.159 198.502 70.286 198.396 70.368 198.457Z" fill="#F8F3E8"/>
<path d="M67.1319 211.606C67.0719 211.485 67.2379 211.342 67.3289 211.458C68.1019 212.429 69.0579 213.189 69.9469 214.041C70.1599 214.243 69.9169 214.627 69.6469 214.477C68.4849 213.845 67.7169 212.772 67.1319 211.606Z" fill="#F8F3E8"/>
<path d="M69.3799 221.293C69.1089 220.929 68.7429 220.576 68.6799 220.112C68.6649 220.013 68.7529 219.93 68.8509 219.958C69.3109 220.084 69.6129 220.487 69.9509 220.813C70.3229 221.174 70.6829 221.545 70.9819 221.963C71.2679 222.365 70.7659 222.826 70.4079 222.475C70.0279 222.113 69.6949 221.714 69.3799 221.293Z" fill="#F8F3E8"/>
<path d="M78.6971 215.746C78.6431 215.65 78.7631 215.528 78.8501 215.613C79.4361 216.175 80.1901 216.801 80.5721 217.522C80.7241 217.806 80.3701 218.083 80.1321 217.866C79.5251 217.313 79.0981 216.446 78.6971 215.746Z" fill="#F8F3E8"/>
<path d="M64.7801 206.184C64.7531 206.087 64.8621 205.995 64.9511 206.029C65.3381 206.177 65.6521 206.543 65.9371 206.827C66.2151 207.103 66.4571 207.386 66.6871 207.698C66.9081 207.99 66.5461 208.364 66.2631 208.099C65.9911 207.84 65.7371 207.587 65.5001 207.293C65.2451 206.966 64.8891 206.591 64.7801 206.184Z" fill="#F8F3E8"/>
<path d="M58.2899 228.524C58.2409 228.452 58.3409 228.367 58.4019 228.437C59.1909 229.312 60.0659 230.156 60.7039 231.149C60.8449 231.365 60.5069 231.574 60.3459 231.395C59.5469 230.533 58.9389 229.488 58.2899 228.524Z" fill="#F8F3E8"/>
<path d="M54.4399 229.368C53.9719 228.395 53.3949 227.381 53.1149 226.337C53.0789 226.212 53.2669 226.113 53.3439 226.22C53.9949 227.072 54.4299 228.127 54.9049 229.081C55.0609 229.397 54.5919 229.687 54.4399 229.368Z" fill="#F8F3E8"/>
<path d="M51.9139 229.038C51.8859 228.984 51.9689 228.94 51.9969 228.994C52.2549 229.501 52.5119 230.008 52.7689 230.515C52.8039 230.577 52.7039 230.628 52.6689 230.565L51.9139 229.038Z" fill="#F8F3E8"/>
<path d="M49.3419 228.418C49.1849 227.923 49.0239 227.424 48.8669 226.929C48.8109 226.751 49.0649 226.622 49.1399 226.806C49.3349 227.306 49.5259 227.809 49.7219 228.308C49.8059 228.541 49.4169 228.657 49.3419 228.418Z" fill="#F8F3E8"/>
<path d="M46.2261 228.376C46.1501 228.234 46.3631 228.115 46.4441 228.254C46.8561 228.924 47.2811 229.592 47.6851 230.269C47.8201 230.496 47.4551 230.705 47.3281 230.471C46.9531 229.778 46.5921 229.075 46.2261 228.376Z" fill="#F8F3E8"/>
<path d="M50.1379 233.772C49.9029 233.081 49.5619 232.439 49.0699 231.899C49.0219 231.847 49.0999 231.759 49.1519 231.808C49.7529 232.31 50.1909 232.897 50.4219 233.647C50.4879 233.838 50.2039 233.963 50.1379 233.772Z" fill="#F8F3E8"/>
<path d="M46.7241 234.746C46.5481 234.121 46.3451 233.495 46.2091 232.859C46.2071 232.839 46.2281 232.83 46.2371 232.85C46.5031 233.448 46.7101 234.07 46.9341 234.686C46.9881 234.817 46.7691 234.885 46.7241 234.746Z" fill="#F8F3E8"/>
<path d="M59.8491 214.556C59.7921 214.448 59.9241 214.358 60.0031 214.45C60.6381 215.174 61.2651 215.878 61.7891 216.691C61.9821 216.991 61.5311 217.26 61.3201 216.981C60.7511 216.218 60.3071 215.392 59.8491 214.556Z" fill="#F8F3E8"/>
<path d="M63.8351 220.956C63.8001 220.858 63.9271 220.78 64.0011 220.847C64.5781 221.381 65.0001 222.1 65.4011 222.772C65.5231 222.982 65.2271 223.165 65.0791 222.975C64.6181 222.35 64.1111 221.691 63.8351 220.956Z" fill="#F8F3E8"/>
<path d="M60.2049 221.44C61.2989 221.904 62.2879 222.672 62.7919 223.77C62.9099 224.019 62.5669 224.203 62.4199 223.971C61.8029 223.003 61.1309 222.188 60.1359 221.592C60.0409 221.541 60.1019 221.396 60.2049 221.44Z" fill="#F8F3E8"/>
<path d="M55.033 220.867C54.957 220.76 55.121 220.66 55.203 220.755C55.812 221.48 56.441 222.196 57.01 222.952C57.144 223.132 56.867 223.321 56.728 223.152C56.133 222.409 55.594 221.63 55.033 220.867Z" fill="#F8F3E8"/>
<path d="M61.5571 226.179C61.4981 226.094 61.6131 226.01 61.6831 226.081C62.3551 226.826 63.082 227.542 63.68 228.351C63.873 228.617 63.4761 228.892 63.2721 228.649C62.6301 227.881 62.1101 227.01 61.5571 226.179Z" fill="#F8F3E8"/>
<path d="M57.1699 153.642C57.3699 152.278 57.7049 150.961 58.2449 149.685C58.6219 148.787 59.2009 147.071 59.9719 146.482C60.7309 145.903 61.292 146.568 61.792 147.128C62.843 148.312 64.2289 149.818 64.4139 151.444C64.4229 151.554 64.2959 151.667 64.1929 151.588C63.3609 150.934 60.9689 146.404 59.9679 146.922C59.7349 147.042 59.4899 147.699 59.3569 147.956C58.9919 148.664 58.73 149.424 58.514 150.19C58.19 151.324 58.0139 152.497 57.9379 153.673C57.9069 154.176 57.0989 154.121 57.1699 153.642Z" fill="#F8F3E8"/>
<path d="M16.944 163.268C16.466 161.927 16.27 160.491 16.278 159.068C16.282 158.406 16.143 156.564 16.834 156.156C17.469 155.785 19.085 157.006 19.518 157.32C20.672 158.147 21.852 159.202 22.48 160.495C22.539 160.616 22.401 160.724 22.294 160.64C20.816 159.443 19.55 157.948 17.817 157.067C16.456 156.375 16.889 158.737 16.96 159.486C17.069 160.685 17.377 161.819 17.715 162.963C17.87 163.474 17.126 163.777 16.944 163.268Z" fill="#F8F3E8"/>
<path d="M125.104 191.309C125.856 190.589 126.993 190.547 127.913 190.959C127.97 190.978 128.03 190.993 128.082 191.015C129.196 191.435 130.308 192.26 130.452 193.521C130.589 194.712 129.804 195.756 128.601 195.898C127.425 196.033 126.047 195.409 125.245 194.579C124.409 193.705 124.17 192.206 125.104 191.309Z" fill="#004236"/>
<path d="M125.803 178.457C125.825 178.182 126.046 177.975 126.306 177.917C127.113 177.738 127.917 177.699 128.592 178.241C129.209 178.737 129.481 179.566 129.136 180.3C128.606 181.429 127.226 181.328 126.665 180.566C126.04 180.034 125.74 179.276 125.803 178.457Z" fill="#004236"/>
<path d="M130.658 167.291C130.27 166.428 130.371 165.703 130.754 165.161C130.83 164.769 131.028 164.399 131.354 164.095C132.403 163.13 134.184 163.424 135.383 163.889C136.667 164.384 137.746 165.506 137.632 166.962C137.364 170.288 131.741 169.7 130.658 167.291Z" fill="#004236"/>
<path d="M153.285 183.768C152.78 182.24 153.942 181.02 155.316 180.73C155.684 180.533 156.108 180.416 156.541 180.411C158.39 180.381 160.419 182.238 160.833 183.997C161.274 185.86 159.724 187.411 157.876 186.863C156.954 186.592 156.064 186.094 155.217 185.652C154.397 185.217 153.589 184.682 153.285 183.768Z" fill="#004236"/>
<path d="M171.822 203.122C171.761 202.892 171.735 202.663 171.74 202.437C171.428 201.647 171.645 200.901 172.794 200.412C174.252 199.793 176.02 200.952 177.101 201.828C178.105 202.64 179.265 203.919 178.625 205.308C177.247 208.273 172.419 205.3 171.822 203.122Z" fill="#004236"/>
<path d="M174.21 221.828C174.178 221.423 174.272 221.044 174.456 220.727C174.38 219.856 174.99 219.06 175.883 218.778C178.279 218.024 180.094 220.845 178.884 222.84C177.683 224.812 174.397 224.195 174.21 221.828Z" fill="#004236"/>
<path d="M133.309 227.678C133.627 227.249 134.198 227.053 134.768 227.142C135.667 227.286 136.418 227.962 136.9 228.703C137.349 229.393 137.618 230.307 137.335 231.111C137.027 231.991 136.083 232.465 135.203 232.07C134.486 231.749 133.647 231.031 133.151 230.432C132.394 229.518 132.443 228.369 133.309 227.678Z" fill="#004236"/>
<path d="M115.199 221.344C114.842 219.853 115.682 217.955 117.273 218.023C117.745 217.862 118.272 217.832 118.784 217.952C120.69 218.406 122.333 220.384 122.555 222.306C122.788 224.331 121.099 225.562 119.211 225.024C117.405 224.513 115.659 223.24 115.199 221.344Z" fill="#004236"/>
<path d="M150.938 239.06C151.082 238.559 151.377 238.161 151.764 237.873C152.023 237.261 152.566 236.781 153.296 236.62C154.815 236.293 156.017 237.332 156.824 238.499C157.737 239.818 158.518 241.61 157.357 243.044C156.233 244.437 154.514 243.885 153.258 243.035C151.994 242.183 150.454 240.756 150.938 239.06Z" fill="#004236"/>
<path d="M134.693 245.76C135.148 245.21 135.775 245.06 136.371 245.191C136.635 245.172 136.906 245.189 137.165 245.237C138.488 245.487 139.608 246.777 139.729 248.098C139.83 249.171 139.239 250.258 138.127 250.482C136.911 250.724 135.885 249.874 135.193 248.972C134.51 248.089 133.866 246.767 134.693 245.76Z" fill="#004236"/>
<path d="M110.033 248.342C110.075 247.025 110.97 246.318 112.038 246.136C115.025 244.295 120.535 248.594 118.645 251.855C116.703 255.22 109.933 251.571 110.033 248.342Z" fill="#004236"/>
<path d="M98.8131 235.643C98.3571 234.632 98.6271 233.561 99.3341 232.89C99.3391 232.879 99.3441 232.868 99.3461 232.853C100.067 231.318 102.074 231.749 103.189 232.445C104.673 233.374 106.316 234.915 106.416 236.753C106.51 238.449 104.809 239.272 103.311 238.833C101.794 238.38 99.4961 237.157 98.8131 235.643Z" fill="#004236"/>
<path d="M93.3689 252.885C93.3679 252.768 93.379 252.648 93.41 252.527C93.691 251.293 95.1359 251.059 96.1229 251.503C97.1989 251.98 98.373 252.833 98.462 254.103C98.541 255.193 97.781 256.162 96.673 256.257C95.782 256.336 94.786 255.81 94.139 255.232C93.483 254.642 93.1089 253.727 93.3689 252.885Z" fill="#004236"/>
<path d="M103.268 206.585C102.842 205.488 103.263 204.264 104.369 203.961C105.014 203.638 105.888 203.67 106.541 204.061C107.238 204.481 107.991 205.149 108.529 205.749C108.984 206.261 109.272 206.959 109.14 207.652C108.858 209.108 107.235 209.676 105.947 209.239C104.723 208.821 103.733 207.777 103.268 206.585Z" fill="#004236"/>
<path d="M81.2851 225.093C81.7251 224.526 82.2561 224.243 82.8081 224.166C83.0411 224.046 83.3051 223.965 83.5891 223.937C86.9591 223.628 89.4321 229.115 85.7151 230.521C82.8651 231.611 79.2491 227.732 81.2851 225.093Z" fill="#004236"/>
<path d="M75.298 241.828C75.417 241.534 75.595 241.263 75.84 241.043C78.014 239.115 81.577 242.48 80.958 244.858C80.189 247.792 76.345 245.91 75.196 244.358C74.611 243.566 74.653 242.506 75.298 241.828Z" fill="#004236"/>
<path d="M111.617 190.71C111.27 190.142 111.04 189.474 110.984 188.797C110.732 187.779 111.143 186.694 111.96 185.986C114.365 183.899 118.414 186.738 118.125 189.636C117.997 190.923 117.001 191.964 115.799 192.349C114.189 192.871 112.489 192.138 111.617 190.71Z" fill="#004236"/>
<path d="M126.086 264.002C126.064 263.832 126.065 263.664 126.073 263.505C126.073 263.505 126.07 263.501 126.074 263.497C125.76 261.439 127.801 260.302 129.595 260.364C131.41 260.424 133.177 261.367 134.431 262.651C135.583 263.832 136.355 265.665 135.321 267.181C134.181 268.857 131.987 268.836 130.273 268.219C128.492 267.57 126.333 266.037 126.086 264.002Z" fill="#004236"/>
<path d="M103.802 272.313C103.897 271.607 104.235 271.079 104.707 270.765C104.986 270.409 105.403 270.159 105.955 270.109C107.344 269.981 108.785 271.424 109.346 272.56C109.935 273.759 109.742 275.284 108.695 276.179C106.235 278.275 103.479 274.696 103.802 272.313Z" fill="#004236"/>
<path d="M119.514 289.059C119.285 288.161 119.487 287.262 119.971 286.626C120.095 286.002 120.505 285.494 121.333 285.235C122.904 284.743 124.536 286.154 125.364 287.339C126.249 288.604 126.906 290.513 126.464 292.066C125.146 296.719 120.116 291.406 119.514 289.059Z" fill="#004236"/>
<path d="M151.883 262.891C152.278 262.035 152.968 261.6 153.754 261.484C154.555 260.977 155.615 260.829 156.587 261.102C159.245 261.85 162.49 266.491 158.592 267.976C155.911 268.988 150.292 266.349 151.883 262.891Z" fill="#004236"/>
<path d="M182.545 278.377C182.164 277.196 182.876 275.766 184.195 275.699C185.993 275.613 186.995 277.884 187.069 279.367C187.113 280.234 186.401 280.881 185.536 280.593C185.12 280.453 184.743 280.255 184.406 280.011C183.587 279.728 182.833 279.263 182.545 278.377Z" fill="#004236"/>
<path d="M213.68 258.644C214.831 256.849 217.33 258.72 218.148 259.927C218.894 261.023 219.242 263.035 217.434 263.268C216.542 263.382 215.757 262.885 215.155 262.204C213.985 261.348 212.857 259.932 213.68 258.644Z" fill="#004236"/>
<path d="M142.573 302.172C142.573 300.471 144.058 299.353 145.657 299.262C148.502 299.092 151.815 302.173 150.468 305.142C149.523 307.227 146.706 306.881 144.979 305.552C143.695 304.827 142.578 303.771 142.573 302.172Z" fill="#004236"/>
<path d="M180.815 369.084C180.815 367.383 182.3 366.265 183.899 366.174C186.745 366.004 190.058 369.085 188.711 372.054C187.766 374.139 184.949 373.793 183.221 372.465C181.93 371.739 180.817 370.679 180.815 369.084Z" fill="#004236"/>
<path d="M176.435 303.198C176.35 303.028 176.279 302.847 176.232 302.662C176.152 302.516 176.087 302.352 176.04 302.167C175.789 301.197 176.324 300.154 177.332 299.894C179.399 299.361 181.811 302.064 180.924 304.027C180.5 304.962 179.499 305.418 178.513 305.162C177.505 304.915 176.879 304.086 176.435 303.198Z" fill="#004236"/>
<path d="M205.505 288.674C205.295 288.29 205.121 287.836 205.011 287.366C204.458 286.632 204.165 285.758 204.387 284.724C204.781 282.896 206.809 282.081 208.494 282.652C211.451 283.658 213.704 289.657 209.618 290.713C207.921 291.151 206.301 290.147 205.505 288.674Z" fill="#004236"/>
<path d="M208.075 330.093C207.441 328.499 208.164 326.379 209.899 325.884C210.902 325.6 211.752 325.637 212.614 326.268C213.147 326.656 213.584 327.162 213.959 327.695C215.271 329.57 215.433 331.852 213.23 333.164C212.552 333.569 211.644 333.307 211.068 332.792C209.742 332.441 208.55 331.297 208.075 330.093Z" fill="#004236"/>
<path d="M161.41 356.426C161.228 353.514 164.449 351.955 166.789 353.311C168.275 354.17 169.361 355.924 168.982 357.629C169.061 357.998 169.079 358.386 169.015 358.776C168.659 360.956 166.072 361.43 164.409 360.468C162.98 359.627 161.523 358.156 161.41 356.426Z" fill="#004236"/>
<path d="M125.448 345.02C124.669 343.713 124.6 341.914 126.109 341.068C126.696 340.741 127.442 340.699 128.182 340.836C131.08 340.466 133.943 345.002 131.475 347.132C129.539 348.804 126.525 346.844 125.448 345.02Z" fill="#004236"/>
<path d="M199.173 351.779C200.618 350.511 202.339 350.505 203.843 351.21C205.789 351.786 207.591 353.646 207.759 355.632C207.801 356.113 207.74 356.57 207.609 356.999L207.608 357.006C207.522 358.65 206.266 359.617 205.015 359.582C204.815 359.647 204.609 359.704 204.402 359.741C200.415 360.463 195.353 355.126 199.173 351.779Z" fill="#004236"/>
<path d="M15.803 193.227C15.787 193.205 15.775 193.173 15.758 193.151C15.346 192.606 15.175 191.906 15.485 191.234C15.522 191.149 15.571 191.069 15.625 190.986C15.788 190.643 16.061 190.333 16.389 190.139C17.972 189.2 21.066 189.641 20.88 191.994C20.819 192.798 20.429 193.394 19.882 193.78C19.568 194.046 19.171 194.232 18.744 194.309C17.69 194.501 16.432 194.138 15.803 193.227Z" fill="#DB4546"/>
<path d="M53.246 184.402C54.16 182.598 57.882 182.063 58.894 183.84C59.095 184.078 59.251 184.359 59.358 184.664C59.765 185.88 59.102 187.203 58.016 187.809C55.97 188.957 51.891 187.085 53.246 184.402Z" fill="#DB4546"/>
</g>
<defs>
<clipPath id="clip0">
<rect width="243" height="437" fill="white"/>
</clipPath>
</defs>
</svg>
