<svg width="30" height="30" viewBox="0 0 30 30" fill="none" xmlns="http://www.w3.org/2000/svg">
<g clip-path="url(#clip0)">
<path d="M16.2261 1.14091C16.2261 0.656279 15.8333 0.263405 15.3486 0.263405C14.864 0.263405 14.4711 0.656278 14.4711 1.14091L14.4711 14.2411L1.37099 14.2411C0.886353 14.2411 0.493479 14.634 0.493478 15.1186C0.493479 15.6033 0.886353 15.9961 1.37099 15.9961L14.4711 15.9961V28.6224C14.4711 29.107 14.864 29.4999 15.3486 29.4999C15.8333 29.4999 16.2261 29.107 16.2261 28.6224L16.2261 15.9961L28.8525 15.9961C29.3371 15.9961 29.73 15.6033 29.73 15.1186C29.73 14.634 29.3371 14.2411 28.8525 14.2411L16.2261 14.2411L16.2261 1.14091Z" fill="#004236" stroke="#004236" stroke-width="0.3"/>
</g>
<defs>
<clipPath id="clip0">
<rect width="30" height="30" fill="white"/>
</clipPath>
</defs>
</svg>
