<svg width="320" height="150" viewBox="0 0 320 150" fill="none" xmlns="http://www.w3.org/2000/svg">
<g opacity="0.05">
<path d="M156.091 73.7623L152.807 73.6776L154.728 67.0752L152.015 66.0322L151.738 65.8343L153.458 64.6354C156.119 65.6244 158.405 67.4207 159.996 69.7732C158.712 71.1433 157.423 72.4819 156.152 73.8336" fill="#FDFBF8"/>
<path d="M143.671 60.6108C143.986 60.8348 144.374 61.1115 144.701 61.1218C146.804 61.1441 147.337 62.1939 146.742 64.0834C145.986 63.8151 145.215 63.5909 144.433 63.4121C144.078 63.2841 143.696 63.2469 143.322 63.3038C142.948 63.3608 142.595 63.5103 142.294 63.7385C141.993 63.9667 141.753 64.2663 141.597 64.6105C141.441 64.9547 141.374 65.3324 141.401 65.7094C140.975 68.8071 140.005 69.2298 137.273 67.5879L143.671 60.6108Z" fill="#FDFBF8"/>
<path d="M237.107 76.575C237.528 75.9837 238.029 75.4766 238.401 75.0727C238.413 74.078 238.416 73.0203 238.449 71.957C239.303 72.0429 240.135 72.2778 240.908 72.6517C242.608 73.8642 240.445 74.5518 240.393 75.7971C242.241 77.5055 240.826 79.646 240.769 81.6406L237.159 76.501" fill="#FDFBF8"/>
<path d="M92.7419 12.9648C93.1604 11.4791 93.6054 9.76131 95.603 10.322C96.9216 10.8683 98.1627 11.585 99.2951 12.4539C98.8025 13.6916 98.3524 14.7922 97.9151 15.8742L92.7419 12.9648Z" fill="#FDFBF8"/>
<path d="M173.835 52.9931C174.006 52.7529 174.19 52.494 174.736 51.9633C175.026 54.9577 177.696 55.1617 179.367 56.4929L178.577 55.5674C179.476 55.2109 180.406 54.9409 181.355 54.7609C183.041 54.6252 182.593 56.2296 183.032 57.1L177.697 57.6999L176.869 57.806C176.182 55.8382 174.006 55.7632 172.728 54.5451L173.782 53.0671" fill="#FDFBF8"/>
<path d="M191.478 50.4134C191.681 50.5584 191.782 50.9647 191.969 51.0147C192.777 51.1724 193.6 51.2299 194.489 51.3903L194.411 52.2819L192.348 52.3996C192.071 53.3733 190.858 54.4875 192.917 55.3146L193.219 53.5226L193.813 53.2771L194.708 55.4214L195.268 56.6294L191.562 56.9405L189.699 53.4933L190.36 50.9259C190.7 50.7225 191.008 50.5245 191.335 50.3396L191.465 50.4319" fill="#FDFBF8"/>
<path d="M135.341 78.309L133.101 79.2207L132.88 79.0627C132.085 78.6912 130.864 78.4889 131.507 77.2748C131.796 76.8683 132.775 76.7857 133.775 76.4394L133.482 72.1603C133.49 72.11 133.51 72.062 133.54 72.0205C133.57 71.9789 133.608 71.9447 133.653 71.9201L134.207 72.3156L137.348 73.5796L137.707 74.3658C136.766 74.6699 135.945 74.9209 136.041 76.2717C136.107 76.9602 135.549 77.7046 135.222 78.4752" fill="#FDFBF8"/>
<path d="M155.247 48.4883C155.395 48.5937 155.411 48.8839 155.559 48.9893C156.316 49.5297 157.24 50.1888 156.481 51.0969C156.125 51.5958 155.106 51.5382 153.888 51.8398C153.954 52.7236 154.021 53.9977 154.009 55.5781L150.569 52.8182C152.115 51.3555 153.641 49.8797 155.155 48.4223" fill="#FDFBF8"/>
<path d="M160.124 43.2138C160.496 43.7861 160.856 44.3771 161.273 44.9256C161.511 45.1599 161.679 45.4569 161.756 45.7823C161.832 46.1078 161.815 46.4483 161.706 46.7644C161.598 47.0806 161.401 47.3594 161.14 47.5687C160.879 47.778 160.565 47.9091 160.233 47.947L157.98 48.4869L156.979 46.6854L160.058 43.3063" fill="#FDFBF8"/>
<path d="M207.838 59.8811C208.639 57.6643 208.639 57.6642 211.988 58.91C211.637 59.6357 211.255 60.3668 210.905 61.0926L207.838 59.8811Z" fill="#FDFBF8"/>
<path d="M176.934 57.7135L177.762 57.6074L176.934 57.7135Z" fill="#FDFBF8"/>
<path d="M164.39 4.04921L164.548 2.85135C164.769 3.0095 164.973 2.95922 164.973 3.15445C166.93 5.99993 172.295 7.62446 168.599 12.3759L169.803 14.9077C169.392 14.9765 168.777 15.2911 168.606 15.1408C168.032 14.4533 167.507 13.7252 167.037 12.9624C165.02 12.9856 163.072 12.2343 161.593 10.8633C160.934 10.3691 160.45 9.67837 160.21 8.89075C159.97 8.10313 159.987 7.25965 160.258 6.48213C160.533 5.6629 161.098 4.97253 161.848 4.54146C162.597 4.11038 163.478 3.96817 164.324 4.14168" fill="#FDFBF8"/>
<path d="M191.033 27.9032L186.162 23.007C187.325 22.2754 188.237 21.6997 189.298 21.0341C190.051 20.5965 190.943 20.4639 191.791 20.664C192.638 20.8642 193.377 21.3821 193.855 22.1104C194.895 23.4658 195.92 24.7261 194.882 26.4945C194.684 26.7716 194.5 27.2257 194.302 27.3076C192.933 27.5855 192.271 28.2004 193.324 29.9278L192.409 29.9999L191.073 28.238L191.218 28.0348" fill="#FDFBF8"/>
<path d="M181.668 35.5224C182.616 35.9903 183.527 36.5287 184.395 37.1328C184.746 37.3832 185.063 38.3065 184.892 38.5467C184.242 39.4193 183.466 40.1907 182.59 40.8358C181.533 41.2443 180.391 41.3826 179.267 41.2382C178.143 41.0939 177.074 40.6712 176.154 40.0089C175.87 39.666 175.684 39.2534 175.613 38.814C175.523 38.1917 175.657 37.5578 175.991 37.0252C176.325 36.4926 176.837 36.0959 177.436 35.9054C178.792 35.2555 180.163 34.1145 181.668 35.5224Z" fill="#FDFBF8"/>
<path d="M168.7 49.8321C168.309 49.8324 167.621 49.7035 167.565 49.8592C166.704 51.6143 166.127 53.517 163.8 54.004C163.426 54.0992 163.245 55.0571 163.036 55.4662C162.435 54.678 161.874 53.8595 161.357 53.0138C160.842 52.2947 160.616 51.4078 160.726 50.5301C160.835 49.6523 161.272 48.848 161.947 48.2774L166.606 47.7252C166.839 48.9229 168.53 48.038 169.419 48.7841L168.937 49.6948L168.626 49.7793" fill="#FDFBF8"/>
<path d="M235.283 52.5533C236.199 53.5288 236.987 54.6159 237.63 55.789C238.537 57.9967 237.412 59.3405 235.003 59.2392C232.594 59.1379 230.167 56.7941 231.155 54.6273C231.792 53.6965 232.612 52.9058 233.565 52.3039C234.03 53.3325 234.55 53.815 235.333 52.5612L235.283 52.5533Z" fill="#FDFBF8"/>
<path d="M172.172 44.4189C171.9 44.2811 171.651 44.1032 171.432 43.8915C170.896 43.5093 170.232 43.0351 170.157 42.3967C170.083 41.7583 170.816 41.4728 171.475 40.549C170.713 40.7579 170.008 40.7294 169.689 41.0594C168.595 42.2025 167.647 41.3033 166.953 40.7524C166.667 40.4539 166.445 40.1008 166.299 39.7141C166.153 39.3275 166.087 38.9155 166.105 38.5026C166.186 38.1456 166.337 37.8082 166.55 37.5101C166.763 37.2119 167.033 36.9589 167.344 36.7657C167.953 36.573 168.614 36.6262 169.185 36.9136C169.756 37.2011 170.192 37.7001 170.4 38.3045C170.519 38.7239 170.58 39.1854 170.651 39.5152C171.401 39.5199 172.656 39.4399 172.667 39.5032C172.815 40.7373 172.86 41.9817 172.801 43.2233C172.783 43.6006 172.3 43.9253 172.037 44.2949L172.172 44.4189Z" fill="#FDFBF8"/>
<path d="M233.567 52.3043C233.072 51.7118 232.543 51.1484 231.983 50.6169C231.009 49.7548 230.255 47.2936 230.964 46.5729C232.148 45.3822 233.309 46.0989 234.537 46.7234C235.381 47.0575 236.261 47.2927 237.16 47.4238C237.118 48.1467 237.081 49.0964 237.024 50.1148L233.944 51.7369C233.799 51.9401 233.654 52.1433 233.509 52.3465L233.567 52.3043Z" fill="#FDFBF8"/>
<path d="M102.259 3.52891C103.806 3.67755 105.33 4.00657 106.801 4.50975C107.693 5.1685 108.351 6.09676 108.676 7.15749C108.808 7.55843 108.109 8.53784 107.569 8.90493C107.076 9.21295 106.502 9.36591 105.921 9.34419C105.34 9.32246 104.779 9.1272 104.31 8.78322C102.093 7.59215 103.211 5.5176 102.259 3.52891Z" fill="#FDFBF8"/>
<path d="M204.644 41.3756C205.261 40.7427 206.035 40.2836 206.886 40.0441C207.737 39.8045 208.636 39.7931 209.493 40.011C210.86 40.9862 211.621 43.5924 210.588 44.8067C210.32 45.0111 210.006 45.1448 209.673 45.1948C209.34 45.2449 208.999 45.2098 208.684 45.093C207.708 44.2595 206.8 43.3503 205.967 42.3744L204.618 41.4123" fill="#FDFBF8"/>
<path d="M129.33 23.0322C128.76 22.5799 128.376 21.9345 128.25 21.2179C128.124 20.5013 128.265 19.7633 128.646 19.1438C129.305 18.2199 131.48 18.3769 132.908 19.6186C134.336 20.8603 133.384 21.8817 132.778 22.9269C132.172 23.9721 130.467 23.8995 129.33 23.0322Z" fill="#FDFBF8"/>
<path d="M190.306 50.8873L189.645 53.455C189.694 55.8876 188.703 56.7692 186.455 56.3644C185.784 56.2487 185.117 56.2467 184.357 56.1786C184.541 55.9199 184.681 55.4899 184.858 55.0861C185.609 53.6424 186.341 52.1855 187.074 50.7286L190.306 50.8873Z" fill="#FDFBF8"/>
<path d="M187.073 50.7275C186.341 52.1843 185.59 53.6281 184.857 55.085L182.931 53.8777C182.022 53.4002 181.183 52.8015 180.436 52.0984C180.315 51.803 180.269 51.4827 180.301 51.1654C180.333 50.848 180.443 50.5434 180.62 50.278C181.134 49.5574 182.03 48.4963 182.828 50.1526C183.199 50.6818 183.629 51.1663 184.111 51.5972L184.333 51.7556L184.208 51.4997C184.827 49.8503 186.092 50.6965 187.115 50.7856" fill="#FDFBF8"/>
<path d="M229.207 50.0885C227.776 51.5484 228.379 53.7907 226.165 53.494C225.024 53.3439 223.95 52.8682 223.072 52.124C222.858 51.877 222.717 51.5749 222.666 51.252C222.615 50.9291 222.656 50.5981 222.783 50.2971C222.911 49.9961 223.12 49.7372 223.388 49.5493C223.656 49.3614 223.97 49.252 224.297 49.2342C225.96 49.3985 227.607 49.7056 229.218 50.1518" fill="#FDFBF8"/>
<path d="M126.189 82.1521C126.762 81.975 127.442 81.5682 128.062 81.676C128.349 81.7728 128.608 81.939 128.815 82.1598C129.022 82.3806 129.172 82.6491 129.25 82.9416C129.417 84.2704 129.395 85.6158 129.187 86.9387C129.174 87.1743 129.094 87.4015 128.957 87.5937C128.821 87.7858 128.632 87.935 128.413 88.0244C128.195 88.1137 127.956 88.1393 127.724 88.0983C127.491 88.0572 127.275 87.9512 127.101 87.7924C126.491 87.3575 125.704 86.1549 125.91 85.8276C126.235 85.426 126.427 84.9332 126.46 84.4176C126.493 83.9021 126.366 83.3891 126.095 82.949C126.095 82.949 126.169 82.6112 126.263 82.2049" fill="#FDFBF8"/>
<path d="M217.999 36.6844C218.753 36.7209 219.521 36.5437 220.022 36.8177C220.897 37.2486 221.642 37.9047 222.179 38.7186C222.235 39.0726 222.2 39.435 222.077 39.7716C221.953 40.1081 221.747 40.4078 221.476 40.6424C220.366 40.8739 219.223 40.8998 218.104 40.7186C217.975 40.6263 217.724 39.8059 217.726 39.3337C217.765 38.4594 217.847 37.5875 217.972 36.7214" fill="#FDFBF8"/>
<path d="M135.343 78.3089C135.617 77.6122 136.176 76.8677 136.162 76.1053C136.066 74.7545 136.887 74.5035 137.828 74.1995C138.789 74.8848 139.676 75.517 140.6 76.3713C140.701 76.5497 140.759 76.75 140.768 76.9551C140.777 77.1601 140.736 77.3642 140.651 77.5507C139.906 78.1047 139.033 78.4587 138.113 78.5785C137.193 78.6983 136.257 78.5798 135.396 78.2349" fill="#FDFBF8"/>
<path d="M251.183 61.2175C251.005 61.4754 250.882 61.7676 250.823 62.0754C250.817 64.8588 249.556 65.8833 246.857 65.0171C245.996 64.738 245.766 64.2393 246.169 63.2444C247.154 60.9642 248.93 60.7811 251.17 61.236" fill="#FDFBF8"/>
<path d="M203.075 21.496L207.242 23.7438C206.533 24.4646 205.924 25.5916 205.099 25.8112C204.547 26.002 203.945 25.9839 203.406 25.7603C202.867 25.5367 202.429 25.123 202.175 24.5979C201.92 24.0728 201.867 23.4727 202.026 22.9112C202.185 22.3497 202.544 21.8659 203.035 21.5515" fill="#FDFBF8"/>
<path d="M208.645 34.1655C209.613 34.3521 210.541 34.7032 211.39 35.2033C212.188 35.9454 212.83 36.8393 213.278 37.8325C212.968 38.3606 212.469 38.7518 211.883 38.9281C211.223 39.014 210.555 38.8475 210.014 38.4612C209.472 38.0749 209.097 37.4977 208.964 36.8459C208.817 35.9284 208.732 35.0021 208.711 34.0733" fill="#FDFBF8"/>
<path d="M241.071 49.9092L240.825 47.7539C240.708 47.2035 240.631 46.6455 240.594 46.0841C240.636 45.5296 240.73 44.9801 240.873 44.4427C241.569 44.7166 242.511 44.8031 242.997 45.3727C243.543 46.1223 243.876 47.0052 243.962 47.9285C244.023 48.2622 244.009 48.6054 243.92 48.9328C243.831 49.2602 243.67 49.5637 243.449 49.8207C243.035 50.1666 242.166 49.9376 241.164 49.9752" fill="#FDFBF8"/>
<path d="M172.141 44.4236C173.416 45.333 174.82 46.3347 172.605 47.6818C172.508 47.7586 172.435 47.8611 172.394 47.9775C171.427 50.2708 171.427 50.2707 169.45 48.6652C169.727 48.0856 169.914 47.4671 170.005 46.8311C169.962 46.2123 170.155 45.6003 170.546 45.1182C170.936 44.6362 171.495 44.3202 172.109 44.2337L172.141 44.4236Z" fill="#FDFBF8"/>
<path d="M159.275 59.334C159.874 59.1199 160.493 58.6419 161.019 58.7655C161.544 58.8892 161.919 59.5752 162.383 60.0181C161.795 60.2955 161.173 60.8553 160.672 60.7765C159.031 60.4979 158.387 61.7116 157.454 62.5512C157.132 62.8273 156.787 63.0756 156.423 63.2934C156.222 62.8714 155.778 62.36 155.884 62.0169C156.226 60.9508 156.138 59.1594 158.233 60.0128C158.51 60.2105 159.001 60.0306 159.378 60.0489L159.275 59.334Z" fill="#FDFBF8"/>
<path d="M174.372 20.229C174.776 20.2102 175.311 20.007 175.451 20.1626C176.571 21.4072 177.876 20.9445 179.214 20.8671C179.763 20.8403 180.36 21.6841 180.932 22.0927C180.537 22.647 179.931 23.6924 179.812 23.6634C178.015 22.9906 176.257 22.22 174.544 21.3555C174.415 21.2633 174.489 20.7302 174.459 20.2633" fill="#FDFBF8"/>
<path d="M203.053 55.49C203.436 54.6773 203.719 53.8216 203.896 52.941C203.926 50.9834 205.649 50.4834 206.735 49.3904C206.867 49.2056 207.661 49.3819 207.912 49.6165C208.053 49.7817 208.157 49.9761 208.214 50.1859C208.272 50.3956 208.283 50.6158 208.245 50.8302C208.206 51.0808 207.81 51.4396 207.401 51.4267C204.99 51.7976 204.316 53.2125 206.13 55.5937L203.066 55.4715" fill="#FDFBF8"/>
<path d="M173.834 52.9947L172.78 54.4729L168.295 51.8876L169.231 50.5758C169.643 50.7022 170.086 51.0184 170.461 50.9232C170.82 50.7902 171.205 50.74 171.586 50.7764C171.967 50.8129 172.335 50.9351 172.662 51.1338C172.99 51.3325 173.268 51.6025 173.476 51.9238C173.685 52.2451 173.818 52.6094 173.866 52.9894" fill="#FDFBF8"/>
<path d="M132.88 79.0633L133.102 79.2213L134.004 83.1545L135.147 83.4678C134.087 84.5238 133.386 84.9992 132.625 83.5645C132.555 83.3869 132.455 83.2218 132.331 83.0763C130.172 80.6716 130.172 80.6719 132.88 79.0633Z" fill="#FDFBF8"/>
<path d="M163.666 17.0257L164.301 20.6291C163.41 20.5505 162.275 20.7728 161.716 20.3457C161.156 19.9187 161.042 18.75 160.698 17.8637L163.648 17.0125" fill="#FDFBF8"/>
<path d="M152.707 21.4477C155.184 20.7892 156.298 21.2214 156.589 22.5721C156.88 23.9227 155.838 24.0158 154.748 24.2144C152.081 24.7096 153.019 22.7298 152.707 21.4477Z" fill="#FDFBF8"/>
<path d="M204.645 41.3778L205.994 42.3399C205.383 43.9391 204.362 43.9638 203.332 42.8669L199.613 39.4052L202.002 38.3217L202.261 38.8967L201.394 39.644C201.457 39.7983 201.541 39.9429 201.645 40.0738C202.998 39.7009 202.733 43.0808 204.658 41.3593" fill="#FDFBF8"/>
<path d="M151.67 65.8141L151.947 66.012L152.2 69.5656C150.401 69.704 150.401 69.704 148.715 65.6579L151.696 65.7771" fill="#FDFBF8"/>
<path d="M180.829 31.3036C179.043 31.6188 177.386 31.6355 177.026 29.4829C176.973 29.1663 177.685 28.5591 178.099 28.4084C179.326 28.0567 180.432 29.3199 180.829 31.3036Z" fill="#FDFBF8"/>
<path d="M243.404 76.773L245.261 76.2017C245.426 75.5394 245.392 74.6506 245.719 74.4657C246.046 74.2808 246.946 74.5043 247.553 74.6305C247.701 74.736 248.107 75.0259 248.028 75.1367C247.234 76.0996 246.367 77.0007 245.436 77.8322C245.305 78.017 244.389 77.3079 243.404 76.773Z" fill="#FDFBF8"/>
<path d="M166.638 33.3353C166.973 32.6511 167.418 32.0268 167.956 31.4876C168.615 31.1494 169.324 30.9208 170.056 30.8109C170.033 31.3518 170.183 31.9609 169.98 32.4016C168.995 34.4866 168.504 34.4712 166.741 33.2693" fill="#FDFBF8"/>
<path d="M177.282 43.7429L179.881 44.7884C179.921 45.5139 180.033 46.5695 180.147 47.9335C178.023 47.0035 176.908 45.7905 177.282 43.7429Z" fill="#FDFBF8"/>
<path d="M245.168 71.1731C244.011 70.538 242.894 69.8339 241.822 69.0646C241.544 68.8669 241.747 68.0354 241.725 67.5183C242.393 67.5205 243.422 67.251 243.67 67.5674C244.373 68.6068 244.977 69.7098 245.474 70.8617L245.224 71.2126" fill="#FDFBF8"/>
<path d="M193.53 36.7929C193.925 36.2386 194.432 35.7635 194.666 35.5127C195.271 36.0429 195.927 36.5107 196.625 36.9095C197.942 37.4864 198.058 38.1829 197.241 39.1333L194.182 37.8715L193.517 36.8114" fill="#FDFBF8"/>
<path d="M194.36 16.6733L198.522 19.0849C197.395 19.2745 196.258 19.394 195.116 19.4432C194.676 19.4355 193.86 18.9375 193.897 18.5734C193.961 17.877 194.144 17.1967 194.439 16.5626" fill="#FDFBF8"/>
<path d="M143.034 80.4228C143.883 79.6624 144.666 78.7989 145.941 79.7083C147.216 80.6177 147.472 81.4698 146.362 82.1274L143.291 81.2748L142.982 80.4968" fill="#FDFBF8"/>
<path d="M153.485 64.599C153.126 64.5552 152.781 64.4353 152.472 64.2475C152.163 64.0597 151.898 63.8081 151.694 63.5096C151.49 63.2111 151.352 62.8726 151.289 62.5166C151.227 62.1605 151.24 61.7951 151.33 61.4449L154.315 61.6778L153.454 64.6043" fill="#FDFBF8"/>
<path d="M193.529 36.7932L194.194 37.8534C193.942 38.6767 193.866 39.8773 192.525 39.4507C191.897 39.1979 190.991 38.3566 191.136 37.7629C191.317 36.4146 192.539 36.8125 193.463 36.8857" fill="#FDFBF8"/>
<path d="M187.973 14.0953C189.114 14.4988 190.231 14.9695 191.317 15.5048C191.483 15.6234 191.305 16.8899 191.088 16.9586C190.872 17.0273 189.679 17.0965 189.363 16.759C188.793 15.9307 188.327 15.0363 187.973 14.0953Z" fill="#FDFBF8"/>
<path d="M233.983 51.6809L237.063 50.0589L238.911 51.3768L235.284 52.5533L234.009 51.644" fill="#FDFBF8"/>
<path d="M137.415 73.4891L134.275 72.2248L136.77 71.3842L137.415 73.4891Z" fill="#FDFBF8"/>
<path d="M144.956 85.5022C142.973 86.2897 142.242 85.9076 141.667 83.1562L145.249 84.8184C145.117 85.0032 144.985 85.1881 144.983 85.4652" fill="#FDFBF8"/>
<path d="M193.145 47.1408C192.514 45.9936 191.877 45.0099 191.502 44.1289C191.528 44.0067 191.579 43.8912 191.651 43.7895C191.724 43.6877 191.816 43.6018 191.924 43.5375C192.039 43.5107 192.16 43.5121 192.275 43.5409C192.39 43.5697 192.497 43.6252 192.586 43.7034C193.192 44.3462 193.725 45.0538 194.176 45.8131C194.379 45.9581 194.055 46.6468 193.812 46.9477C193.57 47.2487 193.158 47.1223 193.127 47.1276" fill="#FDFBF8"/>
<path d="M183.584 28.6129C184.755 28.8074 185.494 28.7489 186.011 29.118C186.529 29.487 186.276 30.115 186.392 30.6162C185.736 30.6773 185.002 30.9626 184.442 30.7308C183.883 30.499 184.033 29.7418 183.639 28.6525" fill="#FDFBF8"/>
<path d="M143.88 67.9809C144.818 68.0877 145.744 68.2816 146.646 68.5597C146.775 68.652 146.704 69.8839 146.578 69.9051C145.934 70.0645 145.259 70.0541 144.62 69.8748C144.343 69.6771 144.245 68.9938 143.88 67.9809Z" fill="#FDFBF8"/>
<path d="M143.033 80.4223L143.342 81.2006C143.402 83.6964 141.813 82.1722 140.731 82.3207C140.917 80.8088 141.236 79.8931 143.033 80.4223Z" fill="#FDFBF8"/>
<path d="M166.493 56.1743C167.536 56.2765 168.327 56.1443 168.639 56.4501C168.95 56.756 168.993 57.5948 169.125 58.191C168.555 58.2863 167.769 58.6456 167.468 58.4031C167.167 58.1605 166.932 57.2399 166.493 56.1743Z" fill="#FDFBF8"/>
<path d="M232.762 63.2423C234.002 63.2626 234.859 63.0377 235.107 63.3542C235.355 63.6706 235.396 64.5915 235.507 65.2562C235.077 65.3119 234.47 65.576 234.28 65.4125C233.701 64.7427 233.193 64.0157 232.762 63.2423Z" fill="#FDFBF8"/>
<path d="M172.548 28.8819C174.402 28.1974 175.35 28.3155 175.548 29.6002C175.612 29.9801 174.955 30.4316 174.639 30.875L172.548 28.8819Z" fill="#FDFBF8"/>
<path d="M191.48 50.4147L191.276 50.2696C191.168 49.523 191.072 48.7581 190.945 47.9983L194.215 48.5741C193.012 49.3611 192.213 49.9341 191.493 50.3963" fill="#FDFBF8"/>
<path d="M199.192 23.9665L197.178 22.5298C197.547 22.1791 197.954 21.8711 198.391 21.6111C198.942 22.1651 199.449 22.7601 199.91 23.391C199.712 23.6681 199.514 23.9453 199.2 24.1118" fill="#FDFBF8"/>
<path d="M240.863 59.3485L241.256 56.4511L243.975 57.9165L240.863 59.3485Z" fill="#FDFBF8"/>
<path d="M210.32 54.1781C211.388 54.2434 212.219 54.0557 212.518 54.38C212.816 54.7043 212.758 55.5273 212.846 56.1473C212.352 56.2136 211.619 56.4991 211.355 56.2829C210.902 55.6397 210.553 54.9295 210.32 54.1781Z" fill="#FDFBF8"/>
<path d="M197.657 32.1004C197.559 34.8179 197.522 34.7916 194.397 33.6222C195.726 33.0092 196.584 32.5892 197.657 32.1004Z" fill="#FDFBF8"/>
<path d="M167.683 44.1445C167.267 46.1341 165.617 45.1245 164.62 45.5842C164.509 45.3099 164.196 44.8907 164.288 44.7614C164.505 44.4163 164.85 44.1713 165.248 44.0799C166.06 44.0343 166.874 44.0561 167.683 44.1445Z" fill="#FDFBF8"/>
<path d="M209.706 46.7445C210.295 47.4433 210.947 48.1312 211.46 48.8591C211.644 48.9909 211.404 49.6004 211.196 49.8142C210.988 50.0281 210.445 49.8914 210.368 49.7252C209.89 48.9103 209.496 48.016 209.094 47.172C209.226 46.9873 209.487 46.895 209.706 46.7445Z" fill="#FDFBF8"/>
<path d="M177.908 49.4311C177.255 50.5819 176.775 51.4107 176.256 52.2949C175.007 50.5676 175.452 49.8259 177.908 49.4311Z" fill="#FDFBF8"/>
<path d="M169.284 50.4991L168.753 49.7579L169.064 49.6734L169.252 50.5044L169.284 50.4991Z" fill="#FDFBF8"/>
<path d="M233.984 51.6815L235.259 52.5908C234.402 53.7918 233.956 53.3621 233.491 52.3335L233.926 51.7238" fill="#FDFBF8"/>
<path d="M184.127 51.496L184.252 51.7529L184.029 51.594L184.127 51.496Z" fill="#FDFBF8"/>
<path d="M135.192 126.043L135.94 127.496C135.505 128.106 134.891 128.225 134.521 127.767C134.151 127.308 134.499 126.663 135.192 126.043Z" fill="#FDFBF8"/>
</g>
<g opacity="0.05">
<path d="M306.833 67.7313C307.543 67.5676 308.287 67.6693 308.926 68.018C309.565 68.3666 310.054 68.9378 310.3 69.6228C310.517 70.0774 311.316 70.1768 311.858 70.6532C310.47 71.1113 310.798 71.8848 311.388 72.9826C311.979 74.0803 311.72 74.7922 310.301 74.9749C309.708 75.0804 309.133 75.2721 308.595 75.5436C307.079 76.19 305.552 76.8561 304.081 75.3815L306.723 67.981" fill="#FDFBF8"/>
<path d="M227.849 121.467L227.54 118.195L234.325 119.312L235.035 116.494L235.199 116.194L236.595 117.758C235.932 120.519 234.422 123.004 232.277 124.865C230.763 123.754 229.28 122.635 227.786 121.535" fill="#FDFBF8"/>
<path d="M239.418 107.56C239.234 107.899 239.005 108.317 239.034 108.643C239.264 110.734 238.286 111.389 236.339 111.025C236.515 110.242 236.645 109.45 236.729 108.652C236.813 108.284 236.804 107.9 236.703 107.536C236.601 107.172 236.411 106.839 236.148 106.567C235.886 106.296 235.559 106.094 235.199 105.98C234.839 105.866 234.455 105.845 234.084 105.917C230.958 105.865 230.422 104.952 231.725 102.044L239.418 107.56Z" fill="#FDFBF8"/>
<path d="M280.619 51.2885C282.144 51.526 283.903 51.762 283.585 53.8123C283.201 55.187 282.638 56.505 281.911 57.7333C280.623 57.3926 279.477 57.0776 278.35 56.7732L280.619 51.2885Z" fill="#FDFBF8"/>
<path d="M250.595 136.593C250.854 136.734 251.133 136.886 251.725 137.364C248.787 138.011 248.904 140.686 247.783 142.505L248.607 141.61C249.069 142.459 249.448 143.35 249.741 144.271C250.077 145.928 248.431 145.676 247.619 146.216L246.385 140.992L246.18 140.182C248.051 139.264 247.865 137.094 248.921 135.68L250.515 136.55" fill="#FDFBF8"/>
<path d="M220.849 101.41L219.676 99.2955L219.806 99.0567C220.08 98.2235 220.134 96.9865 221.417 97.4794C221.855 97.7185 222.054 98.6801 222.518 99.6311L226.731 98.8275C226.782 98.8301 226.832 98.8441 226.877 98.8685C226.922 98.893 226.96 98.9273 226.99 98.9688L226.664 99.5666L225.785 102.836L225.048 103.287C224.633 102.388 224.285 101.604 222.956 101.861C222.28 102.009 221.474 101.544 220.67 101.312" fill="#FDFBF8"/>
<path d="M252.841 117.599C252.754 117.759 252.468 117.81 252.381 117.969C251.935 118.786 251.391 119.782 250.399 119.137C249.861 118.844 249.796 117.825 249.35 116.651C248.481 116.823 247.224 117.042 245.654 117.22L247.982 113.474C249.619 114.833 251.267 116.172 252.895 117.5" fill="#FDFBF8"/>
<path d="M258.661 121.809C258.137 122.247 257.593 122.675 257.099 123.155C256.895 123.42 256.62 123.621 256.306 123.737C255.992 123.852 255.652 123.876 255.325 123.805C254.998 123.735 254.698 123.573 254.459 123.34C254.22 123.106 254.052 122.809 253.975 122.484L253.169 120.312L254.837 119.102L258.561 121.755" fill="#FDFBF8"/>
<path d="M246.28 140.235L246.485 141.045L246.28 140.235Z" fill="#FDFBF8"/>
<path d="M298.054 121.352L299.262 121.365C299.132 121.604 299.206 121.8 299.012 121.823C296.422 124.107 295.452 129.628 290.292 126.528L287.923 128.027C287.805 127.627 287.419 127.055 287.548 126.867C288.162 126.214 288.822 125.606 289.523 125.048C289.258 123.049 289.77 121.024 290.954 119.391C291.366 118.678 291.994 118.115 292.747 117.782C293.5 117.45 294.339 117.365 295.144 117.541C295.99 117.716 296.743 118.195 297.261 118.887C297.779 119.579 298.025 120.437 297.955 121.298" fill="#FDFBF8"/>
<path d="M277.565 150.661L281.842 145.238C282.708 146.305 283.388 147.142 284.176 148.115C284.701 148.81 284.94 149.68 284.842 150.545C284.745 151.411 284.32 152.207 283.654 152.768C282.433 153.964 281.304 155.132 279.424 154.313C279.125 154.15 278.653 154.021 278.548 153.834C278.108 152.509 277.418 151.925 275.829 153.178L275.648 152.278L277.237 150.74L277.456 150.86" fill="#FDFBF8"/>
<path d="M268.878 142.276C268.527 143.273 268.102 144.243 267.606 145.176C267.4 145.555 266.521 145.981 266.262 145.839C265.318 145.299 264.459 144.621 263.714 143.828C263.181 142.828 262.907 141.711 262.916 140.578C262.925 139.445 263.216 138.332 263.763 137.34C264.07 137.017 264.457 136.782 264.885 136.659C265.492 136.496 266.137 136.553 266.706 136.82C267.275 137.088 267.73 137.549 267.991 138.121C268.799 139.389 270.096 140.614 268.878 142.276Z" fill="#FDFBF8"/>
<path d="M253.118 131.116C253.071 130.728 253.117 130.029 252.955 129.993C251.11 129.348 249.152 129.003 248.389 126.752C248.25 126.391 247.277 126.326 246.846 126.168C247.557 125.477 248.302 124.822 249.08 124.207C249.732 123.61 250.585 123.28 251.47 123.283C252.354 123.287 253.205 123.623 253.853 124.226L254.959 128.785C253.798 129.16 254.879 130.732 254.245 131.705L253.283 131.335L253.162 131.036" fill="#FDFBF8"/>
<path d="M258.908 133.915C259.012 133.629 259.159 133.36 259.343 133.118C259.658 132.54 260.049 131.823 260.674 131.673C261.299 131.523 261.67 132.216 262.667 132.76C262.368 132.028 262.312 131.325 261.946 131.048C260.68 130.099 261.459 129.05 261.923 128.295C262.185 127.975 262.509 127.712 262.875 127.521C263.242 127.33 263.643 127.215 264.055 127.183C264.419 127.221 264.772 127.331 265.093 127.506C265.415 127.682 265.699 127.919 265.928 128.205C266.192 128.787 266.218 129.449 266.001 130.051C265.784 130.652 265.341 131.144 264.766 131.424C264.364 131.592 263.913 131.708 263.594 131.818C263.679 132.563 263.909 133.8 263.848 133.818C262.64 134.113 261.41 134.307 260.17 134.397C259.794 134.424 259.413 133.984 259.015 133.766L258.908 133.915Z" fill="#FDFBF8"/>
<path d="M291.126 59.6069C291.164 61.1604 291.02 62.7128 290.697 64.2328C290.149 65.1979 289.307 65.962 288.293 66.4117C287.91 66.591 286.854 66.0149 286.425 65.5222C286.06 65.0697 285.84 64.518 285.791 63.9387C285.743 63.3594 285.87 62.7791 286.155 62.2727C287.072 59.9289 289.266 60.7894 291.126 59.6069Z" fill="#FDFBF8"/>
<path d="M275.007 88.8189C275.388 88.1989 275.983 87.7404 276.679 87.5295C277.376 87.3186 278.125 87.37 278.786 87.6747C279.782 88.2182 279.887 90.3958 278.825 91.9624C277.763 93.5291 276.635 92.7062 275.525 92.2297C274.415 91.7532 274.283 90.0524 275.007 88.8189Z" fill="#FDFBF8"/>
<path d="M254.659 152.693L252.031 152.345C249.621 152.685 248.627 151.806 248.76 149.526C248.794 148.847 248.716 148.184 248.693 147.421C248.972 147.573 249.415 147.66 249.838 147.787C251.361 148.36 252.895 148.912 254.429 149.465L254.659 152.693Z" fill="#FDFBF8"/>
<path d="M254.43 149.465C252.896 148.912 251.373 148.339 249.839 147.787L250.806 145.729C251.172 144.771 251.665 143.866 252.274 143.039C252.553 142.884 252.865 142.8 253.184 142.794C253.503 142.788 253.819 142.86 254.103 143.004C254.88 143.428 256.041 144.19 254.492 145.181C254.011 145.613 253.582 146.098 253.212 146.628L253.081 146.867L253.32 146.713C255.032 147.13 254.343 148.486 254.378 149.513" fill="#FDFBF8"/>
<path d="M215.938 92.7848C216.182 93.3318 216.667 93.9588 216.635 94.5873C216.573 94.8838 216.439 95.1603 216.245 95.3926C216.05 95.6248 215.802 95.8055 215.521 95.9184C214.221 96.2426 212.883 96.3827 211.545 96.3346C211.309 96.3497 211.074 96.298 210.867 96.1851C210.66 96.0721 210.489 95.9026 210.374 95.6965C210.259 95.4904 210.205 95.2562 210.218 95.0206C210.231 94.785 210.31 94.5576 210.447 94.3654C210.806 93.7079 211.905 92.7826 212.255 92.9475C212.693 93.222 213.205 93.3538 213.721 93.325C214.237 93.2962 214.731 93.1084 215.135 92.7869C215.135 92.7869 215.479 92.8192 215.894 92.8646" fill="#FDFBF8"/>
<path d="M220.849 101.413C221.574 101.601 222.38 102.067 223.135 101.962C224.464 101.705 224.812 102.489 225.227 103.388C224.661 104.424 224.14 105.38 223.403 106.399C223.238 106.521 223.046 106.603 222.843 106.636C222.641 106.67 222.433 106.654 222.238 106.591C221.599 105.919 221.142 105.094 220.913 104.195C220.684 103.296 220.69 102.353 220.929 101.456" fill="#FDFBF8"/>
<path d="M258.9 133.885C258.15 135.26 257.324 136.774 255.721 134.736C255.633 134.649 255.523 134.589 255.402 134.562C253.01 133.877 253.01 133.877 254.367 131.722C254.975 131.927 255.612 132.039 256.254 132.053C256.863 131.936 257.494 132.055 258.019 132.385C258.545 132.715 258.926 133.231 259.085 133.831L258.9 133.885Z" fill="#FDFBF8"/>
<path d="M242.555 122.898C242.839 123.467 243.388 124.025 243.328 124.561C243.268 125.097 242.632 125.551 242.248 126.066C241.902 125.515 241.272 124.965 241.29 124.457C241.37 122.795 240.088 122.301 239.143 121.475C238.83 121.189 238.542 120.876 238.282 120.541C238.677 120.291 239.132 119.789 239.485 119.853C240.585 120.065 242.352 119.763 241.756 121.945C241.593 122.244 241.831 122.709 241.858 123.086L242.555 122.898Z" fill="#FDFBF8"/>
<path d="M283.187 133.201C283.254 133.599 283.52 134.107 283.382 134.264C282.281 135.525 282.897 136.766 283.134 138.084C283.226 138.626 282.46 139.32 282.123 139.937C281.525 139.611 280.415 139.134 280.429 139.013C280.882 137.149 281.436 135.311 282.089 133.507C282.165 133.368 282.704 133.377 283.164 133.291" fill="#FDFBF8"/>
<path d="M250.594 136.593L249 135.723L251.029 130.961L252.443 131.733C252.367 132.157 252.107 132.635 252.246 132.996C252.421 133.336 252.517 133.712 252.526 134.095C252.536 134.478 252.459 134.858 252.301 135.206C252.143 135.555 251.908 135.864 251.614 136.109C251.32 136.355 250.974 136.531 250.603 136.624" fill="#FDFBF8"/>
<path d="M219.806 99.0577L219.675 99.2966L215.879 100.664L215.705 101.836C214.529 100.91 213.973 100.271 215.306 99.3435C215.474 99.2524 215.626 99.1338 215.756 98.9935C217.884 96.5612 217.884 96.5615 219.806 99.0577Z" fill="#FDFBF8"/>
<path d="M285.085 122.188L281.584 123.251C281.555 122.356 281.198 121.256 281.555 120.649C281.912 120.043 283.059 119.789 283.898 119.342L285.096 122.168" fill="#FDFBF8"/>
<path d="M279.382 111.838C280.332 114.218 280.037 115.376 278.731 115.827C277.425 116.278 277.207 115.254 276.88 114.197C276.068 111.608 278.146 112.302 279.382 111.838Z" fill="#FDFBF8"/>
<path d="M235.211 116.124L235.047 116.423L231.55 117.1C231.197 115.331 231.197 115.331 235.012 113.172L235.25 116.146" fill="#FDFBF8"/>
<path d="M272.967 140.938C272.44 139.203 272.225 137.56 274.319 136.944C274.627 136.854 275.315 137.488 275.514 137.881C276.01 139.057 274.889 140.306 272.967 140.938Z" fill="#FDFBF8"/>
<path d="M269.249 127.093C269.968 127.344 270.641 127.711 271.241 128.18C271.656 128.793 271.968 129.47 272.165 130.184C271.625 130.226 271.038 130.448 270.576 130.299C268.388 129.571 268.345 129.082 269.327 127.188" fill="#FDFBF8"/>
<path d="M260.192 138.907L259.465 141.613C258.75 141.739 257.715 141.977 256.375 142.254C257.044 140.033 258.114 138.781 260.192 138.907Z" fill="#FDFBF8"/>
<path d="M219.672 109.302C220.529 110.053 221.48 110.727 220.73 112.102C219.98 113.476 219.165 113.833 218.379 112.81L218.857 109.658L219.592 109.258" fill="#FDFBF8"/>
<path d="M236.635 117.781C236.635 117.419 236.713 117.062 236.862 116.733C237.012 116.404 237.23 116.11 237.502 115.872C237.774 115.633 238.093 115.456 238.439 115.351C238.785 115.246 239.149 115.216 239.508 115.263L239.634 118.254L236.626 117.75" fill="#FDFBF8"/>
<path d="M290.906 145.969C290.643 147.15 290.309 148.315 289.908 149.457C289.81 149.637 288.531 149.611 288.437 149.405C288.343 149.198 288.131 148.022 288.428 147.667C289.183 147.003 290.015 146.432 290.906 145.969Z" fill="#FDFBF8"/>
<path d="M225.883 102.892L226.762 99.623L227.896 101.999L225.883 102.892Z" fill="#FDFBF8"/>
<path d="M214.86 111.818C213.841 109.943 214.132 109.171 216.795 108.272L215.574 112.026C215.375 111.918 215.175 111.809 214.9 111.84" fill="#FDFBF8"/>
<path d="M275.968 143.351C275.915 144.537 276.062 145.264 275.757 145.822C275.453 146.379 274.799 146.204 274.316 146.379C274.176 145.735 273.805 145.04 273.968 144.457C274.131 143.874 274.901 143.932 275.935 143.411" fill="#FDFBF8"/>
<path d="M232.126 108.651C232.133 109.594 232.051 110.537 231.883 111.466C231.807 111.605 230.575 111.682 230.539 111.559C230.304 110.939 230.233 110.268 230.335 109.612C230.498 109.313 231.164 109.134 232.126 108.651Z" fill="#FDFBF8"/>
<path d="M219.673 109.301L218.937 109.701C216.466 110.059 217.789 108.298 217.512 107.242C219.035 107.246 219.983 107.453 219.673 109.301Z" fill="#FDFBF8"/>
<path d="M246.557 129.686C246.58 130.733 246.806 131.502 246.54 131.848C246.274 132.194 245.446 132.337 244.87 132.54C244.707 131.986 244.256 131.248 244.461 130.92C244.666 130.593 245.551 130.249 246.557 129.686Z" fill="#FDFBF8"/>
<path d="M274.379 132.427C275.28 134.186 275.277 135.14 274.025 135.491C273.655 135.6 273.129 135.002 272.65 134.741L274.379 132.427Z" fill="#FDFBF8"/>
<path d="M258.643 129.425C256.618 129.251 257.422 127.492 256.846 126.557C257.105 126.414 257.484 126.052 257.623 126.128C257.992 126.303 258.277 126.616 258.415 127C258.557 127.8 258.633 128.612 258.643 129.425Z" fill="#FDFBF8"/>
<path d="M313.378 65.5879C312.751 65.6597 312.117 65.6611 311.489 65.5916C311.369 65.5264 311.143 64.7561 311.297 64.4265C311.451 64.0968 312.129 63.6134 312.268 63.6895C312.764 64.0774 313.218 64.5156 313.623 64.9973L313.318 65.5553" fill="#FDFBF8"/>
<path d="M309.081 108.677L308.571 109.613C308.005 109.512 307.451 109.39 306.886 109.289L307.441 107.704L309.081 108.677Z" fill="#FDFBF8"/>
<path d="M254.62 140.21C253.399 139.699 252.519 139.323 251.578 138.913C253.144 137.466 253.933 137.819 254.62 140.21Z" fill="#FDFBF8"/>
<path d="M252.525 131.777L253.198 131.16L253.319 131.46L252.516 131.746L252.525 131.777Z" fill="#FDFBF8"/>
<path d="M253.314 146.632L253.074 146.787L253.205 146.547L253.314 146.632Z" fill="#FDFBF8"/>
<path d="M173.442 106.982L172.088 107.899C171.431 107.54 171.239 106.944 171.65 106.522C172.061 106.1 172.743 106.368 173.442 106.982Z" fill="#FDFBF8"/>
</g>
<g opacity="0.05">
<path d="M-64.5928 53.5591C-66.1031 55.7653 -67.734 57.903 -69.1497 60.216C-71.1928 63.8348 -72.5637 67.7938 -73.1961 71.9011C-73.6524 74.5325 -73.9634 77.1868 -74.128 79.8523C-74.7236 87.246 -73.3371 94.6649 -70.1114 101.344C-66.7469 108.242 -63.1688 115.175 -57.0882 120.329C-53.2248 123.756 -48.9469 126.684 -44.3546 129.046C-34.6784 133.654 -24.1205 136.117 -13.4041 136.266C-7.3208 136.45 -1.24003 135.832 4.68217 134.43C12.8478 132.505 20.7936 129.745 28.3935 126.192C36.1956 122.435 43.7917 118.264 51.1498 113.698C54.6119 111.599 58.2557 109.805 61.7773 107.803C63.7054 106.72 65.596 105.57 67.4204 104.333C72.9839 100.572 78.5633 96.8079 84.0577 92.9435C93.8825 86.038 102.289 77.7565 108.332 67.2563C108.609 66.7795 108.94 66.3362 109.319 65.9353C112.91 61.9549 114.577 57.1325 115.433 51.9646C115.89 48.5502 115.36 45.0766 113.907 41.9534C112.131 37.6769 109.145 34.0118 105.316 31.4077C98.2856 26.6215 90.2032 23.6042 81.7563 22.6125C78.1151 22.1171 74.547 21.1272 70.9133 20.5392C67.2796 19.9511 63.9872 19.6805 60.5272 19.2672C56.3268 18.7521 52.1323 18.2692 47.9384 17.7446C45.2798 17.5171 42.6358 17.1431 40.0183 16.6245C33.0947 15.0261 25.984 14.388 18.8865 14.7285C8.66569 15.0921 -1.5881 16.0756 -11.2174 19.8189C-13.573 20.6606 -15.9822 21.3443 -18.4286 21.8657C-23.4285 23.1167 -28.339 24.701 -33.1272 26.608C-37.2414 28.191 -40.5819 30.8064 -43.98 33.4242C-48.2203 36.6807 -52.4227 39.9632 -56.6785 43.1811C-59.4839 45.4329 -61.8111 48.2224 -63.5239 51.3859C-63.9385 52.0936 -64.4548 52.7458 -64.9235 53.4305L-64.6858 53.5933L-64.5928 53.5591ZM103.201 33.3541C105.559 34.8121 107.591 36.7404 109.17 39.0183C114.115 46.3832 114.237 53.8551 108.719 61.9771C104.914 67.291 100.762 72.3476 96.2904 77.1138C92.7803 81.0077 88.6832 84.3289 84.1473 86.9573C79.4265 89.7731 74.7482 92.7716 70.2496 95.9769C64.7167 99.9458 58.9436 103.569 52.9635 106.825C49.4066 108.944 45.9639 111.249 42.6497 113.731C39.6872 115.753 36.8094 117.917 33.7874 119.843C25.7575 124.757 17.0405 128.449 7.92343 130.796C6.59363 131.166 5.23293 131.412 3.85808 131.533C-3.65345 132.373 -11.2417 132.247 -18.7214 131.16C-24.6256 130.266 -30.4368 128.841 -36.0841 126.9C-38.5926 126 -41.0132 124.871 -43.3151 123.528C-46.2917 121.756 -49.1496 119.688 -51.9825 117.665C-58.3424 113.036 -63.2457 106.685 -66.1138 99.3604C-67.9858 94.3618 -69.3311 89.1816 -70.1276 83.9037C-70.9799 79.4529 -70.454 74.848 -68.6199 70.7041C-66.5298 65.7942 -64.663 60.8432 -62.3687 55.9614C-61.1285 52.9859 -59.4268 50.2247 -57.3262 47.7794C-51.5375 41.967 -45.0027 36.9489 -37.8932 32.8566C-33.1398 29.9932 -27.8127 28.8215 -22.5022 27.6943C-18.1788 26.7852 -13.7919 26.171 -9.4581 25.4506C-7.58378 24.989 -5.68394 24.6386 -3.76823 24.4015C8.65473 23.7995 21.0714 22.9419 33.5037 22.8771C45.932 22.685 58.3608 23.2143 70.7277 24.4623C72.9113 24.7001 75.1002 25.0113 77.2793 25.3577C79.5211 25.8538 81.7886 26.2264 84.0713 26.4737C90.8508 26.771 96.7897 29.1326 103.304 33.3681" fill="#F8F3E8"/>
<path d="M-56.9925 91.4428C-54.9573 92.4239 -52.7959 93.1185 -50.5702 93.5067C-46.5585 94.0323 -42.5243 94.28 -38.4946 94.6363C-37.8529 94.6985 -37.2066 94.652 -36.5684 94.7398C-27.8863 96.0323 -19.5124 94.3066 -11.2496 91.9882C-7.43577 90.9258 -3.68897 89.5941 0.177857 88.6378C2.56334 88.0501 5.09486 88.0653 7.54486 87.6894C9.72253 87.3645 11.8798 86.886 14.0099 86.5285C15.2615 86.2194 16.5331 85.9978 17.8155 85.8655C22.9826 85.7274 28.0792 84.6324 32.8471 82.636C38.0723 80.389 43.1615 77.7694 48.3027 75.3392C50.878 74.1273 53.5785 73.1409 56.1038 71.8389C59.9419 69.8434 63.7739 67.8158 67.4143 65.5173C70.9864 63.2223 74.9589 61.6206 79.1239 60.7959C84.1012 59.8563 88.983 58.4675 93.7096 56.6466C96.716 55.4784 99.8334 54.6376 102.852 53.4919C104.206 52.8619 105.51 52.1299 106.753 51.3022L106.488 50.7715L101.201 52.3753C95.0277 54.2111 88.9033 56.5269 82.638 57.8245C72.9595 59.8443 64.1512 63.8982 55.2347 67.906C47.5943 71.3348 39.7857 74.3973 31.9943 77.3736C28.6626 78.4366 25.2612 79.2674 21.8146 79.8601C15.2374 81.3074 8.60924 82.4823 2.08958 84.1924C-3.68315 85.7294 -9.23864 88.0717 -14.9869 89.6953C-22.1789 91.7552 -29.442 93.3474 -37.0249 92.6118C-42.261 92.1 -47.4777 91.8249 -52.7084 91.3867C-54.0304 91.2778 -55.3563 90.9707 -56.6703 90.7276L-56.968 91.5295" fill="#F8F3E8"/>
<path d="M87.7124 47.0254C84.7492 45.8115 81.5907 45.1447 78.3898 45.0571C70.3732 45.0162 62.3675 45.1224 54.3609 45.0466C47.4382 44.9584 40.5561 44.6885 33.6904 44.6394C31.2229 44.6123 28.7586 44.8666 26.2821 45.0568C22.5551 45.2987 18.7569 45.6037 14.9993 45.9924C8.74794 46.5463 2.61946 48.0604 -3.17069 50.4813C-11.192 53.9566 -19.2332 57.3857 -27.2939 60.7689C-31.5354 62.5581 -35.8233 64.2317 -40.0993 65.9693C-40.1857 66 -40.2706 66.0353 -40.3533 66.0749C-46.3673 70.0863 -53.0505 73.137 -57.9991 78.6319C-58.8448 79.5614 -59.7316 80.4487 -60.5868 81.3716C-60.5868 81.3716 -60.5181 81.5164 -60.3184 81.9184C-59.0647 81.0867 -57.8116 80.2965 -56.6059 79.4738C-52.2201 76.5963 -47.9718 73.4711 -43.4108 70.909C-39.3699 68.7005 -35.1772 66.7821 -30.8641 65.1684C-24.0965 62.5248 -17.2908 59.9072 -10.404 57.7222C-1.54136 54.9764 7.23129 51.75 16.5041 50.4861C19.1554 50.1222 21.795 49.918 24.4538 49.4616C26.1509 49.2267 27.814 48.6334 29.5602 48.3064C30.8942 47.9638 32.2554 47.7366 33.6283 47.6275C41.1749 47.4164 48.7482 47.6149 56.2608 47.0454C64.0933 46.4575 71.909 46.9753 79.7323 46.87C81.2916 46.9575 82.8439 47.1432 84.3798 47.4257C85.4461 47.5411 86.5129 47.6148 87.5761 47.7141L87.6898 47.0379" fill="#F8F3E8"/>
<path d="M71.4964 51.1063C70.8292 51.0801 70.1613 51.0891 69.4951 51.133C63.8371 51.9106 58.1732 52.6563 52.5243 53.482C49.6162 53.9354 46.7558 54.6867 43.8722 55.2267C41.3316 55.6942 38.7889 56.0625 36.2458 56.4724C31.6977 57.1998 27.1562 57.9177 22.6236 58.6836C21.9735 58.7821 21.3481 59.0033 20.7807 59.3354C17.235 61.4752 13.2399 62.1901 9.29454 63.0367C3.13285 64.193 -2.89099 65.9908 -8.6786 68.4006C-11.9894 69.7709 -15.4433 70.7653 -18.9759 71.3653C-25.535 72.6434 -32.1523 73.9655 -38.1237 77.3637C-40.4284 78.509 -42.7964 79.5226 -45.2159 80.3997C-46.0034 80.7544 -46.7473 81.2089 -47.7546 81.7623C-46.6055 82.6746 -45.8705 82.1721 -45.1641 81.9155C-42.4737 80.9639 -39.8292 79.8553 -37.0927 79.061C-33.4926 77.9549 -29.8365 77.0406 -26.1396 76.3217C-20.4786 75.2947 -15.1623 73.1799 -9.78194 71.3184C-3.37867 68.9988 3.23744 67.3154 9.97069 66.2928C12.8717 65.8904 15.6934 64.9308 18.5834 64.3813C20.9288 63.9338 23.3308 63.8323 25.6732 63.3688C34.2003 61.9249 42.6185 59.8996 50.8694 57.3072C56.1626 55.5117 61.7276 54.5028 67.1789 53.1089C68.6667 52.7308 70.1462 52.263 71.6251 51.8368L71.4964 51.1063Z" fill="#F8F3E8"/>
<path d="M86.1584 70.7375C85.2478 71.0001 84.3554 71.3223 83.4871 71.7021C74.0558 76.5027 64.718 81.493 55.759 87.1338C50.856 90.2158 46.3482 93.9037 41.5583 97.147C38.8288 99.014 35.9689 100.683 33.0005 102.141C28.2093 104.447 23.361 106.715 18.3701 108.619C14.8775 109.753 11.3265 110.697 7.73233 111.449C6.30961 111.627 4.94586 112.127 3.74411 112.909C4.26239 114.437 5.30438 114.2 6.32811 114.133C11.7352 113.742 16.739 111.819 21.7614 109.949C27.6099 107.71 33.3407 105.153 39.2197 103.032C45.3074 100.831 50.4039 97.0989 55.4703 93.2069C58.6747 90.7497 61.6524 88.0116 64.7437 85.3932C64.8046 85.3262 64.8704 85.2639 64.9408 85.2069C70.1717 81.9722 74.9325 77.9966 80.5838 75.4128C82.8246 74.4611 84.8531 73.0722 86.5507 71.3272L86.2516 70.7035" fill="#F8F3E8"/>
<path d="M56.1669 79.1309C55.7407 79.0946 55.3119 79.1055 54.888 79.1633C53.9044 79.4061 52.9368 79.7093 51.9904 80.0708C44.6974 82.8902 37.4136 85.7298 30.1393 88.5899C28.5172 89.2253 26.9227 89.9634 25.3442 90.6984C12.1327 97.0921 -2.10109 101.11 -16.7057 102.569C-24.775 103.366 -32.9124 103.149 -40.9279 101.923C-46.6415 100.987 -52.2905 99.7318 -57.967 98.6392C-59.1914 98.3876 -60.4113 97.7621 -61.667 98.76C-61.4601 100.131 -60.3812 100.534 -59.4081 100.949C-48.921 105.356 -37.4265 106.805 -26.1736 105.138C-20.1573 104.326 -14.0819 103.918 -8.06957 103.174C-0.716096 102.286 6.26299 99.8846 13.3274 97.8072C20.3918 95.7298 26.754 92.25 33.3766 89.1859C35.5464 88.1992 37.8127 87.4183 40.0291 86.5473C45.169 84.4793 50.2938 82.4335 55.4033 80.4099C55.7524 80.2061 56.0709 79.9539 56.3492 79.6607L56.1391 79.07" fill="#F8F3E8"/>
<path d="M7.98751 35.9965C4.63593 36.3837 1.26682 36.6331 -2.04525 37.187C-6.22539 37.8869 -10.3845 38.699 -14.4886 39.7163C-17.4272 40.4663 -20.3143 41.4057 -23.1316 42.5287C-28.3508 44.5424 -33.7031 46.465 -38.4204 49.5206C-42.0713 51.8215 -45.5809 54.3394 -48.9305 57.0604C-51.6545 59.5251 -54.2244 62.1547 -56.6255 64.9348C-57.271 65.7896 -57.8384 66.7007 -58.3211 67.6568C-56.3017 67.7264 -55.5646 66.527 -54.6378 65.7648C-51.9541 63.5378 -49.4372 61.0849 -46.6654 58.974C-44.7742 57.6918 -42.7898 56.5525 -40.7289 55.5658C-38.6953 54.4719 -36.6306 53.4553 -34.6034 52.3709C-28.2836 48.9738 -22.1416 45.2036 -15.3514 42.8127C-9.04602 40.4541 -2.49748 38.8052 4.173 37.8963C5.5687 37.7344 7.06453 37.7527 8.15808 36.6857L7.98751 35.9965Z" fill="#F8F3E8"/>
<path d="M-34.975 85.7616C-33.8609 85.6224 -32.7557 85.4182 -31.6653 85.1501C-25.034 82.9193 -18.1841 81.4005 -11.2314 80.619C-2.81889 79.6433 5.50585 78.0205 13.6689 75.7652C19.1568 74.2566 24.7247 72.9983 30.2096 71.4737C34.4499 70.2983 38.6707 68.886 42.849 67.5563C43.5544 67.2378 44.2228 66.8431 44.8422 66.379L44.6165 65.7497C40.6211 66.5062 36.6067 67.2497 32.6493 68.0323C27.156 69.202 21.6966 70.4646 16.2398 71.785C12.0365 72.8042 7.82636 73.8747 3.69416 75.0962C-1.82785 76.5296 -7.43741 77.6021 -13.0987 78.3071C-19.1707 79.2203 -25.1522 80.8379 -31.1567 82.2442C-32.0557 82.421 -32.8878 82.8441 -33.5604 83.4664C-34.2329 84.0886 -34.7195 84.8855 -34.9655 85.7681" fill="#F8F3E8"/>
<path d="M95.1148 38.4757C94.3494 38.3288 93.6005 38.1373 92.8281 38.0415C89.6619 37.6479 86.4616 37.6918 83.3586 36.5732C81.1451 35.9714 78.8959 35.5093 76.6244 35.1895C73.8477 34.5737 71.1017 33.8112 68.3215 33.2209C65.0237 32.4181 61.6834 31.8007 58.3165 31.3719C51.0845 30.598 43.7954 30.5139 36.5476 31.1207C33.8871 31.2714 31.2203 31.2782 28.5591 31.141C26.9346 30.9611 25.2923 31.24 23.8182 31.9459C23.8971 33.0753 24.6179 33.2055 25.3623 33.2403C29.2149 33.4474 33.0695 33.6374 36.9267 33.8105C39.8597 33.9328 42.804 33.937 45.7329 34.1264C51.6098 34.5182 57.4697 34.9961 63.3396 35.439C63.8915 35.4377 64.443 35.4701 64.991 35.536C70.3171 36.5283 75.6091 37.6928 80.9729 38.4874C85.1432 39.1076 89.3733 39.2938 93.5792 39.6171C94.0969 39.5711 94.6047 39.448 95.086 39.252C95.0891 39.0027 95.1017 38.7601 95.1143 38.5173" fill="#F8F3E8"/>
</g>
</svg>
