<svg width="167" height="198" viewBox="0 0 167 198" fill="none" xmlns="http://www.w3.org/2000/svg">
<g clip-path="url(#clip0)">
<path d="M95.255 178.145C91.869 177.849 88.773 176.454 85.656 175.291C82.5388 174.129 79.1638 173.165 75.965 172.113C70.0412 170.317 64.4363 167.601 59.3555 164.065C56.1912 161.966 53.2986 159.484 50.743 156.675C47.6346 153.002 44.189 149.628 40.4515 146.597C40.1755 146.386 39.9341 146.132 39.7361 145.846C37.6123 142.923 35.1687 140.247 32.4506 137.867C28.5917 134.138 25.2162 129.94 22.403 125.371C20.8844 123.179 19.5306 120.877 18.3528 118.484C17.3647 116.328 16.576 114.078 15.5946 111.945C12.8467 106.019 10.6171 99.883 8.39397 93.771C6.04857 87.005 4.34877 80.033 3.31757 72.947C2.41407 68.3166 1.79937 63.6346 1.47687 58.928C1.26017 52.7613 1.02287 46.5962 0.765167 40.4328C0.635367 37.2299 0.387867 34.0102 0.357667 30.8042C0.349367 28.2952 0.762568 25.7671 0.724468 23.2415C0.783268 19.6209 1.12387 16.0103 1.74317 12.4426C2.31097 8.6814 3.41237 5.0204 5.01377 1.5701C5.07147 1.3594 5.18527 1.1683 5.34287 1.0172C5.50057 0.865997 5.69617 0.760397 5.90907 0.711697C6.12197 0.662897 6.34417 0.672697 6.55197 0.740197C6.75967 0.807597 6.94537 0.930096 7.08897 1.0947C9.75137 3.2654 12.397 5.466 15.0561 7.6252C18.8648 10.7391 22.7334 13.7984 26.4874 16.9404C28.9806 19.0461 31.3474 21.3258 33.7275 23.564C35.8756 25.6043 37.8508 27.8318 40.0888 29.7462C45.3368 34.2602 50.0243 39.4102 55.8727 43.2517C57.5329 44.5081 59.0925 45.8921 60.5374 47.3911C64.738 51.2227 68.7906 55.1966 73.2689 58.7234C76.4997 61.2603 79.3546 64.2429 82.4307 66.987C85.507 69.731 88.523 72.442 91.687 75.01C93.435 76.436 95.484 77.462 97.328 78.785C99.173 80.108 101.134 81.711 103.025 83.197C103.184 83.315 103.326 83.463 103.497 83.578C111.025 88.65 117.441 94.98 123.646 101.496C127.236 105.3 130.836 109.138 134.433 112.965C137.753 116.482 141.048 120.042 144.436 123.489C147.308 126.442 150.304 129.171 153.144 132.057C155.186 134.077 157.16 136.167 159.151 138.227L164.779 144.039C165.649 144.828 166.188 145.917 166.286 147.086C166.385 148.256 166.036 149.42 165.311 150.343C163.701 152.457 161.916 154.445 160.21 156.486C159.072 157.846 157.948 159.211 156.838 160.581C153.659 164.408 149.715 167.528 145.259 169.741C142.859 170.974 140.564 172.403 138.129 173.558C133.414 175.935 128.297 177.411 123.04 177.913C119.349 178.181 115.609 178.764 111.887 178.966C109.596 179.027 107.304 178.956 105.021 178.753C101.79 178.564 98.547 178.329 95.306 178.105L95.255 178.145ZM162.035 144.943L160.486 143.336C159.277 142.084 158.083 140.84 156.913 139.59C155.55 138.193 154.202 136.805 152.811 135.442C151.419 134.078 149.947 132.738 148.509 131.387C147.244 130.202 146.015 128.968 144.698 127.822C142.932 126.289 141.018 124.898 139.309 123.298C136.341 120.536 133.477 117.656 130.621 114.8C126.217 110.473 121.87 106.081 117.421 101.817C114.41 98.904 111.253 96.271 108.162 93.518C99.717 86.027 91.274 78.543 82.834 71.067C79.6254 68.2094 76.6265 65.117 73.2665 62.4785C69.5868 59.5541 65.571 57.0388 61.7499 54.28C57.9288 51.5211 54.1008 48.915 50.5955 45.9411C45.8113 41.823 41.3066 37.3619 36.7404 32.9937C35.8055 31.9648 34.9291 30.8844 34.115 29.7576C32.5871 27.8679 31.1474 25.8904 29.5114 24.1066C27.238 21.6246 24.7883 19.3182 22.4434 16.8942C20.1612 14.4612 17.6058 12.2996 14.828 10.4523C13.3387 9.3991 11.9068 8.26679 10.5386 7.06039C9.68367 6.34849 8.86877 5.6001 7.85157 4.7585C8.22647 6.5231 8.50387 8.0768 8.88917 9.6125C10.2146 14.8621 11.3672 20.211 12.9583 25.335C15.491 33.4693 18.3342 41.503 21.0845 49.5631C21.3307 50.3082 21.6753 51.017 22.1091 51.6709C24.9344 56.0997 27.2108 60.8556 28.8879 65.8339C30.5004 70.236 31.8754 74.731 33.4215 79.164C33.9708 80.815 34.6525 82.419 35.4597 83.961C36.6772 85.969 37.5689 88.157 38.1018 90.444C38.1784 90.757 38.3015 91.056 38.4668 91.333C39.4323 93.143 40.3463 94.994 41.4048 96.778C44.5108 101.975 47.3211 107.368 51.4755 111.878C52.3746 112.879 53.1341 113.919 54.01 114.927C54.6027 115.6 55.2553 116.219 55.8313 116.922C57.4529 118.362 58.9497 119.937 60.3057 121.63C63.5191 126.013 67.4593 129.814 71.9555 132.867C74.1278 134.461 76.3618 135.962 78.4326 137.685C79.9431 138.899 81.5529 139.984 83.245 140.929C85.139 141.895 86.915 143.077 88.538 144.451C90.659 146.709 93.06 148.686 95.682 150.336C98.001 151.824 100.518 152.978 103.159 153.766C105.57 154.266 107.952 154.894 110.297 155.647C113.96 156.795 117.818 157.188 121.637 156.801C124.848 156.568 128.023 156.032 131.23 155.738C133.469 155.53 135.755 155.622 137.989 155.353C140.223 155.084 142.679 154.576 144.993 154.058C146.125 153.823 147.218 153.428 148.239 152.886C152.826 150.33 157.355 147.702 162.058 145.025L162.035 144.943ZM5.89147 6.6579L5.70897 6.6343C5.60517 6.8998 5.51877 7.1718 5.45027 7.4485C4.96797 10.4859 4.35627 13.5098 4.04157 16.5624C3.63557 20.4446 3.39367 24.4183 3.24157 28.3541C3.10207 31.0726 3.17387 33.7979 3.45617 36.5054C4.13837 42.2764 5.05457 48.0313 5.21387 53.8627C5.33497 58.0977 5.43267 62.3393 5.91057 66.5484C6.38837 70.758 7.31177 74.589 8.07377 78.605C8.60357 82.28 9.53347 85.885 10.8469 89.358C13.1632 94.93 15.0286 100.679 16.425 106.549C16.6277 107.306 16.888 108.047 17.2038 108.764C18.887 112.624 20.9721 116.296 23.4247 119.72C27.1623 125.24 31.1841 130.566 35.1311 135.939C35.6159 136.506 36.1793 137.002 36.8042 137.411C38.851 138.844 40.6482 140.604 42.1237 142.62C42.426 143.084 42.7756 143.515 43.1667 143.906C45.0382 145.724 46.9064 147.53 48.8145 149.299C49.5164 149.953 50.2894 150.525 51.1193 151.006C53.6198 152.409 55.8449 154.254 57.6863 156.452C58.3189 157.247 59.0592 157.95 59.8859 158.54C62.6748 160.449 65.432 162.468 68.3825 164.105C74.7841 167.638 81.2289 171.06 88.354 172.982C91.372 173.796 94.319 174.932 97.493 175.011C99.074 175.053 100.671 174.926 102.251 174.918C104.922 174.951 107.585 175.176 110.247 175.086C113.193 174.979 116.143 174.67 119.07 174.317C121.556 174.116 124.025 173.735 126.456 173.177C131.582 171.723 136.674 170.154 141.753 168.538C142.779 168.21 143.736 167.696 144.576 167.022C147.544 164.648 150.494 162.254 153.335 159.741C155.615 157.757 157.67 155.528 159.461 153.094C160.507 151.424 161.26 149.589 161.689 147.666C160.616 148.309 159.86 148.787 159.061 149.29C157.364 150.349 155.675 151.43 153.957 152.458C147.959 156.023 141.338 158.416 134.447 159.509C129.976 160.248 125.448 160.583 120.917 160.508C116.344 160.26 111.786 159.779 107.262 159.069C107.059 159.042 106.86 158.993 106.668 158.923L100.823 156.952C97.424 155.772 94.225 154.079 91.338 151.932C87.641 149.213 83.946 146.632 80.2819 143.942C77.8824 142.379 75.5933 140.654 73.4307 138.777C70.6844 136.242 67.6965 133.981 64.5099 132.028C62.1702 130.665 60.2084 128.74 58.8028 126.426C57.6999 124.61 56.5019 122.854 55.214 121.165C54.7689 120.525 54.229 119.95 53.7407 119.335L48.5023 112.508C47.1076 110.838 45.8106 109.088 44.6181 107.268C40.6256 100.54 36.728 93.747 32.8419 86.951C32.2362 85.764 31.7194 84.534 31.296 83.271C30.4195 80.932 29.636 78.568 28.7279 76.251C26.1963 69.803 23.6387 63.3671 21.055 56.9423C20.3129 54.7468 19.401 52.6124 18.3279 50.5583C16.1009 46.7517 14.2371 42.7439 12.7611 38.5881C12.4522 37.6819 12.2296 36.7487 12.0962 35.8007C11.2359 30.3313 10.0701 24.936 8.74657 19.5603C7.90507 16.283 7.26137 12.9496 6.55107 9.6477L5.90987 6.5899" fill="#FDFBF8"/>
<path d="M166.408 146.239C166.613 146.977 166.64 147.754 166.487 148.505C166.333 149.256 166.002 149.96 165.523 150.558C164.425 151.999 163.229 153.406 162.07 154.764C161.513 155.412 160.955 156.06 160.413 156.716L157.015 160.806C153.821 164.676 149.845 167.828 145.348 170.054C144.326 170.57 143.306 171.135 142.333 171.687C140.999 172.43 139.61 173.2 138.203 173.863C133.454 176.276 128.293 177.769 122.989 178.265C121.278 178.386 119.561 178.572 117.893 178.756C115.906 178.968 113.858 179.185 111.775 179.323C109.925 179.393 108.073 179.352 106.228 179.201C105.778 179.165 105.332 179.141 104.944 179.101C102.671 178.967 100.402 178.806 98.134 178.646C97.162 178.582 96.198 178.504 95.226 178.441C92.419 178.055 89.673 177.306 87.06 176.211C86.522 175.999 85.988 175.799 85.443 175.602C83.035 174.728 80.5427 173.953 78.1331 173.205C77.3221 172.958 76.5112 172.71 75.7085 172.448C69.7552 170.649 64.1243 167.919 59.0246 164.359C55.831 162.25 52.9152 159.749 50.3458 156.913C47.253 153.257 43.8246 149.899 40.1057 146.883C39.8085 146.646 39.5444 146.371 39.3207 146.063C37.1964 143.141 34.7528 140.465 32.0352 138.084C28.1635 134.333 24.7739 130.114 21.9445 125.526L21.7228 125.187C20.2779 123.092 18.9909 120.892 17.8727 118.606C17.3688 117.493 16.9461 116.446 16.5201 115.386C16.0941 114.326 15.6053 113.134 15.1014 112.021C12.3502 106.084 10.0793 99.8459 7.8942 93.8229C5.5294 87.0469 3.825 80.0579 2.8047 72.9529L2.3801 70.3489C1.6524 66.5632 1.1787 62.7333 0.962399 58.8846C0.732399 52.6714 0.493899 46.561 0.253899 40.4009L0.0812992 37.047C-0.0274008 34.9808 -0.141002 32.8533 -0.160102 30.7492C-0.167702 29.571 -0.0707011 28.3631 0.0129989 27.1967C0.125699 25.8736 0.168199 24.5454 0.140299 23.2178C0.135999 20.4425 0.366898 17.6718 0.830498 14.9355L1.1592 12.3309C1.7319 8.53671 2.8357 4.84211 4.4382 1.35561C4.5299 1.11981 4.6749 0.908309 4.8617 0.737709C5.0486 0.567109 5.2723 0.442008 5.5154 0.372108C5.7731 0.317208 6.0402 0.323608 6.2949 0.391008C6.5496 0.458408 6.7848 0.584808 6.9816 0.759908L11.5424 4.48931L14.9487 7.29051L18.6845 10.3246C21.2259 12.379 23.8635 14.5065 26.3965 16.6638C28.6909 18.5998 30.9085 20.7084 33.0534 22.7371L33.6548 23.3074C34.5094 24.1072 35.3739 24.942 36.1472 25.7649C37.3826 27.0218 38.6661 28.3154 40.0128 29.478C41.6892 30.9615 43.3886 32.5263 45.0716 34.033C48.3843 37.3031 51.9689 40.2856 55.7868 42.9485C56.9831 43.7778 58.093 44.725 59.1 45.776C59.5505 46.2134 60.001 46.6506 60.4598 47.073L63.5986 49.95C66.6677 52.8467 69.8182 55.7204 73.1699 58.3738C75.2525 60.0057 77.2069 61.8499 79.0951 63.6374C80.1453 64.5953 81.2516 65.6628 82.3465 66.6457L83.236 67.4357C85.941 69.8459 88.734 72.3439 91.568 74.6789C92.587 75.4759 93.658 76.2039 94.773 76.8589C95.569 77.3619 96.406 77.8779 97.18 78.4369C98.565 79.4249 99.912 80.4999 101.222 81.5349L102.856 82.8669L103.058 83.0479C103.081 83.1299 103.209 83.1809 103.302 83.2429C111.195 88.5389 117.897 95.3019 123.545 101.184C125.897 103.632 128.25 106.129 130.54 108.581L134.355 112.647L136.996 115.452C139.389 118.001 141.87 120.637 144.359 123.171C146.006 124.864 147.747 126.53 149.421 128.139C150.664 129.332 151.891 130.515 153.113 131.726C154.562 133.161 155.996 134.675 157.377 136.092L159.146 137.901L164.772 143.702C165.435 144.367 165.922 145.187 166.189 146.087L166.408 146.239ZM95.285 177.809C96.261 177.884 97.222 177.95 98.194 178.014C100.462 178.174 102.73 178.335 105.003 178.468C105.449 178.493 105.896 178.517 106.345 178.552C108.165 178.701 109.992 178.74 111.816 178.671C113.829 178.552 115.877 178.336 117.849 178.116C119.532 177.94 121.261 177.751 122.972 177.63C128.201 177.129 133.29 175.657 137.977 173.287C139.361 172.631 140.738 171.864 142.06 171.124C143.048 170.58 144.077 170 145.098 169.484C149.523 167.293 153.436 164.194 156.583 160.389L159.958 156.305C160.5 155.649 161.057 155.001 161.611 154.342C162.762 152.998 163.958 151.592 165.048 150.165C165.74 149.306 166.081 148.217 166.002 147.116C165.923 146.015 165.43 144.985 164.621 144.234L158.992 138.422L157.224 136.613C155.851 135.181 154.399 133.647 152.978 132.267C151.755 131.056 150.517 129.876 149.286 128.68C147.577 127.08 145.848 125.411 144.208 123.703C141.704 121.161 139.235 118.521 136.831 115.976C135.944 114.972 135.046 114.109 134.201 113.168L130.375 109.105C128.103 106.673 125.74 104.141 123.395 101.717C117.765 95.8549 111.044 89.1589 103.259 83.8449C103.152 83.7719 103.049 83.6919 102.952 83.6059L102.772 83.4559L101.135 82.1119C99.839 81.0859 98.492 80.0109 97.122 79.0309C96.363 78.4799 95.564 77.9659 94.746 77.4699C93.611 76.8029 92.52 76.0639 91.481 75.2559C88.608 72.9189 85.804 70.4239 83.139 67.9781L82.2524 67.1998C81.1558 66.2551 80.0462 65.1759 78.9862 64.1831C77.1129 62.4039 75.1618 60.5714 73.1057 58.9444C69.7308 56.2976 66.5025 53.3707 63.4898 50.4957C62.4512 49.5345 61.4126 48.5734 60.3624 47.6155C59.8887 47.1848 59.4383 46.7475 58.9845 46.2985C57.9684 45.2573 56.8594 44.3108 55.6714 43.471C51.8288 40.7889 48.2184 37.7888 44.8781 34.5022C43.1985 33.0071 41.5688 31.4225 39.8227 29.9588C38.461 28.7879 37.1742 27.4827 35.9239 26.2175C35.1157 25.4044 34.2894 24.5714 33.4464 23.7683L32.8484 23.2096C30.7151 21.1776 28.5008 19.0807 26.2213 17.1529C23.6883 14.9957 21.054 12.8798 18.5126 10.8254L14.7768 7.79131L11.3705 4.99021C9.848 3.73931 8.3373 2.48511 6.8097 1.26071C6.6864 1.14561 6.538 1.06081 6.3762 1.01301C6.2144 0.965108 6.0437 0.955609 5.8776 0.985109C5.7237 1.03021 5.5824 1.11081 5.4652 1.22041C5.348 1.32991 5.2582 1.46541 5.2028 1.61601C3.6318 5.04261 2.5478 8.67211 1.9821 12.3989L1.6416 15.0068C1.1855 17.7081 0.961498 20.4434 0.971798 23.1829C1.0087 24.5296 0.971699 25.8773 0.860899 27.22C0.773999 28.3747 0.685299 29.5677 0.701199 30.7309C0.713699 32.8118 0.827298 34.9394 0.919598 36.9474C0.987098 38.071 1.0396 39.1862 1.0805 40.3047C1.3327 46.4781 1.57 52.6431 1.7923 58.7999C2.0168 62.6193 2.4864 66.4203 3.1984 70.1799L3.6347 72.7809C4.6516 79.8489 6.346 86.8029 8.6945 93.5459C10.8763 99.5579 13.1323 105.786 15.8769 111.701C16.3924 112.81 16.8499 113.936 17.2957 115.066C17.7415 116.195 18.1693 117.216 18.6534 118.259C19.7579 120.502 21.0247 122.661 22.4439 124.718L22.6655 125.057C25.4594 129.611 28.8183 133.794 32.6619 137.504C35.3888 139.923 37.8418 142.634 39.9771 145.588C40.161 145.848 40.3793 146.082 40.6262 146.283C44.3788 149.319 47.8358 152.703 50.9508 156.39C53.4993 159.176 56.3749 161.645 59.5152 163.743C64.5689 167.257 70.1436 169.956 76.0352 171.74L78.3533 172.565C80.7778 173.321 83.27 174.096 85.693 174.979L87.318 175.573C89.863 176.668 92.542 177.42 95.285 177.809ZM162.471 145.02L162.137 145.215C160.884 145.934 159.632 146.653 158.399 147.355C154.943 149.339 151.672 151.221 148.318 153.076C147.269 153.636 146.146 154.043 144.982 154.286C142.738 154.784 140.347 155.299 137.956 155.588C136.741 155.731 135.493 155.759 134.251 155.809C133.256 155.841 132.21 155.873 131.208 155.969C129.787 156.096 128.356 156.276 126.961 156.445C125.214 156.664 123.41 156.9 121.614 157.032C117.755 157.427 113.856 157.028 110.157 155.861C107.822 155.108 105.448 154.482 103.045 153.985C100.734 153.346 98.529 152.372 96.5 151.095L95.456 150.512C93.105 149.084 90.954 147.35 89.059 145.357L88.246 144.571C86.958 143.46 85.542 142.508 84.027 141.736L83.02 141.155C81.3118 140.199 79.686 139.102 78.1599 137.875C76.6788 136.637 75.0748 135.498 73.5155 134.383L71.6977 133.065C67.1793 129.99 63.2198 126.165 59.9901 121.756C59.1116 120.578 58.1139 119.493 57.0129 118.519C56.5176 118.057 56.0092 117.548 55.5405 117.091L54.9409 116.483C54.517 116.05 54.0666 115.613 53.6709 115.148C53.2752 114.682 52.9276 114.253 52.5585 113.793C52.1894 113.333 51.6216 112.615 51.1149 112.068C47.8725 108.282 45.0482 104.157 42.6913 99.7649C42.134 98.8179 41.585 97.8559 41.0161 96.9119C40.2487 95.6229 39.541 94.2789 38.855 92.9669L38.0665 91.4699C37.8921 91.1669 37.7613 90.8409 37.6784 90.5009C37.1499 88.2459 36.2712 86.0889 35.0742 84.1069C34.2536 82.5489 33.5626 80.9269 33.008 79.2559C32.3761 77.4259 31.7641 75.5779 31.1521 73.7299C30.301 71.1709 29.4234 68.5189 28.4777 65.9367C26.8166 60.9741 24.5491 56.2355 21.727 51.8285C21.2721 51.1445 20.9135 50.4011 20.6611 49.6194L18.5559 43.4357C16.5332 37.5425 14.4363 31.4318 12.5549 25.373C11.3908 21.6222 10.3961 17.7605 9.5507 13.9821L8.4823 9.63901C8.189 8.60461 8.0153 7.54891 7.7868 6.43331L7.4383 4.76161L7.2526 3.88511L8.8345 5.25721C9.464 5.79451 10.0305 6.28681 10.6203 6.77251L11.7402 7.71061C12.7385 8.58341 13.7868 9.39721 14.8799 10.1478C17.677 12.0027 20.2489 14.1768 22.5434 16.6263C23.5006 17.6105 24.481 18.5882 25.4731 19.5625C26.8294 20.9359 28.2453 22.3425 29.5716 23.7872C30.734 25.0523 31.8 26.42 32.8412 27.7446L34.1934 29.4581C34.4831 29.8155 34.7645 30.1877 35.0309 30.5517C35.5589 31.304 36.1498 32.0102 36.7972 32.6626L39.4539 35.2117C43.0545 38.6985 46.7844 42.2869 50.6292 45.6166C53.3526 47.9584 56.3419 50.0866 59.2351 52.1417C60.0686 52.7341 60.917 53.3348 61.7422 53.9421C63.1788 54.9788 64.6736 55.9989 66.1087 56.9858C68.5049 58.6167 70.9706 60.3159 73.2819 62.1342C75.5931 63.9524 77.4879 65.7633 79.4573 67.6157C80.5687 68.6567 81.7132 69.7259 82.8594 70.7569L99.283 85.3239L108.187 93.2089L110.827 95.5239C113.021 97.4129 115.307 99.4519 117.458 101.504C120.401 104.311 123.328 107.236 126.163 110.061L130.649 114.502L132.365 116.125C134.652 118.389 137.024 120.731 139.414 122.916C140.418 123.887 141.482 124.715 142.525 125.562C143.274 126.166 144.056 126.798 144.788 127.432C145.704 128.227 146.584 129.07 147.445 129.893L148.611 130.994L149.898 132.211C150.913 133.179 151.94 134.143 152.916 135.059C154.117 136.238 155.316 137.455 156.446 138.654L156.995 139.214L159.53 141.823L162.471 145.02ZM38.3271 90.5299C38.4026 90.7619 38.5 90.9869 38.618 91.2009L39.4097 92.7089C40.0925 94.0099 40.8001 95.3539 41.5493 96.6229L43.2395 99.4839C45.5729 103.839 48.3706 107.93 51.5836 111.684C52.0936 112.242 52.5786 112.846 53.0487 113.441C53.5188 114.036 53.7654 114.33 54.1395 114.764C54.5137 115.197 54.9709 115.658 55.3882 116.067L55.991 116.687C56.4663 117.168 56.9597 117.668 57.4484 118.107C58.5789 119.108 59.6023 120.223 60.5018 121.435C63.6979 125.787 67.6097 129.565 72.0704 132.608L73.8848 133.914C75.4557 135.025 77.0432 136.195 78.574 137.431C80.0659 138.641 81.6612 139.718 83.342 140.65C83.673 140.844 84.005 141.039 84.344 141.219C85.903 142.021 87.359 143.007 88.681 144.158L89.494 144.945C91.351 146.899 93.458 148.599 95.762 149.998L96.821 150.59C98.787 151.826 100.92 152.773 103.156 153.401C105.577 153.908 107.97 154.542 110.324 155.299C113.949 156.434 117.767 156.821 121.546 156.436C123.315 156.299 125.123 156.075 126.857 155.859C128.265 155.686 129.707 155.503 131.124 155.365C132.153 155.274 133.199 155.241 134.206 155.207C135.447 155.156 136.695 155.129 137.907 154.974C140.264 154.695 142.701 154.167 144.876 153.688C145.979 153.458 147.046 153.075 148.044 152.551C151.406 150.681 154.669 148.814 158.113 146.833C159.189 146.201 160.379 145.525 161.525 144.873L159.147 142.421L156.627 139.821L156.078 139.26C154.928 138.08 153.737 136.848 152.551 135.677C151.559 134.703 150.544 133.735 149.548 132.837L148.261 131.62L147.092 130.508C146.234 129.696 145.366 128.85 144.453 128.066C143.721 127.433 142.954 126.809 142.202 126.194C141.158 125.347 140.067 124.464 139.058 123.519C136.654 121.287 134.28 118.935 131.981 116.673L130.265 115.05L125.775 110.598C122.943 107.784 120.017 104.86 117.077 102.064C114.925 100.013 112.653 98.0199 110.465 96.1039L107.809 93.7809C104.852 91.1449 101.888 88.5159 98.917 85.8929L82.4932 71.3259C81.3353 70.2979 80.1875 69.2169 79.0877 68.1725C77.1217 66.3317 75.086 64.4227 72.9488 62.7309C70.8115 61.039 68.1868 59.2217 65.8171 57.5958C64.3671 56.6007 62.8839 55.5772 61.4357 54.5439L58.9286 52.7435C56.0205 50.6801 53.0162 48.5435 50.2862 46.1784C46.4149 42.8437 42.6818 39.2437 39.0696 35.7602L36.4279 33.2194C35.7416 32.5477 35.1146 31.818 34.5537 31.0386C34.2757 30.6779 34.0092 30.314 33.736 30.0148L32.3804 28.2896C31.3426 26.9767 30.2799 25.6205 29.1357 24.3754C27.821 22.9275 26.4051 21.5208 25.0521 20.1591C24.0617 19.1759 23.0747 18.175 22.091 17.1564C19.8358 14.7371 17.3018 12.5937 14.5419 10.771C13.4253 10.005 12.3522 9.17741 11.3276 8.29221L10.2193 7.35081C9.6328 6.87671 9.0646 6.42261 8.4302 5.82391L8.1983 5.62601L8.4224 6.41631C8.6475 7.52031 8.8562 8.56611 9.108 9.58711L10.1797 13.9418C11.0799 17.6921 12.0165 21.5703 13.174 25.2979C15.0521 31.3451 17.1457 37.4442 19.1717 43.349L21.2736 49.521C21.5114 50.2388 21.8443 50.9215 22.2635 51.5508C25.1112 55.9947 27.395 60.7756 29.0621 65.7835C30.0227 68.374 30.9002 71.0259 31.7546 73.5959C32.3666 75.4439 32.9754 77.2809 33.6073 79.1109C34.1532 80.7449 34.8263 82.3349 35.6206 83.8639C36.8628 85.9009 37.7689 88.1239 38.3041 90.4489L38.337 90.5649L38.3271 90.5299ZM162.171 146.975L161.938 147.745L161.624 148.763C161.26 150.359 160.615 151.877 159.718 153.246C157.913 155.695 155.846 157.94 153.555 159.941C150.663 162.494 147.63 164.949 144.773 167.229C143.906 167.922 142.92 168.453 141.864 168.794L140.992 169.041C136.267 170.532 131.393 172.077 126.534 173.405C124.455 173.91 122.34 174.254 120.208 174.433L119.112 174.555C116.133 174.898 113.208 175.212 110.263 175.319C108.573 175.384 106.871 175.314 105.218 175.243C104.241 175.206 103.252 175.173 102.267 175.151C101.525 175.148 100.778 175.171 100.031 175.195C99.285 175.218 98.339 175.248 97.526 175.215C95.102 175.049 92.711 174.566 90.413 173.778C89.715 173.575 89.04 173.364 88.322 173.179C81.2499 171.266 74.8116 167.868 68.2908 164.268C65.9305 162.914 63.6425 161.438 61.4362 159.845C60.8761 159.464 60.3244 159.068 59.7526 158.69C58.9031 158.085 58.144 157.361 57.4984 156.542C55.666 154.366 53.4475 152.547 50.9544 151.177C50.1092 150.689 49.3212 150.108 48.6049 149.445C46.7514 147.736 44.9461 145.975 42.9388 144.033C42.5366 143.627 42.1752 143.183 41.8596 142.707C40.4172 140.711 38.6504 138.971 36.6328 137.559L36.2666 137.286C35.7371 136.947 35.2656 136.525 34.8701 136.037L32.2769 132.515C29.2269 128.358 26.1273 124.113 23.1605 119.806C20.7006 116.359 18.6053 112.665 16.9082 108.784L16.8687 108.645C16.566 107.961 16.3193 107.254 16.1312 106.531C14.7428 100.675 12.8817 94.9409 10.5663 89.3869C9.3481 86.2369 8.4788 82.9629 7.9737 79.6239L7.7734 78.5639C7.5862 77.5489 7.3726 76.5299 7.1705 75.5069C6.574 72.5619 5.9758 69.5679 5.6185 66.4921C5.1583 62.5668 5.0468 58.5425 4.9334 54.6444L4.9153 53.7831C4.7798 49.276 4.2097 44.7414 3.6144 40.3396L3.1226 36.4357C2.8404 33.7104 2.772 30.9673 2.9181 28.2313C3.0158 24.1478 3.3307 20.1658 3.7148 16.428C3.9365 14.243 4.3159 12.0385 4.6703 9.87871L5.1036 7.24441C5.1466 7.03611 5.211 6.83271 5.2956 6.63751L5.3758 6.38871L5.4592 6.15161L6.1095 6.23091L6.3462 7.41951L6.7901 9.51611L7.4032 12.4313C7.8915 14.7288 8.3913 17.111 8.9824 19.417C10.4627 25.2129 11.5822 30.5334 12.342 35.6923C12.4728 36.6203 12.6938 37.5333 13.0019 38.4184C14.4719 42.5544 16.3263 46.5436 18.5407 50.3337C19.3778 51.8317 20.0757 53.4033 20.6255 55.0289L21.2925 56.761C23.7544 62.9189 26.3666 69.4739 28.9654 76.0699C29.4821 77.4049 29.9706 78.7729 30.4459 80.0949L31.5367 83.1009L31.7927 83.7819C32.1385 84.7989 32.5654 85.7859 33.0695 86.7349C36.5719 92.8859 40.6133 100.053 44.8341 107.056C45.655 108.355 46.5575 109.6 47.5365 110.785C47.9271 111.276 48.3425 111.812 48.6967 112.264C50.4334 114.55 52.1824 116.821 53.9435 119.076L54.5477 119.834C54.8458 120.176 55.1503 120.542 55.42 120.917L56.3733 122.242C57.331 123.501 58.2148 124.814 59.0205 126.175C60.3921 128.455 62.3205 130.35 64.6249 131.68C67.8246 133.644 70.8271 135.913 73.5904 138.455C75.1227 139.853 76.7644 141.125 78.4997 142.261L80.4119 143.603C82.2031 144.915 84.014 146.21 85.814 147.508C87.613 148.806 89.592 150.204 91.479 151.59C94.343 153.716 97.515 155.391 100.886 156.556L106.732 158.528C106.902 158.593 107.08 158.64 107.261 158.667C108.47 158.813 109.66 158.978 110.861 159.14C114.18 159.64 117.525 159.949 120.88 160.066C125.386 160.141 129.89 159.809 134.336 159.075C141.174 157.983 147.743 155.605 153.695 152.066C154.843 151.377 155.996 150.66 157.138 149.947L158.791 148.913L162.171 146.975ZM16.7198 106.703C16.9025 107.302 17.1196 107.89 17.3701 108.465L17.413 108.616C19.0927 112.455 21.1682 116.108 23.6057 119.517C26.5227 123.826 29.6671 128.095 32.7072 132.218L35.3005 135.739C35.6614 136.171 36.0852 136.546 36.5578 136.852L36.9389 137.133C39.0181 138.584 40.8406 140.371 42.3313 142.422C42.6178 142.866 42.9532 143.276 43.3312 143.645C45.3269 145.591 47.1289 147.34 48.9791 149.038C49.6558 149.677 50.4042 150.236 51.2093 150.703C53.7667 152.105 56.0386 153.974 57.9073 156.212C58.5267 156.983 59.2483 157.666 60.0521 158.241L61.739 159.408C63.9253 160.973 66.1899 162.427 68.524 163.762C75.0183 167.358 81.4119 170.731 88.427 172.621C89.134 172.81 89.797 173.024 90.547 173.276C92.794 174.045 95.131 174.517 97.5 174.682C98.333 174.697 99.183 174.682 100.003 174.65C100.822 174.619 101.511 174.612 102.264 174.612C103.262 174.63 104.251 174.664 105.243 174.709C106.88 174.772 108.583 174.841 110.281 174.762C113.203 174.661 116.119 174.362 119.08 173.999L120.176 173.877C122.28 173.704 124.368 173.368 126.42 172.872C131.243 171.505 136.13 170.006 140.844 168.518L141.727 168.268C142.712 167.949 143.631 167.454 144.44 166.808C147.285 164.532 150.31 162.092 153.191 159.542C155.45 157.571 157.488 155.359 159.269 152.947C160.121 151.635 160.738 150.186 161.093 148.662L161.166 148.391L159.223 149.595L157.569 150.629C156.416 151.345 155.278 152.069 154.119 152.762C148.083 156.342 141.423 158.746 134.492 159.847C130.022 160.589 125.494 160.924 120.963 160.846C117.579 160.715 114.205 160.393 110.858 159.882C109.668 159.717 108.467 159.555 107.269 159.405C107.047 159.373 106.829 159.316 106.619 159.238C104.662 158.537 102.721 157.932 100.774 157.266C97.346 156.082 94.119 154.38 91.206 152.22C89.322 150.845 87.439 149.521 85.54 148.138L80.1269 144.236C79.5089 143.783 78.8676 143.337 78.2296 142.903C76.4687 141.743 74.8002 140.449 73.2391 139.032C70.5093 136.513 67.5386 134.268 64.3698 132.33C61.9916 130.937 59.9977 128.974 58.5682 126.617C57.7742 125.274 56.9037 123.978 55.9607 122.736L55.0076 121.411C54.7411 121.047 54.4547 120.701 54.1782 120.391L53.5475 119.628L48.3091 112.801L47.1521 111.333C46.1527 110.132 45.2354 108.865 44.4066 107.541C40.2289 100.513 36.1412 93.3599 32.6272 87.2119C32.1065 86.2349 31.6666 85.2179 31.3122 84.1689L31.0564 83.4879L29.9655 80.4829C29.5018 79.1569 29.0133 77.7889 28.4882 76.4689C25.9011 69.8689 23.2773 63.3179 20.8153 57.16L20.1485 55.4279C19.6129 53.8324 18.9316 52.2896 18.1132 50.8191C15.8758 46.9993 14.0036 42.977 12.5216 38.8057C12.2007 37.8821 11.9725 36.9289 11.8402 35.9602C11.0406 30.8377 9.9277 25.5404 8.4971 19.743C7.838 17.4186 7.3997 15.0315 6.9082 12.7223L6.2982 9.81891C6.1037 9.13311 5.999 8.40941 5.8626 7.70721L5.8066 7.50971L5.3733 10.1439C5.0058 12.2572 4.6347 14.4469 4.4064 16.6086C4.0307 20.3315 3.7688 24.3235 3.6115 28.3738C3.4789 31.0758 3.55 33.784 3.8244 36.4753L4.3045 40.3824C4.967 44.8385 5.4012 49.3256 5.6054 53.826L5.6386 54.6956C5.7454 58.5704 5.8536 62.5831 6.3072 66.4852C6.6564 69.4879 7.2577 72.4939 7.8542 75.4389L8.4638 78.5179L8.6608 79.5679C9.1628 82.8659 10.0171 86.1009 11.2088 89.2169C13.5448 94.8029 15.4197 100.571 16.8149 106.462L16.8874 106.718" fill="#FDFBF8"/>
<path d="M100.178 182.464C100.207 182.246 100.198 182.024 100.15 181.809C100.037 180.984 99.981 180.153 99.981 179.32C99.994 178.444 99.987 177.567 99.988 176.689C99.991 176.072 100.123 175.463 100.376 174.9L101.59 172.096C101.628 171.997 101.683 171.905 101.751 171.824C101.969 171.554 102.169 171.27 102.35 170.975C102.39 170.914 102.434 170.855 102.482 170.8C102.688 170.561 102.898 170.327 103.102 170.083C103.188 169.979 103.266 169.867 103.335 169.75C103.498 169.505 103.674 169.268 103.861 169.041C104.343 168.471 104.858 167.928 105.402 167.416C105.532 167.294 105.67 167.18 105.815 167.076C106.014 166.92 106.222 166.777 106.424 166.614C106.795 166.321 107.2 166.072 107.629 165.873C107.933 165.711 108.2 165.492 108.51 165.325C108.884 165.104 109.262 164.909 109.639 164.706L110.338 164.337C110.577 164.205 110.836 164.113 111.105 164.067C111.585 163.993 112.06 163.886 112.525 163.748C112.757 163.678 112.999 163.644 113.241 163.647C113.748 163.648 114.254 163.596 114.751 163.492C114.903 163.461 115.063 163.448 115.219 163.426C115.561 163.376 115.904 163.35 116.252 163.279C116.562 163.22 116.877 163.188 117.194 163.184C117.437 163.186 117.676 163.187 117.919 163.181C118.002 163.175 118.085 163.162 118.166 163.142C118.452 162.577 118.704 161.996 118.922 161.402C119.193 160.734 119.294 160.009 119.214 159.292C119.166 158.904 119.113 158.517 119.051 158.134C118.974 157.653 118.885 157.175 118.802 156.699C118.792 156.648 118.79 156.595 118.796 156.543C118.803 156.526 118.838 156.511 118.862 156.494L118.769 156.404C118.757 156.43 118.742 156.463 118.733 156.482C118.558 156.619 118.418 156.796 118.325 156.998C118.063 157.455 117.767 157.892 117.44 158.304C117.067 158.789 116.662 159.247 116.225 159.675C115.927 159.973 115.593 160.232 115.23 160.446C115.066 160.544 114.914 160.65 114.764 160.746C114.667 160.701 114.685 160.611 114.681 160.542C114.672 160.12 114.647 159.699 114.666 159.275C114.709 158.568 114.639 157.859 114.459 157.174C114.428 157.054 114.403 156.928 114.377 156.806C114.242 156.166 114.029 155.546 113.741 154.959C113.419 154.294 113.127 153.615 112.746 152.986C112.506 152.587 112.251 152.201 111.987 151.819C111.724 151.436 111.429 151.028 111.144 150.64C111.081 150.56 111.013 150.485 110.942 150.412L111.039 150.875C111.17 151.452 111.265 152.036 111.322 152.625C111.388 153.288 111.332 153.957 111.158 154.601L110.48 157.169C110.258 157.96 109.91 158.711 109.449 159.392C109.092 159.94 108.683 160.452 108.228 160.921C108.015 161.142 107.816 161.376 107.61 161.6C107.553 161.664 107.491 161.721 107.416 161.797C107.324 161.621 107.244 161.439 107.176 161.253L106.898 160.757C106.802 160.583 106.707 160.405 106.607 160.229C106.508 160.053 106.417 159.9 106.32 159.737C106.222 159.574 106.11 159.4 106.009 159.235C105.965 159.233 105.921 159.248 105.887 159.277C105.853 159.305 105.83 159.345 105.823 159.389C105.755 159.623 105.701 159.861 105.662 160.102C105.606 160.469 105.592 160.814 105.559 161.173C105.536 161.351 105.49 161.534 105.471 161.703C105.374 162.223 105.147 162.711 104.813 163.122C104.788 163.157 104.759 163.189 104.726 163.216C104.42 163.468 104.102 163.714 103.819 163.949C103.77 163.99 103.71 164.016 103.647 164.025C103.583 164.035 103.519 164.027 103.46 164.003C103.151 163.898 102.854 163.76 102.575 163.593C101.922 163.206 101.295 162.777 100.697 162.309C100.353 162.047 99.993 161.813 99.642 161.56C99.291 161.307 98.997 161.083 98.686 160.837C98.257 160.496 97.826 160.143 97.41 159.8C97.391 159.794 97.372 159.785 97.355 159.775C96.896 159.354 96.41 158.962 95.902 158.601C95.523 158.307 95.164 157.976 94.792 157.665C94.589 157.5 94.372 157.348 94.164 157.185C94.027 157.087 93.896 156.98 93.773 156.866C93.469 156.574 93.146 156.304 92.804 156.058C92.592 155.905 92.4 155.725 92.187 155.547C91.856 155.861 91.554 156.203 91.283 156.57C91.323 156.694 91.392 156.806 91.486 156.897C91.861 157.312 92.28 157.684 92.736 158.007C92.917 158.135 93.084 158.283 93.258 158.419C93.608 158.691 93.955 158.962 94.303 159.238C94.534 159.42 94.756 159.613 94.993 159.79C95.347 160.053 95.707 160.314 96.07 160.566C96.542 160.899 97.02 161.227 97.5 161.551C97.728 161.704 97.973 161.83 98.198 161.981C98.618 162.266 99.028 162.563 99.442 162.849C99.597 162.957 99.742 163.052 99.918 163.157C100.231 163.344 100.526 163.559 100.802 163.799C101.293 164.236 101.75 164.711 102.167 165.219C102.125 165.279 102.079 165.335 102.03 165.388C101.805 165.611 101.581 165.838 101.351 166.054C101.062 166.317 100.729 166.526 100.367 166.673C99.773 166.925 99.212 167.236 98.635 167.52C98.287 167.693 97.939 167.867 97.584 168.029C97.438 168.097 97.284 168.145 97.125 168.171C96.751 168.23 96.375 168.292 95.997 168.317C95.546 168.348 95.092 168.35 94.636 168.34C94.331 168.328 94.026 168.299 93.724 168.252C93.353 168.202 93.016 168.148 92.661 168.098C92.598 168.088 92.539 168.088 92.486 168.084C92.432 168.149 92.483 168.176 92.507 168.2C93.012 168.709 93.516 169.219 94.031 169.721C94.176 169.86 94.337 169.981 94.51 170.081C95.046 170.418 95.625 170.68 96.232 170.86C96.488 170.927 96.734 171.018 96.987 171.092C97.334 171.193 97.68 171.295 98.03 171.39C98.38 171.485 98.824 171.589 99.23 171.691C99.017 172.399 98.705 173.074 98.301 173.694C97.909 174.282 97.46 174.829 96.96 175.329L95.6 176.699C95.326 176.96 95.033 177.202 94.725 177.423C94.623 177.498 94.53 177.581 94.419 177.675C94.444 177.692 94.472 177.704 94.5 177.713C94.963 177.726 95.427 177.768 95.89 177.739C96.407 177.705 96.916 177.595 97.401 177.411L97.586 177.351L97.379 177.799C97.019 178.597 96.573 179.353 96.05 180.053C95.659 180.595 95.154 181.044 94.57 181.368C94.004 181.694 93.422 181.99 92.827 182.257C92.749 182.288 92.677 182.333 92.611 182.366C92.545 182.398 92.599 182.502 92.67 182.527C92.851 182.587 93.018 182.625 93.211 182.703C93.856 182.931 94.523 183.091 95.202 183.181C95.455 183.222 95.71 183.239 95.966 183.232C96.44 183.22 96.916 183.196 97.39 183.16C97.599 183.139 97.806 183.103 98.01 183.054C98.38 182.977 98.75 182.901 99.122 182.813C99.472 182.744 99.811 182.627 100.13 182.465" fill="#999A32"/>
<path d="M117.866 167.823C117.907 167.778 117.954 167.739 118.006 167.707C118.432 167.515 118.789 167.196 119.028 166.795C119.098 166.69 119.161 166.581 119.218 166.469C119.28 166.346 119.295 166.205 119.261 166.072C119.174 166.039 119.081 166.028 118.989 166.042C118.897 166.055 118.811 166.092 118.737 166.148C118.261 166.459 117.741 166.699 117.195 166.858C116.779 167.008 116.366 167.167 115.938 167.284C115.429 167.42 114.915 167.537 114.398 167.633C114.055 167.693 113.716 167.774 113.384 167.876C113.023 167.994 112.67 168.132 112.325 168.291C111.693 168.581 111.096 168.94 110.544 169.363C110.239 169.588 109.969 169.856 109.685 170.111C109.559 170.222 109.446 170.346 109.326 170.468C109.162 170.631 109.013 170.808 108.88 170.998C108.519 171.518 108.109 172.001 107.655 172.442C107.225 172.861 106.806 173.297 106.371 173.709C106.144 173.927 105.892 174.121 105.644 174.317C105.311 174.577 105.011 174.878 104.753 175.212C104.578 175.448 104.416 175.694 104.269 175.949C104.164 176.143 104.077 176.346 104.011 176.557C103.79 177.328 103.631 178.116 103.537 178.913C103.521 179.034 103.493 179.153 103.454 179.269C103.203 179.904 102.94 180.539 102.689 181.174C102.595 181.386 102.513 181.603 102.443 181.824C102.319 182.227 102.129 182.604 101.969 182.991C101.942 183.048 101.922 183.109 101.909 183.172C101.902 183.2 101.902 183.23 101.91 183.258C101.918 183.287 101.932 183.313 101.953 183.334C101.973 183.355 101.999 183.371 102.027 183.38C102.055 183.389 102.084 183.39 102.113 183.385C102.175 183.38 102.236 183.362 102.291 183.333C102.542 183.218 102.77 183.056 102.961 182.856C103.164 182.631 103.374 182.406 103.572 182.175C103.647 182.079 103.714 181.979 103.774 181.874C103.804 181.888 103.829 181.9 103.825 181.918C103.847 182.224 103.904 182.526 103.994 182.819C104.169 183.568 104.391 184.305 104.66 185.026C104.843 185.577 105.117 186.093 105.473 186.553C105.662 186.79 105.82 187.052 106.003 187.295C106.186 187.537 106.407 187.781 106.597 188.035C106.862 188.376 107.159 188.69 107.485 188.974C107.622 189.123 107.719 189.304 107.769 189.5C107.84 189.686 107.878 189.885 107.934 190.077C107.991 190.268 108.043 190.462 108.11 190.65C108.261 191 108.354 191.372 108.387 191.751C108.382 191.794 108.393 191.837 108.417 191.872C108.44 191.908 108.476 191.934 108.517 191.946C108.568 191.961 108.623 191.958 108.672 191.935C108.72 191.912 108.758 191.872 108.779 191.823C108.929 191.531 109.019 191.213 109.044 190.886C109.045 190.654 109.084 190.423 109.159 190.203C109.201 190.199 109.234 190.187 109.26 190.199C109.436 190.265 109.608 190.344 109.772 190.436C110.19 190.666 110.623 190.867 111.069 191.037C111.59 191.255 112.14 191.42 112.679 191.599C113.273 191.776 113.887 191.878 114.507 191.903C114.916 191.942 115.328 191.951 115.739 191.931C115.807 191.927 115.874 191.937 115.938 191.962C116.001 191.986 116.058 192.024 116.106 192.073C116.336 192.29 116.581 192.483 116.812 192.7C117 192.885 117.17 193.087 117.319 193.305C117.376 193.393 117.442 193.475 117.516 193.55C117.539 193.573 117.567 193.589 117.599 193.596C117.63 193.604 117.662 193.603 117.693 193.593C117.724 193.583 117.751 193.565 117.772 193.541C117.793 193.516 117.807 193.487 117.812 193.455C117.838 193.321 117.845 193.183 117.832 193.047C117.799 192.785 117.72 192.53 117.597 192.296C117.563 192.225 117.539 192.151 117.497 192.053C117.574 192.041 117.625 192.033 117.677 192.03C118.677 191.997 119.692 191.932 120.681 191.914C121.343 191.91 122.004 191.953 122.66 192.044C122.965 192.083 123.267 192.129 123.569 192.166C123.69 192.179 123.804 192.232 123.893 192.317C124.232 192.619 124.514 192.981 124.725 193.384C124.751 193.44 124.788 193.49 124.833 193.532C124.858 193.561 124.889 193.582 124.925 193.594C124.96 193.607 124.998 193.609 125.035 193.602C125.072 193.594 125.106 193.577 125.134 193.552C125.162 193.527 125.183 193.495 125.194 193.459C125.27 193.271 125.272 193.061 125.199 192.871C125.145 192.724 125.082 192.58 125.013 192.422C125.128 192.395 125.249 192.399 125.362 192.435C125.819 192.516 126.281 192.558 126.745 192.56C127.063 192.562 127.381 192.583 127.693 192.606C128.102 192.613 128.507 192.532 128.882 192.369C129.126 192.267 129.349 192.119 129.537 191.932C129.79 191.692 130.029 191.44 130.273 191.195C130.38 191.092 130.461 190.964 130.508 190.823C130.629 190.486 130.741 190.167 130.843 189.837C130.953 189.449 130.983 189.044 130.931 188.645C130.927 188.56 130.91 188.477 130.91 188.394C130.898 187.771 130.827 187.15 130.698 186.54L130.664 186.292C130.826 186.367 130.972 186.407 131.113 186.461C131.273 186.522 131.449 186.524 131.61 186.467C131.628 186.462 131.645 186.454 131.659 186.442C131.673 186.43 131.684 186.415 131.692 186.398C131.7 186.382 131.704 186.363 131.704 186.345C131.704 186.327 131.699 186.308 131.691 186.292C131.62 186.165 131.525 186.051 131.413 185.958C131.134 185.786 130.878 185.578 130.652 185.341C130.539 185.23 130.457 185.091 130.413 184.939C130.39 184.846 130.359 184.756 130.322 184.668C130.139 184.186 130.003 183.688 129.916 183.181C129.903 183.097 129.883 183.014 129.858 182.933L129.274 181.296C129.221 181.169 129.162 181.046 129.095 180.925C129.023 180.789 128.977 180.641 128.959 180.488C129.007 180.487 129.045 180.481 129.084 180.483C129.42 180.497 129.759 180.513 130.095 180.519C130.189 180.516 130.283 180.497 130.37 180.461C130.402 180.448 130.43 180.427 130.452 180.401C130.474 180.374 130.489 180.343 130.496 180.309C130.503 180.276 130.502 180.241 130.492 180.208C130.483 180.175 130.465 180.145 130.441 180.12C130.393 180.066 130.334 180.023 130.268 179.992C130.161 179.943 130.058 179.895 129.944 179.842C129.647 179.728 129.346 179.628 129.058 179.502C128.878 179.418 128.706 179.317 128.544 179.201C128.407 179.102 128.299 178.967 128.232 178.812C128.077 178.476 127.901 178.151 127.738 177.823C127.693 177.727 127.655 177.629 127.622 177.529C127.481 177.145 127.328 176.762 127.201 176.373C126.99 175.81 126.747 175.261 126.471 174.727C126.295 174.354 126.09 173.996 125.858 173.655C125.782 173.546 125.721 173.427 125.675 173.303L126.016 173.205L126.317 173.116C126.569 173.04 126.827 172.958 127.072 172.879C127.141 172.854 127.201 172.809 127.246 172.751C127.272 172.724 127.291 172.692 127.301 172.656C127.312 172.62 127.313 172.582 127.306 172.546C127.298 172.509 127.282 172.475 127.258 172.446C127.234 172.418 127.204 172.395 127.169 172.381C127.104 172.348 127.034 172.325 126.961 172.312C126.837 172.29 126.712 172.279 126.587 172.269C126.097 172.22 125.61 172.133 125.133 172.008C125.051 171.99 124.972 171.961 124.897 171.922C124.551 171.743 124.232 171.516 123.95 171.247C123.474 170.77 122.978 170.311 122.474 169.861C122.219 169.641 121.95 169.439 121.668 169.255C121.301 169.01 120.931 168.764 120.547 168.546C120.102 168.282 119.612 168.104 119.101 168.022C118.756 167.976 118.414 167.924 118.07 167.875C117.997 167.864 117.927 167.844 117.855 167.83C117.855 167.83 117.811 167.873 117.816 167.812L117.858 167.831L117.866 167.823ZM109.299 187.559C109.142 187.403 108.987 187.245 108.826 187.091C108.46 186.757 108.137 186.378 107.864 185.964C107.727 185.743 107.57 185.528 107.434 185.304C107.298 185.079 107.222 184.911 107.11 184.728C106.834 184.317 106.623 183.865 106.482 183.39C106.468 183.338 106.451 183.288 106.43 183.24C106.258 182.755 106.089 182.27 105.923 181.784C105.897 181.715 105.88 181.642 105.874 181.568C105.789 181.08 105.754 180.585 105.771 180.091C105.777 179.975 105.772 179.859 105.767 179.742C105.728 178.769 105.936 177.802 106.37 176.93C106.481 176.703 106.622 176.491 106.791 176.303C107.311 175.738 107.864 175.206 108.448 174.708C108.505 174.66 108.572 174.627 108.631 174.584C108.829 174.479 109.017 174.357 109.194 174.219C109.64 173.832 110.028 173.384 110.347 172.887C110.386 172.803 110.455 172.732 110.51 172.655C110.594 172.533 110.687 172.418 110.761 172.291C110.911 172.038 111.05 171.779 111.199 171.526C111.234 171.473 111.274 171.424 111.318 171.38C111.728 170.955 112.164 170.554 112.622 170.181C112.781 170.042 112.949 169.915 113.126 169.8C113.665 169.447 114.261 169.191 114.887 169.041C115.39 168.916 115.909 168.909 116.42 168.827C116.462 168.818 116.505 168.818 116.546 168.826C117.058 168.894 117.573 168.948 118.081 169.033C118.299 169.072 118.509 169.148 118.701 169.258C119.282 169.594 119.891 169.885 120.446 170.268C121.017 170.629 121.543 171.054 122.016 171.536C122.182 171.714 122.334 171.903 122.505 172.069C122.932 172.484 123.255 173 123.64 173.426C123.782 173.583 123.915 173.747 124.039 173.918C124.343 174.347 124.617 174.797 124.86 175.264C125.092 175.698 125.338 176.127 125.578 176.562L126.061 177.447C126.127 177.568 126.183 177.693 126.246 177.813C126.387 178.095 126.539 178.37 126.674 178.657C126.809 178.944 126.891 179.183 127.002 179.443C127.292 180.109 127.538 180.794 127.737 181.493C127.775 181.646 127.831 181.793 127.904 181.933C128.124 182.389 128.286 182.871 128.384 183.368C128.504 183.892 128.64 184.412 128.772 184.934C128.905 185.39 129.01 185.853 129.087 186.321C129.124 186.622 129.205 186.915 129.265 187.219C129.301 187.404 129.326 187.592 129.339 187.781C129.339 188.298 129.284 188.813 129.174 189.318C129.126 189.62 129.034 189.913 128.9 190.188C128.815 190.369 128.682 190.522 128.514 190.631L128.332 190.76C128.195 190.856 128.041 190.926 127.878 190.966C127.406 191.085 126.915 191.112 126.432 191.044C125.754 190.978 125.074 190.891 124.392 190.815C123.951 190.764 123.511 190.71 123.072 190.664C122.491 190.619 121.908 190.612 121.326 190.642C121.094 190.649 120.862 190.675 120.632 190.694C120.402 190.714 120.277 190.73 120.098 190.742C119.562 190.769 119.024 190.799 118.489 190.815C117.843 190.887 117.19 190.864 116.551 190.748C116.417 190.713 116.282 190.69 116.149 190.664C115.332 190.506 114.512 190.354 113.694 190.191C113.53 190.156 113.37 190.107 113.215 190.044C112.463 189.738 111.743 189.361 111.008 189.02C110.665 188.858 110.353 188.637 110.085 188.368C109.839 188.109 109.581 187.859 109.318 187.619" fill="#F8F3E8"/>
<path d="M100.177 182.463C100.203 182.739 100.24 183.008 100.253 183.286C100.309 184.13 100.521 184.956 100.88 185.723C101.266 186.587 101.692 187.454 102.164 188.287C102.454 188.787 102.788 189.26 103.163 189.699C103.67 190.305 104.216 190.826 104.752 191.369C105.079 191.698 105.421 192.015 105.74 192.355C106.191 192.829 106.716 193.225 107.295 193.529C107.793 193.803 108.309 194.043 108.841 194.246C109.506 194.485 110.203 194.624 110.909 194.661C111.457 194.699 112.001 194.785 112.534 194.918C113.463 195.155 114.407 195.33 115.36 195.441C116.108 195.524 116.882 195.666 117.643 195.783C118.312 195.884 118.973 196.005 119.645 196.093C120.395 196.209 121.137 196.374 121.866 196.587C123.458 197.042 125.065 197.44 126.693 197.734C127.111 197.81 127.52 197.905 127.932 197.993C128.307 198.077 128.692 198.105 129.076 198.075C129.201 198.066 129.323 198.035 129.437 197.982C129.724 197.848 130.01 197.708 130.28 197.55C130.706 197.302 131.125 197.036 131.546 196.782C131.546 196.782 131.578 196.797 131.597 196.806L133.294 195.1C133.306 195.074 133.289 195.035 133.303 195.013C133.401 194.878 133.506 194.745 133.601 194.608C133.958 194.112 134.235 193.562 134.419 192.979C134.504 192.695 134.601 192.417 134.698 192.14C134.803 191.83 134.886 191.513 134.945 191.191C134.995 190.922 135.056 190.655 135.113 190.387C135.235 189.938 135.293 189.474 135.283 189.008C135.255 188.355 135.176 187.705 135.047 187.064C134.926 186.551 134.806 186.038 134.664 185.528C134.501 184.863 134.298 184.209 134.057 183.568C133.823 183.015 133.628 182.447 133.471 181.867C133.433 181.71 133.384 181.555 133.323 181.405C132.991 180.609 132.664 179.811 132.318 179.021C132.211 178.768 132.142 178.502 132.114 178.229C132.084 177.979 132.025 177.731 131.978 177.485C131.956 177.372 131.912 177.262 131.899 177.145C131.834 176.739 131.724 176.342 131.57 175.961C131.387 175.506 131.24 175.051 131.073 174.596C130.786 173.792 130.444 173.01 130.048 172.254C129.704 171.602 129.365 170.949 129.015 170.302C128.856 170.008 128.68 169.718 128.494 169.439C128.308 169.16 128.137 168.994 127.983 168.757C127.711 168.332 127.407 167.928 127.075 167.548C126.689 167.113 126.305 166.66 125.903 166.261C125.457 165.814 124.95 165.433 124.396 165.129C123.455 164.607 122.46 164.19 121.429 163.883C121.042 163.775 120.661 163.645 120.278 163.538C120.034 163.469 119.79 163.41 119.539 163.365C119.084 163.284 118.623 163.216 118.167 163.147C118.086 163.166 118.004 163.179 117.921 163.186C117.678 163.191 117.438 163.19 117.195 163.188C116.879 163.193 116.564 163.224 116.253 163.283C115.91 163.344 115.562 163.38 115.22 163.43C115.064 163.452 114.905 163.465 114.752 163.497C114.256 163.6 113.75 163.652 113.243 163.652C113 163.648 112.759 163.682 112.527 163.753C112.061 163.891 111.587 163.997 111.107 164.071C110.838 164.118 110.579 164.209 110.34 164.342L109.641 164.711C109.257 164.927 108.882 165.115 108.511 165.329C108.21 165.504 107.938 165.717 107.631 165.878C107.2 166.077 106.795 166.326 106.424 166.622C106.237 166.787 106.028 166.931 105.817 167.081C105.672 167.185 105.533 167.298 105.403 167.421C104.859 167.933 104.345 168.475 103.862 169.045C103.684 169.278 103.492 169.504 103.337 169.755C103.268 169.872 103.19 169.983 103.103 170.088C102.9 170.332 102.689 170.565 102.484 170.804C102.435 170.86 102.391 170.918 102.351 170.979C102.17 171.275 101.97 171.558 101.753 171.828C101.684 171.909 101.629 172.001 101.592 172.1L100.378 174.904C100.124 175.467 99.992 176.076 99.99 176.693C99.979 177.567 99.989 178.445 99.983 179.325C99.982 180.157 100.039 180.989 100.152 181.813C100.199 182.028 100.209 182.25 100.179 182.468L100.177 182.463ZM117.866 167.823C117.938 167.837 118.008 167.857 118.081 167.868C118.425 167.917 118.767 167.969 119.112 168.015C119.623 168.097 120.113 168.275 120.558 168.54C120.942 168.757 121.312 169.003 121.679 169.248C121.961 169.432 122.23 169.635 122.485 169.854C122.989 170.305 123.485 170.763 123.961 171.24C124.243 171.509 124.562 171.737 124.908 171.915C124.983 171.954 125.062 171.983 125.144 172.001C125.621 172.126 126.107 172.213 126.598 172.262C126.727 172.274 126.852 172.285 126.972 172.305C127.045 172.318 127.115 172.341 127.18 172.374C127.215 172.388 127.245 172.411 127.269 172.439C127.293 172.468 127.309 172.502 127.317 172.539C127.324 172.575 127.323 172.613 127.312 172.649C127.302 172.685 127.283 172.717 127.257 172.744C127.212 172.802 127.152 172.847 127.083 172.872C126.835 172.958 126.58 173.033 126.328 173.109L126.027 173.198L125.686 173.296C125.732 173.42 125.793 173.539 125.869 173.648C126.101 173.989 126.306 174.347 126.482 174.72C126.758 175.254 127.001 175.804 127.212 176.366C127.339 176.756 127.492 177.138 127.633 177.522C127.666 177.622 127.704 177.721 127.749 177.816C127.912 178.144 128.088 178.469 128.243 178.805C128.31 178.961 128.418 179.095 128.555 179.194C128.717 179.31 128.889 179.411 129.069 179.495C129.354 179.628 129.658 179.721 129.955 179.835C130.059 179.883 130.162 179.932 130.279 179.986C130.345 180.016 130.404 180.059 130.452 180.113C130.476 180.138 130.494 180.168 130.503 180.201C130.513 180.234 130.514 180.269 130.507 180.303C130.5 180.336 130.485 180.368 130.463 180.394C130.441 180.42 130.413 180.441 130.381 180.454C130.294 180.49 130.2 180.509 130.106 180.512C129.77 180.506 129.431 180.49 129.095 180.476C129.062 180.461 129.018 180.48 128.97 180.481C128.988 180.634 129.034 180.783 129.106 180.919C129.173 181.039 129.232 181.162 129.285 181.289L129.869 182.926C129.894 183.007 129.914 183.09 129.927 183.174C130.014 183.681 130.15 184.18 130.332 184.661C130.37 184.749 130.401 184.839 130.424 184.932C130.468 185.084 130.55 185.223 130.662 185.334C130.889 185.571 131.145 185.779 131.424 185.951C131.536 186.045 131.631 186.158 131.702 186.285C131.71 186.302 131.715 186.32 131.715 186.338C131.715 186.357 131.711 186.375 131.703 186.392C131.695 186.408 131.684 186.423 131.67 186.435C131.656 186.447 131.639 186.455 131.621 186.46C131.46 186.517 131.284 186.515 131.124 186.454C130.988 186.391 130.843 186.347 130.675 186.285L130.709 186.533C130.84 187.143 130.911 187.764 130.92 188.388C130.921 188.471 130.938 188.553 130.942 188.638C130.994 189.037 130.964 189.443 130.854 189.83C130.746 190.173 130.636 190.488 130.519 190.816C130.472 190.958 130.391 191.085 130.284 191.188C130.037 191.432 129.795 191.682 129.548 191.926C129.36 192.112 129.137 192.26 128.893 192.362C128.518 192.525 128.113 192.606 127.704 192.599C127.389 192.582 127.071 192.561 126.756 192.553C126.292 192.551 125.83 192.509 125.373 192.428C125.26 192.394 125.14 192.39 125.024 192.416C125.093 192.573 125.156 192.717 125.21 192.864C125.283 193.054 125.281 193.264 125.205 193.452C125.194 193.488 125.173 193.52 125.145 193.545C125.117 193.57 125.083 193.587 125.046 193.595C125.009 193.602 124.971 193.6 124.936 193.588C124.9 193.575 124.869 193.554 124.844 193.526C124.799 193.483 124.762 193.433 124.736 193.377C124.525 192.974 124.243 192.612 123.904 192.31C123.815 192.225 123.701 192.172 123.58 192.159C123.278 192.122 122.976 192.076 122.671 192.038C122.015 191.947 121.354 191.904 120.692 191.907C119.69 191.919 118.685 191.989 117.688 192.023C117.636 192.026 117.588 192.036 117.508 192.046C117.55 192.144 117.574 192.218 117.608 192.289C117.731 192.524 117.81 192.778 117.843 193.04C117.856 193.176 117.849 193.314 117.823 193.448C117.818 193.48 117.804 193.51 117.783 193.534C117.762 193.558 117.735 193.576 117.704 193.586C117.673 193.596 117.641 193.597 117.61 193.589C117.578 193.582 117.55 193.566 117.527 193.543C117.453 193.468 117.387 193.386 117.33 193.298C117.181 193.081 117.011 192.878 116.823 192.693C116.592 192.476 116.347 192.283 116.117 192.066C116.07 192.018 116.013 191.98 115.95 191.956C115.887 191.931 115.82 191.921 115.753 191.925C115.341 191.944 114.928 191.935 114.518 191.896C113.898 191.871 113.284 191.769 112.69 191.592C112.151 191.413 111.601 191.249 111.08 191.031C110.634 190.86 110.201 190.659 109.783 190.429C109.619 190.338 109.447 190.258 109.271 190.192C109.245 190.18 109.212 190.192 109.17 190.197C109.095 190.416 109.056 190.647 109.055 190.879C109.032 191.206 108.942 191.525 108.79 191.816C108.769 191.865 108.731 191.905 108.683 191.928C108.634 191.951 108.579 191.955 108.528 191.939C108.487 191.927 108.451 191.901 108.427 191.865C108.404 191.83 108.393 191.787 108.398 191.744C108.365 191.365 108.272 190.993 108.121 190.643C108.054 190.455 108.002 190.261 107.945 190.07C107.889 189.878 107.851 189.679 107.78 189.493C107.73 189.297 107.632 189.116 107.496 188.967C107.17 188.684 106.873 188.369 106.608 188.028C106.418 187.775 106.203 187.541 106.014 187.288C105.824 187.034 105.673 186.783 105.484 186.546C105.128 186.087 104.854 185.57 104.671 185.019C104.402 184.299 104.18 183.561 104.005 182.812C103.915 182.519 103.858 182.217 103.836 181.911C103.836 181.911 103.807 181.897 103.785 181.868C103.725 181.972 103.657 182.072 103.583 182.168C103.385 182.399 103.175 182.624 102.972 182.849C102.781 183.05 102.554 183.212 102.302 183.326C102.247 183.355 102.186 183.373 102.124 183.378C102.095 183.383 102.066 183.382 102.038 183.373C102.009 183.364 101.984 183.348 101.964 183.327C101.943 183.306 101.929 183.28 101.921 183.252C101.913 183.223 101.913 183.193 101.92 183.165C101.933 183.102 101.953 183.042 101.98 182.984C102.156 182.605 102.333 182.222 102.454 181.817C102.524 181.596 102.606 181.379 102.7 181.167C102.951 180.532 103.214 179.898 103.465 179.262C103.504 179.146 103.532 179.027 103.548 178.906C103.642 178.109 103.801 177.322 104.022 176.55C104.088 176.34 104.174 176.136 104.28 175.942C104.427 175.687 104.589 175.441 104.763 175.205C105.022 174.871 105.322 174.571 105.655 174.311C105.903 174.115 106.155 173.92 106.382 173.703C106.817 173.29 107.236 172.854 107.666 172.435C108.12 171.995 108.53 171.511 108.891 170.991C109.024 170.801 109.173 170.624 109.337 170.461C109.457 170.34 109.57 170.215 109.696 170.104C109.983 169.843 110.253 169.574 110.555 169.356C111.107 168.934 111.704 168.574 112.336 168.284C112.681 168.126 113.034 167.987 113.395 167.869C113.727 167.767 114.066 167.686 114.409 167.626C114.925 167.532 115.438 167.416 115.949 167.277C116.393 167.168 116.79 167.001 117.206 166.852C117.752 166.692 118.272 166.453 118.748 166.141C118.822 166.085 118.908 166.048 119 166.035C119.092 166.021 119.185 166.032 119.272 166.065C119.306 166.198 119.291 166.339 119.229 166.462C119.171 166.575 119.107 166.685 119.037 166.791C118.798 167.191 118.442 167.508 118.017 167.7C117.965 167.732 117.918 167.771 117.877 167.816" fill="#F3977F"/>
<path d="M109.3 187.555C109.573 187.816 109.815 188.058 110.067 188.305C110.334 188.574 110.646 188.795 110.989 188.957C111.725 189.298 112.443 189.678 113.197 189.98C113.352 190.044 113.512 190.093 113.676 190.128C114.494 190.291 115.314 190.442 116.131 190.6C116.264 190.627 116.399 190.65 116.533 190.684C117.172 190.801 117.825 190.823 118.47 190.752C119.009 190.738 119.547 190.707 120.08 190.679C120.258 190.667 120.433 190.646 120.614 190.631C120.794 190.616 121.076 190.585 121.308 190.579C121.889 190.549 122.473 190.556 123.054 190.601C123.493 190.647 123.933 190.701 124.374 190.752C125.055 190.828 125.736 190.915 126.414 190.981C126.896 191.049 127.387 191.022 127.86 190.903C128.022 190.862 128.176 190.792 128.314 190.696L128.496 190.568C128.663 190.459 128.797 190.306 128.882 190.125C129.016 189.85 129.108 189.557 129.155 189.255C129.266 188.75 129.321 188.234 129.321 187.717C129.308 187.529 129.283 187.341 129.247 187.155C129.19 186.853 129.106 186.558 129.068 186.257C128.992 185.789 128.887 185.326 128.754 184.871C128.606 184.342 128.485 183.829 128.366 183.305C128.268 182.808 128.106 182.325 127.886 181.869C127.812 181.73 127.757 181.582 127.719 181.43C127.52 180.731 127.274 180.046 126.984 179.38C126.872 179.119 126.773 178.849 126.655 178.593C126.538 178.338 126.369 178.031 126.228 177.749C126.165 177.63 126.109 177.505 126.043 177.384L125.559 176.498C125.32 176.064 125.074 175.635 124.842 175.201C124.599 174.734 124.325 174.284 124.02 173.855C123.897 173.684 123.764 173.519 123.622 173.363C123.224 172.931 122.913 172.42 122.487 172.006C122.316 171.84 122.163 171.651 121.998 171.472C121.525 170.991 120.998 170.565 120.428 170.205C119.873 169.821 119.263 169.531 118.683 169.195C118.49 169.085 118.28 169.009 118.062 168.97C117.555 168.884 117.04 168.831 116.528 168.763C116.486 168.755 116.444 168.755 116.402 168.763C115.891 168.846 115.372 168.853 114.869 168.978C114.242 169.127 113.646 169.384 113.107 169.737C112.931 169.852 112.763 169.979 112.604 170.117C112.146 170.491 111.71 170.891 111.3 171.317C111.255 171.361 111.216 171.41 111.181 171.462C111.032 171.716 110.892 171.974 110.743 172.228C110.682 172.361 110.576 172.47 110.492 172.592C110.453 172.676 110.378 172.744 110.329 172.824C110.01 173.32 109.622 173.769 109.176 174.156C108.999 174.294 108.811 174.416 108.613 174.521C108.553 174.564 108.487 174.596 108.43 174.645C107.846 175.142 107.292 175.675 106.773 176.239C106.604 176.428 106.462 176.639 106.352 176.867C105.917 177.739 105.71 178.706 105.749 179.679C105.754 179.796 105.759 179.912 105.753 180.027C105.736 180.522 105.771 181.017 105.855 181.505C105.862 181.578 105.878 181.651 105.905 181.721C106.073 182.208 106.242 182.693 106.412 183.176C106.433 183.225 106.45 183.275 106.464 183.326C106.604 183.802 106.816 184.253 107.092 184.665C107.211 184.85 107.305 185.055 107.416 185.241C107.527 185.426 107.708 185.679 107.846 185.901C108.119 186.315 108.442 186.693 108.808 187.028C108.969 187.182 109.124 187.34 109.28 187.495" fill="#F3977F"/>
</g>
<defs>
<clipPath id="clip0">
<rect width="167" height="198" fill="white"/>
</clipPath>
</defs>
</svg>
