<svg width="60" height="60" viewBox="0 0 60 60" fill="none" xmlns="http://www.w3.org/2000/svg">
<g clip-path="url(#clip0)">
<path d="M49.0872 28.1477C48.9699 27.8945 48.8364 27.6506 48.7272 27.4078C48.2566 26.2029 47.6601 25.0512 46.9474 23.9718C46.5354 23.3148 46.0862 22.6819 45.6018 22.0763C45.0708 21.4431 44.505 20.8469 43.9577 20.223C43.4812 19.7112 42.9817 19.2191 42.4786 18.7398C42.0389 18.3157 41.5704 17.9225 41.0765 17.563C40.2087 16.9165 39.2889 16.3407 38.3726 15.7671C37.1869 15.0205 35.9051 14.4387 34.5624 14.0379C33.6976 13.779 32.8351 13.5167 31.953 13.3064C30.8831 13.0348 29.7937 12.8471 28.6946 12.745C28.5453 12.736 28.3948 12.7062 28.2362 12.681L28.0984 12.6245C27.5275 12.344 27.0069 11.9711 26.5575 11.521C26.459 11.4205 26.3662 11.3188 26.2654 11.2067C25.9395 10.8308 25.7043 10.385 25.578 9.90378C25.5082 9.64701 25.4152 9.39488 25.3372 9.14275C25.3139 9.05716 25.2721 8.96932 25.3958 8.8962C25.7219 9.13261 26.0896 9.30544 26.4798 9.40575C26.6713 9.47825 26.8588 9.56102 27.0415 9.65362L28.0165 10.0859C28.5846 10.3278 29.2017 10.4322 29.8176 10.3906C30.0329 10.3833 30.2457 10.3644 30.4864 10.3339C30.4887 10.0866 30.472 9.83936 30.4365 9.59454C30.3391 8.79858 30.23 8.00493 30.1916 7.20308C30.1855 7.03877 30.1853 6.87332 30.1966 6.70551C30.2342 5.62354 30.4113 4.55093 30.7234 3.51428C30.9272 2.88327 31.0857 2.25234 31.2871 1.60976C31.5706 0.709851 31.9722 -0.148478 32.4815 -0.942712C32.6916 -1.25898 32.8635 -1.60062 33.055 -1.93421C33.064 -1.96211 33.0792 -1.98767 33.0993 -2.00893C33.1195 -2.03019 33.1443 -2.04661 33.1717 -2.05707C33.187 -1.86153 33.1931 -1.66717 33.212 -1.46933C33.222 -1.24121 33.2468 -1.01396 33.2861 -0.789026C33.4529 0.00797656 33.6313 0.802662 33.8074 1.60081C33.8847 2.01173 33.9906 2.41676 34.1242 2.81297C34.2719 3.21657 34.4091 3.62828 34.5545 4.03535C34.5912 4.14259 34.6383 4.24601 34.6951 4.34409C35.1187 5.04114 35.4613 5.78462 35.9461 6.44222C36.0754 6.61435 36.1854 6.8 36.2745 6.99593C36.573 7.603 36.933 8.1778 37.349 8.7113C37.4476 8.84189 37.5566 8.96435 37.6483 9.10537C37.9173 9.493 38.2543 9.82881 38.6429 10.0965C39.1797 10.4858 39.6532 10.9557 40.0465 11.4897C40.1614 11.641 40.2889 11.7809 40.4037 11.9172C40.5437 11.91 40.5632 11.8128 40.5989 11.7363C40.7441 11.397 40.8859 11.0554 41.0346 10.7184C41.2126 10.3237 41.4302 9.94796 41.6842 9.59716C41.8457 9.35387 42.0247 9.12216 42.1944 8.88928C42.2571 8.97596 42.2074 9.05817 42.189 9.14615C42.1259 9.44481 42.0466 9.73772 42.0054 10.0259C41.9382 10.5568 41.9435 11.0945 42.0209 11.624C42.0515 11.9248 42.0891 12.2302 42.1347 12.531C42.1858 12.8348 42.3067 13.1226 42.488 13.3717C42.6559 13.6264 42.866 13.8506 43.1093 14.0348C43.2379 14.1202 43.3492 14.2242 43.4651 14.3212C43.6303 14.2381 43.7647 14.1045 43.8486 13.9398C43.9686 13.7591 44.0794 13.5922 44.1647 13.3733C44.4944 12.6658 44.9538 12.0343 45.3415 11.3602C45.6867 10.7541 46.092 10.1843 46.5513 9.6594C46.8343 9.34647 47.1206 8.97572 47.3989 8.62462C47.4792 8.52637 47.5495 8.42042 47.609 8.30834C47.7781 7.99356 47.9834 7.69955 48.2207 7.43241C48.5903 6.99668 48.9274 6.53439 49.2563 6.0617C49.7573 5.30752 50.308 4.59144 50.8402 3.85804C51.0572 3.53134 51.3147 3.22661 51.5387 2.90453C51.6474 2.73221 51.7471 2.55431 51.8374 2.37167C51.8998 2.27783 51.9448 2.17252 51.9978 2.07754C52.4669 2.12038 52.9097 2.31272 53.2612 2.62619C53.2413 2.70506 53.211 2.78093 53.1713 2.85194C53.0305 3.06395 52.8897 3.27591 52.7141 3.46484C52.5386 3.65376 52.3757 3.84615 52.2106 4.042C52.0454 4.23784 51.8826 4.43021 51.7314 4.63529C51.4116 5.07904 51.0988 5.52745 50.7826 5.9735L50.6764 6.13336C50.4939 6.36279 50.2941 6.58064 50.1325 6.82392C49.4908 7.7901 48.849 8.75632 48.2073 9.7225C48.145 9.81634 48.0803 9.91363 48.018 10.0075C47.681 10.5149 47.366 11.042 47.0534 11.5656C46.7407 12.0891 46.4326 12.6208 46.1269 13.149C45.8938 13.6028 45.6203 14.0347 45.3098 14.4394C45.2602 14.5032 45.2155 14.5706 45.1759 14.641C45.2225 14.669 45.2734 14.6893 45.3265 14.701C45.6429 14.7097 45.9595 14.6922 46.273 14.6484C47.2532 14.4647 48.224 14.2597 49.1856 14.0336C49.8056 13.887 50.4101 13.6814 50.9909 13.4195C51.2591 13.3021 51.5298 13.1964 51.8073 13.0953C52.2766 12.9012 52.7316 12.6746 53.1693 12.4171C53.2594 12.3718 53.3532 12.3439 53.448 12.3067C53.4723 12.3725 53.4751 12.4442 53.4564 12.5117C53.4376 12.5793 53.3981 12.6392 53.3433 12.683C53.1039 12.9817 52.9031 13.3094 52.7456 13.6583C52.6016 13.9128 52.4396 14.1567 52.2608 14.3882C51.9376 14.8296 51.5958 15.2537 51.283 15.7021C50.9335 16.2366 50.5012 16.7119 50.0021 17.1103C49.6428 17.4164 49.3399 17.7831 49.1071 18.1937C48.9317 18.4579 48.7563 18.722 48.5994 19.0035C48.3686 19.351 48.377 19.6021 48.6958 19.8839C49.228 20.4019 49.8845 20.7741 50.6023 20.9649C51.1209 21.0739 51.6464 21.1575 52.1788 21.2457C52.3281 21.2467 52.4747 21.2854 52.6049 21.3583C52.346 21.5604 52.0644 21.7314 51.7657 21.8678C51.4952 22.055 51.1944 22.1942 50.8765 22.2789C50.5573 22.3674 50.2264 22.4132 49.8945 22.5283C49.9054 22.592 49.9249 22.6538 49.9527 22.7122C50.0583 22.8852 50.1762 23.0505 50.3053 23.2068C51.1818 24.1496 52.0315 25.0796 52.9172 25.9934C53.5398 26.6321 54.2299 27.2012 54.9753 27.6909C55.4893 28.047 56.0668 28.3013 56.6764 28.4401C56.9253 28.4952 57.1661 28.5851 57.407 28.6599C57.4485 28.6827 57.4881 28.709 57.5252 28.7384C57.5184 28.8391 57.4385 28.8311 57.3876 28.8474C57.0199 28.9527 56.6363 28.9914 56.255 28.9616C55.1617 28.9033 54.0697 28.8458 52.9787 28.7891C52.5864 28.7689 52.1919 28.7673 51.7996 28.7622C51.2649 28.7541 50.7346 28.6652 50.2265 28.4987C49.8421 28.3686 49.445 28.2652 49.0549 28.1513" fill="#004D42"/>
<path d="M13.2556 33.4495C13.1178 33.4691 12.9824 33.5035 12.8519 33.552C12.4085 33.7101 11.9517 33.8274 11.487 33.9026C11.2892 33.9516 11.2857 33.9342 11.0795 33.7622C11.1674 33.5124 11.3436 33.3034 11.5749 33.1746C12.0476 32.8775 12.5251 32.5886 12.9804 32.265C13.3092 32.0246 13.6237 31.7652 13.9222 31.4881C14.0381 31.3698 14.1305 31.2307 14.1946 31.078C14.288 30.8695 14.3709 30.6541 14.4446 30.4376C14.6005 29.9799 14.7869 29.533 15.0024 29.1002C15.188 28.7226 15.3239 28.3521 15.4668 27.9711C15.6414 27.4925 15.8631 27.0324 16.1286 26.5976C16.2417 26.4273 16.3351 26.2338 16.4343 26.0693C16.6699 25.6586 16.951 25.2758 17.2725 24.9281L16.9971 24.9205L16.7715 24.9209C16.2617 24.937 15.753 24.8667 15.2668 24.7129C15.1336 24.6675 15.0091 24.6 14.8984 24.5133C14.87 24.4921 14.8477 24.4636 14.8338 24.4309C14.8199 24.3982 14.8151 24.3625 14.8196 24.3272C14.8242 24.292 14.838 24.2587 14.8596 24.2306C14.8813 24.2024 14.91 24.1805 14.9429 24.1672C14.9992 24.1393 15.0586 24.1182 15.1199 24.1044L15.7897 23.9482C16.3981 23.7863 17.0261 23.6475 17.6402 23.4694C17.9909 23.3612 18.3347 23.2316 18.6695 23.0812C18.7853 23.0286 18.8889 22.9524 18.9734 22.8573C19.2772 22.5583 19.5602 22.2152 19.8849 21.93C20.2823 21.5729 20.7122 21.2574 21.1259 20.9211C21.5998 20.544 22.1066 20.2101 22.6401 19.9233C22.8401 19.8107 23.0516 19.6958 23.2447 19.5937C23.3175 19.5519 23.388 19.4985 23.484 19.437C23.388 19.3811 23.2877 19.3329 23.184 19.2929C22.7067 19.1116 22.2634 18.8511 21.8728 18.5222C21.833 18.4909 21.7989 18.453 21.7719 18.4101C21.7494 18.3786 21.7357 18.3417 21.7323 18.3032C21.7288 18.2646 21.7357 18.2258 21.7523 18.1909C21.7689 18.1559 21.7945 18.126 21.8266 18.1043C21.8586 18.0825 21.8959 18.0698 21.9345 18.0674C22.1492 18.0563 22.3645 18.0714 22.5756 18.1125C23.5317 18.3206 24.505 18.4405 25.483 18.4709C25.6705 18.4633 25.8567 18.4358 26.0383 18.3889C26.3507 18.3259 26.6445 18.2305 26.9718 18.1825C27.2992 18.1345 27.674 18.0678 28.0257 18.021C28.3774 17.9741 28.6597 17.9412 28.9744 17.9048C29.6048 17.8151 30.2476 17.8839 30.8447 18.1052C31.0589 18.1823 31.2662 18.2248 31.5024 18.3066L31.6818 18.3757C32.3107 18.6732 32.9476 18.966 33.5834 19.2831C33.983 19.4858 34.3489 19.7491 34.668 20.0636C35.0342 20.417 35.4005 20.7704 35.739 21.1506C36.0103 21.451 36.2493 21.785 36.4952 22.1085C36.6285 22.2773 36.7596 22.4645 36.8721 22.6344C37.0248 22.8542 37.1539 23.0894 37.2575 23.3361C37.3795 23.6275 37.5408 23.905 37.6894 24.194L38.1121 25.0658C38.1385 25.1237 38.1708 25.1787 38.2085 25.23C38.6931 25.9469 39.2161 26.6371 39.7754 27.2974C40.1081 27.6787 40.4317 28.0739 40.7852 28.439C41.03 28.6982 41.3073 28.9245 41.6103 29.1122C41.9204 29.3123 42.22 29.5281 42.5082 29.7586C42.6159 29.8302 42.6972 29.9342 42.8014 30.0035C43.3939 30.4225 43.8877 30.9658 44.2483 31.5956C44.518 32.0225 44.7144 32.4915 44.8293 32.9832C44.9517 33.5002 45.1065 34.0137 45.215 34.5366C45.3013 34.9345 45.3414 35.3418 45.4115 35.749C45.4176 35.8121 45.4173 35.8757 45.4107 35.9388C45.3615 36.5088 45.2423 37.0705 45.0559 37.6114C44.8439 38.1719 44.6181 38.7231 44.3563 39.2605C44.197 39.6249 44.1486 40.0283 44.2172 40.4202C44.3039 41.0437 44.3524 41.657 44.3754 42.2783C44.3983 42.557 44.4015 42.837 44.385 43.1161C44.3646 43.343 44.2954 43.4623 44.1542 43.4637C44.013 43.4651 43.9179 43.3367 43.8482 43.2154C43.7786 43.094 43.6741 42.9044 43.5998 42.7448C43.5255 42.5853 43.4591 42.391 43.3987 42.2106C43.2812 41.8671 43.1684 41.5167 43.0509 41.1582C42.8844 41.2492 42.747 41.3854 42.6547 41.5511C42.3339 41.9792 41.9831 42.3839 41.6049 42.7622C41.3558 43.0692 41.068 43.3427 40.7488 43.576C40.4864 43.7523 40.2171 43.9241 39.9513 44.0981C39.5745 44.3487 39.2011 44.6016 38.8139 44.8453C38.3446 45.1446 37.8649 45.4371 37.3921 45.7341L36.4523 46.3119C36.3941 46.3613 36.3296 46.4027 36.2605 46.4349C36.0108 46.5354 35.7945 46.7042 35.6364 46.922C35.1196 47.5044 34.7267 48.1858 34.4815 48.9248C34.4182 49.1181 34.3202 49.3185 34.2499 49.4922C34.2275 49.5372 34.1996 49.5792 34.1668 49.6173C34.1507 49.6455 34.1273 49.6688 34.0991 49.685C34.071 49.7012 34.0391 49.7096 34.0066 49.7094C33.9741 49.7093 33.9423 49.7005 33.9143 49.684C33.8863 49.6675 33.8633 49.6438 33.8474 49.6155C33.8006 49.5555 33.7663 49.4867 33.7464 49.4132C33.6084 49.0152 33.563 48.5911 33.6135 48.173C33.649 47.9461 33.6741 47.7123 33.6957 47.4912C33.6984 47.4375 33.6955 47.3836 33.6873 47.3304C33.534 47.3247 33.3815 47.3535 33.2408 47.4145C32.7662 47.5983 32.271 47.7235 31.766 47.7873C31.7275 47.7881 31.6891 47.7948 31.6526 47.8072C31.2895 47.9316 30.9018 47.9346 30.5317 48.0243C30.0836 48.1168 29.6285 48.1714 29.1712 48.1875C29.0312 48.1947 28.8923 48.2227 28.7535 48.2357C28.4504 48.2698 28.1404 48.3293 27.8441 48.3229C27.0457 48.3122 26.2749 48.6147 25.6967 49.1656C25.4097 49.3983 25.1434 49.6554 24.9007 49.9341C24.7946 50.094 24.6733 50.2388 24.5671 50.3987C24.4892 50.5304 24.3786 50.6399 24.246 50.7163C24.2036 50.7459 24.1543 50.7639 24.1028 50.7685C24.0514 50.7731 23.9996 50.7643 23.9527 50.7427C23.9058 50.7211 23.8653 50.6876 23.8352 50.6456C23.8052 50.6036 23.7867 50.5544 23.7816 50.503C23.7249 50.2029 23.7398 49.8936 23.8251 49.6004C23.9103 49.3364 23.9921 49.0701 24.0888 48.7737C23.9385 48.7413 23.7835 48.7368 23.6316 48.7606C22.9513 48.8497 22.2699 48.9481 21.5862 49.0198C20.9024 49.0916 20.2186 49.1483 19.5419 49.2698C19.2659 49.322 18.9863 49.3523 18.7055 49.3604C18.5799 49.3685 18.4585 49.4085 18.3527 49.4767C18.3104 49.5037 18.2701 49.5339 18.2325 49.5672C17.7784 49.9417 17.3219 50.3047 16.8886 50.6781C16.6656 50.8705 16.4797 51.0977 16.2753 51.3075C16.2407 51.3596 16.1817 51.3956 16.1355 51.435C16.0989 51.4714 16.0513 51.4944 16.0001 51.5004C15.9488 51.5064 15.8971 51.4949 15.8531 51.4679C15.8068 51.4459 15.7671 51.4121 15.738 51.3699C15.7089 51.3277 15.6914 51.2786 15.6873 51.2275C15.6884 51.1639 15.6969 51.1006 15.7125 51.0388C15.7973 50.5943 15.8787 50.1475 15.9728 49.6741C15.9183 49.5978 15.8246 49.6558 15.7425 49.6513C15.6542 49.6518 15.566 49.6585 15.4787 49.6714L13.7674 49.7971C13.3859 49.8073 13.0045 49.7679 12.6331 49.6798C12.2434 49.5939 11.8934 49.3808 11.6382 49.074C11.5129 48.9308 11.3923 48.7805 11.2625 48.6442C10.9774 48.334 10.7767 47.9558 10.6797 47.5458C10.5437 47.0016 10.4913 46.4398 10.524 45.8798C10.5418 45.7277 10.5481 45.5746 10.543 45.4216C10.511 44.9145 10.5522 44.4054 10.6653 43.9101C10.7261 43.5698 10.7637 43.2342 10.8233 42.9181C10.7387 42.8269 10.667 42.8744 10.5941 42.8861C10.4322 42.9188 10.2691 42.9457 10.1094 42.9899C9.85662 43.0437 9.59503 43.041 9.34337 42.982C9.29789 42.9787 9.25432 42.9623 9.21808 42.9346C9.18185 42.9069 9.15461 42.8693 9.13953 42.8262C9.12444 42.7832 9.12222 42.7367 9.13325 42.6924C9.14427 42.6482 9.16797 42.6081 9.20148 42.5772C9.26835 42.5011 9.34492 42.4341 9.42915 42.3778C9.53396 42.3048 9.64496 42.2411 9.76091 42.1874C10.151 41.9759 10.5264 41.7382 10.8845 41.4762C10.9494 41.436 11.0049 41.3824 11.0471 41.3188C11.0893 41.2552 11.1173 41.1832 11.1292 41.1078C11.2552 40.4052 11.4357 39.7186 11.5872 39.0229C11.7074 38.4899 11.8675 37.9667 12.066 37.4576C12.2411 36.9922 12.3894 36.5171 12.5102 36.0347C12.6883 35.3577 12.9078 34.6922 13.1675 34.0421C13.2622 33.8769 13.3077 33.6881 13.2985 33.498C13.3343 33.4817 13.3644 33.4666 13.3308 33.4493C13.2972 33.432 13.31 33.4806 13.2985 33.498L13.2556 33.4495ZM30.3845 45.1918C30.7211 45.1149 31.0589 45.0437 31.3897 44.9529C31.883 44.8082 32.3643 44.6255 32.8294 44.4065C33.3677 44.178 33.8853 43.9034 34.3763 43.5858C34.8895 43.2354 35.4142 42.8978 35.9402 42.5659C36.2925 42.3575 36.6224 42.1134 36.9248 41.8375C37.3696 41.4167 37.8318 41.0225 38.3148 40.6421C38.6186 40.3912 38.8912 40.1048 39.1269 39.789C39.5229 39.2908 39.9168 38.811 40.329 38.3035C40.5431 38.0504 40.7191 37.7675 40.8517 37.4636C40.9935 37.122 41.1456 36.7873 41.2804 36.4411C41.423 36.1288 41.5112 35.7944 41.5414 35.4525C41.5681 34.9054 41.5451 34.3569 41.4726 33.814C41.3797 33.2985 41.1295 32.8243 40.7563 32.4567C40.4964 32.2106 40.203 32.0023 39.885 31.838C39.6778 31.7154 39.4771 31.5821 39.2838 31.4386C38.9883 31.2424 38.7207 31.0046 38.4414 30.784C38.1622 30.5635 37.891 30.3683 37.6395 30.1362C37.3266 29.8532 37.0808 29.5447 36.7771 29.2779C36.2647 28.816 35.8318 28.273 35.4957 27.6705C35.1081 27.0023 34.7446 26.3202 34.3697 25.6404C34.192 25.3328 34.0316 25.0155 33.889 24.6901C33.75 24.3636 33.5915 24.0458 33.4141 23.7385C33.1853 23.2799 32.8301 22.8963 32.3904 22.6329C32.2618 22.5475 32.1332 22.4621 32.0081 22.379C31.1862 21.8407 30.2801 21.4437 29.3272 21.2044C29.0608 21.1217 28.7817 21.0873 28.5031 21.1028C27.7419 21.1782 26.9899 21.2999 26.2345 21.4042L25.6178 21.4955C24.7953 21.6007 24.0125 21.9108 23.341 22.3974C22.4832 22.9626 21.673 23.5971 20.9188 24.2946C20.4143 24.7236 19.9396 25.1865 19.4979 25.6799C18.9024 26.2551 18.4173 26.9344 18.0664 27.6843C18.0543 27.7062 18.0404 27.7271 18.0249 27.7468C17.7379 28.3826 17.3176 28.9549 17.0688 29.6161C16.9937 29.7786 16.909 29.9364 16.815 30.0887C16.6761 30.3327 16.5522 30.5848 16.4437 30.8438C16.2318 31.4042 16.0418 31.9693 15.8461 32.5355L15.2611 34.2306L14.9662 35.0364C14.9213 35.1569 14.8858 35.2785 14.8408 35.3989C14.7179 35.6781 14.6264 35.9701 14.568 36.2695C14.5367 36.444 14.4886 36.615 14.4243 36.7801C14.2251 37.3034 14.0783 37.8451 13.9861 38.3974C13.8933 38.9368 13.7345 39.4624 13.6822 40.0087C13.6593 40.1563 13.6275 40.3025 13.587 40.4463C13.5583 40.5725 13.5353 40.6975 13.5089 40.8202C13.4492 41.1061 13.393 41.3943 13.3114 41.6907C13.2343 41.9731 13.1818 42.2616 13.1544 42.5531C13.1371 42.7691 13.1049 42.9838 13.0582 43.1954C12.9238 43.7911 12.88 44.4037 12.9283 45.0125C12.9461 45.2797 12.9546 45.5308 12.9412 45.8074C12.935 45.9925 12.9663 46.177 13.0332 46.3497C13.1002 46.5224 13.2013 46.6797 13.3306 46.8123C13.4872 46.9812 13.6733 47.1201 13.8798 47.2221C14.1358 47.342 14.3905 47.4561 14.6511 47.5691C15.0374 47.7384 15.4603 47.8074 15.8804 47.7695C16.0832 47.7522 16.2867 47.7453 16.4902 47.7488C17.2272 47.7355 17.9624 47.6715 18.6907 47.5575C19.1581 47.5023 19.6267 47.4379 20.0918 47.3712C20.7258 47.2914 21.3667 47.2162 22.0156 47.0913C22.4541 47.0118 22.8774 46.8723 23.3123 46.7755C24.247 46.5749 25.1816 46.3742 26.1151 46.1828C27.2718 45.9494 28.4008 45.6975 29.495 45.4225C29.7853 45.3398 30.085 45.2884 30.3892 45.23" fill="#FBF7EF"/>
<path d="M35.2835 53.5692L34.7618 53.6685L31.9833 54.2472C31.9081 54.2624 31.8341 54.2833 31.76 54.3043C31.3713 54.3767 30.9873 54.4572 30.6033 54.5377C30.2192 54.6182 29.6696 54.6538 29.2022 54.709C28.9488 54.7361 28.6978 54.7597 28.4456 54.7775C27.7386 54.8088 27.0317 54.8401 26.3212 54.8691C25.6108 54.8981 24.9755 54.9119 24.2893 54.912C23.6031 54.912 22.844 54.9237 22.1208 54.9342C21.3976 54.9447 20.7762 54.9677 20.1051 54.9978C19.1563 55.0388 18.2028 55.0867 17.2552 55.1485C16.6963 55.183 16.1399 55.2442 15.588 55.3134C14.8684 55.4014 14.15 55.5103 13.4339 55.6006C12.8786 55.6826 12.2966 55.7518 11.7285 55.8003C11.2148 55.883 10.695 55.9215 10.1747 55.9152L9.7071 55.8651C9.12841 55.8013 8.54852 55.7166 7.96523 55.6748C7.33913 55.6426 6.73546 55.4312 6.22611 55.0657C5.79168 54.7771 5.35724 54.4886 4.92281 54.2C4.49717 53.9377 4.15624 53.5583 3.94084 53.1071C3.63894 52.5059 3.34506 51.9 3.05125 51.2941C2.87959 50.9251 2.78936 50.5236 2.78661 50.1166C2.78259 49.7984 2.80867 49.4802 2.83124 49.1445C2.88304 48.5361 3.00746 47.936 3.2019 47.3572C3.32847 46.9404 3.44239 46.5502 3.55047 46.1462C3.68794 45.6291 3.877 45.1271 4.11486 44.6478C4.50002 43.8719 4.86903 43.0902 5.23797 42.3084C5.51353 41.7201 5.79247 41.1341 6.05181 40.54C6.24084 40.1046 6.40787 39.6646 6.56216 39.2211C6.6946 38.8483 6.79586 38.4697 6.90282 38.09C6.96608 37.8666 6.99809 37.6524 7.0787 37.4255C7.39168 36.3636 7.62876 35.2808 7.78822 34.1853C7.91199 33.4862 7.95243 32.7918 8.05302 32.0673C8.12608 31.4897 8.21077 30.9099 8.28384 30.3323C8.37654 29.7276 8.51357 29.1306 8.69385 28.5461C8.91314 27.7635 9.12159 26.9769 9.31926 26.1866C9.43588 25.77 9.51608 25.3439 9.55893 24.9134C9.59764 24.5843 9.68036 24.2619 9.8049 23.9548C10.0124 23.3951 10.2574 22.8499 10.5381 22.3231C10.7649 21.8962 11.0138 21.4813 11.2835 21.0802C11.4451 20.8369 11.5823 20.5774 11.7335 20.3272C11.97 19.9334 12.1927 19.5304 12.4535 19.1527C12.7103 18.7417 13.004 18.355 13.331 17.9974C13.8048 17.4853 14.3094 17.0025 14.842 16.5518C15.0949 16.3561 15.3714 16.1931 15.6651 16.0667C16.3138 15.7763 16.9625 15.4859 17.6158 15.2036C17.965 15.0548 18.3096 14.9131 18.6797 14.7933C19.2972 14.5623 19.9167 14.336 20.5381 14.1143C20.6102 14.0904 20.6835 14.0705 20.7578 14.0549C21.2251 13.9245 21.6947 13.8056 22.1562 13.6614C22.7229 13.4868 23.2861 13.2799 23.8563 13.1077C24.1593 13.0134 24.4786 12.9701 24.7863 12.8839C25.6262 12.6762 26.4915 12.5897 27.3559 12.6272C27.5341 12.6303 27.71 12.637 27.8893 12.6309C27.9766 12.6219 28.0628 12.6054 28.1473 12.5818C28.1648 12.6686 28.2307 12.6373 28.2851 12.6383C28.4333 12.6566 28.5838 12.6864 28.7435 12.7023C29.8426 12.8044 30.932 12.9921 32.0019 13.2637C32.8655 13.4717 33.7419 13.7433 34.6114 13.9952C35.954 14.396 37.2358 14.9778 38.4215 15.7244C39.3216 16.3223 40.2529 16.8807 41.1253 17.5203C41.6193 17.8798 42.0878 18.273 42.5276 18.697C43.0237 19.1868 43.5209 19.6824 44.0066 20.1803C44.5654 20.7868 45.1104 21.4143 45.6507 22.0336C46.135 22.6392 46.5843 23.2721 46.9963 23.9291C47.709 25.0085 48.3056 26.1602 48.7761 27.3651C48.8761 27.6218 49.0096 27.8657 49.1361 28.105L49.6208 29.3435C49.8502 29.8955 50.0326 30.4657 50.1664 31.0482C50.3379 31.8834 50.5304 32.7174 50.6845 33.5561C50.8603 34.4539 50.8884 35.3743 50.7679 36.2811C50.5949 37.5551 50.3031 38.81 49.8961 40.0295C49.8086 40.2819 49.7268 40.5332 49.6521 40.789C49.3824 41.6422 48.9561 42.4376 48.3948 43.1345C47.8707 43.8181 47.3337 44.4983 46.8223 45.2004C45.9117 46.4429 44.8436 47.5619 43.6447 48.5292C42.867 49.1647 42.0974 49.8106 41.3081 50.4333C40.0326 51.4238 38.6467 52.263 37.1779 52.9341C36.6863 53.1748 36.1641 53.3471 35.6258 53.446C35.5275 53.4658 35.4315 53.4972 35.3321 53.5263L35.2835 53.5692ZM13.3274 33.4016C13.3366 33.5918 13.2911 33.7806 13.1964 33.9457C12.9367 34.5958 12.7172 35.2613 12.5391 35.9384C12.4183 36.4208 12.27 36.8959 12.0949 37.3613C11.8964 37.8704 11.7364 38.3936 11.6162 38.9266C11.4647 39.6224 11.2818 40.3123 11.1581 41.0115C11.1462 41.0869 11.1183 41.1589 11.076 41.2225C11.0338 41.286 10.9783 41.3397 10.9134 41.3798C10.5553 41.6419 10.1799 41.8795 9.78983 42.0911C9.67387 42.1447 9.5629 42.2084 9.45809 42.2815C9.37386 42.3378 9.29735 42.4048 9.23047 42.4809C9.19696 42.5119 9.17319 42.5519 9.16216 42.5961C9.15114 42.6404 9.15336 42.6869 9.16844 42.7299C9.18352 42.7729 9.21085 42.8107 9.24708 42.8383C9.28331 42.866 9.3268 42.8824 9.37229 42.8857C9.62394 42.9446 9.88553 42.9474 10.1384 42.8936C10.298 42.8494 10.4611 42.8225 10.6231 42.7898C10.6959 42.7781 10.7676 42.7306 10.8522 42.8218C10.8065 43.1471 10.7689 43.4827 10.6943 43.8138C10.5812 44.3091 10.5399 44.8182 10.5719 45.3253C10.577 45.4783 10.5708 45.6315 10.553 45.7835C10.5203 46.3436 10.5727 46.9053 10.7086 47.4496C10.8057 47.8595 11.0063 48.2377 11.2914 48.5479C11.4212 48.6842 11.5419 48.8344 11.6671 48.9777C11.9223 49.2845 12.2724 49.4976 12.6621 49.5835C13.0335 49.6716 13.4148 49.711 13.7963 49.7007L15.5076 49.5751C15.5949 49.5622 15.6831 49.5555 15.7714 49.555C15.8535 49.5595 15.9472 49.5015 16.0017 49.5777C15.9238 50.0269 15.8285 50.4945 15.7414 50.9425C15.7258 51.0042 15.7174 51.0675 15.7162 51.1311C15.7195 51.1825 15.7367 51.232 15.7659 51.2744C15.7951 51.3167 15.8352 51.3503 15.8821 51.3715C15.926 51.3986 15.9777 51.4101 16.029 51.4041C16.0802 51.3981 16.1279 51.3751 16.1644 51.3387C16.1967 51.29 16.2592 51.2563 16.3042 51.2111C16.5087 51.0013 16.6945 50.7742 16.9175 50.5817C17.3578 50.198 17.8143 49.835 18.2615 49.4709C18.2991 49.4376 18.3393 49.4074 18.3816 49.3804C18.4874 49.3122 18.6088 49.2722 18.7344 49.2641C19.0152 49.256 19.2949 49.2257 19.5709 49.1736C20.2476 49.0521 20.9314 48.9953 21.6152 48.9236C22.2989 48.8518 22.9803 48.7534 23.6606 48.6643C23.8125 48.6406 23.9674 48.645 24.1177 48.6774C24.0256 48.9669 23.9439 49.2332 23.8541 49.5041C23.7687 49.7974 23.7538 50.1066 23.8105 50.4067C23.8157 50.4581 23.8342 50.5073 23.8642 50.5493C23.8942 50.5914 23.9347 50.6248 23.9816 50.6463C24.0286 50.6679 24.0803 50.6768 24.1318 50.6722C24.1832 50.6676 24.2326 50.6496 24.2749 50.62C24.4075 50.5435 24.5182 50.4342 24.5961 50.3024C24.7023 50.1426 24.8061 49.9861 24.9297 49.8378C25.1723 49.5591 25.4387 49.302 25.7256 49.0692C26.3038 48.5184 27.0746 48.2159 27.873 48.2266C28.1762 48.2226 28.4794 48.1735 28.7825 48.1394C28.9213 48.1265 29.0601 48.0984 29.2002 48.0913C29.6574 48.0752 30.1126 48.0206 30.5607 47.9281C30.9308 47.8383 31.3185 47.8353 31.6816 47.7109C31.7182 47.6985 31.7564 47.6918 31.795 47.691C32.2999 47.6272 32.7951 47.502 33.2697 47.3182C33.4104 47.2572 33.563 47.2284 33.7162 47.2341C33.7245 47.2873 33.7273 47.3412 33.7246 47.3949C33.6984 47.6229 33.671 47.8602 33.6425 48.0766C33.5919 48.4948 33.6373 48.9189 33.7753 49.3169C33.796 49.3907 33.8295 49.4604 33.8741 49.5227C33.8909 49.5504 33.9146 49.5732 33.9429 49.589C33.9711 49.6047 34.003 49.6129 34.0354 49.6127C34.0678 49.6126 34.0995 49.6041 34.1276 49.588C34.1557 49.5719 34.1792 49.5488 34.1958 49.521C34.2285 49.4829 34.2565 49.4409 34.2789 49.3959C34.3584 49.2083 34.4541 49.0114 34.5104 48.8285C34.7556 48.0895 35.1486 47.4081 35.6654 46.8258C35.8234 46.608 36.0397 46.4391 36.2894 46.3386C36.3585 46.3064 36.4231 46.265 36.4812 46.2156L37.4211 45.6378C37.8938 45.3407 38.3735 45.0483 38.8428 44.7489C39.23 44.5053 39.6034 44.2524 39.9802 44.0018C40.246 43.8277 40.5154 43.6561 40.7778 43.4797C41.097 43.2464 41.3847 42.9729 41.6338 42.6659C42.012 42.2876 42.3629 41.8829 42.6836 41.4548C42.7759 41.2891 42.9133 41.1528 43.0798 41.0619C43.1973 41.4204 43.3102 41.7708 43.4277 42.1143C43.4882 42.2947 43.5544 42.4739 43.6287 42.6485C43.7032 42.8096 43.7862 42.9667 43.8772 43.1191C43.9469 43.2405 44.0107 43.378 44.1831 43.3673C44.3555 43.3566 44.3808 43.2432 44.414 43.0198C44.4304 42.7406 44.4272 42.4607 44.4044 42.182C44.3813 41.5607 44.3224 40.9406 44.2462 40.3239C44.1776 39.9321 44.226 39.5287 44.3853 39.1642C44.6471 38.6268 44.8729 38.0756 45.0849 37.5152C45.2713 36.9743 45.3904 36.4125 45.4396 35.8424C45.4462 35.7794 45.4465 35.7158 45.4404 35.6527C45.3807 35.2524 45.3407 34.8451 45.2439 34.4403C45.1354 33.9174 44.9806 33.4039 44.8582 32.8869C44.7433 32.3952 44.5469 31.9262 44.2772 31.4993C43.9167 30.8695 43.4228 30.3261 42.8303 29.9072C42.7261 29.8379 42.6403 29.7409 42.5372 29.6624C42.249 29.4318 41.9493 29.216 41.6392 29.0159C41.3362 28.8281 41.0589 28.6019 40.8142 28.3427C40.4607 27.9777 40.1371 27.5824 39.8044 27.2011C39.2451 26.5408 38.722 25.8506 38.2374 25.1337C38.2005 25.0827 38.1676 25.0289 38.1388 24.973C38.0018 24.6816 37.8717 24.3949 37.7184 24.0978C37.5652 23.8006 37.4189 23.5382 37.2865 23.2399C37.1829 22.9931 37.0538 22.7579 36.9011 22.5381C36.7781 22.3613 36.6435 22.1717 36.5241 22.0122C36.2782 21.6886 36.0392 21.3546 35.7679 21.0542C35.4294 20.6741 35.0632 20.3207 34.6969 19.9672C34.3778 19.6528 34.012 19.3896 33.6124 19.1869C32.987 18.8767 32.3501 18.5838 31.7108 18.2794L31.5313 18.2103C31.3125 18.14 31.0879 18.0861 30.8737 18.0089C30.2766 17.7877 29.6338 17.7188 29.0034 17.8085C28.6887 17.8449 28.3694 17.8883 28.0547 17.9247C27.74 17.9611 27.349 18.0219 27.0008 18.0861C26.6526 18.1504 26.3797 18.2296 26.0673 18.2926C25.8857 18.3396 25.6995 18.367 25.512 18.3746C24.534 18.3443 23.5608 18.2243 22.6046 18.0162C22.3935 17.9751 22.1782 17.9599 21.9634 17.971C21.9248 17.9735 21.8875 17.9862 21.8555 18.0079C21.8235 18.0297 21.7978 18.0596 21.7812 18.0945C21.7646 18.1295 21.7577 18.1683 21.7612 18.2069C21.7646 18.2454 21.7784 18.2824 21.8009 18.3138C21.8279 18.3567 21.8619 18.3945 21.9017 18.4259C22.2923 18.7547 22.7357 19.0154 23.213 19.1966C23.3167 19.2366 23.4169 19.2848 23.5129 19.3407C23.4146 19.4057 23.3465 19.4556 23.2737 19.4974C23.0737 19.61 22.8621 19.7249 22.6691 19.8271C22.1356 20.1138 21.6288 20.4477 21.1548 20.8248C20.7411 21.1611 20.3112 21.4766 19.9138 21.8337C19.5891 22.1189 19.32 22.441 19.0024 22.761C18.9178 22.856 18.8143 22.9324 18.6985 22.9849C18.3629 23.1364 18.0185 23.2672 17.6669 23.3766C17.0516 23.5489 16.4478 23.7038 15.8186 23.8519L15.1488 24.0081C15.0875 24.0219 15.0282 24.043 14.9719 24.0709C14.939 24.0843 14.9102 24.1061 14.8886 24.1342C14.8669 24.1624 14.8531 24.1957 14.8486 24.2309C14.844 24.2661 14.8489 24.302 14.8628 24.3347C14.8766 24.3674 14.8989 24.3957 14.9274 24.417C15.038 24.5037 15.1626 24.5712 15.2957 24.6165C15.7815 24.7722 16.2906 24.8426 16.8004 24.8245L17.026 24.8242L17.3014 24.8318C16.98 25.1794 16.6989 25.5623 16.4633 25.9731C16.3502 26.1434 16.2602 26.3391 16.1575 26.5012C15.892 26.9361 15.6703 27.3962 15.4957 27.8748C15.3413 28.2731 15.2077 28.6402 15.0313 29.0038C14.8158 29.4367 14.6294 29.8835 14.4735 30.3413C14.3998 30.5578 14.3169 30.7732 14.2236 30.9816C14.1595 31.1343 14.067 31.2735 13.9512 31.3918C13.6526 31.6689 13.3381 31.9283 13.0094 32.1687C12.554 32.4923 12.0917 32.7963 11.6039 33.0783C11.3715 33.2082 11.1946 33.4183 11.1062 33.6693C11.3252 33.8448 11.3286 33.8622 11.516 33.8064C11.9807 33.7312 12.4374 33.6138 12.8808 33.4557C13.0113 33.4072 13.1467 33.3728 13.2845 33.3532L13.3274 33.4016Z" fill="#DB4546"/>
<path d="M30.3416 45.1431C30.0444 45.2061 29.7424 45.2459 29.4475 45.3355C28.3302 45.6453 27.1919 45.881 26.0675 46.0958C25.134 46.2872 24.1994 46.4879 23.2647 46.6885C22.8298 46.7853 22.4065 46.9249 21.9681 47.0043C21.3284 47.1154 20.6851 47.194 20.0442 47.2842C19.5792 47.351 19.1106 47.4154 18.6432 47.4706C17.9149 47.5846 17.1797 47.6485 16.4426 47.6619C16.2391 47.6584 16.0355 47.6652 15.8328 47.6825C15.4127 47.7204 14.9899 47.6514 14.6035 47.4822C14.3464 47.3715 14.0917 47.2574 13.8323 47.1352C13.6258 47.0331 13.4397 46.8943 13.2831 46.7253C13.1537 46.5928 13.0526 46.4354 12.9857 46.2627C12.9188 46.09 12.8874 45.9055 12.8937 45.7204C12.9002 45.4543 12.8986 45.1928 12.8808 44.9255C12.8325 44.3168 12.8762 43.7042 13.0107 43.1085C13.0574 42.8968 13.0895 42.6822 13.1068 42.4661C13.1343 42.1747 13.1868 41.8861 13.2638 41.6037C13.3362 41.3213 13.3924 41.033 13.4614 40.7332C13.4878 40.6105 13.5108 40.4855 13.5395 40.3593C13.58 40.2155 13.6118 40.0693 13.6347 39.9217C13.687 39.3754 13.8458 38.8498 13.9386 38.3104C14.0308 37.7581 14.1775 37.2164 14.3767 36.6931C14.441 36.528 14.4892 36.357 14.5205 36.1826C14.5788 35.8832 14.6703 35.5911 14.7932 35.3119C14.8381 35.1914 14.8738 35.0699 14.9187 34.9495L15.2136 34.1436L15.7985 32.4485C15.9943 31.8823 16.1842 31.3173 16.3962 30.7568C16.5046 30.4979 16.6286 30.2457 16.7675 30.0017C16.8615 29.8495 16.9462 29.6916 17.0212 29.5291C17.2677 28.8714 17.688 28.2991 17.9774 27.6599C17.9929 27.6402 18.0068 27.6193 18.0189 27.5973C18.3697 26.8475 18.8549 26.1681 19.4503 25.5929C19.892 25.0995 20.3668 24.6367 20.8713 24.2077C21.6255 23.5102 22.4355 22.8756 23.2934 22.3103C23.9649 21.8238 24.7478 21.5138 25.5703 21.4085L26.1869 21.3172C26.9424 21.2129 27.6943 21.0913 28.4556 21.0159C28.7341 21.0004 29.0132 21.0348 29.2797 21.1175C30.2326 21.3567 31.1387 21.7537 31.9605 22.2919C32.0857 22.375 32.2143 22.4605 32.3429 22.5459C32.7826 22.8093 33.1378 23.1929 33.3665 23.6516C33.5439 23.9589 33.7025 24.2766 33.8415 24.6031C33.984 24.9285 34.1445 25.2458 34.3222 25.5534C34.6971 26.2332 35.0604 26.9153 35.4481 27.5835C35.7841 28.186 36.2171 28.7291 36.7296 29.1909C37.0471 29.467 37.2929 29.7755 37.5919 30.0492C37.8434 30.2813 38.125 30.4834 38.3938 30.697C38.6626 30.9106 38.95 31.1416 39.2362 31.3517C39.4295 31.4951 39.6302 31.6284 39.8375 31.751C40.1555 31.9153 40.4488 32.1236 40.7087 32.3697C41.0819 32.7374 41.3321 33.2115 41.425 33.727C41.4976 34.27 41.5206 34.8184 41.4938 35.3655C41.4636 35.7075 41.3754 36.0418 41.2329 36.3542C41.0981 36.7004 40.9459 37.0351 40.8042 37.3767C40.6716 37.6805 40.4954 37.9634 40.2814 38.2165C39.8784 38.7101 39.4846 39.1899 39.0793 39.7021C38.8437 40.0178 38.571 40.3042 38.2673 40.5552C37.7842 40.9355 37.3221 41.3298 36.8773 41.7506C36.5749 42.0265 36.2449 42.2705 35.8926 42.479C35.3667 42.8108 34.8419 43.1485 34.3287 43.4988C33.8377 43.8165 33.3202 44.0911 32.7819 44.3196C32.3168 44.5385 31.8354 44.7212 31.3422 44.866C31.0114 44.9568 30.6735 45.0279 30.3369 45.1049" fill="#DB4546"/>
</g>
<defs>
<clipPath id="clip0">
<rect width="60" height="60" fill="white" transform="translate(0 0.000488281)"/>
</clipPath>
</defs>
</svg>
