<svg width="40" height="40" viewBox="0 0 40 40" fill="none" xmlns="http://www.w3.org/2000/svg">
<g clip-path="url(#clip0)">
<circle cx="19.9996" cy="20" r="20" fill="#F8BB46"/>
<path d="M31.546 14.0196C31.2318 14.1686 30.9088 14.2943 30.5787 14.3963C30.9695 13.924 31.2674 13.3682 31.4493 12.7601C31.4901 12.6238 31.4478 12.4746 31.343 12.3854C31.2383 12.2962 31.0928 12.2855 30.9775 12.3585C30.2765 12.8029 29.5203 13.1222 28.7273 13.3089C27.9285 12.4747 26.8436 12 25.7221 12C23.3547 12 21.4286 14.0584 21.4286 16.5884C21.4286 16.7877 21.4404 16.9859 21.4638 17.1813C18.526 16.9056 15.7949 15.3624 13.9194 12.9037C13.8526 12.8161 13.7496 12.7689 13.6442 12.7779C13.5387 12.7867 13.4439 12.8503 13.3906 12.948C13.0102 13.6456 12.8091 14.4434 12.8091 15.2551C12.8091 16.3608 13.1785 17.4098 13.831 18.2295C13.6326 18.156 13.4401 18.0642 13.2563 17.9552C13.1577 17.8966 13.0373 17.8975 12.9393 17.9575C12.8412 18.0176 12.7797 18.128 12.7771 18.2488C12.7767 18.2691 12.7767 18.2894 12.7767 18.3101C12.7767 19.9604 13.6078 21.4462 14.8784 22.256C14.7693 22.2444 14.6602 22.2275 14.5518 22.2053C14.44 22.1825 14.3251 22.2244 14.2498 22.3154C14.1743 22.4065 14.1493 22.5333 14.1841 22.6492C14.6544 24.2185 15.8653 25.3728 17.3292 25.7247C16.1151 26.5374 14.7266 26.9631 13.2691 26.9631C12.965 26.9631 12.6591 26.944 12.3597 26.9062C12.211 26.8873 12.0688 26.9811 12.0182 27.1322C11.9675 27.2835 12.0212 27.452 12.1477 27.5387C14.0202 28.8218 16.1853 29.5 18.4088 29.5C22.78 29.5 25.5145 27.297 27.0387 25.449C28.9394 23.1446 30.0294 20.0944 30.0294 17.0807C30.0294 16.9548 30.0276 16.8276 30.024 16.7009C30.7739 16.0971 31.4195 15.3664 31.9448 14.5265C32.0246 14.3989 32.016 14.2303 31.9235 14.1129C31.8312 13.9954 31.6773 13.9574 31.546 14.0196Z" fill="#F8F3E8"/>
</g>
<defs>
<clipPath id="clip0">
<rect width="40" height="40" fill="white" transform="translate(0.000488281)"/>
</clipPath>
</defs>
</svg>
