<svg width="40" height="40" viewBox="0 0 40 40" fill="none" xmlns="http://www.w3.org/2000/svg">
<path d="M31.7742 26.2256C31.7061 26.1116 31.2849 25.1964 29.2581 23.3152C27.1363 21.3454 27.4213 21.6653 29.977 18.2593C31.5335 16.1849 32.1558 14.9182 31.9611 14.3766C31.7758 13.8604 30.631 13.9966 30.631 13.9966L26.8244 14.0188C26.8244 14.0188 26.5425 13.9808 26.3319 14.1059C26.1276 14.2294 25.9962 14.5144 25.9962 14.5144C25.9962 14.5144 25.3929 16.12 24.5885 17.4849C22.8926 20.3652 22.2133 20.5173 21.9362 20.3383C21.2918 19.9219 21.4533 18.663 21.4533 17.77C21.4533 14.9783 21.8761 13.8145 20.6283 13.5137C20.2135 13.4139 19.9094 13.3474 18.8501 13.3363C17.4915 13.3221 16.3403 13.3411 15.6895 13.6593C15.2557 13.8715 14.9216 14.345 15.1258 14.3719C15.3776 14.4051 15.9476 14.5255 16.2501 14.9372C16.6412 15.4676 16.6269 16.6616 16.6269 16.6616C16.6269 16.6616 16.8518 19.9472 16.1028 20.3557C15.5882 20.636 14.8836 20.0644 13.3714 17.4501C12.5971 16.1121 12.0112 14.6316 12.0112 14.6316C12.0112 14.6316 11.8988 14.3561 11.6977 14.2088C11.4538 14.0299 11.1118 13.9729 11.1118 13.9729L7.49202 13.995C7.49202 13.995 6.94889 14.0109 6.74938 14.2468C6.57203 14.4574 6.73513 14.8913 6.73513 14.8913C6.73513 14.8913 9.5695 21.5212 12.7776 24.8638C15.7212 27.9278 19.0623 27.7267 19.0623 27.7267H20.5761C20.5761 27.7267 21.0337 27.676 21.2664 27.4243C21.4818 27.1931 21.4739 26.7592 21.4739 26.7592C21.4739 26.7592 21.4438 24.7276 22.3875 24.4284C23.317 24.1339 24.5109 26.3919 25.7761 27.2612C26.7325 27.9183 27.4593 27.7742 27.4593 27.7742L30.8431 27.7267C30.8431 27.7267 32.6134 27.6174 31.7742 26.2256Z" fill="#FFED76"/>
<circle cx="20" cy="20" r="19.5" stroke="#FFED76"/>
</svg>
