<svg width="40" height="40" viewBox="0 0 40 40" fill="none" xmlns="http://www.w3.org/2000/svg">
<circle cx="20" cy="20" r="20" fill="#F8BB46"/>
<path d="M31.7743 26.2256C31.7062 26.1116 31.285 25.1964 29.2582 23.3152C27.1364 21.3454 27.4214 21.6653 29.9771 18.2593C31.5336 16.1849 32.1559 14.9182 31.9611 14.3766C31.7759 13.8604 30.631 13.9966 30.631 13.9966L26.8244 14.0188C26.8244 14.0188 26.5426 13.9808 26.332 14.1059C26.1277 14.2294 25.9963 14.5144 25.9963 14.5144C25.9963 14.5144 25.393 16.12 24.5886 17.4849C22.8927 20.3652 22.2134 20.5173 21.9363 20.3383C21.2918 19.9219 21.4534 18.663 21.4534 17.77C21.4534 14.9783 21.8761 13.8145 20.6284 13.5137C20.2135 13.4139 19.9095 13.3474 18.8502 13.3363C17.4916 13.3221 16.3404 13.3411 15.6896 13.6593C15.2557 13.8715 14.9216 14.345 15.1259 14.3719C15.3777 14.4051 15.9477 14.5255 16.2501 14.9372C16.6412 15.4676 16.627 16.6616 16.627 16.6616C16.627 16.6616 16.8518 19.9472 16.1029 20.3557C15.5883 20.636 14.8836 20.0644 13.3714 17.4501C12.5971 16.1121 12.0112 14.6316 12.0112 14.6316C12.0112 14.6316 11.8988 14.3561 11.6977 14.2088C11.4539 14.0299 11.1118 13.9729 11.1118 13.9729L7.49208 13.995C7.49208 13.995 6.94896 14.0109 6.74944 14.2468C6.57209 14.4574 6.73519 14.8913 6.73519 14.8913C6.73519 14.8913 9.56956 21.5212 12.7776 24.8638C15.7213 27.9278 19.0623 27.7267 19.0623 27.7267H20.5761C20.5761 27.7267 21.0337 27.676 21.2665 27.4243C21.4819 27.1931 21.4739 26.7592 21.4739 26.7592C21.4739 26.7592 21.4439 24.7276 22.3876 24.4284C23.3171 24.1339 24.511 26.3919 25.7762 27.2612C26.7326 27.9183 27.4594 27.7742 27.4594 27.7742L30.8432 27.7267C30.8432 27.7267 32.6135 27.6174 31.7743 26.2256Z" fill="#F8F3E8"/>
</svg>
